<?xml version="1.0" encoding="UTF-8" standalone="no"?>
<!-- Created with Inkscape (http://www.inkscape.org/) -->

<svg
   version="1.1"
   id="svg1"
   width="174.83221"
   height="43.906281"
   viewBox="0 0 174.83221 43.90628"
   xmlns="http://www.w3.org/2000/svg"
   xmlns:svg="http://www.w3.org/2000/svg">
  <defs
     id="defs1">
    <clipPath
       clipPathUnits="userSpaceOnUse"
       id="clipPath363">
      <path
         d="M 0,566.929 H 1417.323 V 0 H 0 Z"
         transform="translate(-427.42391,-282.3206)"
         id="path363" />
    </clipPath>
    <clipPath
       clipPathUnits="userSpaceOnUse"
       id="clipPath365">
      <path
         d="M 0,566.929 H 1417.323 V 0 H 0 Z"
         transform="translate(-411.19421,-281.921)"
         id="path365" />
    </clipPath>
    <clipPath
       clipPathUnits="userSpaceOnUse"
       id="clipPath367">
      <path
         d="M 0,566.929 H 1417.323 V 0 H 0 Z"
         transform="translate(-411.19421,-281.921)"
         id="path367" />
    </clipPath>
    <clipPath
       clipPathUnits="userSpaceOnUse"
       id="clipPath369">
      <path
         d="M 0,566.929 H 1417.323 V 0 H 0 Z"
         transform="translate(-391.70671,-289.6817)"
         id="path369" />
    </clipPath>
    <clipPath
       clipPathUnits="userSpaceOnUse"
       id="clipPath371">
      <path
         d="M 0,566.929 H 1417.323 V 0 H 0 Z"
         transform="translate(-432.34571,-281.921)"
         id="path371" />
    </clipPath>
    <clipPath
       clipPathUnits="userSpaceOnUse"
       id="clipPath373">
      <path
         d="M 0,566.929 H 1417.323 V 0 H 0 Z"
         transform="translate(-432.34571,-281.921)"
         id="path373" />
    </clipPath>
    <clipPath
       clipPathUnits="userSpaceOnUse"
       id="clipPath375">
      <path
         d="M 0,566.929 H 1417.323 V 0 H 0 Z"
         transform="translate(-483.65041,-281.921)"
         id="path375" />
    </clipPath>
    <clipPath
       clipPathUnits="userSpaceOnUse"
       id="clipPath377">
      <path
         d="M 0,566.929 H 1417.323 V 0 H 0 Z"
         transform="translate(-483.65041,-281.921)"
         id="path377" />
    </clipPath>
    <clipPath
       clipPathUnits="userSpaceOnUse"
       id="clipPath379">
      <path
         d="M 0,566.929 H 1417.323 V 0 H 0 Z"
         transform="translate(-505.79591,-281.921)"
         id="path379" />
    </clipPath>
    <clipPath
       clipPathUnits="userSpaceOnUse"
       id="clipPath381">
      <path
         d="M 0,566.929 H 1417.323 V 0 H 0 Z"
         transform="translate(-505.79591,-281.921)"
         id="path381" />
    </clipPath>
    <clipPath
       clipPathUnits="userSpaceOnUse"
       id="clipPath383">
      <path
         d="M 0,566.929 H 1417.323 V 0 H 0 Z"
         transform="translate(-446.17721,-297.44201)"
         id="path383" />
    </clipPath>
    <clipPath
       clipPathUnits="userSpaceOnUse"
       id="clipPath385">
      <path
         d="M 0,566.929 H 1417.323 V 0 H 0 Z"
         transform="translate(-404.95521,-292.5026)"
         id="path385" />
    </clipPath>
    <clipPath
       clipPathUnits="userSpaceOnUse"
       id="clipPath387">
      <path
         d="M 0,566.929 H 1417.323 V 0 H 0 Z"
         transform="translate(-460.64641,-292.5026)"
         id="path387" />
    </clipPath>
    <clipPath
       clipPathUnits="userSpaceOnUse"
       id="clipPath389">
      <path
         d="M 0,566.929 H 1417.323 V 0 H 0 Z"
         transform="translate(-499.54281,-292.5026)"
         id="path389" />
    </clipPath>
    <clipPath
       clipPathUnits="userSpaceOnUse"
       id="clipPath391">
      <path
         d="M 0,566.929 H 1417.323 V 0 H 0 Z"
         transform="translate(-446.48061,-288.28531)"
         id="path391" />
    </clipPath>
    <clipPath
       clipPathUnits="userSpaceOnUse"
       id="clipPath393">
      <path
         d="M 0,566.929 H 1417.323 V 0 H 0 Z"
         transform="translate(-475.27431,-282.3206)"
         id="path393" />
    </clipPath>
    <clipPath
       clipPathUnits="userSpaceOnUse"
       id="clipPath395">
      <path
         d="M 0,566.929 H 1417.323 V 0 H 0 Z"
         transform="translate(-428.38341,-309.62311)"
         id="path395" />
    </clipPath>
    <clipPath
       clipPathUnits="userSpaceOnUse"
       id="clipPath397">
      <path
         d="M 0,566.929 H 1417.323 V 0 H 0 Z"
         transform="translate(-429.61271,-304.74171)"
         id="path397" />
    </clipPath>
    <clipPath
       clipPathUnits="userSpaceOnUse"
       id="clipPath399">
      <path
         d="M 0,566.929 H 1417.323 V 0 H 0 Z"
         transform="translate(-447.59421,-310.41021)"
         id="path399" />
    </clipPath>
    <clipPath
       clipPathUnits="userSpaceOnUse"
       id="clipPath401">
      <path
         d="M 0,566.929 H 1417.323 V 0 H 0 Z"
         transform="translate(-440.50091,-305.37791)"
         id="path401" />
    </clipPath>
    <clipPath
       clipPathUnits="userSpaceOnUse"
       id="clipPath403">
      <path
         d="M 0,566.929 H 1417.323 V 0 H 0 Z"
         transform="translate(-443.99261,-292.6412)"
         id="path403" />
    </clipPath>
    <clipPath
       clipPathUnits="userSpaceOnUse"
       id="clipPath405">
      <path
         d="M 0,566.929 H 1417.323 V 0 H 0 Z"
         transform="translate(-451.65451,-306.49451)"
         id="path405" />
    </clipPath>
    <clipPath
       clipPathUnits="userSpaceOnUse"
       id="clipPath407">
      <path
         d="M 0,566.929 H 1417.323 V 0 H 0 Z"
         transform="translate(-457.21021,-305.37791)"
         id="path407" />
    </clipPath>
    <clipPath
       clipPathUnits="userSpaceOnUse"
       id="clipPath409">
      <path
         d="M 0,566.929 H 1417.323 V 0 H 0 Z"
         transform="translate(-460.64571,-297.5747)"
         id="path409" />
    </clipPath>
    <clipPath
       clipPathUnits="userSpaceOnUse"
       id="clipPath411">
      <path
         d="M 0,566.929 H 1417.323 V 0 H 0 Z"
         transform="translate(-421.10831,-305.70361)"
         id="path411" />
    </clipPath>
    <clipPath
       clipPathUnits="userSpaceOnUse"
       id="clipPath413">
      <path
         d="M 0,566.929 H 1417.323 V 0 H 0 Z"
         transform="translate(-475.76161,-303.22801)"
         id="path413" />
    </clipPath>
  </defs>
  <g
     id="layer-MC0"
     style="display:none"
     transform="translate(-513.19525,-336.92438)">
    <path
       id="path1"
       d="M 166.461,0 H 1247.504 V 566.929 H 166.461 Z"
       style="fill:#bf1c2f;fill-opacity:1;fill-rule:nonzero;stroke:none"
       transform="matrix(1.3333333,0,0,-1.3333333,0,755.90533)" />
  </g>
  <g
     id="layer-MC1"
     transform="translate(-513.19525,-336.92438)">
    <path
       id="path230"
       d="M 0,0 H 1002.112 L 501.056,-501.056 0,0"
       style="fill:none;stroke:#7d7b7b;stroke-width:0.72;stroke-linecap:round;stroke-linejoin:round;stroke-miterlimit:10;stroke-dasharray:none;stroke-opacity:1"
       transform="matrix(1.3333333,0,0,-1.3333333,542.11773,18.631067)" />
    <path
       id="path231"
       d="M 0,0 -440.895,440.895 -881.79,0 H 0"
       style="fill:none;stroke:#7d7b7b;stroke-width:0.72;stroke-linecap:round;stroke-linejoin:round;stroke-miterlimit:10;stroke-dasharray:none;stroke-opacity:1"
       transform="matrix(1.3333333,0,0,-1.3333333,1194.6027,686.70547)" />
    <path
       id="path362"
       d="m 0,0 h -6.068 c 2.48,1.415 7.38,6.352 8.789,10.58 L -5.424,10.581 -5.8,9.453 h 0.391 l 0.243,0.729 H 0.98 C -0.904,5.295 -7.518,0.001 -9.138,0.001 L -9.133,0 h -0.005 v -0.399 h 9.005 0.391 L 0.635,0.729 H 0.243 Z"
       style="fill:#ffffff;fill-opacity:1;fill-rule:nonzero;stroke:#ffffff;stroke-width:0.432;stroke-linecap:butt;stroke-linejoin:miter;stroke-miterlimit:10;stroke-dasharray:none;stroke-opacity:1"
       transform="matrix(1.3333333,0,0,-1.3333333,569.89853,379.47787)"
       clip-path="url(#clipPath363)" />
    <path
       id="path364"
       d="m 0,0 c -2.158,0 -1.005,3.1 -0.343,5.091 1.145,3.439 2.585,5.091 4.002,5.091 2.206,0 1.834,-2.135 1.559,-3.077 L 4.475,4.876 C 2.816,0.101 0.963,0 0,0 M 8.264,10.582 H 6.377 L 5.94,9.271 c -0.253,0.719 -0.887,1.31 -2.281,1.31 -1.5,0 -4.389,-0.993 -5.889,-5.49 -1.728,-5.183 1.636,-5.49 2.23,-5.49 0.94,0 2.038,0.16 3.116,1.198 L 2.85,0 H 3.141 5.738 L 5.871,0.399 H 4.87 Z"
       style="fill:#ffffff;fill-opacity:1;fill-rule:nonzero;stroke:none"
       transform="matrix(1.3333333,0,0,-1.3333333,548.25893,380.01067)"
       clip-path="url(#clipPath365)" />
    <path
       id="path366"
       d="m 0,0 c -2.158,0 -1.005,3.1 -0.343,5.091 1.145,3.439 2.585,5.091 4.002,5.091 2.206,0 1.834,-2.135 1.559,-3.077 L 4.475,4.876 C 2.816,0.101 0.963,0 0,0 Z M 8.264,10.582 H 6.377 L 5.94,9.271 c -0.253,0.719 -0.887,1.31 -2.281,1.31 -1.5,0 -4.389,-0.993 -5.889,-5.49 -1.728,-5.183 1.636,-5.49 2.23,-5.49 0.94,0 2.038,0.16 3.116,1.198 L 2.85,0 H 3.141 5.738 L 5.871,0.399 H 4.87 Z"
       style="fill:none;stroke:#ffffff;stroke-width:0.432;stroke-linecap:butt;stroke-linejoin:miter;stroke-miterlimit:10;stroke-dasharray:none;stroke-opacity:1"
       transform="matrix(1.3333333,0,0,-1.3333333,548.25893,380.01067)"
       clip-path="url(#clipPath367)" />
    <path
       id="path368"
       d="m 0,0 -0.987,-2.953 h 0.391 c 0.307,0.921 1.495,2.554 3.376,2.554 h 1.034 c -2.41,-7.038 -4.883,-7.361 -6.535,-7.361 -1.944,0 -3.272,1.64 -1.233,7.76 1.971,5.906 4.704,7.76 6.671,7.76 1.74,0 2.459,-1.157 1.45,-5.131 0.933,0 2.536,0.772 2.521,1.706 C 6.642,7.128 4.854,8.159 2.717,8.159 0.491,8.159 -3.611,6.683 -5.837,0 c -2.039,-6.116 0.399,-8.159 3.116,-8.159 2.474,0 6.084,0.738 8.558,8.159 z"
       style="fill:#ffffff;fill-opacity:1;fill-rule:nonzero;stroke:#ffffff;stroke-width:0.432;stroke-linecap:butt;stroke-linejoin:miter;stroke-miterlimit:10;stroke-dasharray:none;stroke-opacity:1"
       transform="matrix(1.3333333,0,0,-1.3333333,522.2756,369.66307)"
       clip-path="url(#clipPath369)" />
    <path
       id="path370"
       d="m 0,0 c -2.158,0 -1.005,3.1 -0.343,5.091 1.145,3.439 2.585,5.091 4.002,5.091 2.206,0 1.834,-2.135 1.559,-3.076 L 4.475,4.876 C 2.816,0.101 0.963,0 0,0 M 8.264,10.582 H 6.377 L 5.94,9.271 c -0.253,0.719 -0.887,1.31 -2.281,1.31 -1.5,0 -4.389,-0.993 -5.889,-5.49 -1.728,-5.183 1.636,-5.49 2.23,-5.49 0.94,0 2.038,0.16 3.116,1.198 L 2.85,0 H 5.738 L 5.871,0.399 H 4.87 Z"
       style="fill:#ffffff;fill-opacity:1;fill-rule:nonzero;stroke:none"
       transform="matrix(1.3333333,0,0,-1.3333333,576.46093,380.01067)"
       clip-path="url(#clipPath371)" />
    <path
       id="path372"
       d="m 0,0 c -2.158,0 -1.005,3.1 -0.343,5.091 1.145,3.439 2.585,5.091 4.002,5.091 2.206,0 1.834,-2.135 1.559,-3.076 L 4.475,4.876 C 2.816,0.101 0.963,0 0,0 Z M 8.264,10.582 H 6.377 L 5.94,9.271 c -0.253,0.719 -0.887,1.31 -2.281,1.31 -1.5,0 -4.389,-0.993 -5.889,-5.49 -1.728,-5.183 1.636,-5.49 2.23,-5.49 0.94,0 2.038,0.16 3.116,1.198 L 2.85,0 H 5.738 L 5.871,0.399 H 4.87 Z"
       style="fill:none;stroke:#ffffff;stroke-width:0.432;stroke-linecap:butt;stroke-linejoin:miter;stroke-miterlimit:10;stroke-dasharray:none;stroke-opacity:1"
       transform="matrix(1.3333333,0,0,-1.3333333,576.46093,380.01067)"
       clip-path="url(#clipPath373)" />
    <path
       id="path374"
       d="m 0,0 c -2.158,0 -1.005,3.1 -0.343,5.091 1.145,3.439 2.585,5.091 4.002,5.091 2.206,0 1.834,-2.135 1.559,-3.077 L 4.475,4.875 C 2.816,0.101 0.963,0 0,0 M 8.264,10.582 H 6.377 L 5.94,9.271 c -0.253,0.719 -0.887,1.31 -2.281,1.31 -1.5,0 -4.389,-0.993 -5.889,-5.49 -1.728,-5.183 1.636,-5.49 2.23,-5.49 0.94,0 2.038,0.16 3.116,1.198 L 2.85,0 H 5.738 L 5.871,0.399 H 4.87 Z"
       style="fill:#ffffff;fill-opacity:1;fill-rule:nonzero;stroke:none"
       transform="matrix(1.3333333,0,0,-1.3333333,644.8672,380.01067)"
       clip-path="url(#clipPath375)" />
    <path
       id="path376"
       d="m 0,0 c -2.158,0 -1.005,3.1 -0.343,5.091 1.145,3.439 2.585,5.091 4.002,5.091 2.206,0 1.834,-2.135 1.559,-3.077 L 4.475,4.875 C 2.816,0.101 0.963,0 0,0 Z M 8.264,10.582 H 6.377 L 5.94,9.271 c -0.253,0.719 -0.887,1.31 -2.281,1.31 -1.5,0 -4.389,-0.993 -5.889,-5.49 -1.728,-5.183 1.636,-5.49 2.23,-5.49 0.94,0 2.038,0.16 3.116,1.198 L 2.85,0 H 5.738 L 5.871,0.399 H 4.87 Z"
       style="fill:none;stroke:#ffffff;stroke-width:0.432;stroke-linecap:butt;stroke-linejoin:miter;stroke-miterlimit:10;stroke-dasharray:none;stroke-opacity:1"
       transform="matrix(1.3333333,0,0,-1.3333333,644.8672,380.01067)"
       clip-path="url(#clipPath377)" />
    <path
       id="path378"
       d="m 0,0 c -2.158,0 -1.005,3.1 -0.343,5.091 1.145,3.439 2.585,5.091 4.002,5.091 2.205,0 1.834,-2.135 1.559,-3.076 L 4.475,4.876 C 2.816,0.101 0.963,0 0,0 M 9.908,15.514 H 7.311 L 7.178,15.115 h 0.71 L 5.94,9.271 c -0.253,0.719 -0.887,1.31 -2.281,1.31 -1.501,0 -4.389,-0.993 -5.889,-5.49 -1.728,-5.183 1.636,-5.49 2.23,-5.49 0.94,0 2.038,0.16 3.116,1.198 L 2.85,0 H 5.738 L 5.871,0.399 H 4.87 Z"
       style="fill:#ffffff;fill-opacity:1;fill-rule:nonzero;stroke:none"
       transform="matrix(1.3333333,0,0,-1.3333333,674.39453,380.01067)"
       clip-path="url(#clipPath379)" />
    <path
       id="path380"
       d="m 0,0 c -2.158,0 -1.005,3.1 -0.343,5.091 1.145,3.439 2.585,5.091 4.002,5.091 2.205,0 1.834,-2.135 1.559,-3.076 L 4.475,4.876 C 2.816,0.101 0.963,0 0,0 Z M 9.908,15.514 H 7.311 L 7.178,15.115 h 0.71 L 5.94,9.271 c -0.253,0.719 -0.887,1.31 -2.281,1.31 -1.501,0 -4.389,-0.993 -5.889,-5.49 -1.728,-5.183 1.636,-5.49 2.23,-5.49 0.94,0 2.038,0.16 3.116,1.198 L 2.85,0 H 5.738 L 5.871,0.399 H 4.87 Z"
       style="fill:none;stroke:#ffffff;stroke-width:0.432;stroke-linecap:butt;stroke-linejoin:miter;stroke-miterlimit:10;stroke-dasharray:none;stroke-opacity:1"
       transform="matrix(1.3333333,0,0,-1.3333333,674.39453,380.01067)"
       clip-path="url(#clipPath381)" />
    <path
       id="path382"
       d="m 0,0 h -2.889 l -0.133,-0.399 h 1.13 l -5.04,-15.122 h 1.884 v 0 h 1.004 l 0.133,0.399 h -1.007 z"
       style="fill:#ffffff;fill-opacity:1;fill-rule:nonzero;stroke:#ffffff;stroke-width:0.432;stroke-linecap:butt;stroke-linejoin:miter;stroke-miterlimit:10;stroke-dasharray:none;stroke-opacity:1"
       transform="matrix(1.3333333,0,0,-1.3333333,594.90293,359.316)"
       clip-path="url(#clipPath383)" />
    <path
       id="path384"
       d="m 0,0 c -1.527,0 -2.742,-0.855 -3.667,-2.008 l 2.259,6.947 H -4.296 L -4.429,4.54 h 1.13 L -8.34,-10.581 h 1.885 l 2.302,7.079 c 0.839,1.43 2.231,3.103 4.153,3.103 2.021,0 1.714,-0.973 0.341,-5.091 l -1.697,-5.091 h 1.888 v 0 h 1.001 l 0.133,0.399 H 0.665 L 2.229,-5.49 C 3.601,-1.372 2.021,0 0,0"
       style="fill:#ffffff;fill-opacity:1;fill-rule:nonzero;stroke:#ffffff;stroke-width:0.432;stroke-linecap:butt;stroke-linejoin:miter;stroke-miterlimit:10;stroke-dasharray:none;stroke-opacity:1"
       transform="matrix(1.3333333,0,0,-1.3333333,539.94027,365.90187)"
       clip-path="url(#clipPath385)" />
    <path
       id="path386"
       d="m 0,0 c -1.527,0 -2.742,-0.855 -3.667,-2.008 l 2.259,6.947 H -4.296 L -4.429,4.54 h 1.13 L -8.34,-10.581 h 1.885 l 2.302,7.079 c 0.839,1.43 2.231,3.103 4.153,3.103 2.021,0 1.714,-0.973 0.342,-5.091 l -1.697,-5.091 h 2.888 l 0.133,0.399 H 0.665 L 2.229,-5.49 C 3.601,-1.372 2.021,0 0,0"
       style="fill:#ffffff;fill-opacity:1;fill-rule:nonzero;stroke:#ffffff;stroke-width:0.432;stroke-linecap:butt;stroke-linejoin:miter;stroke-miterlimit:10;stroke-dasharray:none;stroke-opacity:1"
       transform="matrix(1.3333333,0,0,-1.3333333,614.1952,365.90187)"
       clip-path="url(#clipPath387)" />
    <path
       id="path388"
       d="M 0,0 C -1.527,0 -2.742,-0.855 -3.667,-2.008 L -3.014,0 h -2.889 l -0.133,-0.4 h 1.09 L -8.34,-10.581 h 1.885 l 2.302,7.08 c 0.839,1.429 2.231,3.102 4.153,3.102 2.021,0 1.714,-0.973 0.341,-5.091 l -1.696,-5.091 h 2.888 l 0.133,0.399 H 0.665 L 2.229,-5.49 C 3.601,-1.372 2.021,0 0,0"
       style="fill:#ffffff;fill-opacity:1;fill-rule:nonzero;stroke:#ffffff;stroke-width:0.432;stroke-linecap:butt;stroke-linejoin:miter;stroke-miterlimit:10;stroke-dasharray:none;stroke-opacity:1"
       transform="matrix(1.3333333,0,0,-1.3333333,666.05707,365.90187)"
       clip-path="url(#clipPath389)" />
    <path
       id="path390"
       d="m 0,0 v -0.443 c 0.989,-0.255 4.808,-1.636 6.32,1.804 0.91,2.062 -0.818,3.255 -2.745,3.255 -1.5,0 -4.389,-0.993 -5.889,-5.49 -1.728,-5.183 2.035,-5.49 2.629,-5.49 1.197,0 2.937,0.256 4.277,2.25 H 3.403 C 2.039,-5.917 1.005,-5.965 0.315,-5.965 c -2.158,0 -1.404,3.1 -0.742,5.091 1.145,3.435 2.586,5.091 4.002,5.091 1.831,0 1.348,-1.959 0.857,-2.856 C 3.212,-0.874 0.638,-0.14 0,0"
       style="fill:#ffffff;fill-opacity:1;fill-rule:nonzero;stroke:#ffffff;stroke-width:0.432;stroke-linecap:butt;stroke-linejoin:miter;stroke-miterlimit:10;stroke-dasharray:none;stroke-opacity:1"
       transform="matrix(1.3333333,0,0,-1.3333333,595.30747,371.52493)"
       clip-path="url(#clipPath391)" />
    <path
       id="path392"
       d="M 0,0 H -4.888 C -1.429,1.721 4.71,8.745 6.833,15.114 H -2.908 L -3.892,12.161 H -3.5 c 0.307,0.921 1.495,2.554 3.375,2.554 H 4.803 C 2.203,7.512 -5.82,0 -8.217,0 L -8.35,-0.399 H 2.782 L 3.767,2.554 H 3.376 C 3.068,1.633 1.881,0 0,0"
       style="fill:#ffffff;fill-opacity:1;fill-rule:nonzero;stroke:#ffffff;stroke-width:0.432;stroke-linecap:butt;stroke-linejoin:miter;stroke-miterlimit:10;stroke-dasharray:none;stroke-opacity:1"
       transform="matrix(1.3333333,0,0,-1.3333333,633.69907,379.47787)"
       clip-path="url(#clipPath393)" />
    <path
       id="path394"
       d="M 0,0 C 0.263,-0.342 0.468,0.063 0.575,0.278 0.701,0.531 0.799,0.794 0.919,1.046 1.063,1.449 1.225,1.839 1.358,2.25 1.419,2.437 1.535,2.756 1.236,2.806 1.073,2.833 0.678,2.792 0.606,2.63 0.53,2.461 0.381,1.558 0.314,1.288 0.247,1.021 -0.03,0.204 0,0"
       style="fill:#ffffff;fill-opacity:1;fill-rule:evenodd;stroke:none"
       transform="matrix(1.3333333,0,0,-1.3333333,571.17787,343.07453)"
       clip-path="url(#clipPath395)" />
    <path
       id="path396"
       d="m 0,0 c -0.198,0 -0.396,-0.071 -0.594,-0.226 -0.763,-0.622 -1.385,-2.177 -1.343,-2.969 0,-0.198 0.057,-0.268 0.085,-0.297 0,0 0.368,-0.155 2.022,1.513 0.339,0.339 0.65,0.693 0.933,0.989 C 1.089,-0.975 1.089,-0.961 1.089,-0.947 0.961,-0.594 0.622,-0.156 0.212,-0.028 0.142,-0.014 0.071,0 0,0 m 1.682,-6.46 c -0.056,0 -0.113,0 -0.169,0.014 -0.212,0.042 -0.396,0.17 -0.523,0.382 -0.495,0.862 0.042,3.194 0.48,4.679 -0.268,-0.311 -0.594,-0.637 -0.904,-0.976 -1.782,-1.795 -2.389,-1.795 -2.715,-1.583 -0.197,0.127 -0.311,0.368 -0.339,0.721 -0.042,0.947 0.636,2.672 1.555,3.421 0.523,0.41 1.004,0.382 1.315,0.297 0.509,-0.156 0.904,-0.608 1.117,-1.018 0.254,0.283 0.409,0.466 0.409,0.481 0.085,0.099 0.227,0.127 0.34,0.056 0.113,-0.056 0.169,-0.198 0.127,-0.325 -0.594,-1.711 -1.357,-4.707 -0.919,-5.471 0.057,-0.099 0.113,-0.127 0.17,-0.127 0.904,-0.169 3.887,3.11 5.711,5.485 0.098,0.127 0.268,0.141 0.381,0.056 C 7.846,-0.467 7.86,-0.636 7.775,-0.749 7.761,-0.763 6.63,-2.248 5.315,-3.675 3.138,-6.05 2.191,-6.46 1.682,-6.46"
       style="fill:#ffffff;fill-opacity:1;fill-rule:nonzero;stroke:none"
       transform="matrix(1.3333333,0,0,-1.3333333,572.81693,349.58307)"
       clip-path="url(#clipPath397)" />
    <path
       id="path398"
       d="m 0,0 c 0,-0.141 -0.141,-0.254 -0.283,-0.24 -2.431,0.184 -5.598,-0.029 -8.679,-0.396 -1.032,-4.99 -2.714,-13.302 -3.11,-17.048 0.071,0.057 0.17,0.071 0.254,0.028 0.142,-0.056 0.212,-0.212 0.156,-0.353 -0.014,-0.014 -0.113,-0.255 -0.226,-0.495 -0.184,-0.396 -0.297,-0.622 -0.509,-0.622 h -0.071 c -0.056,0.014 -0.24,0.085 -0.24,0.353 0.099,2.955 2.007,12.468 3.181,18.08 -5.457,-0.678 -10.489,-1.752 -10.574,-1.767 h -0.057 c -0.127,0 -0.24,0.085 -0.268,0.213 -0.029,0.141 0.07,0.282 0.212,0.325 0.084,0.014 5.244,1.116 10.8,1.781 0.424,2.049 0.735,3.463 0.777,3.661 0.028,0.141 0.184,0.24 0.325,0.212 C -8.17,3.69 -8.071,3.548 -8.1,3.407 -8.114,3.35 -8.411,1.979 -8.849,-0.071 -5.782,0.283 -2.672,0.481 -0.24,0.297 -0.099,0.283 0.014,0.156 0,0"
       style="fill:#ffffff;fill-opacity:1;fill-rule:nonzero;stroke:none"
       transform="matrix(1.3333333,0,0,-1.3333333,596.79227,342.02507)"
       clip-path="url(#clipPath399)" />
    <path
       id="path400"
       d="m 0,0 c -0.127,0 -0.297,-0.057 -0.466,-0.184 -0.326,-0.226 -0.736,-0.763 -1.089,-1.414 0.509,0.099 1.428,0.368 1.781,1.146 0.028,0.084 0.113,0.282 -0.014,0.381 C 0.156,-0.028 0.085,0 0,0 m -1.894,-6.107 c -0.339,0 -0.608,0.099 -0.834,0.297 -0.297,0.255 -0.438,0.679 -0.41,1.258 0.085,1.64 1.413,4.142 2.361,4.82 0.452,0.326 0.989,0.368 1.328,0.085 0.226,-0.183 0.382,-0.551 0.17,-1.032 -0.594,-1.314 -2.304,-1.484 -2.587,-1.498 -0.396,-0.82 -0.693,-1.711 -0.721,-2.403 -0.014,-0.269 0.014,-0.636 0.212,-0.82 1.046,-0.905 4.722,2.205 6.8,4.382 0.098,0.113 0.268,0.113 0.381,0.014 C 4.919,-1.103 4.919,-1.286 4.82,-1.385 4.806,-1.4 3.407,-2.87 1.823,-4.156 0.198,-5.457 -1.032,-6.107 -1.894,-6.107"
       style="fill:#ffffff;fill-opacity:1;fill-rule:nonzero;stroke:none"
       transform="matrix(1.3333333,0,0,-1.3333333,587.33453,348.7348)"
       clip-path="url(#clipPath401)" />
    <path
       id="path402"
       d="m 0,0 c -0.155,0 -0.311,0.071 -0.41,0.198 -0.212,0.254 -0.466,0.905 -0.141,3.591 0.198,1.625 0.565,3.788 1.088,6.262 0.947,4.453 2.205,9.216 2.799,10.602 0.113,0.254 0.311,0.226 0.368,0.226 0.254,-0.057 0.283,-0.311 0.268,-0.877 0,-0.141 -0.127,-0.268 -0.268,-0.254 -0.043,0 -0.085,0 -0.113,0.014 C 2.926,17.854 1.838,13.613 1.032,9.726 0.509,7.238 0.142,5.075 -0.042,3.492 -0.311,1.018 -0.042,0.608 0,0.551 c 0.156,0.043 0.891,0.594 3.803,5.627 1.569,2.728 2.685,4.777 2.7,4.806 0.07,0.127 0.226,0.183 0.367,0.113 C 6.997,11.026 7.054,10.856 6.983,10.729 6.969,10.701 5.838,8.623 4.255,5.881 0.99,0.226 0.382,0.085 0.127,0.028 0.085,0.014 0.043,0 0,0"
       style="fill:#ffffff;fill-opacity:1;fill-rule:nonzero;stroke:none"
       transform="matrix(1.3333333,0,0,-1.3333333,591.99013,365.71707)"
       clip-path="url(#clipPath403)" />
    <path
       id="path404"
       d="M 0,0 C 0,0.17 0.142,0.311 0.311,0.311 0.481,0.311 0.608,0.17 0.608,0 0.608,-0.17 0.481,-0.297 0.311,-0.297 0.142,-0.297 0,-0.17 0,0 M 4.128,-2.46 C 4.114,-2.474 3.053,-4.057 1.824,-5.541 c -1.923,-2.333 -2.87,-2.813 -3.407,-2.813 -0.113,0 -0.212,0.028 -0.297,0.056 -0.226,0.071 -0.495,0.311 -0.523,0.947 -0.028,0.905 0.41,2.304 0.791,3.336 0.184,0.509 0.396,1.032 0.594,1.456 0.311,0.707 0.382,0.736 0.481,0.778 0.099,0.042 0.226,0.014 0.311,-0.057 0.099,-0.113 0.099,-0.282 0,-0.395 -0.014,0 -0.028,-0.014 -0.028,-0.014 -0.311,-0.481 -1.895,-4.241 -1.555,-5.358 0.042,-0.156 0.099,-0.17 0.113,-0.184 0.183,-0.057 0.919,-0.057 3.096,2.587 1.215,1.47 2.261,3.025 2.275,3.039 0.085,0.127 0.255,0.17 0.382,0.085 0.127,-0.085 0.156,-0.254 0.071,-0.382"
       style="fill:#ffffff;fill-opacity:1;fill-rule:nonzero;stroke:none"
       transform="matrix(1.3333333,0,0,-1.3333333,602.206,347.246)"
       clip-path="url(#clipPath405)" />
    <path
       id="path406"
       d="m 0,0 c -0.127,0 -0.297,-0.057 -0.466,-0.184 -0.326,-0.226 -0.736,-0.763 -1.089,-1.414 0.509,0.099 1.428,0.368 1.781,1.146 0.028,0.084 0.113,0.282 -0.014,0.381 C 0.156,-0.028 0.085,0 0,0 m -1.894,-6.107 c -0.339,0 -0.608,0.099 -0.834,0.297 -0.297,0.255 -0.438,0.679 -0.41,1.258 0.085,1.64 1.414,4.142 2.361,4.82 0.452,0.326 0.989,0.368 1.328,0.085 0.226,-0.183 0.382,-0.551 0.17,-1.032 -0.594,-1.314 -2.304,-1.484 -2.587,-1.498 -0.396,-0.82 -0.693,-1.711 -0.721,-2.403 -0.014,-0.269 0.014,-0.636 0.212,-0.82 1.046,-0.905 4.722,2.205 6.8,4.382 0.098,0.113 0.268,0.113 0.381,0.014 C 4.919,-1.103 4.919,-1.286 4.82,-1.385 4.806,-1.4 3.407,-2.87 1.823,-4.156 0.198,-5.457 -1.032,-6.107 -1.894,-6.107"
       style="fill:#ffffff;fill-opacity:1;fill-rule:nonzero;stroke:none"
       transform="matrix(1.3333333,0,0,-1.3333333,609.6136,348.7348)"
       clip-path="url(#clipPath407)" />
    <path
       id="path408"
       d="m 0,0 c -0.014,0 -0.028,0.014 -0.057,0.014 -0.141,0.028 -0.226,0.17 -0.212,0.311 0.057,0.325 0.127,0.721 0.198,1.145 0.198,1.286 0.467,2.898 0.75,4.184 C 1.145,7.704 1.498,8.128 1.88,8.142 2.021,8.156 2.149,8.043 2.163,7.888 2.163,7.747 2.064,7.619 1.922,7.605 1.852,7.563 1.583,7.252 1.173,5.358 1.06,4.82 0.947,4.227 0.834,3.619 1.583,5.457 2.29,6.347 2.983,6.347 3.463,6.347 3.887,6.093 4.325,5.81 5.343,5.174 6.503,4.453 9.118,6.828 9.217,6.927 9.4,6.913 9.499,6.799 9.598,6.686 9.584,6.517 9.471,6.418 6.573,3.774 5.103,4.693 4.029,5.358 3.647,5.598 3.308,5.796 2.983,5.796 2.813,5.796 2.191,5.598 1.202,3.082 0.65,1.668 0.269,0.226 0.269,0.212 0.24,0.085 0.127,0 0,0"
       style="fill:#ffffff;fill-opacity:1;fill-rule:nonzero;stroke:none"
       transform="matrix(1.3333333,0,0,-1.3333333,614.19427,359.13907)"
       clip-path="url(#clipPath409)" />
    <path
       id="path410"
       d="m 0,0 -0.494,-2.203 c -0.046,-0.214 -0.2,-1.126 -0.277,-1.233 0.02,-0.198 -0.317,-1.799 -0.375,-2.14 -0.211,-1.228 -0.559,-3.414 -0.474,-4.604 0.055,-0.769 0.387,-1.551 1.172,-0.744 1.255,1.291 3.841,5.943 4.867,7.814 0.148,0.27 0.297,0.546 0.45,0.812 0.11,0.193 0.515,0.757 0.095,0.832 C 4.693,-1.419 4.514,-1.95 4.402,-2.146 4.249,-2.414 4.106,-2.69 3.951,-2.957 3.116,-4.391 -0.182,-10.422 -0.97,-10.74 c -0.573,0.264 0.309,5.181 0.484,6.109 0.06,0.317 0.319,1.708 0.389,1.912 0.022,0.182 0.19,1.078 0.264,1.169 -0.011,0.162 0.264,1.33 0.329,1.55 l 0.082,0.34 c 0.131,0.723 1.216,4.974 1.567,5.769 0.242,0.05 0.333,-0.005 0.343,0.324 0.007,0.23 0.005,0.4 -0.089,0.61 C 2.031,7.3 1.903,6.889 1.806,6.62 1.156,4.837 0.433,1.816 0,0"
       style="fill:#ffffff;fill-opacity:1;fill-rule:evenodd;stroke:none"
       transform="matrix(1.3333333,0,0,-1.3333333,561.47773,348.30053)"
       clip-path="url(#clipPath411)" />
    <path
       id="path412"
       d="m 0,0 -0.411,-1.958 c -0.265,0.004 -0.445,0.107 -0.531,0.363 -0.189,0.564 0.288,2.329 0.608,2.601 l 0.57,0.081 z M -2.987,2.53 C -2.465,2.666 -2.077,2.045 -1.933,1.628 -1.87,1.445 -2.092,1.109 -2.183,0.936 -2.67,0.01 -3.413,-1.429 -4.166,-2.07 -5.565,-3.262 -4.787,-0.343 -4.619,0.161 -4.376,0.888 -3.8,2.319 -2.987,2.53 M -0.06,1.546 C 0.004,1.769 0.382,2.271 0.535,2.423 L 0.353,1.644 C 0.229,1.591 0.07,1.543 -0.06,1.546 M 0.92,1.925 C 0.929,1.993 1.107,2.847 1.146,2.888 1.213,2.958 1.386,2.933 1.457,2.869 1.713,2.641 1.132,1.985 0.92,1.925 m -1.788,1.86 -0.348,-0.8 -0.401,-0.852 c -0.37,0.514 -0.307,0.516 -0.865,0.844 -0.396,0.11 -0.343,0.108 -0.733,0 C -3.524,2.801 -3.722,2.716 -3.966,2.435 -4.177,2.192 -4.324,1.953 -4.492,1.67 -4.765,1.207 -5.107,0.357 -5.226,-0.19 -5.36,-0.607 -5.457,-1.228 -5.459,-1.667 c -0.001,-0.255 0.022,-0.511 0.115,-0.746 0.255,-0.644 0.959,-0.444 1.387,-0.096 0.259,0.211 0.416,0.376 0.626,0.636 0.952,1.177 1.61,2.658 2.266,4.018 0.125,0.26 0.248,0.595 0.385,0.835 L 0.236,5.099 C 0.408,5.612 2.065,9.589 2.257,9.809 2.214,9.4 0.959,4.24 0.829,3.691 0.72,3.233 0.831,3.371 0.493,3.082 -0.501,2.234 -1.638,-0.226 -1.46,-1.528 c 0.026,-0.134 0.057,-0.259 0.12,-0.38 0.181,-0.345 0.469,-0.465 0.838,-0.54 -0.018,-0.295 -0.134,-0.751 -0.187,-1.064 -0.264,-1.565 -1.047,-5.987 -0.137,-7.237 0.103,-0.141 0.239,-0.216 0.302,-0.299 0.19,-0.062 0.351,-0.151 0.546,-0.034 0.175,0.105 0.189,0.294 0.297,0.394 -0.009,0.173 0.142,0.517 -0.213,0.508 -0.264,-0.006 -0.213,-0.264 -0.325,-0.458 -1.207,0.304 -0.106,6.497 0.155,7.85 0.115,0.59 -0.11,0.205 1.043,0.762 0.682,0.33 1.566,1 2.149,1.495 0.296,0.252 1.201,1.029 1.446,1.308 l 0.91,0.898 C 5.723,1.922 5.471,2.184 5.246,2.087 5.186,2.062 4.451,1.311 4.329,1.195 3.687,0.588 3.07,0.045 2.382,-0.502 1.961,-0.836 0.612,-1.806 0.114,-1.857 l 0.269,1.306 C 0.458,-0.072 0.607,0.713 0.749,1.19 0.791,1.328 0.96,1.365 1.096,1.445 1.557,1.718 2.148,2.341 1.972,2.927 1.832,3.392 1.397,3.375 1.273,3.419 1.22,3.685 2.862,9.698 2.89,10.643 2.904,11.135 2.515,11.08 2.244,10.769 1.672,10.112 0.097,5.996 -0.482,4.659 -0.583,4.426 -0.745,3.979 -0.868,3.785"
       style="fill:#ffffff;fill-opacity:1;fill-rule:evenodd;stroke:none"
       transform="matrix(1.3333333,0,0,-1.3333333,634.3488,351.60133)"
       clip-path="url(#clipPath413)" />
  </g>
</svg>
