<svg width="196" height="254" viewBox="0 0 196 254" fill="none" xmlns="http://www.w3.org/2000/svg">
<path d="M185.437 237.287C185.374 236.904 185.31 236.52 185.247 236.137C186.224 235.978 187.202 235.818 188.178 235.659L188.369 236.812C187.391 236.97 186.415 237.129 185.437 237.287ZM185.624 242.529C183.717 242.187 181.81 241.845 179.628 241.453C180.139 240.349 180.617 239.314 181.123 238.221C181.961 238.97 182.572 239.674 183.327 240.146C184.141 240.655 185.09 240.946 185.979 241.332C185.861 241.73 185.743 242.13 185.624 242.529ZM179.891 244.009C181.386 244.476 182.337 244.773 183.541 245.149C181.811 246.756 180.884 246.364 179.891 244.009ZM192.311 231.469C192.359 231.191 192.405 230.915 192.452 230.638C192.631 230.654 192.809 230.67 192.988 230.686L195.28 223.79C196.319 220.662 191.791 218.743 190.378 221.712C190.364 221.741 190.349 221.77 190.349 221.799C190.061 222.43 189.754 223.051 189.439 223.665C190.089 223.619 190.798 223.568 191.62 223.51C190.524 224.664 189.601 225.172 188.716 225.024C181.564 237.906 168.635 246.691 153.904 248.527C155.03 248.712 156.157 248.897 157.282 249.083C157.228 249.387 157.173 249.691 157.118 249.995C155.235 249.635 153.352 249.276 151.469 248.918C151.477 248.868 151.486 248.819 151.495 248.771C150.382 248.85 149.261 248.891 148.132 248.891L139.483 248.889L137.333 253.906L182.843 253.917C182.858 253.637 182.923 253.259 183.012 252.744C183.309 253.124 183.609 253.509 183.927 253.918H185.267L192.719 231.494C192.583 231.486 192.448 231.477 192.311 231.469Z" fill="#0C0A09"/>
<path d="M154.951 163.902C155.003 163.56 155.055 163.218 155.106 162.876C156.421 163.018 157.736 163.161 159.05 163.303C157.586 164.71 156.246 164.687 154.951 163.902ZM153.699 154.797C153.394 154.617 153.088 154.438 152.781 154.258C153.282 153.615 153.781 152.972 154.281 152.329C154.442 152.426 154.603 152.522 154.764 152.619C154.409 153.345 154.054 154.071 153.699 154.797ZM148.832 183.766C148.757 183.465 148.682 183.164 148.608 182.863L152.032 182.055C151.24 183.489 150.165 184.006 148.832 183.766ZM143.446 192.474C143.47 192.173 143.493 191.872 143.517 191.571C144.657 191.631 145.798 191.691 147.607 191.786C145.795 193.368 144.623 192.996 143.446 192.474ZM140.493 202.754C140.409 202.459 140.325 202.164 140.241 201.869C141.352 201.269 142.464 200.67 143.924 199.881C144.056 201.016 144.142 201.75 144.283 202.959C142.903 202.884 141.698 202.82 140.493 202.754ZM135.825 207.105C138.581 204.919 139.875 206.401 141.817 208.199C139.624 207.798 138.114 207.523 135.825 207.105ZM132.799 194.137C133.746 193.382 133.046 190.968 136.064 191.922C135.154 192.976 134.399 193.851 133.643 194.726C133.362 194.529 133.08 194.333 132.799 194.137ZM129.104 212.583C127.059 214.019 127.701 211.493 126.794 210.591C126.269 210.866 125.656 211.186 125.04 211.508C125.036 211.522 125.032 211.534 125.029 211.549C125.029 211.549 124.992 211.542 124.984 211.541L124.98 211.54C124.326 211.766 123.661 212.385 122.941 212.383C122.38 212.381 121.786 212.003 121.137 210.771C121.389 210.822 121.627 210.869 121.858 210.915C123.094 211.161 124.043 211.349 124.985 211.537C124.999 211.53 125.011 211.523 125.025 211.517C125.517 209.324 127.214 209.885 128.79 209.751C128.895 209.742 129 209.73 129.104 209.714V212.583ZM125.43 215.869C126.921 214.634 127.973 214.705 128.806 216.894C127.325 216.444 126.378 216.156 125.43 215.869ZM139.578 193.303C139.67 193.577 139.761 193.852 139.853 194.127C138.81 194.461 137.768 194.796 136.725 195.131L136.462 194.358C137.501 194.007 138.539 193.654 139.578 193.303ZM150.408 153.353C150.542 153.655 150.674 153.956 150.808 154.257C150.2 154.528 149.591 154.799 148.981 155.069C148.864 154.854 148.747 154.638 148.63 154.422C149.222 154.066 149.815 153.71 150.408 153.353ZM163.092 141.281C161.73 142.702 160.02 141.847 157.814 142.692C160.052 139.565 160.052 139.565 163.092 141.281ZM165.143 130.083C165.786 130.253 166.428 130.424 167.069 130.595C166.984 130.824 166.898 131.053 166.812 131.283C166.22 130.988 165.628 130.692 165.036 130.396C165.072 130.292 165.107 130.187 165.143 130.083ZM141.642 130.232L139.292 128.738C139.444 128.503 139.597 128.268 139.749 128.032C140.484 128.596 141.219 129.16 141.954 129.724L141.642 130.232ZM111.899 135.129C111.864 134.84 111.829 134.551 111.793 134.261L117.587 133.342C117.621 133.776 117.657 134.21 117.691 134.643C115.761 134.805 113.83 134.967 111.899 135.129ZM108.508 131.2C109.587 129.233 110.217 126.874 113.283 128.274C111.274 128.558 111.816 132.236 108.508 131.2ZM168.786 138.795C170.668 137.181 172.648 137.786 174.791 138.127C175.504 138.24 176.238 138.325 176.99 138.288C175.935 139.716 175.148 140.551 173.505 139.998C173.122 139.87 172.733 139.755 172.342 139.648C171.168 139.329 169.968 139.09 168.786 138.796L168.787 138.795H168.786ZM164.413 163.578C164.374 163.304 164.336 163.03 164.298 162.756C165.667 162.502 167.04 162.248 168.796 161.922C169.785 159.677 170.769 157.387 171.744 155.033C171.46 154.992 171.175 154.967 170.89 154.966C170.887 154.968 170.883 154.97 170.88 154.972C170.876 154.966 170.871 154.961 170.868 154.955C170.208 154.512 169.621 154.223 169.137 154.687C168.975 154.843 168.824 155.084 168.686 155.432C168.424 156.097 167.802 156.619 167.335 157.216C166.822 155.576 166.462 154.421 166.038 153.064C167.982 152.997 169.693 153.222 170.867 154.954C170.872 154.958 170.878 154.962 170.883 154.966C170.886 154.966 170.888 154.966 170.89 154.966C171.273 154.666 171.653 154.468 172.032 154.334C172.706 152.7 173.376 151.032 174.043 149.345C173.02 149.475 171.623 148.721 170.96 149.182C169.26 150.365 167.712 150.186 165.944 149.671C165.099 149.425 164.281 149.672 164.505 150.904L164.51 150.916C164.51 150.916 164.509 150.916 164.507 150.915C164.508 150.915 164.508 150.916 164.508 150.916C164.509 150.916 164.509 150.917 164.509 150.917V150.917C164.504 150.917 164.5 150.915 164.496 150.914C163.703 150.974 162.91 151.034 162.067 151.098C161.222 151.162 160.328 151.229 159.337 151.304C159.576 150.985 159.811 150.735 160.043 150.543C160.275 150.351 160.501 150.217 160.726 150.128C160.951 150.039 161.171 149.996 161.39 149.987C162.478 149.943 163.496 150.739 164.498 150.914C164.5 150.914 164.503 150.913 164.506 150.913C164.505 150.911 164.506 150.91 164.505 150.909C164.194 150.059 163.882 149.211 163.578 148.384C161.958 148.553 160.565 148.697 159.549 148.802V144.779C160.718 145.317 162.02 145.632 162.957 146.397C166.261 149.09 170.138 149.03 173.666 145.954C171.815 143.288 168.711 146.473 166.491 143.949C166.474 143.614 166.433 142.729 166.393 141.892C166.786 141.749 167.126 141.523 167.229 141.603C169.255 143.169 171.892 143.026 174.149 144.12C174.684 144.379 175.262 144.539 175.866 144.649C177.421 140.566 178.96 136.346 180.479 131.957C181.036 130.306 181.605 128.644 182.174 126.961L166.586 126.957C166.355 127.411 165.842 127.366 164.695 126.957L126.35 126.947C126.551 127.25 126.759 127.651 127.017 128.161C127.091 128.171 127.166 128.18 127.238 128.193C127.238 128.193 127.1 128.318 127.098 128.319C127.069 128.263 127.045 128.215 127.017 128.161C125.462 127.957 123.61 128.461 122.488 126.947L103.269 126.942V126.953L99.8601 126.952C98.7232 126.952 97.7148 127.67 97.3612 128.753C97.3612 128.753 95.8198 133.373 93.9751 138.906C94.6389 138.707 95.3076 138.418 95.9869 138.022C97.4346 137.179 99.5177 137.433 101.313 137.19C101.369 137.478 101.425 137.765 101.48 138.053C100.663 138.407 99.8735 138.874 99.0222 139.094C97.1705 139.574 95.3135 140.038 93.443 140.501C92.2884 143.965 91.0647 147.637 90.0526 150.675C90.4196 150.71 90.7738 150.864 91.0856 151.14C91.7312 151.712 93.1741 152.925 91.0647 154.183C90.5144 153.791 89.9277 153.373 89.3025 152.928C88.4018 155.633 87.8001 157.443 87.8001 157.454V157.475C86.8138 160.424 90.9624 162.419 92.5177 159.728C92.6356 159.514 92.754 159.278 92.8612 159.052C96.4348 151.233 102.05 144.708 108.93 140.02C108.461 139.841 107.989 139.596 107.506 139.254C108.54 139.173 109.516 139.093 110.469 139.017C116.629 135.166 123.708 132.747 131.201 132.123C131.74 131.35 132.263 130.598 132.783 129.852C132.774 129.844 132.766 129.836 132.757 129.828L132.895 129.69C132.859 129.744 132.821 129.798 132.783 129.852C133.509 130.53 134.237 131.211 135.034 131.958C135.049 131.958 135.066 131.957 135.081 131.957L156.386 131.951C151.122 147.436 145.942 160.875 140.841 172.552L142.756 173.114C142.673 173.423 142.592 173.731 142.51 174.04C141.716 174.173 140.977 174.074 140.264 173.864C130.298 196.438 120.628 212.281 111.205 223.384C111.204 223.394 111.204 223.404 111.203 223.414C111.197 223.413 111.19 223.411 111.183 223.41C109.984 224.822 108.788 226.163 107.597 227.426L108.233 227.505C108.179 227.841 108.125 228.178 108.07 228.514C107.64 228.435 107.21 228.356 106.779 228.277C105.727 229.365 104.678 230.397 103.633 231.375C104.645 231.113 105.347 230.982 105.976 231.032C106.063 231.038 106.147 231.052 106.233 231.066C106.254 231.069 106.276 231.07 106.297 231.074C107.04 231.211 107.745 231.626 108.853 232.402C109.011 232.513 109.177 232.632 109.354 232.758C109.038 232.699 108.73 232.641 108.432 232.585C107.956 232.496 107.506 232.412 107.066 232.33C106.219 232.171 105.427 232.023 104.665 231.88C104.53 231.855 104.396 231.83 104.263 231.805C103.958 231.748 103.657 231.691 103.356 231.635C89.258 244.7 75.7011 248.132 62.5175 248.886L61.5129 251.899C62.2057 251.643 62.8422 251.408 63.505 251.164C63.1299 252.732 62.9435 253.495 62.2614 253.715C75.8543 253.072 90.7834 250.264 106.006 241.699C102.84 241.176 100.079 240.72 97.3248 240.264C100.392 238.801 103.224 239.252 106.203 241.587C110.172 239.341 114.161 236.702 118.15 233.607C117.822 233.387 117.486 233.087 117.138 232.682C117.901 232.724 118.569 232.762 119.19 232.796C125.624 227.676 132.058 221.357 138.411 213.565C137.65 213.519 136.89 213.473 136.13 213.427C136.151 213.19 136.171 212.953 136.191 212.716C136.956 212.822 137.721 212.928 138.486 213.033C138.472 213.196 138.459 213.36 138.445 213.523C148.703 200.934 158.754 184.511 168.268 163.13C167.671 163.867 166.961 163.808 164.413 163.578Z" fill="#0C0A09"/>
<path d="M60.9134 253.695L60.8861 253.775C61.0297 253.77 61.1738 253.762 61.3174 253.756C61.1915 253.741 61.0586 253.721 60.9134 253.695Z" fill="#0C0A09"/>
<path d="M9.06664 139.148C8.9193 139.653 8.78053 140.148 8.63586 140.649C9.08432 140.386 9.55902 140.108 10.1173 139.78C9.74654 139.493 9.39882 139.289 9.06664 139.148Z" fill="#0C0A09"/>
<path d="M9.46473 222.431C9.30881 224.234 9.2113 225.367 9.11379 226.498C7.45339 224.719 5.03111 223.534 5.70084 220.243C9.73369 220.638 13.7435 221.032 18.0485 221.455C15.3257 224.339 12.3596 223.241 9.46473 222.431ZM5.51439 204.866H8.23242C8.24689 205.061 8.26136 205.256 8.27636 205.451C7.37624 205.547 6.47612 205.643 5.57654 205.738C5.55564 205.448 5.53528 205.157 5.51439 204.866ZM4.99468 199.604C5.97142 199.747 7.00709 199.493 8.54211 199.372C7.33391 201.578 7.33391 201.578 2.22039 200.037C3.08032 198.723 4.02545 199.461 4.99468 199.604ZM10.1816 172.814C10.9049 172.387 11.1208 172.754 11.8174 175.435C10.2845 172.683 6.24038 176.108 4.992 172.201C6.82331 172.436 8.34654 173.896 10.1816 172.814ZM5.52081 168.172C6.08285 168.291 6.63632 168.453 7.1914 168.609C7.12282 168.845 7.05531 169.081 6.9878 169.317C6.43487 169.16 5.87979 169.008 5.33919 168.816C5.32365 168.811 5.50474 168.168 5.52081 168.172ZM7.62269 164.287C7.62484 164.488 7.62591 164.689 7.62806 164.89H5.81817C5.81764 164.689 5.81656 164.488 5.81549 164.287H7.62269ZM12.5648 194.78C11.5811 194.701 10.5985 194.622 9.61421 194.543C9.59171 194.267 9.56921 193.99 9.5467 193.714C9.88371 193.557 10.2754 193.204 10.5449 193.282C11.28 193.491 11.9631 193.883 12.5648 194.78ZM13.7317 181.104C11.76 180.841 10.1998 180.632 8.64015 180.424C8.61122 180.215 8.58283 180.005 8.55389 179.795C9.58796 179.306 10.6226 178.816 11.6979 178.306C12.2353 179.046 12.8 179.822 13.7317 181.104ZM18.2296 197.935C16.9963 199.217 16.0704 199.509 12.8423 199.589C14.4631 199.091 16.0838 198.594 18.2296 197.935ZM20.2179 166.374C21.0838 166.521 21.9485 166.669 22.8143 166.817C22.7666 167.078 22.7206 167.34 22.6729 167.601C21.8108 167.444 20.9487 167.287 20.085 167.131C20.129 166.878 20.1735 166.626 20.2179 166.374ZM29.9301 123.367C28.6421 122.782 27.3535 122.197 25.8244 121.505C25.7258 122.772 25.6492 123.758 25.5045 125.595C24.1281 123.867 23.2756 122.798 22.2764 121.545C25.4943 120.118 28.0688 120.121 29.9301 123.367ZM29.4913 113.945C29.4506 114.153 29.4093 114.362 29.3681 114.571C28.6823 114.439 27.9965 114.308 27.3112 114.178L27.2988 113.945H29.4913ZM36.7067 112.396C35.0618 111.838 33.4181 111.28 31.7571 110.716C33.0162 109.44 33.0162 109.44 36.7067 112.396ZM39.1006 101.465C39.1434 101.773 39.1847 102.081 39.2265 102.391H37.407C37.3802 102.223 37.3523 102.056 37.3239 101.889C37.9165 101.748 38.5091 101.606 39.1006 101.465ZM40.8837 71.5283C40.4583 73.6388 40.1802 75.0184 39.9032 76.3981C39.533 76.3364 39.1633 76.2748 38.7941 76.2132C38.5712 74.6134 37.8147 72.8345 40.8837 71.5283ZM54.4208 64.6521C51.062 66.1689 49.2575 65.7976 44.3882 62.5384C47.5504 63.2049 50.7137 63.8714 54.4208 64.6521ZM57.6575 65.5897H59.9356L59.9721 66.2455C59.1818 66.3189 58.3915 66.3923 57.6012 66.4651C57.62 66.1731 57.6387 65.8811 57.6575 65.5897ZM65.5078 60.0411C63.2463 62.6621 62.1784 59.3135 60.6616 58.9068C62.2765 59.2846 63.8919 59.6628 65.5078 60.0411ZM53.226 70.6539C52.9035 69.8374 52.582 69.0208 52.2589 68.2043C52.6768 68.0961 53.0958 67.9873 53.5137 67.8785C53.6862 68.7138 53.8582 69.5491 54.0302 70.385C53.7623 70.475 53.4944 70.5639 53.226 70.6539ZM48.891 77.3871H45.6982C45.6934 77.0983 45.6897 76.809 45.6848 76.5208L48.9044 76.697C48.8995 76.9274 48.8953 77.1567 48.891 77.3871ZM70.0159 42.0505C70.3481 42.2514 70.93 42.4148 71.1919 42.7979C72.121 44.1572 72.0797 44.1861 69.8268 47.1164C68.8238 45.95 68.0544 45.0547 67.2855 44.1615C68.1246 43.5127 68.9781 42.8531 70.0159 42.0505ZM84.1729 26.5133C84.8898 26.6151 85.6062 26.7169 86.323 26.8181C86.2711 27.0592 86.2196 27.2988 86.1671 27.5388C85.4706 27.3614 84.7741 27.1841 84.0776 27.0067C84.1092 26.8428 84.1408 26.6783 84.1729 26.5133ZM100.172 10.6466C100.244 10.9927 100.315 11.3388 100.386 11.6849C99.356 11.8585 98.3262 12.0332 97.297 12.2068C97.2332 11.9003 97.1705 11.5917 97.1084 11.2841C98.1296 11.072 99.1513 10.8593 100.172 10.6466ZM107.469 8.41768C107.509 8.71129 107.549 9.00599 107.588 9.30013C106.705 9.38318 105.822 9.4673 104.939 9.54982C104.897 9.21602 104.854 8.88274 104.811 8.54948C105.698 8.50555 106.583 8.46108 107.469 8.41768ZM175.156 14.1479C173.78 15.5415 173.004 15.7076 171.688 14.1479H175.156ZM182.112 81.1692C180.534 81.6445 179.359 81.9991 178.184 82.3528C179.217 81.3857 179.478 77.9995 182.112 81.1692ZM181.909 43.9756C181.864 44.9748 181.838 45.5615 181.805 46.3218C180.721 46.0823 179.858 45.8921 178.996 45.7013C178.975 45.5036 178.953 45.3049 178.93 45.1066C179.787 44.7809 180.645 44.4551 181.909 43.9756ZM184.739 37.9951C184.763 40.8048 184.666 40.8375 181.533 39.0946C182.659 38.7088 183.68 38.3584 184.739 37.9951ZM190.807 48.5399C187.913 48.1472 185.662 47.8429 183.38 47.5332C184.989 45.8005 186.385 45.9408 190.807 48.5399ZM190.5 38.2807C190.735 38.3804 190.97 38.48 191.205 38.5791C190.864 39.4048 190.524 40.231 190.182 41.0566C189.944 40.9554 189.705 40.8546 189.467 40.7534C189.812 39.9293 190.156 39.1048 190.5 38.2807ZM182.367 55.8132C182.434 55.54 182.867 55.3556 183.221 55.069C183.52 55.3878 183.759 55.6418 183.998 55.8957C183.64 56.139 183.304 56.4497 182.909 56.5778C182.806 56.6115 182.316 56.0259 182.367 55.8132ZM186.328 74.7307C184.601 75.2911 183.095 75.7792 181.324 76.3541C181.681 75.1797 181.936 74.3471 182.223 73.41C183.604 73.3634 185.077 72.8142 186.328 74.7307ZM175.299 88.5277C175.238 88.2292 175.176 87.9303 175.116 87.6319C176.571 87.3891 178.025 87.1464 179.48 86.9043L179.623 87.6576C178.181 87.948 176.74 88.2378 175.299 88.5277ZM174.268 73.1057C174.198 72.9347 174.128 72.7627 174.058 72.5913C174.753 72.2752 175.448 71.9585 176.143 71.6419C176.214 71.8803 176.285 72.1177 176.357 72.3556C175.66 72.6058 174.965 72.856 174.268 73.1057ZM175.679 49.8172C175.664 49.5949 175.649 49.372 175.635 49.1491C176.26 49.0184 176.885 48.8877 177.51 48.7564C177.556 49.1105 177.603 49.4636 177.649 49.8172H175.679ZM31.3901 242.363C30.3909 243.092 29.7544 243.555 29.1211 244.017C28.1272 243.471 27.2201 242.972 26.313 242.474C26.3859 242.173 26.4593 241.872 26.5316 241.571H30.4294C28.0184 239.481 25.9648 236.908 24.306 233.789C22.9836 233.686 21.7015 233.586 20.3963 233.484V231.582C21.259 232.675 22.4623 232.648 23.6871 232.561C21.0864 227.119 19.5948 220.142 19.3655 211.36H14.9458C16.1411 210.304 17.7062 209.792 19.3355 209.819C19.2932 205.087 19.6093 199.843 20.294 194.065C20.0159 194.129 19.7288 194.195 19.4169 194.266C19.8868 192.938 20.2142 192.097 20.593 191.69C22.1151 180.237 25.0464 166.742 29.5615 150.906C29.3059 150.867 29.0503 150.829 28.7942 150.791L29.0439 149.675C29.3107 149.76 29.577 149.845 29.8438 149.93C30.8023 146.597 31.8252 143.168 32.9235 139.628H30.4552C31.4453 138.611 32.3304 138.267 33.2075 138.718C34.3969 134.907 35.663 130.981 37.0175 126.926C37.9878 124.019 38.9607 121.178 39.9375 118.398C39.4724 118.329 39.0074 118.259 38.5423 118.19C38.5637 117.997 38.5857 117.805 38.6077 117.612C39.1306 117.648 39.6541 117.683 40.1775 117.719C41.1098 115.076 42.0453 112.486 42.9829 109.955C42.3887 110.211 41.7897 110.374 41.1666 110.092C41.7516 108.445 42.3239 106.976 44.1043 106.97C46.3658 100.988 48.644 95.3257 50.9361 89.9705C49.1321 91.5645 46.3964 90.8546 44.796 92.4946C45.0848 90.0943 45.0944 90.0472 51.2757 89.184C78.8671 25.146 108.628 5.25066 138.869 4.82578C139.785 4.2182 140.577 3.69259 141.314 3.20396C141.741 3.77618 142.142 4.31198 142.551 4.85955C154.019 5.22603 162.378 8.02604 167.709 14.5305C168.541 13.7991 169.496 14.0756 170.827 14.2968C169.808 14.6494 169.071 14.9044 168.231 15.1954C169.653 17.0679 170.842 19.2288 171.8 21.7046C171.85 21.1367 171.907 20.4959 171.966 19.8288H176.948C176.973 19.9687 176.997 20.1074 177.021 20.2462C176.243 20.4257 175.466 20.6046 174.44 20.8409V24.5186C173.842 24.383 173.234 24.2453 172.627 24.1076C173.265 26.1999 173.763 28.4893 174.12 30.9914H177.603C177.643 31.1752 177.683 31.3568 177.723 31.5395C176.631 31.9681 175.531 32.3994 174.354 32.8618C174.841 37.2659 174.928 42.2841 174.62 47.9758C174.667 48.0631 174.713 48.1472 174.764 48.242H174.605C174.549 49.2595 174.483 50.2925 174.4 51.3533C174.598 51.4444 174.799 51.5532 175.005 51.7053C174.771 51.8125 174.552 51.9116 174.345 52.0054C174.114 54.8386 173.796 57.8219 173.39 60.968C174.117 60.8683 174.843 60.7687 175.569 60.6685C175.608 60.9508 175.648 61.2332 175.687 61.515C174.879 61.6533 174.071 61.7915 173.262 61.9297C172.853 64.9939 172.364 68.2043 171.794 71.5733C172.075 71.6301 172.358 71.6869 172.639 71.7437C172.621 71.9666 172.604 72.1895 172.586 72.4124C172.274 72.4124 171.961 72.4156 171.649 72.4134C170.456 79.3475 168.929 86.9236 167.063 95.2084C169.707 95.2095 172.269 94.8419 174.707 94.1631C174.664 93.9348 174.621 93.7071 174.579 93.4794C175.635 93.3626 176.691 93.2447 177.747 93.1274C187.347 89.2322 194.395 80.2337 195.354 69.3327C195.661 65.8436 195.829 62.5127 195.871 59.3247C195.681 59.3028 195.49 59.2819 195.3 59.2599C195.32 59.0274 195.339 58.7933 195.359 58.5607C195.532 58.5704 195.706 58.5805 195.879 58.5902C195.918 53.0775 195.565 48.0127 194.848 43.3723C193.865 43.526 192.879 43.4511 191.814 42.8467C193.05 42.9635 193.828 42.5081 194.59 41.7976C192.146 27.8838 186.336 17.9193 178.014 11.2177C174.641 11.5938 171.325 10.3031 167.95 10.758C169.892 9.46408 173.819 9.41103 177.108 10.5083C169.714 4.88311 160.447 1.707 149.864 0.53202C149.837 1.26712 148.823 1.45891 146.225 1.93791C145.884 1.15995 145.837 0.610228 145.966 0.193388C143.978 0.0658709 141.951 0.00104833 139.884 -2.32388e-05C102.46 -0.00913158 56.7638 24.8711 24.7142 96.4509C24.8685 96.5516 25.0245 96.6528 25.1777 96.752C29.0134 94.8478 32.8051 92.9425 36.6338 91.1161C36.9178 90.981 37.4739 91.4193 38.5846 91.8624C36.4281 92.9388 34.8598 93.721 33.2927 94.5033C33.3082 94.7669 33.3243 95.03 33.3398 95.2936C34.8636 95.5534 36.3879 95.8144 37.9111 96.0748C37.9294 96.2864 37.9476 96.498 37.9653 96.7096C36.1838 96.8698 34.3755 97.3006 32.6256 97.1297C29.6831 96.8431 26.9276 96.7429 25.0159 99.3816C24.5894 99.1223 24.1736 98.8699 23.753 98.6149C19.9227 107.357 16.2912 116.775 12.9034 126.92C11.6202 130.762 10.4511 134.492 9.37204 138.128C12.4517 137.677 13.8335 138.311 15.5641 140.092C13.481 142.252 10.8947 140.748 8.53835 140.991C-8.24189 199.603 1.46332 231.288 22.4441 245.149C22.5255 245.111 22.6065 245.074 22.6879 245.035C22.7506 245.17 22.8143 245.304 22.8765 245.438C30.5591 250.388 39.7157 252.992 49.617 253.687L51.1948 248.948C43.2711 248.458 36.5733 246.43 31.3901 242.363Z" fill="#0C0A09"/>
</svg>
