<svg width="225" height="74" viewBox="0 0 225 74" fill="none" xmlns="http://www.w3.org/2000/svg">
<path d="M121.752 29.1165C121.752 30.0751 120.399 30.4884 119.73 30.4884C118.883 30.4884 118.202 29.8415 118.202 29.017C118.202 28.0805 119.499 27.5669 120.257 27.5669C121.095 27.5669 121.752 28.2469 121.752 29.1165Z" fill="white"/>
<path d="M99.6335 16.2183C99.6335 17.1769 98.2924 17.5902 97.6233 17.5902C96.7647 17.5902 96.0956 16.9436 96.0956 16.1188C96.0956 15.1936 97.3923 14.6687 98.1503 14.6687C98.9881 14.6687 99.6335 15.3484 99.6335 16.2183Z" fill="white"/>
<path d="M171.011 57.983C171.055 57.983 171.1 57.938 171.191 57.9374C171.639 57.8445 171.905 57.3903 171.858 56.9373C171.674 55.8958 171.446 54.6281 171.218 53.2688C170.576 49.1483 169.705 43.9861 168.793 39.8656C168.252 37.4929 167.757 35.8006 167.292 34.6048C166.469 32.4927 165.214 33.9778 165.623 35.0013C166.028 36.0253 166.573 37.7902 167.233 40.8236C167.597 42.5446 167.961 44.4456 168.329 46.3928C165.933 40.5113 163.689 37.6658 161.498 37.6747C159.977 37.6806 158.639 38.501 157.259 39.4132C154.047 41.4655 150.39 43.791 142.089 36.2119C141.775 35.8957 141.195 35.9433 140.881 36.3072C140.57 36.6708 140.617 37.2143 140.975 37.5299C150.174 45.9671 154.813 43.0035 158.203 40.8594C159.405 40.0846 160.477 39.4463 161.504 39.4422C162.04 39.4395 164.012 40.066 167.171 48.12C168.933 52.6439 170.158 57.2612 170.158 57.3062C170.25 57.7139 170.611 57.9845 171.011 57.983Z" fill="white"/>
<path d="M160.359 12.432C160.362 12.8843 160.806 13.2461 161.247 13.1985C168.856 12.5782 192.754 13.0099 202.402 14.1491C205.697 30.1326 211.068 56.7565 212.356 68.76C212.134 68.5794 211.826 68.5359 211.559 68.6723C211.118 68.8559 210.899 69.3554 211.077 69.8075C211.121 69.8525 211.435 70.6216 211.79 71.3905C212.371 72.657 212.729 73.3812 213.392 73.3785C213.481 73.3782 213.525 73.3777 213.614 73.3777C213.792 73.3312 214.366 73.1023 214.36 72.2417C214.014 62.7718 207.918 32.2986 204.173 14.3235C221.261 16.4297 222.872 17.0908 223.138 17.1355C223.183 17.1352 223.227 17.1352 223.316 17.1349C223.713 17.1328 224.065 16.8596 224.154 16.4513C224.24 15.9977 223.929 15.5462 223.485 15.4115C223.218 15.368 221.208 14.6178 203.812 12.5575C202.459 5.99263 201.467 1.46437 201.333 0.830499C201.242 0.377821 200.753 0.0622248 200.312 0.154892C199.871 0.292264 199.563 0.747305 199.652 1.19998C199.696 1.38088 200.644 5.77265 202.041 12.3381C192.437 11.2439 168.713 10.8575 161.108 11.4775C160.667 11.5242 160.311 11.9334 160.359 12.432Z" fill="white"/>
<path d="M170.798 66.0474C170.759 65.6258 170.431 65.288 170.01 65.2409C160.64 64.1991 151.198 63.6484 143.782 64.2527C143.341 64.2998 142.989 64.7089 143.036 65.2072C143.036 65.6602 143.48 66.0214 143.921 65.9737C151.246 65.3771 160.521 65.9488 169.812 67.0081C170.371 67.0721 170.851 66.6085 170.798 66.0474Z" fill="white"/>
<path d="M202.165 27.7336C202.127 27.312 201.798 26.9742 201.378 26.9271C192.008 25.8852 182.569 25.3346 175.153 25.9388C174.709 25.9856 174.356 26.3951 174.404 26.8933C174.404 27.3463 174.848 27.7075 175.292 27.6598C182.614 27.0633 191.892 27.635 201.182 28.6946C201.742 28.7582 202.219 28.2946 202.165 27.7336Z" fill="white"/>
<path d="M197.141 37.2123C196.898 37.5703 196.955 38.0425 197.272 38.338C198.198 39.203 199.261 40.6665 200.205 42.3798C200.205 42.3798 201.123 43.8811 201.203 44.2376V44.2491C202.485 46.8746 203.444 49.7135 203.542 51.9316C203.601 52.7899 203.507 53.9721 202.873 54.5651C199.542 57.4771 191.253 50.6769 184.568 43.7245C184.245 43.3586 184.325 43.9486 183.97 44.2621C183.602 44.5866 183.703 44.6201 184.029 44.9306C184.073 44.9866 184.313 46.524 189.402 50.628C194.637 54.7767 198.58 56.8456 201.342 56.8347C202.435 56.8305 203.293 56.5034 204.016 55.8763C204.972 55.0471 205.41 53.6858 205.316 51.8354C205.049 47.0013 201.405 39.8556 198.447 37.0513C198.065 36.6871 197.44 36.7745 197.141 37.2123Z" fill="white"/>
<path d="M185.243 69.1324C185.675 69.1307 186.107 68.9018 186.379 68.493C186.969 67.6752 187.667 65.5874 186.729 56.9812C186.157 51.7726 185.106 44.8433 183.62 36.9195C180.929 22.6559 177.367 7.39805 175.701 2.96364C175.384 2.15007 174.833 2.24214 174.676 2.24273C173.969 2.42718 173.892 3.24283 173.939 5.05591C173.942 5.50888 174.297 5.91537 174.688 5.8677C174.806 5.8677 174.925 5.86712 175.005 5.82182C176.876 11.9319 179.958 25.514 182.249 37.967C183.736 45.9366 184.784 52.866 185.317 57.9393C186.095 65.866 185.352 67.1832 185.237 67.3653C184.804 67.2305 182.753 65.4717 174.59 49.3712C170.191 40.6437 167.058 34.0859 167.017 33.995C166.819 33.5879 166.386 33.4082 165.996 33.6365C165.643 33.8641 165.486 34.4092 165.685 34.8163C165.723 34.9063 168.897 41.5552 173.335 50.3287C182.489 68.4186 184.18 68.8645 184.89 69.043C185.006 69.0877 185.124 69.133 185.243 69.1324Z" fill="white"/>
<path d="M201.204 44.2369V44.249L201.194 44.2369" fill="white"/>
<path d="M94.8995 73.0896C93.9788 73.0896 93.4192 71.8583 92.5488 69.4667C92.3652 68.9604 92.6228 68.4006 93.1291 68.2155C93.4222 68.1069 93.736 68.1513 93.9817 68.3061C92.6613 57.367 85.8282 23.2791 81.1475 1.17573C81.0379 0.647558 81.3725 0.130343 81.8995 0.018432C82.4324 -0.0828209 82.9446 0.244909 83.0571 0.770714C83.0956 0.947166 86.8318 18.6143 90.2691 36.1266C97.3923 72.4211 96.4894 72.6801 95.237 73.0384C95.1186 73.0733 95.0061 73.0896 94.8995 73.0896Z" fill="white"/>
<path d="M80.9461 69.1158C79.6138 69.1158 78.1809 66.7935 72.5794 56.3109C69.3316 50.2271 63.893 40.0462 62.2143 39.5669C60.8643 39.3176 59.8636 39.9719 58.478 40.8766C56.8615 41.9315 54.8483 43.2442 51.6686 43.2442C48.6814 43.2442 45.2174 41.4187 41.0814 37.6629C40.6818 37.3014 40.6522 36.6841 41.0163 36.2856C41.3746 35.8859 41.9963 35.8566 42.393 36.2193C46.1027 39.5864 49.2231 41.2935 51.6686 41.2935C54.268 41.2935 55.8668 40.2505 57.4122 39.2427C58.9073 38.268 60.4557 37.2588 62.5755 37.6508C64.9025 38.0798 68.5589 44.639 74.3025 55.3922C76.6828 59.8524 79.5872 65.2857 80.8751 66.8362C82.9031 61.3306 74.2077 17.1029 70.7675 6.0397C70.6609 6.08885 70.5455 6.12052 70.4241 6.12999C69.903 6.14983 69.4175 5.76554 69.379 5.2276C69.2606 3.61643 69.1599 2.22494 70.2997 2.03014C71.2856 1.86138 71.7445 2.27853 73.287 7.93834C75.2677 15.2206 78.4592 29.6423 80.7211 43.116C84.8541 67.7279 82.5241 68.6096 81.408 69.0333C81.2511 69.0854 81.1 69.1158 80.9461 69.1158Z" fill="white"/>
<path d="M31.942 16.2183C31.942 17.1769 30.6009 17.5902 29.9318 17.5902C29.0732 17.5902 28.4041 16.9436 28.4041 16.1188C28.4041 15.1936 29.689 14.6687 30.4588 14.6687C31.2848 14.6687 31.942 15.3484 31.942 16.2183Z" fill="white"/>
<path d="M20.1914 29.1165C20.1914 30.0751 18.8502 30.4884 18.1811 30.4884C17.3225 30.4884 16.6534 29.8415 16.6534 29.017C16.6534 28.0805 17.9502 27.5669 18.7081 27.5669C19.546 27.5669 20.1914 28.2469 20.1914 29.1165Z" fill="white"/>
<path d="M38.3044 67.8596C37.2889 67.8596 36.605 66.4128 36.0869 65.325C35.856 64.8386 36.0662 64.256 36.5517 64.0253C36.9188 63.8533 37.3333 63.9261 37.6175 64.1775C37.0047 57.5357 32.9575 38.4021 31.0065 30.4384C30.8762 29.9158 31.199 29.3876 31.72 29.2591C32.2411 29.1298 32.771 29.451 32.9013 29.9744C33.754 33.4484 35.7553 42.3975 37.3511 50.5693C40.5841 67.1183 39.7107 67.4285 38.7011 67.7877C38.562 67.8368 38.4317 67.8596 38.3044 67.8596Z" fill="white"/>
<path d="M0.975817 62.9412C0.436689 62.9412 0 62.5045 0 61.9656C0 61.4268 0.436689 60.9901 0.975817 60.9901C3.02604 60.9901 4.58156 60.3885 5.73087 59.1492C8.95112 55.6811 8.37677 47.9699 7.95607 42.3388C7.63306 38.0116 7.52084 35.8895 8.49222 34.9622C8.8315 34.6377 9.28566 34.4986 9.76054 34.5477C12.0162 34.8195 15.8511 39.3238 21.4437 46.1628C23.8566 49.1151 26.8054 52.7196 28.0281 53.6395C28.185 53.3482 28.3568 52.8327 28.4426 51.9292C28.8216 47.9001 27.1607 40.9642 25.935 37.6818C25.7632 37.9187 25.4849 38.0768 25.1682 38.0844C24.653 38.0762 24.1823 37.6711 24.1705 37.1317C24.1379 35.7636 24.1971 34.408 25.2807 34.1717C26.4442 33.9168 27.0748 35.3989 27.4182 36.1935C28.8097 39.4226 32.549 53.0746 28.8571 55.5971L28.7002 55.7039L28.5136 55.7439C27.1636 56.05 25.5886 54.3125 19.9338 47.3974C16.609 43.3312 11.6636 37.2842 9.78216 36.5526C9.5468 37.4337 9.7419 40.0518 9.90177 42.1941C10.3482 48.1819 10.9602 56.3843 7.16202 60.4765C5.64323 62.1116 3.56221 62.9412 0.975817 62.9412Z" fill="white"/>
<path d="M105.105 67.9678C104.178 67.9678 103.752 66.6832 103.225 65.0992C103.056 64.5885 103.331 64.0367 103.843 63.8664C103.947 63.833 104.036 63.8602 104.154 63.8167C103.414 57.3824 100.667 41.8948 98.9495 33.7298C98.6772 32.6183 98.4226 31.4696 98.1798 30.2884C98.0732 29.7682 98.4018 29.2575 98.9199 29.1399C99.4321 29.0257 99.9562 29.3412 100.081 29.8594C100.273 30.6401 100.519 31.7494 100.8 33.095C103.562 44.6011 107.793 51.8499 117.9 53.9957C115.636 52.8373 113.986 51.4177 112.968 50.0555C111.911 48.6444 111.491 47.2805 111.778 46.2135C112.435 43.7784 116.142 39.6924 133.598 39.6924C134.136 39.6924 134.575 40.1291 134.575 40.668C134.575 41.2068 134.136 41.6435 133.598 41.6435C115.926 41.6435 113.892 45.873 113.661 46.7209C113.566 47.0768 113.797 47.9064 114.528 48.8875C116.485 51.5038 121.207 54.3626 128.591 54.539C129.112 54.5521 129.533 54.9719 129.544 55.4935C129.556 56.014 129.154 56.4525 128.636 56.4877C114.928 57.4162 107.606 53.3444 103.168 45.3514C103.494 47.1402 103.814 48.9441 104.116 50.6935C107.008 67.4648 106.484 67.6164 105.436 67.9177C105.318 67.9512 105.208 67.9678 105.105 67.9678Z" fill="white"/>
</svg>
