<svg width="344" height="113" viewBox="0 0 344 113" fill="none" xmlns="http://www.w3.org/2000/svg">
<path d="M186.385 44.5729C186.385 46.0404 184.313 46.6731 183.289 46.6731C181.993 46.6731 180.95 45.6828 180.95 44.4206C180.95 42.987 182.936 42.2007 184.096 42.2007C185.378 42.2007 186.385 43.2417 186.385 44.5729Z" fill="#B91C1C"/>
<path d="M152.524 24.8276C152.524 26.2951 150.471 26.9279 149.447 26.9279C148.132 26.9279 147.108 25.938 147.108 24.6753C147.108 23.259 149.093 22.4554 150.253 22.4554C151.536 22.4554 152.524 23.496 152.524 24.8276Z" fill="#B91C1C"/>
<path d="M261.792 88.7633C261.86 88.7633 261.928 88.6944 262.069 88.6935C262.753 88.5512 263.161 87.8559 263.088 87.1625C262.807 85.5681 262.459 83.6273 262.11 81.5466C261.126 75.2386 259.794 67.3361 258.398 61.0281C257.568 57.396 256.811 54.8053 256.1 52.9748C254.84 49.7415 252.918 52.0148 253.544 53.5816C254.164 55.1494 254.998 57.851 256.009 62.4948C256.567 65.1294 257.124 68.0395 257.686 71.0204C254.019 62.0166 250.584 57.6607 247.23 57.6743C244.901 57.6833 242.852 58.9392 240.74 60.3356C235.822 63.4774 230.225 67.0375 217.517 55.4349C217.036 54.9508 216.148 55.0238 215.667 55.5808C215.192 56.1374 215.264 56.9695 215.813 57.4527C229.894 70.3687 236.996 65.8319 242.186 62.5496C244.026 61.3635 245.666 60.3864 247.239 60.38C248.06 60.376 251.078 61.335 255.914 73.6645C258.611 80.5898 260.487 87.6583 260.487 87.7272C260.627 88.3513 261.18 88.7656 261.792 88.7633Z" fill="#B91C1C"/>
<path d="M245.485 19.0314C245.49 19.7239 246.17 20.2777 246.845 20.2048C258.493 19.2553 295.077 19.9161 309.848 21.6601C314.892 46.1284 323.114 86.8856 325.085 105.261C324.745 104.985 324.274 104.918 323.866 105.127C323.191 105.408 322.855 106.173 323.127 106.865C323.195 106.934 323.676 108.111 324.22 109.288C325.108 111.227 325.656 112.336 326.672 112.332C326.808 112.331 326.876 112.33 327.011 112.33C327.283 112.259 328.163 111.909 328.154 110.591C327.623 96.0943 318.291 49.4442 312.558 21.927C338.718 25.1513 341.184 26.1633 341.592 26.2318C341.66 26.2313 341.728 26.2313 341.864 26.2309C342.471 26.2277 343.01 25.8094 343.146 25.1844C343.278 24.49 342.802 23.7989 342.122 23.5926C341.714 23.526 338.637 22.3775 312.005 19.2235C309.934 9.17372 308.416 2.24162 308.212 1.27127C308.071 0.578284 307.323 0.0951534 306.648 0.237013C305.973 0.44731 305.501 1.14391 305.637 1.83689C305.705 2.11381 307.156 8.83696 309.295 18.8877C294.592 17.2126 258.275 16.6211 246.632 17.5702C245.957 17.6418 245.413 18.2682 245.485 19.0314Z" fill="#B91C1C"/>
<path d="M261.466 101.109C261.407 100.463 260.904 99.9462 260.26 99.8741C245.916 98.2792 231.462 97.4363 220.109 98.3613C219.434 98.4333 218.894 99.0597 218.967 99.8225C218.967 100.516 219.647 101.069 220.322 100.996C231.535 100.083 245.735 100.958 259.957 102.579C260.813 102.677 261.548 101.968 261.466 101.109Z" fill="#B91C1C"/>
<path d="M309.485 42.4559C309.426 41.8105 308.923 41.2934 308.28 41.2213C293.935 39.6264 279.486 38.7834 268.133 39.7084C267.453 39.78 266.914 40.4069 266.986 41.1696C266.986 41.8631 267.666 42.416 268.346 42.343C279.554 41.4298 293.758 42.305 307.98 43.9271C308.837 44.0245 309.567 43.3148 309.485 42.4559Z" fill="#B91C1C"/>
<path d="M301.794 56.9664C301.422 57.5144 301.508 58.2373 301.993 58.6896C303.412 60.0139 305.039 62.2542 306.485 64.877C306.485 64.877 307.89 67.1753 308.012 67.721V67.7387C309.975 71.7579 311.443 76.1039 311.593 79.4994C311.683 80.8133 311.538 82.6231 310.568 83.5309C305.47 87.9888 292.779 77.5787 282.545 66.9356C282.051 66.3754 282.174 67.2786 281.63 67.7586C281.068 68.2553 281.222 68.3066 281.721 68.782C281.789 68.8677 282.156 71.2213 289.947 77.5039C297.96 83.8549 303.997 87.0221 308.225 87.0053C309.898 86.999 311.212 86.4981 312.318 85.5382C313.782 84.2687 314.453 82.1848 314.308 79.3521C313.9 71.9519 308.32 61.0128 303.793 56.7199C303.208 56.1624 302.252 56.2961 301.794 56.9664Z" fill="#B91C1C"/>
<path d="M283.579 105.831C284.241 105.829 284.902 105.478 285.319 104.852C286.221 103.601 287.291 100.404 285.854 87.2296C284.979 79.256 283.37 68.6482 281.095 56.5181C276.975 34.6825 271.523 11.3251 268.971 4.53669C268.486 3.29122 267.643 3.43217 267.403 3.43308C266.32 3.71544 266.202 4.96408 266.275 7.73963C266.279 8.43307 266.823 9.05534 267.421 8.98237C267.603 8.98237 267.784 8.98148 267.906 8.91213C270.771 18.2658 275.489 39.058 278.997 58.1216C281.272 70.322 282.876 80.9297 283.692 88.6962C284.884 100.831 283.747 102.847 283.57 103.126C282.908 102.92 279.767 100.227 267.272 75.5798C260.537 62.2192 255.742 52.1802 255.678 52.0411C255.375 51.4179 254.713 51.1428 254.115 51.4922C253.575 51.8408 253.335 52.6752 253.639 53.2983C253.698 53.4361 258.556 63.6147 265.35 77.0456C279.364 104.739 281.952 105.421 283.04 105.694C283.216 105.763 283.398 105.832 283.579 105.831Z" fill="#B91C1C"/>
<path d="M308.012 67.7209V67.7385L307.999 67.7209" fill="#B91C1C"/>
<path d="M145.277 111.889C143.868 111.889 143.011 110.004 141.678 106.343C141.397 105.568 141.792 104.711 142.567 104.428C143.015 104.261 143.496 104.329 143.872 104.566C141.851 87.8202 131.39 35.6366 124.225 1.7997C124.057 0.991146 124.569 0.199368 125.376 0.0280482C126.192 -0.126955 126.976 0.374751 127.148 1.17968C127.207 1.4498 132.927 28.4956 138.189 55.3044C149.093 110.866 147.711 111.262 145.794 111.811C145.612 111.864 145.44 111.889 145.277 111.889Z" fill="#B91C1C"/>
<path d="M123.916 105.806C121.877 105.806 119.683 102.251 111.108 86.2036C106.136 76.8902 97.8106 61.3047 95.2408 60.5709C93.1741 60.1893 91.6422 61.191 89.5211 62.576C87.0465 64.1909 83.9646 66.2004 79.0969 66.2004C74.5239 66.2004 69.2211 63.4059 62.8896 57.6562C62.2777 57.1028 62.2324 56.1579 62.7899 55.5478C63.3383 54.936 64.2901 54.8911 64.8974 55.4463C70.5763 60.6008 75.3533 63.2141 79.0969 63.2141C83.0763 63.2141 85.5237 61.6174 87.8895 60.0746C90.1783 58.5826 92.5487 57.0376 95.7937 57.6377C99.3561 58.2944 104.953 68.3356 113.746 84.7972C117.39 91.6251 121.836 99.9426 123.808 102.316C126.912 93.888 113.601 26.182 108.335 9.24583C108.171 9.32106 107.995 9.36955 107.809 9.38405C107.011 9.41442 106.268 8.82613 106.209 8.00262C106.028 5.53617 105.874 3.406 107.618 3.10778C109.128 2.84944 109.83 3.48804 112.191 12.1524C115.224 23.3004 120.109 45.3779 123.572 66.0042C129.899 103.681 126.332 105.031 124.623 105.68C124.383 105.759 124.152 105.806 123.916 105.806Z" fill="#B91C1C"/>
<path d="M48.8985 24.8276C48.8985 26.2951 46.8454 26.9279 45.8211 26.9279C44.5068 26.9279 43.4825 25.938 43.4825 24.6753C43.4825 23.259 45.4495 22.4554 46.6278 22.4554C47.8923 22.4554 48.8985 23.496 48.8985 24.8276Z" fill="#B91C1C"/>
<path d="M30.91 44.5729C30.91 46.0404 28.8569 46.6731 27.8326 46.6731C26.5182 46.6731 25.494 45.6828 25.494 44.4206C25.494 42.987 27.4791 42.2007 28.6394 42.2007C29.922 42.2007 30.91 43.2417 30.91 44.5729Z" fill="#B91C1C"/>
<path d="M58.6383 103.883C57.0838 103.883 56.0368 101.668 55.2437 100.003C54.8902 99.2582 55.2119 98.3663 55.9552 98.0132C56.5172 97.7499 57.1517 97.8614 57.5868 98.2462C56.6486 88.0785 50.4531 58.7879 47.4663 46.5965C47.2669 45.7966 47.7609 44.988 48.5586 44.7913C49.3563 44.5933 50.1675 45.085 50.3669 45.8863C51.6722 51.2045 54.736 64.9041 57.1789 77.4141C62.1281 102.748 60.7912 103.223 59.2457 103.773C59.0326 103.848 58.8332 103.883 58.6383 103.883Z" fill="#B91C1C"/>
<path d="M1.49383 96.3535C0.668506 96.3535 0 95.685 0 94.8601C0 94.0353 0.668506 93.3667 1.49383 93.3667C4.63242 93.3667 7.01368 92.4458 8.77311 90.5486C13.7028 85.2395 12.8236 73.4348 12.1796 64.8144C11.6851 58.1901 11.5133 54.9414 13.0003 53.5219C13.5197 53.0251 14.215 52.8121 14.9419 52.8873C18.3951 53.3034 24.2657 60.1988 32.8271 70.6683C36.5209 75.1879 41.0351 80.7059 42.9069 82.1141C43.1471 81.6681 43.41 80.879 43.5414 79.4958C44.1215 73.3278 41.5789 62.7101 39.7026 57.6852C39.4397 58.0478 39.0137 58.2898 38.5287 58.3016C37.7401 58.2889 37.0195 57.6689 37.0014 56.8431C36.9515 54.7487 37.0422 52.6734 38.701 52.3117C40.4821 51.9215 41.4475 54.1904 41.9732 55.4068C44.1034 60.3502 49.8277 81.2493 44.1759 85.1108L43.9357 85.2744L43.6502 85.3356C41.5834 85.8042 39.1723 83.1442 30.5157 72.5583C25.426 66.3336 17.8553 57.0765 14.975 55.9566C14.6147 57.3054 14.9134 61.3133 15.1581 64.5928C15.8416 73.7593 16.7784 86.3159 10.964 92.5804C8.63894 95.0836 5.45321 96.3535 1.49383 96.3535Z" fill="#B91C1C"/>
<path d="M160.9 104.048C159.481 104.048 158.828 102.082 158.022 99.6572C157.763 98.8753 158.185 98.0305 158.969 97.7699C159.128 97.7187 159.264 97.7604 159.445 97.6938C158.312 87.8438 154.106 64.1347 151.477 51.6352C151.06 49.9337 150.67 48.1752 150.299 46.3669C150.136 45.5705 150.639 44.7887 151.432 44.6088C152.216 44.4339 153.018 44.917 153.208 45.7101C153.503 46.9053 153.879 48.6035 154.31 50.6634C158.538 68.2776 165.015 79.3744 180.488 82.6594C177.021 80.8859 174.496 78.7127 172.937 76.6274C171.319 74.4673 170.676 72.3793 171.115 70.7459C172.122 67.0181 177.796 60.7631 204.518 60.7631C205.343 60.7631 206.014 61.4316 206.014 62.2565C206.014 63.0814 205.343 63.7499 204.518 63.7499C177.465 63.7499 174.351 70.2247 173.998 71.5227C173.853 72.0675 174.206 73.3374 175.326 74.8394C178.322 78.8446 185.551 83.2209 196.854 83.491C197.652 83.511 198.295 84.1537 198.313 84.9523C198.332 85.749 197.715 86.4203 196.922 86.4742C175.938 87.8955 164.729 81.6623 157.936 69.4261C158.434 72.1645 158.924 74.926 159.386 77.6041C163.814 103.278 163.012 103.51 161.407 103.972C161.226 104.023 161.058 104.048 160.9 104.048Z" fill="#B91C1C"/>
</svg>
