<?xml version="1.0" encoding="UTF-8" standalone="no"?>
<!-- Created with Inkscape (http://www.inkscape.org/) -->

<svg
   width="25.056086mm"
   height="32.193047mm"
   viewBox="0 0 25.056086 32.193047"
   version="1.1"
   id="svg1"
   xmlns="http://www.w3.org/2000/svg"
   xmlns:svg="http://www.w3.org/2000/svg">
  <defs
     id="defs1">
    <clipPath
       clipPathUnits="userSpaceOnUse"
       id="clipPath355">
      <path
         d="M 0,566.929 H 1417.323 V 0 H 0 Z"
         transform="translate(-452.64931,-368.57141)"
         id="path355" />
    </clipPath>
    <clipPath
       clipPathUnits="userSpaceOnUse"
       id="clipPath361-3">
      <path
         d="M 0,566.929 H 1417.323 V 0 H 0 Z"
         transform="translate(-486.26181,-336.13321)"
         id="path361-9" />
    </clipPath>
    <clipPath
       clipPathUnits="userSpaceOnUse"
       id="clipPath357-0">
      <path
         d="M 0,566.929 H 1417.323 V 0 H 0 Z"
         transform="translate(-485.57261,-389.17971)"
         id="path357-5" />
    </clipPath>
  </defs>
  <g
     id="layer1"
     transform="translate(-111.38957,-106.89167)">
    <path
       id="path354"
       d="m 0,0 h 28.215 c -0.203,-0.602 -0.406,-1.196 -0.606,-1.787 -12.855,-37.194 -29.622,-43.08 -42.754,-43.57 l 0.583,1.748 c 10.337,0.594 21.314,5.782 33.556,41.822 l -7.618,-0.004 c -6.545,0 -12.419,-3.834 -15.095,-9.692 -0.038,-0.081 -0.081,-0.165 -0.123,-0.242 -0.556,-0.962 -2.04,-0.249 -1.687,0.805 v 0.008 c 0,0.016 3.416,10.264 3.416,10.264 0.127,0.387 0.487,0.644 0.894,0.644 H 0 Z"
       style="fill:#ffffff;fill-opacity:1;fill-rule:nonzero;stroke:#ffffff;stroke-width:0.432;stroke-linecap:butt;stroke-linejoin:miter;stroke-miterlimit:10;stroke-dasharray:none;stroke-opacity:1"
       transform="matrix(0.35277776,0,0,-0.35277776,124.49263,122.98232)"
       clip-path="url(#clipPath355)" />
    <path
       id="path356-2"
       d="m 0,0 c -0.46,-5.241 -4.854,-9.256 -10.114,-9.256 5.682,25.267 2.68,32.322 -9.727,32.322 -12.829,0 -25.424,-9.651 -36.773,-43.674 -10.924,-32.751 -6.679,-42.908 5.08,-43.632 l -0.564,-1.695 c -14.101,0.985 -23.986,12.798 -13.139,45.327 11.357,34.023 30.266,45.395 45.396,45.395 C -7.101,24.787 1.599,18.197 0,0"
       style="fill:#ffffff;fill-opacity:1;fill-rule:nonzero;stroke:#ffffff;stroke-width:0.432;stroke-linecap:butt;stroke-linejoin:miter;stroke-miterlimit:10;stroke-dasharray:none;stroke-opacity:1"
       transform="matrix(0.35277776,0,0,-0.35277776,136.10723,115.71217)"
       clip-path="url(#clipPath357-0)" />
    <path
       id="path360-7"
       d="m 0,0 c 0,0 -5.18,-8.308 -17.623,-12.942 l 13.769,0.5 c 0,0 3.589,8.288 3.854,12.442 z"
       style="fill:#ffffff;fill-opacity:1;stroke:#ffffff;stroke-width:0.432;stroke-linecap:butt;stroke-linejoin:miter;stroke-miterlimit:10;stroke-dasharray:none;stroke-opacity:1"
       transform="matrix(0.35277776,0,0,-0.35277776,136.35037,134.42579)"
       clip-path="url(#clipPath361-3)" />
  </g>
</svg>
