<svg width="132" height="134" viewBox="0 0 132 134" fill="none" xmlns="http://www.w3.org/2000/svg">
<mask id="path-1-inside-1_15_1982" fill="white">
<path d="M68.5353 46.396H96.7503C96.5473 46.997 96.3443 47.592 96.1443 48.183C83.2903 85.377 66.5223 91.2631 53.3903 91.7531L53.9742 90.0041C64.3102 89.4111 75.2873 84.222 87.5293 48.183L79.9113 48.187C73.3663 48.187 67.4922 52.0211 64.8162 57.8791C64.7782 57.9601 64.7352 58.044 64.6932 58.121C64.1372 59.083 62.6533 58.37 63.0063 57.315V57.308C63.0063 57.292 66.4222 47.044 66.4222 47.044C66.5492 46.656 66.9092 46.399 67.3162 46.399H68.5353"/>
</mask>
<path d="M68.5353 46.396H96.7503C96.5473 46.997 96.3443 47.592 96.1443 48.183C83.2903 85.377 66.5223 91.2631 53.3903 91.7531L53.9742 90.0041C64.3102 89.4111 75.2873 84.222 87.5293 48.183L79.9113 48.187C73.3663 48.187 67.4922 52.0211 64.8162 57.8791C64.7782 57.9601 64.7352 58.044 64.6932 58.121C64.1372 59.083 62.6533 58.37 63.0063 57.315V57.308C63.0063 57.292 66.4222 47.044 66.4222 47.044C66.5492 46.656 66.9092 46.399 67.3162 46.399H68.5353" fill="#B91C1C"/>
<path d="M96.7503 46.396V46.296H96.8896L96.845 46.428L96.7503 46.396ZM96.1443 48.183L96.239 48.2151L96.2388 48.2157L96.1443 48.183ZM53.3903 91.7531L53.394 91.853L53.2497 91.8584L53.2954 91.7214L53.3903 91.7531ZM53.9742 90.0041L53.8794 89.9724L53.9009 89.9081L53.9685 89.9042L53.9742 90.0041ZM87.5293 48.183L87.5292 48.083L87.6689 48.083L87.624 48.2152L87.5293 48.183ZM79.9113 48.187L79.9113 48.287H79.9113V48.187ZM64.8162 57.8791L64.9072 57.9206L64.9068 57.9215L64.8162 57.8791ZM64.6932 58.121L64.7811 58.1689L64.7798 58.1711L64.6932 58.121ZM63.0063 57.315H63.1063V57.3313L63.1011 57.3468L63.0063 57.315ZM66.4222 47.044L66.5173 47.0752L66.5171 47.0757L66.4222 47.044ZM68.5353 46.396V46.296H96.7503V46.396V46.496H68.5353V46.396ZM96.7503 46.396L96.845 46.428C96.6421 47.0288 96.4388 47.6247 96.239 48.2151L96.1443 48.183L96.0495 48.151C96.2497 47.5594 96.4524 46.9653 96.6555 46.364L96.7503 46.396ZM96.1443 48.183L96.2388 48.2157C89.8083 66.8227 82.3946 77.6112 74.9354 83.809C67.4737 90.0088 59.9753 91.6074 53.394 91.853L53.3903 91.7531L53.3865 91.6531C59.9372 91.4087 67.3888 89.8193 74.8076 83.6551C82.2289 77.4889 89.6262 66.7373 96.0497 48.1504L96.1443 48.183ZM53.3903 91.7531L53.2954 91.7214L53.8794 89.9724L53.9742 90.0041L54.0691 90.0357L53.4851 91.7847L53.3903 91.7531ZM53.9742 90.0041L53.9685 89.9042C59.1162 89.6089 64.4186 88.1714 69.9644 82.317C75.5161 76.4564 81.3152 66.1656 87.4346 48.1509L87.5293 48.183L87.624 48.2152C81.5014 66.2394 75.6909 76.5627 70.1096 82.4546C64.5224 88.3527 59.1683 89.8062 53.98 90.1039L53.9742 90.0041ZM87.5293 48.183L87.5293 48.283L79.9113 48.287L79.9113 48.187L79.9112 48.087L87.5292 48.083L87.5293 48.183ZM79.9113 48.187V48.287C73.4057 48.287 67.567 52.098 64.9072 57.9206L64.8162 57.8791L64.7253 57.8375C67.4174 51.9441 73.3268 48.087 79.9113 48.087V48.187ZM64.8162 57.8791L64.9068 57.9215C64.8678 58.0046 64.8239 58.0904 64.781 58.1689L64.6932 58.121L64.6054 58.0732C64.6466 57.9977 64.6887 57.9155 64.7257 57.8366L64.8162 57.8791ZM64.6932 58.121L64.7798 58.1711C64.4705 58.7064 63.8991 58.7722 63.4657 58.5646C63.033 58.3573 62.7159 57.8677 62.9114 57.2833L63.0063 57.315L63.1011 57.3468C62.9436 57.8174 63.1921 58.2118 63.5521 58.3842C63.9114 58.5564 64.36 58.4977 64.6067 58.071L64.6932 58.121ZM63.0063 57.315H62.9063V57.308H63.0063H63.1063V57.315H63.0063ZM63.0063 57.308H62.9063C62.9067 57.2988 62.9085 57.2872 62.909 57.2846C62.9093 57.2834 62.9099 57.2814 62.9101 57.2806C62.9105 57.2791 62.9109 57.2777 62.9112 57.2768C62.9118 57.2748 62.9126 57.2723 62.9134 57.2696C62.9152 57.2641 62.9177 57.2562 62.921 57.2462C62.9275 57.2262 62.9371 57.1968 62.9497 57.1588C62.9747 57.0828 63.0114 56.9718 63.0581 56.8309C63.1516 56.5491 63.285 56.1475 63.4451 55.666C63.7654 54.703 64.1924 53.4204 64.6194 52.1384C65.0464 50.8564 65.4734 49.5749 65.7936 48.6139C65.9537 48.1334 66.0872 47.733 66.1806 47.4528C66.2273 47.3127 66.264 47.2026 66.289 47.1275C66.3015 47.09 66.3111 47.0612 66.3176 47.0418C66.3208 47.0321 66.3233 47.0248 66.3249 47.0198C66.3257 47.0174 66.3263 47.0155 66.3267 47.0143C66.327 47.0137 66.3271 47.0132 66.3272 47.0129C66.3273 47.0127 66.3273 47.0126 66.3273 47.0125C66.3274 47.0125 66.3274 47.0124 66.4222 47.044C66.5171 47.0757 66.5171 47.0757 66.5171 47.0758C66.517 47.0759 66.517 47.076 66.517 47.0761C66.5168 47.0764 66.5167 47.0769 66.5165 47.0775C66.5161 47.0788 66.5155 47.0806 66.5146 47.0831C66.513 47.088 66.5105 47.0954 66.5073 47.1051C66.5008 47.1245 66.4913 47.1532 66.4787 47.1908C66.4537 47.2658 66.417 47.3759 66.3703 47.516C66.2769 47.7963 66.1435 48.1967 65.9834 48.6772C65.6631 49.6382 65.2361 50.9196 64.8091 52.2016C64.3821 53.4836 63.9551 54.7661 63.6349 55.7291C63.4748 56.2106 63.3414 56.6122 63.248 56.8939C63.2013 57.0347 63.1646 57.1456 63.1396 57.2214C63.1271 57.2594 63.1176 57.2884 63.1112 57.3081C63.108 57.318 63.1056 57.3253 63.1041 57.3301C63.1033 57.3326 63.1028 57.3341 63.1026 57.3348C63.1025 57.3353 63.1026 57.3349 63.1028 57.3342C63.1029 57.3337 63.1033 57.332 63.1036 57.331C63.1041 57.3286 63.1059 57.3172 63.1063 57.308H63.0063ZM66.4222 47.044L66.3272 47.0129C66.4678 46.5833 66.8666 46.299 67.3162 46.299V46.399V46.499C66.9519 46.499 66.6306 46.7288 66.5173 47.0752L66.4222 47.044ZM67.3162 46.399V46.299H68.5353V46.399V46.499H67.3162V46.399Z" fill="#B91C1C" mask="url(#path-1-inside-1_15_1982)"/>
<path d="M68.5353 46.396H96.7503C96.5473 46.997 96.3443 47.592 96.1443 48.183C83.2903 85.377 66.5223 91.2631 53.3903 91.7531L53.9742 90.0041C64.3102 89.4111 75.2873 84.222 87.5293 48.183L79.9113 48.187C73.3663 48.187 67.4922 52.0211 64.8162 57.8791C64.7782 57.9601 64.7352 58.044 64.6932 58.121C64.1372 59.083 62.6533 58.37 63.0063 57.315V57.308C63.0063 57.292 66.4222 47.044 66.4222 47.044C66.5492 46.656 66.9092 46.399 67.3162 46.399H68.5353V46.396Z" fill="#B91C1C" stroke="#B91C1C" stroke-width="0.432" stroke-miterlimit="10"/>
<path d="M49.8572 90.0726C46.9393 89.8839 44.4801 89.1114 42.6023 87.5482C40.7102 85.9731 39.4141 83.6001 38.8298 80.2299C37.6619 73.4929 39.3355 62.7552 44.7976 46.3793C50.4731 29.3648 56.4624 18.4382 62.6404 11.765C68.8199 5.09037 75.1887 2.67134 81.6179 2.67126C84.7234 2.67126 87.2472 3.11232 89.1951 4.17419C91.145 5.23721 92.5132 6.92015 93.3123 9.39197C94.1106 11.8619 94.3413 15.12 94.0173 19.3373C93.6944 23.5413 92.8204 28.7021 91.408 34.9916C96.6143 34.9598 100.953 30.9768 101.409 25.7826C102.207 16.6916 100.432 10.5107 96.8777 6.60291C93.3231 2.69544 87.9795 1.05017 81.6179 1.05017C66.5171 1.05031 47.6222 12.4001 36.2693 46.4105C30.8472 62.6708 30.611 73.7426 33.4822 80.8685C36.3461 87.9761 42.3065 91.1688 49.3259 91.6693L49.8572 90.0726Z" fill="#B91C1C" stroke="#B91C1C" stroke-width="0.1"/>
<path d="M101.459 25.787C100.999 31.028 96.6052 35.043 91.3452 35.043C97.0272 9.77604 94.0252 2.72104 81.6182 2.72104C68.7892 2.72104 56.1942 12.372 44.8452 46.395C33.9212 79.146 38.1662 89.3031 49.9252 90.0271L49.3612 91.722C35.2602 90.737 25.3752 78.924 36.2222 46.395C47.5792 12.372 66.4882 1.00005 81.6182 1.00005C94.3572 1.00005 103.057 7.59003 101.459 25.787Z" fill="#B91C1C" stroke="#B91C1C" stroke-width="0.432" stroke-miterlimit="10"/>
<path d="M98.2606 91.2281C98.2673 91.2126 98.277 91.1907 98.2889 91.1627C98.3153 91.1011 98.3539 91.0095 98.4032 90.8922C98.5018 90.6577 98.6422 90.3177 98.8124 89.8971C99.1528 89.0557 99.6102 87.891 100.075 86.5963C100.977 84.0845 101.905 81.0907 102.082 79.025C102.045 79.08 101.999 79.1488 101.942 79.2291C101.776 79.4661 101.524 79.8096 101.183 80.236C100.502 81.0889 99.4641 82.2742 98.037 83.6041C95.2261 86.2235 90.9051 89.4039 84.826 91.7155L98.2606 91.2281Z" fill="#B91C1C" stroke="#B91C1C" stroke-width="0.1"/>
<path d="M102.148 78.834C102.148 78.834 96.9683 87.142 84.5253 91.776L98.2943 91.276C98.2943 91.276 101.883 82.988 102.148 78.834Z" fill="#B91C1C" stroke="#B91C1C" stroke-width="0.432" stroke-miterlimit="10"/>
<mask id="path-8-inside-2_15_1982" fill="white">
<path d="M43.3103 132.646H37.2423C39.7223 131.231 44.6223 126.294 46.0313 122.066L37.8863 122.065L37.5103 123.194H37.9012L38.1443 122.464H44.2903C42.4063 127.351 35.7922 132.646 34.1722 132.646V133.046H43.1773H43.5682L43.9452 131.917H43.5532"/>
</mask>
<path d="M43.3103 132.646H37.2423C39.7223 131.231 44.6223 126.294 46.0313 122.066L37.8863 122.065L37.5103 123.194H37.9012L38.1443 122.464H44.2903C42.4063 127.351 35.7922 132.646 34.1722 132.646V133.046H43.1773H43.5682L43.9452 131.917H43.5532" fill="#B91C1C"/>
<path d="M34.1722 132.646V132.596H34.1773V132.646V132.696H34.1722V132.646ZM37.2423 132.646V132.746H36.8652L37.1927 132.559L37.2423 132.646ZM46.0313 122.066L46.0313 121.966L46.17 121.966L46.1261 122.098L46.0313 122.066ZM37.8863 122.065L37.7914 122.033L37.8142 121.965L37.8863 121.965L37.8863 122.065ZM37.5103 123.194V123.294H37.3716L37.4154 123.162L37.5103 123.194ZM37.9012 123.194L37.9961 123.226L37.9734 123.294H37.9012V123.194ZM38.1443 122.464L38.0494 122.432L38.0722 122.364H38.1443V122.464ZM44.2903 122.464V122.364H44.436L44.3836 122.5L44.2903 122.464ZM34.1722 132.646H34.0722V132.546H34.1722V132.646ZM34.1722 133.046V133.146H34.0722V133.046H34.1722ZM43.5682 133.046L43.6631 133.078L43.6403 133.146H43.5682V133.046ZM43.9452 131.917V131.817H44.0841L44.0401 131.949L43.9452 131.917ZM43.3103 132.646V132.746H37.2423V132.646V132.546H43.3103V132.646ZM37.2423 132.646L37.1927 132.559C38.4193 131.859 40.2559 130.28 41.9634 128.345C43.6708 126.409 45.238 124.13 45.9364 122.034L46.0313 122.066L46.1261 122.098C45.4155 124.23 43.8283 126.533 42.1134 128.477C40.3986 130.421 38.5452 132.018 37.2918 132.733L37.2423 132.646ZM46.0313 122.066L46.0313 122.166L37.8862 122.165L37.8863 122.065L37.8863 121.965L46.0313 121.966L46.0313 122.066ZM37.8863 122.065L37.9811 122.097L37.6052 123.226L37.5103 123.194L37.4154 123.162L37.7914 122.033L37.8863 122.065ZM37.5103 123.194V123.094H37.9012V123.194V123.294H37.5103V123.194ZM37.9012 123.194L37.8064 123.162L38.0494 122.432L38.1443 122.464L38.2391 122.496L37.9961 123.226L37.9012 123.194ZM38.1443 122.464V122.364H44.2903V122.464V122.564H38.1443V122.464ZM44.2903 122.464L44.3836 122.5C43.4335 124.964 41.2961 127.522 39.2002 129.461C38.1511 130.431 37.1092 131.25 36.2263 131.826C35.785 132.114 35.3818 132.343 35.0362 132.5C34.6936 132.656 34.3969 132.746 34.1722 132.746V132.646V132.546C34.3526 132.546 34.617 132.471 34.9535 132.318C35.287 132.166 35.681 131.943 36.117 131.659C36.9888 131.089 38.0219 130.278 39.0643 129.314C41.1514 127.384 43.263 124.851 44.197 122.428L44.2903 122.464ZM34.1722 132.646H34.2722V133.046H34.1722H34.0722V132.646H34.1722ZM34.1722 133.046V132.946H43.1773V133.046V133.146H34.1722V133.046ZM43.1773 133.046V132.946H43.5682V133.046V133.146H43.1773V133.046ZM43.5682 133.046L43.4734 133.014L43.8504 131.885L43.9452 131.917L44.0401 131.949L43.6631 133.078L43.5682 133.046ZM43.9452 131.917V132.017H43.5532V131.917V131.817H43.9452V131.917Z" fill="#B91C1C" mask="url(#path-8-inside-2_15_1982)"/>
<path d="M43.3103 132.646H37.2423C39.7223 131.231 44.6223 126.294 46.0313 122.066L37.8863 122.065L37.5103 123.194H37.9012L38.1443 122.464H44.2903C42.4063 127.351 35.7922 132.646 34.1722 132.646V133.046H43.1773H43.5682L43.9452 131.917H43.5532L43.3103 132.646Z" fill="#B91C1C"/>
<path d="M34.1722 132.646C35.7922 132.646 42.4063 127.351 44.2903 122.464H38.1443L37.9012 123.194H37.5103L37.8863 122.065L46.0313 122.066C44.6223 126.294 39.7223 131.231 37.2423 132.646H43.3103L43.5532 131.917H43.9452L43.5682 133.046H43.1773H34.1722V132.646ZM34.1722 132.646H34.1773" stroke="#B91C1C" stroke-width="0.432" stroke-miterlimit="10"/>
<mask id="path-12-inside-3_15_1982" fill="white">
<path d="M27.0802 133.046C24.9222 133.046 26.0752 129.946 26.7372 127.955C27.8822 124.516 29.3222 122.864 30.7392 122.864C32.9452 122.864 32.5733 124.999 32.2983 125.941L31.5552 128.17C29.8962 132.945 28.0432 133.046 27.0802 133.046ZM35.3443 122.464H33.4572L33.0202 123.775C32.7672 123.056 32.1332 122.465 30.7392 122.465C29.2392 122.465 26.3502 123.458 24.8502 127.955C23.1222 133.138 26.4862 133.445 27.0802 133.445C28.0202 133.445 29.1183 133.285 30.1963 132.247L29.9302 133.046H30.2213H32.8182L32.9512 132.647H31.9503"/>
</mask>
<path d="M27.0802 133.046C24.9222 133.046 26.0752 129.946 26.7372 127.955C27.8822 124.516 29.3222 122.864 30.7392 122.864C32.9452 122.864 32.5733 124.999 32.2983 125.941L31.5552 128.17C29.8962 132.945 28.0432 133.046 27.0802 133.046ZM35.3443 122.464H33.4572L33.0202 123.775C32.7672 123.056 32.1332 122.465 30.7392 122.465C29.2392 122.465 26.3502 123.458 24.8502 127.955C23.1222 133.138 26.4862 133.445 27.0802 133.445C28.0202 133.445 29.1183 133.285 30.1963 132.247L29.9302 133.046H30.2213H32.8182L32.9512 132.647H31.9503" fill="#B91C1C"/>
<path d="M26.7372 127.955L26.6423 127.924L26.6423 127.923L26.7372 127.955ZM32.2983 125.941L32.3943 125.969L32.3931 125.973L32.2983 125.941ZM31.5552 128.17L31.6501 128.202L31.6497 128.203L31.5552 128.17ZM33.4572 122.464L33.3624 122.432L33.3852 122.364H33.4572V122.464ZM33.0202 123.775L33.1151 123.807L33.0228 124.084L32.9259 123.808L33.0202 123.775ZM24.8502 127.955L24.7554 127.923L24.7554 127.923L24.8502 127.955ZM30.1963 132.247L30.1269 132.175L30.2911 132.279L30.1963 132.247ZM29.9302 133.046V133.146H29.7915L29.8354 133.014L29.9302 133.046ZM32.8182 133.046L32.9131 133.078L32.8903 133.146H32.8182V133.046ZM32.9512 132.647V132.547H33.09L33.0461 132.679L32.9512 132.647ZM27.0802 133.046V133.146C26.5134 133.146 26.1432 132.94 25.9365 132.58C25.7356 132.231 25.7005 131.755 25.7517 131.237C25.8544 130.199 26.3133 128.913 26.6423 127.924L26.7372 127.955L26.8321 127.987C26.4992 128.988 26.0506 130.247 25.9507 131.257C25.9007 131.763 25.9407 132.187 26.1098 132.481C26.2732 132.765 26.5681 132.946 27.0802 132.946V133.046ZM26.7372 127.955L26.6423 127.923C27.2168 126.198 27.8678 124.913 28.5584 124.057C29.2486 123.202 29.9886 122.764 30.7392 122.764V122.864V122.964C30.0729 122.964 29.3843 123.352 28.714 124.183C28.0442 125.013 27.4026 126.273 26.8321 127.987L26.7372 127.955ZM30.7392 122.864V122.764C31.3068 122.764 31.7211 122.902 32.0143 123.134C32.3076 123.367 32.4688 123.685 32.5466 124.027C32.701 124.705 32.5326 125.495 32.3943 125.969L32.2983 125.941L32.2023 125.913C32.3389 125.445 32.494 124.697 32.3516 124.072C32.2811 123.762 32.1388 123.488 31.89 123.291C31.6411 123.093 31.2747 122.964 30.7392 122.964V122.864ZM32.2983 125.941L32.3931 125.973L31.6501 128.202L31.5552 128.17L31.4604 128.138L32.2034 125.909L32.2983 125.941ZM31.5552 128.17L31.6497 128.203C30.8172 130.599 29.9309 131.838 29.1186 132.477C28.3015 133.12 27.5703 133.146 27.0802 133.146V133.046V132.946C27.5532 132.946 28.23 132.922 28.9949 132.32C29.7646 131.715 30.6343 130.516 31.4608 128.137L31.5552 128.17ZM35.3443 122.464V122.564H33.4572V122.464V122.364H35.3443V122.464ZM33.4572 122.464L33.5521 122.496L33.1151 123.807L33.0202 123.775L32.9254 123.743L33.3624 122.432L33.4572 122.464ZM33.0202 123.775L32.9259 123.808C32.8055 123.466 32.5961 123.158 32.253 122.934C31.9089 122.71 31.4224 122.565 30.7392 122.565V122.465V122.365C31.4501 122.365 31.9775 122.516 32.3622 122.767C32.7478 123.018 32.9819 123.365 33.1146 123.742L33.0202 123.775ZM30.7392 122.465V122.565C29.2842 122.565 26.4321 123.529 24.9451 127.987L24.8502 127.955L24.7554 127.923C26.2684 123.387 29.1943 122.365 30.7392 122.365V122.465ZM24.8502 127.955L24.9451 127.987C24.0867 130.562 24.5043 131.888 25.1664 132.574C25.8369 133.269 26.7916 133.345 27.0802 133.345V133.445V133.545C26.7749 133.545 25.7506 133.468 25.0225 132.713C24.2861 131.95 23.8858 130.532 24.7554 127.923L24.8502 127.955ZM27.0802 133.445V133.345C28.0056 133.345 29.0743 133.189 30.1269 132.175L30.1963 132.247L30.2656 132.319C29.1622 133.382 28.0349 133.545 27.0802 133.545V133.445ZM30.1963 132.247L30.2911 132.279L30.0251 133.078L29.9302 133.046L29.8354 133.014L30.1014 132.215L30.1963 132.247ZM29.9302 133.046V132.946H30.2213V133.046V133.146H29.9302V133.046ZM30.2213 133.046V132.946H32.8182V133.046V133.146H30.2213V133.046ZM32.8182 133.046L32.7234 133.014L32.8564 132.615L32.9512 132.647L33.0461 132.679L32.9131 133.078L32.8182 133.046ZM32.9512 132.647V132.747H31.9503V132.647V132.547H32.9512V132.647Z" fill="#B91C1C" mask="url(#path-12-inside-3_15_1982)"/>
<path d="M27.0802 133.046C24.9222 133.046 26.0752 129.946 26.7372 127.955C27.8822 124.516 29.3222 122.864 30.7392 122.864C32.9452 122.864 32.5733 124.999 32.2983 125.941L31.5552 128.17C29.8962 132.945 28.0432 133.046 27.0802 133.046ZM35.3443 122.464H33.4572L33.0202 123.775C32.7672 123.056 32.1332 122.465 30.7392 122.465C29.2392 122.465 26.3502 123.458 24.8502 127.955C23.1222 133.138 26.4862 133.445 27.0802 133.445C28.0202 133.445 29.1183 133.285 30.1963 132.247L29.9302 133.046H30.2213H32.8182L32.9512 132.647H31.9503L35.3443 122.464Z" fill="#B91C1C" stroke="#B91C1C" stroke-width="0.432" stroke-miterlimit="10"/>
<mask id="path-15-inside-4_15_1982" fill="white">
<path d="M7.59322 125.285L6.60621 128.238H6.99723C7.30423 127.317 8.49223 125.684 10.3732 125.684H11.4072C8.99721 132.722 6.52423 133.045 4.87223 133.045C2.92823 133.045 1.60022 131.405 3.63922 125.285C5.61022 119.379 8.34322 117.525 10.3102 117.525C12.0502 117.525 12.7692 118.682 11.7602 122.656C12.6932 122.656 14.2962 121.884 14.2812 120.95C14.2352 118.157 12.4472 117.126 10.3102 117.126C8.08422 117.126 3.98221 118.602 1.75621 125.285C-0.282789 131.401 2.15523 133.444 4.87223 133.444C7.34623 133.444 10.9562 132.706 13.4302 125.285"/>
</mask>
<path d="M7.59322 125.285L6.60621 128.238H6.99723C7.30423 127.317 8.49223 125.684 10.3732 125.684H11.4072C8.99721 132.722 6.52423 133.045 4.87223 133.045C2.92823 133.045 1.60022 131.405 3.63922 125.285C5.61022 119.379 8.34322 117.525 10.3102 117.525C12.0502 117.525 12.7692 118.682 11.7602 122.656C12.6932 122.656 14.2962 121.884 14.2812 120.95C14.2352 118.157 12.4472 117.126 10.3102 117.126C8.08422 117.126 3.98221 118.602 1.75621 125.285C-0.282789 131.401 2.15523 133.444 4.87223 133.444C7.34623 133.444 10.9562 132.706 13.4302 125.285" fill="#B91C1C"/>
<path d="M6.60621 128.238V128.338H6.46735L6.51137 128.206L6.60621 128.238ZM6.99723 128.238L7.09209 128.27L7.0693 128.338H6.99723V128.238ZM11.4072 125.684V125.584H11.5472L11.5018 125.716L11.4072 125.684ZM3.63922 125.285L3.54435 125.253L3.54436 125.253L3.63922 125.285ZM11.7602 122.656V122.756H11.6317L11.6633 122.631L11.7602 122.656ZM14.2812 120.95L14.3812 120.948L14.3812 120.948L14.2812 120.95ZM1.75621 125.285L1.85109 125.317L1.85108 125.317L1.75621 125.285ZM7.59322 125.285L7.68807 125.317L6.70105 128.27L6.60621 128.238L6.51137 128.206L7.49838 125.253L7.59322 125.285ZM6.60621 128.238V128.138H6.99723V128.238V128.338H6.60621V128.238ZM6.99723 128.238L6.90236 128.206C7.06131 127.73 7.44455 127.077 8.02738 126.542C8.61151 126.006 9.40185 125.584 10.3732 125.584V125.684V125.784C9.46361 125.784 8.71945 126.179 8.16258 126.689C7.6044 127.201 7.24014 127.826 7.09209 128.27L6.99723 128.238ZM10.3732 125.684V125.584H11.4072V125.684V125.784H10.3732V125.684ZM11.4072 125.684L11.5018 125.716C10.2944 129.242 9.06626 131.102 7.92037 132.08C6.76852 133.062 5.70933 133.145 4.87223 133.145V133.045V132.945C5.68713 132.945 6.69042 132.866 7.79057 131.928C8.89667 130.984 10.11 129.164 11.3126 125.652L11.4072 125.684ZM4.87223 133.045V133.145C4.37281 133.145 3.90379 133.04 3.5164 132.776C3.1276 132.511 2.83087 132.093 2.66561 131.486C2.33721 130.281 2.52382 128.317 3.54435 125.253L3.63922 125.285L3.73409 125.317C2.71562 128.374 2.54673 130.289 2.85858 131.434C3.01346 132.002 3.28579 132.377 3.62902 132.611C3.97366 132.845 4.39964 132.945 4.87223 132.945V133.045ZM3.63922 125.285L3.54436 125.253C5.51901 119.336 8.27541 117.425 10.3102 117.425V117.525V117.625C8.41102 117.625 5.70143 119.422 3.73408 125.317L3.63922 125.285ZM10.3102 117.525V117.425C10.7551 117.425 11.1457 117.499 11.4626 117.681C11.7821 117.865 12.0181 118.155 12.1606 118.568C12.4422 119.384 12.3619 120.693 11.8571 122.681L11.7602 122.656L11.6633 122.631C12.1676 120.645 12.2322 119.389 11.9716 118.633C11.843 118.26 11.636 118.012 11.3628 117.855C11.0872 117.696 10.7353 117.625 10.3102 117.625V117.525ZM11.7602 122.656V122.556C12.2047 122.556 12.8211 122.37 13.3247 122.068C13.5756 121.917 13.7935 121.74 13.9467 121.548C14.0998 121.357 14.1845 121.155 14.1812 120.952L14.2812 120.95L14.3812 120.948C14.3854 121.212 14.2753 121.457 14.103 121.673C13.9307 121.889 13.6923 122.08 13.4277 122.239C12.9003 122.556 12.2487 122.756 11.7602 122.756V122.656ZM14.2812 120.95L14.1812 120.952C14.1586 119.578 13.7086 118.652 13.0154 118.067C12.3195 117.481 11.3642 117.226 10.3102 117.226V117.126V117.026C11.3932 117.026 12.4005 117.287 13.1443 117.914C13.8908 118.544 14.3578 119.53 14.3812 120.948L14.2812 120.95ZM10.3102 117.126V117.226C8.13147 117.226 4.06486 118.67 1.85109 125.317L1.75621 125.285L1.66134 125.253C3.89956 118.534 8.03696 117.026 10.3102 117.026V117.126ZM1.75621 125.285L1.85108 125.317C0.835043 128.364 0.943871 130.371 1.61855 131.61C2.29004 132.844 3.53788 133.344 4.87223 133.344V133.444V133.544C3.48957 133.544 2.1599 133.023 1.44289 131.706C0.729058 130.395 0.638379 128.322 1.66134 125.253L1.75621 125.285ZM4.87223 133.444V133.344C6.09813 133.344 7.59501 133.161 9.09219 132.067C10.5909 130.971 12.1024 128.952 13.3353 125.253L13.4302 125.285L13.5251 125.317C12.2841 129.039 10.7535 131.1 9.21024 132.228C7.66543 133.358 6.12032 133.544 4.87223 133.544V133.444Z" fill="#B91C1C" mask="url(#path-15-inside-4_15_1982)"/>
<path d="M7.59322 125.285L6.60621 128.238H6.99723C7.30423 127.317 8.49223 125.684 10.3732 125.684H11.4072C8.99721 132.722 6.52423 133.045 4.87223 133.045C2.92823 133.045 1.60022 131.405 3.63922 125.285C5.61022 119.379 8.34322 117.525 10.3102 117.525C12.0502 117.525 12.7692 118.682 11.7602 122.656C12.6932 122.656 14.2962 121.884 14.2812 120.95C14.2352 118.157 12.4472 117.126 10.3102 117.126C8.08422 117.126 3.98221 118.602 1.75621 125.285C-0.282789 131.401 2.15523 133.444 4.87223 133.444C7.34623 133.444 10.9562 132.706 13.4302 125.285H7.59322Z" fill="#B91C1C" stroke="#B91C1C" stroke-width="0.432" stroke-miterlimit="10"/>
<mask id="path-18-inside-5_15_1982" fill="white">
<path d="M48.2322 133.046C46.0742 133.046 47.2272 129.946 47.8892 127.955C49.0342 124.516 50.4742 122.864 51.8912 122.864C54.0972 122.864 53.7252 124.999 53.4502 125.94L52.7072 128.17C51.0482 132.945 49.1952 133.046 48.2322 133.046ZM56.4962 122.464H54.6092L54.1722 123.775C53.9192 123.056 53.2852 122.465 51.8912 122.465C50.3912 122.465 47.5022 123.458 46.0022 127.955C44.2742 133.138 47.6382 133.445 48.2322 133.445C49.1722 133.445 50.2702 133.285 51.3482 132.247L51.0822 133.046H53.9702L54.1032 132.647H53.1022"/>
</mask>
<path d="M48.2322 133.046C46.0742 133.046 47.2272 129.946 47.8892 127.955C49.0342 124.516 50.4742 122.864 51.8912 122.864C54.0972 122.864 53.7252 124.999 53.4502 125.94L52.7072 128.17C51.0482 132.945 49.1952 133.046 48.2322 133.046ZM56.4962 122.464H54.6092L54.1722 123.775C53.9192 123.056 53.2852 122.465 51.8912 122.465C50.3912 122.465 47.5022 123.458 46.0022 127.955C44.2742 133.138 47.6382 133.445 48.2322 133.445C49.1722 133.445 50.2702 133.285 51.3482 132.247L51.0822 133.046H53.9702L54.1032 132.647H53.1022" fill="#B91C1C"/>
<path d="M47.8892 127.955L47.7943 127.924L47.7943 127.923L47.8892 127.955ZM53.4502 125.94L53.5463 125.968L53.5451 125.972L53.4502 125.94ZM52.7072 128.17L52.8021 128.202L52.8017 128.203L52.7072 128.17ZM54.6092 122.464L54.5143 122.432L54.5371 122.364H54.6092V122.464ZM54.1722 123.775L54.2671 123.807L54.1747 124.084L54.0779 123.808L54.1722 123.775ZM46.0022 127.955L45.9073 127.923L45.9074 127.923L46.0022 127.955ZM51.3482 132.247L51.2788 132.175L51.4431 132.279L51.3482 132.247ZM51.0822 133.046V133.146H50.9435L50.9873 133.014L51.0822 133.046ZM53.9702 133.046L54.0651 133.078L54.0423 133.146H53.9702V133.046ZM54.1032 132.647V132.547H54.2419L54.1981 132.679L54.1032 132.647ZM48.2322 133.046V133.146C47.6654 133.146 47.2951 132.94 47.0884 132.58C46.8875 132.231 46.8524 131.755 46.9037 131.237C47.0063 130.199 47.4652 128.913 47.7943 127.924L47.8892 127.955L47.9841 127.987C47.6511 128.988 47.2026 130.247 47.1027 131.257C47.0527 131.763 47.0926 132.187 47.2618 132.481C47.4251 132.765 47.72 132.946 48.2322 132.946V133.046ZM47.8892 127.955L47.7943 127.923C48.3688 126.198 49.0197 124.913 49.7104 124.057C50.4006 123.202 51.1406 122.764 51.8912 122.764V122.864V122.964C51.2248 122.964 50.5363 123.352 49.866 124.183C49.1961 125.013 48.5546 126.273 47.9841 127.987L47.8892 127.955ZM51.8912 122.864V122.764C52.4587 122.764 52.873 122.902 53.1662 123.134C53.4595 123.366 53.6207 123.685 53.6986 124.027C53.8529 124.705 53.6846 125.495 53.5462 125.968L53.4502 125.94L53.3542 125.912C53.4909 125.444 53.646 124.696 53.5036 124.071C53.433 123.762 53.2908 123.488 53.042 123.291C52.7931 123.093 52.4266 122.964 51.8912 122.964V122.864ZM53.4502 125.94L53.5451 125.972L52.8021 128.202L52.7072 128.17L52.6123 128.138L53.3553 125.908L53.4502 125.94ZM52.7072 128.17L52.8017 128.203C51.9691 130.599 51.0828 131.838 50.2705 132.477C49.4534 133.12 48.7223 133.146 48.2322 133.146V133.046V132.946C48.7051 132.946 49.382 132.922 50.1469 132.32C50.9166 131.715 51.7862 130.516 52.6127 128.137L52.7072 128.17ZM56.4962 122.464V122.564H54.6092V122.464V122.364H56.4962V122.464ZM54.6092 122.464L54.7041 122.496L54.2671 123.807L54.1722 123.775L54.0773 123.743L54.5143 122.432L54.6092 122.464ZM54.1722 123.775L54.0779 123.808C53.9575 123.466 53.7481 123.158 53.4049 122.934C53.0609 122.71 52.5743 122.565 51.8912 122.565V122.465V122.365C52.602 122.365 53.1295 122.516 53.5142 122.767C53.8998 123.018 54.1339 123.365 54.2665 123.742L54.1722 123.775ZM51.8912 122.465V122.565C50.4361 122.565 47.5841 123.529 46.0971 127.987L46.0022 127.955L45.9074 127.923C47.4204 123.387 50.3462 122.365 51.8912 122.365V122.465ZM46.0022 127.955L46.0971 127.987C45.2386 130.562 45.6563 131.888 46.3184 132.574C46.9889 133.269 47.9435 133.345 48.2322 133.345V133.445V133.545C47.9269 133.545 46.9025 133.468 46.1745 132.713C45.4381 131.95 45.0378 130.532 45.9073 127.923L46.0022 127.955ZM48.2322 133.445V133.345C49.1575 133.345 50.2262 133.189 51.2788 132.175L51.3482 132.247L51.4176 132.319C50.3142 133.382 49.1869 133.545 48.2322 133.545V133.445ZM51.3482 132.247L51.4431 132.279L51.1771 133.078L51.0822 133.046L50.9873 133.014L51.2533 132.215L51.3482 132.247ZM51.0822 133.046V132.946H53.9702V133.046V133.146H51.0822V133.046ZM53.9702 133.046L53.8753 133.014L54.0083 132.615L54.1032 132.647L54.1981 132.679L54.0651 133.078L53.9702 133.046ZM54.1032 132.647V132.747H53.1022V132.647V132.547H54.1032V132.647Z" fill="#B91C1C" mask="url(#path-18-inside-5_15_1982)"/>
<path d="M48.2322 133.046C46.0742 133.046 47.2272 129.946 47.8892 127.955C49.0342 124.516 50.4742 122.864 51.8912 122.864C54.0972 122.864 53.7252 124.999 53.4502 125.94L52.7072 128.17C51.0482 132.945 49.1952 133.046 48.2322 133.046ZM56.4962 122.464H54.6092L54.1722 123.775C53.9192 123.056 53.2852 122.465 51.8912 122.465C50.3912 122.465 47.5022 123.458 46.0022 127.955C44.2742 133.138 47.6382 133.445 48.2322 133.445C49.1722 133.445 50.2702 133.285 51.3482 132.247L51.0822 133.046H53.9702L54.1032 132.647H53.1022L56.4962 122.464Z" fill="#B91C1C" stroke="#B91C1C" stroke-width="0.432" stroke-miterlimit="10"/>
<mask id="path-21-inside-6_15_1982" fill="white">
<path d="M99.5363 133.046C97.3793 133.046 98.5312 129.946 99.1932 127.955C100.338 124.516 101.779 122.864 103.195 122.864C105.401 122.864 105.029 124.999 104.754 125.941L104.011 128.171C102.352 132.945 100.499 133.046 99.5363 133.046ZM107.8 122.464H105.913L105.476 123.775C105.224 123.056 104.59 122.465 103.195 122.465C101.695 122.465 98.8063 123.458 97.3063 127.955C95.5793 133.138 98.9423 133.445 99.5363 133.445C100.476 133.445 101.574 133.285 102.652 132.247L102.386 133.046H105.274L105.407 132.647H104.406"/>
</mask>
<path d="M99.5363 133.046C97.3793 133.046 98.5312 129.946 99.1932 127.955C100.338 124.516 101.779 122.864 103.195 122.864C105.401 122.864 105.029 124.999 104.754 125.941L104.011 128.171C102.352 132.945 100.499 133.046 99.5363 133.046ZM107.8 122.464H105.913L105.476 123.775C105.224 123.056 104.59 122.465 103.195 122.465C101.695 122.465 98.8063 123.458 97.3063 127.955C95.5793 133.138 98.9423 133.445 99.5363 133.445C100.476 133.445 101.574 133.285 102.652 132.247L102.386 133.046H105.274L105.407 132.647H104.406" fill="#B91C1C"/>
<path d="M99.1932 127.955L99.0983 127.924L99.0984 127.923L99.1932 127.955ZM104.754 125.941L104.85 125.969L104.849 125.973L104.754 125.941ZM104.011 128.171L104.106 128.203L104.106 128.204L104.011 128.171ZM105.913 122.464L105.818 122.432L105.841 122.364H105.913V122.464ZM105.476 123.775L105.571 123.807L105.479 124.084L105.382 123.808L105.476 123.775ZM97.3063 127.955L97.2114 127.923L97.2114 127.923L97.3063 127.955ZM102.652 132.247L102.583 132.175L102.747 132.279L102.652 132.247ZM102.386 133.046V133.146H102.248L102.291 133.014L102.386 133.046ZM105.274 133.046L105.369 133.078L105.346 133.146H105.274V133.046ZM105.407 132.647V132.547H105.546L105.502 132.679L105.407 132.647ZM99.5363 133.046V133.146C98.9697 133.146 98.5996 132.94 98.3929 132.58C98.1921 132.231 98.1569 131.756 98.2081 131.237C98.3106 130.199 98.7693 128.913 99.0983 127.924L99.1932 127.955L99.2881 127.987C98.9552 128.988 98.5069 130.247 98.4071 131.257C98.3572 131.763 98.3971 132.187 98.5663 132.481C98.7296 132.765 99.0244 132.946 99.5363 132.946V133.046ZM99.1932 127.955L99.0984 127.923C99.6728 126.198 100.324 124.913 101.015 124.057C101.705 123.202 102.445 122.764 103.195 122.764V122.864V122.964C102.529 122.964 101.841 123.352 101.17 124.183C100.5 125.013 99.8586 126.273 99.2881 127.987L99.1932 127.955ZM103.195 122.864V122.764C103.763 122.764 104.177 122.902 104.47 123.134C104.764 123.367 104.925 123.685 105.003 124.027C105.157 124.705 104.989 125.495 104.85 125.969L104.754 125.941L104.658 125.913C104.795 125.445 104.95 124.697 104.808 124.072C104.737 123.762 104.595 123.488 104.346 123.291C104.097 123.093 103.731 122.964 103.195 122.964V122.864ZM104.754 125.941L104.849 125.973L104.106 128.203L104.011 128.171L103.916 128.139L104.659 125.909L104.754 125.941ZM104.011 128.171L104.106 128.204C103.273 130.6 102.387 131.839 101.575 132.477C100.757 133.12 100.026 133.146 99.5363 133.146V133.046V132.946C100.009 132.946 100.686 132.922 101.451 132.32C102.221 131.715 103.09 130.517 103.917 128.138L104.011 128.171ZM107.8 122.464V122.564H105.913V122.464V122.364H107.8V122.464ZM105.913 122.464L106.008 122.496L105.571 123.807L105.476 123.775L105.381 123.743L105.818 122.432L105.913 122.464ZM105.476 123.775L105.382 123.808C105.262 123.466 105.053 123.158 104.71 122.934C104.366 122.71 103.879 122.565 103.195 122.565V122.465V122.365C103.907 122.365 104.434 122.516 104.819 122.767C105.205 123.018 105.438 123.365 105.571 123.742L105.476 123.775ZM103.195 122.465V122.565C101.74 122.565 98.8881 123.529 97.4011 127.987L97.3063 127.955L97.2114 127.923C98.7244 123.387 101.65 122.365 103.195 122.365V122.465ZM97.3063 127.955L97.4011 127.987C96.5432 130.562 96.9609 131.888 97.6229 132.574C98.2932 133.269 99.2476 133.345 99.5363 133.345V133.445V133.545C99.2309 133.545 98.2068 133.468 97.4789 132.713C96.7427 131.95 96.3424 130.532 97.2114 127.923L97.3063 127.955ZM99.5363 133.445V133.345C100.462 133.345 101.53 133.189 102.583 132.175L102.652 132.247L102.722 132.319C101.618 133.382 100.491 133.545 99.5363 133.545V133.445ZM102.652 132.247L102.747 132.279L102.481 133.078L102.386 133.046L102.291 133.014L102.557 132.215L102.652 132.247ZM102.386 133.046V132.946H105.274V133.046V133.146H102.386V133.046ZM105.274 133.046L105.179 133.014L105.312 132.615L105.407 132.647L105.502 132.679L105.369 133.078L105.274 133.046ZM105.407 132.647V132.747H104.406V132.647V132.547H105.407V132.647Z" fill="#B91C1C" mask="url(#path-21-inside-6_15_1982)"/>
<path d="M99.5363 133.046C97.3793 133.046 98.5312 129.946 99.1932 127.955C100.338 124.516 101.779 122.864 103.195 122.864C105.401 122.864 105.029 124.999 104.754 125.941L104.011 128.171C102.352 132.945 100.499 133.046 99.5363 133.046ZM107.8 122.464H105.913L105.476 123.775C105.224 123.056 104.59 122.465 103.195 122.465C101.695 122.465 98.8063 123.458 97.3063 127.955C95.5793 133.138 98.9423 133.445 99.5363 133.445C100.476 133.445 101.574 133.285 102.652 132.247L102.386 133.046H105.274L105.407 132.647H104.406L107.8 122.464Z" fill="#B91C1C" stroke="#B91C1C" stroke-width="0.432" stroke-miterlimit="10"/>
<mask id="path-24-inside-7_15_1982" fill="white">
<path d="M121.682 133.046C119.524 133.046 120.677 129.946 121.339 127.955C122.484 124.516 123.924 122.864 125.341 122.864C127.546 122.864 127.175 124.999 126.9 125.94L126.157 128.17C124.498 132.945 122.645 133.046 121.682 133.046ZM131.59 117.532H128.993L128.86 117.931H129.57L127.622 123.775C127.369 123.056 126.735 122.465 125.341 122.465C123.84 122.465 120.952 123.458 119.452 127.955C117.724 133.138 121.088 133.445 121.682 133.445C122.622 133.445 123.72 133.285 124.798 132.247L124.532 133.046H127.42L127.553 132.647H126.552"/>
</mask>
<path d="M121.682 133.046C119.524 133.046 120.677 129.946 121.339 127.955C122.484 124.516 123.924 122.864 125.341 122.864C127.546 122.864 127.175 124.999 126.9 125.94L126.157 128.17C124.498 132.945 122.645 133.046 121.682 133.046ZM131.59 117.532H128.993L128.86 117.931H129.57L127.622 123.775C127.369 123.056 126.735 122.465 125.341 122.465C123.84 122.465 120.952 123.458 119.452 127.955C117.724 133.138 121.088 133.445 121.682 133.445C122.622 133.445 123.72 133.285 124.798 132.247L124.532 133.046H127.42L127.553 132.647H126.552" fill="#B91C1C"/>
<path d="M121.339 127.955L121.244 127.924L121.244 127.923L121.339 127.955ZM126.9 125.94L126.996 125.968L126.995 125.972L126.9 125.94ZM126.157 128.17L126.252 128.202L126.252 128.203L126.157 128.17ZM128.993 117.532L128.898 117.5L128.921 117.432H128.993V117.532ZM128.86 117.931V118.031H128.722L128.765 117.899L128.86 117.931ZM129.57 117.931V117.831H129.709L129.665 117.963L129.57 117.931ZM127.622 123.775L127.717 123.807L127.625 124.084L127.528 123.808L127.622 123.775ZM119.452 127.955L119.357 127.923L119.357 127.923L119.452 127.955ZM124.798 132.247L124.729 132.175L124.893 132.279L124.798 132.247ZM124.532 133.046V133.146H124.394L124.437 133.014L124.532 133.046ZM127.42 133.046L127.515 133.078L127.492 133.146H127.42V133.046ZM127.553 132.647V132.547H127.692L127.648 132.679L127.553 132.647ZM121.682 133.046V133.146C121.115 133.146 120.745 132.94 120.538 132.58C120.338 132.231 120.302 131.755 120.354 131.237C120.456 130.199 120.915 128.913 121.244 127.924L121.339 127.955L121.434 127.987C121.101 128.988 120.653 130.247 120.553 131.257C120.503 131.763 120.543 132.187 120.712 132.481C120.875 132.765 121.17 132.946 121.682 132.946V133.046ZM121.339 127.955L121.244 127.923C121.819 126.198 122.47 124.913 123.16 124.057C123.851 123.202 124.591 122.764 125.341 122.764V122.864V122.964C124.675 122.964 123.986 123.352 123.316 124.183C122.646 125.013 122.005 126.273 121.434 127.987L121.339 127.955ZM125.341 122.864V122.764C125.909 122.764 126.323 122.902 126.616 123.134C126.909 123.366 127.07 123.685 127.148 124.027C127.303 124.705 127.135 125.495 126.996 125.968L126.9 125.94L126.804 125.912C126.941 125.445 127.096 124.696 126.953 124.071C126.883 123.762 126.74 123.488 126.492 123.291C126.243 123.093 125.876 122.964 125.341 122.964V122.864ZM126.9 125.94L126.995 125.972L126.252 128.202L126.157 128.17L126.062 128.138L126.805 125.908L126.9 125.94ZM126.157 128.17L126.252 128.203C125.419 130.599 124.533 131.838 123.721 132.477C122.903 133.12 122.172 133.146 121.682 133.146V133.046V132.946C122.155 132.946 122.832 132.922 123.597 132.32C124.367 131.715 125.236 130.516 126.063 128.137L126.157 128.17ZM131.59 117.532V117.632H128.993V117.532V117.432H131.59V117.532ZM128.993 117.532L129.088 117.564L128.955 117.963L128.86 117.931L128.765 117.899L128.898 117.5L128.993 117.532ZM128.86 117.931V117.831H129.57V117.931V118.031H128.86V117.931ZM129.57 117.931L129.665 117.963L127.717 123.807L127.622 123.775L127.527 123.743L129.475 117.899L129.57 117.931ZM127.622 123.775L127.528 123.808C127.407 123.466 127.198 123.158 126.855 122.934C126.511 122.71 126.024 122.565 125.341 122.565V122.465V122.365C126.052 122.365 126.579 122.516 126.964 122.767C127.35 123.018 127.584 123.365 127.717 123.742L127.622 123.775ZM125.341 122.465V122.565C123.885 122.565 121.034 123.529 119.547 127.987L119.452 127.955L119.357 127.923C120.87 123.387 123.795 122.365 125.341 122.365V122.465ZM119.452 127.955L119.547 127.987C118.689 130.562 119.106 131.888 119.768 132.574C120.439 133.269 121.394 133.345 121.682 133.345V133.445V133.545C121.377 133.545 120.353 133.468 119.625 132.713C118.888 131.95 118.488 130.532 119.357 127.923L119.452 127.955ZM121.682 133.445V133.345C122.608 133.345 123.676 133.189 124.729 132.175L124.798 132.247L124.868 132.319C123.764 133.382 122.637 133.545 121.682 133.545V133.445ZM124.798 132.247L124.893 132.279L124.627 133.078L124.532 133.046L124.437 133.014L124.703 132.215L124.798 132.247ZM124.532 133.046V132.946H127.42V133.046V133.146H124.532V133.046ZM127.42 133.046L127.325 133.014L127.458 132.615L127.553 132.647L127.648 132.679L127.515 133.078L127.42 133.046ZM127.553 132.647V132.747H126.552V132.647V132.547H127.553V132.647Z" fill="#B91C1C" mask="url(#path-24-inside-7_15_1982)"/>
<path d="M121.682 133.046C119.524 133.046 120.677 129.946 121.339 127.955C122.484 124.516 123.924 122.864 125.341 122.864C127.546 122.864 127.175 124.999 126.9 125.94L126.157 128.17C124.498 132.945 122.645 133.046 121.682 133.046ZM131.59 117.532H128.993L128.86 117.931H129.57L127.622 123.775C127.369 123.056 126.735 122.465 125.341 122.465C123.84 122.465 120.952 123.458 119.452 127.955C117.724 133.138 121.088 133.445 121.682 133.445C122.622 133.445 123.72 133.285 124.798 132.247L124.532 133.046H127.42L127.553 132.647H126.552L131.59 117.532Z" fill="#B91C1C" stroke="#B91C1C" stroke-width="0.432" stroke-miterlimit="10"/>
<mask id="path-27-inside-8_15_1982" fill="white">
<path d="M62.0632 117.525H59.1742L59.0412 117.924H60.1712L55.1312 133.046H57.0152H58.0192L58.1522 132.647H57.1452"/>
</mask>
<path d="M62.0632 117.525H59.1742L59.0412 117.924H60.1712L55.1312 133.046H57.0152H58.0192L58.1522 132.647H57.1452" fill="#B91C1C"/>
<path d="M59.1742 117.525L59.0793 117.493L59.1021 117.425H59.1742V117.525ZM59.0412 117.924V118.024H58.9024L58.9463 117.892L59.0412 117.924ZM60.1712 117.924V117.824H60.31L60.2661 117.956L60.1712 117.924ZM55.1312 133.046V133.146H54.9925L55.0364 133.014L55.1312 133.046ZM58.0192 133.046L58.1141 133.078L58.0913 133.146H58.0192V133.046ZM58.1522 132.647V132.547H58.291L58.2471 132.679L58.1522 132.647ZM62.0632 117.525V117.625H59.1742V117.525V117.425H62.0632V117.525ZM59.1742 117.525L59.2691 117.557L59.1361 117.956L59.0412 117.924L58.9463 117.892L59.0793 117.493L59.1742 117.525ZM59.0412 117.924V117.824H60.1712V117.924V118.024H59.0412V117.924ZM60.1712 117.924L60.2661 117.956L55.2261 133.078L55.1312 133.046L55.0364 133.014L60.0763 117.892L60.1712 117.924ZM55.1312 133.046V132.946H57.0152V133.046V133.146H55.1312V133.046ZM57.0152 133.046V132.946H58.0192V133.046V133.146H57.0152V133.046ZM58.0192 133.046L57.9243 133.014L58.0574 132.615L58.1522 132.647L58.2471 132.679L58.1141 133.078L58.0192 133.046ZM58.1522 132.647V132.747H57.1452V132.647V132.547H58.1522V132.647Z" fill="#B91C1C" mask="url(#path-27-inside-8_15_1982)"/>
<path d="M62.0632 117.525H59.1742L59.0412 117.924H60.1712L55.1312 133.046H57.0152H58.0192L58.1522 132.647H57.1452L62.0632 117.525Z" fill="#B91C1C" stroke="#B91C1C" stroke-width="0.432" stroke-miterlimit="10"/>
<path d="M14.3499 132.996L16.6399 125.951V125.95L16.6448 125.941C17.0658 125.223 17.6276 124.443 18.3264 123.841C19.0255 123.239 19.8647 122.813 20.8411 122.813C21.3475 122.813 21.7208 122.874 21.968 123.038C22.2205 123.206 22.332 123.476 22.3342 123.864C22.3364 124.251 22.2307 124.765 22.0403 125.436C21.8496 126.107 21.5728 126.941 21.2297 127.97L19.554 132.996H22.3381L22.4377 132.696H21.4368L21.4592 132.63L23.0227 127.939C23.7071 125.885 23.6506 124.529 23.1848 123.69C22.7207 122.853 21.8411 122.514 20.8411 122.514C19.335 122.514 18.1328 123.357 17.2131 124.503L17.1262 124.456L19.3645 117.576H16.5813L16.4817 117.874H17.6116L17.5901 117.94L12.5706 132.996H14.3499Z" fill="#B91C1C" stroke="#B91C1C" stroke-width="0.1"/>
<path d="M20.8412 122.464C19.3142 122.464 18.0992 123.319 17.1742 124.472L19.4332 117.526H16.5452L16.4122 117.924H17.5422L12.5012 133.046H14.3862L16.6882 125.966C17.5272 124.537 18.9192 122.863 20.8412 122.863C22.8622 122.863 22.5552 123.837 21.1822 127.954L19.4852 133.046H21.3732H22.3742L22.5072 132.646H21.5062L23.0702 127.954C24.4422 123.837 22.8622 122.464 20.8412 122.464Z" fill="#B91C1C" stroke="#B91C1C" stroke-width="0.432" stroke-miterlimit="10"/>
<path d="M70.0409 132.996L72.3309 125.951V125.95L72.3358 125.941C72.7568 125.223 73.3186 124.443 74.0175 123.841C74.7165 123.239 75.5558 122.813 76.5321 122.813C77.0387 122.813 77.4117 122.874 77.6591 123.038C77.9118 123.206 78.024 123.475 78.0262 123.864C78.0285 124.251 77.9227 124.765 77.7323 125.436C77.5417 126.107 77.2648 126.941 76.9218 127.97L75.246 132.996H78.0292L78.1298 132.696H77.1278L77.1503 132.63L78.7137 127.939C79.3982 125.885 79.3416 124.529 78.8759 123.69C78.4119 122.853 77.5327 122.514 76.5321 122.514C75.027 122.514 73.8238 123.357 72.9042 124.503L72.8173 124.456L75.0555 117.576H72.2723L72.1727 117.874H73.3026L73.2811 117.94L68.2616 132.996H70.0409Z" fill="#B91C1C" stroke="#B91C1C" stroke-width="0.1"/>
<path d="M76.5323 122.464C75.0063 122.464 73.7903 123.319 72.8653 124.472L75.1242 117.526H72.2363L72.1043 117.924H73.2333L68.1923 133.046H70.0773L72.3793 125.966C73.2183 124.537 74.6103 122.863 76.5323 122.863C78.5543 122.863 78.2472 123.837 76.8742 127.954L75.1773 133.046H78.0653L78.1992 132.646H77.1972L78.7613 127.954C80.1333 123.837 78.5543 122.464 76.5323 122.464Z" fill="#B91C1C" stroke="#B91C1C" stroke-width="0.432" stroke-miterlimit="10"/>
<path d="M108.938 132.996L111.228 125.95V125.949L111.233 125.94C111.654 125.223 112.216 124.443 112.914 123.841C113.614 123.239 114.453 122.813 115.429 122.813C115.936 122.813 116.309 122.874 116.556 123.038C116.808 123.206 116.92 123.476 116.922 123.864C116.924 124.251 116.819 124.765 116.628 125.436C116.438 126.107 116.161 126.941 115.818 127.97L114.143 132.996H116.926L117.026 132.696H116.025L116.047 132.63L117.611 127.939C118.295 125.885 118.239 124.529 117.773 123.69C117.309 122.853 116.429 122.514 115.429 122.514C113.923 122.514 112.721 123.357 111.801 124.503L111.714 124.456L112.346 122.514H109.562L109.463 122.814H110.553L110.531 122.88L107.159 132.996H108.938Z" fill="#B91C1C" stroke="#B91C1C" stroke-width="0.1"/>
<path d="M115.429 122.464C113.902 122.464 112.687 123.319 111.762 124.472L112.415 122.464H109.526L109.393 122.864H110.483L107.089 133.046H108.974L111.276 125.965C112.115 124.537 113.507 122.863 115.429 122.863C117.45 122.863 117.143 123.837 115.77 127.954L114.074 133.046H116.962L117.095 132.646H116.094L117.658 127.954C119.03 123.837 117.45 122.464 115.429 122.464Z" fill="#B91C1C" stroke="#B91C1C" stroke-width="0.432" stroke-miterlimit="10"/>
<path d="M62.6827 132.996C63.8547 132.996 65.5412 132.748 66.8614 130.846H65.794C65.1148 131.739 64.515 132.204 63.9942 132.443C63.4693 132.685 63.0296 132.697 62.6827 132.697C62.1296 132.697 61.7549 132.497 61.5215 132.16C61.2906 131.826 61.2025 131.364 61.2032 130.848C61.2046 129.815 61.5611 128.536 61.8926 127.54C62.4656 125.82 63.1144 124.54 63.7999 123.691C64.485 122.841 65.2124 122.415 65.9415 122.415C66.4082 122.415 66.7357 122.54 66.9522 122.749C67.1683 122.958 67.267 123.244 67.2911 123.553C67.339 124.168 67.0908 124.892 66.8428 125.345C66.2228 126.481 65.2571 126.862 64.3692 126.942C63.5359 127.016 62.7677 126.826 62.4161 126.745V127.087C62.9361 127.225 64.1017 127.61 65.3292 127.559C65.9569 127.533 66.5979 127.392 67.1749 127.047C67.7514 126.702 68.2675 126.152 68.6417 125.301C68.8661 124.792 68.9258 124.341 68.8633 123.95C68.8009 123.56 68.6156 123.227 68.3428 122.956C67.7957 122.412 66.8963 122.116 65.9415 122.116C64.5101 122.116 61.7708 123.034 60.2432 127.162L60.0997 127.571C59.2398 130.152 59.7515 131.501 60.5303 132.207C61.3154 132.919 62.3895 132.996 62.6827 132.996Z" fill="#B91C1C" stroke="#B91C1C" stroke-width="0.1"/>
<path d="M62.3662 126.682V127.125C63.3562 127.379 67.1752 128.761 68.6872 125.321C69.5972 123.259 67.8682 122.066 65.9412 122.066C64.4412 122.066 61.5522 123.059 60.0522 127.556C58.3252 132.739 62.0882 133.046 62.6822 133.046C63.8792 133.046 65.6182 132.79 66.9592 130.796H65.7702C64.4062 132.599 63.3722 132.647 62.6822 132.647C60.5242 132.647 61.2772 129.547 61.9402 127.556C63.0842 124.121 64.5252 122.465 65.9412 122.465C67.7732 122.465 67.2902 124.424 66.7992 125.321C65.5792 127.556 63.0052 126.822 62.3662 126.682Z" fill="#B91C1C" stroke="#B91C1C" stroke-width="0.432" stroke-miterlimit="10"/>
<path d="M93.9069 132.996L94.8581 130.142H94.571C94.4077 130.607 94.0348 131.235 93.4724 131.751C92.8952 132.281 92.1158 132.696 91.1599 132.696H86.2722L86.2497 132.602C87.9694 131.747 90.3634 129.566 92.5944 126.801C94.8091 124.056 96.8571 120.739 97.9225 117.582H88.2878L87.3386 120.435H87.6257C87.7887 119.969 88.1618 119.341 88.7243 118.825C89.3015 118.296 90.0802 117.881 91.0349 117.881H96.0349L96.0104 117.948C94.7072 121.559 92.0467 125.244 89.4138 128.025C88.097 129.415 86.785 130.582 85.652 131.401C85.0857 131.81 84.5634 132.134 84.1061 132.355C83.6674 132.567 83.2844 132.687 82.9792 132.695L82.8796 132.996H93.9069Z" fill="#B91C1C" stroke="#B91C1C" stroke-width="0.1"/>
<path d="M91.1602 132.646H86.2722C89.7312 130.926 95.8702 123.901 97.9932 117.532H88.2522L87.2682 120.485H87.6602C87.9672 119.564 89.1562 117.931 91.0352 117.931H95.9632C93.3632 125.135 85.3402 132.646 82.9432 132.646L82.8102 133.046H93.9422L94.9272 130.092H94.5362C94.2282 131.013 93.0412 132.646 91.1602 132.646Z" fill="#B91C1C" stroke="#B91C1C" stroke-width="0.432" stroke-miterlimit="10"/>
<path d="M44.4613 105.425C44.4997 105.43 44.5402 105.414 44.5834 105.377C44.6265 105.339 44.6671 105.283 44.7045 105.222C44.7416 105.162 44.7734 105.097 44.8002 105.044C44.862 104.918 44.9179 104.791 44.973 104.662C45.0272 104.535 45.0815 104.407 45.141 104.282V104.281C45.25 103.976 45.3682 103.683 45.476 103.382L45.5795 103.079C45.611 102.982 45.6522 102.865 45.6517 102.765C45.6515 102.717 45.6408 102.678 45.6195 102.65C45.5989 102.623 45.5632 102.598 45.4984 102.588C45.4238 102.575 45.2899 102.578 45.1664 102.604C45.105 102.617 45.0485 102.636 45.0043 102.659C44.9597 102.682 44.9329 102.708 44.9213 102.734V102.735C44.9047 102.772 44.8817 102.855 44.8558 102.968C44.8303 103.08 44.8023 103.217 44.7748 103.357C44.72 103.636 44.6661 103.931 44.6322 104.068C44.5986 104.202 44.5115 104.477 44.4388 104.737C44.4022 104.868 44.3684 104.996 44.3461 105.104C44.3349 105.158 44.3262 105.206 44.3217 105.247C44.3178 105.281 44.3183 105.307 44.3197 105.326C44.3768 105.396 44.4245 105.421 44.4613 105.425Z" fill="#B91C1C" stroke="#B91C1C" stroke-width="0.1"/>
<path d="M47.1813 116.635C47.4214 116.635 47.7752 116.538 48.3434 116.142C48.9115 115.746 49.6898 115.053 50.777 113.867V113.866C51.4335 113.153 52.0453 112.426 52.4938 111.875C52.7179 111.6 52.9015 111.369 53.0299 111.206C53.094 111.124 53.1445 111.059 53.1793 111.014C53.1966 110.992 53.21 110.974 53.2194 110.962C53.2238 110.957 53.2274 110.952 53.2301 110.949C53.2307 110.948 53.2326 110.947 53.234 110.945V110.944C53.3027 110.852 53.2925 110.715 53.1871 110.633C53.0955 110.564 52.9565 110.575 52.8756 110.679C51.9627 111.868 50.76 113.283 49.6715 114.38C49.1276 114.929 48.6107 115.399 48.1725 115.722C47.9534 115.884 47.7518 116.009 47.5758 116.089C47.4448 116.149 47.3239 116.186 47.2174 116.19L47.1256 116.184C47.0881 116.184 47.0496 116.174 47.0123 116.149C46.9759 116.124 46.9426 116.085 46.9117 116.032C46.8524 115.928 46.8148 115.791 46.7946 115.629C46.7742 115.467 46.7712 115.277 46.7809 115.068C46.8003 114.649 46.8738 114.147 46.9791 113.617C47.1372 112.821 47.3673 111.959 47.5983 111.216L47.8268 110.52C47.8613 110.415 47.8139 110.301 47.7252 110.256L47.7203 110.253C47.6317 110.198 47.5203 110.218 47.4498 110.295C47.4475 110.3 47.4438 110.304 47.441 110.308C47.4354 110.316 47.428 110.327 47.4186 110.339C47.3995 110.364 47.3717 110.398 47.3365 110.439C47.2656 110.522 47.1629 110.64 47.0358 110.782L46.9869 110.835L46.9537 110.771C46.7703 110.418 46.4516 110.038 46.0455 109.847L45.8668 109.778C45.6047 109.706 45.2171 109.676 44.7848 109.936L44.5973 110.067C44.1467 110.434 43.7515 111.044 43.4742 111.683C43.1971 112.322 43.0412 112.981 43.0612 113.444C43.0886 113.789 43.1992 114.012 43.3776 114.127C43.4523 114.176 43.5423 114.212 43.6617 114.213C43.7824 114.215 43.9373 114.182 44.1403 114.085C44.5471 113.892 45.1391 113.448 46.028 112.553V112.552C46.3404 112.211 46.6636 111.888 46.9313 111.578L47.0172 111.625C46.7986 112.366 46.556 113.317 46.4293 114.19C46.366 114.627 46.3311 115.043 46.3434 115.402C46.3557 115.762 46.4142 116.06 46.5319 116.265C46.652 116.465 46.8252 116.583 47.0221 116.622L47.024 116.623C47.0731 116.635 47.1243 116.635 47.1813 116.635ZM43.6403 113.767C43.6374 113.766 43.6345 113.766 43.6324 113.765L43.6285 113.763L43.6471 113.717L43.6276 113.763L43.6188 113.759L43.611 113.751C43.5936 113.733 43.5681 113.703 43.5475 113.65C43.5272 113.597 43.5125 113.525 43.5123 113.422C43.4908 113.015 43.6395 112.42 43.8864 111.852C44.1334 111.283 44.4833 110.731 44.8737 110.413L44.8746 110.412C45.0798 110.251 45.2887 110.175 45.4996 110.175C45.5762 110.175 45.6522 110.19 45.7213 110.204L45.7262 110.206C45.9424 110.273 46.1368 110.421 46.2926 110.595C46.4485 110.769 46.5691 110.972 46.6354 111.155L46.6383 111.164V111.18L46.6393 111.181L46.6715 111.215L46.6383 111.25C46.498 111.396 46.349 111.559 46.193 111.727L45.7047 112.24C44.8769 113.075 44.3677 113.456 44.0631 113.629C43.9107 113.716 43.8073 113.751 43.7399 113.764C43.7061 113.771 43.681 113.771 43.6627 113.77C43.6536 113.769 43.646 113.768 43.6403 113.767Z" fill="#B91C1C" stroke="#B91C1C" stroke-width="0.1"/>
<path d="M51.0834 123.633C51.167 123.633 51.2351 123.59 51.308 123.491C51.3821 123.389 51.4547 123.24 51.5472 123.04V123.039C51.6034 122.92 51.656 122.8 51.6967 122.708C51.7168 122.663 51.7343 122.624 51.7474 122.595C51.754 122.581 51.7603 122.568 51.765 122.559C51.7673 122.554 51.7696 122.55 51.7719 122.546C51.8165 122.432 51.7604 122.306 51.6439 122.26L51.639 122.257C51.574 122.224 51.4964 122.234 51.4398 122.28L51.3461 122.355L51.3588 122.236C51.7551 118.487 53.4374 110.172 54.4691 105.183L54.4769 105.148L54.5121 105.143C57.5938 104.776 60.7647 104.563 63.2006 104.747H63.2025C63.3192 104.759 63.43 104.664 63.4301 104.557V104.505C63.42 104.415 63.3573 104.343 63.2767 104.318L63.2357 104.31C60.8086 104.126 57.7028 104.324 54.6371 104.678L54.5677 104.686L54.5824 104.618L55.3314 101.138C55.3531 101.027 55.2748 100.91 55.1547 100.874C55.0404 100.854 54.9143 100.935 54.892 101.046V101.047L54.6469 102.184C54.5109 102.818 54.3276 103.684 54.1156 104.708L54.1078 104.744L54.0726 104.747L53.0365 104.877C47.9262 105.542 43.4155 106.503 43.2767 106.529C43.1575 106.567 43.0807 106.684 43.1029 106.793C43.1256 106.897 43.2179 106.967 43.3226 106.967H43.3754C43.5679 106.929 48.5503 105.871 53.9467 105.201L54.017 105.192L54.0023 105.26C53.4154 108.066 52.6452 111.847 52.0092 115.295C51.373 118.745 50.8722 121.857 50.8226 123.33C50.8227 123.451 50.8634 123.524 50.9066 123.567C50.9495 123.61 50.9984 123.627 51.0219 123.633H51.0834Z" fill="#B91C1C" stroke="#B91C1C" stroke-width="0.1"/>
<path d="M54.4928 115.646C54.9121 115.646 55.4274 115.487 56.0426 115.164C56.6569 114.841 57.3677 114.356 58.1783 113.707V113.706C58.9686 113.064 59.7135 112.377 60.2623 111.847C60.5367 111.583 60.7629 111.357 60.9205 111.197C60.9992 111.117 61.0606 111.053 61.1031 111.01C61.1244 110.988 61.1416 110.971 61.153 110.959C61.1585 110.953 61.1626 110.948 61.1656 110.945L61.1705 110.94L61.1715 110.938C61.2506 110.859 61.2504 110.71 61.1598 110.631C61.0646 110.547 60.9274 110.551 60.8502 110.639L60.8483 110.641L60.4401 111.06C59.4494 112.057 58.2029 113.173 57.0543 113.995C56.3985 114.464 55.7719 114.838 55.2418 115.039C54.7163 115.238 54.2638 115.273 53.9791 115.027L53.9781 115.026C53.8682 114.924 53.8089 114.774 53.778 114.621C53.7624 114.544 53.7535 114.465 53.7496 114.387L53.7506 114.167C53.7791 113.465 54.0791 112.566 54.4762 111.744L54.4889 111.718L54.5192 111.717C54.6579 111.71 55.1503 111.664 55.6803 111.458C56.2105 111.252 56.7725 110.888 57.0621 110.249V110.248C57.2653 109.787 57.1147 109.444 56.9069 109.275L56.9059 109.274C56.5906 109.011 56.0802 109.044 55.6393 109.362C55.1757 109.694 54.6112 110.479 54.151 111.392C53.6914 112.305 53.3415 113.333 53.2994 114.143C53.2753 114.643 53.3788 115.016 53.5934 115.263L53.692 115.361C53.908 115.55 54.165 115.646 54.4928 115.646ZM54.7887 111.163C55.1418 110.512 55.5557 109.968 55.8912 109.734V109.733C56.0665 109.601 56.2468 109.539 56.3873 109.539C56.4839 109.539 56.5653 109.572 56.6295 109.621C56.7133 109.686 56.7232 109.782 56.7135 109.862C56.7039 109.941 56.6736 110.018 56.6608 110.056L56.6129 110.041L56.6608 110.057L56.6588 110.061L56.5836 110.207C56.3938 110.53 56.1049 110.755 55.8043 110.913C55.4608 111.093 55.0983 111.186 54.8414 111.236L54.7379 111.257L54.7887 111.163Z" fill="#B91C1C" stroke="#B91C1C" stroke-width="0.1"/>
<path d="M59.8792 122.276C59.9126 122.276 59.9469 122.265 59.9905 122.251V122.25L59.9954 122.249C60.0542 122.236 60.1332 122.219 60.2698 122.115C60.4088 122.009 60.6078 121.812 60.9026 121.439C61.4923 120.693 62.4591 119.246 64.0911 116.42C64.8817 115.049 65.5599 113.845 66.0422 112.979C66.2834 112.547 66.4759 112.198 66.6086 111.957C66.675 111.836 66.7266 111.741 66.762 111.677C66.7795 111.644 66.7936 111.62 66.803 111.602C66.8077 111.594 66.8112 111.587 66.8137 111.582C66.815 111.58 66.8159 111.577 66.8167 111.576L66.8176 111.575L66.8186 111.573C66.8738 111.473 66.8304 111.334 66.7268 111.274C66.6095 111.217 66.4835 111.262 66.426 111.366C66.4101 111.395 65.295 113.444 63.7258 116.173C62.2695 118.69 61.3562 120.088 60.7874 120.862C60.503 121.249 60.3041 121.482 60.1653 121.621C60.0283 121.758 59.9452 121.809 59.8928 121.823L59.8596 121.832L59.8391 121.805C59.8106 121.766 59.731 121.639 59.6917 121.216C59.6523 120.792 59.6527 120.067 59.7874 118.829V118.828C59.9716 117.243 60.3394 115.078 60.8625 112.59C61.6677 108.702 62.757 104.459 63.4231 102.548L63.4417 102.494L63.4924 102.519C63.4982 102.522 63.5087 102.525 63.5256 102.526C63.5422 102.528 63.5608 102.528 63.5823 102.528H63.5872C63.6968 102.539 63.801 102.439 63.801 102.324V101.959C63.7966 101.857 63.7873 101.775 63.7698 101.708C63.7525 101.642 63.7284 101.595 63.6975 101.562C63.6678 101.531 63.6284 101.51 63.5745 101.497C63.5411 101.496 63.4925 101.492 63.4368 101.512C63.394 101.527 63.3452 101.557 63.302 101.619L63.261 101.693C62.9657 102.383 62.5035 103.916 61.9963 105.837C61.4895 107.756 60.9384 110.059 60.4651 112.285C59.9423 114.758 59.576 116.92 59.3782 118.543C59.2158 119.884 59.1984 120.715 59.2473 121.24C59.2962 121.764 59.4109 121.979 59.5081 122.096L59.509 122.098C59.5981 122.212 59.7389 122.276 59.8792 122.276Z" fill="#B91C1C" stroke="#B91C1C" stroke-width="0.1"/>
<path d="M67.8527 108.719C67.9948 108.718 68.0988 108.614 68.0988 108.472C68.0985 108.328 67.9918 108.212 67.8527 108.212C67.7103 108.212 67.5912 108.33 67.5909 108.472C67.5909 108.611 67.7072 108.719 67.8527 108.719ZM65.9572 116.776C66.2107 116.776 66.5714 116.663 67.1115 116.255C67.6512 115.847 68.3655 115.146 69.3263 113.981C69.9393 113.24 70.5116 112.475 70.9318 111.892C71.1417 111.601 71.3132 111.356 71.4337 111.182C71.494 111.096 71.5416 111.027 71.5743 110.979C71.5906 110.956 71.6035 110.937 71.6124 110.925C71.6167 110.919 71.6205 110.914 71.6232 110.91C71.6241 110.909 71.6253 110.907 71.6261 110.906V110.905C71.6889 110.811 71.6778 110.694 71.6046 110.621L71.5695 110.593C71.4679 110.524 71.3282 110.557 71.2579 110.663H71.2589L71.255 110.667C71.2546 110.667 71.2541 110.668 71.2531 110.67C71.2508 110.673 71.2466 110.677 71.2423 110.683C71.2337 110.696 71.2214 110.715 71.2052 110.738C71.1729 110.785 71.1259 110.852 71.0665 110.937C70.9474 111.108 70.7772 111.35 70.5695 111.638C70.154 112.212 69.5881 112.97 68.9796 113.706C67.8898 115.029 67.1578 115.695 66.673 116.022C66.1887 116.349 65.9425 116.345 65.8302 116.309L65.8175 116.306L65.8087 116.296V116.297C65.807 116.296 65.8018 116.292 65.798 116.289C65.7878 116.281 65.7746 116.271 65.7609 116.255C65.7473 116.239 65.7338 116.219 65.7208 116.192L65.6837 116.091C65.6391 115.943 65.6274 115.756 65.6388 115.544C65.6503 115.33 65.6854 115.087 65.7384 114.827C65.8444 114.307 66.0214 113.714 66.2179 113.143C66.4144 112.572 66.6312 112.021 66.8185 111.583C67.005 111.146 67.1638 110.817 67.2443 110.692L67.2863 110.719L67.2433 110.691L67.254 110.681C67.2549 110.68 67.2565 110.679 67.2579 110.678C67.2607 110.675 67.265 110.673 67.2697 110.67C67.2727 110.668 67.2776 110.668 67.2823 110.666C67.3575 110.572 67.3565 110.439 67.2794 110.347C67.2237 110.303 67.1513 110.28 67.0861 110.285L67.0236 110.299C66.9985 110.309 66.9809 110.318 66.9611 110.333C66.941 110.348 66.9165 110.374 66.8839 110.422C66.8178 110.518 66.7234 110.698 66.5675 111.052L66.4181 111.387C66.2673 111.735 66.1143 112.123 65.9767 112.504L65.9757 112.505C65.7851 113.02 65.5809 113.626 65.4279 114.216C65.2937 114.733 65.1994 115.235 65.1876 115.65L65.1886 115.822C65.2023 116.133 65.2739 116.343 65.3663 116.481C65.4585 116.619 65.5727 116.691 65.6759 116.724H65.6769C65.7589 116.751 65.8531 116.776 65.9572 116.776Z" fill="#B91C1C" stroke="#B91C1C" stroke-width="0.1"/>
<path d="M71.2018 115.646C71.6212 115.646 72.1365 115.487 72.7516 115.164C73.3659 114.841 74.0767 114.356 74.8874 113.707V113.706C75.6777 113.064 76.4225 112.377 76.9714 111.847C77.2458 111.583 77.4719 111.357 77.6296 111.197C77.7082 111.117 77.7697 111.053 77.8122 111.01C77.8334 110.988 77.8507 110.971 77.862 110.959C77.8675 110.953 77.8717 110.948 77.8747 110.945L77.8796 110.94L77.8806 110.938C77.9596 110.859 77.9595 110.71 77.8688 110.631C77.7737 110.547 77.6365 110.551 77.5593 110.639L77.5573 110.641L77.1491 111.06C76.1584 112.057 74.9119 113.173 73.7634 113.995C73.1075 114.464 72.4809 114.838 71.9509 115.039C71.4253 115.238 70.9728 115.273 70.6882 115.027L70.6872 115.026C70.5773 114.924 70.518 114.774 70.487 114.621C70.4715 114.544 70.4625 114.465 70.4587 114.387L70.4597 114.167C70.4881 113.465 70.7881 112.566 71.1852 111.744L71.1979 111.718L71.2282 111.717C71.367 111.71 71.8594 111.663 72.3893 111.458C72.9195 111.252 73.4815 110.888 73.7712 110.249V110.248C73.9743 109.787 73.8237 109.444 73.6159 109.275L73.6149 109.274C73.2997 109.011 72.7892 109.044 72.3483 109.362C71.8852 109.694 71.3204 110.479 70.86 111.392C70.4003 112.305 70.0506 113.333 70.0085 114.143C69.9843 114.643 70.0879 115.017 70.3024 115.263L70.4011 115.361C70.6171 115.55 70.8741 115.646 71.2018 115.646ZM71.4977 111.163C71.8509 110.512 72.2647 109.968 72.6003 109.734V109.733C72.7756 109.601 72.9559 109.539 73.0964 109.539C73.193 109.539 73.2744 109.572 73.3386 109.621C73.4224 109.686 73.4323 109.782 73.4225 109.862C73.4129 109.941 73.3826 110.018 73.3698 110.056L73.322 110.041L73.3698 110.057L73.3679 110.061L73.2927 110.207C73.1028 110.53 72.8139 110.755 72.5134 110.913C72.1698 111.093 71.8073 111.186 71.5505 111.236L71.447 111.257L71.4977 111.163Z" fill="#B91C1C" stroke="#B91C1C" stroke-width="0.1"/>
<path d="M76.5361 117.342C76.638 117.341 76.7264 117.272 76.751 117.172L76.752 117.171C76.7521 117.17 76.7528 117.169 76.7529 117.168L76.7568 117.149C76.7598 117.137 76.7647 117.12 76.7705 117.098C76.7821 117.054 76.7991 116.991 76.8213 116.912C76.8657 116.752 76.9304 116.525 77.0127 116.255C77.1772 115.716 77.4109 115 77.6875 114.292C78.1828 113.032 78.5884 112.348 78.8936 111.978C79.1986 111.608 79.4094 111.546 79.5156 111.546C79.688 111.546 79.8617 111.598 80.0381 111.679C80.1263 111.72 80.216 111.768 80.3076 111.821L80.5879 111.992C81.1256 112.325 81.7503 112.712 82.5977 112.695C83.4446 112.677 84.5256 112.255 85.9697 110.937L85.9707 110.936C86.0632 110.855 86.0732 110.718 85.9932 110.626V110.625C85.9105 110.531 85.7612 110.524 85.6855 110.599L85.6836 110.601L85.4424 110.816C84.2546 111.843 83.3707 112.217 82.6572 112.252C81.8957 112.29 81.339 111.942 80.8311 111.625H80.8301C80.3907 111.341 79.9786 111.095 79.5156 111.095C79.1921 111.095 78.8545 111.303 78.501 111.75C78.1483 112.197 77.7859 112.874 77.4121 113.792L77.3174 113.764C77.4304 113.156 77.5431 112.562 77.6562 112.024C77.8615 111.076 78.0324 110.521 78.1611 110.198C78.2254 110.036 78.2795 109.931 78.3232 109.863C78.3664 109.796 78.4016 109.761 78.4287 109.745L78.4385 109.739L78.4492 109.738C78.5607 109.727 78.643 109.625 78.6445 109.507C78.6337 109.393 78.5518 109.312 78.458 109.3H78.4141C78.3288 109.303 78.2456 109.329 78.1602 109.396C78.0735 109.464 77.983 109.576 77.8877 109.754C77.6968 110.112 77.4926 110.725 77.2598 111.75C77.0478 112.713 76.8442 113.859 76.6719 114.915L76.5107 115.93L76.3125 117.076C76.3023 117.195 76.3756 117.307 76.4854 117.329L76.4844 117.331C76.5028 117.332 76.5172 117.334 76.5273 117.338C76.5327 117.34 76.5345 117.342 76.5361 117.342Z" fill="#B91C1C" stroke="#B91C1C" stroke-width="0.1"/>
<path d="M36.0303 120.47C36.1582 120.445 36.3177 120.351 36.5108 120.153C37.1334 119.512 38.0902 118.031 39.0225 116.472C39.9537 114.915 40.8563 113.284 41.3692 112.349C41.517 112.079 41.667 111.804 41.8204 111.537C41.879 111.435 42.0022 111.253 42.0626 111.084C42.0927 111 42.1027 110.929 42.088 110.878C42.0809 110.854 42.0682 110.834 42.0479 110.818C42.0271 110.801 41.9958 110.787 41.9493 110.779C41.9005 110.77 41.853 110.786 41.8038 110.826C41.7535 110.867 41.7054 110.93 41.6602 111.004C41.6154 111.077 41.5748 111.159 41.5381 111.236C41.5022 111.311 41.4686 111.383 41.4395 111.434C41.2891 111.698 41.1421 111.98 40.9883 112.246C40.5721 112.961 39.5369 114.83 38.5098 116.556C37.996 117.419 37.4838 118.249 37.0499 118.883C36.833 119.2 36.6347 119.468 36.4659 119.668C36.3815 119.768 36.3042 119.852 36.2344 119.916C36.1655 119.979 36.1006 120.026 36.043 120.049L36.0225 120.058L36.003 120.048C35.9528 120.025 35.9162 119.979 35.8887 119.923C35.861 119.867 35.8399 119.795 35.8243 119.712C35.793 119.546 35.7808 119.325 35.7833 119.068C35.7881 118.552 35.8512 117.881 35.9366 117.192C36.1075 115.812 36.3714 114.35 36.459 113.885C36.489 113.727 36.5685 113.3 36.6495 112.887C36.69 112.681 36.7315 112.477 36.7667 112.313C36.8014 112.15 36.831 112.021 36.8497 111.966C36.8629 111.865 36.9088 111.602 36.961 111.353C36.9881 111.223 37.0172 111.096 37.044 110.995C37.0574 110.945 37.0698 110.901 37.0821 110.865C37.0903 110.842 37.1022 110.82 37.1124 110.802C37.1124 110.776 37.1148 110.742 37.1202 110.702C37.1269 110.654 37.1368 110.593 37.1495 110.525C37.1749 110.388 37.2103 110.219 37.2481 110.049C37.3229 109.713 37.4078 109.367 37.4415 109.252V109.251L37.5235 108.911V108.912C37.5901 108.546 37.8937 107.303 38.2247 106.053C38.3905 105.426 38.5634 104.797 38.7169 104.275C38.8699 103.754 39.0052 103.336 39.0948 103.134L39.1046 103.111L39.1299 103.105C39.1913 103.092 39.2466 103.086 39.2862 103.079C39.3282 103.072 39.3533 103.065 39.3712 103.054C39.3931 103.04 39.4139 103.014 39.4249 102.931L39.4327 102.828C39.4405 102.605 39.4352 102.447 39.3516 102.255C39.2714 102.201 39.211 102.185 39.1641 102.19C39.1157 102.194 39.0729 102.221 39.0333 102.267C38.9931 102.313 38.9584 102.377 38.9278 102.448C38.8972 102.518 38.8723 102.593 38.8477 102.661C38.3611 103.995 37.8324 106.026 37.4161 107.725L37.043 109.275L36.5489 111.477C36.5258 111.584 36.4771 111.862 36.4229 112.132C36.396 112.266 36.368 112.398 36.3419 112.503C36.3288 112.556 36.3159 112.603 36.3038 112.64C36.2954 112.666 36.2835 112.689 36.2735 112.708C36.2745 112.74 36.2721 112.786 36.2657 112.84C36.2581 112.904 36.2464 112.986 36.2315 113.077C36.2016 113.261 36.1588 113.491 36.1143 113.725C36.0251 114.194 35.927 114.677 35.8985 114.847V114.848C35.7926 115.462 35.6534 116.314 35.5508 117.161C35.4481 118.01 35.3823 118.85 35.4239 119.441C35.4374 119.63 35.468 119.819 35.5176 119.983C35.5677 120.148 35.6359 120.284 35.7217 120.371C35.8055 120.456 35.9065 120.494 36.0303 120.47Z" fill="#B91C1C" stroke="#B91C1C" stroke-width="0.1"/>
<path d="M91.404 122.822C91.4825 122.835 91.5588 122.83 91.6442 122.779C91.7199 122.733 91.7621 122.669 91.7995 122.599C91.8172 122.566 91.8368 122.525 91.8561 122.491C91.873 122.462 91.8931 122.433 91.9177 122.406C91.9182 122.363 91.9233 122.313 91.9294 122.267C91.9369 122.21 91.9434 122.156 91.9401 122.109C91.9368 122.062 91.9246 122.029 91.902 122.007C91.8794 121.986 91.837 121.967 91.7556 121.969C91.6982 121.97 91.663 121.985 91.6393 122.004C91.6149 122.024 91.5974 122.054 91.5817 122.095C91.5656 122.137 91.5538 122.184 91.5378 122.239C91.5224 122.291 91.5033 122.348 91.4724 122.402L91.4538 122.435L91.4167 122.425C91.2438 122.381 91.1202 122.234 91.0329 122.028C90.9451 121.82 90.8895 121.541 90.8581 121.217C90.7952 120.568 90.8274 119.719 90.9059 118.841C91.0631 117.083 91.4042 115.195 91.5349 114.518C91.549 114.445 91.5581 114.387 91.5651 114.34C91.572 114.294 91.5775 114.256 91.5847 114.226C91.5919 114.195 91.6026 114.167 91.6218 114.143C91.6412 114.118 91.6667 114.102 91.696 114.088C91.7245 114.075 91.7611 114.063 91.8054 114.048C91.8507 114.033 91.9066 114.015 91.9772 113.99C92.1184 113.939 92.3186 113.858 92.6052 113.72C93.1121 113.475 93.7341 113.039 94.2585 112.627L94.7429 112.232C94.8912 112.106 95.1915 111.849 95.485 111.589C95.7061 111.393 95.9215 111.197 96.0661 111.053L96.1843 110.929L96.1872 110.926L97.0974 110.029C97.1503 109.974 97.1724 109.921 97.1774 109.876C97.1824 109.831 97.1708 109.791 97.1472 109.758C97.099 109.692 97.0038 109.659 96.9138 109.698V109.698C96.9123 109.699 96.9095 109.702 96.9059 109.704C96.8984 109.71 96.8881 109.719 96.8757 109.73C96.8503 109.752 96.8165 109.784 96.777 109.822C96.6982 109.897 96.597 109.996 96.4938 110.099L96.0114 110.58C95.3686 111.188 94.7505 111.733 94.0612 112.281C93.8494 112.449 93.4053 112.775 92.9518 113.067C92.7251 113.212 92.4948 113.35 92.2897 113.454C92.0865 113.558 91.9018 113.632 91.7673 113.646L91.6999 113.653L91.7136 113.586L91.9821 112.281C92.0385 111.921 92.1362 111.389 92.2419 110.943L92.3493 110.534C92.3759 110.447 92.4422 110.395 92.5104 110.357C92.5446 110.337 92.5818 110.32 92.6169 110.303C92.6524 110.286 92.6865 110.27 92.7184 110.251C92.9436 110.118 93.2009 109.898 93.3796 109.642C93.5364 109.417 93.6286 109.17 93.5944 108.929L93.572 108.826C93.4417 108.394 93.0543 108.42 92.905 108.367L92.8776 108.358L92.8718 108.329C92.8687 108.314 92.8693 108.294 92.8708 108.275C92.8725 108.254 92.8759 108.228 92.8806 108.198C92.8899 108.137 92.9055 108.058 92.9255 107.962C92.9655 107.77 93.0258 107.508 93.0993 107.2C93.2463 106.584 93.4474 105.777 93.6511 104.95C93.8547 104.123 94.0606 103.275 94.2175 102.575C94.3748 101.873 94.481 101.326 94.488 101.095C94.4913 100.978 94.4702 100.9 94.4391 100.853C94.4094 100.807 94.3681 100.785 94.3181 100.781C94.2116 100.774 94.061 100.853 93.9294 101.003C93.8616 101.081 93.776 101.213 93.6774 101.391C93.5793 101.568 93.4695 101.786 93.3513 102.035C93.1148 102.533 92.8465 103.15 92.5778 103.789C92.3096 104.427 92.0406 105.088 91.8024 105.672L91.2116 107.1L91.028 107.551C90.9612 107.712 90.889 107.872 90.8259 107.974L90.4782 108.774L90.4772 108.776L90.0768 109.627L90.0407 109.704L89.9909 109.635C89.8985 109.507 89.832 109.409 89.778 109.332C89.7235 109.255 89.6801 109.199 89.6325 109.149C89.5385 109.05 89.4216 108.971 89.1462 108.809C88.9486 108.754 88.873 108.731 88.7975 108.731C88.7221 108.731 88.6476 108.754 88.4528 108.808C88.1442 108.984 87.9554 109.065 87.7204 109.337C87.5126 109.576 87.3668 109.812 87.1989 110.095C86.9615 110.496 86.6725 111.193 86.5251 111.724L86.4714 111.94L86.4694 111.945C86.3371 112.357 86.2409 112.973 86.239 113.406C86.238 113.659 86.2607 113.908 86.3503 114.134C86.4106 114.286 86.4966 114.385 86.5944 114.445C86.6926 114.505 86.8075 114.528 86.9304 114.522C87.1778 114.509 87.4512 114.379 87.6599 114.209C87.9156 114.001 88.0699 113.838 88.277 113.58C89.2254 112.409 89.8806 110.935 90.5368 109.573C90.5988 109.444 90.6611 109.296 90.7253 109.149C90.7889 109.003 90.8547 108.857 90.9245 108.735L91.8366 106.625V106.624C91.9234 106.365 92.3821 105.241 92.8415 104.156C93.0714 103.613 93.3018 103.078 93.487 102.666C93.5796 102.46 93.6609 102.284 93.7253 102.153C93.7574 102.087 93.786 102.032 93.8093 101.99C93.8317 101.949 93.8518 101.915 93.8679 101.897L93.9714 101.778L93.9548 101.935C93.9491 101.989 93.9239 102.118 93.8854 102.298C93.8467 102.48 93.794 102.717 93.7311 102.992C93.6054 103.542 93.4398 104.244 93.2722 104.948C92.9366 106.359 92.5912 107.785 92.5261 108.06C92.4992 108.173 92.4855 108.249 92.4753 108.305C92.4654 108.359 92.4576 108.401 92.4401 108.438C92.4217 108.476 92.3943 108.505 92.3542 108.541C92.315 108.576 92.2562 108.624 92.1735 108.695C91.6849 109.111 91.1561 109.931 90.7712 110.812C90.3859 111.693 90.1499 112.624 90.237 113.261C90.2625 113.392 90.2933 113.51 90.3513 113.623C90.5228 113.948 90.7926 114.064 91.1559 114.138L91.1989 114.147L91.196 114.19C91.1868 114.341 91.1528 114.532 91.1149 114.722C91.0768 114.913 91.0348 115.104 91.0085 115.259C90.8764 116.042 90.6155 117.537 90.5007 118.991C90.4433 119.719 90.4222 120.435 90.4724 121.046C90.5227 121.659 90.6441 122.158 90.863 122.458C90.9108 122.524 90.9662 122.575 91.0202 122.621C91.0667 122.661 91.1146 122.703 91.1501 122.744C91.2461 122.776 91.3233 122.807 91.404 122.822ZM92.5182 109.808C92.5231 109.771 92.5705 109.538 92.6208 109.312C92.6461 109.198 92.6725 109.084 92.695 108.996C92.7062 108.953 92.7173 108.915 92.7263 108.886C92.7307 108.872 92.7348 108.859 92.739 108.849C92.741 108.844 92.7433 108.839 92.7458 108.834C92.7479 108.83 92.7516 108.823 92.7575 108.817H92.7585C92.8079 108.765 92.8871 108.754 92.9528 108.76C93.0199 108.766 93.0913 108.792 93.1374 108.833L93.1384 108.832C93.2216 108.906 93.2316 109.013 93.2077 109.116C93.1839 109.22 93.125 109.331 93.0534 109.434C92.9814 109.537 92.8941 109.634 92.8112 109.71C92.7303 109.784 92.6468 109.844 92.5817 109.863L92.5085 109.883L92.5182 109.808ZM87.0681 114.124C86.9433 114.161 86.84 114.142 86.7634 114.071C86.6907 114.002 86.6499 113.893 86.6296 113.768C86.609 113.641 86.6076 113.489 86.6179 113.326C86.659 112.676 86.8975 111.815 86.9821 111.562C87.1041 111.197 87.3102 110.654 87.5886 110.175C87.7278 109.935 87.8862 109.71 88.0622 109.531C88.2378 109.352 88.4335 109.217 88.6481 109.161V109.16C88.9336 109.086 89.1793 109.221 89.3659 109.418C89.5525 109.615 89.6888 109.882 89.7624 110.095C89.7823 110.153 89.7786 110.219 89.7643 110.282C89.7499 110.347 89.7233 110.416 89.6931 110.482C89.6336 110.611 89.5524 110.745 89.5095 110.826C89.2662 111.289 88.9576 111.881 88.6159 112.439C88.2747 112.995 87.8972 113.521 87.5143 113.847C87.3374 113.998 87.1903 114.088 87.0681 114.124ZM91.5866 110.243L91.5222 110.241L91.5397 110.179C91.5575 110.117 91.596 110.04 91.6432 109.958C91.691 109.876 91.75 109.786 91.8112 109.699C91.9334 109.526 92.0682 109.359 92.1472 109.281L92.2712 109.156L92.2311 109.327L92.0485 110.107L92.0436 110.131L92.0202 110.141L91.9196 110.18C91.8131 110.217 91.6922 110.246 91.5866 110.243ZM91.236 113.747C91.0977 113.745 90.976 113.717 90.8766 113.652C90.8017 113.602 90.7421 113.534 90.6979 113.446L90.6589 113.35C90.6079 113.198 90.6035 112.973 90.6266 112.723C90.65 112.471 90.702 112.187 90.7702 111.912C90.8385 111.638 90.9235 111.371 91.0114 111.156C91.0553 111.048 91.1005 110.953 91.1452 110.875C91.1895 110.798 91.2353 110.734 91.2819 110.695L91.2927 110.686L91.3073 110.684L91.8776 110.603L91.9479 110.592L91.9333 110.662L91.697 111.749L91.2858 113.707L91.278 113.747H91.236Z" fill="#B91C1C" stroke="#B91C1C" stroke-width="0.1"/>
</svg>
