<svg width="165" height="214" viewBox="0 0 165 214" fill="none" xmlns="http://www.w3.org/2000/svg">
<path d="M155.74 199.286C155.687 198.964 155.634 198.642 155.58 198.321C156.401 198.187 157.222 198.053 158.042 197.919L158.202 198.887C157.381 199.02 156.561 199.153 155.74 199.286ZM155.897 203.689C154.296 203.402 152.694 203.114 150.862 202.786C151.29 201.858 151.692 200.989 152.117 200.071C152.821 200.699 153.334 201.291 153.968 201.688C154.652 202.115 155.449 202.359 156.196 202.683C156.096 203.018 155.997 203.353 155.897 203.689ZM151.082 204.932C152.337 205.324 153.136 205.574 154.147 205.89C152.694 207.239 151.916 206.91 151.082 204.932ZM161.513 194.4C161.553 194.167 161.592 193.934 161.632 193.702C161.782 193.716 161.931 193.729 162.082 193.742L164.006 187.951C164.879 185.324 161.077 183.712 159.89 186.206C159.878 186.23 159.866 186.254 159.866 186.278C159.623 186.809 159.366 187.33 159.101 187.846C159.647 187.807 160.243 187.765 160.933 187.716C160.012 188.685 159.237 189.112 158.494 188.987C152.487 199.806 141.628 207.185 129.257 208.727C130.203 208.882 131.149 209.037 132.094 209.193C132.049 209.448 132.002 209.704 131.956 209.959C130.375 209.657 128.793 209.356 127.211 209.055C127.219 209.013 127.226 208.972 127.234 208.931C126.299 208.998 125.357 209.032 124.409 209.032L117.145 209.03L115.34 213.244L153.561 213.253C153.574 213.018 153.628 212.701 153.704 212.268C153.953 212.587 154.204 212.911 154.472 213.254H155.597L161.856 194.421C161.742 194.414 161.628 194.407 161.513 194.4Z" fill="#B91C1C"/>
<path d="M130.136 137.654C130.18 137.367 130.223 137.079 130.266 136.792C131.371 136.912 132.475 137.031 133.579 137.151C132.349 138.332 131.223 138.313 130.136 137.654ZM129.085 130.007C128.828 129.856 128.571 129.705 128.314 129.554C128.734 129.014 129.153 128.474 129.574 127.934C129.709 128.015 129.844 128.096 129.979 128.177C129.681 128.787 129.383 129.397 129.085 130.007ZM124.997 154.336C124.934 154.084 124.871 153.831 124.809 153.578L127.685 152.9C127.019 154.104 126.117 154.538 124.997 154.336ZM120.474 161.65C120.494 161.397 120.513 161.144 120.533 160.892C121.49 160.942 122.449 160.992 123.968 161.072C122.447 162.401 121.462 162.088 120.474 161.65ZM117.994 170.284C117.923 170.036 117.853 169.789 117.782 169.54C118.715 169.037 119.649 168.534 120.875 167.871C120.986 168.824 121.058 169.441 121.177 170.456C120.018 170.393 119.006 170.339 117.994 170.284ZM114.073 173.938C116.388 172.102 117.474 173.347 119.105 174.857C117.264 174.52 115.996 174.289 114.073 173.938ZM111.532 163.046C112.327 162.412 111.739 160.385 114.274 161.186C113.509 162.071 112.875 162.806 112.241 163.541C112.004 163.376 111.768 163.211 111.532 163.046ZM108.429 178.539C106.711 179.745 107.25 177.623 106.488 176.865C106.048 177.096 105.533 177.365 105.015 177.636C105.012 177.648 105.009 177.657 105.006 177.67C105.006 177.67 104.975 177.665 104.968 177.663L104.965 177.663C104.416 177.852 103.857 178.372 103.252 178.371C102.781 178.369 102.282 178.052 101.738 177.017C101.949 177.059 102.149 177.099 102.343 177.138C103.381 177.344 104.178 177.503 104.969 177.66C104.981 177.655 104.991 177.649 105.003 177.643C105.416 175.801 106.841 176.273 108.165 176.16C108.253 176.153 108.341 176.142 108.429 176.129V178.539ZM105.343 181.298C106.595 180.261 107.478 180.321 108.178 182.159C106.934 181.781 106.139 181.54 105.343 181.298ZM117.225 162.346C117.302 162.576 117.378 162.807 117.456 163.038C116.58 163.319 115.705 163.6 114.829 163.881L114.608 163.232C115.48 162.937 116.352 162.641 117.225 162.346ZM126.321 128.794C126.433 129.048 126.544 129.301 126.657 129.554C126.146 129.781 125.634 130.008 125.122 130.236C125.024 130.054 124.926 129.873 124.827 129.692C125.325 129.393 125.823 129.094 126.321 128.794ZM136.974 118.655C135.829 119.849 134.394 119.131 132.54 119.841C134.42 117.215 134.42 117.215 136.974 118.655ZM138.696 109.25C139.236 109.393 139.775 109.537 140.314 109.681C140.242 109.873 140.17 110.066 140.098 110.259C139.6 110.01 139.103 109.762 138.606 109.513C138.636 109.426 138.666 109.338 138.696 109.25ZM118.958 109.375L116.985 108.121C117.112 107.924 117.241 107.726 117.369 107.528C117.986 108.002 118.603 108.476 119.22 108.949L118.958 109.375ZM93.9789 113.489C93.9497 113.246 93.92 113.003 93.8894 112.76L98.7559 111.988C98.7847 112.352 98.8144 112.717 98.8432 113.081C97.2224 113.216 95.6002 113.353 93.9789 113.489ZM91.131 110.189C92.0373 108.537 92.566 106.556 95.1412 107.732C93.4538 107.97 93.9087 111.059 91.131 110.189ZM141.756 116.568C143.336 115.212 144.999 115.72 146.799 116.006C147.398 116.102 148.014 116.172 148.646 116.141C147.759 117.341 147.099 118.043 145.719 117.578C145.397 117.47 145.071 117.373 144.742 117.284C143.756 117.016 142.748 116.815 141.756 116.568L141.756 116.568H141.756ZM138.082 137.382C138.051 137.151 138.018 136.921 137.986 136.691C139.136 136.478 140.289 136.265 141.764 135.991C142.594 134.105 143.421 132.182 144.24 130.205C144.001 130.171 143.762 130.149 143.522 130.148C143.52 130.151 143.517 130.152 143.514 130.154C143.511 130.149 143.507 130.145 143.504 130.139C142.949 129.767 142.457 129.525 142.05 129.915C141.915 130.045 141.788 130.248 141.672 130.54C141.451 131.098 140.929 131.537 140.537 132.039C140.106 130.661 139.804 129.691 139.448 128.551C141.081 128.495 142.517 128.684 143.503 130.139C143.508 130.142 143.513 130.145 143.517 130.148C143.519 130.148 143.521 130.148 143.522 130.148C143.844 129.897 144.163 129.73 144.482 129.618C145.048 128.245 145.611 126.845 146.171 125.428C145.312 125.537 144.138 124.904 143.582 125.291C142.154 126.285 140.854 126.135 139.369 125.702C138.659 125.495 137.972 125.703 138.16 126.737L138.164 126.747C138.164 126.747 138.163 126.747 138.162 126.747C138.163 126.747 138.163 126.747 138.163 126.747C138.163 126.747 138.163 126.748 138.163 126.748V126.748C138.159 126.748 138.156 126.747 138.152 126.746C137.486 126.796 136.82 126.846 136.113 126.9C135.403 126.954 134.652 127.011 133.82 127.074C134.02 126.805 134.218 126.596 134.413 126.434C134.607 126.273 134.798 126.16 134.987 126.085C135.175 126.011 135.36 125.975 135.544 125.967C136.458 125.93 137.313 126.599 138.154 126.746C138.156 126.746 138.158 126.745 138.161 126.745C138.16 126.743 138.161 126.742 138.16 126.741C137.899 126.027 137.637 125.315 137.382 124.621C136.021 124.763 134.851 124.884 133.998 124.972V121.593C134.98 122.045 136.073 122.31 136.86 122.952C139.635 125.213 142.891 125.163 145.854 122.58C144.299 120.341 141.693 123.016 139.828 120.896C139.814 120.615 139.779 119.871 139.746 119.169C140.076 119.048 140.361 118.858 140.448 118.926C142.15 120.241 144.364 120.121 146.26 121.04C146.709 121.257 147.195 121.392 147.702 121.484C149.008 118.055 150.3 114.511 151.576 110.825C152.044 109.438 152.522 108.042 152.999 106.628L139.908 106.626C139.714 107.007 139.283 106.969 138.32 106.625L106.115 106.617C106.284 106.872 106.459 107.208 106.676 107.637C106.738 107.645 106.801 107.652 106.861 107.663C106.861 107.663 106.745 107.769 106.744 107.769C106.72 107.722 106.699 107.682 106.676 107.637C105.37 107.465 103.815 107.888 102.872 106.617L86.7307 106.613V106.622L83.8679 106.621C82.913 106.621 82.0662 107.224 81.7692 108.134C81.7692 108.134 80.4746 112.014 78.9253 116.661C79.4828 116.493 80.0444 116.251 80.615 115.919C81.8308 115.21 83.5803 115.423 85.0882 115.219C85.135 115.461 85.1823 115.703 85.2282 115.944C84.542 116.241 83.8791 116.634 83.1641 116.819C81.609 117.222 80.0494 117.611 78.4785 118C77.5088 120.909 76.481 123.993 75.631 126.545C75.9392 126.575 76.2367 126.703 76.4986 126.936C77.0408 127.416 78.2526 128.434 76.481 129.491C76.0189 129.162 75.5261 128.811 75.001 128.437C74.2446 130.709 73.7393 132.229 73.7393 132.238V132.256C72.9108 134.732 76.3951 136.408 77.7014 134.148C77.8004 133.968 77.8998 133.77 77.9898 133.581C80.9911 127.014 85.707 121.534 91.4852 117.596C91.0914 117.446 90.6945 117.24 90.2896 116.953C91.1576 116.885 91.977 116.818 92.7775 116.754C97.9514 113.52 103.897 111.488 110.19 110.964C110.643 110.315 111.082 109.683 111.518 109.056C111.511 109.05 111.504 109.043 111.497 109.036L111.612 108.921C111.582 108.966 111.55 109.011 111.518 109.056C112.128 109.626 112.739 110.198 113.409 110.825C113.422 110.825 113.436 110.824 113.448 110.824L131.342 110.82C126.921 123.824 122.57 135.112 118.286 144.919L119.894 145.39C119.824 145.65 119.756 145.909 119.687 146.168C119.02 146.28 118.4 146.196 117.801 146.02C109.431 164.98 101.31 178.285 93.3962 187.61C93.3953 187.618 93.3953 187.627 93.3944 187.635C93.389 187.634 93.3832 187.633 93.3778 187.632C92.3707 188.817 91.3664 189.944 90.366 191.004L90.9002 191.071C90.8547 191.353 90.8088 191.636 90.7629 191.919C90.4016 191.852 90.0407 191.786 89.6789 191.719C88.7952 192.633 87.9146 193.5 87.0362 194.321C87.8862 194.101 88.4761 193.991 89.004 194.033C89.0773 194.038 89.148 194.05 89.22 194.061C89.238 194.064 89.2564 194.065 89.2739 194.069C89.8976 194.184 90.4898 194.532 91.4204 195.184C91.5536 195.277 91.6926 195.377 91.8415 195.482C91.576 195.433 91.3173 195.384 91.0667 195.338C90.6675 195.263 90.2891 195.192 89.9201 195.123C89.2087 194.99 88.5436 194.865 87.9033 194.745C87.7899 194.724 87.6774 194.703 87.5658 194.682C87.3093 194.634 87.0565 194.587 86.804 194.54C74.9637 205.512 63.5778 208.394 52.5056 209.028L51.6619 211.558C52.2437 211.343 52.7783 211.146 53.3349 210.941C53.0199 212.258 52.8633 212.899 52.2905 213.084C63.7065 212.543 76.2448 210.185 89.0296 202.992C86.3702 202.553 84.0519 202.17 81.7386 201.787C84.3147 200.558 86.6929 200.937 89.1952 202.898C92.5282 201.012 95.8783 198.795 99.2289 196.196C98.9535 196.011 98.6714 195.759 98.3789 195.419C99.0192 195.455 99.5803 195.486 100.102 195.515C105.506 191.215 110.909 185.907 116.245 179.364C115.606 179.325 114.968 179.286 114.329 179.247C114.347 179.048 114.364 178.849 114.381 178.65C115.023 178.739 115.665 178.828 116.308 178.917C116.296 179.054 116.285 179.191 116.274 179.328C124.889 168.755 133.33 154.962 141.321 137.005C140.819 137.624 140.223 137.574 138.082 137.382Z" fill="#B91C1C"/>
<path d="M51.1584 213.067L51.1354 213.134C51.256 213.129 51.3771 213.123 51.4977 213.118C51.3919 213.105 51.2803 213.089 51.1584 213.067Z" fill="#B91C1C"/>
<path d="M7.61465 116.864C7.49091 117.288 7.37436 117.704 7.25287 118.125C7.6295 117.904 8.02818 117.67 8.49706 117.395C8.18567 117.153 7.89364 116.982 7.61465 116.864Z" fill="#B91C1C"/>
<path d="M7.94899 186.809C7.81804 188.324 7.73614 189.275 7.65425 190.225C6.25976 188.731 4.2254 187.736 4.78787 184.972C8.17488 185.304 11.5425 185.635 15.1581 185.99C12.8713 188.412 10.3802 187.489 7.94899 186.809ZM4.63128 172.057H6.91403C6.92618 172.222 6.93833 172.385 6.95093 172.549C6.19496 172.629 5.43899 172.71 4.68347 172.789C4.66592 172.546 4.64883 172.302 4.63128 172.057ZM4.1948 167.638C5.01512 167.758 5.88493 167.545 7.17412 167.443C6.15941 169.296 6.15941 169.296 1.8648 168.002C2.58702 166.898 3.38079 167.518 4.1948 167.638ZM8.55105 145.138C9.15853 144.779 9.33987 145.088 9.92485 147.34C8.63745 145.029 5.241 147.905 4.19255 144.623C5.73058 144.821 7.00987 146.048 8.55105 145.138ZM4.63667 141.24C5.1087 141.34 5.57354 141.476 6.03972 141.607C5.98212 141.805 5.92542 142.004 5.86873 142.202C5.40435 142.069 4.93817 141.942 4.48413 141.781C4.47109 141.776 4.62317 141.237 4.63667 141.24ZM6.40195 137.977C6.40375 138.146 6.40465 138.315 6.40645 138.483H4.88641C4.88596 138.315 4.88506 138.146 4.88416 137.977H6.40195ZM10.5526 163.586C9.7264 163.521 8.90115 163.454 8.07453 163.388C8.05563 163.156 8.03673 162.923 8.01783 162.691C8.30087 162.56 8.6298 162.263 8.85614 162.328C9.47352 162.504 10.0472 162.833 10.5526 163.586ZM11.5326 152.101C9.8767 151.88 8.56635 151.705 7.25646 151.53C7.23216 151.354 7.20832 151.178 7.18402 151.002C8.05248 150.591 8.92139 150.179 9.8245 149.751C10.2758 150.372 10.7501 151.024 11.5326 152.101ZM15.3102 166.236C14.2744 167.313 13.4968 167.558 10.7857 167.625C12.1469 167.207 13.5081 166.79 15.3102 166.236ZM16.9801 139.73C17.7073 139.854 18.4335 139.978 19.1607 140.102C19.1207 140.321 19.082 140.541 19.0419 140.761C18.3179 140.629 17.5939 140.497 16.8685 140.365C16.9054 140.153 16.9427 139.942 16.9801 139.73ZM25.1369 103.61C24.0551 103.119 22.9729 102.628 21.6887 102.046C21.6059 103.111 21.5415 103.938 21.4201 105.482C20.2641 104.03 19.5481 103.132 18.7089 102.08C21.4115 100.881 23.5737 100.884 25.1369 103.61ZM24.7684 95.6974C24.7342 95.872 24.6995 96.0471 24.6649 96.2225C24.0889 96.1123 23.5129 96.0021 22.9374 95.8927L22.927 95.6974H24.7684ZM30.8283 94.3965C29.4468 93.9272 28.0663 93.4588 26.6713 92.9849C27.7288 91.9135 27.7288 91.9135 30.8283 94.3965ZM32.8388 85.2156C32.8748 85.4743 32.9094 85.7335 32.9445 85.9931H31.4164C31.3939 85.8523 31.3705 85.7124 31.3466 85.572C31.8443 85.4532 32.342 85.3343 32.8388 85.2156ZM34.3363 60.0733C33.979 61.8458 33.7455 63.0045 33.5128 64.1632C33.2019 64.1115 32.8914 64.0597 32.5814 64.008C32.3942 62.6643 31.7588 61.1704 34.3363 60.0733ZM45.7055 54.2983C42.8846 55.5722 41.3691 55.2603 37.2796 52.5231C39.9354 53.0829 42.5921 53.6427 45.7055 54.2983ZM48.4238 55.0858H50.3372L50.3678 55.6365C49.704 55.6982 49.0403 55.7598 48.3766 55.821C48.3923 55.5758 48.4081 55.3306 48.4238 55.0858ZM55.017 50.4258C53.1176 52.6271 52.2208 49.8147 50.9469 49.4732C52.3031 49.7904 53.6598 50.1081 55.017 50.4258ZM44.7021 59.339C44.4312 58.6532 44.1612 57.9674 43.8898 57.2817C44.2408 57.1908 44.5927 57.0994 44.9437 57.0081C45.0886 57.7096 45.233 58.4111 45.3775 59.1131C45.1525 59.1887 44.9275 59.2634 44.7021 59.339ZM41.0613 64.9939H38.3798C38.3758 64.7513 38.3726 64.5084 38.3686 64.2663L41.0725 64.4143C41.0685 64.6078 41.0649 64.8004 41.0613 64.9939ZM58.8031 35.3163C59.0821 35.485 59.5708 35.6223 59.7908 35.944C60.5711 37.0856 60.5364 37.1099 58.6443 39.5709C57.8019 38.5913 57.1557 37.8394 56.51 37.0892C57.2147 36.5443 57.9315 35.9904 58.8031 35.3163ZM70.6929 22.2673C71.295 22.3528 71.8966 22.4383 72.4987 22.5234C72.4551 22.7258 72.4119 22.927 72.3678 23.1286C71.7828 22.9796 71.1978 22.8307 70.6128 22.6818C70.6394 22.5441 70.6659 22.4059 70.6929 22.2673ZM84.1298 8.94159C84.1901 9.23227 84.2495 9.52296 84.3098 9.81364C83.4445 9.95944 82.5796 10.1061 81.7152 10.2519C81.6617 9.99455 81.609 9.73535 81.5568 9.47706C82.4145 9.29887 83.2726 9.12023 84.1298 8.94159ZM90.2586 7.06966C90.2914 7.31625 90.3252 7.56375 90.358 7.81079C89.6164 7.88054 88.8753 7.95119 88.1333 8.02049C88.0978 7.74015 88.0622 7.46024 88.0262 7.18036C88.7705 7.14346 89.5143 7.10611 90.2586 7.06966ZM147.106 11.8822C145.95 13.0526 145.298 13.1921 144.193 11.8822H147.106ZM152.947 68.1703C151.622 68.5694 150.636 68.8673 149.649 69.1643C150.516 68.3521 150.735 65.5082 152.947 68.1703ZM152.777 36.9331C152.739 37.7723 152.718 38.265 152.689 38.9036C151.779 38.7024 151.054 38.5427 150.33 38.3825C150.313 38.2164 150.294 38.0495 150.275 37.883C150.995 37.6094 151.715 37.3358 152.777 36.9331ZM155.154 31.9104C155.174 34.2701 155.093 34.2975 152.461 32.8338C153.407 32.5098 154.264 32.2155 155.154 31.9104ZM160.25 40.7665C157.819 40.4366 155.929 40.181 154.013 39.921C155.364 38.4657 156.536 38.5836 160.25 40.7665ZM159.993 32.1502C160.19 32.2339 160.387 32.3176 160.584 32.4009C160.298 33.0943 160.012 33.7882 159.725 34.4816C159.525 34.3965 159.325 34.3119 159.125 34.2269C159.414 33.5348 159.703 32.8423 159.993 32.1502ZM153.162 46.875C153.218 46.6455 153.581 46.4907 153.879 46.2499C154.13 46.5177 154.331 46.731 154.532 46.9443C154.23 47.1485 153.948 47.4095 153.617 47.5171C153.53 47.5454 153.119 47.0536 153.162 46.875ZM156.489 62.7629C155.038 63.2336 153.773 63.6435 152.285 64.1263C152.586 63.14 152.8 62.4407 153.04 61.6537C154.201 61.6145 155.437 61.1533 156.489 62.7629ZM147.225 74.3503C147.174 74.0997 147.123 73.8486 147.072 73.598C148.294 73.3941 149.515 73.1903 150.737 72.9869L150.857 73.6196C149.646 73.8635 148.436 74.1069 147.225 74.3503ZM146.36 61.3981C146.301 61.2545 146.242 61.1101 146.183 60.9661C146.767 60.7006 147.35 60.4347 147.934 60.1687C147.994 60.369 148.054 60.5683 148.114 60.7681C147.529 60.9783 146.945 61.1884 146.36 61.3981ZM147.544 41.8392C147.532 41.6525 147.519 41.4653 147.507 41.2781C148.033 41.1683 148.558 41.0585 149.083 40.9483C149.121 41.2457 149.16 41.5422 149.199 41.8392H147.544ZM26.3631 203.55C25.5239 204.162 24.9893 204.551 24.4574 204.939C23.6227 204.48 22.8609 204.061 22.0991 203.642C22.1603 203.389 22.2219 203.137 22.2827 202.884H25.5563C23.5314 201.129 21.8066 198.968 20.4135 196.349C19.3029 196.262 18.2261 196.178 17.1299 196.092V194.495C17.8544 195.413 18.8651 195.391 19.8937 195.317C17.7095 190.747 16.4568 184.887 16.2642 177.512H12.5523C13.5562 176.625 14.8706 176.195 16.239 176.217C16.2034 172.243 16.4689 167.839 17.044 162.986C16.8104 163.04 16.5693 163.095 16.3074 163.155C16.702 162.04 16.9769 161.333 17.2951 160.991C18.5735 151.373 21.0353 140.039 24.8273 126.739C24.6127 126.706 24.398 126.675 24.1829 126.642L24.3926 125.705C24.6167 125.776 24.8404 125.848 25.0644 125.919C25.8695 123.12 26.7285 120.24 27.6509 117.267H25.5779C26.4094 116.413 27.1528 116.124 27.8894 116.503C28.8884 113.302 29.9517 110.005 31.0892 106.599C31.9042 104.158 32.7213 101.772 33.5416 99.4367C33.1511 99.3787 32.7605 99.3202 32.3699 99.2622C32.3879 99.1006 32.4063 98.9391 32.4248 98.7771C32.864 98.8068 33.3036 98.8369 33.7432 98.8666C34.5262 96.6469 35.3119 94.4717 36.0993 92.3464C35.6003 92.561 35.0972 92.6983 34.5739 92.4616C35.0653 91.0784 35.5459 89.8441 37.0411 89.8391C38.9405 84.8155 40.8538 80.0597 42.7788 75.5621C41.2638 76.9008 38.9662 76.3046 37.6221 77.682C37.8646 75.6661 37.8727 75.6265 43.0641 74.9015C66.2368 21.119 91.2314 4.40983 116.63 4.05299C117.399 3.54271 118.064 3.10128 118.683 2.6909C119.042 3.17148 119.379 3.62148 119.722 4.08136C129.354 4.38914 136.373 6.74074 140.851 12.2035C141.55 11.5893 142.352 11.8215 143.47 12.0073C142.614 12.3034 141.995 12.5176 141.29 12.7619C142.484 14.3346 143.482 16.1494 144.287 18.2287C144.329 17.7518 144.377 17.2136 144.426 16.6534H148.611C148.631 16.7708 148.652 16.8873 148.671 17.0039C148.019 17.1546 147.366 17.3049 146.504 17.5034V20.592C146.002 20.4782 145.491 20.3626 144.982 20.2469C145.518 22.0041 145.936 23.9269 146.235 26.0283H149.16C149.194 26.1826 149.228 26.3351 149.261 26.4886C148.344 26.8486 147.42 27.2108 146.432 27.5991C146.841 31.298 146.914 35.5125 146.656 40.2927C146.695 40.366 146.733 40.4366 146.776 40.5163H146.643C146.595 41.3708 146.54 42.2384 146.471 43.1293C146.637 43.2058 146.806 43.2972 146.979 43.425C146.782 43.515 146.598 43.5982 146.424 43.677C146.23 46.0565 145.963 48.5619 145.622 51.2042C146.233 51.1205 146.843 51.0368 147.452 50.9527C147.485 51.1898 147.519 51.427 147.551 51.6636C146.872 51.7797 146.194 51.8959 145.514 52.0119C145.171 54.5854 144.761 57.2817 144.282 60.1111C144.518 60.1588 144.755 60.2065 144.991 60.2542C144.977 60.4414 144.962 60.6286 144.947 60.8158C144.685 60.8158 144.422 60.8185 144.16 60.8167C143.158 66.6404 141.875 73.0031 140.309 79.9612C142.529 79.9621 144.681 79.6534 146.728 79.0832C146.692 78.8915 146.656 78.7003 146.621 78.5091C147.508 78.411 148.394 78.312 149.282 78.2134C157.344 74.9421 163.263 67.3846 164.069 58.2293C164.327 55.2991 164.468 52.5015 164.503 49.8241C164.344 49.8057 164.183 49.7881 164.023 49.7697C164.04 49.5744 164.056 49.3778 164.073 49.1825C164.218 49.1906 164.364 49.1991 164.51 49.2072C164.542 44.5774 164.246 40.3237 163.644 36.4264C162.818 36.5555 161.99 36.4926 161.096 35.985C162.134 36.0831 162.787 35.7006 163.427 35.1039C161.375 23.4184 156.495 15.0496 149.506 9.42127C146.673 9.73716 143.888 8.65315 141.053 9.03519C142.684 7.94848 145.982 7.90393 148.745 8.82549C142.535 4.10114 134.752 1.43367 125.864 0.446861C125.841 1.06423 124.99 1.22532 122.808 1.6276C122.521 0.974227 122.482 0.512544 122.59 0.162459C120.921 0.055364 119.218 0.000922459 117.482 2.24978e-05C86.0517 -0.00762717 47.6733 20.8881 20.7563 81.0047C20.8859 81.0892 21.0169 81.1743 21.1456 81.2575C24.367 79.6583 27.5515 78.0582 30.7671 76.5242C31.0056 76.4108 31.4726 76.7789 32.4054 77.151C30.5943 78.055 29.2772 78.712 27.961 79.369C27.974 79.5904 27.9875 79.8113 28.0006 80.0327C29.2803 80.2509 30.5605 80.4701 31.8398 80.6888C31.8551 80.8665 31.8704 81.0442 31.8853 81.222C30.3891 81.3565 28.8704 81.7183 27.4008 81.5748C24.9295 81.334 22.6152 81.2499 21.0097 83.466C20.6515 83.2482 20.3023 83.0363 19.9491 82.8221C16.7322 90.1644 13.6822 98.0742 10.837 106.594C9.75926 109.821 8.7774 112.953 7.87114 116.008C10.4576 115.629 11.6181 116.161 13.0716 117.656C11.322 119.471 9.14998 118.208 7.17097 118.412C-6.92198 167.637 1.22897 194.248 18.8498 205.89C18.9182 205.858 18.9861 205.826 19.0545 205.794C19.1072 205.907 19.1607 206.02 19.2129 206.132C25.6652 210.289 33.3553 212.476 41.671 213.06L42.9962 209.079C36.3414 208.668 30.7162 206.965 26.3631 203.55Z" fill="#B91C1C"/>
</svg>
