<svg width="306" height="100" viewBox="0 0 306 100" fill="none" xmlns="http://www.w3.org/2000/svg">
<path d="M165.746 39.6372C165.746 40.9422 163.904 41.5049 162.993 41.5049C161.84 41.5049 160.913 40.6243 160.913 39.5018C160.913 38.227 162.679 37.5277 163.71 37.5277C164.851 37.5277 165.746 38.4535 165.746 39.6372Z" fill="#0C0A09"/>
<path d="M135.635 22.0785C135.635 23.3835 133.809 23.9462 132.898 23.9462C131.729 23.9462 130.818 23.0659 130.818 21.9431C130.818 20.6836 132.584 19.969 133.615 19.969C134.756 19.969 135.635 20.8943 135.635 22.0785Z" fill="#0C0A09"/>
<path d="M232.803 78.9343C232.864 78.9343 232.924 78.8731 233.049 78.8722C233.658 78.7457 234.02 78.1274 233.956 77.5108C233.706 76.0929 233.396 74.3671 233.085 72.5167C232.211 66.9072 231.026 59.8798 229.784 54.2704C229.047 51.0404 228.374 48.7366 227.741 47.1088C226.621 44.2335 224.912 46.2551 225.468 47.6484C226.02 49.0425 226.762 51.4451 227.66 55.5746C228.156 57.9175 228.652 60.5054 229.152 63.1562C225.891 55.1494 222.836 51.2758 219.854 51.2879C217.782 51.2959 215.96 52.4128 214.082 53.6545C209.709 56.4484 204.732 59.6143 193.43 49.2965C193.003 48.866 192.213 48.9309 191.786 49.4262C191.363 49.9212 191.427 50.6612 191.915 51.0908C204.437 62.5766 210.753 58.5422 215.368 55.6234C217.004 54.5686 218.463 53.6997 219.862 53.694C220.591 53.6904 223.275 54.5432 227.576 65.5075C229.974 71.6659 231.643 77.9517 231.643 78.013C231.767 78.568 232.259 78.9363 232.803 78.9343Z" fill="#0C0A09"/>
<path d="M218.302 16.9239C218.306 17.5398 218.911 18.0323 219.511 17.9674C229.869 17.123 262.402 17.7107 275.537 19.2616C280.023 41.0204 287.334 77.2645 289.088 93.6053C288.785 93.3594 288.366 93.3002 288.003 93.486C287.403 93.7359 287.105 94.4158 287.346 95.0313C287.407 95.0925 287.834 96.1396 288.318 97.1863C289.108 98.9105 289.595 99.8963 290.498 99.8927C290.619 99.8923 290.68 99.8915 290.8 99.8915C291.042 99.8282 291.824 99.5167 291.816 98.345C291.345 85.4534 283.046 43.969 277.948 19.4989C301.211 22.3662 303.404 23.2662 303.766 23.327C303.827 23.3266 303.887 23.3266 304.008 23.3262C304.548 23.3234 305.028 22.9514 305.149 22.3956C305.266 21.7781 304.842 21.1635 304.238 20.9801C303.875 20.9209 301.138 19.8996 277.456 17.0948C275.614 8.15784 274.264 1.99336 274.082 1.13046C273.958 0.51421 273.293 0.0845782 272.692 0.210729C272.091 0.397739 271.672 1.0172 271.793 1.63345C271.854 1.87971 273.143 7.85838 275.046 16.7962C261.971 15.3065 229.676 14.7806 219.322 15.6245C218.721 15.6882 218.237 16.2452 218.302 16.9239Z" fill="#0C0A09"/>
<path d="M232.513 89.9127C232.461 89.3388 232.013 88.8789 231.441 88.8149C218.685 87.3966 205.832 86.6469 195.736 87.4695C195.135 87.5336 194.656 88.0906 194.72 88.7689C194.72 89.3855 195.325 89.8773 195.925 89.8124C205.896 89.0002 218.524 89.7785 231.171 91.2206C231.933 91.3076 232.586 90.6765 232.513 89.9127Z" fill="#0C0A09"/>
<path d="M275.215 37.7547C275.163 37.1808 274.715 36.7209 274.143 36.6568C261.387 35.2385 248.538 34.4889 238.442 35.3115C237.837 35.3751 237.358 35.9325 237.422 36.6109C237.422 37.2275 238.027 37.7192 238.631 37.6543C248.598 36.8422 261.23 37.6205 273.877 39.0629C274.639 39.1496 275.288 38.5184 275.215 37.7547Z" fill="#0C0A09"/>
<path d="M268.375 50.6583C268.045 51.1456 268.122 51.7884 268.553 52.1907C269.814 53.3684 271.261 55.3606 272.547 57.693C272.547 57.693 273.796 59.7368 273.905 60.222V60.2377C275.65 63.8119 276.956 67.6766 277.089 70.6962C277.17 71.8646 277.041 73.4739 276.178 74.2812C271.644 78.2455 260.359 68.9881 251.258 59.5236C250.819 59.0254 250.928 59.8286 250.444 60.2555C249.945 60.6972 250.082 60.7427 250.525 61.1655C250.585 61.2417 250.912 63.3347 257.84 68.9216C264.966 74.5694 270.334 77.3858 274.095 77.3709C275.582 77.3653 276.751 76.9199 277.734 76.0663C279.036 74.9374 279.632 73.0842 279.503 70.5652C279.141 63.9844 274.179 54.2566 270.153 50.4391C269.633 49.9433 268.783 50.0622 268.375 50.6583Z" fill="#0C0A09"/>
<path d="M252.177 94.1123C252.766 94.1099 253.354 93.7983 253.725 93.2417C254.527 92.1286 255.478 89.2863 254.201 77.5704C253.423 70.4797 251.992 61.0466 249.969 50.2597C246.305 30.8421 241.456 10.0711 239.187 4.03434C238.756 2.92679 238.006 3.05213 237.793 3.05293C236.83 3.30403 236.725 4.4144 236.789 6.88261C236.793 7.49926 237.277 8.05263 237.809 7.98774C237.97 7.98774 238.131 7.98694 238.24 7.92528C240.787 16.2432 244.983 34.733 248.103 51.6856C250.126 62.535 251.553 71.9681 252.278 78.8746C253.338 89.6656 252.326 91.4587 252.169 91.7066C251.581 91.5232 248.788 89.1287 237.676 67.2107C231.687 55.3295 227.423 46.4022 227.366 46.2784C227.096 45.7243 226.508 45.4796 225.976 45.7904C225.496 46.1003 225.283 46.8423 225.553 47.3965C225.605 47.519 229.926 56.5704 235.967 68.5141C248.429 93.1406 250.73 93.7475 251.698 93.9906C251.855 94.0514 252.016 94.1131 252.177 94.1123Z" fill="#0C0A09"/>
<path d="M273.905 60.2217V60.2377L273.893 60.2217" fill="#0C0A09"/>
<path d="M129.19 99.4994C127.937 99.4994 127.175 97.8231 125.99 94.5674C125.74 93.8782 126.091 93.1161 126.78 92.8642C127.179 92.7163 127.606 92.7767 127.941 92.9875C126.143 78.0956 116.841 31.6905 110.469 1.60045C110.32 0.881432 110.775 0.177329 111.493 0.0249804C112.218 -0.112859 112.915 0.333292 113.069 1.04909C113.121 1.2893 118.207 25.3402 122.887 49.1804C132.584 98.5893 131.354 98.942 129.65 99.4297C129.488 99.4772 129.335 99.4994 129.19 99.4994Z" fill="#0C0A09"/>
<path d="M110.195 94.0898C108.381 94.0898 106.43 90.9284 98.8049 76.658C94.3836 68.376 86.9798 54.5163 84.6946 53.8638C82.8567 53.5244 81.4944 54.4151 79.6082 55.6468C77.4076 57.0828 74.667 58.8699 70.3383 58.8699C66.2717 58.8699 61.5561 56.3848 55.9256 51.2718C55.3815 50.7797 55.3412 49.9394 55.837 49.3969C56.3247 48.8528 57.171 48.8129 57.7111 49.3066C62.7612 53.8904 67.0092 56.2143 70.3383 56.2143C73.877 56.2143 76.0534 54.7944 78.1573 53.4224C80.1926 52.0956 82.3005 50.7217 85.1862 51.2553C88.3541 51.8393 93.3317 60.7686 101.151 75.4074C104.391 81.4792 108.345 88.8757 110.098 90.9864C112.859 83.4915 101.022 23.2828 96.3383 8.22203C96.1932 8.28893 96.0361 8.33205 95.8708 8.34495C95.1615 8.37195 94.5005 7.84881 94.4481 7.11649C94.2869 4.92315 94.1498 3.02887 95.7015 2.76367C97.0437 2.53394 97.6684 3.10182 99.7682 10.8067C102.465 20.7203 106.809 40.3531 109.889 58.6954C115.515 92.2004 112.343 93.4007 110.824 93.9774C110.61 94.0483 110.404 94.0898 110.195 94.0898Z" fill="#0C0A09"/>
<path d="M43.4839 22.0785C43.4839 23.3835 41.6581 23.9462 40.7472 23.9462C39.5784 23.9462 38.6675 23.0659 38.6675 21.9431C38.6675 20.6836 40.4167 19.969 41.4646 19.969C42.5891 19.969 43.4839 20.8943 43.4839 22.0785Z" fill="#0C0A09"/>
<path d="M27.4873 39.6372C27.4873 40.9422 25.6615 41.5049 24.7506 41.5049C23.5818 41.5049 22.671 40.6243 22.671 39.5018C22.671 38.227 24.4363 37.5277 25.4681 37.5277C26.6087 37.5277 27.4873 38.4535 27.4873 39.6372Z" fill="#0C0A09"/>
<path d="M52.1452 92.3796C50.7627 92.3796 49.8317 90.41 49.1264 88.9292C48.812 88.267 49.0982 87.4738 49.7592 87.1599C50.2589 86.9257 50.8232 87.0249 51.2101 87.367C50.3758 78.3253 44.8663 52.2781 42.2102 41.4367C42.0329 40.7254 42.4722 40.0063 43.1816 39.8314C43.8909 39.6553 44.6124 40.0926 44.7897 40.8052C45.9504 45.5344 48.675 57.7171 50.8474 68.8418C55.2485 91.3704 54.0596 91.7928 52.6852 92.2817C52.4958 92.3486 52.3185 92.3796 52.1452 92.3796Z" fill="#0C0A09"/>
<path d="M1.32841 85.6841C0.594481 85.6841 0 85.0896 0 84.3561C0 83.6225 0.594481 83.028 1.32841 83.028C4.11946 83.028 6.23704 82.2091 7.80164 80.522C12.1855 75.8008 11.4036 65.3032 10.8309 57.6374C10.3912 51.7466 10.2384 48.8576 11.5608 47.5953C12.0226 47.1536 12.6409 46.9641 13.2874 47.031C16.3581 47.401 21.5787 53.5329 29.1921 62.8431C32.4769 66.8622 36.4911 71.7692 38.1557 73.0214C38.3693 72.6248 38.6031 71.9231 38.7199 70.693C39.2358 65.2081 36.9748 55.7661 35.3062 51.2976C35.0724 51.62 34.6936 51.8353 34.2623 51.8457C33.561 51.8345 32.9202 51.2831 32.9041 50.5488C32.8598 48.6863 32.9404 46.8408 34.4155 46.5192C35.9994 46.1722 36.8579 48.1898 37.3254 49.2715C39.2197 53.6675 44.3101 72.2524 39.2842 75.6863L39.0706 75.8318L38.8167 75.8862C36.9788 76.3029 34.8346 73.9375 27.1366 64.5237C22.6105 58.9884 15.8781 50.7563 13.3168 49.7604C12.9964 50.9599 13.262 54.5239 13.4796 57.4403C14.0874 65.5918 14.9205 76.758 9.74992 82.3288C7.68233 84.5548 4.84936 85.6841 1.32841 85.6841Z" fill="#0C0A09"/>
<path d="M143.083 92.5269C141.821 92.5269 141.241 90.7781 140.523 88.6218C140.294 87.9266 140.669 87.1753 141.366 86.9436C141.507 86.898 141.628 86.9351 141.789 86.8758C140.781 78.1166 137.041 57.0328 134.704 45.9174C134.333 44.4044 133.986 42.8406 133.656 41.2325C133.511 40.5244 133.958 39.8291 134.663 39.6691C135.361 39.5135 136.074 39.9432 136.243 40.6485C136.505 41.7113 136.84 43.2215 137.223 45.0533C140.983 60.717 146.742 70.585 160.502 73.5062C157.419 71.9291 155.174 69.9966 153.788 68.1422C152.349 66.2213 151.776 64.3645 152.167 62.912C153.062 59.597 158.108 54.0346 181.871 54.0346C182.605 54.0346 183.201 54.6291 183.201 55.3626C183.201 56.0962 182.605 56.6907 181.871 56.6907C157.814 56.6907 155.045 62.4485 154.731 63.6028C154.602 64.0872 154.916 65.2165 155.912 66.5522C158.576 70.1139 165.004 74.0056 175.056 74.2458C175.765 74.2636 176.338 74.8351 176.354 75.5452C176.37 76.2538 175.822 76.8507 175.116 76.8986C156.456 78.1626 146.488 72.6196 140.447 61.7383C140.89 64.1735 141.326 66.6292 141.737 69.0107C145.674 91.8421 144.961 92.0485 143.534 92.4587C143.373 92.5043 143.224 92.5269 143.083 92.5269Z" fill="#0C0A09"/>
</svg>
