<svg width="171" height="221" viewBox="0 0 171 221" fill="none" xmlns="http://www.w3.org/2000/svg">
<path d="M161.337 206.448C161.282 206.115 161.227 205.781 161.172 205.448C162.022 205.309 162.872 205.17 163.722 205.032L163.888 206.035C163.037 206.173 162.188 206.311 161.337 206.448ZM161.5 211.009C159.841 210.712 158.181 210.414 156.283 210.073C156.728 209.113 157.144 208.212 157.583 207.261C158.313 207.912 158.844 208.525 159.502 208.936C160.21 209.379 161.035 209.632 161.809 209.968C161.706 210.314 161.603 210.662 161.5 211.009ZM156.512 212.296C157.812 212.703 158.64 212.962 159.687 213.289C158.182 214.686 157.376 214.346 156.512 212.296ZM167.318 201.386C167.359 201.145 167.4 200.904 167.441 200.664C167.596 200.678 167.751 200.691 167.907 200.705L169.901 194.705C170.804 191.984 166.865 190.314 165.636 192.898C165.624 192.923 165.611 192.948 165.611 192.973C165.36 193.522 165.093 194.062 164.819 194.597C165.384 194.557 166.002 194.513 166.717 194.462C165.763 195.466 164.96 195.908 164.19 195.779C157.967 206.987 146.718 214.631 133.902 216.228C134.882 216.389 135.862 216.549 136.841 216.711C136.794 216.976 136.746 217.24 136.699 217.505C135.06 217.192 133.422 216.88 131.783 216.568C131.791 216.524 131.799 216.482 131.807 216.44C130.838 216.509 129.862 216.545 128.88 216.545L121.355 216.543L119.485 220.908L159.08 220.917C159.093 220.673 159.15 220.345 159.227 219.897C159.486 220.228 159.746 220.562 160.023 220.918H161.189L167.673 201.409C167.554 201.401 167.436 201.394 167.318 201.386Z" fill="white"/>
<path d="M134.813 142.601C134.858 142.303 134.903 142.006 134.948 141.708C136.092 141.832 137.236 141.956 138.379 142.079C137.106 143.304 135.939 143.283 134.813 142.601ZM133.724 134.679C133.458 134.523 133.192 134.366 132.925 134.21C133.361 133.651 133.795 133.092 134.231 132.532C134.37 132.616 134.51 132.7 134.65 132.784C134.341 133.416 134.032 134.047 133.724 134.679ZM129.489 159.883C129.424 159.621 129.359 159.359 129.294 159.098L132.274 158.395C131.584 159.642 130.65 160.092 129.489 159.883ZM124.804 167.459C124.824 167.198 124.844 166.936 124.865 166.674C125.857 166.726 126.849 166.778 128.424 166.861C126.847 168.238 125.827 167.914 124.804 167.459ZM122.235 176.404C122.161 176.147 122.088 175.89 122.015 175.633C122.981 175.111 123.949 174.59 125.219 173.904C125.334 174.891 125.409 175.53 125.532 176.582C124.331 176.517 123.282 176.46 122.235 176.404ZM118.173 180.189C120.571 178.287 121.696 179.576 123.386 181.141C121.478 180.792 120.164 180.552 118.173 180.189ZM115.54 168.906C116.364 168.249 115.755 166.149 118.38 166.979C117.589 167.896 116.932 168.657 116.274 169.419C116.03 169.248 115.785 169.077 115.54 168.906ZM112.326 184.955C110.546 186.204 111.104 184.007 110.315 183.222C109.859 183.461 109.325 183.739 108.789 184.02C108.786 184.032 108.783 184.042 108.78 184.055C108.78 184.055 108.748 184.049 108.74 184.048L108.737 184.048C108.168 184.244 107.59 184.783 106.963 184.781C106.475 184.779 105.958 184.45 105.394 183.379C105.613 183.422 105.82 183.463 106.021 183.504C107.096 183.718 107.922 183.882 108.742 184.045C108.753 184.039 108.765 184.033 108.776 184.027C109.204 182.119 110.68 182.608 112.052 182.491C112.143 182.483 112.235 182.472 112.326 182.458V184.955ZM109.129 187.814C110.426 186.74 111.341 186.802 112.066 188.705C110.777 188.314 109.953 188.064 109.129 187.814ZM121.438 168.18C121.518 168.419 121.597 168.658 121.677 168.897C120.769 169.189 119.863 169.479 118.956 169.771L118.727 169.099C119.631 168.793 120.534 168.486 121.438 168.18ZM130.861 133.423C130.977 133.685 131.092 133.947 131.209 134.209C130.679 134.445 130.149 134.681 129.619 134.916C129.517 134.728 129.416 134.54 129.314 134.353C129.829 134.043 130.345 133.733 130.861 133.423ZM141.896 122.92C140.711 124.156 139.223 123.412 137.304 124.147C139.251 121.427 139.251 121.427 141.896 122.92ZM143.68 113.177C144.24 113.325 144.799 113.474 145.357 113.622C145.283 113.822 145.207 114.021 145.133 114.221C144.617 113.964 144.102 113.707 143.587 113.449C143.618 113.358 143.649 113.267 143.68 113.177ZM123.234 113.306L121.189 112.007C121.321 111.802 121.455 111.598 121.587 111.393C122.226 111.883 122.866 112.374 123.505 112.864L123.234 113.306ZM97.3565 117.567C97.3262 117.316 97.2954 117.064 97.2637 116.812L102.305 116.013C102.335 116.39 102.366 116.767 102.396 117.144C100.716 117.285 99.036 117.426 97.3565 117.567ZM94.4062 114.148C95.345 112.437 95.8927 110.385 98.5605 111.603C96.8125 111.85 97.2837 115.05 94.4062 114.148ZM146.85 120.757C148.487 119.352 150.21 119.878 152.074 120.175C152.695 120.274 153.333 120.347 153.988 120.315C153.07 121.558 152.385 122.285 150.956 121.804C150.622 121.692 150.284 121.592 149.944 121.499C148.923 121.221 147.878 121.013 146.85 120.757L146.851 120.757H146.85ZM143.045 142.319C143.012 142.08 142.978 141.842 142.945 141.603C144.136 141.383 145.331 141.162 146.859 140.878C147.719 138.925 148.575 136.932 149.424 134.884C149.177 134.849 148.928 134.827 148.68 134.826C148.678 134.828 148.675 134.829 148.672 134.832C148.669 134.826 148.664 134.822 148.661 134.816C148.087 134.431 147.576 134.18 147.156 134.584C147.015 134.719 146.883 134.929 146.763 135.231C146.535 135.81 145.994 136.264 145.588 136.784C145.142 135.357 144.828 134.352 144.459 133.171C146.151 133.113 147.639 133.309 148.66 134.816C148.665 134.819 148.671 134.822 148.675 134.826C148.677 134.826 148.679 134.826 148.68 134.826C149.014 134.565 149.345 134.393 149.674 134.276C150.261 132.854 150.844 131.404 151.424 129.935C150.534 130.049 149.318 129.393 148.742 129.794C147.263 130.823 145.916 130.668 144.378 130.219C143.643 130.005 142.931 130.221 143.126 131.292L143.13 131.302C143.13 131.302 143.129 131.302 143.127 131.302C143.128 131.302 143.128 131.302 143.128 131.302C143.129 131.302 143.129 131.303 143.129 131.303V131.303C143.125 131.303 143.121 131.302 143.117 131.301C142.427 131.353 141.737 131.405 141.005 131.461C140.269 131.516 139.492 131.575 138.629 131.64C138.837 131.363 139.042 131.145 139.244 130.978C139.445 130.811 139.642 130.694 139.838 130.617C140.033 130.539 140.225 130.502 140.415 130.494C141.362 130.455 142.247 131.149 143.119 131.301C143.121 131.301 143.123 131.3 143.127 131.3C143.126 131.298 143.127 131.297 143.126 131.296C142.855 130.557 142.583 129.819 142.319 129.099C140.909 129.246 139.697 129.372 138.814 129.463V125.963C139.831 126.431 140.963 126.705 141.779 127.371C144.653 129.713 148.026 129.661 151.096 126.985C149.485 124.666 146.785 127.437 144.853 125.241C144.839 124.949 144.803 124.179 144.768 123.452C145.11 123.327 145.406 123.13 145.496 123.2C147.259 124.562 149.552 124.437 151.516 125.39C151.981 125.615 152.485 125.754 153.01 125.85C154.363 122.298 155.702 118.626 157.024 114.808C157.508 113.371 158.003 111.925 158.498 110.46L144.936 110.458C144.735 110.852 144.289 110.813 143.291 110.457L109.929 110.449C110.104 110.713 110.285 111.061 110.51 111.505C110.574 111.514 110.639 111.521 110.701 111.532C110.701 111.532 110.582 111.642 110.58 111.642C110.555 111.594 110.534 111.552 110.51 111.505C109.157 111.327 107.546 111.766 106.569 110.448L89.8477 110.444V110.454L86.882 110.453C85.8928 110.453 85.0155 111.077 84.7079 112.02C84.7079 112.02 83.3668 116.04 81.7618 120.853C82.3394 120.68 82.9211 120.429 83.5122 120.084C84.7718 119.351 86.5841 119.571 88.1462 119.36C88.1947 119.61 88.2437 119.861 88.2912 120.111C87.5803 120.419 86.8937 120.826 86.153 121.017C84.5419 121.434 82.9263 121.838 81.2989 122.241C80.2944 125.255 79.2297 128.449 78.3491 131.093C78.6684 131.123 78.9765 131.257 79.2478 131.497C79.8096 131.995 81.0649 133.05 79.2297 134.145C78.7509 133.804 78.2405 133.44 77.6965 133.053C76.9129 135.406 76.3894 136.981 76.3894 136.99V137.009C75.5312 139.574 79.1406 141.31 80.4939 138.969C80.5964 138.783 80.6994 138.578 80.7927 138.381C83.9019 131.578 88.7872 125.902 94.773 121.822C94.3652 121.667 93.954 121.454 93.5345 121.156C94.4337 121.085 95.2826 121.016 96.1118 120.95C101.472 117.599 107.631 115.495 114.15 114.952C114.619 114.279 115.074 113.625 115.526 112.976C115.519 112.969 115.511 112.962 115.504 112.955L115.624 112.835C115.592 112.882 115.559 112.929 115.526 112.976C116.158 113.566 116.791 114.158 117.485 114.808C117.498 114.808 117.512 114.807 117.525 114.807L136.062 114.803C131.482 128.274 126.975 139.967 122.537 150.127L124.203 150.615C124.131 150.884 124.06 151.153 123.989 151.421C123.298 151.537 122.655 151.45 122.035 151.268C113.364 170.909 104.951 184.692 96.7528 194.352C96.7519 194.361 96.7519 194.37 96.7509 194.378C96.7453 194.377 96.7393 194.376 96.7337 194.375C95.6904 195.603 94.65 196.77 93.6137 197.869L94.167 197.938C94.12 198.23 94.0724 198.523 94.0249 198.816C93.6506 198.747 93.2767 198.678 92.9019 198.609C91.9864 199.556 91.0741 200.454 90.1642 201.305C91.0447 201.077 91.6559 200.962 92.2027 201.006C92.2787 201.012 92.3519 201.023 92.4264 201.036C92.4451 201.038 92.4642 201.039 92.4824 201.043C93.1284 201.162 93.7419 201.523 94.7059 202.199C94.8439 202.295 94.9879 202.398 95.1422 202.508C94.8672 202.456 94.5992 202.406 94.3395 202.358C93.9261 202.28 93.534 202.207 93.1518 202.135C92.4148 201.997 91.7258 201.869 91.0625 201.744C90.945 201.722 90.8285 201.7 90.7128 201.679C90.4471 201.629 90.1852 201.58 89.9237 201.531C77.6578 212.898 65.8627 215.883 54.3926 216.54L53.5186 219.161C54.1213 218.939 54.6751 218.734 55.2517 218.522C54.9254 219.886 54.7632 220.55 54.1698 220.742C65.9961 220.182 78.9849 217.739 92.2293 210.287C89.4743 209.832 87.0727 209.435 84.6762 209.038C87.3449 207.765 89.8085 208.158 92.4008 210.19C95.8536 208.236 99.3241 205.94 102.795 203.247C102.51 203.055 102.218 202.794 101.915 202.441C102.578 202.479 103.159 202.511 103.699 202.541C109.298 198.087 114.895 192.588 120.423 185.81C119.761 185.769 119.1 185.729 118.438 185.689C118.456 185.483 118.474 185.277 118.491 185.07C119.157 185.163 119.822 185.255 120.488 185.347C120.476 185.488 120.464 185.631 120.452 185.773C129.377 174.82 138.121 160.531 146.399 141.929C145.88 142.57 145.262 142.519 143.045 142.319Z" fill="white"/>
<path d="M52.9969 220.724L52.9731 220.794C53.0981 220.789 53.2235 220.782 53.3484 220.777C53.2389 220.764 53.1232 220.747 52.9969 220.724Z" fill="white"/>
<path d="M7.88834 121.063C7.76015 121.503 7.63941 121.934 7.51355 122.37C7.90372 122.141 8.31673 121.899 8.80246 121.614C8.47988 121.364 8.17735 121.186 7.88834 121.063Z" fill="white"/>
<path d="M8.23466 193.523C8.09901 195.092 8.01417 196.077 7.92933 197.062C6.48472 195.514 4.37725 194.482 4.95994 191.619C8.46867 191.963 11.9574 192.306 15.7029 192.674C13.3339 195.184 10.7533 194.227 8.23466 193.523ZM4.79772 178.241H7.16251C7.1751 178.411 7.18769 178.581 7.20074 178.75C6.4176 178.833 5.63446 178.917 4.85179 178.999C4.83361 178.747 4.8159 178.494 4.79772 178.241ZM4.34556 173.663C5.19535 173.787 6.09642 173.566 7.43195 173.461C6.38077 175.38 6.38078 175.38 1.93182 174.04C2.67999 172.896 3.50229 173.539 4.34556 173.663ZM8.85837 150.354C9.48767 149.983 9.67553 150.302 10.2815 152.635C8.94787 150.241 5.42936 153.22 4.34322 149.821C5.93653 150.026 7.2618 151.296 8.85837 150.354ZM4.80331 146.315C5.2923 146.419 5.77385 146.56 6.25678 146.696C6.19711 146.901 6.13838 147.107 6.07964 147.312C5.59857 147.175 5.11564 147.043 4.64529 146.876C4.63177 146.871 4.78932 146.313 4.80331 146.315ZM6.63202 142.936C6.63389 143.111 6.63483 143.285 6.63669 143.46H5.06203C5.06156 143.285 5.06063 143.111 5.05969 142.936H6.63202ZM10.9318 169.465C10.076 169.397 9.22104 169.328 8.36472 169.26C8.34514 169.019 8.32556 168.778 8.30598 168.538C8.59919 168.402 8.93995 168.094 9.17442 168.162C9.81398 168.344 10.4083 168.685 10.9318 169.465ZM11.9471 157.567C10.2317 157.338 8.87422 157.157 7.51725 156.976C7.49207 156.794 7.46737 156.611 7.4422 156.429C8.34188 156.003 9.24201 155.576 10.1776 155.133C10.6451 155.776 11.1365 156.451 11.9471 157.567ZM15.8605 172.211C14.7874 173.326 13.9819 173.58 11.1733 173.65C12.5834 173.217 13.9935 172.784 15.8605 172.211ZM17.5903 144.751C18.3436 144.88 19.096 145.008 19.8493 145.136C19.8078 145.364 19.7677 145.592 19.7262 145.819C18.9762 145.683 18.2262 145.546 17.4747 145.41C17.513 145.19 17.5516 144.971 17.5903 144.751ZM26.0403 107.333C24.9197 106.825 23.7986 106.316 22.4682 105.714C22.3824 106.816 22.3157 107.674 22.1899 109.273C20.9923 107.769 20.2507 106.838 19.3813 105.748C22.181 104.507 24.4209 104.509 26.0403 107.333ZM25.6585 99.1366C25.6231 99.3174 25.5872 99.4988 25.5513 99.6806C24.9546 99.5664 24.3579 99.4522 23.7617 99.3389L23.751 99.1366H25.6585ZM31.9362 97.7889C30.5051 97.3027 29.0749 96.8175 27.6299 96.3266C28.7253 95.2167 28.7253 95.2167 31.9362 97.7889ZM34.0189 88.278C34.0562 88.546 34.0921 88.8146 34.1285 89.0835H32.5454C32.5221 88.9376 32.4979 88.7927 32.4732 88.6472C32.9887 88.5242 33.5043 88.4011 34.0189 88.278ZM35.5703 62.2322C35.2002 64.0684 34.9582 65.2687 34.7172 66.4691C34.3951 66.4155 34.0735 66.3619 33.7523 66.3083C33.5584 64.9163 32.9002 63.3687 35.5703 62.2322ZM47.3481 56.2496C44.4258 57.5693 42.8558 57.2463 38.6194 54.4106C41.3706 54.9905 44.1228 55.5704 47.3481 56.2496ZM50.1641 57.0654H52.1462L52.1779 57.636C51.4903 57.6998 50.8028 57.7637 50.1152 57.8271C50.1315 57.573 50.1478 57.319 50.1641 57.0654ZM56.9942 52.2379C55.0266 54.5183 54.0975 51.6049 52.7779 51.2511C54.1828 51.5797 55.5883 51.9088 56.9942 52.2379ZM46.3086 61.4715C46.028 60.761 45.7483 60.0506 45.4672 59.3402C45.8308 59.246 46.1953 59.1514 46.5589 59.0568C46.709 59.7835 46.8586 60.5103 47.0083 61.2375C46.7752 61.3158 46.5421 61.3932 46.3086 61.4715ZM42.5369 67.3296H39.7591C39.755 67.0783 39.7517 66.8266 39.7475 66.5758L42.5486 66.7292C42.5444 66.9296 42.5407 67.1292 42.5369 67.3296ZM60.9164 36.5854C61.2054 36.7602 61.7117 36.9024 61.9396 37.2357C62.7479 38.4184 62.712 38.4435 60.7518 40.9929C59.8792 39.9781 59.2098 39.1992 58.5409 38.4221C59.2709 37.8576 60.0135 37.2837 60.9164 36.5854ZM73.2336 23.0675C73.8573 23.1561 74.4805 23.2446 75.1042 23.3327C75.059 23.5425 75.0142 23.7509 74.9686 23.9597C74.3626 23.8054 73.7566 23.6511 73.1506 23.4968C73.1781 23.3542 73.2056 23.2111 73.2336 23.0675ZM87.1533 9.26286C87.2158 9.56399 87.2773 9.86512 87.3398 10.1663C86.4434 10.3173 85.5474 10.4693 84.6519 10.6203C84.5965 10.3537 84.5419 10.0851 84.4879 9.81757C85.3763 9.63298 86.2653 9.44792 87.1533 9.26286ZM93.5023 7.32366C93.5364 7.57911 93.5713 7.8355 93.6053 8.09142C92.8371 8.16367 92.0694 8.23687 91.3007 8.30866C91.2639 8.01824 91.227 7.72828 91.1897 7.43833C91.9607 7.40011 92.7313 7.36142 93.5023 7.32366ZM152.392 12.3092C151.195 13.5216 150.52 13.6661 149.375 12.3092H152.392ZM158.444 70.6202C157.071 71.0336 156.049 71.3422 155.027 71.6499C155.925 70.8085 156.152 67.8624 158.444 70.6202ZM158.267 38.2603C158.228 39.1297 158.206 39.6401 158.177 40.3016C157.234 40.0932 156.483 39.9278 155.733 39.7618C155.715 39.5898 155.695 39.4169 155.676 39.2444C156.422 38.961 157.168 38.6775 158.267 38.2603ZM160.73 33.0571C160.75 35.5016 160.666 35.5301 157.94 34.0137C158.92 33.6781 159.808 33.3732 160.73 33.0571ZM166.01 42.2315C163.491 41.8898 161.533 41.625 159.548 41.3556C160.948 39.848 162.161 39.9702 166.01 42.2315ZM165.742 33.3056C165.947 33.3923 166.151 33.479 166.355 33.5652C166.059 34.2836 165.762 35.0024 165.465 35.7207C165.258 35.6326 165.051 35.545 164.844 35.4569C165.143 34.7399 165.443 34.0225 165.742 33.3056ZM158.666 48.5595C158.724 48.3218 159.101 48.1614 159.409 47.912C159.669 48.1894 159.877 48.4103 160.085 48.6313C159.773 48.8429 159.481 49.1133 159.138 49.2247C159.048 49.2541 158.622 48.7446 158.666 48.5595ZM162.112 65.0184C160.61 65.506 159.3 65.9307 157.758 66.4308C158.07 65.409 158.291 64.6847 158.54 63.8694C159.743 63.8288 161.024 63.351 162.112 65.0184ZM152.516 77.0223C152.463 76.7626 152.41 76.5025 152.357 76.2429C153.623 76.0317 154.889 75.8206 156.154 75.6099L156.279 76.2653C155.024 76.5179 153.771 76.7701 152.516 77.0223ZM151.62 63.6046C151.559 63.4559 151.498 63.3062 151.437 63.1571C152.042 62.882 152.646 62.6065 153.25 62.331C153.313 62.5385 153.374 62.745 153.437 62.952C152.831 63.1696 152.226 63.3873 151.62 63.6046ZM152.847 43.3428C152.834 43.1493 152.821 42.9554 152.809 42.7615C153.353 42.6478 153.897 42.534 154.441 42.4198C154.48 42.7279 154.521 43.0351 154.561 43.3428H152.847ZM27.3105 210.865C26.4412 211.499 25.8874 211.902 25.3364 212.304C24.4717 211.829 23.6825 211.395 22.8933 210.961C22.9567 210.699 23.0205 210.438 23.0835 210.175H26.4747C24.3771 208.357 22.5903 206.119 21.1471 203.405C19.9966 203.315 18.8811 203.228 17.7456 203.139V201.485C18.4961 202.436 19.543 202.413 20.6087 202.336C18.346 197.602 17.0482 191.531 16.8487 183.891H13.0034C14.0434 182.972 15.405 182.527 16.8226 182.55C16.7858 178.433 17.0608 173.871 17.6565 168.844C17.4146 168.9 17.1647 168.956 16.8934 169.018C17.3023 167.863 17.5871 167.131 17.9166 166.777C19.241 156.813 21.7913 145.072 25.7196 131.294C25.4972 131.26 25.2749 131.227 25.052 131.193L25.2693 130.222C25.5014 130.297 25.7331 130.371 25.9652 130.445C26.7992 127.545 27.6891 124.561 28.6447 121.481H26.4971C27.3586 120.597 28.1286 120.298 28.8917 120.69C29.9266 117.374 31.0281 113.958 32.2065 110.43C33.0507 107.901 33.8973 105.43 34.7471 103.01C34.3425 102.95 33.9378 102.89 33.5332 102.829C33.5519 102.662 33.571 102.495 33.5901 102.327C34.045 102.358 34.5005 102.389 34.9559 102.42C35.767 100.12 36.5809 97.8668 37.3967 95.6651C36.8797 95.8875 36.3586 96.0297 35.8164 95.7845C36.3255 94.3515 36.8233 93.0728 38.3723 93.0677C40.34 87.8636 42.3221 82.9368 44.3163 78.2776C42.7467 79.6644 40.3665 79.0468 38.9741 80.4737C39.2254 78.3853 39.2338 78.3443 44.6118 77.5933C68.6172 21.8779 94.5101 4.56823 120.821 4.19857C121.618 3.66995 122.307 3.21266 122.948 2.78753C123.32 3.28538 123.669 3.75155 124.025 4.22796C134.003 4.5468 141.275 6.98292 145.913 12.642C146.637 12.0057 147.468 12.2462 148.626 12.4387C147.739 12.7455 147.098 12.9674 146.367 13.2205C147.604 14.8497 148.639 16.7297 149.472 18.8838C149.516 18.3897 149.566 17.8321 149.617 17.2518H153.952C153.973 17.3734 153.994 17.4942 154.014 17.6149C153.338 17.7711 152.662 17.9268 151.769 18.1323V21.332C151.249 21.2141 150.72 21.0943 150.192 20.9745C150.747 22.7948 151.18 24.7867 151.491 26.9636H154.521C154.556 27.1235 154.591 27.2815 154.626 27.4405C153.675 27.8134 152.719 28.1886 151.694 28.5909C152.118 32.4227 152.194 36.7887 151.926 41.7406C151.967 41.8166 152.007 41.8898 152.051 41.9723H151.913C151.864 42.8575 151.806 43.7563 151.735 44.6793C151.907 44.7585 152.082 44.8531 152.261 44.9855C152.058 45.0787 151.867 45.165 151.687 45.2466C151.486 47.7116 151.209 50.3071 150.855 53.0444C151.488 52.9576 152.12 52.8709 152.752 52.7838C152.786 53.0294 152.82 53.2751 152.854 53.5203C152.151 53.6406 151.448 53.7608 150.744 53.8811C150.389 56.547 149.963 59.3402 149.467 62.2714C149.712 62.3208 149.958 62.3702 150.202 62.4196C150.187 62.6135 150.172 62.8074 150.156 63.0014C149.884 63.0014 149.612 63.0042 149.341 63.0023C148.303 69.0352 146.974 75.6266 145.351 82.8348C147.651 82.8357 149.881 82.5159 152.002 81.9253C151.964 81.7267 151.927 81.5286 151.89 81.3305C152.809 81.2289 153.727 81.1263 154.647 81.0242C162.999 77.6353 169.13 69.8063 169.965 60.3219C170.232 57.2863 170.378 54.3883 170.415 51.6147C170.25 51.5956 170.084 51.5774 169.918 51.5583C169.935 51.356 169.952 51.1523 169.969 50.9499C170.12 50.9583 170.271 50.9672 170.422 50.9756C170.456 46.1793 170.148 41.7728 169.525 37.7354C168.67 37.8692 167.812 37.804 166.885 37.2782C167.961 37.3798 168.638 36.9835 169.3 36.3654C167.174 24.2599 162.119 15.5904 154.879 9.75978C151.944 10.087 149.059 8.96406 146.123 9.35982C147.812 8.23406 151.229 8.18791 154.09 9.14259C147.658 4.24845 139.595 1.48511 130.387 0.462843C130.364 1.1024 129.482 1.26927 127.221 1.68601C126.924 1.00916 126.884 0.530886 126.996 0.16822C125.266 0.0572755 123.502 0.000877417 121.705 -5.48874e-05C89.1443 -0.00797948 49.3866 21.6387 21.5023 83.9158C21.6365 84.0034 21.7722 84.0915 21.9055 84.1777C25.2427 82.521 28.5417 80.8634 31.8728 79.2743C32.1198 79.1568 32.6037 79.5381 33.57 79.9236C31.6938 80.8601 30.3294 81.5407 28.9659 82.2213C28.9794 82.4506 28.9934 82.6795 29.0069 82.9089C30.3326 83.135 31.6588 83.362 32.9841 83.5885C32.9999 83.7727 33.0158 83.9568 33.0312 84.1409C31.4812 84.2803 29.908 84.6551 28.3855 84.5064C25.8254 84.257 23.428 84.1698 21.7647 86.4656C21.3937 86.24 21.0319 86.0204 20.666 85.7985C17.3335 93.4047 14.1739 101.599 11.2264 110.425C10.11 113.768 9.09285 117.013 8.15402 120.177C10.8335 119.784 12.0357 120.336 13.5413 121.885C11.7289 123.764 9.47882 122.456 7.42868 122.667C-7.17074 173.662 1.27314 201.229 19.5272 213.289C19.5981 213.256 19.6684 213.223 19.7393 213.19C19.7938 213.307 19.8493 213.424 19.9034 213.54C26.5875 217.846 34.5541 220.112 43.1686 220.717L44.5414 216.593C37.6475 216.167 31.8201 214.403 27.3105 210.865Z" fill="white"/>
</svg>
