<svg width="132" height="134" viewBox="0 0 132 134" fill="none" xmlns="http://www.w3.org/2000/svg">
<path d="M68.5353 46.396H96.7503C96.5473 46.997 96.3443 47.592 96.1443 48.183C83.2903 85.377 66.5223 91.2631 53.3903 91.7531L53.9742 90.0041C64.3102 89.4111 75.2873 84.222 87.5293 48.183L79.9113 48.187C73.3663 48.187 67.4922 52.0211 64.8162 57.8791C64.7782 57.9601 64.7352 58.044 64.6932 58.121C64.1372 59.083 62.6533 58.37 63.0063 57.315V57.308C63.0063 57.292 66.4222 47.044 66.4222 47.044C66.5492 46.656 66.9092 46.399 67.3162 46.399H68.5353" fill="white"/>
<path d="M68.5353 46.396H96.7503C96.5473 46.997 96.3443 47.592 96.1443 48.183C83.2903 85.377 66.5223 91.2631 53.3903 91.7531L53.9742 90.0041C64.3102 89.4111 75.2873 84.222 87.5293 48.183L79.9113 48.187C73.3663 48.187 67.4922 52.0211 64.8162 57.8791C64.7782 57.9601 64.7352 58.044 64.6932 58.121C64.1372 59.083 62.6533 58.37 63.0063 57.315V57.308C63.0063 57.292 66.4222 47.044 66.4222 47.044C66.5492 46.656 66.9092 46.399 67.3162 46.399H68.5353V46.396Z" stroke="white" stroke-width="0.432" stroke-miterlimit="10"/>
<path d="M101.459 25.787C100.999 31.028 96.6052 35.043 91.3452 35.043C97.0272 9.77604 94.0252 2.72104 81.6182 2.72104C68.7892 2.72104 56.1942 12.372 44.8452 46.395C33.9212 79.146 38.1662 89.3031 49.9252 90.0271L49.3612 91.722C35.2602 90.737 25.3752 78.924 36.2222 46.395C47.5792 12.372 66.4882 1.00005 81.6182 1.00005C94.3572 1.00005 103.057 7.59003 101.459 25.787Z" fill="white"/>
<path d="M101.459 25.787C100.999 31.028 96.6052 35.043 91.3452 35.043C97.0272 9.77604 94.0252 2.72104 81.6182 2.72104C68.7892 2.72104 56.1942 12.372 44.8452 46.395C33.9212 79.146 38.1662 89.3031 49.9252 90.0271L49.3612 91.722C35.2602 90.737 25.3752 78.924 36.2222 46.395C47.5792 12.372 66.4882 1.00005 81.6182 1.00005C94.3572 1.00005 103.057 7.59003 101.459 25.787Z" stroke="white" stroke-width="0.432" stroke-miterlimit="10"/>
<path d="M102.148 78.834C102.148 78.834 96.9683 87.142 84.5253 91.776L98.2943 91.276C98.2943 91.276 101.883 82.988 102.148 78.834Z" fill="white"/>
<path d="M102.148 78.834C102.148 78.834 96.9683 87.142 84.5253 91.776L98.2943 91.276C98.2943 91.276 101.883 82.988 102.148 78.834Z" stroke="white" stroke-width="0.432" stroke-miterlimit="10"/>
<path d="M43.3103 132.646H37.2423C39.7223 131.231 44.6223 126.294 46.0313 122.066L37.8863 122.065L37.5103 123.194H37.9012L38.1443 122.464H44.2903C42.4063 127.351 35.7922 132.646 34.1722 132.646V133.046H43.1773H43.5682L43.9452 131.917H43.5532" fill="white"/>
<path d="M34.1722 132.646C35.7922 132.646 42.4063 127.351 44.2903 122.464H38.1443L37.9012 123.194H37.5103L37.8863 122.065L46.0313 122.066C44.6223 126.294 39.7223 131.231 37.2423 132.646H43.3103L43.5532 131.917H43.9452L43.5682 133.046H43.1773H34.1722V132.646ZM34.1722 132.646H34.1773" stroke="white" stroke-width="0.432" stroke-miterlimit="10"/>
<path d="M27.0802 133.046C24.9222 133.046 26.0752 129.946 26.7372 127.955C27.8822 124.516 29.3222 122.864 30.7392 122.864C32.9452 122.864 32.5733 124.999 32.2983 125.941L31.5552 128.17C29.8962 132.945 28.0432 133.046 27.0802 133.046ZM35.3443 122.464H33.4572L33.0202 123.775C32.7672 123.056 32.1332 122.465 30.7392 122.465C29.2392 122.465 26.3502 123.458 24.8502 127.955C23.1222 133.138 26.4862 133.445 27.0802 133.445C28.0202 133.445 29.1183 133.285 30.1963 132.247L29.9302 133.046H30.2213H32.8182L32.9512 132.647H31.9503" fill="white"/>
<path d="M27.0802 133.046C24.9222 133.046 26.0752 129.946 26.7372 127.955C27.8822 124.516 29.3222 122.864 30.7392 122.864C32.9452 122.864 32.5733 124.999 32.2983 125.941L31.5552 128.17C29.8962 132.945 28.0432 133.046 27.0802 133.046ZM35.3443 122.464H33.4572L33.0202 123.775C32.7672 123.056 32.1332 122.465 30.7392 122.465C29.2392 122.465 26.3502 123.458 24.8502 127.955C23.1222 133.138 26.4862 133.445 27.0802 133.445C28.0202 133.445 29.1183 133.285 30.1963 132.247L29.9302 133.046H30.2213H32.8182L32.9512 132.647H31.9503L35.3443 122.464Z" stroke="white" stroke-width="0.432" stroke-miterlimit="10"/>
<path d="M7.59322 125.285L6.60621 128.238H6.99723C7.30423 127.317 8.49223 125.684 10.3732 125.684H11.4072C8.99721 132.722 6.52423 133.045 4.87223 133.045C2.92823 133.045 1.60022 131.405 3.63922 125.285C5.61022 119.379 8.34322 117.525 10.3102 117.525C12.0502 117.525 12.7692 118.682 11.7602 122.656C12.6932 122.656 14.2962 121.884 14.2812 120.95C14.2352 118.157 12.4472 117.126 10.3102 117.126C8.08422 117.126 3.98221 118.602 1.75621 125.285C-0.282789 131.401 2.15523 133.444 4.87223 133.444C7.34623 133.444 10.9562 132.706 13.4302 125.285" fill="white"/>
<path d="M7.59322 125.285L6.60621 128.238H6.99723C7.30423 127.317 8.49223 125.684 10.3732 125.684H11.4072C8.99721 132.722 6.52423 133.045 4.87223 133.045C2.92823 133.045 1.60022 131.405 3.63922 125.285C5.61022 119.379 8.34322 117.525 10.3102 117.525C12.0502 117.525 12.7692 118.682 11.7602 122.656C12.6932 122.656 14.2962 121.884 14.2812 120.95C14.2352 118.157 12.4472 117.126 10.3102 117.126C8.08422 117.126 3.98221 118.602 1.75621 125.285C-0.282789 131.401 2.15523 133.444 4.87223 133.444C7.34623 133.444 10.9562 132.706 13.4302 125.285H7.59322Z" stroke="white" stroke-width="0.432" stroke-miterlimit="10"/>
<path d="M48.2322 133.046C46.0742 133.046 47.2272 129.946 47.8892 127.955C49.0342 124.516 50.4742 122.864 51.8912 122.864C54.0972 122.864 53.7252 124.999 53.4502 125.94L52.7072 128.17C51.0482 132.945 49.1952 133.046 48.2322 133.046ZM56.4962 122.464H54.6092L54.1722 123.775C53.9192 123.056 53.2852 122.465 51.8912 122.465C50.3912 122.465 47.5022 123.458 46.0022 127.955C44.2742 133.138 47.6382 133.445 48.2322 133.445C49.1722 133.445 50.2702 133.285 51.3482 132.247L51.0822 133.046H53.9702L54.1032 132.647H53.1022" fill="white"/>
<path d="M48.2322 133.046C46.0742 133.046 47.2272 129.946 47.8892 127.955C49.0342 124.516 50.4742 122.864 51.8912 122.864C54.0972 122.864 53.7252 124.999 53.4502 125.94L52.7072 128.17C51.0482 132.945 49.1952 133.046 48.2322 133.046ZM56.4962 122.464H54.6092L54.1722 123.775C53.9192 123.056 53.2852 122.465 51.8912 122.465C50.3912 122.465 47.5022 123.458 46.0022 127.955C44.2742 133.138 47.6382 133.445 48.2322 133.445C49.1722 133.445 50.2702 133.285 51.3482 132.247L51.0822 133.046H53.9702L54.1032 132.647H53.1022L56.4962 122.464Z" stroke="white" stroke-width="0.432" stroke-miterlimit="10"/>
<path d="M99.5363 133.046C97.3793 133.046 98.5312 129.946 99.1932 127.955C100.338 124.516 101.779 122.864 103.195 122.864C105.401 122.864 105.029 124.999 104.754 125.941L104.011 128.171C102.352 132.945 100.499 133.046 99.5363 133.046ZM107.8 122.464H105.913L105.476 123.775C105.224 123.056 104.59 122.465 103.195 122.465C101.695 122.465 98.8063 123.458 97.3063 127.955C95.5793 133.138 98.9423 133.445 99.5363 133.445C100.476 133.445 101.574 133.285 102.652 132.247L102.386 133.046H105.274L105.407 132.647H104.406" fill="white"/>
<path d="M99.5363 133.046C97.3793 133.046 98.5312 129.946 99.1932 127.955C100.338 124.516 101.779 122.864 103.195 122.864C105.401 122.864 105.029 124.999 104.754 125.941L104.011 128.171C102.352 132.945 100.499 133.046 99.5363 133.046ZM107.8 122.464H105.913L105.476 123.775C105.224 123.056 104.59 122.465 103.195 122.465C101.695 122.465 98.8063 123.458 97.3063 127.955C95.5793 133.138 98.9423 133.445 99.5363 133.445C100.476 133.445 101.574 133.285 102.652 132.247L102.386 133.046H105.274L105.407 132.647H104.406L107.8 122.464Z" stroke="white" stroke-width="0.432" stroke-miterlimit="10"/>
<path d="M121.682 133.046C119.524 133.046 120.677 129.946 121.339 127.955C122.484 124.516 123.924 122.864 125.341 122.864C127.546 122.864 127.175 124.999 126.9 125.94L126.157 128.17C124.498 132.945 122.645 133.046 121.682 133.046ZM131.59 117.532H128.993L128.86 117.931H129.57L127.622 123.775C127.369 123.056 126.735 122.465 125.341 122.465C123.84 122.465 120.952 123.458 119.452 127.955C117.724 133.138 121.088 133.445 121.682 133.445C122.622 133.445 123.72 133.285 124.798 132.247L124.532 133.046H127.42L127.553 132.647H126.552" fill="white"/>
<path d="M121.682 133.046C119.524 133.046 120.677 129.946 121.339 127.955C122.484 124.516 123.924 122.864 125.341 122.864C127.546 122.864 127.175 124.999 126.9 125.94L126.157 128.17C124.498 132.945 122.645 133.046 121.682 133.046ZM131.59 117.532H128.993L128.86 117.931H129.57L127.622 123.775C127.369 123.056 126.735 122.465 125.341 122.465C123.84 122.465 120.952 123.458 119.452 127.955C117.724 133.138 121.088 133.445 121.682 133.445C122.622 133.445 123.72 133.285 124.798 132.247L124.532 133.046H127.42L127.553 132.647H126.552L131.59 117.532Z" stroke="white" stroke-width="0.432" stroke-miterlimit="10"/>
<path d="M62.0632 117.525H59.1742L59.0412 117.924H60.1712L55.1312 133.046H57.0152H58.0192L58.1522 132.647H57.1452" fill="white"/>
<path d="M62.0632 117.525H59.1742L59.0412 117.924H60.1712L55.1312 133.046H57.0152H58.0192L58.1522 132.647H57.1452L62.0632 117.525Z" stroke="white" stroke-width="0.432" stroke-miterlimit="10"/>
<path d="M20.8412 122.464C19.3142 122.464 18.0992 123.319 17.1742 124.472L19.4332 117.526H16.5452L16.4122 117.924H17.5422L12.5012 133.046H14.3862L16.6882 125.966C17.5272 124.537 18.9192 122.863 20.8412 122.863C22.8622 122.863 22.5552 123.837 21.1822 127.954L19.4852 133.046H21.3732H22.3742L22.5072 132.646H21.5062L23.0702 127.954C24.4422 123.837 22.8622 122.464 20.8412 122.464Z" fill="white"/>
<path d="M20.8412 122.464C19.3142 122.464 18.0992 123.319 17.1742 124.472L19.4332 117.526H16.5452L16.4122 117.924H17.5422L12.5012 133.046H14.3862L16.6882 125.966C17.5272 124.537 18.9192 122.863 20.8412 122.863C22.8622 122.863 22.5552 123.837 21.1822 127.954L19.4852 133.046H21.3732H22.3742L22.5072 132.646H21.5062L23.0702 127.954C24.4422 123.837 22.8622 122.464 20.8412 122.464Z" stroke="white" stroke-width="0.432" stroke-miterlimit="10"/>
<path d="M76.5323 122.464C75.0063 122.464 73.7903 123.319 72.8653 124.472L75.1242 117.526H72.2363L72.1043 117.924H73.2333L68.1923 133.046H70.0773L72.3793 125.966C73.2183 124.537 74.6103 122.863 76.5323 122.863C78.5543 122.863 78.2472 123.837 76.8742 127.954L75.1773 133.046H78.0653L78.1992 132.646H77.1972L78.7613 127.954C80.1333 123.837 78.5543 122.464 76.5323 122.464Z" fill="white"/>
<path d="M76.5323 122.464C75.0063 122.464 73.7903 123.319 72.8653 124.472L75.1242 117.526H72.2363L72.1043 117.924H73.2333L68.1923 133.046H70.0773L72.3793 125.966C73.2183 124.537 74.6103 122.863 76.5323 122.863C78.5543 122.863 78.2472 123.837 76.8742 127.954L75.1773 133.046H78.0653L78.1992 132.646H77.1972L78.7613 127.954C80.1333 123.837 78.5543 122.464 76.5323 122.464Z" stroke="white" stroke-width="0.432" stroke-miterlimit="10"/>
<path d="M115.429 122.464C113.902 122.464 112.687 123.319 111.762 124.472L112.415 122.464H109.526L109.393 122.864H110.483L107.089 133.046H108.974L111.276 125.965C112.115 124.537 113.507 122.863 115.429 122.863C117.45 122.863 117.143 123.837 115.77 127.954L114.074 133.046H116.962L117.095 132.646H116.094L117.658 127.954C119.03 123.837 117.45 122.464 115.429 122.464Z" fill="white"/>
<path d="M115.429 122.464C113.902 122.464 112.687 123.319 111.762 124.472L112.415 122.464H109.526L109.393 122.864H110.483L107.089 133.046H108.974L111.276 125.965C112.115 124.537 113.507 122.863 115.429 122.863C117.45 122.863 117.143 123.837 115.77 127.954L114.074 133.046H116.962L117.095 132.646H116.094L117.658 127.954C119.03 123.837 117.45 122.464 115.429 122.464Z" stroke="white" stroke-width="0.432" stroke-miterlimit="10"/>
<path d="M62.3662 126.682V127.125C63.3562 127.379 67.1752 128.761 68.6872 125.321C69.5972 123.259 67.8682 122.066 65.9412 122.066C64.4412 122.066 61.5522 123.059 60.0522 127.556C58.3252 132.739 62.0882 133.046 62.6822 133.046C63.8792 133.046 65.6182 132.79 66.9592 130.796H65.7702C64.4062 132.599 63.3722 132.647 62.6822 132.647C60.5242 132.647 61.2772 129.547 61.9402 127.556C63.0842 124.121 64.5252 122.465 65.9412 122.465C67.7732 122.465 67.2902 124.424 66.7992 125.321C65.5792 127.556 63.0052 126.822 62.3662 126.682Z" fill="white"/>
<path d="M62.3662 126.682V127.125C63.3562 127.379 67.1752 128.761 68.6872 125.321C69.5972 123.259 67.8682 122.066 65.9412 122.066C64.4412 122.066 61.5522 123.059 60.0522 127.556C58.3252 132.739 62.0882 133.046 62.6822 133.046C63.8792 133.046 65.6182 132.79 66.9592 130.796H65.7702C64.4062 132.599 63.3722 132.647 62.6822 132.647C60.5242 132.647 61.2772 129.547 61.9402 127.556C63.0842 124.121 64.5252 122.465 65.9412 122.465C67.7732 122.465 67.2902 124.424 66.7992 125.321C65.5792 127.556 63.0052 126.822 62.3662 126.682Z" stroke="white" stroke-width="0.432" stroke-miterlimit="10"/>
<path d="M91.1602 132.646H86.2722C89.7312 130.926 95.8702 123.901 97.9932 117.532H88.2522L87.2682 120.485H87.6602C87.9672 119.564 89.1562 117.931 91.0352 117.931H95.9632C93.3632 125.135 85.3402 132.646 82.9432 132.646L82.8102 133.046H93.9422L94.9272 130.092H94.5362C94.2282 131.013 93.0412 132.646 91.1602 132.646Z" fill="white"/>
<path d="M91.1602 132.646H86.2722C89.7312 130.926 95.8702 123.901 97.9932 117.532H88.2522L87.2682 120.485H87.6602C87.9672 119.564 89.1562 117.931 91.0352 117.931H95.9632C93.3632 125.135 85.3402 132.646 82.9432 132.646L82.8102 133.046H93.9422L94.9272 130.092H94.5362C94.2282 131.013 93.0412 132.646 91.1602 132.646Z" stroke="white" stroke-width="0.432" stroke-miterlimit="10"/>
<path fill-rule="evenodd" clip-rule="evenodd" d="M44.2702 105.344C44.5322 105.686 44.7382 105.281 44.8452 105.066C44.9702 104.813 45.0682 104.55 45.1882 104.298C45.3322 103.895 45.4952 103.505 45.6272 103.094C45.6882 102.907 45.8042 102.588 45.5062 102.538C45.3422 102.511 44.9472 102.552 44.8752 102.714C44.7992 102.883 44.6503 103.786 44.5833 104.056C44.5163 104.323 44.2402 105.14 44.2702 105.344Z" fill="white"/>
<path d="M45.4992 110.225C45.3012 110.225 45.1032 110.296 44.9052 110.451C44.1422 111.073 43.5202 112.628 43.5622 113.42C43.5622 113.618 43.6192 113.688 43.6472 113.717C43.6472 113.717 44.0153 113.872 45.6693 112.204C46.0083 111.865 46.3193 111.511 46.6023 111.215C46.5883 111.2 46.5883 111.186 46.5883 111.172C46.4603 110.819 46.1212 110.381 45.7112 110.253C45.6412 110.239 45.5702 110.225 45.4992 110.225ZM47.1813 116.685C47.1253 116.685 47.0682 116.685 47.0122 116.671C46.8002 116.629 46.6162 116.501 46.4892 116.289C45.9942 115.427 46.5313 113.095 46.9693 111.61C46.7013 111.921 46.3753 112.247 46.0653 112.586C44.2833 114.381 43.6763 114.381 43.3503 114.169C43.1533 114.042 43.0392 113.801 43.0112 113.448C42.9692 112.501 43.6472 110.776 44.5662 110.027C45.0892 109.617 45.5703 109.645 45.8813 109.73C46.3903 109.886 46.7853 110.338 46.9983 110.748C47.2523 110.465 47.4072 110.282 47.4072 110.267C47.4922 110.168 47.6342 110.14 47.7472 110.211C47.8602 110.267 47.9162 110.409 47.8742 110.536C47.2802 112.247 46.5172 115.243 46.9552 116.007C47.0122 116.106 47.0683 116.134 47.1253 116.134C48.0293 116.303 51.0122 113.024 52.8362 110.649C52.9342 110.522 53.1043 110.508 53.2173 110.593C53.3453 110.692 53.3592 110.861 53.2742 110.974C53.2602 110.988 52.1292 112.473 50.8142 113.9C48.6372 116.275 47.6903 116.685 47.1813 116.685Z" fill="white"/>
<path d="M63.4802 104.557C63.4802 104.698 63.3392 104.811 63.1972 104.797C60.7662 104.613 57.5992 104.826 54.5182 105.193C53.4862 110.183 51.8043 118.495 51.4083 122.241C51.4793 122.184 51.5782 122.17 51.6622 122.213C51.8042 122.269 51.8742 122.425 51.8182 122.566C51.8042 122.58 51.7052 122.821 51.5922 123.061C51.4082 123.457 51.2953 123.683 51.0833 123.683H51.0122C50.9562 123.669 50.7722 123.598 50.7722 123.33C50.8712 120.375 52.7792 110.862 53.9532 105.25C48.4962 105.928 43.4643 107.002 43.3793 107.017H43.3222C43.1952 107.017 43.0823 106.932 43.0543 106.804C43.0253 106.663 43.1242 106.522 43.2662 106.479C43.3502 106.465 48.5102 105.363 54.0662 104.698C54.4902 102.649 54.8012 101.235 54.8432 101.037C54.8712 100.896 55.0272 100.797 55.1682 100.825C55.3102 100.867 55.4092 101.009 55.3802 101.15C55.3662 101.207 55.0693 102.578 54.6313 104.628C57.6983 104.274 60.8082 104.076 63.2402 104.26C63.3812 104.274 63.4942 104.401 63.4802 104.557Z" fill="white"/>
<path d="M56.3872 109.589C56.2602 109.589 56.0902 109.646 55.9212 109.773C55.5952 109.999 55.1852 110.536 54.8322 111.187C55.3412 111.088 56.2602 110.819 56.6132 110.041C56.6412 109.957 56.7262 109.759 56.5992 109.66C56.5432 109.617 56.4722 109.589 56.3872 109.589ZM54.4932 115.696C54.1542 115.696 53.8852 115.597 53.6592 115.399C53.3622 115.144 53.2212 114.72 53.2492 114.141C53.3342 112.501 54.6622 109.999 55.6102 109.321C56.0622 108.995 56.5992 108.953 56.9382 109.236C57.1642 109.419 57.3202 109.787 57.1082 110.268C56.5142 111.582 54.8042 111.752 54.5212 111.766C54.1252 112.586 53.8282 113.477 53.8002 114.169C53.7862 114.438 53.8142 114.805 54.0122 114.989C55.0582 115.894 58.7342 112.784 60.8122 110.607C60.9102 110.494 61.0802 110.494 61.1932 110.593C61.3062 110.692 61.3062 110.875 61.2072 110.974C61.1932 110.989 59.7942 112.459 58.2102 113.745C56.5852 115.046 55.3552 115.696 54.4932 115.696Z" fill="white"/>
<path d="M59.8792 122.326C59.7242 122.326 59.5682 122.255 59.4692 122.128C59.2572 121.874 59.0032 121.223 59.3282 118.537C59.5262 116.912 59.8932 114.749 60.4162 112.275C61.3632 107.822 62.6212 103.059 63.2152 101.673C63.3282 101.419 63.5262 101.447 63.5822 101.447C63.8372 101.504 63.8662 101.758 63.8512 102.324C63.8512 102.465 63.7242 102.592 63.5822 102.578C63.5402 102.578 63.4982 102.578 63.4702 102.564C62.8052 104.472 61.7162 108.713 60.9112 112.6C60.3882 115.088 60.0212 117.251 59.8372 118.834C59.5682 121.308 59.8372 121.718 59.8792 121.775C60.0352 121.732 60.7702 121.181 63.6822 116.148C65.2512 113.42 66.3662 111.371 66.3822 111.342C66.4522 111.215 66.6072 111.159 66.7492 111.229C66.8762 111.3 66.9322 111.47 66.8622 111.597C66.8482 111.625 65.7162 113.703 64.1342 116.445C60.8692 122.1 60.2612 122.241 60.0062 122.298C59.9642 122.312 59.9222 122.326 59.8792 122.326Z" fill="white"/>
<path d="M67.5412 108.472C67.5412 108.303 67.6822 108.162 67.8522 108.162C68.0222 108.162 68.1492 108.303 68.1492 108.472C68.1492 108.642 68.0222 108.769 67.8522 108.769C67.6822 108.769 67.5412 108.642 67.5412 108.472ZM71.6682 110.933C71.6542 110.946 70.5932 112.529 69.3652 114.013C67.4412 116.346 66.4952 116.826 65.9572 116.826C65.8452 116.826 65.7452 116.799 65.6612 116.771C65.4342 116.699 65.1662 116.46 65.1382 115.824C65.1092 114.919 65.5472 113.519 65.9292 112.487C66.1132 111.978 66.3252 111.456 66.5222 111.031C66.8342 110.324 66.9042 110.296 67.0042 110.253C67.1022 110.212 67.2292 110.24 67.3152 110.31C67.4132 110.424 67.4132 110.592 67.3152 110.706C67.3002 110.706 67.2862 110.719 67.2862 110.719C66.9752 111.201 65.3912 114.96 65.7322 116.078C65.7742 116.233 65.8312 116.247 65.8452 116.262C66.0272 116.319 66.7632 116.319 68.9412 113.674C70.1562 112.204 71.2022 110.649 71.2162 110.635C71.3002 110.508 71.4702 110.465 71.5972 110.551C71.7252 110.635 71.7542 110.804 71.6682 110.933Z" fill="white"/>
<path d="M73.0962 109.589C72.9692 109.589 72.7992 109.646 72.6302 109.773C72.3042 109.999 71.8942 110.536 71.5412 111.187C72.0502 111.088 72.9692 110.819 73.3222 110.041C73.3502 109.957 73.4353 109.759 73.3083 109.66C73.2523 109.617 73.1812 109.589 73.0962 109.589ZM71.2023 115.696C70.8633 115.696 70.5942 115.597 70.3682 115.399C70.0712 115.144 69.9303 114.72 69.9583 114.141C70.0433 112.501 71.3722 109.999 72.3192 109.321C72.7712 108.995 73.3082 108.953 73.6472 109.236C73.8732 109.419 74.0292 109.787 73.8172 110.268C73.2232 111.582 71.5132 111.752 71.2302 111.766C70.8342 112.586 70.5372 113.477 70.5092 114.169C70.4952 114.438 70.5232 114.805 70.7212 114.989C71.7672 115.894 75.4432 112.784 77.5212 110.607C77.6192 110.494 77.7893 110.494 77.9023 110.593C78.0153 110.692 78.0152 110.875 77.9162 110.974C77.9022 110.989 76.5032 112.459 74.9192 113.745C73.2942 115.046 72.0643 115.696 71.2023 115.696Z" fill="white"/>
<path d="M76.5322 117.392C76.5182 117.392 76.5042 117.378 76.4752 117.378C76.3342 117.35 76.2492 117.208 76.2632 117.067C76.3202 116.742 76.3902 116.346 76.4612 115.922C76.6592 114.636 76.9282 113.024 77.2112 111.738C77.6772 109.688 78.0302 109.264 78.4122 109.25C78.5532 109.236 78.6812 109.349 78.6952 109.504C78.6952 109.645 78.5962 109.773 78.4542 109.787C78.3842 109.829 78.1152 110.14 77.7052 112.034C77.5922 112.572 77.4792 113.165 77.3662 113.773C78.1152 111.935 78.8222 111.045 79.5152 111.045C79.9952 111.045 80.4192 111.299 80.8572 111.582C81.8752 112.218 83.0352 112.939 85.6502 110.564C85.7492 110.465 85.9322 110.479 86.0312 110.593C86.1302 110.706 86.1162 110.875 86.0032 110.974C83.1052 113.618 81.6352 112.699 80.5612 112.034C80.1792 111.794 79.8402 111.596 79.5152 111.596C79.3452 111.596 78.7232 111.794 77.7342 114.31C77.1822 115.724 76.8012 117.166 76.8012 117.18C76.7722 117.307 76.6592 117.392 76.5322 117.392Z" fill="white"/>
<path fill-rule="evenodd" clip-rule="evenodd" d="M36.9943 109.263L36.5003 111.466C36.4543 111.68 36.3002 112.592 36.2242 112.699C36.2432 112.897 35.9062 114.498 35.8492 114.839C35.6372 116.067 35.2902 118.253 35.3742 119.444C35.4292 120.212 35.7613 120.994 36.5463 120.187C37.8013 118.896 40.3873 114.244 41.4133 112.373C41.5613 112.103 41.7103 111.828 41.8633 111.562C41.9743 111.369 42.3783 110.804 41.9583 110.729C41.6873 110.682 41.5083 111.213 41.3963 111.409C41.2433 111.678 41.1002 111.953 40.9452 112.221C40.1102 113.654 36.8122 119.685 36.0242 120.003C35.4512 119.739 36.3333 114.822 36.5083 113.894C36.5683 113.578 36.8272 112.187 36.8972 111.982C36.9192 111.8 37.0873 110.904 37.1613 110.813C37.1503 110.651 37.4253 109.483 37.4903 109.263L37.5722 108.923C37.7032 108.2 38.7883 103.949 39.1403 103.154C39.3813 103.104 39.4723 103.159 39.4823 102.83C39.4903 102.6 39.4872 102.43 39.3932 102.221C39.0252 101.963 38.8973 102.374 38.8003 102.644C38.1503 104.426 37.4273 107.447 36.9943 109.263Z" fill="white"/>
<path fill-rule="evenodd" clip-rule="evenodd" d="M91.6482 111.739L91.2372 113.697C90.9722 113.693 90.7912 113.59 90.7062 113.334C90.5162 112.77 90.9942 111.005 91.3142 110.733L91.8842 110.652L91.6482 111.739ZM88.6612 109.209C89.1822 109.073 89.5712 109.694 89.7152 110.111C89.7782 110.294 89.5562 110.63 89.4652 110.803C88.9782 111.729 88.2352 113.168 87.4822 113.809C86.0822 115.001 86.8612 112.082 87.0292 111.578C87.2722 110.851 87.8482 109.42 88.6612 109.209ZM91.5882 110.193C91.6522 109.97 92.0302 109.468 92.1822 109.316L92.0002 110.095C91.8772 110.148 91.7182 110.196 91.5882 110.193ZM92.5682 109.814C92.5772 109.746 92.7552 108.892 92.7942 108.851C92.8612 108.781 93.0342 108.806 93.1052 108.87C93.3612 109.098 92.7802 109.754 92.5682 109.814ZM90.7802 107.954L90.4322 108.754L90.0312 109.606C89.6612 109.092 89.7242 109.09 89.1662 108.762C88.7702 108.652 88.8232 108.654 88.4322 108.762C88.1242 108.938 87.9252 109.023 87.6822 109.304C87.4712 109.547 87.3242 109.786 87.1562 110.069C86.8822 110.532 86.5412 111.382 86.4222 111.929C86.2882 112.346 86.1912 112.967 86.1892 113.406C86.1882 113.661 86.2112 113.917 86.3042 114.152C86.5592 114.796 87.2632 114.596 87.6912 114.248C87.9502 114.037 88.1072 113.872 88.3162 113.612C89.2692 112.435 89.9272 110.954 90.5822 109.594C90.7072 109.334 90.8312 108.999 90.9682 108.759L91.8842 106.64C92.0562 106.127 93.7132 102.15 93.9052 101.93C93.8622 102.339 92.6072 107.499 92.4772 108.048C92.3682 108.506 92.4792 108.368 92.1412 108.657C91.1472 109.505 90.0102 111.965 90.1882 113.267C90.2142 113.401 90.2452 113.526 90.3072 113.647C90.4892 113.992 90.7772 114.112 91.1462 114.187C91.1282 114.482 91.0122 114.938 90.9592 115.251C90.6952 116.816 89.9122 121.238 90.8222 122.488C90.9252 122.629 91.0612 122.704 91.1242 122.787C91.3142 122.849 91.4752 122.938 91.6702 122.821C91.8452 122.716 91.8592 122.527 91.9662 122.427C91.9572 122.254 92.1092 121.91 91.7542 121.919C91.4902 121.925 91.5412 122.183 91.4292 122.377C90.2222 122.073 91.3232 115.88 91.5842 114.527C91.6992 113.937 91.4742 114.322 92.6272 113.765C93.3092 113.435 94.1932 112.765 94.7752 112.27C95.0722 112.018 95.9772 111.241 96.2222 110.962L97.1322 110.064C97.3712 109.817 97.1192 109.555 96.8942 109.652C96.8342 109.677 96.0992 110.428 95.9772 110.544C95.3352 111.151 94.7182 111.694 94.0302 112.241C93.6092 112.575 92.2602 113.545 91.7622 113.596L92.0312 112.29C92.1062 111.811 92.2552 111.026 92.3972 110.549C92.4392 110.411 92.6072 110.374 92.7442 110.294C93.2052 110.021 93.7962 109.398 93.6202 108.812C93.4802 108.347 93.0452 108.364 92.9212 108.32C92.8682 108.054 94.5102 102.041 94.5382 101.096C94.5522 100.604 94.1632 100.659 93.8912 100.97C93.3202 101.627 91.7452 105.743 91.1662 107.08C91.0652 107.313 90.9032 107.76 90.7802 107.954Z" fill="white"/>
</svg>
