<svg width="245" height="68" viewBox="0 0 245 68" fill="none" xmlns="http://www.w3.org/2000/svg">
<mask id="path-1-inside-1_15_2027" fill="white">
<path d="M79.7043 30.0369H68.4103C73.0253 27.4039 82.1463 18.2139 84.7693 10.3459L69.6093 10.3439L68.9093 12.4429H69.6383L70.0903 11.0859H81.5293C78.0213 20.1829 65.7123 30.0349 62.6963 30.0349L62.7053 30.0369H62.6963V30.7799H79.4573H80.1853L80.8863 28.6799H80.1573"/>
</mask>
<path d="M79.7043 30.0369H68.4103C73.0253 27.4039 82.1463 18.2139 84.7693 10.3459L69.6093 10.3439L68.9093 12.4429H69.6383L70.0903 11.0859H81.5293C78.0213 20.1829 65.7123 30.0349 62.6963 30.0349L62.7053 30.0369H62.6963V30.7799H79.4573H80.1853L80.8863 28.6799H80.1573" fill="#0C0A09"/>
<path d="M68.4103 30.0369V30.1369H68.0332L68.3607 29.95L68.4103 30.0369ZM84.7693 10.3459L84.7693 10.2459L84.908 10.2459L84.8642 10.3775L84.7693 10.3459ZM69.6093 10.3439L69.5144 10.3123L69.5372 10.2439L69.6093 10.2439L69.6093 10.3439ZM68.9093 12.4429V12.5429H68.7705L68.8144 12.4113L68.9093 12.4429ZM69.6383 12.4429L69.7332 12.4745L69.7104 12.5429H69.6383V12.4429ZM70.0903 11.0859L69.9954 11.0543L70.0182 10.9859H70.0903V11.0859ZM81.5293 11.0859V10.9859H81.675L81.6226 11.1219L81.5293 11.0859ZM62.6963 30.0349L62.6746 30.1325L62.6963 29.9349V30.0349ZM62.7053 30.0369L62.727 29.9393L62.7053 30.1369V30.0369ZM62.6963 30.0369H62.5963V29.9369H62.6963V30.0369ZM62.6963 30.7799V30.8799H62.5963V30.7799H62.6963ZM80.1853 30.7799L80.2802 30.8116L80.2573 30.8799H80.1853V30.7799ZM80.8863 28.6799V28.5799H81.0251L80.9811 28.7116L80.8863 28.6799ZM79.7043 30.0369V30.1369H68.4103V30.0369V29.9369H79.7043V30.0369ZM68.4103 30.0369L68.3607 29.95C70.6549 28.6412 74.0804 25.6944 77.2618 22.0884C80.443 18.4825 83.3691 14.2298 84.6744 10.3143L84.7693 10.3459L84.8642 10.3775C83.5465 14.33 80.6005 18.6063 77.4118 22.2207C74.2231 25.8349 70.7807 28.7996 68.4599 30.1238L68.4103 30.0369ZM84.7693 10.3459L84.7693 10.4459L69.6093 10.4439L69.6093 10.3439L69.6093 10.2439L84.7693 10.2459L84.7693 10.3459ZM69.6093 10.3439L69.7042 10.3755L69.0042 12.4745L68.9093 12.4429L68.8144 12.4113L69.5144 10.3123L69.6093 10.3439ZM68.9093 12.4429V12.3429H69.6383V12.4429V12.5429H68.9093V12.4429ZM69.6383 12.4429L69.5434 12.4113L69.9954 11.0543L70.0903 11.0859L70.1852 11.1175L69.7332 12.4745L69.6383 12.4429ZM70.0903 11.0859V10.9859H81.5293V11.0859V11.1859H70.0903V11.0859ZM81.5293 11.0859L81.6226 11.1219C79.8606 15.6912 75.8934 20.4409 71.9962 24.0452C70.0465 25.8483 68.1111 27.3677 66.4727 28.4371C65.6535 28.9717 64.907 29.3949 64.2689 29.6848C63.6338 29.9734 63.0954 30.1349 62.6963 30.1349V30.0349V29.9349C63.0511 29.9349 63.5572 29.7885 64.1862 29.5028C64.8122 29.2184 65.5496 28.8008 66.3634 28.2696C67.9907 27.2075 69.9173 25.6954 71.8604 23.8984C75.7487 20.3024 79.69 15.5776 81.436 11.0499L81.5293 11.0859ZM62.6963 30.0349L62.718 29.9373L62.727 29.9393L62.7053 30.0369L62.6836 30.1345L62.6746 30.1325L62.6963 30.0349ZM62.7053 30.0369V30.1369H62.6963V30.0369V29.9369H62.7053V30.0369ZM62.6963 30.0369H62.7963V30.7799H62.6963H62.5963V30.0369H62.6963ZM62.6963 30.7799V30.6799H79.4573V30.7799V30.8799H62.6963V30.7799ZM79.4573 30.7799V30.6799H80.1853V30.7799V30.8799H79.4573V30.7799ZM80.1853 30.7799L80.0904 30.7482L80.7914 28.6482L80.8863 28.6799L80.9811 28.7116L80.2802 30.8116L80.1853 30.7799ZM80.8863 28.6799V28.7799H80.1573V28.6799V28.5799H80.8863V28.6799Z" fill="#0C0A09" mask="url(#path-1-inside-1_15_2027)"/>
<path d="M79.7043 30.0369H68.4103C73.0253 27.4039 82.1463 18.2139 84.7693 10.3459L69.6093 10.3439L68.9093 12.4429H69.6383L70.0903 11.0859H81.5293C78.0213 20.1829 65.7123 30.0349 62.6963 30.0349L62.7053 30.0369H62.6963V30.7799H79.4573H80.1853L80.8863 28.6799H80.1573L79.7043 30.0369Z" fill="#0C0A09" stroke="#0C0A09" stroke-width="0.75" stroke-miterlimit="10"/>
<mask id="path-4-inside-2_15_2027" fill="white">
<path d="M49.4973 30.781C45.4793 30.781 47.6263 25.011 48.8583 21.305C50.9903 14.904 53.6703 11.83 56.3073 11.83C60.4123 11.83 59.7213 15.804 59.2093 17.555L57.8263 21.705C54.7383 30.595 51.2893 30.781 49.4973 30.781ZM64.8793 11.0859H61.3663L60.5533 13.525C60.0823 12.186 58.9023 11.087 56.3073 11.087C53.5153 11.087 48.1383 12.936 45.3463 21.305C42.1303 30.952 48.3913 31.5229 49.4973 31.5229C51.2473 31.5229 53.2913 31.224 55.2973 29.293L54.8013 30.78H55.3443H60.1783L60.4253 30.037H58.5613"/>
</mask>
<path d="M49.4973 30.781C45.4793 30.781 47.6263 25.011 48.8583 21.305C50.9903 14.904 53.6703 11.83 56.3073 11.83C60.4123 11.83 59.7213 15.804 59.2093 17.555L57.8263 21.705C54.7383 30.595 51.2893 30.781 49.4973 30.781ZM64.8793 11.0859H61.3663L60.5533 13.525C60.0823 12.186 58.9023 11.087 56.3073 11.087C53.5153 11.087 48.1383 12.936 45.3463 21.305C42.1303 30.952 48.3913 31.5229 49.4973 31.5229C51.2473 31.5229 53.2913 31.224 55.2973 29.293L54.8013 30.78H55.3443H60.1783L60.4253 30.037H58.5613" fill="#0C0A09"/>
<path d="M48.8583 21.305L48.7634 21.2734L48.7635 21.2734L48.8583 21.305ZM59.2093 17.555L59.3054 17.583L59.3042 17.5866L59.2093 17.555ZM57.8263 21.705L57.9212 21.7366L57.9208 21.7378L57.8263 21.705ZM61.3663 11.0859L61.2714 11.0543L61.2942 10.9859H61.3663V11.0859ZM60.5533 13.525L60.6482 13.5566L60.5559 13.8335L60.459 13.5581L60.5533 13.525ZM45.3463 21.305L45.2515 21.2733L45.2515 21.2733L45.3463 21.305ZM55.2973 29.293L55.228 29.2209L55.3922 29.3246L55.2973 29.293ZM54.8013 30.78V30.88H54.6626L54.7065 30.7483L54.8013 30.78ZM60.1783 30.78L60.2732 30.8115L60.2505 30.88H60.1783V30.78ZM60.4253 30.037V29.937H60.5639L60.5202 30.0685L60.4253 30.037ZM49.4973 30.781V30.881C48.4655 30.881 47.8086 30.5079 47.4425 29.8714C47.0821 29.2449 47.0147 28.382 47.1096 27.4229C47.2995 25.5031 48.1494 23.1205 48.7634 21.2734L48.8583 21.305L48.9532 21.3365C48.3353 23.1954 47.4957 25.5509 47.3086 27.4425C47.215 28.3892 47.2872 29.2004 47.6158 29.7716C47.9386 30.3328 48.5201 30.681 49.4973 30.681V30.781ZM48.8583 21.305L48.7635 21.2734C49.8314 18.0669 51.0391 15.6858 52.3156 14.1043C53.5917 12.5233 54.9467 11.73 56.3073 11.73V11.83V11.93C55.031 11.93 53.7274 12.6736 52.4713 14.2299C51.2155 15.7856 50.0172 18.142 48.9532 21.3366L48.8583 21.305ZM56.3073 11.83V11.73C57.3497 11.73 58.1 11.9824 58.6267 12.3999C59.1534 12.8174 59.4454 13.3914 59.5872 14.0136C59.8696 15.2523 59.5622 16.7045 59.3053 17.583L59.2093 17.555L59.1134 17.5269C59.3685 16.6544 59.6626 15.2441 59.3922 14.0581C59.2577 13.4679 58.9847 12.9389 58.5024 12.5566C58.0201 12.1743 57.3175 11.93 56.3073 11.93V11.83ZM59.2093 17.555L59.3042 17.5866L57.9212 21.7366L57.8263 21.705L57.7315 21.6733L59.1145 17.5233L59.2093 17.555ZM57.8263 21.705L57.9208 21.7378C56.3738 26.1914 54.7312 28.4808 53.2376 29.6553C51.7393 30.8336 50.4018 30.881 49.4973 30.881V30.781V30.681C50.3848 30.681 51.6678 30.6353 53.114 29.4981C54.5649 28.3571 56.1909 26.1085 57.7319 21.6721L57.8263 21.705ZM64.8793 11.0859V11.1859H61.3663V11.0859V10.9859H64.8793V11.0859ZM61.3663 11.0859L61.4612 11.1176L60.6482 13.5566L60.5533 13.525L60.4585 13.4933L61.2714 11.0543L61.3663 11.0859ZM60.5533 13.525L60.459 13.5581C60.2296 12.906 59.8292 12.3159 59.1722 11.8876C58.5143 11.4587 57.591 11.187 56.3073 11.187V11.087V10.987C57.6187 10.987 58.5828 11.2647 59.2814 11.7201C59.9809 12.176 60.406 12.8049 60.6477 13.4918L60.5533 13.525ZM56.3073 11.087V11.187C53.5603 11.187 48.2202 13.0066 45.4412 21.3366L45.3463 21.305L45.2515 21.2733C48.0565 12.8653 53.4704 10.987 56.3073 10.987V11.087ZM45.3463 21.305L45.4412 21.3366C43.8387 26.1434 44.6087 28.652 45.873 29.9621C47.1457 31.2809 48.9526 31.4229 49.4973 31.4229V31.5229V31.6229C48.936 31.6229 47.0594 31.4795 45.7291 30.101C44.3905 28.7139 43.6379 26.1135 45.2515 21.2733L45.3463 21.305ZM49.4973 31.5229V31.4229C51.2326 31.4229 53.2473 31.1275 55.228 29.2209L55.2973 29.293L55.3667 29.365C53.3353 31.3204 51.262 31.6229 49.4973 31.6229V31.5229ZM55.2973 29.293L55.3922 29.3246L54.8962 30.8116L54.8013 30.78L54.7065 30.7483L55.2025 29.2613L55.2973 29.293ZM54.8013 30.78V30.68H55.3443V30.78V30.88H54.8013V30.78ZM55.3443 30.78V30.68H60.1783V30.78V30.88H55.3443V30.78ZM60.1783 30.78L60.0834 30.7484L60.3304 30.0054L60.4253 30.037L60.5202 30.0685L60.2732 30.8115L60.1783 30.78ZM60.4253 30.037V30.137H58.5613V30.037V29.937H60.4253V30.037Z" fill="#0C0A09" mask="url(#path-4-inside-2_15_2027)"/>
<path d="M49.4973 30.781C45.4793 30.781 47.6263 25.011 48.8583 21.305C50.9903 14.904 53.6703 11.83 56.3073 11.83C60.4123 11.83 59.7213 15.804 59.2093 17.555L57.8263 21.705C54.7383 30.595 51.2893 30.781 49.4973 30.781ZM64.8793 11.0859H61.3663L60.5533 13.525C60.0823 12.186 58.9023 11.087 56.3073 11.087C53.5153 11.087 48.1383 12.936 45.3463 21.305C42.1303 30.952 48.3913 31.5229 49.4973 31.5229C51.2473 31.5229 53.2913 31.224 55.2973 29.293L54.8013 30.78H55.3443H60.1783L60.4253 30.037H58.5613L64.8793 11.0859Z" fill="#0C0A09" stroke="#0C0A09" stroke-width="0.75" stroke-miterlimit="10"/>
<mask id="path-7-inside-3_15_2027" fill="white">
<path d="M13.2253 16.336L11.3883 21.8329H12.1183C12.6883 20.1179 14.9003 17.079 18.4003 17.079H20.3253C15.8383 30.179 11.2363 30.78 8.16128 30.78C4.54328 30.78 2.07229 27.7279 5.86629 16.336C9.53629 5.34495 14.6213 1.89296 18.2823 1.89296C21.5213 1.89296 22.8593 4.04596 20.9803 11.442C22.7183 11.442 25.7023 10.0059 25.6733 8.26895C25.5873 3.06795 22.2593 1.14995 18.2823 1.14995C14.1383 1.14995 6.50428 3.89795 2.36128 16.336C-1.43372 27.7209 3.10328 31.5229 8.16128 31.5229C12.7643 31.5229 19.4863 30.149 24.0893 16.336"/>
</mask>
<path d="M13.2253 16.336L11.3883 21.8329H12.1183C12.6883 20.1179 14.9003 17.079 18.4003 17.079H20.3253C15.8383 30.179 11.2363 30.78 8.16128 30.78C4.54328 30.78 2.07229 27.7279 5.86629 16.336C9.53629 5.34495 14.6213 1.89296 18.2823 1.89296C21.5213 1.89296 22.8593 4.04596 20.9803 11.442C22.7183 11.442 25.7023 10.0059 25.6733 8.26895C25.5873 3.06795 22.2593 1.14995 18.2823 1.14995C14.1383 1.14995 6.50428 3.89795 2.36128 16.336C-1.43372 27.7209 3.10328 31.5229 8.16128 31.5229C12.7643 31.5229 19.4863 30.149 24.0893 16.336" fill="#0C0A09"/>
<path d="M11.3883 21.8329V21.9329H11.2494L11.2934 21.8013L11.3883 21.8329ZM12.1183 21.8329L12.2132 21.8645L12.1904 21.9329H12.1183V21.8329ZM20.3253 17.079V16.979H20.4653L20.4199 17.1114L20.3253 17.079ZM5.86629 16.336L5.77141 16.3044L5.77143 16.3043L5.86629 16.336ZM20.9803 11.442V11.542H20.8517L20.8834 11.4173L20.9803 11.442ZM25.6733 8.26895L25.5733 8.27062L25.5733 8.2706L25.6733 8.26895ZM2.36128 16.336L2.45616 16.3676L2.45615 16.3676L2.36128 16.336ZM13.2253 16.336L13.3201 16.3676L11.4831 21.8646L11.3883 21.8329L11.2934 21.8013L13.1305 16.3043L13.2253 16.336ZM11.3883 21.8329V21.7329H12.1183V21.8329V21.9329H11.3883V21.8329ZM12.1183 21.8329L12.0234 21.8014C12.3138 20.9275 13.0189 19.7246 14.0929 18.7391C15.1683 17.7525 16.6194 16.979 18.4003 16.979V17.079V17.179C16.6812 17.179 15.2763 17.9249 14.2281 18.8865C13.1787 19.8493 12.4927 21.0234 12.2132 21.8645L12.1183 21.8329ZM18.4003 17.079V16.979H20.3253V17.079V17.179H18.4003V17.079ZM20.3253 17.079L20.4199 17.1114C18.174 23.6683 15.8943 27.1133 13.7787 28.918C11.6571 30.7278 9.70988 30.88 8.16128 30.88V30.78V30.68C9.68768 30.68 11.579 30.5316 13.6489 28.7659C15.7247 26.9951 17.9896 23.5896 20.2307 17.0466L20.3253 17.079ZM8.16128 30.78V30.88C7.24337 30.88 6.38903 30.6864 5.6865 30.2077C4.98255 29.7281 4.44086 28.9688 4.1378 27.8562C3.53378 25.6389 3.87338 22.0034 5.77141 16.3044L5.86629 16.336L5.96116 16.3675C4.06519 22.0605 3.74329 25.647 4.33077 27.8037C4.62345 28.8781 5.14076 29.5938 5.79912 30.0424C6.45891 30.492 7.2702 30.68 8.16128 30.68V30.78ZM5.86629 16.336L5.77143 16.3043C9.44507 5.30239 14.5535 1.79296 18.2823 1.79296V1.89296V1.99296C14.6891 1.99296 9.6275 5.38751 5.96114 16.3676L5.86629 16.336ZM18.2823 1.89296V1.79296C19.1019 1.79296 19.8122 1.92897 20.3844 2.25825C20.9592 2.58901 21.3859 3.10977 21.6451 3.86135C22.1601 5.35453 22.0169 7.76768 21.0772 11.4666L20.9803 11.442L20.8834 11.4173C21.8227 7.72023 21.95 5.35889 21.456 3.92656C21.2107 3.21539 20.813 2.73565 20.2847 2.4316C19.7537 2.12607 19.0822 1.99296 18.2823 1.99296V1.89296ZM20.9803 11.442V11.342C21.8273 11.342 22.9902 10.9901 23.9379 10.4211C24.4109 10.1371 24.8252 9.80207 25.1185 9.43509C25.4117 9.06824 25.5801 8.6748 25.5733 8.27062L25.6733 8.26895L25.7733 8.26728C25.781 8.73159 25.5872 9.16903 25.2748 9.55996C24.9624 9.95077 24.5276 10.3004 24.0409 10.5926C23.0694 11.1758 21.8713 11.542 20.9803 11.542V11.442ZM25.6733 8.26895L25.5733 8.2706C25.5307 5.69248 24.6857 3.9427 23.3725 2.83553C22.0566 1.72611 20.2563 1.24995 18.2823 1.24995V1.14995V1.04995C20.2853 1.04995 22.1375 1.53279 23.5014 2.68262C24.8679 3.8347 25.7299 5.64441 25.7733 8.26729L25.6733 8.26895ZM18.2823 1.14995V1.24995C14.1856 1.24995 6.58693 3.96625 2.45616 16.3676L2.36128 16.336L2.26641 16.3043C6.42163 3.82965 14.091 1.04995 18.2823 1.04995V1.14995ZM2.36128 16.336L2.45615 16.3676C0.562112 22.0497 0.756688 25.8134 2.02924 28.151C3.2986 30.4828 5.65642 31.4229 8.16128 31.4229V31.5229V31.6229C5.60814 31.6229 3.16846 30.6621 1.85358 28.2466C0.541874 25.837 0.36545 22.0072 2.26641 16.3043L2.36128 16.336ZM8.16128 31.5229V31.4229C10.4517 31.4229 13.2588 31.0813 16.0663 29.0286C18.8753 26.9748 21.6969 23.1988 23.9944 16.3043L24.0893 16.336L24.1842 16.3676C21.8786 23.2861 19.0378 27.1036 16.1843 29.19C13.3292 31.2776 10.4739 31.6229 8.16128 31.6229V31.5229Z" fill="#0C0A09" mask="url(#path-7-inside-3_15_2027)"/>
<path d="M13.2253 16.336L11.3883 21.8329H12.1183C12.6883 20.1179 14.9003 17.079 18.4003 17.079H20.3253C15.8383 30.179 11.2363 30.78 8.16128 30.78C4.54328 30.78 2.07229 27.7279 5.86629 16.336C9.53629 5.34495 14.6213 1.89296 18.2823 1.89296C21.5213 1.89296 22.8593 4.04596 20.9803 11.442C22.7183 11.442 25.7023 10.0059 25.6733 8.26895C25.5873 3.06795 22.2593 1.14995 18.2823 1.14995C14.1383 1.14995 6.50428 3.89795 2.36128 16.336C-1.43372 27.7209 3.10328 31.5229 8.16128 31.5229C12.7643 31.5229 19.4863 30.149 24.0893 16.336H13.2253Z" fill="#0C0A09" stroke="#0C0A09" stroke-width="0.75" stroke-miterlimit="10"/>
<mask id="path-10-inside-4_15_2027" fill="white">
<path d="M88.8653 30.781C84.8473 30.781 86.9943 25.011 88.2263 21.305C90.3583 14.904 93.0383 11.83 95.6753 11.83C99.7803 11.83 99.0903 15.804 98.5773 17.555L97.1943 21.706C94.1063 30.595 90.6573 30.781 88.8653 30.781ZM104.247 11.0859H100.734L99.9213 13.525C99.4503 12.186 98.2703 11.087 95.6753 11.087C92.8833 11.087 87.5063 12.936 84.7143 21.305C81.4993 30.952 87.7593 31.5229 88.8653 31.5229C90.6153 31.5229 92.6593 31.224 94.6653 29.293L94.1693 30.78H99.5463L99.7933 30.037H97.9293"/>
</mask>
<path d="M88.8653 30.781C84.8473 30.781 86.9943 25.011 88.2263 21.305C90.3583 14.904 93.0383 11.83 95.6753 11.83C99.7803 11.83 99.0903 15.804 98.5773 17.555L97.1943 21.706C94.1063 30.595 90.6573 30.781 88.8653 30.781ZM104.247 11.0859H100.734L99.9213 13.525C99.4503 12.186 98.2703 11.087 95.6753 11.087C92.8833 11.087 87.5063 12.936 84.7143 21.305C81.4993 30.952 87.7593 31.5229 88.8653 31.5229C90.6153 31.5229 92.6593 31.224 94.6653 29.293L94.1693 30.78H99.5463L99.7933 30.037H97.9293" fill="#0C0A09"/>
<path d="M88.2263 21.305L88.1314 21.2734L88.1314 21.2734L88.2263 21.305ZM98.5773 17.555L98.6734 17.5831L98.6722 17.5866L98.5773 17.555ZM97.1943 21.706L97.2892 21.7376L97.2888 21.7388L97.1943 21.706ZM100.734 11.0859L100.639 11.0543L100.662 10.9859H100.734V11.0859ZM99.9213 13.525L100.016 13.5566L99.9239 13.8335L99.827 13.5581L99.9213 13.525ZM84.7143 21.305L84.6195 21.2733L84.6195 21.2733L84.7143 21.305ZM94.6653 29.293L94.596 29.2209L94.7602 29.3246L94.6653 29.293ZM94.1693 30.78V30.88H94.0306L94.0745 30.7483L94.1693 30.78ZM99.5463 30.78L99.6412 30.8115L99.6185 30.88H99.5463V30.78ZM99.7933 30.037V29.937H99.932L99.8882 30.0685L99.7933 30.037ZM88.8653 30.781V30.881C87.8335 30.881 87.1766 30.5079 86.8105 29.8714C86.4501 29.2449 86.3827 28.382 86.4775 27.4229C86.6674 25.5031 87.5174 23.1205 88.1314 21.2734L88.2263 21.305L88.3212 21.3365C87.7033 23.1954 86.8637 25.5509 86.6766 27.4425C86.5829 28.3892 86.6552 29.2004 86.9838 29.7716C87.3066 30.3328 87.8881 30.681 88.8653 30.681V30.781ZM88.2263 21.305L88.1314 21.2734C89.1994 18.0669 90.4071 15.6858 91.6836 14.1043C92.9597 12.5233 94.3147 11.73 95.6753 11.73V11.83V11.93C94.399 11.93 93.0954 12.6736 91.8393 14.2299C90.5835 15.7856 89.3852 18.142 88.3212 21.3366L88.2263 21.305ZM95.6753 11.83V11.73C96.7177 11.73 97.4681 11.9824 97.9948 12.3999C98.5216 12.8174 98.8137 13.3914 98.9556 14.0136C99.2381 15.2523 98.9307 16.7045 98.6733 17.5831L98.5773 17.555L98.4814 17.5268C98.737 16.6544 99.0311 15.2441 98.7606 14.0581C98.626 13.4679 98.3529 12.9389 97.8706 12.5566C97.3882 12.1743 96.6855 11.93 95.6753 11.93V11.83ZM98.5773 17.555L98.6722 17.5866L97.2892 21.7376L97.1943 21.706L97.0995 21.6743L98.4825 17.5233L98.5773 17.555ZM97.1943 21.706L97.2888 21.7388C95.7418 26.1919 94.0992 28.4811 92.6056 29.6554C91.1073 30.8336 89.7698 30.881 88.8653 30.881V30.781V30.681C89.7528 30.681 91.0359 30.6353 92.482 29.4982C93.933 28.3574 95.5589 26.109 97.0999 21.6731L97.1943 21.706ZM104.247 11.0859V11.1859H100.734V11.0859V10.9859H104.247V11.0859ZM100.734 11.0859L100.829 11.1176L100.016 13.5566L99.9213 13.525L99.8265 13.4933L100.639 11.0543L100.734 11.0859ZM99.9213 13.525L99.827 13.5581C99.5976 12.906 99.1972 12.3159 98.5402 11.8876C97.8823 11.4587 96.959 11.187 95.6753 11.187V11.087V10.987C96.9867 10.987 97.9508 11.2647 98.6494 11.7201C99.3489 12.176 99.774 12.8049 100.016 13.4918L99.9213 13.525ZM95.6753 11.087V11.187C92.9283 11.187 87.5882 13.0066 84.8092 21.3366L84.7143 21.305L84.6195 21.2733C87.4245 12.8653 92.8384 10.987 95.6753 10.987V11.087ZM84.7143 21.305L84.8092 21.3366C83.2073 26.1434 83.9772 28.652 85.2414 29.9621C86.514 31.2809 88.3206 31.4229 88.8653 31.4229V31.5229V31.6229C88.304 31.6229 86.4277 31.4795 85.0975 30.101C83.759 28.7139 83.0064 26.1135 84.6195 21.2733L84.7143 21.305ZM88.8653 31.5229V31.4229C90.6006 31.4229 92.6153 31.1275 94.596 29.2209L94.6653 29.293L94.7347 29.365C92.7033 31.3204 90.63 31.6229 88.8653 31.6229V31.5229ZM94.6653 29.293L94.7602 29.3246L94.2642 30.8116L94.1693 30.78L94.0745 30.7483L94.5705 29.2613L94.6653 29.293ZM94.1693 30.78V30.68H99.5463V30.78V30.88H94.1693V30.78ZM99.5463 30.78L99.4514 30.7484L99.6985 30.0054L99.7933 30.037L99.8882 30.0685L99.6412 30.8115L99.5463 30.78ZM99.7933 30.037V30.137H97.9293V30.037V29.937H99.7933V30.037Z" fill="#0C0A09" mask="url(#path-10-inside-4_15_2027)"/>
<path d="M88.8653 30.781C84.8473 30.781 86.9943 25.011 88.2263 21.305C90.3583 14.904 93.0383 11.83 95.6753 11.83C99.7803 11.83 99.0903 15.804 98.5773 17.555L97.1943 21.706C94.1063 30.595 90.6573 30.781 88.8653 30.781ZM104.247 11.0859H100.734L99.9213 13.525C99.4503 12.186 98.2703 11.087 95.6753 11.087C92.8833 11.087 87.5063 12.936 84.7143 21.305C81.4993 30.952 87.7593 31.5229 88.8653 31.5229C90.6153 31.5229 92.6593 31.224 94.6653 29.293L94.1693 30.78H99.5463L99.7933 30.037H97.9293L104.247 11.0859Z" fill="#0C0A09" stroke="#0C0A09" stroke-width="0.75" stroke-miterlimit="10"/>
<mask id="path-13-inside-5_15_2027" fill="white">
<path d="M184.355 30.781C180.338 30.781 182.485 25.011 183.717 21.305C185.849 14.904 188.529 11.83 191.166 11.83C195.271 11.83 194.58 15.804 194.068 17.555L192.684 21.706C189.597 30.595 186.148 30.781 184.355 30.781ZM199.738 11.0859H196.225L195.411 13.525C194.941 12.186 193.761 11.087 191.166 11.087C188.374 11.087 182.997 12.936 180.205 21.305C176.989 30.952 183.25 31.5229 184.355 31.5229C186.106 31.5229 188.15 31.224 190.155 29.293L189.66 30.78H195.036L195.284 30.037H193.42"/>
</mask>
<path d="M184.355 30.781C180.338 30.781 182.485 25.011 183.717 21.305C185.849 14.904 188.529 11.83 191.166 11.83C195.271 11.83 194.58 15.804 194.068 17.555L192.684 21.706C189.597 30.595 186.148 30.781 184.355 30.781ZM199.738 11.0859H196.225L195.411 13.525C194.941 12.186 193.761 11.087 191.166 11.087C188.374 11.087 182.997 12.936 180.205 21.305C176.989 30.952 183.25 31.5229 184.355 31.5229C186.106 31.5229 188.15 31.224 190.155 29.293L189.66 30.78H195.036L195.284 30.037H193.42" fill="#0C0A09"/>
<path d="M183.717 21.305L183.622 21.2734L183.622 21.2734L183.717 21.305ZM194.068 17.555L194.164 17.583L194.163 17.5866L194.068 17.555ZM192.684 21.706L192.779 21.7376L192.779 21.7388L192.684 21.706ZM196.225 11.0859L196.13 11.0543L196.153 10.9859H196.225V11.0859ZM195.411 13.525L195.506 13.5566L195.414 13.8337L195.317 13.5581L195.411 13.525ZM180.205 21.305L180.11 21.2733L180.11 21.2733L180.205 21.305ZM190.155 29.293L190.086 29.2209L190.25 29.3245L190.155 29.293ZM189.66 30.78V30.88H189.522L189.565 30.7484L189.66 30.78ZM195.036 30.78L195.131 30.8116L195.108 30.88H195.036V30.78ZM195.284 30.037V29.937H195.423L195.379 30.0686L195.284 30.037ZM184.355 30.781V30.881C183.324 30.881 182.667 30.5079 182.301 29.8713C181.941 29.2449 181.874 28.3819 181.968 27.4229C182.158 25.5031 183.008 23.1205 183.622 21.2734L183.717 21.305L183.812 21.3365C183.194 23.1954 182.355 25.5509 182.167 27.4426C182.074 28.3892 182.146 29.2004 182.474 29.7716C182.797 30.3328 183.378 30.681 184.355 30.681V30.781ZM183.717 21.305L183.622 21.2734C184.69 18.0669 185.898 15.6858 187.175 14.1043C188.451 12.5233 189.806 11.73 191.166 11.73V11.83V11.93C189.89 11.93 188.586 12.6736 187.33 14.2299C186.075 15.7856 184.876 18.142 183.812 21.3366L183.717 21.305ZM191.166 11.83V11.73C192.209 11.73 192.959 11.9824 193.486 12.3999C194.012 12.8174 194.304 13.3914 194.446 14.0136C194.729 15.2523 194.421 16.7045 194.164 17.583L194.068 17.555L193.972 17.5269C194.228 16.6544 194.522 15.2441 194.251 14.0581C194.117 13.4679 193.844 12.9389 193.361 12.5566C192.879 12.1743 192.177 11.93 191.166 11.93V11.83ZM194.068 17.555L194.163 17.5866L192.779 21.7376L192.684 21.706L192.589 21.6743L193.974 17.5233L194.068 17.555ZM192.684 21.706L192.779 21.7388C191.232 26.1919 189.59 28.4811 188.096 29.6554C186.598 30.8336 185.26 30.881 184.355 30.881V30.781V30.681C185.243 30.681 186.527 30.6353 187.973 29.4982C189.424 28.3574 191.049 26.109 192.59 21.6732L192.684 21.706ZM199.738 11.0859V11.1859H196.225V11.0859V10.9859H199.738V11.0859ZM196.225 11.0859L196.32 11.1176L195.506 13.5566L195.411 13.525L195.316 13.4933L196.13 11.0543L196.225 11.0859ZM195.411 13.525L195.317 13.5581C195.088 12.906 194.688 12.3159 194.031 11.8876C193.373 11.4587 192.45 11.187 191.166 11.187V11.087V10.987C192.478 10.987 193.442 11.2647 194.14 11.7201C194.84 12.176 195.265 12.8049 195.506 13.4918L195.411 13.525ZM191.166 11.087V11.187C188.419 11.187 183.079 13.0066 180.3 21.3366L180.205 21.305L180.11 21.2733C182.915 12.8653 188.329 10.987 191.166 10.987V11.087ZM180.205 21.305L180.3 21.3366C178.698 26.1434 179.468 28.652 180.732 29.9621C182.004 31.2809 183.811 31.4229 184.355 31.4229V31.5229V31.6229C183.795 31.6229 181.918 31.4795 180.588 30.101C179.249 28.7139 178.497 26.1135 180.11 21.2733L180.205 21.305ZM184.355 31.5229V31.4229C186.092 31.4229 188.106 31.1275 190.086 29.2209L190.155 29.293L190.225 29.365C188.194 31.3204 186.121 31.6229 184.355 31.6229V31.5229ZM190.155 29.293L190.25 29.3245L189.755 30.8115L189.66 30.78L189.565 30.7484L190.06 29.2614L190.155 29.293ZM189.66 30.78V30.68H195.036V30.78V30.88H189.66V30.78ZM195.036 30.78L194.941 30.7483L195.189 30.0053L195.284 30.037L195.379 30.0686L195.131 30.8116L195.036 30.78ZM195.284 30.037V30.137H193.42V30.037V29.937H195.284V30.037Z" fill="#0C0A09" mask="url(#path-13-inside-5_15_2027)"/>
<path d="M184.355 30.781C180.338 30.781 182.485 25.011 183.717 21.305C185.849 14.904 188.529 11.83 191.166 11.83C195.271 11.83 194.58 15.804 194.068 17.555L192.684 21.706C189.597 30.595 186.148 30.781 184.355 30.781ZM199.738 11.0859H196.225L195.411 13.525C194.941 12.186 193.761 11.087 191.166 11.087C188.374 11.087 182.997 12.936 180.205 21.305C176.989 30.952 183.25 31.5229 184.355 31.5229C186.106 31.5229 188.15 31.224 190.155 29.293L189.66 30.78H195.036L195.284 30.037H193.42L199.738 11.0859Z" fill="#0C0A09" stroke="#0C0A09" stroke-width="0.75" stroke-miterlimit="10"/>
<mask id="path-16-inside-6_15_2027" fill="white">
<path d="M225.574 30.781C221.556 30.781 223.703 25.011 224.936 21.305C227.067 14.904 229.748 11.83 232.384 11.83C236.489 11.83 235.799 15.804 235.286 17.554L233.903 21.706C230.815 30.595 227.366 30.781 225.574 30.781ZM244.015 1.90596H239.181L238.934 2.64795H240.255L236.63 13.525C236.159 12.186 234.979 11.087 232.384 11.087C229.592 11.087 224.215 12.936 221.423 21.305C218.207 30.952 224.468 31.5229 225.574 31.5229C227.324 31.5229 229.368 31.224 231.374 29.293L230.878 30.78H236.255L236.502 30.037H234.638"/>
</mask>
<path d="M225.574 30.781C221.556 30.781 223.703 25.011 224.936 21.305C227.067 14.904 229.748 11.83 232.384 11.83C236.489 11.83 235.799 15.804 235.286 17.554L233.903 21.706C230.815 30.595 227.366 30.781 225.574 30.781ZM244.015 1.90596H239.181L238.934 2.64795H240.255L236.63 13.525C236.159 12.186 234.979 11.087 232.384 11.087C229.592 11.087 224.215 12.936 221.423 21.305C218.207 30.952 224.468 31.5229 225.574 31.5229C227.324 31.5229 229.368 31.224 231.374 29.293L230.878 30.78H236.255L236.502 30.037H234.638" fill="#0C0A09"/>
<path d="M224.936 21.305L224.841 21.2734L224.841 21.2734L224.936 21.305ZM235.286 17.554L235.382 17.5821L235.381 17.5856L235.286 17.554ZM233.903 21.706L233.998 21.7376L233.998 21.7388L233.903 21.706ZM239.181 1.90596L239.086 1.87437L239.109 1.80596H239.181V1.90596ZM238.934 2.64795V2.74795H238.796L238.839 2.61636L238.934 2.64795ZM240.255 2.64795V2.54795H240.394L240.35 2.67957L240.255 2.64795ZM236.63 13.525L236.725 13.5566L236.633 13.8336L236.536 13.5581L236.63 13.525ZM221.423 21.305L221.328 21.2733L221.328 21.2733L221.423 21.305ZM231.374 29.293L231.305 29.2209L231.469 29.3246L231.374 29.293ZM230.878 30.78V30.88H230.74L230.783 30.7483L230.878 30.78ZM236.255 30.78L236.35 30.8115L236.327 30.88H236.255V30.78ZM236.502 30.037V29.937H236.641L236.597 30.0685L236.502 30.037ZM225.574 30.781V30.881C224.543 30.881 223.886 30.5079 223.519 29.8714C223.159 29.2449 223.092 28.3819 223.187 27.4229C223.377 25.503 224.227 23.1205 224.841 21.2734L224.936 21.305L225.031 21.3365C224.413 23.1954 223.573 25.5509 223.386 27.4426C223.292 28.3892 223.364 29.2004 223.693 29.7716C224.016 30.3328 224.597 30.681 225.574 30.681V30.781ZM224.936 21.305L224.841 21.2734C225.909 18.0669 227.117 15.6858 228.393 14.1043C229.669 12.5233 231.024 11.73 232.384 11.73V11.83V11.93C231.108 11.93 229.805 12.6736 228.549 14.2299C227.293 15.7856 226.095 18.142 225.031 21.3365L224.936 21.305ZM232.384 11.83V11.73C233.427 11.73 234.177 11.9824 234.704 12.3999C235.231 12.8174 235.523 13.3913 235.665 14.0135C235.947 15.252 235.64 16.704 235.382 17.5821L235.286 17.554L235.19 17.5258C235.446 16.6539 235.74 15.2439 235.47 14.0579C235.335 13.4678 235.062 12.9389 234.58 12.5566C234.097 12.1743 233.395 11.93 232.384 11.93V11.83ZM235.286 17.554L235.381 17.5856L233.998 21.7376L233.903 21.706L233.808 21.6744L235.191 17.5224L235.286 17.554ZM233.903 21.706L233.998 21.7388C232.451 26.1919 230.808 28.4811 229.315 29.6554C227.816 30.8336 226.479 30.881 225.574 30.881V30.781V30.681C226.462 30.681 227.745 30.6353 229.191 29.4982C230.642 28.3574 232.268 26.109 233.809 21.6731L233.903 21.706ZM244.015 1.90596V2.00596H239.181V1.90596V1.80596H244.015V1.90596ZM239.181 1.90596L239.276 1.93754L239.029 2.67954L238.934 2.64795L238.839 2.61636L239.086 1.87437L239.181 1.90596ZM238.934 2.64795V2.54795H240.255V2.64795V2.74795H238.934V2.64795ZM240.255 2.64795L240.35 2.67957L236.725 13.5566L236.63 13.525L236.535 13.4933L240.16 2.61633L240.255 2.64795ZM236.63 13.525L236.536 13.5581C236.307 12.906 235.906 12.3159 235.249 11.8876C234.591 11.4587 233.668 11.187 232.384 11.187V11.087V10.987C233.696 10.987 234.66 11.2647 235.358 11.7201C236.058 12.176 236.483 12.8049 236.725 13.4918L236.63 13.525ZM232.384 11.087V11.187C229.637 11.187 224.297 13.0066 221.518 21.3366L221.423 21.305L221.328 21.2733C224.133 12.8653 229.547 10.987 232.384 10.987V11.087ZM221.423 21.305L221.518 21.3366C219.916 26.1434 220.686 28.652 221.95 29.9621C223.223 31.2809 225.03 31.4229 225.574 31.4229V31.5229V31.6229C225.013 31.6229 223.136 31.4795 221.806 30.101C220.467 28.7139 219.715 26.1135 221.328 21.2733L221.423 21.305ZM225.574 31.5229V31.4229C227.31 31.4229 229.324 31.1275 231.305 29.2209L231.374 29.293L231.444 29.365C229.412 31.3204 227.339 31.6229 225.574 31.6229V31.5229ZM231.374 29.293L231.469 29.3246L230.973 30.8116L230.878 30.78L230.783 30.7483L231.279 29.2613L231.374 29.293ZM230.878 30.78V30.68H236.255V30.78V30.88H230.878V30.78ZM236.255 30.78L236.16 30.7484L236.407 30.0054L236.502 30.037L236.597 30.0685L236.35 30.8115L236.255 30.78ZM236.502 30.037V30.137H234.638V30.037V29.937H236.502V30.037Z" fill="#0C0A09" mask="url(#path-16-inside-6_15_2027)"/>
<path d="M225.574 30.781C221.556 30.781 223.703 25.011 224.936 21.305C227.067 14.904 229.748 11.83 232.384 11.83C236.489 11.83 235.799 15.804 235.286 17.554L233.903 21.706C230.815 30.595 227.366 30.781 225.574 30.781ZM244.015 1.90596H239.181L238.934 2.64795H240.255L236.63 13.525C236.159 12.186 234.979 11.087 232.384 11.087C229.592 11.087 224.215 12.936 221.423 21.305C218.207 30.952 224.468 31.5229 225.574 31.5229C227.324 31.5229 229.368 31.224 231.374 29.293L230.878 30.78H236.255L236.502 30.037H234.638L244.015 1.90596Z" fill="#0C0A09" stroke="#0C0A09" stroke-width="0.75" stroke-miterlimit="10"/>
<mask id="path-19-inside-7_15_2027" fill="white">
<path d="M114.609 1.89288H109.232L108.985 2.63488H111.088L101.706 30.7809H105.213H107.083L107.33 30.0369H105.455"/>
</mask>
<path d="M114.609 1.89288H109.232L108.985 2.63488H111.088L101.706 30.7809H105.213H107.083L107.33 30.0369H105.455" fill="#0C0A09"/>
<path d="M109.232 1.89288L109.137 1.8613L109.16 1.79288H109.232V1.89288ZM108.985 2.63488V2.73488H108.847L108.89 2.60329L108.985 2.63488ZM111.088 2.63488V2.53488H111.227L111.183 2.6665L111.088 2.63488ZM101.706 30.7809V30.8809H101.568L101.611 30.7493L101.706 30.7809ZM107.083 30.7809L107.178 30.8124L107.155 30.8809H107.083V30.7809ZM107.33 30.0369V29.9369H107.469L107.425 30.0684L107.33 30.0369ZM114.609 1.89288V1.99288H109.232V1.89288V1.79288H114.609V1.89288ZM109.232 1.89288L109.327 1.92446L109.08 2.66646L108.985 2.63488L108.89 2.60329L109.137 1.8613L109.232 1.89288ZM108.985 2.63488V2.53488H111.088V2.63488V2.73488H108.985V2.63488ZM111.088 2.63488L111.183 2.6665L101.801 30.8125L101.706 30.7809L101.611 30.7493L110.993 2.60325L111.088 2.63488ZM101.706 30.7809V30.6809H105.213V30.7809V30.8809H101.706V30.7809ZM105.213 30.7809V30.6809H107.083V30.7809V30.8809H105.213V30.7809ZM107.083 30.7809L106.988 30.7494L107.235 30.0054L107.33 30.0369L107.425 30.0684L107.178 30.8124L107.083 30.7809ZM107.33 30.0369V30.1369H105.455V30.0369V29.9369H107.33V30.0369Z" fill="#0C0A09" mask="url(#path-19-inside-7_15_2027)"/>
<path d="M114.609 1.89288H109.232L108.985 2.63488H111.088L101.706 30.7809H105.213H107.083L107.33 30.0369H105.455L114.609 1.89288Z" fill="#0C0A09" stroke="#0C0A09" stroke-width="0.75" stroke-miterlimit="10"/>
<path d="M25.832 30.7301L30.1064 17.5895V17.5885L30.1123 17.5787C30.8943 16.2452 31.9356 14.7962 33.2314 13.6803C34.5276 12.5641 36.0813 11.7789 37.8857 11.7789C38.8269 11.779 39.5095 11.8917 39.958 12.1901C40.412 12.4921 40.617 12.9776 40.6211 13.693C40.6251 14.4061 40.4301 15.3573 40.0762 16.6051C39.7219 17.854 39.2064 19.4055 38.5684 21.3209L35.4316 30.7301H40.7031L40.917 30.0865H39.0518L39.0742 30.0211L41.9863 21.2887C43.2616 17.4616 43.16 14.9236 42.2842 13.3453C41.4101 11.7704 39.7556 11.1364 37.8857 11.1364C35.0646 11.1364 32.8143 12.7149 31.0986 14.8551L31.0117 14.8082L35.1963 1.94299H29.9248L29.7109 2.58459H31.8135L31.792 2.651L22.4316 30.7301H25.832Z" fill="#0C0A09" stroke="#0C0A09" stroke-width="0.1"/>
<path d="M37.8853 11.0859C35.0433 11.0859 32.7803 12.6769 31.0593 14.8239L35.2653 1.89291H29.8893L29.6413 2.6349H31.7443L22.3623 30.7799H25.8693L30.1553 17.6039C31.7163 14.9419 34.3073 11.8289 37.8853 11.8289C41.6463 11.8289 41.0743 13.6409 38.5213 21.3049L35.3623 30.7799H38.8743H40.7393L40.9863 30.0369H39.1213L42.0333 21.3049C44.5873 13.6409 41.6463 11.0859 37.8853 11.0859Z" fill="#0C0A09" stroke="#0C0A09" stroke-width="0.75" stroke-miterlimit="10"/>
<path d="M129.487 30.7301L133.762 17.5895V17.5885L133.768 17.5787C134.55 16.2452 135.591 14.7962 136.886 13.6803C138.182 12.5641 139.736 11.7789 141.541 11.7789C142.482 11.779 143.165 11.8917 143.614 12.1901C144.068 12.4921 144.273 12.9777 144.277 13.693C144.281 14.4061 144.085 15.3573 143.731 16.6051C143.377 17.854 142.862 19.4055 142.223 21.3209L139.087 30.7301H144.358L144.572 30.0865H142.708L142.73 30.0211L145.64 21.2887C146.916 17.4615 146.815 14.9236 145.939 13.3453C145.065 11.7706 143.411 11.1365 141.541 11.1364C138.72 11.1364 136.47 12.7149 134.754 14.8551L134.667 14.8082L138.851 1.94299H133.58L133.366 2.58459H135.469L135.447 2.651L126.088 30.7301H129.487Z" fill="#0C0A09" stroke="#0C0A09" stroke-width="0.1"/>
<path d="M141.54 11.0859C138.698 11.0859 136.436 12.6769 134.714 14.8239L138.92 1.89291H133.544L133.296 2.6349H135.399L126.018 30.7799H129.524L133.811 17.6039C135.371 14.9419 137.962 11.8289 141.54 11.8289C145.302 11.8289 144.73 13.6409 142.176 21.3049L139.017 30.7799H144.394L144.641 30.0369H142.777L145.688 21.3049C148.243 13.6409 145.302 11.0859 141.54 11.0859Z" fill="#0C0A09" stroke="#0C0A09" stroke-width="0.75" stroke-miterlimit="10"/>
<path d="M201.884 30.7301L206.158 17.5895V17.5885L206.164 17.5787C206.945 16.2452 207.986 14.7962 209.281 13.6803C210.578 12.5641 212.132 11.7789 213.937 11.7789C214.878 11.779 215.56 11.8918 216.009 12.1901C216.463 12.4921 216.668 12.9776 216.672 13.693C216.676 14.4061 216.481 15.3573 216.127 16.6051C215.773 17.854 215.257 19.4054 214.618 21.3209L211.483 30.7301H216.753L216.968 30.0865H215.104L215.126 30.0211L218.037 21.2887C219.313 17.4616 219.211 14.9236 218.335 13.3453C217.461 11.7705 215.807 11.1365 213.937 11.1364C211.115 11.1364 208.866 12.7148 207.151 14.8551L207.064 14.8082L208.256 11.1373H202.986L202.772 11.7799H204.8L204.778 11.8453L198.483 30.7301H201.884Z" fill="#0C0A09" stroke="#0C0A09" stroke-width="0.1"/>
<path d="M213.936 11.0859C211.093 11.0859 208.832 12.6769 207.111 14.8239L208.325 11.0869H202.95L202.702 11.8299H204.73L198.413 30.7799H201.92L206.207 17.6039C207.766 14.9419 210.357 11.8289 213.936 11.8289C217.698 11.8289 217.125 13.6409 214.571 21.3049L211.413 30.7799H216.789L217.037 30.0369H215.173L218.084 21.3049C220.638 13.6409 217.698 11.0859 213.936 11.0859Z" fill="#0C0A09" stroke="#0C0A09" stroke-width="0.75" stroke-miterlimit="10"/>
<path d="M115.76 30.7311C117.962 30.7311 121.151 30.2637 123.625 26.6422H121.532C120.265 28.3116 119.149 29.1743 118.185 29.6188C117.216 30.0653 116.404 30.0875 115.76 30.0875C114.742 30.0874 114.061 29.7212 113.636 29.1071C113.213 28.496 113.05 27.6461 113.051 26.6891C113.054 24.7748 113.715 22.3996 114.331 20.5465C115.399 17.3466 116.605 14.9713 117.876 13.3951C119.147 11.8193 120.489 11.0358 121.827 11.0358C122.688 11.0358 123.285 11.2666 123.678 11.6461C124.07 12.0252 124.252 12.546 124.296 13.1139C124.384 14.2477 123.927 15.5873 123.468 16.4274V16.4283C122.322 18.5252 120.539 19.2298 118.897 19.3766C117.311 19.5183 115.853 19.1417 115.225 18.9996V19.7223C116.172 19.9718 118.371 20.7076 120.689 20.611C121.862 20.562 123.063 20.2993 124.145 19.653C125.226 19.0068 126.192 17.9749 126.892 16.3834C127.312 15.4307 127.425 14.582 127.308 13.8453C127.19 13.1087 126.841 12.4802 126.327 11.9694C125.299 10.9465 123.612 10.3942 121.827 10.3942C119.058 10.3942 113.701 12.2284 110.914 20.5778C109.311 25.3901 110.26 27.9208 111.727 29.2516C113.199 30.5874 115.209 30.731 115.76 30.7311Z" fill="#0C0A09" stroke="#0C0A09" stroke-width="0.1"/>
<path d="M115.174 18.9359V19.7599C117.016 20.2359 124.121 22.8049 126.937 16.4039C128.63 12.5639 125.414 10.3439 121.827 10.3439C119.035 10.3439 113.659 12.1929 110.866 20.5619C107.652 30.2079 114.653 30.7809 115.76 30.7809C117.987 30.7809 121.227 30.3049 123.721 26.5919H121.508C118.968 29.9489 117.044 30.0379 115.76 30.0379C111.743 30.0379 113.146 24.2679 114.378 20.5619C116.511 14.1679 119.192 11.0859 121.827 11.0859C125.236 11.0859 124.337 14.7329 123.424 16.4039C121.152 20.5619 116.361 19.1959 115.174 18.9359Z" fill="#0C0A09" stroke="#0C0A09" stroke-width="0.75" stroke-miterlimit="10"/>
<path d="M173.909 30.7301L175.709 25.3326H175.083C174.788 26.1953 174.093 27.3727 173.04 28.3395C171.971 29.3199 170.532 30.0865 168.766 30.0865H159.669L159.646 29.9918C162.855 28.3951 167.316 24.3328 171.47 19.1842C175.608 14.0557 179.436 7.85594 181.415 1.95569H163.39L161.591 7.35315H162.216C162.512 6.49001 163.207 5.31232 164.26 4.34534C165.329 3.36491 166.769 2.59838 168.534 2.59827H177.776L177.753 2.66467C175.33 9.37747 170.382 16.2308 165.483 21.4049C163.034 23.9922 160.595 26.1608 158.489 27.6832C157.436 28.4444 156.465 29.0446 155.617 29.4547C154.788 29.8556 154.072 30.0764 153.508 30.0856L153.295 30.7301H173.909Z" fill="#0C0A09" stroke="#0C0A09" stroke-width="0.1"/>
<path d="M168.766 30.0369H159.668C166.105 26.8339 177.534 13.7609 181.484 1.90591H163.354L161.522 7.4029H162.25C162.823 5.6869 165.034 2.6479 168.534 2.6479H177.705C172.866 16.0559 157.932 30.0369 153.472 30.0369L153.225 30.7799H173.944L175.777 25.2829H175.048C174.477 26.9979 172.266 30.0369 168.766 30.0369Z" fill="#0C0A09" stroke="#0C0A09" stroke-width="0.75" stroke-miterlimit="10"/>
<path d="M78.6073 36.5459C78.1523 36.5459 77.6963 36.7079 77.2403 37.0669C75.4823 38.4989 74.0503 42.0789 74.1483 43.9019C74.1483 44.3579 74.2783 44.5209 74.3433 44.5859C74.3433 44.5859 75.1893 44.9439 78.9983 41.1029C79.7793 40.3219 80.4963 39.5079 81.1463 38.8239C81.1143 38.7919 81.1143 38.7599 81.1143 38.7269C80.8213 37.9129 80.0403 36.9039 79.0953 36.6109C78.9333 36.5779 78.7703 36.5459 78.6073 36.5459ZM82.4813 51.4219C82.3513 51.4219 82.2203 51.4219 82.0903 51.3899C81.6023 51.2909 81.1793 50.9979 80.8863 50.5109C79.7473 48.5249 80.9843 43.1529 81.9933 39.7359C81.3743 40.4519 80.6263 41.2009 79.9103 41.9819C75.8083 46.1159 74.4093 46.1159 73.6603 45.6279C73.2043 45.3349 72.9433 44.7809 72.8783 43.9679C72.7813 41.7869 74.3433 37.8159 76.4593 36.0899C77.6643 35.1459 78.7703 35.2109 79.4863 35.4059C80.6583 35.7649 81.5703 36.8069 82.0583 37.7499C82.6443 37.0999 83.0023 36.6759 83.0023 36.6439C83.1973 36.4149 83.5223 36.3509 83.7833 36.5139C84.0443 36.6439 84.1733 36.9689 84.0763 37.2619C82.7093 41.2009 80.9513 48.1019 81.9603 49.8589C82.0903 50.0869 82.2203 50.1519 82.3513 50.1519C84.4343 50.5429 91.3023 42.9909 95.5023 37.5229C95.7293 37.2299 96.1213 37.1969 96.3803 37.3929C96.6733 37.6199 96.7063 38.0109 96.5103 38.2709C96.4783 38.3039 93.8743 41.7219 90.8473 45.0089C85.8343 50.4779 83.6533 51.4219 82.4813 51.4219Z" fill="#B91C1C"/>
<path d="M120.014 23.4929C120.014 23.8179 119.689 24.0789 119.364 24.0459C113.764 23.6229 106.473 24.1109 99.3773 24.9569C97.0003 36.4479 93.1273 55.5879 92.2163 64.2149C92.3783 64.0839 92.6073 64.0519 92.8023 64.1489C93.1273 64.2789 93.2893 64.6379 93.1603 64.9629C93.1273 64.9949 92.9003 65.5489 92.6393 66.1019C92.2163 67.0139 91.9553 67.5349 91.4663 67.5349H91.3053C91.1733 67.5019 90.7503 67.3399 90.7503 66.7209C90.9783 59.9179 95.3733 38.0109 98.0753 25.0879C85.5113 26.6499 73.9213 29.1239 73.7273 29.1559H73.5963C73.3033 29.1559 73.0433 28.9609 72.9783 28.6679C72.9123 28.3429 73.1413 28.0169 73.4663 27.9199C73.6613 27.8879 85.5433 25.3479 98.3353 23.8179C99.3123 19.0979 100.028 15.8429 100.125 15.3879C100.191 15.0609 100.548 14.8339 100.873 14.8989C101.2 14.9959 101.428 15.3219 101.364 15.6469C101.33 15.7779 100.646 18.9349 99.6373 23.6549C106.702 22.8419 113.862 22.3859 119.461 22.8089C119.786 22.8419 120.046 23.1349 120.014 23.4929Z" fill="#B91C1C"/>
<path d="M103.68 35.0809C103.387 35.0809 102.996 35.2109 102.607 35.5039C101.857 36.0249 100.912 37.2619 100.1 38.7599C101.271 38.5309 103.387 37.9129 104.202 36.1219C104.266 35.9279 104.462 35.4719 104.169 35.2439C104.037 35.1449 103.876 35.0809 103.68 35.0809ZM99.3193 49.1429C98.5373 49.1429 97.9193 48.9149 97.3983 48.4599C96.7143 47.8729 96.3893 46.8969 96.4533 45.5619C96.6503 41.7869 99.7093 36.0249 101.889 34.4629C102.932 33.7139 104.169 33.6159 104.951 34.2679C105.471 34.6899 105.828 35.5369 105.339 36.6429C103.973 39.6709 100.035 40.0609 99.3843 40.0939C98.4713 41.9809 97.7873 44.0329 97.7233 45.6279C97.6913 46.2459 97.7553 47.0929 98.2123 47.5159C100.619 49.5999 109.084 42.4369 113.869 37.4249C114.096 37.1639 114.487 37.1639 114.748 37.3929C115.007 37.6199 115.007 38.0429 114.78 38.2699C114.748 38.3039 111.526 41.6879 107.878 44.6509C104.136 47.6449 101.303 49.1429 99.3193 49.1429Z" fill="#B91C1C"/>
<path d="M111.721 64.4099C111.364 64.4099 111.005 64.2469 110.778 63.9539C110.289 63.3679 109.703 61.8699 110.45 55.6849C110.907 51.9419 111.753 46.9619 112.957 41.2649C115.139 31.0119 118.036 20.0419 119.403 16.8509C119.664 16.2659 120.119 16.3309 120.25 16.3309C120.836 16.4619 120.9 17.0479 120.868 18.3489C120.868 18.6749 120.575 18.9679 120.25 18.9349C120.153 18.9349 120.053 18.9349 119.989 18.9029C118.459 23.2969 115.953 33.0619 114.098 42.0139C112.893 47.7439 112.046 52.7229 111.623 56.3699C111.005 62.0659 111.623 63.0099 111.721 63.1399C112.078 63.0429 113.771 61.7729 120.478 50.1839C124.091 43.9019 126.662 39.1819 126.696 39.1169C126.857 38.8239 127.216 38.6939 127.541 38.8559C127.834 39.0189 127.964 39.4099 127.802 39.7029C127.769 39.7679 125.164 44.5539 121.519 50.8679C114 63.8889 112.6 64.2149 112.014 64.3449C111.916 64.3769 111.819 64.4099 111.721 64.4099Z" fill="#B91C1C"/>
<path d="M129.364 32.5099C129.364 32.1189 129.69 31.793 130.081 31.793C130.47 31.793 130.764 32.1189 130.764 32.5099C130.764 32.9009 130.47 33.1939 130.081 33.1939C129.69 33.1939 129.364 32.9009 129.364 32.5099ZM138.869 38.174C138.837 38.206 136.395 41.8519 133.563 45.2699C129.136 50.6409 126.956 51.7469 125.718 51.7469C125.458 51.7469 125.23 51.683 125.035 51.617C124.514 51.454 123.895 50.9019 123.831 49.4359C123.765 47.3529 124.775 44.13 125.653 41.754C126.077 40.582 126.565 39.378 127.02 38.402C127.736 36.774 127.9 36.708 128.128 36.612C128.355 36.514 128.648 36.578 128.843 36.741C129.071 37.001 129.071 37.393 128.843 37.653C128.811 37.653 128.778 37.6849 128.778 37.6849C128.062 38.7919 124.417 47.4509 125.198 50.0229C125.296 50.3799 125.426 50.4119 125.458 50.4459C125.881 50.5749 127.574 50.575 132.587 44.489C135.386 41.103 137.796 37.523 137.828 37.49C138.023 37.197 138.414 37.0999 138.707 37.2939C139 37.4899 139.065 37.881 138.869 38.174Z" fill="#B91C1C"/>
<path d="M142.157 35.0809C141.864 35.0809 141.474 35.2109 141.084 35.5039C140.335 36.0249 139.39 37.2619 138.577 38.7599C139.749 38.5309 141.864 37.9129 142.678 36.1219C142.743 35.9279 142.939 35.4719 142.646 35.2439C142.515 35.1449 142.353 35.0809 142.157 35.0809ZM137.796 49.1429C137.014 49.1429 136.396 48.9149 135.875 48.4599C135.191 47.8729 134.866 46.8969 134.931 45.5619C135.127 41.7869 138.186 36.0249 140.367 34.4629C141.409 33.7139 142.646 33.6159 143.427 34.2679C143.948 34.6899 144.305 35.5369 143.817 36.6429C142.45 39.6709 138.511 40.0609 137.86 40.0939C136.949 41.9809 136.265 44.0329 136.201 45.6279C136.168 46.2459 136.233 47.0929 136.689 47.5159C139.097 49.5999 147.561 42.4369 152.346 37.4249C152.574 37.1639 152.965 37.1639 153.225 37.3929C153.485 37.6199 153.485 38.0429 153.258 38.2699C153.225 38.3039 150.003 41.6879 146.356 44.6509C142.613 47.6449 139.781 49.1429 137.796 49.1429Z" fill="#B91C1C"/>
<path d="M150.068 53.0499C150.036 53.0499 150.003 53.0179 149.938 53.0179C149.612 52.9519 149.417 52.6259 149.449 52.3009C149.58 51.5519 149.743 50.6409 149.905 49.6639C150.361 46.7019 150.979 42.9909 151.63 40.0289C152.705 35.3099 153.518 34.3319 154.397 34.2999C154.722 34.2679 155.015 34.5279 155.048 34.8859C155.048 35.2109 154.82 35.5039 154.495 35.5369C154.333 35.6349 153.714 36.3509 152.77 40.7119C152.509 41.9489 152.249 43.3169 151.988 44.7159C153.714 40.4849 155.341 38.4339 156.936 38.4339C158.044 38.4339 159.02 39.0199 160.029 39.6709C162.373 41.1359 165.042 42.7959 171.064 37.3269C171.292 37.0999 171.714 37.1319 171.943 37.3929C172.171 37.6529 172.137 38.0429 171.878 38.2709C165.205 44.3589 161.819 42.2419 159.345 40.7119C158.466 40.1589 157.685 39.7029 156.936 39.7029C156.546 39.7029 155.113 40.1589 152.835 45.9529C151.565 49.2079 150.686 52.5289 150.686 52.5609C150.622 52.8539 150.361 53.0499 150.068 53.0499Z" fill="#B91C1C"/>
</svg>
