<?xml version="1.0" standalone="no"?>
<!DOCTYPE svg PUBLIC "-//W3C//DTD SVG 20010904//EN"
 "http://www.w3.org/TR/2001/REC-SVG-20010904/DTD/svg10.dtd">
<svg version="1.0" xmlns="http://www.w3.org/2000/svg"
 width="500.000000pt" height="500.000000pt" viewBox="0 0 500.000000 500.000000"
 preserveAspectRatio="xMidYMid meet">
<metadata>
Created by potrace 1.14, written by Peter Selinger 2001-2017
</metadata>
<g transform="translate(0.000000,500.000000) scale(0.100000,-0.100000)"
fill="#000000" stroke="none">
<path d="M0 2500 l0 -2500 2500 0 2500 0 0 2500 0 2500 -2500 0 -2500 0 0
-2500z m3231 1511 c203 -53 339 -177 402 -368 57 -174 59 -446 4 -565 -32 -70
-96 -134 -165 -166 -57 -26 -152 -42 -152 -26 0 5 13 77 29 159 43 221 55 324
55 480 1 118 -3 151 -22 211 -55 177 -216 255 -461 225 -123 -15 -188 -34
-281 -82 -344 -177 -637 -649 -894 -1437 -160 -491 -223 -866 -183 -1080 36
-187 149 -302 313 -319 57 -6 62 -12 44 -57 -9 -24 -13 -26 -52 -20 -231 32
-390 138 -477 315 -49 101 -68 170 -83 308 -36 324 104 892 342 1386 280 581
711 970 1162 1050 114 20 318 13 419 -14z m279 -1512 c0 -42 -153 -420 -238
-589 -302 -603 -663 -895 -1166 -945 l-69 -7 7 33 c8 40 20 49 67 49 20 0 71
9 113 20 330 84 602 432 863 1105 32 81 93 254 93 262 0 2 -70 3 -156 3 -180
0 -242 -12 -348 -68 -88 -46 -160 -117 -216 -210 -33 -57 -47 -72 -63 -70 -46
7 -45 29 17 215 36 111 65 185 78 196 19 16 58 17 519 17 363 0 499 -3 499
-11z m186 -1096 c-2 -10 -8 -38 -11 -63 -7 -41 -57 -197 -101 -312 -18 -46
-19 -47 -68 -52 -28 -3 -143 -8 -256 -11 l-205 -6 82 35 c203 84 422 244 510
371 38 54 59 70 49 38z"/>
</g>
</svg>
