<?xml version="1.0" encoding="UTF-8"?><svg id="Line" xmlns="http://www.w3.org/2000/svg" viewBox="0 0 64 64"><path d="M32,57.5c-16.24756,0-28.5-5.80371-28.5-13.5,0-.82812.67139-1.5,1.5-1.5s1.5.67188,1.5,1.5c0,5.79004,11.43945,10.5,25.5,10.5s25.5-4.70996,25.5-10.5c0-1.3418-.59961-2.79102-1.78223-4.30762-.50977-.65332-.39355-1.5957.25977-2.10547.6543-.50977,1.5957-.39258,2.10547.25977,1.60352,2.05664,2.41699,4.12695,2.41699,6.15332,0,7.69629-12.25195,13.5-28.5,13.5Z" style="fill:#293a4c; stroke-width:0px;"/><path d="M7.55713,29.72363c-.37109,0-.74268-.13672-1.03271-.41211-1.97852-1.87891-3.02441-4.06152-3.02441-6.31152,0-8.48145,13.85059-16.5,28.5-16.5s28.5,8.01855,28.5,16.5c0,.82812-.67188,1.5-1.5,1.5s-1.5-.67188-1.5-1.5c0-5.43652-10.70801-13.5-25.5-13.5-6.59033,0-13.271,1.71387-18.32861,4.70312-4.42334,2.61328-7.17139,5.98438-7.17139,8.79688,0,1.42773.70312,2.81934,2.08984,4.13574.60107.57031.62549,1.52051.05518,2.12109-.29492.31055-.69141.4668-1.08789.4668Z" style="fill:#293a4c; stroke-width:0px;"/><path d="M46.99902,19.02539c-.23535,0-.47266-.05469-.69531-.1709-2.26758-1.18848-4.89844-2.11328-7.6084-2.67578-.81152-.16797-1.33203-.96191-1.16406-1.77344.16895-.81152.96875-1.33594,1.77344-1.16406,2.97852.61816,5.87988,1.63965,8.3916,2.95508.7334.38477,1.0166,1.29102.63281,2.02539-.26855.51172-.79004.80371-1.33008.80371Z" style="fill:#293a4c; stroke-width:0px;"/><path d="M33.00098,15.51367c-.01367,0-.02734,0-.04102-.00098-.31689-.00781-.63721-.0127-.95996-.0127-.82861,0-1.5-.67188-1.5-1.5s.67139-1.5,1.5-1.5c.3501,0,.69678.00488,1.04004.01465.82812.02148,1.48145.71094,1.45898,1.53906-.02148.81445-.68848,1.45996-1.49805,1.45996Z" style="fill:#293a4c; stroke-width:0px;"/><path d="M32,47.5c-16.24756,0-28.5-5.80371-28.5-13.5,0-2.21875,1.01221-4.55762,2.92676-6.7627.26855-.30957.65186-.49512,1.06104-.51465.40674-.02051.80811.12891,1.10498.41113,4.06885,3.86719,13.25684,6.36621,23.40723,6.36621s19.33789-2.49902,23.40723-6.36621c.2959-.28223.67383-.42871,1.10547-.41113.40918.01953.79199.20508,1.06055.51465,1.91504,2.20605,2.92676,4.54395,2.92676,6.7627,0,7.69629-12.25195,13.5-28.5,13.5ZM7.78857,30.375c-.84668,1.25586-1.28857,2.49121-1.28857,3.625,0,5.79004,11.43945,10.5,25.5,10.5s25.5-4.70996,25.5-10.5c0-1.13379-.44141-2.36914-1.28906-3.625-5.03027,3.80664-14.08008,6.125-24.21094,6.125s-19.18066-2.31836-24.21143-6.125Z" style="fill:#293a4c; stroke-width:0px;"/><path d="M31.99756,42.8418c-1.11426,0-2.22656-.29004-3.24121-.87109-.88721-.50586-1.88574-.61426-2.82715-.31445-2.21875.71484-4.58301.21094-6.35693-1.33594-.00488-.00391-.01025-.00879-.01514-.01367-.7915-.68262-1.76855-.99316-2.75586-.88379-2.2666.26367-4.48242-.66602-5.96191-2.47266-.52539-.64062-.43115-1.58594.20947-2.11035.64014-.52441,1.58594-.43164,2.11084.20996.83057,1.0127,2.05127,1.53809,3.25439,1.39746,1.88379-.21289,3.68945.35742,5.12646,1.60938.00537.00391.01074.00879.01611.01367.97266.83984,2.25146,1.11621,3.4248.73926,1.78369-.57324,3.6377-.37207,5.25244.55078,1.11182.63477,2.42334.63574,3.52197.00684,1.62695-.93262,3.48047-1.13086,5.23535-.56641,1.20508.38574,2.49316.10742,3.46777-.74316,1.43652-1.25195,3.23438-1.82422,5.08203-1.61523,1.24121.14551,2.46777-.37891,3.29883-1.39258.52344-.6416,1.46973-.73535,2.11035-.20996.6416.52441.73535,1.46973.20996,2.11035-1.47949,1.80566-3.68555,2.7373-5.91699,2.47754-1.03027-.11914-2.01855.2002-2.81348.8916-1.77344,1.5459-4.14062,2.05176-6.32715,1.3457-.96777-.30859-1.96875-.20117-2.84473.29883-1.02344.58594-2.14258.87793-3.26025.87793Z" style="fill:#293a4c; stroke-width:0px;"/></svg>