<?xml version="1.0" encoding="UTF-8"?><svg id="Line" xmlns="http://www.w3.org/2000/svg" viewBox="0 0 64 64"><path d="M48.82031,44.89062c-.14014,0-.2832-.02002-.4248-.06152-.79443-.23438-1.24854-1.06885-1.01465-1.86328l6.89062-23.36035c.86182-2.90771-.80615-5.97363-3.71777-6.8374-3.03027-.87012-6.00488.91309-6.83545,3.72656-.23389.79443-1.06885,1.24902-1.86328,1.01367-.79443-.23438-1.24854-1.06885-1.01367-1.86328,1.28369-4.34863,5.91895-7.09033,10.55322-5.75635,2.19043.64941,3.9873,2.10254,5.07178,4.0957,1.08545,1.99512,1.32764,4.29346.68164,6.47168l-6.88916,23.3584c-.19287.65283-.79053,1.07617-1.43848,1.07617Z" style="fill:#293a4c; stroke-width:0px;"/><path d="M50.89062,24.47705c-.36084,0-.72266-.12939-1.01025-.3916-1.10498-1.00781-2.37695-1.78076-3.78027-2.29736-.77734-.28662-1.17529-1.14893-.88916-1.92627.28711-.77734,1.15039-1.17578,1.92627-.88916,1.76855.65186,3.37158,1.62598,4.76465,2.896.61182.55811.65576,1.50684.09766,2.11914-.2959.32422-.70166.48926-1.10889.48926Z" style="fill:#293a4c; stroke-width:0px;"/><path d="M48.54004,32.4458c-.36084,0-.72266-.12939-1.01025-.3916-1.10498-1.00732-2.37695-1.78076-3.78076-2.29834-.77734-.28662-1.1748-1.14893-.88818-1.92627.28613-.77734,1.14746-1.17676,1.92627-.88818,1.76855.65186,3.37109,1.62646,4.76416,2.896.61182.55811.65576,1.50684.09766,2.11914-.2959.32422-.70166.48926-1.10889.48926Z" style="fill:#293a4c; stroke-width:0px;"/><path d="M13.13916,43.7207c-.66309,0-1.26953-.44336-1.44824-1.11426l-4.8999-18.39014c-.5874-2.19092-.28418-4.48145.85449-6.44727s2.9751-3.36816,5.1709-3.94922c2.60693-.68506,5.28857-.11035,7.36133,1.46631.65967.50098.7876,1.44238.28613,2.10156-.50098.65918-1.44336.78857-2.10156.28613-1.35449-1.02979-3.05518-1.40674-4.78125-.95312-1.4165.375-2.60352,1.28174-3.33984,2.55225-.73584,1.27051-.93213,2.75146-.55225,4.16846l4.90039,18.39258c.21338.80078-.2627,1.62256-1.06299,1.83545-.12939.03467-.25928.05127-.38721.05127Z" style="fill:#293a4c; stroke-width:0px;"/><path d="M13.49414,29.14746c-.62939,0-1.21533-.39893-1.42383-1.0293-.26025-.78662.16602-1.63477.95264-1.89502,2.62402-.86865,4.71729-.6582,4.80469-.64795.82373.08838,1.41992.82812,1.33105,1.65137-.08838.82422-.83301,1.41846-1.65137,1.33105-.0083.00049-1.56543-.14062-3.54199.51318-.15625.05176-.31543.07666-.47119.07666Z" style="fill:#293a4c; stroke-width:0px;"/><path d="M15.7251,37.51416c-.62598,0-1.20996-.39502-1.42139-1.02051-.26465-.78516.15674-1.63623.94141-1.90137,1.96289-.6626,4.12939-.60156,4.22217-.59766.82812.02637,1.47754.71924,1.45068,1.54736-.02637.82812-.71533,1.48438-1.54736,1.45068-.01758-.00098-1.72656-.04395-3.16553.44238-.15918.05371-.3208.0791-.47998.0791Z" style="fill:#293a4c; stroke-width:0px;"/><path d="M40.77783,43.47998c-.75684,0-1.40723-.57129-1.48975-1.34082l-3.27002-30.6499c-.2959-2.79932-2.64258-4.90918-5.45801-4.90918-.18994,0-.37988.00635-.56982.0293-1.48389.15771-2.79785.87305-3.7207,2.0166-.92188,1.14209-1.34375,2.5752-1.18799,4.03467l2.64258,24.74365c.08789.82373-.50879,1.5625-1.33252,1.65088-.82031.08203-1.56201-.50879-1.65088-1.33252l-2.64258-24.74365c-.24072-2.25635.41162-4.47168,1.8374-6.2373,1.42627-1.76709,3.45605-2.87256,5.71582-3.11328.28857-.03516.59863-.04834.90869-.04834,4.35449,0,7.9834,3.26367,8.44141,7.59229l3.27002,30.64844c.08789.82373-.50879,1.56299-1.33252,1.65088-.0542.00537-.10791.0083-.16113.0083Z" style="fill:#293a4c; stroke-width:0px;"/><path d="M28.88379,20.42969c-.5,0-.98877-.24951-1.27344-.70459-.43896-.70264-.22559-1.62793.47656-2.06738,1.59814-.99902,3.3501-1.66992,5.20752-1.99316.81445-.14062,1.59277.4043,1.73486,1.22021.14258.81592-.40381,1.59277-1.22021,1.73486-1.47363.25684-2.86377.78906-4.13135,1.58203-.24756.1543-.52246.22803-.79395.22803Z" style="fill:#293a4c; stroke-width:0px;"/><path d="M29.76611,28.69092c-.5,0-.98877-.24951-1.27344-.70459-.43896-.70264-.22559-1.62793.47656-2.06738,1.59814-.99902,3.3501-1.66992,5.20752-1.99316.81543-.14209,1.59277.4043,1.73486,1.22021.14258.81592-.40381,1.59277-1.22021,1.73486-1.47363.25684-2.86377.78906-4.13135,1.58203-.24756.1543-.52246.22803-.79395.22803Z" style="fill:#293a4c; stroke-width:0px;"/><path d="M30.64795,36.95166c-.5,0-.98877-.24951-1.27344-.70508-.43896-.70264-.22559-1.62793.47705-2.06689,1.59863-.99902,3.35059-1.66992,5.20703-1.99316.81641-.13916,1.59277.4043,1.73486,1.22021.14258.81592-.40381,1.59277-1.22021,1.73486-1.47266.25684-2.86279.78906-4.13184,1.58203-.24707.1543-.52197.22803-.79346.22803Z" style="fill:#293a4c; stroke-width:0px;"/><path d="M53,60.5H11c-.82861,0-1.5-.67139-1.5-1.5v-18c0-.53467.28467-1.0293.74707-1.29736.4624-.26904,1.03223-.271,1.49756-.00488l4.50342,2.57422,4.50293-2.57422c.46191-.26367,1.02734-.26367,1.48926,0l4.50342,2.57471,4.50537-2.57471c.46094-.26367,1.02686-.26367,1.48877,0l4.50244,2.57471,4.50635-2.57471c.46094-.26367,1.02686-.26318,1.48779-.00049l4.51074,2.57568,4.51123-2.57568c.46484-.26465,1.03564-.2627,1.49658.00537.4624.26855.74707.7627.74707,1.29736v18c0,.82861-.67139,1.5-1.5,1.5ZM12.5,57.5h39v-13.9165l-3.01123,1.71924c-.46094.2627-1.02637.2627-1.4873,0l-4.51074-2.5752-4.50684,2.57471c-.46094.26367-1.02686.26367-1.48877,0l-4.50195-2.57422-4.50537,2.57422c-.46094.26367-1.02686.26367-1.48877,0l-4.50342-2.57422-4.50293,2.57422c-.46191.26367-1.02734.26367-1.48926,0l-3.00342-1.7168v13.91455Z" style="fill:#293a4c; stroke-width:0px;"/><path d="M40.26709,54.5h-16.53418c-.82861,0-1.5-.67139-1.5-1.5s.67139-1.5,1.5-1.5h16.53418c.82861,0,1.5.67139,1.5,1.5s-.67139,1.5-1.5,1.5Z" style="fill:#293a4c; stroke-width:0px;"/></svg>