<svg id="icons" xmlns="http://www.w3.org/2000/svg" viewBox="0 0 64 64"><defs><style>.cls-1{fill:none;stroke:#000;stroke-linecap:round;stroke-linejoin:round;stroke-width:2px;}</style></defs><title>51</title><g id="tea_1"><rect class="cls-1" x="6.50907" y="55.62218" width="45.04305" height="4.37783" rx="2.15619"/><path class="cls-1" d="M51.55211,25.67387h0a34.689,34.689,0,0,1-9.6617,24.02l-.72485.75524a16.81962,16.81962,0,0,1-12.135,5.17306h0a16.81962,16.81962,0,0,1-12.135-5.17306l-.72484-.75524a34.68893,34.68893,0,0,1-9.66171-24.02h45.043"/><path class="cls-1" d="M51.55211,25.67387a5.93882,5.93882,0,1,1,0,11.87763H49.45527"/><line class="cls-1" x1="20.19956" y1="25.67388" x2="20.19956" y2="31.61268"/><path class="cls-1" d="M20.13666,31.61268h.1258a4.14443,4.14443,0,0,1,4.14443,4.14443V40.8624a1,1,0,0,1-1,1H16.99223a1,1,0,0,1-1-1V35.75712a4.14444,4.14444,0,0,1,4.14444-4.14444Z"/><path class="cls-1" d="M34.09847,4,32.85627,5.4197a6.64356,6.64356,0,0,0-1.52461,6.21648,6.92321,6.92321,0,0,0,.30257.813h0a6.92506,6.92506,0,0,1,.30258.813,6.64359,6.64359,0,0,1-1.52461,6.21648L29.17,20.89845"/><path class="cls-1" d="M26.29547,5.9738l-.96939,1.10788a5.03881,5.03881,0,0,0-1.3272,3.94189,5.30432,5.30432,0,0,0,.408,1.42565h0a5.30432,5.30432,0,0,1,.408,1.42565,5.03883,5.03883,0,0,1-1.3272,3.94189l-.96939,1.10787"/><path class="cls-1" d="M40.7788,5.9738l-.96938,1.10788a5.03879,5.03879,0,0,0-1.32721,3.94189,5.304,5.304,0,0,0,.408,1.42565h0a5.30432,5.30432,0,0,1,.408,1.42565,5.03883,5.03883,0,0,1-1.3272,3.94189l-.96938,1.10787"/></g></svg>