<?xml version="1.0" encoding="UTF-8"?><svg id="Line" xmlns="http://www.w3.org/2000/svg" viewBox="0 0 64 64"><path d="M15.20117,60.5c-.34375,0-.67676-.11816-.94385-.33398-.47119-.38184-11.271-9.27441-8.51855-19.93652-2.08691-3.09766-4.06592-9.20996.72656-14.37695-.26807-1.56348-.52197-4.9082,1.33594-8.02441,1.58789-2.66309,4.30029-4.50781,8.0708-5.49219.81641-2.50391,3.81592-8.83594,13.2583-8.83594,3.6167,0,6.48926,1.08203,8.53906,3.21582,2.46777,2.56934,2.99902,5.94629,3.10693,7.56543,2.92432,1.88379,6.61963,6.48828,3.59619,13.33594-.33496.75879-1.21875,1.10156-1.97803.7666-.75781-.33398-1.10107-1.21973-.76611-1.97754,2.9707-6.72949-2.76367-9.7832-3.00928-9.90918-.51807-.26758-.84131-.81445-.81787-1.39746.00146-.0332.09912-3.83008-2.31201-6.32227-1.46143-1.51074-3.60107-2.27734-6.35889-2.27734-9.12646,0-10.51758,7.05078-10.57227,7.35059-.10889.59668-.56738,1.07715-1.16016,1.20508-3.37744.73047-5.73389,2.17188-7.00488,4.2832-1.81934,3.02344-.85986,6.54395-.84961,6.5791.15039.53418-.00537,1.11523-.40771,1.49805-5.44189,5.18359-.77344,11.3418-.57227,11.60156.30176.38867.39648.9043.24854,1.37402-2.52539,8.00293,5.10303,15.4541,6.94482,17.10547,11.52881-.13086,15.06396-4.32422,16.14551-6.83984.32812-.75977,1.21045-1.11133,1.9707-.78516.76074.32715,1.1123,1.20898.78516,1.9707-1.39014,3.2334-5.7666,8.65723-19.45703,8.65723Z" style="fill:#293a4c; stroke-width:0px;"/><path d="M18.38135,29.85742c-.229,0-.46191-.05273-.67969-.16406-.73682-.37598-1.03076-1.27637-.65625-2.01465.27783-.5459,6.97314-13.38672,22.18848-14.01953.83252-.03906,1.52686.6084,1.56104,1.43652.03467.82812-.6084,1.52637-1.43604,1.56152-13.42627.55762-19.39258,11.90039-19.64014,12.38281-.26562.51855-.79199.81738-1.3374.81738Z" style="fill:#293a4c; stroke-width:0px;"/><path d="M25.71094,21.53223c-.50098,0-.99072-.25098-1.2749-.70801-3.4248-5.50293-7.35107-5.7373-7.38965-5.7373-.82812-.01758-1.48584-.70312-1.46826-1.53125.01709-.82812.6582-1.5,1.53076-1.46875.22461.00488,5.54492.19531,9.87402,7.15332.43799.70312.22217,1.62793-.48096,2.06543-.24658.15332-.52051.22656-.79102.22656Z" style="fill:#293a4c; stroke-width:0px;"/><path d="M16.17676,44.7334c-.27979,0-.56299-.07812-.81494-.24219-.69434-.4502-.89258-1.37793-.44238-2.07227.2876-.44434,7.17578-10.89258,18.90332-12.89746.81689-.14355,1.5918.40918,1.73145,1.22559s-.40918,1.5918-1.22559,1.73145c-10.40771,1.7793-16.82861,11.47559-16.89258,11.57324-.2876.44141-.76855.68164-1.25928.68164Z" style="fill:#293a4c; stroke-width:0px;"/><path d="M25.28027,35.97949c-.47363,0-.93994-.22363-1.23145-.6416-6.07959-8.71094-15.34863-7.58105-15.73975-7.52637-.81445.10742-1.57471-.46289-1.6875-1.2832-.1123-.81934.45703-1.57422,1.27588-1.68848.46484-.06348,11.45361-1.47461,18.61133,8.78125.47412.67969.30762,1.61426-.37158,2.08887-.26123.18164-.56055.26953-.85693.26953Z" style="fill:#293a4c; stroke-width:0px;"/><path d="M15.20117,60.49902c-.06543,0-.13184-.00488-.19873-.01367-.81982-.1084-1.39746-.85938-1.29004-1.67969.58398-4.47168,4.06201-12.8418,13.03857-12.8418.09277,0,.18457,0,.27783.00195.82861.01562,1.4873.7002,1.47119,1.52832-.01562.82812-.68115,1.49023-1.52783,1.47168-8.82129-.18848-10.22803,9.80762-10.28564,10.23145-.10156.75293-.74561,1.30176-1.48535,1.30176Z" style="fill:#293a4c; stroke-width:0px;"/><path d="M21.06934,50.53516c-.51953,0-1.0249-.26953-1.30225-.75293-4.91504-8.55762-12.0166-8.36523-12.31104-8.34863-.82471.0459-1.52637-.60254-1.56543-1.42773-.03906-.82422.59082-1.52441,1.41455-1.56836.37207-.02539,9.1958-.36621,15.06348,9.85059.4126.71875.16455,1.63477-.55371,2.04785-.23535.13477-.49219.19922-.74561.19922Z" style="fill:#293a4c; stroke-width:0px;"/><path d="M45.5,60.5c-8.271,0-15-6.72852-15-15s6.729-15,15-15,15,6.72852,15,15-6.729,15-15,15ZM45.5,33.5c-6.6167,0-12,5.38281-12,12s5.3833,12,12,12,12-5.38281,12-12-5.3833-12-12-12Z" style="fill:#293a4c; stroke-width:0px;"/><path d="M45.5,54.0332h-2.79785c-3.1416,0-5.69727-2.55566-5.69727-5.69727v-2.79785c0-.82812.67139-1.5,1.5-1.5h2.79785c3.1416,0,5.69727,2.55566,5.69727,5.69727v2.79785c0,.82812-.67139,1.5-1.5,1.5ZM40.00488,47.03809v1.29785c0,1.4873,1.20996,2.69727,2.69727,2.69727h1.29785v-1.29785c0-1.4873-1.20996-2.69727-2.69727-2.69727h-1.29785Z" style="fill:#293a4c; stroke-width:0px;"/><path d="M48.29785,54.0332h-2.79785c-.82861,0-1.5-.67188-1.5-1.5v-2.79785c0-3.1416,2.55566-5.69727,5.69727-5.69727h2.79785c.82861,0,1.5.67188,1.5,1.5v2.79785c0,3.1416-2.55566,5.69727-5.69727,5.69727ZM47,51.0332h1.29785c1.4873,0,2.69727-1.20996,2.69727-2.69727v-1.29785h-1.29785c-1.4873,0-2.69727,1.20996-2.69727,2.69727v1.29785Z" style="fill:#293a4c; stroke-width:0px;"/><path d="M45.5,49.41699c-.38379,0-.76758-.14648-1.06055-.43945l-1.97852-1.97852c-1.07617-1.07617-1.66895-2.50684-1.66895-4.02832,0-1.52246.59277-2.95312,1.66895-4.02832l1.97852-1.97852c.58594-.58594,1.53516-.58594,2.12109,0l1.97852,1.97852c1.07617,1.0752,1.66895,2.50586,1.66895,4.02832,0,1.52148-.59277,2.95215-1.66846,4.02832h-.00049l-1.97852,1.97852c-.29297.29297-.67676.43945-1.06055.43945ZM47.47852,45.93848h.00977-.00977ZM45.5,40.14551l-.91797.91797c-.50928.50977-.79004,1.18652-.79004,1.90723,0,.71973.28076,1.39746.79053,1.90723l.91748.91797.91748-.91797c.50977-.50977.79053-1.1875.79053-1.90723,0-.7207-.28076-1.39746-.79004-1.90723l-.91797-.91797Z" style="fill:#293a4c; stroke-width:0px;"/><path d="M45.5,56.48242c-.82861,0-1.5-.67188-1.5-1.5v-7.06543c0-.82812.67139-1.5,1.5-1.5s1.5.67188,1.5,1.5v7.06543c0,.82812-.67139,1.5-1.5,1.5Z" style="fill:#293a4c; stroke-width:0px;"/><path d="M38.50391,47.03809c-.66211,0-1.26855-.44141-1.44775-1.1123l-.61719-2.30371c-.21436-.7998.26025-1.62207,1.06055-1.83691.80029-.20801,1.62305.26074,1.83691,1.06152l.61719,2.30371c.21436.7998-.26025,1.62207-1.06055,1.83691-.12988.03418-.26074.05078-.38916.05078Z" style="fill:#293a4c; stroke-width:0px;"/><path d="M52.49609,47.03809c-.12842,0-.25928-.0166-.38916-.05078-.80029-.21484-1.2749-1.03711-1.06055-1.83691l.61719-2.30371c.21436-.80078,1.03711-1.26953,1.83691-1.06152.80029.21484,1.2749,1.03711,1.06055,1.83691l-.61719,2.30371c-.1792.6709-.78564,1.1123-1.44775,1.1123Z" style="fill:#293a4c; stroke-width:0px;"/><path d="M45.5,39.52441c-.82861,0-1.5-.67188-1.5-1.5v-2.00684c0-.82812.67139-1.5,1.5-1.5s1.5.67188,1.5,1.5v2.00684c0,.82812-.67139,1.5-1.5,1.5Z" style="fill:#293a4c; stroke-width:0px;"/></svg>