<svg xmlns="http://www.w3.org/2000/svg" viewBox="0 0 53.6 84.77"><defs><style>.cls-1{fill:#cbcbcb;}.cls-2{fill:#744630;}</style></defs><g id="Layer_2" data-name="Layer 2"><g id="Layer_1-2" data-name="Layer 1"><rect class="cls-1" x="31.05" y="16.88" width="2.83" height="2.83"/><rect class="cls-1" x="31.05" y="22.55" width="2.83" height="2.83"/><rect class="cls-1" x="31.05" y="28.22" width="2.83" height="2.83"/><rect class="cls-1" x="31.05" y="33.88" width="2.83" height="2.83"/><path class="cls-2" d="M32.47,60.81a1.43,1.43,0,0,1-1.42-1.42V58a1.42,1.42,0,0,1,2.84,0v1.41a1.43,1.43,0,0,1-1.42,1.42Z"/><path class="cls-2" d="M38.14,62.23a1.42,1.42,0,0,1-1.42-1.42V59.39a1.42,1.42,0,0,1,2.83,0v1.42a1.42,1.42,0,0,1-1.41,1.42Z"/><path class="cls-2" d="M26.8,62.23a1.43,1.43,0,0,1-1.42-1.42V59.39a1.42,1.42,0,0,1,2.84,0v1.42a1.43,1.43,0,0,1-1.42,1.42Z"/><rect x="31.05" y="16.88" width="2.83" height="2.83"/><rect x="31.05" y="22.55" width="2.83" height="2.83"/><rect x="31.05" y="28.22" width="2.83" height="2.83"/><rect x="31.05" y="33.88" width="2.83" height="2.83"/><path d="M32.47,56.56A1.42,1.42,0,0,0,31.05,58v1.41a1.42,1.42,0,0,0,2.84,0V58a1.42,1.42,0,0,0-1.42-1.42Z"/><path d="M38.14,58a1.41,1.41,0,0,0-1.42,1.41v1.42a1.42,1.42,0,1,0,2.83,0V59.39A1.41,1.41,0,0,0,38.14,58Z"/><path d="M26.8,58a1.42,1.42,0,0,0-1.42,1.41v1.42a1.42,1.42,0,1,0,2.84,0V59.39A1.42,1.42,0,0,0,26.8,58Z"/><path d="M49.35,47.93h1.54a2.72,2.72,0,0,0,2.71-2.71V42.39a2.71,2.71,0,0,0-2.71-2.71H45.1V13.92h3a1.29,1.29,0,0,0,0-2.58H40.84V8.25h1.55A1.29,1.29,0,0,0,43.68,7V1.29A1.29,1.29,0,0,0,42.39,0H22.55a1.29,1.29,0,0,0-1.29,1.29V7a1.29,1.29,0,0,0,1.29,1.29h1.54v3.09H16.88a1.29,1.29,0,0,0,0,2.58h3V39.68H14.05a2.71,2.71,0,0,0-2.71,2.71v2.83a2.71,2.71,0,0,0,2.71,2.71H17V51H9.79A9.83,9.83,0,0,0,0,60.81V64.6a9.76,9.76,0,0,0,6.7,9.29l.14,0L17,76v3.2a5.55,5.55,0,0,0,5.55,5.54H43.8a5.55,5.55,0,0,0,5.55-5.54ZM17,67.66l-6.11-1.53a3.48,3.48,0,0,1,.84-6.86H17Zm0-11H11.73a6.07,6.07,0,0,0-1.47,11.95L17,70.32v3.07l-9.55-2A7.22,7.22,0,0,1,2.58,64.6V60.81A7.23,7.23,0,0,1,9.79,53.6H17Zm6.84-51V2.58H41.09V5.67ZM38.26,8.25v3.09H26.67V8.25ZM22.42,13.92H42.51V39.68H22.42ZM46.76,79.23a3,3,0,0,1-3,3H22.55a3,3,0,0,1-3-3V67.77H46.76Zm0-14H19.59V47.93h2.16l0,.07,2.45,4.88a1.27,1.27,0,0,0,1.15.72H41a1.29,1.29,0,0,0,1.15-.72l2.47-5h2.16ZM24.64,47.93H41.71L40.17,51h-14l0-.06ZM13.92,45.35V42.26H51v3.09Z"/></g></g></svg>