<svg id="icons" xmlns="http://www.w3.org/2000/svg" viewBox="0 0 64 64"><defs><style>.cls-1{fill:none;stroke:#000;stroke-linecap:round;stroke-linejoin:round;stroke-width:2px;}</style></defs><title>22</title><g id="coffee_5"><path class="cls-1" d="M35.37277,21.71263l9.5645,15.58851a14.30881,14.30881,0,0,1,2.48632,8.07342h0a14.1346,14.1346,0,0,1-7.09283,12.31707h0A24.64183,24.64183,0,0,1,29.926,60H21.49761a24.64183,24.64183,0,0,1-10.40477-2.30836h0A14.13459,14.13459,0,0,1,4,45.37457H4a14.30881,14.30881,0,0,1,2.48632-8.07342l9.5645-15.58851"/><rect class="cls-1" x="14.40388" y="16.0638" width="22.96554" height="5.64883" rx="2"/><path class="cls-1" d="M16.59632,16.0638,12.16148,7.27608a2.23245,2.23245,0,0,1,2.35476-3.235L34.98742,7.99822a2.24641,2.24641,0,0,1,1.69594,2.84024L35.177,16.0638l6.69445-3.182a5.41741,5.41741,0,0,1,7.0648,2.30026L59.79678,34.59279a1.60062,1.60062,0,0,1-.24686,1.89373h0a1.51468,1.51468,0,0,1-2.34916-.21586L47.62441,22.13618A5.4178,5.4178,0,0,0,41.69515,19.916L35.177,21.71263"/><path class="cls-1" d="M11.2217,29.58329l5.601,3.87449a10.35172,10.35172,0,0,0,11.80456.212h0a10.40287,10.40287,0,0,1,12.4265.67206l4.03591,3.187"/></g></svg>