<svg id="icons" xmlns="http://www.w3.org/2000/svg" viewBox="0 0 64 64"><defs><style>.cls-1{fill:none;stroke:#000;stroke-linecap:round;stroke-linejoin:round;stroke-width:2px;}</style></defs><title>7</title><g id="coffee_house_3"><line class="cls-1" x1="60" y1="4" x2="60" y2="60"/><line class="cls-1" x1="48.42179" y1="17.28969" x2="60" y2="17.28969"/><line class="cls-1" x1="51.16405" y1="21.84532" x2="60" y2="21.84532"/><line class="cls-1" x1="51.16404" y1="42.15468" x2="60" y2="42.15468"/><line class="cls-1" x1="48.42179" y1="46.71031" x2="60" y2="46.71031"/><ellipse class="cls-1" cx="28.69349" cy="32" rx="24.69349" ry="24.45512"/><g id="coffee"><path class="cls-1" d="M21.50743,42.91665A15.8055,15.8055,0,0,1,14.38325,29.6105V27.648a1.21713,1.21713,0,0,1,1.223-1.21119h24.0292a1.21713,1.21713,0,0,1,1.223,1.21119V29.6105a15.79979,15.79979,0,0,1-7.11768,13.30615Z"/><path class="cls-1" d="M40.85843,28.323a5.49221,5.49221,0,0,1,3.9261,6.4696,5.56461,5.56461,0,0,1-6.67567,3.856"/><line class="cls-1" x1="40.85843" y1="29.61051" x2="14.38325" y2="29.61051"/><polyline class="cls-1" points="44.059 42.94 27.816 42.94 11.572 42.94"/><path class="cls-1" d="M28.22988,13.56916l-.48557.5496a2.554,2.554,0,0,0-.596,2.40651,2.66343,2.66343,0,0,0,.11828.31475h0a2.66388,2.66388,0,0,1,.11827.31474,2.554,2.554,0,0,1-.59595,2.40651l-.48557.5496"/><path class="cls-1" d="M22.94321,16.54821l-.37892.42888a1.93888,1.93888,0,0,0-.5188,1.526,2.03836,2.03836,0,0,0,.15949.55189h0a2.0379,2.0379,0,0,1,.15949.55189,1.93887,1.93887,0,0,1-.51879,1.526l-.37892.42888"/><path class="cls-1" d="M33.0777,16.54821l-.37892.42888a1.93888,1.93888,0,0,0-.5188,1.526,2.03836,2.03836,0,0,0,.15949.55189h0a2.0379,2.0379,0,0,1,.15949.55189,1.93887,1.93887,0,0,1-.51879,1.526l-.37892.42888"/></g></g></svg>