<svg id="Capa_1" enable-background="new 0 0 501.731 501.731" height="512" viewBox="0 0 501.731 501.731" width="512" xmlns="http://www.w3.org/2000/svg"><g><path d="m179.241 278.644-62.875 62.875v87.124h179.499v-15h-164.499v-65.911l54.088-54.088h131.824l54.088 54.088v65.911h-30.5v15h45.5v-87.124l-62.875-62.875z"/><path d="m310.866 413.643h15v15h-15z"/><path d="m315.553 150.93h15v15.678h-15z" transform="matrix(.724 -.689 .689 .724 -20.409 266.493)"/><path d="m343.714 169.598-10.928 10.275 153.945 163.709v18.048l-178.699-187.986h-114.333l-178.699 187.987v-18.031l235.922-248.829 51.751 53.464 10.778-10.433-62.641-64.713-250.81 264.531v61.024h100.866v-15h-85.866v-.241l182.423-191.905 53.443 46.218 53.442-46.218 182.423 191.905v.241h-85.866v15h100.866v-61.006zm-126.659 19.046h67.621l-33.81 29.241z"/><path d="m186.873 308.144h15v15h-15z"/><path d="m216.873 308.144h15v15h-15z"/></g></svg>