<svg xmlns="http://www.w3.org/2000/svg" viewBox="0 0 84.6 81.68"><defs><style>.cls-1,.cls-3{fill:none;}.cls-1,.cls-2,.cls-3{stroke:#000;stroke-linecap:round;stroke-width:2.51px;}.cls-1,.cls-2{stroke-linejoin:round;}.cls-2{fill:#e2780e;}.cls-3{stroke-miterlimit:10;}</style></defs><g id="Layer_2" data-name="Layer 2"><g id="Layer_1-2" data-name="Layer 1"><path class="cls-1" d="M17.18,51.86c0-.56-.07-1.12-.07-1.68V32.09a1.26,1.26,0,0,1,1.26-1.25H65.2a1.25,1.25,0,0,1,1.26,1.25V50.3a21.26,21.26,0,0,1-.15,2.54,22.14,22.14,0,0,1-1.7,6.41A22.57,22.57,0,0,1,43.88,72.88"/><path class="cls-1" d="M81,39.74a13.21,13.21,0,0,1-16.4,19.51,22.14,22.14,0,0,0,1.7-6.41,7,7,0,1,0,4-12.65,7,7,0,0,0-3.83,1.15V34.56a13.24,13.24,0,0,1,8.65.45"/><path class="cls-1" d="M35.08,1.26c0,4-4.11,4-4.11,8.05s4.11,4,4.11,8.06S31,21.39,31,25.42"/><path class="cls-1" d="M43.37,1.27c0,4-4.14,4-4.18,8s4.08,4.06,4.05,8.09-4.15,4-4.18,8"/><path class="cls-1" d="M51.66,1.27c0,4-4.14,4-4.18,8s4.08,4.06,4.05,8.09-4.15,4-4.18,8"/><path class="cls-1" d="M64.61,80.42H8.86a7.6,7.6,0,0,1-7.6-7.6H82.53a7.59,7.59,0,0,1-5.8,7.38"/><path class="cls-1" d="M12.12,57.2A6.17,6.17,0,0,1,20.8,58,6,6,0,0,1,22,60.47a.09.09,0,0,1,0,.05l0,.11,0,.11A6.41,6.41,0,0,1,21.81,64a6,6,0,0,1-1,1.77,5.51,5.51,0,0,1-.72.73L14.74,71l0,0-.06,0-.15.12A6.16,6.16,0,0,1,6,62.4H6a6.39,6.39,0,0,1,.74-.73l.89-.74"/><path class="cls-1" d="M32.08,66.74a6.16,6.16,0,0,1-6.16,6.12h0l-7,0a6.09,6.09,0,0,1-4.23-1.72h0l.06,0,0,0,5.32-4.5a5.51,5.51,0,0,0,.72-.73,6,6,0,0,0,1-1.77,6.41,6.41,0,0,0,.29-3.28l0-.11,0-.11h0l3.9,0A6.17,6.17,0,0,1,32.08,66.74Z"/><line class="cls-1" x1="32.08" y1="66.74" x2="20.02" y2="66.6"/><path class="cls-2" d="M22.22,61.94a6.15,6.15,0,0,1-2.13,4.66l-.09.08-5.26,4.37-.06,0,0,0A6.16,6.16,0,0,1,6,62.4a6.16,6.16,0,0,0,8.5,8.81l.15-.12.06,0,0,0,5.32-4.5a5.51,5.51,0,0,0,.72-.73,6,6,0,0,0,1-1.77,6.41,6.41,0,0,0,.29-3.28A6.11,6.11,0,0,1,22.22,61.94Z"/><line class="cls-3" x1="20.57" y1="57.75" x2="11.54" y2="65.09"/></g></g></svg>