<svg id="icons" xmlns="http://www.w3.org/2000/svg" viewBox="0 0 64 64"><defs><style>.cls-1{fill:none;stroke:#000;stroke-linecap:round;stroke-linejoin:round;stroke-width:2px;}</style></defs><title>27</title><g id="juice"><path class="cls-1" d="M40.41519,60h-16.539a4,4,0,0,1-3.98886-3.70157L17.018,17.94539a2,2,0,0,1,1.99443-2.14921H45.279a2,2,0,0,1,1.99442,2.14921L44.404,56.29843A4,4,0,0,1,40.41519,60Z"/><path class="cls-1" d="M17.47441,24.0464l2.36947,1.06438a14.65676,14.65676,0,0,0,11.45782.14274h0a14.53381,14.53381,0,0,1,12.88526.893l2.36517,1.44"/><path class="cls-1" d="M35.87832,24.19493l2.74456-13.04754A9,9,0,0,1,47.43014,4H54.045"/><path class="cls-1" d="M17.53468,24.84343c-.22048.011-.441.022-.67245.022a9.07254,9.07254,0,1,1,9.07254-9.07254"/><rect class="cls-1" x="25.61814" y="48.36368" width="6.42382" height="6.42382" rx="1" transform="translate(23.088 -7.23123) rotate(23.62776)"/><rect class="cls-1" x="33.87826" y="41.12672" width="6.42382" height="6.42382" rx="1" transform="translate(20.87993 -11.14851) rotate(23.62776)"/><rect class="cls-1" x="34.75385" y="29.67105" width="6.42382" height="6.42382" rx="1" transform="translate(16.36198 -12.45979) rotate(23.62776)"/><rect class="cls-1" x="23.11374" y="35.7423" width="6.42382" height="6.42382" rx="1" transform="translate(17.81949 -7.28555) rotate(23.62776)"/></g></svg>