<svg xmlns="http://www.w3.org/2000/svg" viewBox="0 0 84.68 64.22"><defs><style>.cls-1,.cls-2{fill:none;stroke:#000;stroke-width:2.5px;}.cls-1{stroke-linecap:round;stroke-linejoin:round;}.cls-2{stroke-miterlimit:10;}</style></defs><g id="Layer_2" data-name="Layer 2"><g id="Layer_1-2" data-name="Layer 1"><path class="cls-1" d="M28.2,1.3c5.42-.48,10.62,2.37,14.47,11,6.65,14.84,7,28.52-1.94,28.31,1-3.07-13.89-29-34.82-19.68-.62.28-2.12-.77-1.6-1.9,2.6-5.58,7.76-9.14,13.51-13.29"/><path class="cls-2" d="M37,42.74s2.45,1.44,3.39-1-.61-5.51-2.61-8.3-8.15-12-18.84-14.15A21.2,21.2,0,0,0,6.19,20.7a5.93,5.93,0,0,0-2.94,2.88c-1,2.21-2.32,6.53-1.93,14.33a27.11,27.11,0,0,0,7.49,15s-.64-10.95,6.34-14S27.62,38.06,37,42.74Z"/><path class="cls-1" d="M13.35,58.73S5,54,11.53,41.88C17,35,26.06,38.2,30.58,39.71s8.35,4,9.5,6.13a8.36,8.36,0,0,1,.86,5.33c0,.07-3-2-5.62-1s-6.77,5.33-6.19,9.22a3.43,3.43,0,0,0,2.45,2.88,19.12,19.12,0,0,1-10.11,0"/><path class="cls-2" d="M34,51a6.1,6.1,0,0,1,4.59-1,4.94,4.94,0,0,1,2.39,1.14c2.31,2,6.49,4.82,6.13,7.35s-4.59,4-10.26,4.39-6.61-1.44-6.61-1.44S26.05,56.47,34,51Z"/><path class="cls-2" d="M38.33,5.41S56.86-.24,66.76,11.47c.09.1-8.83,5.78-9,14.26,0,.81,0,1.62-.15,2.43-.85,6.49-3.72,10.05-10.63,7.73a23.62,23.62,0,0,0-.22-11.63C45,18.09,42.27,9.52,38.33,5.41Z"/><path class="cls-1" d="M66.76,11.47s9.34,2.6,9.7,5.12c0,.79-1.87,2-1.87,2S69.21,22.86,69,31.65c0,0-8.34,3.79-12.28.24a47.73,47.73,0,0,0,1.14-7,14,14,0,0,1,1.34-4.69A23.28,23.28,0,0,1,66.76,11.47Z"/><path class="cls-2" d="M75.46,17.92s9,7.82,7.87,12.62S73.1,33.57,69,31.65C69,31.65,69.52,21.3,75.46,17.92Z"/></g></g></svg>