<?xml version="1.0" encoding="UTF-8"?><svg id="Line" xmlns="http://www.w3.org/2000/svg" viewBox="0 0 64 64"><path d="M44.90332,55.89453c-.1875,0-.37793-.03516-.5625-.11035-.76758-.31055-1.1377-1.18555-.82617-1.95312l13.65527-33.68066c.21875-.54102.33008-1.1123.33008-1.69727,0-.66895-.14062-1.3125-.41895-1.91309-1.37793-2.97266-4.69434-8.18359-11.42773-9.67383-5.33984-1.18359-10.41602.47559-15.08643,4.92969l-20.19678,23.19238c-.54492.62402-1.49219.69043-2.11621.14551-.625-.54395-.69043-1.49121-.14648-2.11621L28.34961,9.77344c.02979-.03418.06104-.06641.09375-.09766,5.37598-5.15137,11.55371-7.13281,17.8584-5.73926,7.99414,1.76953,11.89062,7.86621,13.50195,11.34277.46191,1,.69629,2.06738.69629,3.17383,0,.97363-.18555,1.92383-.55078,2.82422l-13.65527,33.68066c-.23633.58301-.79785.93652-1.39062.93652Z" style="fill:#293a4c; stroke-width:0px;"/><path d="M40.36523,32.16113c-.33301,0-.66699-.11035-.94531-.33594-7.59473-6.17676-15.53564-3.75-15.86963-3.64258-.7876.24707-1.63232-.18164-1.88477-.96875-.25342-.78711.17529-1.62988.96094-1.88574.396-.12891,9.78809-3.06836,18.68604,4.16895.64258.52344.74023,1.46777.21777,2.11035-.29688.36426-.72949.55371-1.16504.55371Z" style="fill:#293a4c; stroke-width:0px;"/><path d="M48.58789,17.93359c-.35938,0-.71973-.12793-1.00684-.38867-5.82715-5.27539-11.45703-3.69238-11.69434-3.62402-.78516.2334-1.62695-.21289-1.86523-1.00391-.23828-.78906.20117-1.62207.98926-1.86523.30078-.09277,7.44531-2.19727,14.58398,4.27051.61426.55566.66113,1.50391.10449,2.11816-.2959.32715-.70312.49316-1.11133.49316Z" style="fill:#293a4c; stroke-width:0px;"/><path d="M44.74023,24.2041c-.34668,0-.69629-.12012-.97949-.36426-5.62695-4.85938-13.36084-3.55469-13.43848-3.54102-.81396.14453-1.59375-.39746-1.73975-1.21191-.14648-.81348.39258-1.59277,1.20605-1.74023.37402-.06836,9.19971-1.5918,15.93311,4.22168.62695.54199.69629,1.48926.15527,2.11621-.29688.34375-.71582.51953-1.13672.51953Z" style="fill:#293a4c; stroke-width:0px;"/><path d="M49.85742,30.16309c-.2334,0-.46875-.05371-.68945-.16895-.73535-.38086-1.02246-1.28613-.64062-2.02148l.53613-1.0332c.38184-.73633,1.28906-1.02344,2.02148-.64062.73535.38086,1.02246,1.28613.64062,2.02148l-.53613,1.0332c-.2666.51465-.79004.80957-1.33203.80957Z" style="fill:#293a4c; stroke-width:0px;"/><path d="M44.45215,40.59668c-.23242,0-.46875-.05371-.68945-.16797-.73535-.38086-1.02246-1.28613-.6416-2.02246l2.91113-5.61816c.38086-.73438,1.28711-1.02051,2.02246-.6416.73535.38086,1.02246,1.28613.6416,2.02246l-2.91113,5.61816c-.2666.51465-.79102.80957-1.33301.80957Z" style="fill:#293a4c; stroke-width:0px;"/><path d="M38.88672,60.49609c-.55664,0-1.11816-.06055-1.67578-.18359l-27.63477-6.11719c-2.79443-.61914-5.01123-2.7207-5.78564-5.48535s-.00684-5.59277,2.05322-7.56543c4.77881-4.58008,12.60352-9.5625,22.73682-7.32422,10.13428,2.24414,15.12256,10.06738,17.52197,16.23535,1.03516,2.6582.53809,5.5459-1.33008,7.72461-1.49609,1.74512-3.65137,2.71582-5.88574,2.71582ZM23.54785,36.25977c-5.49316,0-10.7334,2.36035-15.62891,7.05078-1.24658,1.19434-1.70996,2.91016-1.23975,4.58984.48242,1.72266,1.80762,2.98145,3.54541,3.36523h0l27.63477,6.11719c1.7373.38477,3.4707-.19727,4.63574-1.55469,1.13477-1.32422,1.43848-3.0752.8125-4.68457-3.10547-7.97949-8.27832-12.82227-15.37549-14.39355-1.47754-.32715-2.93994-.49023-4.38428-.49023Z" style="fill:#293a4c; stroke-width:0px;"/><path d="M39.11426,54.27539c-.59961,0-1.16699-.3623-1.39746-.95605-2.33496-5.99707-6.06299-9.60059-11.08105-10.71094-4.07031-.90234-7.96094.2041-12.07715,3.47266,3.68701.81641,10.03906,2.22168,13.73633,3.04004-1.82959-2.46875-4.79004-2.28906-5.19775-2.25098-.82959.06934-1.5542-.52734-1.63525-1.34668-.08057-.82129.51221-1.55273,1.33301-1.63867,2.62207-.27441,7.99268.83398,9.5332,6.97754.12646.50488-.01709,1.03809-.37988,1.41113-.36133.37207-.89111.5293-1.39941.41895l-9.76318-2.16016q-10.38135-2.29785-10.71533-2.83789c-.37305-.60254-.27344-1.38281.23828-1.87305,5.65186-5.41016,11.2041-7.41797,16.97559-6.14258,6.05664,1.34082,10.50684,5.56445,13.22754,12.55273.30078.77148-.08105,1.6416-.85352,1.94141-.17871.07031-.3623.10254-.54395.10254ZM11.3457,46.90527h.00977-.00977Z" style="fill:#293a4c; stroke-width:0px;"/></svg>