<svg id="Capa_1" enable-background="new 0 0 512 512" height="512" viewBox="0 0 512 512" width="512" xmlns="http://www.w3.org/2000/svg"><g><path d="m73.679 365.005c19.482 6.512 24.613 10.635 25.723 11.744 1.108 1.108 5.23 6.237 11.744 25.722 1.987 5.946 7.327 9.789 13.604 9.789 6.276 0 11.616-3.843 13.604-9.788 6.514-19.485 10.636-24.615 11.744-25.723 1.108-1.109 6.24-5.232 25.723-11.744 5.946-1.988 9.788-7.328 9.788-13.604s-3.842-11.616-9.788-13.604c-19.482-6.512-24.614-10.636-25.723-11.743-1.108-1.108-5.23-6.24-11.744-25.723-1.987-5.946-7.327-9.789-13.604-9.789s-11.617 3.843-13.604 9.788c-6.514 19.483-10.636 24.614-11.745 25.723-1.108 1.109-6.24 5.232-25.723 11.744-5.946 1.988-9.788 7.328-9.788 13.604s3.842 11.616 9.789 13.604zm36.329-28.346c1.74-1.741 6.946-6.946 14.742-29.733 7.794 22.786 13 27.991 14.741 29.733 1.741 1.741 6.95 6.948 29.733 14.741-22.785 7.793-27.993 13-29.734 14.741-1.74 1.741-6.944 6.945-14.741 29.733-7.795-22.788-13.001-27.993-14.741-29.732-1.74-1.741-6.948-6.948-29.734-14.742 22.785-7.793 27.993-13 29.734-14.741z"/><path d="m216.406 190.8h-12.718c-2.024 0-3.757-1.376-4.216-3.349l-29.013-124.761c8.438-.517 15.15-7.526 15.15-16.091v-30.456c0-8.902-7.241-16.143-16.143-16.143h-89.432c-8.901 0-16.143 7.241-16.143 16.143v30.455c0 8.566 6.711 15.575 15.149 16.092l-11.015 47.373c-.938 4.034 1.571 8.065 5.606 9.003.571.134 1.143.197 1.705.197 3.408 0 6.493-2.341 7.298-5.804l11.794-50.719h60.643l29.791 128.107c2.046 8.804 9.787 14.952 18.826 14.952h12.718c8.287 0 15.029 6.742 15.029 15.03v23.222h-213.37v-23.221c0-8.288 6.742-15.03 15.03-15.03h12.716c9.038 0 16.779-6.147 18.826-14.951l9.8-42.143c.938-4.034-1.571-8.065-5.606-9.003-4.036-.941-8.065 1.57-9.003 5.606l-9.8 42.142c-.459 1.972-2.192 3.349-4.217 3.349h-12.716c-16.559 0-30.03 13.472-30.03 30.03v261.141c0 16.558 13.471 30.029 30.029 30.029h183.311c16.559 0 30.03-13.472 30.03-30.03v-261.14c0-16.559-13.471-30.03-30.029-30.03zm-137.515-174.657c0-.63.513-1.143 1.143-1.143h89.433c.63 0 1.143.513 1.143 1.143v30.456c0 .63-.513 1.142-1.143 1.142h-89.433c-.63 0-1.143-.513-1.143-1.143zm152.544 242.909v184.696h-213.37v-184.696zm-15.03 237.948h-183.311c-8.287 0-15.029-6.742-15.029-15.029v-23.223h213.37v23.222c0 8.288-6.742 15.03-15.03 15.03z"/><path d="m492.38 265.536h-203.702c-4.7 0-9.193 2.008-12.33 5.509-3.136 3.502-4.639 8.189-4.123 12.861l18.758 169.823c3.67 33.22 31.641 58.271 65.062 58.271h68.97c33.421 0 61.392-25.051 65.062-58.271l1.461-13.228c.454-4.117-2.515-7.823-6.632-8.278-4.127-.444-7.823 2.517-8.278 6.632l-1.461 13.228c-2.83 25.606-24.39 44.917-50.153 44.917h-68.97c-25.763 0-47.323-19.311-50.151-44.917l-11.959-108.27h193.19l-6.641 60.122c-.454 4.117 2.515 7.823 6.632 8.278 4.12.449 7.823-2.516 8.278-6.632l13.439-121.676c1.079-9.762-6.561-18.369-16.452-18.369zm-200.103 63.277-5.142-46.554c-.102-.919.612-1.724 1.543-1.724h203.702c.932 0 1.645.806 1.543 1.724l-5.142 46.554z"/><path d="m347.397 427.783c-4.143 0-7.5 3.357-7.5 7.5s3.357 7.5 7.5 7.5h1.948c4.143 0 7.5-3.357 7.5-7.5s-3.357-7.5-7.5-7.5z"/><path d="m420.804 397.259c-4.143 0-7.5 3.357-7.5 7.5s3.357 7.5 7.5 7.5h1.949c4.143 0 7.5-3.357 7.5-7.5s-3.357-7.5-7.5-7.5z"/><path d="m377.929 374.514c-4.143 0-7.5 3.357-7.5 7.5s3.357 7.5 7.5 7.5h1.948c4.143 0 7.5-3.357 7.5-7.5s-3.357-7.5-7.5-7.5z"/><path d="m468.683 171.89c13.807 0 25.04-11.233 25.04-25.04s-11.233-25.04-25.04-25.04-25.04 11.233-25.04 25.04 11.233 25.04 25.04 25.04zm0-35.08c5.536 0 10.04 4.504 10.04 10.04s-4.504 10.04-10.04 10.04-10.04-4.504-10.04-10.04 4.504-10.04 10.04-10.04z"/><path d="m405.766 242.567c21.324 0 38.672-17.348 38.672-38.672s-17.348-38.672-38.672-38.672-38.672 17.348-38.672 38.672 17.348 38.672 38.672 38.672zm0-62.343c13.053 0 23.672 10.619 23.672 23.672s-10.619 23.672-23.672 23.672-23.672-10.619-23.672-23.672 10.619-23.672 23.672-23.672z"/></g></svg>