<?xml version="1.0" encoding="UTF-8"?><svg id="Line" xmlns="http://www.w3.org/2000/svg" viewBox="0 0 64 64"><path d="M49.57715,60.5H14.42285c-2.10547,0-3.95508-1.49414-4.39941-3.55322l-2.54883-13.85547c-.14941-.81494.38965-1.59668,1.2041-1.74658.81543-.15137,1.59668.38916,1.74707,1.20361l2.54004,13.81104c.13867.64209.75586,1.14062,1.45703,1.14062h35.1543c.70117,0,1.31836-.49854,1.46582-1.18506l1.60059-8.70801c.14941-.81445.92676-1.35889,1.74707-1.20361.81445.14941,1.35352.93164,1.2041,1.74658l-1.60938,8.75244c-.45312,2.10352-2.30273,3.59766-4.4082,3.59766Z" style="fill:#293a4c; stroke-width:0px;"/><path d="M32,60.5c-.82812,0-1.5-.67139-1.5-1.5v-17.70264c0-.82861.67188-1.5,1.5-1.5s1.5.67139,1.5,1.5v17.70264c0,.82861-.67188,1.5-1.5,1.5Z" style="fill:#293a4c; stroke-width:0px;"/><path d="M20.99805,60.5c-.74707,0-1.39355-.55713-1.4873-1.31738l-1.38281-11.28613c-.10059-.82227.48438-1.5708,1.30664-1.67139.83594-.10254,1.57031.48438,1.67188,1.30615l1.38281,11.28613c.10059.82227-.48438,1.5708-1.30664,1.67139-.0625.00781-.12402.01123-.18457.01123Z" style="fill:#293a4c; stroke-width:0px;"/><path d="M43.00195,60.5c-.06055,0-.12207-.00342-.18457-.01123-.82227-.10059-1.40723-.84863-1.30664-1.67139l1.95996-16c.10156-.82178.84082-1.40967,1.67188-1.30615.82227.10059,1.40723.84863,1.30664,1.67139l-1.95996,16c-.09375.76025-.74023,1.31738-1.4873,1.31738Z" style="fill:#293a4c; stroke-width:0px;"/><path d="M15.93848,20.49658c-.46094,0-.91504-.21191-1.20703-.61426-1.33984-1.84277-1.33887-5.43701-.00684-7.26807l.01465-.01904c.54688-.78027.54297-2.95068-.01172-3.7124-.4873-.66943-.33984-1.60791.33008-2.09521.66797-.48877,1.60645-.34131,2.0957.32959,1.33398,1.83154,1.33398,5.42773,0,7.25928-.00488.00635-.00977.0127-.01367.01855-.54688.77979-.54297,2.95068.00977,3.7124.4873.66992.34277,1.61328-.32715,2.10059-.26758.19434-.57715.28857-.88379.28857ZM15.94043,13.49365h.00977-.00977Z" style="fill:#293a4c; stroke-width:0px;"/><path d="M26.64648,17.49658c-.46094,0-.91504-.21191-1.20703-.61426-1.33301-1.8335-1.33887-5.39893-.02832-7.23779.00781-.01172.01562-.02295.02344-.03369.55859-.7666.55859-2.96143,0-3.72803-.4873-.66943-.33984-1.60791.33008-2.09521.66797-.48828,1.60645-.34082,2.0957.32959,1.32617,1.82178,1.33398,5.38818.02148,7.229-.00781.01172-.01562.02295-.02344.03418-.55762.76514-.55859,2.95996-.00098,3.72705.4873.66992.34277,1.61328-.32715,2.10059-.26758.19434-.57715.28857-.88379.28857ZM26.64551,10.49707h.00977-.00977Z" style="fill:#293a4c; stroke-width:0px;"/><path d="M37.35352,17.49658c-.46094,0-.91504-.21191-1.20703-.61426-1.33203-1.83252-1.33887-5.39746-.0293-7.2373.00879-.01172.0166-.02295.02441-.03418.55859-.7666.55859-2.96143,0-3.72803-.4873-.66943-.33984-1.60791.33008-2.09521.66895-.48828,1.60742-.34082,2.0957.32959,1.32617,1.82178,1.33398,5.38818.02148,7.229l-.02344.03369c-.55762.76611-.55762,2.96094-.00098,3.72754.4873.66992.34277,1.61328-.32715,2.10059-.26758.19434-.57715.28857-.88379.28857ZM37.35254,10.49707h.00977-.00977Z" style="fill:#293a4c; stroke-width:0px;"/><path d="M48.06055,20.49658c-.46094,0-.91504-.21191-1.20703-.61426-1.33984-1.84277-1.33887-5.43701-.00684-7.26807l.01465-.01904c.5459-.7793.54199-2.95068-.01172-3.71289-.4873-.66992-.33984-1.60791.33008-2.09521.66797-.48682,1.6084-.34082,2.0957.33057,1.33301,1.83252,1.33301,5.42822,0,7.25879-.00488.00635-.00977.0127-.01367.01855-.54688.77979-.54297,2.95068.00977,3.7124.4873.66992.34277,1.61328-.32715,2.10059-.26758.19434-.57715.28857-.88379.28857ZM48.0625,13.49365h.00977-.00977Z" style="fill:#293a4c; stroke-width:0px;"/><path d="M53.59961,44.5c-1.5957,0-3.10742-.44873-4.31934-1.25928-1.21191.81055-2.72461,1.25928-4.32031,1.25928s-3.10742-.44873-4.32031-1.25928c-1.21094.81055-2.72363,1.25928-4.31934,1.25928s-3.1084-.44873-4.32031-1.25928c-1.21191.81055-2.72461,1.25928-4.32031,1.25928s-3.10742-.44873-4.31934-1.25928c-1.21191.81055-2.72461,1.25928-4.32031,1.25928s-3.1084-.44873-4.32031-1.25928c-1.21191.81055-2.72363,1.25928-4.31934,1.25928-3.80469,0-6.90039-2.55713-6.90039-5.7002,0-9.85547,15.6709-18.2998,28.5-18.2998s28.5,8.44434,28.5,18.2998c0,3.14307-3.0957,5.7002-6.90039,5.7002ZM49.28027,39.79688c.40918,0,.80078.16699,1.08398.46289.74316.77637,1.95312,1.24023,3.23535,1.24023,2.11426,0,3.90039-1.23633,3.90039-2.7002,0-7.29248-13.3457-15.2998-25.5-15.2998S6.5,31.50732,6.5,38.7998c0,1.46387,1.78613,2.7002,3.90039,2.7002,1.28223,0,2.49219-.46387,3.23535-1.24023.56641-.5918,1.60156-.5918,2.16797,0,.74316.77637,1.95312,1.24023,3.23633,1.24023s2.49316-.46387,3.23633-1.24023c.56641-.5918,1.60156-.5918,2.16797,0,.74316.77637,1.95312,1.24023,3.23535,1.24023,1.2832,0,2.49316-.46338,3.2373-1.24023.56445-.59082,1.60156-.59082,2.16602,0,.74414.77686,1.9541,1.24023,3.2373,1.24023s2.49316-.46338,3.23535-1.23975c.2832-.2959.67383-.46338,1.08398-.46338h0c.40918,0,.80078.16699,1.08398.46289.74316.77637,1.95312,1.24023,3.23633,1.24023s2.49316-.46387,3.23633-1.24023c.2832-.2959.6748-.46289,1.08398-.46289Z" style="fill:#293a4c; stroke-width:0px;"/><path d="M32,32.5c-.82812,0-1.5-.67139-1.5-1.5v-2.52002c0-.82861.67188-1.5,1.5-1.5s1.5.67139,1.5,1.5v2.52002c0,.82861-.67188,1.5-1.5,1.5Z" style="fill:#293a4c; stroke-width:0px;"/><path d="M23,31.95947c-.36914,0-.73926-.13525-1.0293-.40869-.60254-.56836-.62988-1.51807-.06152-2.12061l1.86719-1.97949c.56738-.60303,1.51758-.63037,2.12012-.06201s.62988,1.51807.06152,2.12061l-1.86719,1.97949c-.29492.31299-.69238.4707-1.09082.4707Z" style="fill:#293a4c; stroke-width:0px;"/><path d="M41,31.95947c-.39844,0-.7959-.15771-1.09082-.4707l-1.86719-1.97949c-.56836-.60254-.54102-1.55225.06152-2.12061.60254-.56738,1.55273-.54102,2.12012.06201l1.86719,1.97949c.56836.60254.54102,1.55225-.06152,2.12061-.29004.27295-.66016.40869-1.0293.40869Z" style="fill:#293a4c; stroke-width:0px;"/></svg>