<?xml version="1.0" encoding="UTF-8"?><svg id="Line" xmlns="http://www.w3.org/2000/svg" viewBox="0 0 64 64"><path d="M32,22.5c-3.30859,0-6-2.69141-6-6s2.69141-6,6-6,6,2.69141,6,6c0,.82861-.67188,1.5-1.5,1.5s-1.5-.67139-1.5-1.5c0-1.6543-1.3457-3-3-3s-3,1.3457-3,3,1.3457,3,3,3c.82812,0,1.5.67139,1.5,1.5s-.67188,1.5-1.5,1.5Z" style="fill:#293a4c; stroke-width:0px;"/><path d="M45.63086,60.5h-27.26172c-2.09277,0-3.89355-1.42188-4.37695-3.4585l-4.45117-18.69385c-.19238-.80615.30566-1.61475,1.11133-1.80664.81348-.19336,1.61523.30664,1.80664,1.11133l4.45117,18.69482c.16113.6792.76172,1.15283,1.45898,1.15283h27.26172c.69727,0,1.29785-.47363,1.45898-1.15186l3.02246-12.6958c.19141-.80615,1-1.30273,1.80664-1.11133.80566.19141,1.30371,1.00049,1.11133,1.80664l-3.02246,12.69482c-.4834,2.03564-2.28418,3.45752-4.37695,3.45752Z" style="fill:#293a4c; stroke-width:0px;"/><path d="M21.87109,46.5c-.74512,0-1.3916-.55518-1.48633-1.31445l-.87305-7c-.10254-.82178.48047-1.57129,1.30273-1.67383.82031-.10205,1.57129.48096,1.67383,1.30273l.87305,7c.10254.82178-.48047,1.57129-1.30273,1.67383-.0625.00781-.12598.01172-.1875.01172Z" style="fill:#293a4c; stroke-width:0px;"/><path d="M23.61719,60.5c-.74512,0-1.3916-.55518-1.48633-1.31445l-1.02539-8.22021c-.10254-.82178.48047-1.57129,1.30273-1.67383.82031-.10352,1.57129.48047,1.67383,1.30273l1.02539,8.22021c.10254.82178-.48047,1.57129-1.30273,1.67383-.0625.00781-.12598.01172-.1875.01172Z" style="fill:#293a4c; stroke-width:0px;"/><path d="M42.19336,45.98535c-.06152,0-.125-.00391-.1875-.01172-.82227-.10254-1.40527-.85205-1.30273-1.67383l.80859-6.48535c.10254-.82178.85352-1.4043,1.67383-1.30273.82227.10254,1.40527.85205,1.30273,1.67383l-.80859,6.48535c-.09473.75928-.74121,1.31445-1.48633,1.31445Z" style="fill:#293a4c; stroke-width:0px;"/><path d="M40.38281,60.5c-.06152,0-.12402-.00391-.1875-.01172-.82227-.10205-1.40527-.85156-1.30273-1.67383l1.12207-9c.10254-.82227.83984-1.40674,1.67383-1.30273.82227.10205,1.40527.85156,1.30273,1.67383l-1.12207,9c-.09473.75928-.74121,1.31445-1.48633,1.31445Z" style="fill:#293a4c; stroke-width:0px;"/><path d="M32,60.5c-.82812,0-1.5-.67139-1.5-1.5v-21c0-.82861.67188-1.5,1.5-1.5s1.5.67139,1.5,1.5v21c0,.82861-.67188,1.5-1.5,1.5Z" style="fill:#293a4c; stroke-width:0px;"/><path d="M31.99609,13.49609c-.71973,0-1.35352-.5166-1.47559-1.24951-.43164-2.58691.31641-7.74023,6.23242-8.72607.81934-.13818,1.59082.41553,1.72656,1.23291.13672.81738-.41602,1.58984-1.23242,1.72607-4.25488.70898-3.88379,4.52441-3.7666,5.28174.12695.81543-.42773,1.58447-1.24316,1.71533-.08105.01318-.16113.01953-.24121.01953Z" style="fill:#293a4c; stroke-width:0px;"/><path d="M53,39.5H11c-.45801,0-.8916-.20947-1.17578-.56885s-.38965-.82861-.28418-1.2749l.10645-.45215c2.45215-10.42383,11.64453-17.7041,22.35352-17.7041s19.90137,7.28027,22.35352,17.7041l.10645.45215c.10547.44629,0,.91553-.28418,1.2749s-.71777.56885-1.17578.56885ZM12.94629,36.5h38.10742c-2.58789-8.3125-10.22754-14-19.05371-14s-16.4668,5.6875-19.05371,14Z" style="fill:#293a4c; stroke-width:0px;"/><path d="M25.49902,29.6665c-.3457,0-.69238-.11865-.97559-.36133-.62891-.53906-.70117-1.48584-.16211-2.11475l1-1.1665c.53906-.62939,1.48535-.70215,2.11523-.1626.62891.53906.70117,1.48584.16211,2.11475l-1,1.1665c-.29688.34619-.7168.52393-1.13965.52393Z" style="fill:#293a4c; stroke-width:0px;"/><path d="M43.49902,35.5c-.3457,0-.69238-.11865-.97559-.36133-.62891-.53906-.70117-1.48584-.16211-2.11475l1-1.1665c.53906-.62988,1.48535-.70215,2.11523-.1626.62891.53906.70117,1.48584.16211,2.11475l-1,1.1665c-.29688.34619-.7168.52393-1.13965.52393Z" style="fill:#293a4c; stroke-width:0px;"/><path d="M38.49902,29.6665c-.3457,0-.69238-.11865-.97559-.36133-.62891-.53906-.70117-1.48584-.16211-2.11475l1-1.1665c.53906-.62939,1.48535-.70215,2.11523-.1626.62891.53906.70117,1.48584.16211,2.11475l-1,1.1665c-.29688.34619-.7168.52393-1.13965.52393Z" style="fill:#293a4c; stroke-width:0px;"/><path d="M20.50098,35.5c-.42285,0-.84277-.17773-1.13965-.52393l-1-1.1665c-.53906-.62891-.4668-1.57568.16211-2.11475.63086-.54004,1.57715-.46582,2.11523.1626l1,1.1665c.53906.62891.4668,1.57568-.16211,2.11475-.2832.24268-.63086.36133-.97559.36133Z" style="fill:#293a4c; stroke-width:0px;"/><path d="M33.50098,34.3335c-.42285,0-.84375-.17773-1.13965-.52393l-1-1.16699c-.53906-.62891-.4668-1.57617.16309-2.11523.62793-.53906,1.57715-.46582,2.11426.16309l1,1.16699c.53906.62891.4668,1.57617-.16309,2.11523-.28223.24219-.62988.36084-.97461.36084Z" style="fill:#293a4c; stroke-width:0px;"/></svg>