<svg id="icons" xmlns="http://www.w3.org/2000/svg" viewBox="0 0 64 64"><defs><style>.cls-1{fill:none;stroke:#000;stroke-linecap:round;stroke-linejoin:round;stroke-width:2px;}</style></defs><title>26</title><g id="coffee_house_2"><rect class="cls-1" x="14.61593" y="40.04717" width="18.17674" height="15.53153"/><line class="cls-1" x1="55.7047" y1="60" x2="55.70468" y2="35.58126"/><line class="cls-1" x1="8.37062" y1="35.6104" x2="8.37061" y2="60"/><path class="cls-1" d="M21.40716,15.81812H21.3695A17.86426,17.86426,0,0,0,5.57416,24.908l-1.4988,2.77673H60l-1.56248-2.8563a17.87269,17.87269,0,0,0-15.7521-9.01032h0"/><path class="cls-1" d="M45.9667,31.23437c0,2.61148-3.13138,4.7285-6.99413,4.7285s-6.99412-2.117-6.99412-4.7285"/><path class="cls-1" d="M45.96229,27.68474v3.55162c0,2.61275,3.13267,4.72336,6.9973,4.72336a10.11518,10.11518,0,0,0,2.74509-.37846c2.4975-.72051,4.25222-2.39442,4.25222-4.3449L60,27.68474Z"/><path class="cls-1" d="M32.043,27.68474l-.06459,3.55162c0,2.61277-3.13264,4.72337-6.99731,4.72337s-6.98654-2.1106-6.98654-4.72337"/><path class="cls-1" d="M4,31.23636c0,1.98686,1.80853,3.67534,4.37062,4.374a9.82155,9.82155,0,0,0,2.62669.34932c3.86463,0,6.9973-2.11061,6.9973-4.72336V27.68474H4.07536Z"/><path class="cls-1" d="M51.21959,60V45.966a6.13459,6.13459,0,0,0-6.32966-5.91881h0A6.13458,6.13458,0,0,0,38.56027,45.966V60"/><line class="cls-1" x1="60" y1="60" x2="4.07536" y2="60"/><ellipse class="cls-1" cx="32.04544" cy="14.10059" rx="10.8017" ry="10.10059"/><line class="cls-1" x1="46.84825" y1="49.25317" x2="46.84825" y2="51.09732"/><path class="cls-1" d="M20.2932,40.0472s.883,3.75176-5.67727,8.38221"/><path class="cls-1" d="M27.11539,40.0472s-.883,3.75176,5.67727,8.38221"/><line class="cls-1" x1="26.93851" y1="50.45946" x2="20.47008" y2="50.45946"/><line class="cls-1" x1="23.70429" y1="50.45946" x2="23.70429" y2="55.5787"/><ellipse class="cls-1" cx="32.04544" cy="14.10059" rx="6.37399" ry="5.05202" transform="translate(-1.33837 24.64848) rotate(-41.28475)"/><path class="cls-1" d="M37.21705,10.40606l-.46683.91623a5.27924,5.27924,0,0,1-4.6996,2.79508h0a5.29343,5.29343,0,0,0-4.62855,2.66092l-.55568,1.01037"/></g></svg>