<svg xmlns="http://www.w3.org/2000/svg" viewBox="0 0 84.82 56.71"><defs><style>.cls-1,.cls-3{fill:none;}.cls-1{stroke:#000;stroke-linecap:round;stroke-linejoin:round;stroke-width:2.28px;}.cls-2{fill:#d0d24b;}</style></defs><g id="Layer_2" data-name="Layer 2"><g id="Layer_1-2" data-name="Layer 1"><path class="cls-1" d="M55.4,21.78h-22a20.59,20.59,0,0,1,6-7.6H65.16a20.85,20.85,0,0,1,3.58,3.57,20.34,20.34,0,0,1,2.35,3.77c-.12.08-.25.17-.36.26h-5.9"/><path class="cls-2" d="M71.21,21.78h-.48c.11-.09.24-.18.36-.26Z"/><path class="cls-3" d="M65.17,14.18H39.45A14.57,14.57,0,0,1,49,6.91a3.64,3.64,0,0,1-.61-2,3.92,3.92,0,0,1,7.84,0,3.56,3.56,0,0,1-.63,2A14.59,14.59,0,0,1,65.17,14.18Z"/><path class="cls-1" d="M65.17,14.18H39.45A14.57,14.57,0,0,1,49,6.91a3.64,3.64,0,0,1-.61-2,3.92,3.92,0,0,1,7.84,0,3.56,3.56,0,0,1-.63,2A14.59,14.59,0,0,1,65.17,14.18Z"/><path class="cls-1" d="M64.31,21.78h6.9a20.31,20.31,0,0,1,1.9,8.6,20.55,20.55,0,0,1-1.18,6.86,20.16,20.16,0,0,1-1.94,4,20.86,20.86,0,0,1-9.16,7.94h-17"/><path class="cls-1" d="M23.37,27.9l-.3-3.32s-.51-3.73-2.82-4.11h-2.7v-4.7H24.1s4.4.09,6.11,5.34c1.56,4.78,2,4,2,3.83v0a19.63,19.63,0,0,1,1.16-3.14h22"/><path class="cls-3" d="M71.21,21.78h-.48c.11-.09.24-.18.36-.26Z"/><path class="cls-3" d="M71.21,21.78h-.48c.11-.09.24-.18.36-.26Z"/><path class="cls-3" d="M83.68,24.88v8.4a9,9,0,0,1-9,9h-.35A9.06,9.06,0,0,1,70,41.23a20.16,20.16,0,0,0,1.94-4,4.54,4.54,0,0,0,1.66.31H74a4.65,4.65,0,0,0,4.65-4.65V25.44A4.65,4.65,0,0,0,74,20.79h-.38a4.64,4.64,0,0,0-2.5.73,20.34,20.34,0,0,0-2.35-3.77,9,9,0,0,1,5.55-1.91h.35A9,9,0,0,1,83.68,24.88Z"/><path class="cls-1" d="M83.68,24.88v8.4a9,9,0,0,1-9,9h-.35A9.06,9.06,0,0,1,70,41.23a20.16,20.16,0,0,0,1.94-4,4.54,4.54,0,0,0,1.66.31H74a4.65,4.65,0,0,0,4.65-4.65V25.44A4.65,4.65,0,0,0,74,20.79h-.38a4.64,4.64,0,0,0-2.5.73,20.34,20.34,0,0,0-2.35-3.77,9,9,0,0,1,5.55-1.91h.35A9,9,0,0,1,83.68,24.88Z"/><path class="cls-1" d="M41.07,30.86H38.82V29.67a1.08,1.08,0,0,0-1.08-1.08H3.91a1.08,1.08,0,0,0-1.08,1.08v5.08a14,14,0,0,0,14,14h8.07a13.92,13.92,0,0,0,10.19-4.42h6.14a6.71,6.71,0,0,0,6.71-6.66A6.82,6.82,0,0,0,41.07,30.86Zm1.5,8.45A2.35,2.35,0,0,1,40.9,40H37.8a14,14,0,0,0,1-4.72H40.9a2.36,2.36,0,0,1,2.36,2.36A2.39,2.39,0,0,1,42.57,39.31Z"/><line class="cls-1" x1="6.12" y1="33.9" x2="15.11" y2="33.9"/><line class="cls-1" x1="19.07" y1="33.9" x2="21.45" y2="33.9"/><path class="cls-1" d="M12,55.57H9.47c-4.6,0-8.33-2.94-8.33-6.56H83.68c0,3.62-3.73,6.56-8.34,6.56H22.22"/><path class="cls-1" d="M8.52,3.06c0,2.71-3.68,2.71-3.68,5.41s3.68,2.71,3.68,5.41S4.84,16.59,4.84,19.3,8.52,22,8.52,24.71"/><path class="cls-1" d="M15.19,3.05c0,2.7-3.67,2.73-3.65,5.44s3.71,2.67,3.73,5.38-3.66,2.73-3.64,5.44,3.7,2.68,3.72,5.39"/></g></g></svg>