<?xml version="1.0" encoding="UTF-8"?><svg id="Line" xmlns="http://www.w3.org/2000/svg" viewBox="0 0 64 64"><path d="M35.80957,57.5H11.98145c-1.22656,0-2.37207-.48438-3.22656-1.36328-.85547-.87939-1.30664-2.03857-1.27148-3.26416l.87402-30.82422c-2.78613-.68994-4.85742-3.21143-4.85742-6.20801,0-3.59131,2.51367-6.73535,5.97754-7.47656,7.48242-1.60107,15.0791-2.1748,22.59082-1.70166.82617.05225,1.4541.76465,1.40234,1.59131s-.75195,1.45996-1.5918,1.40283c-7.23047-.45361-14.55762.09717-21.77441,1.64111-2.08887.44678-3.60449,2.35742-3.60449,4.54297,0,1.87207,1.52344,3.39502,3.39551,3.39502.40527,0,.79297.16406,1.0752.45459.2832.29053.43555.68311.42383,1.08789l-.91309,32.17969c-.01074.40869.13965.79492.42383,1.08789.28516.29297.66699.45459,1.07617.45459h23.82812c.82812,0,1.5.67139,1.5,1.5s-.67188,1.5-1.5,1.5Z" style="fill:#293a4c; stroke-width:0px;"/><path d="M20,29.21436c-2.48145,0-4.5-2.24316-4.5-5s2.01855-5,4.5-5,4.5,2.24316,4.5,5-2.01855,5-4.5,5ZM20,22.21436c-.81348,0-1.5.91602-1.5,2s.68652,2,1.5,2,1.5-.91602,1.5-2-.68652-2-1.5-2Z" style="fill:#293a4c; stroke-width:0px;"/><path d="M18.08496,46.5c-2.48145,0-4.5-2.24316-4.5-5s2.01855-5,4.5-5,4.5,2.24316,4.5,5-2.01855,5-4.5,5ZM18.08496,39.5c-.81348,0-1.5.91602-1.5,2s.68652,2,1.5,2,1.5-.91602,1.5-2-.68652-2-1.5-2Z" style="fill:#293a4c; stroke-width:0px;"/><path d="M34.48633,39.40283c-2.48145,0-4.5-2.24316-4.5-5s2.01855-5,4.5-5,4.5,2.24316,4.5,5-2.01855,5-4.5,5ZM34.48633,32.40283c-.81348,0-1.5.91602-1.5,2s.68652,2,1.5,2,1.5-.91602,1.5-2-.68652-2-1.5-2Z" style="fill:#293a4c; stroke-width:0px;"/><circle cx="29.51329" cy="16.48784" r="1.51273" style="fill:#293a4c; stroke-width:0px;"/><circle cx="15.51329" cy="16.48784" r="1.51273" style="fill:#293a4c; stroke-width:0px;"/><circle cx="30.48671" cy="44.48784" r="1.51273" style="fill:#293a4c; stroke-width:0px;"/><circle cx="37.48671" cy="48.48784" r="1.51273" style="fill:#293a4c; stroke-width:0px;"/><circle cx="35.48671" cy="23.51216" r="1.51273" style="fill:#293a4c; stroke-width:0px;"/><circle cx="17.51329" cy="50.51216" r="1.51273" style="fill:#293a4c; stroke-width:0px;"/><circle cx="23.48671" cy="33.51216" r="1.51273" style="fill:#293a4c; stroke-width:0px;"/><path d="M51.91406,57.5h-10.10449c-.82812,0-1.5-.67139-1.5-1.5s.67188-1.5,1.5-1.5c.4082,0,.79004-.16113,1.0752-.4541.28418-.29346.43457-.67969.42383-1.08838l-.91211-32.17969c-.01172-.40479.14062-.79736.42383-1.08789.28223-.29053.66992-.45459,1.0752-.45459,1.92969,0,3.5-1.57031,3.5-3.5,0-2.12012-1.47363-3.97559-3.50391-4.41113-3.96484-.85059-8.00684-1.40967-12.01172-1.66162-.79102-.0498-1.40625-.70508-1.40625-1.49707s.61523-1.44727,1.40625-1.49707c7.54785-.47705,15.20508.10352,22.74512,1.72217,3.4043.73096,5.875,3.81982,5.875,7.34473,0,3.05469-2.11816,5.62354-4.96191,6.31641l.87305,30.8208c.03613,1.22461-.41504,2.38379-1.26953,3.26318-.85449.87988-2.00098,1.36426-3.22754,1.36426ZM46.05469,54.5h5.85938c.40918,0,.79102-.16162,1.0752-.45459.28516-.29297.43555-.6792.42383-1.08691l-.91211-32.18066c-.01172-.40479.14062-.79736.42383-1.08789.28223-.29053.66992-.45459,1.0752-.45459,1.92969,0,3.5-1.57031,3.5-3.5,0-2.12012-1.47363-3.97559-3.50391-4.41113-1.97363-.42383-3.9541-.77344-5.93848-1.04883,1.44824,1.38574,2.33789,3.34424,2.33789,5.45996,0,3.05469-2.11816,5.62354-4.96191,6.31641l.87305,30.8208c.0166.56348-.07031,1.11279-.25195,1.62744Z" style="fill:#293a4c; stroke-width:0px;"/></svg>