<svg id="Capa_1" enable-background="new 0 0 509.844 509.844" height="512" viewBox="0 0 509.844 509.844" width="512" xmlns="http://www.w3.org/2000/svg"><g><path d="m374.334 389.845h15v15h-15z"/><path d="m509.844 204.305-29.828-24.456h-.174v-20.474l-84.381-84.382h-311.08l-84.381 84.383v245.469h29.834v30.004h420.01v-30.004h29.998v-149.994h30.002zm-45.002 185.54h-60.508v15h30.51v15.004h-390.01v-15.004h314.5v-15h-344.334v-224.256l74.804-74.805v134.066h81.53v-15h-66.53v-119.856h269.531v119.856h-67.5v15h82.5v-134.769l75.507 75.508zm30.002-149.994h-15.002v-40.747l15.002 12.3z"/><path d="m119.334 104.849h15v15h-15z"/><path d="m149.334 104.849h15v15h-15z"/><path d="m29.834 179.35h15v15h-15z"/><path d="m29.834 209.851h15v15h-15z"/><path d="m239.569 165.086c-28.819 0-52.265 23.446-52.265 52.265s23.446 52.265 52.265 52.265 52.265-23.446 52.265-52.265-23.446-52.265-52.265-52.265zm0 89.529c-20.548 0-37.265-16.717-37.265-37.265s16.717-37.265 37.265-37.265c5.793 0 11.28 1.329 16.175 3.698l-13.238 13.238 10.606 10.606 14.629-14.627c5.658 6.537 9.093 15.048 9.093 24.351 0 20.548-16.717 37.264-37.265 37.264z"/></g></svg>