<svg id="icons" xmlns="http://www.w3.org/2000/svg" viewBox="0 0 64 64"><defs><style>.cls-1{fill:none;stroke:#000;stroke-linecap:round;stroke-linejoin:round;stroke-width:2px;}</style></defs><title>17</title><g id="coffee_house_4"><path class="cls-1" d="M29.5097,60V56.6696a2.231,2.231,0,0,1,2.21909-2.24269h13.3589a2.231,2.231,0,0,1,2.21909,2.24269V60H58.89041A1.11549,1.11549,0,0,0,60,58.87865V7.364A3.34648,3.34648,0,0,0,56.67133,4H21.06607a3.34648,3.34648,0,0,0-3.32863,3.364V58.87865A1.11549,1.11549,0,0,0,18.847,60Z"/><path class="cls-1" d="M4.08194,57.15832,17.73744,7.364V54.42691h-3.013a2.231,2.231,0,0,0-2.21909,2.24269V60H6.22042A2.238,2.238,0,0,1,4.08194,57.15832Z"/><g id="coffee"><path class="cls-1" d="M33.33334,42.21519a14.23065,14.23065,0,0,1-6.25149-11.91541V28.54243A1.07893,1.07893,0,0,1,28.155,27.45784H49.24072a1.07893,1.07893,0,0,1,1.07318,1.08459v1.75735a14.22572,14.22572,0,0,1-6.24579,11.91541Z"/><path class="cls-1" d="M50.3139,29.14687a4.92673,4.92673,0,0,1,3.44517,5.79341,4.87414,4.87414,0,0,1-5.85792,3.453"/><line class="cls-1" x1="50.27004" y1="31.42114" x2="27.1258" y2="31.42114"/><polyline class="cls-1" points="53.123 42.214 38.869 42.214 24.615 42.214"/><path class="cls-1" d="M39.23231,15.67581l-.42609.49215a2.32076,2.32076,0,0,0-.523,2.155,2.41728,2.41728,0,0,0,.10378.28185h0a2.4178,2.4178,0,0,1,.10378.28184,2.32075,2.32075,0,0,1-.523,2.155l-.42609.49215"/><path class="cls-1" d="M34.33671,18.60275l-.3325.38406a1.75838,1.75838,0,0,0-.45525,1.36648,1.85344,1.85344,0,0,0,.14.49421h0a1.854,1.854,0,0,1,.13995.49421,1.75843,1.75843,0,0,1-.45524,1.36649l-.33251.384"/><path class="cls-1" d="M43.74282,18.60275l-.33251.38406a1.75841,1.75841,0,0,0-.45524,1.36648,1.85378,1.85378,0,0,0,.13995.49421h0a1.85365,1.85365,0,0,1,.14.49421,1.7584,1.7584,0,0,1-.45525,1.36649l-.3325.384"/></g></g></svg>