<svg id="icons" xmlns="http://www.w3.org/2000/svg" viewBox="0 0 64 64"><defs><style>.cls-1{fill:none;stroke:#000;stroke-linecap:round;stroke-linejoin:round;stroke-width:2px;}</style></defs><title>1</title><g id="coffee_beans"><path class="cls-1" d="M19.74021,4H44.83711a2,2,0,0,1,2,2v4.466a0,0,0,0,1,0,0H17.74021a0,0,0,0,1,0,0V6A2,2,0,0,1,19.74021,4Z"/><path class="cls-1" d="M17.74021,10.466l-4.84949,9.5835V55.55461A4.44539,4.44539,0,0,0,17.33611,60H46.54845"/><path class="cls-1" d="M41.98763,20.04948l4.84948-9.5835,4.27217,9.5835v35.3897a4.56083,4.56083,0,0,1-9.12165,0Z"/><line class="cls-1" x1="12.89072" y1="20.04948" x2="41.98763" y2="20.04948"/><line class="cls-1" x1="12.89072" y1="53.3319" x2="41.98763" y2="53.21647"/><ellipse class="cls-1" cx="28.16644" cy="36.63298" rx="8.9868" ry="7.11455" transform="translate(-17.99052 34.42874) rotate(-49.70987)"/><path class="cls-1" d="M35.21323,31.2494l-.63611,1.3351a7.14251,7.14251,0,0,1-6.40363,4.07292h0a7.14253,7.14253,0,0,0-6.30682,3.87743l-.75716,1.47228"/></g></svg>