<svg id="Capa_1" enable-background="new 0 0 512 512" height="512" viewBox="0 0 512 512" width="512" xmlns="http://www.w3.org/2000/svg"><g><path d="m486.799 319.123h-46.882c-12.13-24.959-34.673-42.993-61.191-48.667-.667-.142-1.255-.799-1.531-1.7-5.085-16.697-19.903-27.915-36.874-27.915-.101 0-.201 0-.302.001-3.697-20.212-25.046-31.677-43.331-22.846-2.501-7.283-6.861-13.818-12.5-18.886l16.467-19.625c.607-.724 1.618-.992 2.503-.667 10.923 3.986 22.993.434 30.037-8.84 8.202-10.799 6.737-26.377-3.336-35.466-5.414-4.886-12.592-7.297-19.824-6.699-.664-7.227-4.288-13.875-10.04-18.361-10.698-8.34-26.294-7.079-35.506 2.873-7.912 8.547-9.314 21.052-3.49 31.116.475.82.385 1.858-.222 2.582l-35.301 42.07c-.018.021-.031.043-.049.064-2.62 3.122-6.191 7.379-10.685 12.736-5.28 6.3-14.25 9.419-24.499 11.785 1.228-3.37 2.427-6.664 3.502-9.615.004-.01.01-.02.014-.03l20.249-55.635c.322-.887 1.175-1.482 2.122-1.482h.026c11.617 0 21.733-7.464 25.178-18.581 4.013-12.953-2.692-27.09-15.265-32.186-6.759-2.739-14.329-2.552-20.921.485-3.097-6.563-8.776-11.572-15.714-13.819-12.911-4.181-27.13 2.341-32.383 14.843-4.511 10.737-1.552 22.967 7.363 30.433.726.608.997 1.614.674 2.501 0 0-20.868 57.323-24.497 67.305-3.79 10.416-15.435 17.447-28.917 25.589-5.302 3.201-10.783 6.511-16.182 10.271-3.398 2.368-4.234 7.042-1.867 10.441 2.368 3.398 7.04 4.234 10.441 1.867 4.996-3.481 10.266-6.662 15.36-9.739 15.253-9.21 29.66-17.909 35.261-33.302 2.526-6.948 4.51-12.396 5.921-16.272l20.729 7.542c-1.592 4.374-3.745 10.287-5.926 16.271-5.604 15.398-.156 31.327 5.609 48.191 7.288 21.316 13.304 40.343 4.386 61.366h-106.754c-5.678-13.431-6.133-28.653-1.121-42.417 1.147-3.127 2.562-6.143 4.202-8.964 2.082-3.581.868-8.171-2.713-10.254s-8.171-.868-10.254 2.713c-2.079 3.575-3.868 7.389-5.324 11.354-5.597 15.374-5.793 32.176-.794 47.568h-37.447c-13.896.001-25.201 11.306-25.201 25.201 0 13.896 11.305 25.201 25.201 25.201h8.312l27.23 47.373c5.158 8.975 14.794 14.551 25.146 14.551h263.837c4.143 0 7.5-3.358 7.5-7.5s-3.357-7.5-7.5-7.5h-263.837c-4.998 0-9.65-2.692-12.142-7.025l-22.933-39.898h410.372l-22.934 39.898c-2.49 4.333-7.143 7.025-12.141 7.025h-41.386c-4.143 0-7.5 3.358-7.5 7.5s3.357 7.5 7.5 7.5h41.386c10.352 0 19.987-5.576 25.146-14.551l27.23-47.373h8.312c13.896 0 25.201-11.305 25.201-25.201 0-13.895-11.305-25.2-25.201-25.2zm-203.781-94.591c2.322 8.297 11.7 12.022 18.956 7.641 10.34-6.238 23.576 1.623 23.576 14.578 0 2.833 1.23 5.5 3.377 7.314 2.114 1.788 4.895 2.55 7.642 2.087 11.202-1.923 22.602 4.907 26.28 16.986 1.875 6.116 6.759 10.709 12.742 11.986 19.608 4.196 36.623 16.598 47.254 33.998h-182.797c6.243-15.71 6.571-32.113 6.862-46.932.31-15.748.577-29.347 7.705-37.84 8.079-9.628 15.957-19.006 15.957-19.006.024-.029.044-.06.068-.089l3.904-4.652c3.987 3.702 6.973 8.548 8.474 13.929zm-10.75-68.868c4.648-5.541 5.337-13.471 1.714-19.735-2.509-4.334-1.899-9.725 1.515-13.414 3.895-4.209 10.748-4.763 15.275-1.233 7.186 5.604 1.484 11.67 9.388 18.302 7.651 6.419 13.098.153 19.651 6.065 4.262 3.846 4.907 10.689 1.438 15.257-3.041 4.003-8.24 5.54-12.948 3.821-6.795-2.481-14.487-.425-19.137 5.116l-25.263 30.108-16.898-14.178zm-106.527 15.993 13.443-36.935c2.474-6.796.408-14.484-5.139-19.131-3.84-3.216-5.111-8.49-3.164-13.124 2.221-5.287 8.47-8.15 13.932-6.382 8.646 2.8 5.419 10.472 15.081 13.987 9.442 3.436 12.313-4.358 20.542-1.022 5.319 2.156 8.267 8.366 6.569 13.844-1.486 4.798-5.846 8.02-10.85 8.02h-.026c-7.229 0-13.746 4.561-16.218 11.353l-13.441 36.933zm29.474 81.247c-3.05-8.921-5.837-17.107-6.782-24.482 14.45-2.989 28.63-6.947 37.804-17.892 4.749-5.662 8.476-10.103 11.128-13.264l16.895 14.176s-8.051 9.591-11.134 13.267c-10.532 12.547-10.863 29.373-11.213 47.188-.315 16.042-.656 32.586-8.365 47.226h-22.116c8.007-24.617.464-46.681-6.217-66.219zm291.584 101.621h-461.598c-5.625 0-10.201-4.576-10.201-10.201s4.576-10.201 10.201-10.201h461.598c5.625 0 10.201 4.576 10.201 10.201 0 5.624-4.576 10.201-10.201 10.201z"/><path d="m321.545 303.469h5.428c4.143 0 7.5-3.358 7.5-7.5s-3.357-7.5-7.5-7.5h-5.428c-4.143 0-7.5 3.358-7.5 7.5s3.357 7.5 7.5 7.5z"/><path d="m299.558 278.872c1.919 0 3.839-.732 5.303-2.196l4.582-4.582c2.93-2.929 2.93-7.678.001-10.607-2.929-2.928-7.678-2.929-10.606 0l-4.582 4.582c-2.93 2.929-2.93 7.678-.001 10.607 1.464 1.463 3.383 2.196 5.303 2.196z"/><path d="m266.819 267.183c-4.143 0-7.5 3.358-7.5 7.5v5.909c0 4.142 3.357 7.5 7.5 7.5s7.5-3.358 7.5-7.5v-5.909c0-4.142-3.357-7.5-7.5-7.5z"/></g></svg>