<svg id="icons" xmlns="http://www.w3.org/2000/svg" viewBox="0 0 64 64"><defs><style>.cls-1{fill:none;stroke:#000;stroke-linecap:round;stroke-linejoin:round;stroke-width:2px;}</style></defs><title>52</title><g id="bananas"><path class="cls-1" d="M9.69415,42.51279l.03543-.05334a2.99877,2.99877,0,0,1,2.6741-1.2099c5.83434.33229,33.77.88018,43.80646-21.08363l1.7418.4674c2.10815-.01157,10.2432,30.995-31.47006,30.83457-5.628-.02165-10.55062-1.678-16.13059-5.78079A2.38633,2.38633,0,0,1,9.69415,42.51279Z"/><path class="cls-1" d="M53.17776,25.44845c-14.696,13.7595-38.14513,9.026-43.27433,7.67168a2.98148,2.98148,0,0,0-.706-.10086,2.73139,2.73139,0,0,0-2.14677.74921,2.57054,2.57054,0,0,0-.69158,2.55019c.61954,1.71453,2.507,3.44348,5.23005,4.98512"/><path class="cls-1" d="M55.59916,21.43239C38.05039,35.84025,13.20283,26.2908,8.088,23.82706a2.979,2.979,0,0,0-2.92479.10085,2.56661,2.56661,0,0,0-1.15263,2.3773c.317,2.04592,2.24762,4.4088,5.18683,6.71406"/><path class="cls-1" d="M57.95194,20.63332l1.4073-5.77913a2.16042,2.16042,0,0,0-2.15432-2.3227h0a2.16041,2.16041,0,0,0-2.1585,2.2515l1.16372,5.38293"/></g></svg>