<svg id="icons" xmlns="http://www.w3.org/2000/svg" viewBox="0 0 64 64"><defs><style>.cls-1{fill:none;stroke:#000;stroke-linecap:round;stroke-linejoin:round;stroke-width:2px;}</style></defs><title>23</title><g id="kruassan"><path class="cls-1" d="M26.78724,31.49933C27.51,25.36988,30.47939,7.49559,40.58994,6.6672a1.10187,1.10187,0,0,1,.65628.16153h0A46.90455,46.90455,0,0,1,57.04781,22.74766h0c0,.00012,2.88839,9.98613-23.64039,15.01077a4.22133,4.22133,0,0,1-3.76488-1.15907L27.992,34.94884A4.18646,4.18646,0,0,1,26.78724,31.49933Z"/><path class="cls-1" d="M38.06045,7.2765a19.0981,19.0981,0,0,0-8.30492-3.03258,37.54661,37.54661,0,0,0-7.58145.22794,7.80952,7.80952,0,0,0-.89194.25767.53154.53154,0,0,0-.34686.30722c-1.8136,5.2426-2.36859,15.13318-1.00095,20.4848a9.91457,9.91457,0,0,0,.84238,2.22984c.39642.73337,4.41013,1.87306,6.20391,2.23975"/><path class="cls-1" d="M19.93433,25.52155c-1.68477-.19821-4.54887-.70364-4.91556-1.20907A9.22454,9.22454,0,0,1,13.78,21.58712,37.50521,37.50521,0,0,1,12.71956,8.218,17.04232,17.04232,0,0,1,13.116,5.81967a.43248.43248,0,0,1,.26759-.2874,17.09137,17.09137,0,0,1,7.076-1.18925,16.22593,16.22593,0,0,1,1.7145.12884l.02973-.00991"/><path class="cls-1" d="M12.71667,8.22448S1.7882,12.90022,4.449,18.91729A4.08845,4.08845,0,0,0,7.9833,21.25667l5.79781.33372"/><path class="cls-1" d="M34.13593,37.62214c.45588,1.98208,1.4271,5.17323,2.08118,5.53a9.91457,9.91457,0,0,0,2.22984.84238c5.35162,1.36763,15.2422.81265,20.4848-1.00095.16848-.04955.5748-1.26853.5748-1.26853a20.42709,20.42709,0,0,0,.218-7.55173A19.09811,19.09811,0,0,0,56.692,25.86841"/><path class="cls-1" d="M38.50469,44.01447c.19859,1.68472.71015,4.63335,1.21566,4.99992A9.22446,9.22446,0,0,0,42.446,50.25257a37.50509,37.50509,0,0,0,13.36937,1.05737,17.04255,17.04255,0,0,0,2.39823-.397.43247.43247,0,0,0,.28734-.26765,17.09142,17.09142,0,0,0,1.18764-7.0763c-.02-.57479-.10336-1.28855-.18277-1.84351"/><path class="cls-1" d="M55.80887,51.31283S51.13563,62.24237,45.118,59.583a4.08846,4.08846,0,0,1-2.34019-3.53379l-.335-5.79773"/></g></svg>