<svg id="icons" xmlns="http://www.w3.org/2000/svg" viewBox="0 0 64 64"><defs><style>.cls-1{fill:none;stroke:#000;stroke-linecap:round;stroke-linejoin:round;stroke-width:2px;}</style></defs><title>62</title><g id="french_press_1"><path class="cls-1" d="M42.88728,38.39156,48.55,49.568a10.92936,10.92936,0,0,1,1.18,4.93965h0a5,5,0,0,1-1.46447,3.53553h0A6.68116,6.68116,0,0,1,43.54119,60H20.45881a6.68116,6.68116,0,0,1-4.7243-1.95687h0A5,5,0,0,1,14.27,54.50761h0A10.92936,10.92936,0,0,1,15.45,49.568l5.66271-11.17639Z"/><path class="cls-1" d="M44.51438,16.60376l-4.68791,10.575,4.63447,9.7847a1,1,0,0,1-.90375,1.428H20.47182a1,1,0,0,1-.90375-1.428l4.63447-9.7847-4.68791-10.575a1,1,0,0,1,.9142-1.40527H43.60018A1,1,0,0,1,44.51438,16.60376Z"/><path class="cls-1" d="M16.97968,5.62544l4.74844,9.573H41.2764l3.26088-6.93193a1,1,0,0,0-.80216-1.42038L17.97825,4.18637A1,1,0,0,0,16.97968,5.62544Z"/><path class="cls-1" d="M40.94922,24.64611a2.46671,2.46671,0,1,1,.01259,4.92972"/><path class="cls-1" d="M43.51747,27.111S49.73,25.71592,49.73,32.36115"/><line class="cls-1" x1="24.20254" y1="27.17881" x2="39.82647" y2="27.17881"/><line class="cls-1" x1="43.31223" y1="10.87077" x2="19.55474" y2="10.87077"/></g></svg>