<svg id="Capa_1" enable-background="new 0 0 510.105 510.105" height="512" viewBox="0 0 510.105 510.105" width="512" xmlns="http://www.w3.org/2000/svg"><g><path d="m187.5 240.183c-7.883 0-15.455-1.712-22.503-5.09l-6.481 13.527c48.373 23.179 104.222-19.414 95.157-72.021-8.46-49.099-68.31-72.187-107.537-41.424-22.563 17.695-31.573 48.619-21.811 75.662l14.109-5.093c-12.911-35.76 17.206-73.726 54.866-69.536 35.523 3.952 56.942 43.572 40.685 75.445-8.825 17.304-27.051 28.53-46.485 28.53z"/><path d="m144.418 217.428-12.383 8.466c3.054 4.466 6.649 8.564 10.685 12.179l10.007-11.174c-3.139-2.812-5.935-5.999-8.309-9.471z"/><path d="m76.171 127.613 13.104 7.3c2.033-3.649 4.506-7.918 7.443-11.911l-12.084-8.887c-3.449 4.691-6.335 9.678-8.463 13.498z"/><path d="m115.945 102.265-9.867-11.297c-3.947 3.443-7.797 6.957-11.36 10.8l10.857 10.35c.001-.001 7.734-7.553 10.37-9.853z"/><path d="m298.107 277.09c-27.126 33.646-67.441 52.943-110.607 52.943-78.298 0-141.998-63.7-141.998-141.998s63.7-141.997 141.998-141.997 141.998 63.7 141.998 141.998c0 16.995-2.969 33.613-8.824 49.393l14.063 5.218c6.477-17.456 9.761-35.829 9.761-54.611 0-86.569-70.429-156.998-156.998-156.998s-156.998 70.429-156.998 156.998 70.429 156.997 156.998 156.997c47.726 0 92.297-21.333 122.285-58.528z"/><path d="m307.015 264.748 12.615 8.114c2.993-4.653 5.769-9.518 8.25-14.458l-13.404-6.732c-2.244 4.467-4.754 8.867-7.461 13.076z"/><path d="m510.087 465.79c-.336-11.907-5.406-22.835-14.279-30.778l-85.834-78.867-20.558.581-53.825-53.825c24.686-31.755 39.409-71.621 39.409-114.865 0-103.388-84.112-187.5-187.5-187.5s-187.5 84.112-187.5 187.5 84.112 187.5 187.5 187.5c43.962 0 84.433-15.215 116.44-40.647l52.986 52.986-.62 21.937 78.867 85.834c26.113 29.164 76.018 9.297 74.914-29.856zm-495.087-277.754c0-95.117 77.383-172.5 172.5-172.5s172.5 77.383 172.5 172.5-77.383 172.5-172.5 172.5-172.5-77.383-172.5-172.5zm310.888 126.375 50.581 50.581-10.606 10.606-50.531-50.531c3.656-3.412 7.182-6.964 10.556-10.656zm161.032 172.347c-11.196 11.196-30.049 10.666-40.597-1.146l-74.851-81.464.376-13.322 19.139-19.139 13.322-.376 81.386 74.779c11.778 10.636 12.53 29.364 1.225 40.668z"/><path d="m456.995 457.536h15v15h-15z"/></g></svg>