<svg id="icons" xmlns="http://www.w3.org/2000/svg" viewBox="0 0 64 64"><defs><style>.cls-1{fill:none;stroke:#000;stroke-linecap:round;stroke-linejoin:round;stroke-width:2px;}</style></defs><title>65</title><g id="apron"><path class="cls-1" d="M47.74342,25.41061a2.22582,2.22582,0,0,0-1.08206-1.918c-5.952-3.515-5.7833-10.56634-5.7833-10.56634a8.87819,8.87819,0,1,0-17.75612,0s.16867,7.05139-5.7833,10.56634a2.22582,2.22582,0,0,0-1.08206,1.918V56.625A3.366,3.366,0,0,0,19.61337,60H44.38663a3.366,3.366,0,0,0,3.35679-3.375Z"/><path class="cls-1" d="M22.55328,36.23735h19.018a0,0,0,0,1,0,0V50.51571a3,3,0,0,1-3,3h-13.018a3,3,0,0,1-3-3V36.23735A0,0,0,0,1,22.55328,36.23735Z"/><line class="cls-1" x1="22.55328" y1="41.65124" x2="41.57128" y2="41.65124"/><line class="cls-1" x1="22.89357" y1="15.17635" x2="41.10642" y2="15.17635"/><path class="cls-1" d="M16.25658,36.23735S4,30.73769,4,48.63806"/><path class="cls-1" d="M47.74342,36.23735S60,30.73769,60,48.63806"/></g></svg>