<svg id="Capa_1" enable-background="new 0 0 512 512" height="512" viewBox="0 0 512 512" width="512" xmlns="http://www.w3.org/2000/svg"><g><path d="m437.02 74.98c-48.353-48.351-112.64-74.98-181.02-74.98-50.309 0-99.002 14.584-140.816 42.176-3.457 2.281-4.41 6.934-2.129 10.391 2.28 3.457 6.932 4.41 10.391 2.129 39.355-25.969 85.192-39.696 132.554-39.696 64.373 0 124.894 25.068 170.412 70.588 45.52 45.518 70.588 106.039 70.588 170.412s-25.068 124.894-70.588 170.412c-45.518 45.52-106.039 70.588-170.412 70.588s-124.894-25.068-170.412-70.588c-45.52-45.518-70.588-106.039-70.588-170.412 0-69.072 29.716-134.934 81.527-180.695 3.104-2.742 3.398-7.481.656-10.586s-7.482-3.399-10.586-.656c-55.034 48.607-86.597 118.566-86.597 191.937 0 68.38 26.629 132.667 74.98 181.02 48.353 48.351 112.64 74.98 181.02 74.98s132.667-26.629 181.02-74.98c48.351-48.353 74.98-112.64 74.98-181.02s-26.629-132.667-74.98-181.02z"/><path d="m225.953 122.522c-4.047-2.852-9.245-3.56-13.899-1.897l-67.539 24.06c-5.584 1.989-9.648 6.726-10.902 12.355h-2.213c-6.893 0-12.5 5.607-12.5 12.5v19.92h-10.5c-18.682 0-33.881 15.194-33.881 33.87 0 8.457 6.519 19.402 7.818 21.5 7.707 12.481 14.485 29.465 1.415 37.518-11.981 7.39-18.852 18.898-18.852 31.572 0 19.796 16.1 35.9 35.89 35.9h18.11v40.46c0 6.632 5.207 11.925 11.731 12.459.253.021.509.04.768.039 108.218-.193 103.328.923 107.83-1.051 4.703 2.062.619.811 107.831 1.051 6.892.015 12.499-5.607 12.499-12.499v-13.998h7.752c12.738 0 24.33-5.915 31.803-16.228 7.485-10.33 9.498-23.213 5.521-35.345-4.943-15.08-7.556-27.046-7.556-34.604 0-17.236 2.896-26.014 18.723-26.151 15.926-.138 29.127-11.344 31.389-26.647 1.348-9.124-1.302-18.322-7.269-25.236-5.972-6.918-14.634-10.886-23.766-10.886h-56.596v-31.644c0-6.893-5.607-12.5-12.5-12.5h-1.81v-22.05c0-4.953-2.415-9.613-6.461-12.466-4.045-2.853-9.245-3.562-13.905-1.899l-67.539 24.06c-5.58 1.987-9.641 6.724-10.893 12.355-1.41.094-3.933-.391-7.222 1.051-3.199-1.402-5.67-.969-6.811-1.051v-22.05c.001-4.954-2.416-9.614-6.466-12.468zm-56.805 78.663c-12.783 0-23.257 9.796-23.846 22.301-.646 13.671 10.323 24.545 23.396 24.545h25.916c4.679 0 8.654 3.591 8.861 8.006.229 4.845-3.611 8.839-8.412 8.839h-13.916c-12.783 0-23.257 9.796-23.846 22.301-.646 13.671 10.323 24.545 23.396 24.545h51.029v10.261c-24.105 31.563-78.738 62.794-97.828 65.591v-215.534h97.83v29.145zm162.91 110.536c6.207 0 11.358 4.552 12.324 10.49-24.195 31.486-78.612 62.575-97.653 65.362v-75.852zm-114.964-176.968c.061-.021.117-.04.22.031.106.075.106.139.106.206v22.05h-62.889zm-116.304 200.067c-11.519 0-20.89-9.376-20.89-20.9 0-10.443 8.201-16.631 11.724-18.804 20.93-12.893 16.498-37.077 3.475-58.172-2.339-3.79-5.579-10.63-5.579-13.614 0-10.405 8.47-18.87 18.881-18.87h10.5v130.36zm130.939 9.734v43.225h-58.695c20.177-11.019 42.373-26.861 58.695-43.225zm112.83 43.224h-58.695c20.178-11.019 42.374-26.86 58.695-43.225zm-31.415-186.593c-4.143 0-7.5 3.357-7.5 7.5s3.357 7.5 7.5 7.5h103.013c4.768 0 9.291 2.072 12.41 5.687 3.161 3.663 4.505 8.366 3.785 13.243-1.175 7.946-8.189 13.767-16.68 13.84-17.98.156-26.021 9.192-29.601 16.744-3.992 8.425-3.992 18.043-3.992 24.407 0 9.255 2.793 22.47 8.302 39.275 2.461 7.509 1.217 15.48-3.414 21.872-4.618 6.373-11.783 10.028-19.656 10.028h-7.752v-37.061c0-15.163-12.337-27.5-27.501-27.5-15.541 0-136.156 0-151.358 0-4.8 0-8.642-3.992-8.413-8.84.207-4.414 4.184-8.006 8.862-8.006h13.916c13.074 0 24.04-10.873 23.396-24.543-.588-12.506-11.062-22.302-23.846-22.302h-25.916c-4.8 0-8.642-3.992-8.413-8.84.207-4.414 4.184-8.006 8.862-8.006h108.995c4.143 0 7.5-3.357 7.5-7.5s-3.357-7.5-7.5-7.5h-31.413v-29.143h97.829v29.145zm16.776-66.43c.065-.025.123-.044.226.028.104.074.104.139.104.207v22.05h-62.889z"/></g></svg>