<svg id="Capa_1" enable-background="new 0 0 512 512" height="512" viewBox="0 0 512 512" width="512" xmlns="http://www.w3.org/2000/svg"><g><path d="m485.633 374.321c8.965-7.648 14.665-19.014 14.665-31.693v-7.937c0-17.834-11.266-33.081-27.052-39.014 5.649-7.168 9.032-16.201 9.032-26.014v-20.606c9.803-4.539 17.992-10.415 22.486-17.835 6.397-10.572 1.909-28.077-2.357-39.72 3.538-5.68 5.56-13.579 5.56-22.963 0-13.778-4.309-29.53-12.134-44.354-9.37-17.753-23.229-33.801-41.193-47.699-21.012-16.255-47.099-29.025-77.537-37.954-34.882-10.233-75.627-15.421-121.103-15.421-60.607 0-112.321 9.14-153.707 27.167-3.797 1.654-5.535 6.073-3.881 9.871 1.654 3.797 6.074 5.536 9.871 3.881 39.485-17.199 89.184-25.919 147.717-25.919 81.465 0 146.98 17.372 189.461 50.238 35.026 27.098 47.506 59.191 47.506 80.189 0 8.122-1.894 13.98-4.27 16.372-.046.046-.093.09-.139.136-.756.743-1.548 1.142-2.326 1.142h-460.465c-2.434 0-4.378-3.639-5.385-7.044-4.987-16.86 2.626-63.286 57.987-99.173 3.476-2.253 4.467-6.897 2.214-10.373s-6.897-4.466-10.373-2.214c-60.229 39.044-71.35 91.882-64.212 116.015.904 3.056 2.126 5.76 3.597 8.096-4.267 11.643-8.758 29.153-2.358 39.728 2.958 4.884 7.518 9.099 13.083 12.706v25.732c0 11.312 4.491 21.589 11.772 29.163-12.356 7.301-20.39 20.711-20.39 35.866v7.938c0 12.679 5.701 24.045 14.666 31.693-15.618 7.828-26.368 23.981-26.368 42.607v5.709c0 36.531 29.721 66.252 66.252 66.252h379.496c36.532 0 66.252-29.721 66.252-66.253v-5.708c0-18.626-10.751-34.779-26.367-42.607zm-.334-39.63v7.937c0 14.703-11.963 26.664-26.668 26.664h-38.333v-44.615c0-7.112 5.785-12.899 12.896-12.899h6.97c6.183 0 12.054-1.35 17.349-3.754h1.12c14.702 0 26.666 11.963 26.666 26.667zm-463.046-133.855c1.139.229 2.31.353 3.514.353h460.466c1.211 0 2.385-.115 3.519-.337 3.591 11.305 3.964 19.654 2.18 22.602-4.008 6.619-15.444 13.014-31.375 17.543-14.023 3.988-30.763 6.221-42.666 5.692-10.111-.446-23.495-6.634-36.438-12.619-41.083-18.994-48.457-18.872-88.269-.093-13.241 6.246-26.933 12.705-37.193 12.705-10.254 0-23.943-6.458-37.182-12.703-14.737-6.952-29.976-14.14-43.598-14.14-13.893 0-29.537 7.234-44.666 14.229-12.944 5.985-26.328 12.174-36.448 12.621-11.888.534-28.632-1.704-42.655-5.691-15.932-4.53-27.368-10.924-31.375-17.542-1.784-2.95-1.41-11.306 2.186-22.62zm4.448 133.854c0-12.401 8.399-22.969 20.238-25.878 4.799 1.906 10.023 2.966 15.493 2.966h105.248c4.142 0 7.5-3.358 7.5-7.5s-3.358-7.5-7.5-7.5h-105.248c-14.95 0-27.113-12.165-27.113-27.117v-18.219c18.516 7.256 43.292 10.952 59.443 10.232 13.069-.577 27.817-7.396 42.08-13.991 13.656-6.314 27.777-12.844 38.37-12.844 10.261 0 23.955 6.459 37.198 12.707 14.733 6.95 29.967 14.136 43.582 14.136 25.994 0 59.335-26.843 80.786-26.843 10.594 0 24.72 6.531 38.38 12.847 14.262 6.594 29.009 13.413 42.069 13.989 12.037.534 31.915-1.493 50.052-6.985v14.973c0 14.952-12.164 27.116-27.116 27.116h-6.97c-15.382 0-27.896 12.515-27.896 27.899v45.322c0 9.467-7.702 17.169-17.169 17.169s-17.169-7.702-17.169-17.17v-20.642c0-17.738-14.431-32.169-32.169-32.169-17.739 0-32.17 14.431-32.17 32.169v61.662c0 9.467-7.702 17.169-17.17 17.169-9.467 0-17.169-7.702-17.169-17.169v-74.408c0-21.964-17.872-39.833-39.838-39.833h-29.763c-4.142 0-7.5 3.358-7.5 7.5s3.358 7.5 7.5 7.5h29.761c13.696 0 24.838 11.14 24.838 24.833v32.68h-203.91c-14.705 0-26.668-11.961-26.668-26.664zm294.918 34.6v-19.931c0-9.467 7.703-17.169 17.17-17.169s17.169 7.702 17.169 17.169v19.931zm175.381 53.346c0 28.261-22.992 51.253-51.252 51.253h-379.496c-28.26 0-51.252-22.992-51.252-51.252v-5.709c0-17.996 14.638-32.636 32.631-32.636h209.649v26.728c0 17.738 14.431 32.169 32.169 32.169 17.739 0 32.17-14.431 32.17-32.169v-26.73h37.698c11.861 23.817 45.765 23.801 57.619.002h47.431c17.993 0 32.632 14.64 32.632 32.636v5.708z"/><path d="m158.37 101.596c2.572 0 5.078-1.325 6.474-3.703l4.924-8.386c2.098-3.572.902-8.168-2.669-10.265s-8.167-.902-10.265 2.669l-4.924 8.386c-2.098 3.572-.902 8.168 2.669 10.265 1.193.701 2.501 1.034 3.791 1.034z"/><path d="m353.63 101.596c1.291 0 2.598-.333 3.791-1.034 3.572-2.097 4.767-6.693 2.669-10.265l-4.924-8.386c-2.097-3.572-6.694-4.768-10.265-2.669-3.572 2.097-4.767 6.693-2.669 10.265l4.924 8.386c1.396 2.378 3.901 3.703 6.474 3.703z"/><path d="m263.5 90.662v-12.076c0-4.142-3.358-7.5-7.5-7.5s-7.5 3.358-7.5 7.5v12.076c0 4.142 3.358 7.5 7.5 7.5s7.5-3.358 7.5-7.5z"/><path d="m96.894 151.815c1.131.609 2.349.898 3.549.898 2.67 0 5.255-1.43 6.61-3.946l5.424-10.075c1.964-3.647.599-8.196-3.048-10.159-3.648-1.963-8.196-.6-10.159 3.048l-5.424 10.075c-1.964 3.648-.599 8.196 3.048 10.159z"/><path d="m201.905 152.713c2.67 0 5.255-1.43 6.61-3.946l5.424-10.075c1.964-3.647.599-8.196-3.048-10.159-3.648-1.963-8.196-.6-10.159 3.048l-5.424 10.075c-1.964 3.647-.599 8.196 3.048 10.159 1.131.609 2.349.898 3.549.898z"/><path d="m411.557 152.713c1.2 0 2.418-.289 3.549-.898 3.647-1.963 5.012-6.512 3.048-10.159l-5.424-10.075c-1.963-3.647-6.513-5.012-10.159-3.048-3.647 1.963-5.012 6.512-3.048 10.159l5.424 10.075c1.355 2.517 3.94 3.946 6.61 3.946z"/><path d="m310.095 152.713c1.2 0 2.418-.289 3.549-.898 3.647-1.963 5.012-6.512 3.048-10.159l-5.424-10.075c-1.963-3.647-6.513-5.012-10.159-3.048-3.647 1.963-5.012 6.512-3.048 10.159l5.424 10.075c1.354 2.517 3.939 3.946 6.61 3.946z"/></g></svg>