<svg id="icons" xmlns="http://www.w3.org/2000/svg" viewBox="0 0 64 64"><defs><style>.cls-1{fill:none;stroke:#000;stroke-linecap:round;stroke-linejoin:round;stroke-width:2px;}</style></defs><title>60_1</title><g id="waitress"><path class="cls-1" d="M12.97652,60V41.78018a7.72594,7.72594,0,0,1,7.72594-7.72594H43.29754a7.72594,7.72594,0,0,1,7.72594,7.72594V60"/><line class="cls-1" x1="19.59879" y1="44.30948" x2="19.59879" y2="60.00001"/><line class="cls-1" x1="44.40121" y1="44.30948" x2="44.40121" y2="60.00001"/><line class="cls-1" x1="12.97652" y1="48.18881" x2="19.59879" y2="48.18881"/><line class="cls-1" x1="44.40121" y1="48.18881" x2="51.02348" y2="48.18881"/><path class="cls-1" d="M19.59879,52.15475h.1098a4.41483,4.41483,0,0,0,4.41483-4.41483V34.05424"/><path class="cls-1" d="M44.40121,52.15475h-.1098a4.41483,4.41483,0,0,1-4.41483-4.41483V34.05424"/><line class="cls-1" x1="24.12342" y1="44.30948" x2="39.87658" y2="44.30948"/><line class="cls-1" x1="26.33084" y1="34.05424" x2="28.91131" y2="28.19071"/><line class="cls-1" x1="37.66916" y1="34.05424" x2="35.08869" y2="28.19071"/><path class="cls-1" d="M39.87658,15.46V20.9429A7.87657,7.87657,0,0,1,32,28.81947h0a7.87657,7.87657,0,0,1-7.87657-7.87657V15.46s4.78789-1.78119,4.78789-6.39673C28.91131,9.0633,31.82552,17.20854,39.87658,15.46Z"/><path class="cls-1" d="M19.59879,34.13249V16.40118A12.4012,12.4012,0,0,1,32,4h0a12.4012,12.4012,0,0,1,12.4012,12.40119V34.13759"/><ellipse class="cls-1" cx="31.17403" cy="54.9709" rx="5.47391" ry="4.33351" transform="translate(-30.9156 43.20243) rotate(-49.70987)"/><path class="cls-1" d="M35.46627,51.69173l-.38746.81322a4.35057,4.35057,0,0,1-3.90048,2.48084h0a4.35056,4.35056,0,0,0-3.84152,2.36176l-.46119.89677"/></g></svg>