<svg id="icons" xmlns="http://www.w3.org/2000/svg" viewBox="0 0 64 64"><defs><style>.cls-1{fill:none;stroke:#000;stroke-linecap:round;stroke-linejoin:round;stroke-width:2px;}</style></defs><title>16</title><g id="coffee_table"><polyline class="cls-1" points="59.462 31.333 58.331 47.479 59.462 59.997"/><line class="cls-1" x1="44.43957" y1="47.47933" x2="58.33133" y2="47.47933"/><line class="cls-1" x1="45.57287" y1="53.7384" x2="58.89661" y2="53.7384"/><line class="cls-1" x1="46.70617" y1="47.47933" x2="44.43957" y2="59.99747"/><polyline class="cls-1" points="4 31.333 5.131 47.479 4 59.997"/><line class="cls-1" x1="19.02231" y1="47.47933" x2="5.13055" y2="47.47933"/><line class="cls-1" x1="17.88901" y1="53.7384" x2="4.56527" y2="53.7384"/><line class="cls-1" x1="16.75571" y1="47.47933" x2="19.02231" y2="59.99747"/><rect class="cls-1" x="12.25411" y="34.96955" width="40.09742" height="4.0325" rx="2.01625"/><path class="cls-1" d="M25.19271,39.002h0a37.33338,37.33338,0,0,1,0,20.99539v0"/><path class="cls-1" d="M39.41292,39.002h0a37.33338,37.33338,0,0,0,0,20.99539v0"/><line class="cls-1" x1="37.90696" y1="49.49976" x2="26.69867" y2="49.49976"/><line class="cls-1" x1="32.30471" y1="34.96955" x2="32.30471" y2="24.35956"/><polyline class="cls-1" points="32.305 39.002 32.305 49.501 32.305 60"/><path class="cls-1" d="M40.11486,23.13h0a4.14289,4.14289,0,0,0,.64818-5.10132L32.30282,4,23.84259,18.02866A4.14291,4.14291,0,0,0,24.49077,23.13h0a4.28149,4.28149,0,0,0,3.005,1.22669H37.1099A4.28147,4.28147,0,0,0,40.11486,23.13Z"/><path class="cls-1" d="M32.30282,4,42.925,21.62412a5.68355,5.68355,0,0,0,4.87184,2.73255H57.1516a2.86948,2.86948,0,0,0,2.01393-.82213h0a2.78375,2.78375,0,0,0-.57781-4.40879Z"/><path class="cls-1" d="M32.30282,4,21.6741,21.62527a5.68356,5.68356,0,0,1-4.87114,2.7314H7.454a2.86948,2.86948,0,0,1-2.01393-.82213h0a2.78375,2.78375,0,0,1,.57781-4.40879Z"/></g></svg>