<svg id="Capa_1" enable-background="new 0 0 509.942 509.942" height="512" viewBox="0 0 509.942 509.942" width="512" xmlns="http://www.w3.org/2000/svg"><g><path d="m318.861 156.46h15v14.992h-15z" transform="matrix(.81 -.586 .586 .81 -34.18 222.289)"/><path d="m345.589 177.97-12.529 8.246c12.699 19.297 19.411 41.708 19.411 64.812v48.914h-15.001v-60c-13.661 0-25.987 3.529-39.44 5.21-21.405 2.675-37.25-5.582-57.508-9.943-22.539-4.852-47.134-2.511-68.05 7.386v41.845h15v-31.781c20.235-6.609 42.174-6.223 62.211.817 26.212 9.209 46.063 6.071 72.788 2.031v44.434h-165v-48.915c0-24.96 7.729-48.845 22.351-69.072 17.66-24.43 35.917-47.153 37.537-78.781.99-19.33.113-38.879.113-58.232h74.999c0 34.855-4.743 73.051 14.235 104.124l12.801-7.818c-17.167-28.109-12.036-64.738-12.036-96.305h15v-44.942h-135v44.942h15c0 17.817.464 35.694 0 53.504-.791 30.364-17.937 51.386-34.806 74.722-16.482 22.8-25.194 49.724-25.194 77.859v258.915h225v-258.914c0-26.043-7.566-51.306-21.882-73.058zm-143.118-162.97h104.999v14.942c-35 0-69.999 0-104.999 0zm89 299.942h61v59.5c-4.093 0-12.808 1.71-16.25 0-10.071-5.005-6.275-17.939-16.073-25.105-8.214-6.008-19.525-2.389-25.841-11.291-4.356-6.138-2.836-15.975-2.836-23.104zm-15 0c0 9.272-1.171 19.453 3.079 28.041 7.556 15.269 19.629 9.475 29.909 18.095 9.235 7.743 5.648 21.631 19.894 27.253 6.673 2.633 16.1 1.111 23.117 1.111v30.5h-90c0-10.407 1.874-23.104-3.589-32.489-6.724-11.552-20.284-10.031-26.91-18.385-4.897-6.174-1.28-13.976-9.631-20.085-4.739-3.467-9.858-3.806-15.498-4.54-16.403-2.134-35.241 1.359-49.372 9.592v-39.092h119.001zm-119 105v-47.75c11.045-8.907 23.13-11.9 36.977-12.75 13.381-.822 15.745-.109 22.524 10.188 3.803 5.775 1.434 10.713 7.888 16.092 5.732 4.777 14.02 1.824 19.054 7.276 5.986 6.483 3.557 18.713 3.557 26.944zm0 75v-60h15v45h164.999v-30.5h-15v15.5h-134.999v-30h165v60z"/><path d="m231.971 59.442h15v15h-15z"/><path d="m231.971 89.941h15v15h-15z"/></g></svg>