<svg id="Capa_1" enable-background="new 0 0 512 512" height="512" viewBox="0 0 512 512" width="512" xmlns="http://www.w3.org/2000/svg"><g><path d="m458.936 304.712c9.054-8.085 18.806-14.669 26.078-19.334 3.245-2.097 4.954-5.781 4.46-9.615-.492-3.82-3.064-6.938-6.685-8.128-7.59-2.533-15.709-4.135-24.282-4.819l23.399-25.194c19.407-20.893 30.094-48.102 30.094-76.615 0-29.802-11.177-59.076-35.975-82.488-42.68-40.295-110.204-39.929-153.211-.006-1.948 1.808-3.879 3.733-5.87 5.871-.038.041-.075.081-.111.123l-.027.03c-33.093 35.538-89.159 34.922-121.66-.061-24.13-25.959-57.801-38.035-90.395-35.772-4.132.286-7.25 3.868-6.964 8 .286 4.133 3.878 7.256 8 6.964 27.774-1.921 56.138 7.516 78.418 31.071 30.391 32.129 78.155 40.321 116.835 20.355v96.146c0 13.283-10.887 24.117-24.384 23.824-12.829-.29-23.266-11.256-23.266-24.446v-18.283c0-21.674-17.813-39.411-39.911-38.811-20.81.57-37.739 18.273-37.739 39.462v224.705c0 13.265-10.849 24.093-24.384 23.814-12.829-.29-23.267-11.256-23.267-24.446v-85.173c0-6.965-2.61-13.611-7.351-18.715l-79.656-85.756c-16.819-18.109-26.082-41.694-26.082-66.41 0-39.93 24.152-74.794 59.235-89.76 3.81-1.625 5.581-6.031 3.956-9.841s-6.03-5.58-9.841-3.956c-40.423 17.243-68.35 57.402-68.35 103.557 0 28.516 10.687 55.726 30.093 76.619l79.655 85.755c2.155 2.32 3.342 5.341 3.342 8.507v85.173c0 21.277 17.015 38.971 37.928 39.442.304.007.605.01.908.01 21.441-.001 38.814-17.367 38.814-38.82v-7.108l25.735 27.708c10.553 11.364 24.908 17.318 39.484 17.318 9.177 0 18.441-2.361 26.897-7.218 3.592-2.063 4.831-6.647 2.768-10.239s-6.648-4.831-10.239-2.768c-15.795 9.073-35.501 6.072-47.919-7.301l-32.933-35.458 61.465-66.18 61.47 66.184-18.422 19.833c-2.819 3.035-2.644 7.78.391 10.599 1.444 1.341 3.275 2.005 5.102 2.005 2.013 0 4.02-.805 5.497-2.396l25.736-27.709c11.472 16.011 10.31 10.308 18.576 27.659 7.766 16.304 19.502 40.943 51.638 40.943 32.135 0 43.872-24.639 51.638-40.943 2.546-5.346 4.951-10.395 7.437-13.493.751-.937 1.562-1.927 2.417-2.972 9.008-11.006 24.084-29.426 24.084-52.279.001-22.071-13.472-41.057-32.626-49.164zm-17.381-4.077c-3.811-.238-70.991-.009-71.136 0-8.264-8.556-17.607-15.81-25.805-21.517 9.76-1.831 20.553-2.166 31.785-.953 6.562.703 12.688-3.562 14.253-9.917 1.993-8.11 6.25-18.998 15.336-27.617 9.074 8.618 13.339 19.506 15.333 27.59 1.54 6.37 7.672 10.649 14.265 9.942 11.218-1.211 22.004-.876 31.772.956-8.203 5.711-17.544 12.963-25.803 21.516zm-125.514-193.343s10.874-11.605 11.676-12.465l61.463 66.179-61.47 66.185c-3.891-4.19-7.835-8.438-11.812-12.721.273-3.317.087 2.439.143-107.178zm83.375 64.735 61.47 66.186-22.909 24.666c-.827.066-1.654.134-2.487.215-4.303-16.121-12.94-29.328-25.045-38.265-2.646-1.954-6.258-1.954-8.906-.002-12.125 8.943-20.764 22.151-25.051 38.268-5.484-.535-10.827-.745-16.017-.636-7.033-7.569-14.613-15.729-22.525-24.247zm97.584-11.02c0 24.613-9.193 48.101-25.883 66.18l-61.465-66.181 61.465-66.18c16.69 18.08 25.883 41.568 25.883 66.181zm-36.889-76.373-60.695 65.351-60.696-65.354c35.321-28.129 86.027-28.139 121.391.003zm-183.793 165.426c14.827.345 27.539-7.558 34.378-19.148 2.275 2.451 4.536 4.885 6.778 7.3l-61.477 66.192-61.492-66.208 43.843-47.224c.025.452.041.907.041 1.364v18.283c.002 21.276 17.016 38.97 37.929 39.441zm-62.427-81.541c6.505-.168 12.639 2.215 17.287 6.738.228.221.446.449.663.678l-41.101 44.271v-27.219c0-13.142 10.385-24.118 23.151-24.468zm-23.151 206.149v-118.485l55.022 59.242zm136.971-125.435c4.833 5.204 9.536 10.267 14.066 15.143-4.331.824-8.525 1.901-12.563 3.248-3.651 1.2-6.224 4.319-6.715 8.139-.494 3.834 1.216 7.519 4.481 9.629 7.257 4.654 17.004 11.236 26.057 19.321-19.154 8.108-32.626 27.093-32.626 49.166 0 10.086 2.938 19.306 6.994 27.409l-61.171-65.862zm125.65 150.511c-3.576 4.459-6.346 10.272-9.277 16.428-7.586 15.926-15.431 32.394-38.096 32.394-32.019 0-33.113-31.424-49.885-51.909-8.24-10.067-20.691-25.281-20.691-42.778 0-21.152 17.208-38.36 38.36-38.36h64.432c21.152 0 38.36 17.208 38.36 38.36-.001 18.111-12.733 32.812-23.203 45.865z"/><path d="m405.987 390.617c-4.142 0-7.5 3.358-7.5 7.5v2.907c0 4.142 3.358 7.5 7.5 7.5s7.5-3.358 7.5-7.5v-2.907c0-4.142-3.358-7.5-7.5-7.5z"/><path d="m433.419 349.695c-4.142 0-7.5 3.358-7.5 7.5v2.907c0 4.142 3.358 7.5 7.5 7.5s7.5-3.358 7.5-7.5v-2.907c0-4.142-3.357-7.5-7.5-7.5z"/><path d="m378.555 349.695c-4.142 0-7.5 3.358-7.5 7.5v2.907c0 4.142 3.358 7.5 7.5 7.5s7.5-3.358 7.5-7.5v-2.907c0-4.142-3.358-7.5-7.5-7.5z"/></g></svg>