<svg id="Capa_1" enable-background="new 0 0 512 512" height="512" viewBox="0 0 512 512" width="512" xmlns="http://www.w3.org/2000/svg"><g><path d="m178.042 328.822c0 13.625 11.085 24.71 24.71 24.71s24.71-11.085 24.71-24.71-11.085-24.71-24.71-24.71-24.71 11.085-24.71 24.71zm34.421 0c0 5.354-4.356 9.71-9.71 9.71s-9.71-4.356-9.71-9.71 4.356-9.71 9.71-9.71 9.71 4.356 9.71 9.71z"/><path d="m239.92 301.023c13.625 0 24.71-11.085 24.71-24.71s-11.085-24.71-24.71-24.71-24.71 11.085-24.71 24.71 11.084 24.71 24.71 24.71zm0-34.421c5.354 0 9.71 4.356 9.71 9.71s-4.356 9.71-9.71 9.71-9.71-4.356-9.71-9.71 4.355-9.71 9.71-9.71z"/><path d="m291.328 328.273c4.927-.572 8.643-4.772 8.643-9.77v-87.882c0-8.673-7.057-15.73-15.73-15.73h-73.019c-4.998 0-9.198 3.715-9.771 8.643-.566 4.882-4.711 8.564-9.641 8.564s-9.075-3.682-9.642-8.565c-.572-4.927-4.772-8.643-9.77-8.643h-9.695c-8.674 0-15.73 7.057-15.73 15.73v79.02c0 4.142 3.358 7.5 7.5 7.5s7.5-3.358 7.5-7.5v-79.02c0-.402.328-.73.73-.73h5.556c3.195 10.075 12.615 17.208 23.551 17.208s20.356-7.133 23.55-17.208h68.88c.402 0 .73.328.73.73v83.742c-10.08 3.195-17.217 12.615-17.217 23.551s7.137 20.356 17.217 23.551v11.591c0 .402-.328.73-.73.73h-121.537c-.403 0-.73-.328-.73-.73v-28.416c0-4.142-3.358-7.5-7.5-7.5s-7.5 3.358-7.5 7.5v28.416c0 8.673 7.057 15.73 15.73 15.73h121.537c8.673 0 15.73-7.057 15.73-15.73v-15.73c0-4.998-3.715-9.198-8.643-9.771-4.888-.567-8.575-4.712-8.575-9.641s3.687-9.073 8.576-9.64z"/><path d="m188.916 187.22c2.47.662 4.976.989 7.466.989 4.967 0 9.869-1.303 14.286-3.853 13.689-7.903 18.396-25.469 10.493-39.158-4.521-7.831-11.522-14.54-19.207-18.407-8.895-4.477-17.985-4.741-24.939-.725-6.954 4.015-11.271 12.019-11.842 21.96-.494 8.588 1.816 18.006 6.337 25.837 3.828 6.632 10.01 11.375 17.406 13.357zm-8.769-38.332c.276-4.805 1.868-8.388 4.367-9.831.969-.56 2.157-.829 3.492-.829 6.002 0 14.956 5.45 20.164 14.47 3.768 6.526 1.523 14.9-5.002 18.668-3.161 1.825-6.842 2.31-10.37 1.365-3.526-.945-6.473-3.207-8.298-6.368-3.051-5.283-4.678-11.817-4.353-17.475z"/><path d="m302.306 145.198c-4.521-7.831-11.522-14.54-19.207-18.407-8.895-4.476-17.985-4.739-24.939-.725-6.954 4.015-11.271 12.019-11.842 21.96-.494 8.588 1.816 18.006 6.337 25.837 5.304 9.187 14.958 14.328 24.874 14.328 4.86 0 9.782-1.235 14.285-3.835 13.688-7.903 18.395-25.469 10.492-39.158zm-17.992 26.168c-6.527 3.766-14.9 1.522-18.668-5.002-3.051-5.284-4.678-11.817-4.353-17.476.276-4.805 1.868-8.388 4.367-9.831.982-.567 2.181-.847 3.535-.847 2.09 0 4.553.668 7.162 1.981 5.063 2.547 9.908 7.223 12.958 12.507 3.768 6.526 1.524 14.901-5.001 18.668z"/><path d="m349.903 224.013c-5.197 2.152-8.555 7.178-8.555 12.804v138.073c0 3.771 1.56 7.432 4.28 10.044 2.601 2.497 5.969 3.853 9.54 3.853.19 0 .382-.004.574-.012 39.53-1.603 77.356-17.27 106.509-44.114 2.789-2.567 4.368-6.074 4.447-9.875.078-3.771-1.407-7.462-4.074-10.13l-97.629-97.641c-3.975-3.974-9.898-5.155-15.092-3.002zm6.446 85.466c.609-.084 1.223-.14 1.845-.14 7.557 0 13.705 6.148 13.705 13.705s-6.148 13.705-13.705 13.705c-.621 0-1.235-.056-1.845-.14zm0 64.255v-22.049c.612.039 1.227.064 1.845.064 15.828 0 28.705-12.877 28.705-28.705s-12.877-28.705-28.705-28.705c-.618 0-1.233.025-1.845.064v-54.82l94.849 94.86c-26.119 23.669-59.708 37.583-94.849 39.291z"/><path d="m404.025 128.262c-26.763 0-48.536 21.773-48.536 48.536s21.773 48.536 48.536 48.536 48.536-21.773 48.536-48.536-21.773-48.536-48.536-48.536zm0 82.071c-18.492 0-33.536-15.044-33.536-33.536s15.044-33.536 33.536-33.536 33.536 15.044 33.536 33.536-15.044 33.536-33.536 33.536z"/><path d="m482.172 79.845h-55.687c-4.142 0-7.5 3.358-7.5 7.5s3.358 7.5 7.5 7.5h55.687c8.176 0 14.828 6.652 14.828 14.828v292.654c0 8.176-6.652 14.828-14.828 14.828h-355.658c-8.176 0-14.828-6.652-14.828-14.828v-111.285c0-4.607-2.02-8.953-5.542-11.923-3.523-2.97-8.147-4.226-12.688-3.449l-72.096 12.357c-2.167.374-3.704-.594-4.426-1.203s-1.934-1.959-1.934-4.16v-53.328c0-2.201 1.211-3.551 1.934-4.16s2.258-1.575 4.426-1.203l72.095 12.357c4.542.779 9.166-.479 12.688-3.449s5.542-7.316 5.542-11.923v-111.285c0-8.176 6.652-14.828 14.828-14.828h264.972c4.142 0 7.5-3.358 7.5-7.5s-3.358-7.5-7.5-7.5h-264.971c-16.447 0-29.828 13.381-29.828 29.828v111.286c0 .076 0 .277-.212.456-.212.178-.411.145-.485.132l-72.095-12.357c-5.952-1.021-12.013.627-16.63 4.52-4.616 3.892-7.264 9.587-7.264 15.626v53.328c0 6.039 2.648 11.734 7.264 15.627 4.617 3.893 10.679 5.542 16.63 4.52l72.095-12.357c.074-.014.273-.047.485.132s.212.38.212.456v111.286c0 16.447 13.381 29.828 29.828 29.828h355.659c16.447 0 29.828-13.381 29.828-29.828v-292.655c-.001-16.447-13.381-29.828-29.829-29.828z"/></g></svg>