<svg id="icons" xmlns="http://www.w3.org/2000/svg" viewBox="0 0 64 64"><defs><style>.cls-1,.cls-2{fill:none;stroke:#000;stroke-width:2px;}.cls-1{stroke-miterlimit:10;}.cls-2{stroke-linecap:round;stroke-linejoin:round;}</style></defs><title>45</title><g id="coffee_house_1"><path class="cls-1" d="M39.056,47.484c12.04.7,20.944,3.192,20.944,6.16C60,57.144,47.456,60,32,60S4,57.144,4,53.644c0-2.996,9.1-5.516,21.336-6.188"/><path class="cls-2" d="M49.71765,22.1331c0,8.69138-6.881,22.88622-14.33939,29.12151a5.01856,5.01856,0,0,1-6.60631-.12947C21.6971,44.70022,14.1897,30.82137,14.1897,22.1331A17.95138,17.95138,0,0,1,31.95367,4,17.95139,17.95139,0,0,1,49.71765,22.1331Z"/><ellipse class="cls-2" cx="32" cy="25.6288" rx="10.77805" ry="8.53263" transform="translate(-8.2422 33.46468) rotate(-49.70987)"/><path class="cls-2" d="M40.45136,19.17218l-.7629,1.60121a8.56619,8.56619,0,0,1-7.68,4.88474h0a8.56617,8.56617,0,0,0-7.5639,4.65027l-.90808,1.76573"/></g></svg>