<svg id="icons" xmlns="http://www.w3.org/2000/svg" viewBox="0 0 64 64"><defs><style>.cls-1{fill:none;stroke:#000;stroke-linecap:round;stroke-linejoin:round;stroke-width:2px;}</style></defs><title>41</title><g id="coffee_2"><path class="cls-1" d="M15.89643,4H40.88555a1,1,0,0,1,1,1V39.57938a5,5,0,0,1-5,5H19.89643a5,5,0,0,1-5-5V5A1,1,0,0,1,15.89643,4Z"/><path class="cls-1" d="M32.1821,44.57938l.00057,3.21939a6.88983,6.88983,0,0,0,6.88983,6.88861h0a2.76476,2.76476,0,0,1,2.80366,2.40954A2.65178,2.65178,0,0,1,39.231,60H17.72387a2.78724,2.78724,0,0,1-2.74033-1.99472,2.65221,2.65221,0,0,1,2.56035-3.31789h.16719a6.88983,6.88983,0,0,0,6.88983-6.892l-.001-3.216"/><path class="cls-1" d="M41.88555,16.36158a7.218,7.218,0,1,1,0,14.436"/><path class="cls-1" d="M14.89643,8.4303l4.46371,2.73264a9.14048,9.14048,0,0,0,9.40754.14952h0a9.15863,9.15863,0,0,1,9.9032.474l3.21638,2.24774"/></g></svg>