<svg id="Capa_1" enable-background="new 0 0 512 512" height="512" viewBox="0 0 512 512" width="512" xmlns="http://www.w3.org/2000/svg"><g><path d="m504.595 122.041c-10.791-7.761-24.335-10.242-37.155-6.807-6.582 1.764-12.541 4.981-17.529 9.324-2.97-12.921-8.982-26.101-18.946-38.361-2.612-3.215-7.335-3.701-10.551-1.09-3.214 2.612-3.702 7.336-1.09 10.551 15.098 18.577 23.638 48.938 13.5 73.319-29.816-13.797-66.532-2.443-82.543 28.046-4.753 9.056-11.074 17.058-18.604 23.636v-39.119c0-.618.416-1.182 1.036-1.403 23.843-8.516 35.933-21.357 35.933-38.164 0-46.971-93.177-53.304-184.323-53.304s-184.323 6.334-184.323 53.305c0 16.808 12.089 29.649 35.933 38.165.629.225 1.035.774 1.035 1.402v131.219c0 4.143 3.358 7.5 7.5 7.5s7.5-3.357 7.5-7.5v-131.218c0-6.94-4.417-13.182-10.99-15.529-17.48-6.244-25.978-14.107-25.978-24.039 0-13.114 15.426-23.043 45.85-29.511 27.831-5.917 68.219-8.793 123.473-8.793s95.642 2.876 123.474 8.793c30.424 6.468 45.849 16.397 45.849 29.511 0 9.932-8.498 17.795-25.978 24.038-6.574 2.348-10.99 8.589-10.99 15.529v223.015c0 4.971-4.044 9.015-9.015 9.015h-246.679c-4.971 0-9.015-4.044-9.015-9.015v-56.796c0-4.143-3.358-7.5-7.5-7.5s-7.5 3.357-7.5 7.5v56.796c0 13.242 10.773 24.015 24.015 24.015h246.679c12.342 0 22.535-9.36 23.864-21.354 40.504 10.188 82.825-7.714 103.702-43.878 9.522-16.497 13.744-35.224 12.21-54.154-1.398-17.281 2.731-34.165 11.63-47.543 1.197-1.8 2.3-3.656 3.269-5.495 2.786-5.246 4.802-10.836 5.992-16.615.835-4.057-1.776-8.023-5.833-8.858-4.055-.838-8.023 1.776-8.858 5.833-1.235 5.996-3.65 11.703-7.059 16.83-10.755 16.17-15.76 36.434-14.091 57.059 1.287 15.883-2.257 31.597-10.25 45.445-18.397 31.867-56.108 46.274-90.56 35.864v-36.875c.147.087.288.182.436.267 6.978 4.026 14.604 5.94 22.134 5.94 29.357 0 50.52-27.767 42.982-55.903-7.594-28.346-40.342-41.809-65.552-26.797v-38.849c13.329-8.859 24.304-21.048 31.886-35.493 12.918-24.634 44.384-33.575 68.557-18.386 8.117 5.104 14.462 12.473 18.347 21.31 1.667 3.792 6.093 5.516 9.884 3.847 3.792-1.667 5.514-6.092 3.847-9.884-4.168-9.479-10.5-17.672-18.501-24.011 1.651-3.748 3.032-7.807 4.092-12.112 22.332 11.745 50.151 2.342 60.645-20.925 3.47-7.699 1.014-16.864-5.841-21.793zm-121.854 186.974c2.033 7.59.988 15.519-2.943 22.325-10.196 17.658-35.045 19.849-48.12 4.071v-37.558c15.272-18.561 44.942-11.681 51.063 11.162zm114.019-171.349c-3.606 7.997-10.525 13.884-18.982 16.151-8.456 2.266-17.392.627-24.515-4.496-.609-.438-.991-1.111-1.114-1.83.034-1.021-.036-1.117.19-1.617 7.574-16.795 28.571-22.392 43.498-11.653 1.067.765 1.464 2.247.923 3.445z"/><path d="m265.237 262.165c.682-5.954-1.9-11.843-6.734-15.363l-128.14-93.48c-4.835-3.529-11.231-4.187-16.693-1.716-5.507 2.491-9.122 7.562-9.668 13.557-2.811 30.582 4.952 59.273 21.887 81.262-.008.077-.021.151-.029.229-3.791 41.251 11.973 79.03 42.17 101.06 17.616 12.851 38.835 19.388 61.028 19.388 15.85 0 32.197-3.336 48.08-10.087 5.547-2.357 9.271-7.35 9.959-13.355.683-5.953-1.896-11.841-6.729-15.366l-59.62-43.495c11.614-1.385 23.277-4.496 34.524-9.275 5.552-2.357 9.277-7.351 9.965-13.359zm6.034 81.045c-33.218 14.12-68.508 11.274-94.4-7.614-25.891-18.889-39.367-51.624-36.073-87.569.112-1.222 1.566-1.844 2.587-1.1l128.143 93.485c1.008.734.886 2.311-.257 2.798zm-21.862-81.492c-15.817 6.72-32.486 9.717-48.349 8.717l-48.835-35.627c-4.845-3.534-11.48-4.32-17.279-1.424-12.64-18.443-18.303-41.861-16.006-66.856.053-.584.36-1.006.911-1.256.407-.184 1.026-.303 1.669.165l128.146 93.485c1.017.741.881 2.311-.257 2.796z"/></g></svg>