<svg id="icons" xmlns="http://www.w3.org/2000/svg" viewBox="0 0 64 64"><defs><style>.cls-1{fill:none;stroke:#000;stroke-linecap:round;stroke-linejoin:round;stroke-width:2px;}</style></defs><title>6</title><g id="wallet"><path class="cls-1" d="M57.837,35.42731v-9.078a2.915,2.915,0,0,0-2.91273-2.91273H7.33993A3.293,3.293,0,0,1,4,20.44617V20.2714a3.172,3.172,0,0,1,3.16517-3.16517H17.93256"/><path class="cls-1" d="M46.20548,17.10623h4.40793A2.915,2.915,0,0,1,53.52614,20.019v3.4176"/><path class="cls-1" d="M57.83909,44.13083V55.56816a2.90883,2.90883,0,0,1-2.91273,2.91273H6.91484a2.90883,2.90883,0,0,1-2.91273-2.91273V20.27556"/><path class="cls-1" d="M59.02909,35.43485H50.0564a4.34571,4.34571,0,0,0-4.34571,4.34571h0a4.34572,4.34572,0,0,0,4.34571,4.34572h8.97269A.97091.97091,0,0,0,60,43.15538V36.40576A.97091.97091,0,0,0,59.02909,35.43485Z"/><path class="cls-1" d="M7.34682,23.44491,36.59759,5.93328a2.91273,2.91273,0,0,1,4.04612,1.0914l9.06476,16.42023Z"/><line class="cls-1" x1="41.68402" y1="8.90914" x2="17.46472" y2="23.44491"/><line class="cls-1" x1="44.41599" y1="13.85793" x2="28.4423" y2="23.44491"/><path d="M50.691,41.34805a1.5009,1.5009,0,0,0,0-3,1.5009,1.5009,0,0,0,0,3Z"/></g></svg>