<svg id="Capa_1" enable-background="new 0 0 512 512" height="512" viewBox="0 0 512 512" width="512" xmlns="http://www.w3.org/2000/svg"><g><path d="m483.786 266.996c-14.642-5.019-30.245-1.926-41.741 8.276-5.17 4.59-11.59 7.579-18.56 8.723v-17.431c11.04-.5 19.874-9.612 19.874-20.773v-15.875c0-11.48-9.34-20.82-20.82-20.82h-16.235c-4.142 0-7.5 3.357-7.5 7.5 0 4.142 3.358 7.5 7.5 7.5h16.235c3.21 0 5.821 2.611 5.821 5.82v15.875c0 3.21-2.611 5.821-5.821 5.821-18.156 0-314.933 0-333.077 0-3.21 0-5.821-2.611-5.821-5.821v-15.875c0-3.209 2.611-5.82 5.821-5.82h281.843c4.142 0 7.5-3.357 7.5-7.5 0-4.142-3.358-7.5-7.5-7.5h-33.908c2.268-7.645 2.98-15.335 2.052-22.681-.868-6.89-6.288-12.311-13.184-13.184-14.419-1.814-30.004 2.697-43.373 12.249-3.965-9.587-9.946-17.821-17.573-23.741-5.487-4.258-13.151-4.259-18.638.001-13.378 10.386-21.746 27.851-22.899 47.357h-26.09l-54.423-65.399c-14.306-17.193-35.342-27.053-57.714-27.053h-27.019c-16.554 0-30.856 13.527-30.518 30.617.318 16.229 13.785 29.431 30.018 29.431 9.1 0 39.95-9.789 62.923 17.817l12.139 14.586h-43.636c-11.481 0-20.82 9.339-20.82 20.82v15.875c0 11.16 8.834 20.272 19.874 20.773v17.42c-6.969-1.147-13.391-4.122-18.561-8.713-11.494-10.2-27.098-13.296-41.739-8.275-19.847 6.802-31.39 26.794-27.447 47.529 3.75 19.796 21.178 34.61 45.488 38.662 7.523 1.251 19.367 1.879 35.327 1.879 3.314 0 6.824-.03 10.491-.084 1.507 5.004 3.475 9.863 5.897 14.487 1.34 2.557 3.949 4.021 6.65 4.021 1.173 0 2.363-.276 3.473-.858 3.669-1.922 5.086-6.454 3.163-10.124-5.066-9.671-7.743-20.598-7.743-31.598v-64.297h304.972v64.297c0 37.599-30.585 68.243-68.178 68.188-177.765-.259-170.369 1.171-182.957-1.519-.02-.004-.04-.009-.06-.013-9.089-1.951-17.689-5.744-25.369-11.267-3.362-2.417-8.048-1.651-10.467 1.71-2.418 3.362-1.653 8.049 1.71 10.467 7.717 5.55 16.196 9.666 25.138 12.28v27.91c0 10.151 8.258 18.409 18.409 18.409h178.575c10.151 0 18.409-8.258 18.409-18.409v-27.94c26.859-7.886 48.116-28.977 56.224-55.744 12.42.184 33.561.243 45.826-1.795 24.307-4.052 41.735-18.865 45.484-38.656 3.944-20.741-7.598-40.732-27.445-47.535zm-159.4-78.882c.089.012.17.091.181.181.821 6.499-.259 13.75-3.041 20.803h-33.308c-.161-2.719-.465-5.396-.901-8.022 11.154-9.543 25.048-14.471 37.069-12.962zm-68.507-14.525c.063-.051.179-.05.242-.001 9.633 7.479 15.943 20.804 17.054 35.509h-34.351c1.112-14.705 7.423-28.03 17.055-35.508zm-123.39 11.328c-15.117-18.167-38.154-27.359-61.631-24.59-10.433 1.229-12.494 1.358-12.821 1.368-8.123 0-14.862-6.606-15.021-14.728-.168-8.455 7.122-15.322 15.521-15.322h27.019c17.903 0 34.736 7.89 46.184 21.648l46.438 55.804h-25.565zm216.209 253.749c0 1.88-1.53 3.41-3.41 3.41h-178.575c-1.88 0-3.41-1.53-3.41-3.41v-25.001c6.657.665 178.771.676 185.395.009zm-299.979-100.275c-26.985-4.497-32.244-21.54-33.214-26.662-2.537-13.339 4.854-26.185 17.574-30.544 9.461-3.242 19.523-1.26 26.918 5.303 7.915 7.028 17.834 11.408 28.518 12.66v31.761c0 3.048.177 6.09.511 9.112-18.747.208-32.589-.346-40.307-1.63zm414.565 0c-7.719 1.284-21.56 1.839-40.308 1.632.859-7.849.365-10.664.509-40.881 10.683-1.257 20.604-5.626 28.517-12.652 7.396-6.564 17.459-8.549 26.92-5.304 26.016 8.916 26.612 50.164-15.638 57.205z"/><path d="m245.412 133.303c4.142 0 7.5-3.357 7.5-7.5 0-8.278 3.586-12.088 8.55-17.364 5.625-5.977 12.626-13.417 12.626-27.642 0-11.462-4.596-18.416-8.601-23.192-2.661-3.173-7.391-3.59-10.565-.929s-3.59 7.391-.929 10.565c3.059 3.649 5.096 7.35 5.096 13.556 0 8.278-3.586 12.088-8.55 17.364-5.625 5.977-12.626 13.417-12.626 27.642 0 4.143 3.357 7.5 7.499 7.5z"/><path d="m292.961 133.303c4.142 0 7.5-3.357 7.5-7.5 0-8.278 3.586-12.088 8.55-17.364 5.625-5.977 12.626-13.417 12.626-27.642 0-11.462-4.597-18.416-8.601-23.192-2.661-3.173-7.391-3.59-10.566-.929-3.174 2.661-3.59 7.391-.929 10.565 3.059 3.649 5.096 7.35 5.096 13.556 0 8.278-3.586 12.088-8.55 17.364-5.625 5.977-12.626 13.417-12.626 27.642 0 4.143 3.358 7.5 7.5 7.5z"/><path d="m340.509 133.303c4.142 0 7.5-3.357 7.5-7.5 0-8.278 3.586-12.088 8.55-17.364 5.626-5.977 12.626-13.417 12.626-27.642 0-11.462-4.596-18.416-8.601-23.192-2.662-3.173-7.391-3.59-10.566-.929-3.174 2.661-3.59 7.391-.929 10.565 3.059 3.649 5.096 7.35 5.096 13.556 0 8.278-3.586 12.088-8.55 17.364-5.626 5.977-12.626 13.417-12.626 27.642 0 4.143 3.358 7.5 7.5 7.5z"/></g></svg>