<svg id="Capa_1" enable-background="new 0 0 512 512" height="512" viewBox="0 0 512 512" width="512" xmlns="http://www.w3.org/2000/svg"><g><path d="m476.928 338.657c-10.249-10.249-23.046-20.407-36.139-27.134-5.283-12.506-14.608-22.606-26.102-28.982 34.201-19.012 30.58-55.427 30.803-56.248 0-6.341-2.487-12.108-6.531-16.39 4.044-4.281 6.531-10.049 6.531-16.39v-4.02c0-32.93-26.79-59.721-59.72-59.721h-24.59v-2.69c0-19.599-15.945-35.543-35.543-35.543h-51.442v-20.866c0-9.649-7.851-17.5-17.5-17.5h-42.714c-9.649 0-17.5 7.851-17.5 17.5v20.866h-43.039c-19.495 0-35.355 15.86-35.355 35.355v2.88h-33.177c-4.142 0-7.5 3.358-7.5 7.5s3.358 7.5 7.5 7.5h33.177v57.63h-69.017c-4.902 0-8.89-3.988-8.89-8.89v-4.02c0-13.717 6.169-26.488 16.927-35.039 3.242-2.577 3.782-7.295 1.204-10.538s-7.295-3.782-10.538-1.204c-14.358 11.413-22.593 28.464-22.593 46.781v4.02c0 6.341 2.488 12.108 6.533 16.39-8.21 8.689-6.248 18.564-6.533 20.41 0 22.438 12.447 42.017 30.795 52.221-18.347 10.205-30.795 29.787-30.795 52.229v4.02c0 6.341 2.488 12.108 6.533 16.39-4.045 4.281-6.533 10.049-6.533 16.39v4.02c0 3.463.304 6.891.888 10.256-15.318 6.614-26.068 21.863-26.068 39.58 0 5.451 4.432 9.885 9.88 9.885h81.612c4.142 0 7.5-3.358 7.5-7.5s-3.358-7.5-7.5-7.5h-76.026c2.412-13.058 13.883-22.979 27.628-22.979h65.31c13.61 0 24.683-11.073 24.683-24.683 0-30.719 0-208.342 0-245.749 0-11.224 9.131-20.355 20.355-20.355h172.195c11.328 0 20.543 9.216 20.543 20.543v2.69h-13.291c-14.513 0-26.319 11.805-26.319 26.315v65.352c0 6.335-5.154 11.49-11.489 11.49s-11.49-5.154-11.49-11.49v-65.352c0-14.511-11.808-26.316-26.322-26.316h-74.884c-14.513 0-26.319 11.806-26.319 26.316v216.555c0 13.61 11.073 24.683 24.684 24.683h23.137c13.744 0 25.214 9.921 27.627 22.977-.434 0-100.926.002-105.022.002-4.142 0-7.5 3.358-7.5 7.5s3.358 7.5 7.5 7.5c20.492 0 211.291-.002 233.884-.002 1.742 5.038 4.155 9.327 7.367 12.539 7.84 7.841 22.022 10.985 38.142 10.985 15.867 0 33.612-3.048 49.028-7.664 15.343-4.594 51.55-17.812 56.389-41.263 4.649-22.533-14.709-51.576-34.374-71.242zm-436.748-108.344v-4.02c0-4.902 3.988-8.89 8.89-8.89h69.017v57.63h-33.177c-24.664 0-44.73-20.061-44.73-44.72zm0 104.45c0-24.664 20.066-44.73 44.73-44.73h33.177v57.64h-69.017c-4.902 0-8.89-3.988-8.89-8.89zm68.224 47.563s-66.912.026-67.706.07c-.342-2.238-.518-4.514-.518-6.813v-4.02c0-4.902 3.988-8.89 8.89-8.89h69.017v9.97c0 5.339-4.344 9.683-9.683 9.683zm103.077-311.653c0-1.378 1.122-2.5 2.5-2.5h42.714c1.378 0 2.5 1.122 2.5 2.5v20.866h-47.714zm206.685 233.277c-4.305-.548-8.496-.49-12.482.333-18.152 3.745-30.168 26.28-36.804 43.39h-197.814v-57.64h214.703c12.471 0 24.113 5.235 32.397 13.917zm-85.277-159.177h52.88c24.659 0 44.72 20.062 44.72 44.721v4.02c0 4.902-3.984 8.89-8.88 8.89h-100.039v-46.316c0-6.239 5.077-11.315 11.319-11.315zm-37.808 103.157c14.606 0 26.489-11.883 26.489-26.49v-4.037h100.039c4.896 0 8.88 3.988 8.88 8.89v4.02c0 24.659-20.061 44.72-44.72 44.72h-214.703v-57.63h97.525v4.037c0 14.607 11.883 26.49 26.49 26.49zm-112.696-103.158h74.884c6.243 0 11.322 5.077 11.322 11.316v46.316h-97.525v-46.316c0-6.24 5.077-11.316 11.319-11.316zm64.281 275.531c-2.54-21.357-20.75-37.977-42.78-37.977h-23.137c-5.339 0-9.684-4.344-9.684-9.683v-9.97h192.775c-5.319 18.534-8.33 40.08-6.57 57.63zm249.945-13.434c-2.125 10.295-20.611 22.321-46.001 29.924-30.849 9.238-63.266 9.436-72.26.442-2.941-2.941-4.199-7.436-5.123-11.215-7.046-32.095 12.64-107.443 39.61-107.443 31.853 0 89.686 59.637 83.774 88.292z"/><path d="m416.648 347.733-2.121 2.121c-2.929 2.928-2.93 7.677-.001 10.606 1.464 1.465 3.384 2.197 5.304 2.197 1.919 0 3.838-.732 5.303-2.196l2.121-2.121c2.929-2.928 2.93-7.677.001-10.606-2.928-2.929-7.677-2.93-10.607-.001z"/><path d="m447.515 393.219-2.121 2.121c-2.929 2.929-2.929 7.678 0 10.606 1.464 1.464 3.384 2.197 5.303 2.197s3.839-.732 5.303-2.197l2.121-2.121c2.929-2.929 2.929-7.678 0-10.606-2.928-2.928-7.677-2.928-10.606 0z"/><path d="m406.166 398.812-2.121 2.121c-2.929 2.929-2.929 7.678 0 10.606 1.464 1.464 3.384 2.197 5.303 2.197s3.839-.732 5.303-2.197l2.121-2.121c2.929-2.929 2.929-7.678 0-10.606-2.928-2.929-7.677-2.929-10.606 0z"/></g></svg>