<svg id="Capa_1" enable-background="new 0 0 509.406 509.406" height="512" viewBox="0 0 509.406 509.406" width="512" xmlns="http://www.w3.org/2000/svg"><g><path d="m419.704 299.5h15v15h-15z"/><path d="m374.703 134.983v-14.983h14.5v-15h-14.5v-29.984h-15.879c-3.758-26.127-26.17-44.022-51.91-44.956-13.649-.495-27.404 0-41.061 0-18.68 0-36.879-.201-54.925-6.039-22.084-7.144-37.738-24.021-61.559-24.021v75.016h-14.666v29.984h-15.5v15h15.5v14.983h-60.001v374.423h360.002v-179.906h-15v60.5h-330.002v-135.334h68.004l.247.356c.178-.124.35-.235.528-.356h261.223v29.834h15v-149.518zm45.001 52.727c-10.714 9.618-22.816 15.615-35.196 22.636-13.61 7.719-25.399 17.85-36.001 29.32h-34.297c21.776-39.985 65.619-58.91 97.067-89.684h8.426v37.728zm-30.584-37.727c-33.58 28.808-70.796 48.749-91.843 89.683h-112.284c17.689-10.567 33.56-26.017 45.137-43.014 10.626-15.601 17.241-32.613 30.325-46.669h106.749zm-148.379 0c-12.886 16.619-19.746 36.332-34.103 52.013-15.681 17.126-33.428 25.66-52.629 37.67h-45.04c15.439-16.397 33.115-24.372 51.594-36.152 20.448-13.035 37.87-32.068 49.103-53.531zm102.873-74.967h-108.671c9.321-9.046 13.015-19.505 20.023-29.956 29.371.001 80.598-9.495 88.648 29.956zm-138.004-36.951c10.473 3.45 21.343 5.654 32.426 6.538-6.545 13.402-15.652 23.913-29.304 30.413h-29.849c13.612-10.529 16.433-24.515 26.727-36.951zm-14.494-5.693c-8.776 12.668-11.928 26.361-26.747 34.236v-49.827c.605.305 17.923 11.538 26.747 15.591zm-41.413 117.611v-29.983h134.5v-15h-134.5v-14.984h210v14.984h-30.501v15h30.501v14.983h-195.5v15h28.307c-24.728 41.336-73.536 52.081-102.807 89.013v-89.013zm-60.001 307.743c21.73-21.454 50.974-30.661 72.49-52.726h34.537c-23.139 41.271-68.755 57.584-101.201 89.406h-5.826zm235.29-52.726c-17.422 11.074-33.12 26.96-43.977 44.508-9.749 15.757-16.642 31.366-29.857 44.898h-133.335c17.643-14.704 38.327-25.104 55.831-40.021 16.544-14.099 30.062-30.123 40.083-49.385zm-53.675 89.406c13.373-16.333 20-36.627 34.109-52.474 14.908-16.744 31.751-25.873 50.673-36.932h46.22c-15.464 15.808-33.467 23.563-51.483 35.446-20.294 13.386-37.486 32.485-48.809 53.96zm47.872 0c24.151-40.532 70.479-51.789 100.515-86.1v86.1zm-178.884-89.406c-15.464 13.1-34.999 19.493-50.602 32.451v-32.451zm229.403-165.334c15.058-13.887 33.777-20.515 49.996-32.558v32.558z"/><path d="m299.202 105h15v15h-15z"/><path d="m329.203 312.25h-6.628l6.064-6.064-10.606-10.606-14.072 14.072c-11.549-10.485-30.589-6.651-37.2 7.438 0 0-15.224-4.924-31.161-31.16-12.657-12.657-30.933-20.667-46.317-6.451-16.343 15.102-8.28 34.585 4.953 47.818 13.063 6.886 23.77 17.533 30.625 30.625 9.967 9.968 20.755 18.173 35.81 13.228 12.079 7.364 26.59-2.951 37.593-8.084 14.318-6.679 29.861-17.14 21.268-35.817h9.671zm-92.197 36.605c-7.874-14.184-19.492-25.805-33.686-33.685-18.668-16.927 2.901-38.878 20.153-20.152 11.062 21.149 36.537 36.536 36.537 36.536-3.618 7.755-9.908 17.095-8.522 25.995-6.142-.079-10.648-4.396-14.482-8.694zm69.563-10.253c-1.493 8.473-19.95 13.345-26.472 16.388-8.878 4.141-15.726 4.735-11.253-6.887 2.808-7.298 7.019-21.379 13.03-26.91 8.29-7.63 26.316 8.214 24.695 17.409z"/><path d="m104.703 269.5h15v15h-15z"/><path d="m104.703 299.5h15v15h-15z"/></g></svg>