<?xml version="1.0" encoding="UTF-8"?><svg id="Line" xmlns="http://www.w3.org/2000/svg" viewBox="0 0 64 64"><path d="M32,14.896c-3.14209,0-5.69824-2.55615-5.69824-5.69775,0-3.14209,2.55615-5.69824,5.69824-5.69824,3.1416,0,5.69824,2.55615,5.69824,5.69824,0,.82861-.67188,1.5-1.5,1.5s-1.5-.67139-1.5-1.5c0-1.48779-1.20996-2.69824-2.69824-2.69824-1.48779,0-2.69824,1.21045-2.69824,2.69824s1.21045,2.69775,2.69824,2.69775c.82861,0,1.5.67139,1.5,1.5s-.67139,1.5-1.5,1.5Z" style="fill:#293a4c; stroke-width:0px;"/><path d="M45.63086,60.5h-27.26123c-2.09277,0-3.89307-1.42188-4.37744-3.45801l-4.86328-20.42627c-.19189-.80615.30566-1.61523,1.11133-1.80664.81006-.19092,1.61523.30566,1.80664,1.11133l4.86328,20.42676c.16162.67871.76172,1.15283,1.45947,1.15283h27.26123c.69727,0,1.29785-.47363,1.45898-1.15186l3.22266-13.53662c.19141-.80664.99805-1.30273,1.80664-1.11182.80566.19141,1.30371,1.00049,1.11133,1.80615l-3.22266,13.53613c-.4834,2.03613-2.28418,3.45801-4.37695,3.45801Z" style="fill:#293a4c; stroke-width:0px;"/><path d="M21.87109,46.5c-.74561,0-1.39209-.55518-1.48633-1.31445l-.87305-7c-.10254-.82178.48047-1.57129,1.30273-1.67383.82031-.10596,1.57178.48047,1.67383,1.30273l.87305,7c.10254.82178-.48047,1.57129-1.30273,1.67383-.06299.00781-.12549.01172-.1875.01172Z" style="fill:#293a4c; stroke-width:0px;"/><path d="M23.61719,60.5c-.74561,0-1.3916-.55518-1.48633-1.31445l-.96191-7.71191c-.10254-.82178.48047-1.57129,1.30273-1.67383.81641-.10303,1.5708.47998,1.67383,1.30273l.96191,7.71191c.10254.82178-.48047,1.57129-1.30273,1.67383-.06299.00781-.12549.01172-.1875.01172Z" style="fill:#293a4c; stroke-width:0px;"/><path d="M42.23535,45.64307c-.0625,0-.125-.00391-.1875-.01172-.82227-.10254-1.40527-.85205-1.30273-1.67383l.7666-6.14307c.10254-.82275.86621-1.40039,1.67383-1.30273.82227.10254,1.40527.85205,1.30273,1.67383l-.7666,6.14307c-.09473.75928-.74121,1.31445-1.48633,1.31445Z" style="fill:#293a4c; stroke-width:0px;"/><path d="M40.38281,60.5c-.06152,0-.12402-.00391-.1875-.01172-.82227-.10205-1.40527-.85156-1.30273-1.67383l1.12207-9c.10254-.82227.84082-1.40723,1.67383-1.30273.82227.10205,1.40527.85156,1.30273,1.67383l-1.12207,9c-.09473.75928-.74121,1.31445-1.48633,1.31445Z" style="fill:#293a4c; stroke-width:0px;"/><path d="M32,60.5c-.82861,0-1.5-.67139-1.5-1.5v-20.24902c0-.82861.67139-1.5,1.5-1.5s1.5.67139,1.5,1.5v20.24902c0,.82861-.67139,1.5-1.5,1.5Z" style="fill:#293a4c; stroke-width:0px;"/><path d="M46.83887,40.25098c-2.5791,0-5.06055-.85449-6.99121-2.37744-2.31543,1.54053-5.05762,2.37744-7.84766,2.37744-2.78955,0-5.53174-.83691-7.84814-2.37744-1.93018,1.52295-4.41211,2.37744-6.99121,2.37744-5.87842,0-10.66064-4.33838-10.66064-9.6709s4.78223-9.67041,10.66064-9.67041c.53613,0,1.07227.03711,1.60449.11133,2.07275-5.43652,7.32959-9.125,13.23486-9.125s11.16211,3.68848,13.23535,9.125c.53223-.07422,1.06738-.11133,1.60352-.11133,5.87891,0,10.66113,4.33789,10.66113,9.67041s-4.78223,9.6709-10.66113,9.6709ZM39.94238,34.44629c.39062,0,.7793.15186,1.07227.45068,1.46387,1.49609,3.58691,2.354,5.82422,2.354,4.22461,0,7.66113-2.99268,7.66113-6.6709s-3.43652-6.67041-7.66113-6.67041c-.74902,0-1.5.09863-2.23145.29248-.80273.20947-1.61621-.26123-1.83203-1.05713-1.31738-4.85693-5.74805-8.24902-10.77539-8.24902s-9.45801,3.39209-10.7749,8.24902c-.21582.79688-1.0376,1.2666-1.83252,1.05713-.73145-.19385-1.48242-.29248-2.23193-.29248-4.22412,0-7.66064,2.99219-7.66064,6.67041s3.43652,6.6709,7.66064,6.6709c2.2373,0,4.36035-.85791,5.8252-2.354.54004-.55225,1.41211-.60303,2.0127-.11865,2.00781,1.61768,4.4292,2.47266,7.00146,2.47266s4.99316-.85498,7.00098-2.47266c.27637-.22266.60938-.33203.94141-.33203Z" style="fill:#293a4c; stroke-width:0px;"/><path d="M25.49951,27.6665c-.3457,0-.69287-.11865-.97559-.36133-.62891-.53906-.70215-1.48584-.1626-2.11475l1-1.1665c.53955-.62891,1.48633-.70166,2.11475-.1626.62891.53906.70215,1.48584.1626,2.11475l-1,1.1665c-.29639.34619-.7168.52393-1.13916.52393Z" style="fill:#293a4c; stroke-width:0px;"/><path d="M45.49902,33.5c-.3457,0-.69238-.11865-.97559-.36133-.62891-.53906-.70117-1.48584-.16211-2.11475l1-1.1665c.53906-.62939,1.48535-.70264,2.11523-.1626.62891.53906.70117,1.48584.16211,2.11475l-1,1.1665c-.29688.34619-.7168.52393-1.13965.52393Z" style="fill:#293a4c; stroke-width:0px;"/><path d="M38.49902,27.6665c-.3457,0-.69238-.11865-.97559-.36133-.62891-.53906-.70117-1.48584-.16211-2.11475l1-1.1665c.53906-.62939,1.48438-.70264,2.11523-.1626.62891.53906.70117,1.48584.16211,2.11475l-1,1.1665c-.29688.34619-.7168.52393-1.13965.52393Z" style="fill:#293a4c; stroke-width:0px;"/><path d="M18.50049,33.5c-.42236,0-.84277-.17773-1.13916-.52393l-1-1.1665c-.53955-.62891-.46631-1.57568.1626-2.11475.62744-.53906,1.57568-.4668,2.11475.1626l1,1.1665c.53955.62891.46631,1.57568-.1626,2.11475-.28271.24268-.62988.36133-.97559.36133Z" style="fill:#293a4c; stroke-width:0px;"/><path d="M32.50049,34.3335c-.42285,0-.84277-.17773-1.13965-.52393l-1-1.16699c-.53906-.62891-.46582-1.57617.16309-2.11523.62891-.5376,1.57617-.46533,2.11523.16309l.99951,1.16699c.53906.62891.4668,1.57617-.16309,2.11523-.28223.24219-.62939.36084-.9751.36084Z" style="fill:#293a4c; stroke-width:0px;"/><path d="M32.50049,21.28125c-.42236,0-.84277-.17773-1.13916-.52393l-1-1.1665c-.53955-.62891-.46631-1.57568.1626-2.11475.62842-.53906,1.57568-.46729,2.11475.1626l1,1.1665c.53906.62891.4668,1.57568-.16211,2.11475-.2832.24268-.63037.36133-.97607.36133Z" style="fill:#293a4c; stroke-width:0px;"/></svg>