<?xml version="1.0" encoding="UTF-8"?><svg id="Line" xmlns="http://www.w3.org/2000/svg" viewBox="0 0 64 64"><path d="M58.45166,28.5332c-.16357,0-.33008-.02637-.49365-.08398-.78223-.27246-1.19531-1.12695-.92285-1.90918.30859-.88574.46484-1.79395.46484-2.69922,0-7.90723-11.43945-14.34082-25.5-14.34082-12.79932,0-23.93359,5.61816-25.34814,12.79004-.16016.8125-.94922,1.34473-1.76172,1.18164-.81299-.16016-1.3418-.94922-1.18164-1.76172,1.71045-8.6709,13.87305-15.20996,28.2915-15.20996,15.98145,0,28.5,7.61719,28.5,17.34082,0,1.24219-.2124,2.48242-.63184,3.68555-.21582.61914-.7959,1.00684-1.4165,1.00684Z" style="fill:#293a4c; stroke-width:0px;"/><path d="M32,27.5c-6.55615,0-11.5-2.5791-11.5-6s4.94385-6,11.5-6,11.5,2.5791,11.5,6-4.94385,6-11.5,6ZM32,18.5c-5.5,0-8.5,1.98145-8.5,3s3,3,8.5,3,8.5-1.98145,8.5-3-3-3-8.5-3Z" style="fill:#293a4c; stroke-width:0px;"/><path d="M32,57.5c-15.98145,0-28.5-7.61621-28.5-17.33984,0-1.7832.42871-3.52637,1.27393-5.18164.37695-.73926,1.28271-1.0293,2.01807-.6543.73779.37695,1.03076,1.28027.65381,2.01758-.62744,1.22949-.9458,2.51367-.9458,3.81836,0,7.90723,11.43945,14.33984,25.5,14.33984,12.479,0,23.31885-5.25195,25.21387-12.2168.21777-.7998,1.04004-1.27051,1.84131-1.05371.79932.21777,1.271,1.04199,1.05322,1.84082-2.2749,8.36133-14.09619,14.42969-28.1084,14.42969Z" style="fill:#293a4c; stroke-width:0px;"/><circle cx="18.48671" cy="16.48784" r="1.51273" style="fill:#293a4c; stroke-width:0px;"/><circle cx="13.51329" cy="19.48784" r="1.51273" style="fill:#293a4c; stroke-width:0px;"/><circle cx="26.48671" cy="31.51216" r="1.51273" style="fill:#293a4c; stroke-width:0px;"/><circle cx="45.51329" cy="25.51216" r="1.51273" style="fill:#293a4c; stroke-width:0px;"/><circle cx="19.48671" cy="29.51216" r="1.51273" style="fill:#293a4c; stroke-width:0px;"/><circle cx="43.48671" cy="29.51216" r="1.51273" style="fill:#293a4c; stroke-width:0px;"/><circle cx="50.51329" cy="19.48784" r="1.51273" style="fill:#293a4c; stroke-width:0px;"/><circle cx="38.48671" cy="13.48784" r="1.51273" style="fill:#293a4c; stroke-width:0px;"/><path d="M32,48.5c-15.98145,0-28.5-7.61719-28.5-17.34082,0-1.41699.2832-2.83691.84131-4.2207.229-.56738.7793-.93848,1.39111-.93848h0c.61182,0,1.16211.37207,1.39111.93848,2.62695,6.51465,13.08936,11.24219,24.87646,11.24219s22.24951-4.72754,24.87646-11.24219c.229-.56641.7793-.93848,1.39111-.93848.61133,0,1.16211.37109,1.39111.93848.55811,1.38379.84131,2.80371.84131,4.2207,0,9.72363-12.51855,17.34082-28.5,17.34082ZM6.51562,31.66504c.47559,7.67383,11.7251,13.83496,25.48438,13.83496s25.00879-6.16113,25.48438-13.83496c-4.7251,5.74707-14.47754,9.51562-25.48438,9.51562s-20.75928-3.76855-25.48438-9.51562Z" style="fill:#293a4c; stroke-width:0px;"/></svg>