<svg id="Capa_1" enable-background="new 0 0 510 510" height="512" viewBox="0 0 510 510" width="512" xmlns="http://www.w3.org/2000/svg"><g><path d="m269.527 193.514h15.001v15h-15.001z" transform="matrix(.996 -.085 .085 .996 -16.029 24.185)"/><path d="m412 140.848h98v-44.334h-97.5c-27.38 0-51.273 14.738-62.357 38.463-5.484 11.739-17.672 18.911-30.347 17.849l-266.801-22.387c-28.077-2.444-52.995 20.427-52.995 48.572 0 28.126 24.906 51.018 52.978 48.573l202.157-17.182-1.27-14.946-202.175 17.183c-19.469 1.697-36.69-14.085-36.69-33.629 0-19.562 17.238-35.326 36.716-33.626l266.826 22.389c18.892 1.583 37.059-9.042 45.19-26.447 8.591-18.389 27.277-29.812 48.768-29.812h82.5v14.333h-83c-28.856 0-28.944 45 0 45h83v15.334h-83c-29.079 0-28.572 44.666.419 44.666h82.581v15.334h-82.5c-21.475 0-40.156-11.412-48.754-29.783-12.825-27.399-39.275-26.945-64.882-24.768l1.271 14.946c18.905-1.607 40.181-4.852 50.024 16.18 11.092 23.701 34.979 38.424 62.34 38.424h97.501v-45.334h-97.581c-9.625 0-10.174-14.666-.419-14.666h98v-45.334h-98c-9.426.002-9.559-14.998 0-14.998z"/><path d="m44.5 171.511h45v15h-45z"/><path d="m494.188 302.376c-18.883-17.308-43.372-12.089-66.317-10.086-17.674 1.542-35.348 3.085-53.023 4.627l1.305 14.943c24.152-2.108 48.304-4.215 72.456-6.323 15.274-1.333 30.101-.821 40.133 13.168 16.461 22.956-2.367 55.694-30.432 53.242l-262.992-22.949c-24.061-2.102-33.583 13.207-48.615 27.795-15.039 14.595-36.496 21.693-57.202 21.693-41.079 0-74.5-26.991-74.5-60.167s33.421-60.167 74.5-60.167c20.703 0 42.165 7.1 57.203 21.693 14.969 14.526 24.647 29.888 48.614 27.795l135.835-11.853-1.305-14.943-135.835 11.853c-22.149 1.928-30.536-19.964-45.94-31.156-16.85-12.242-37.829-18.389-58.573-18.389-49.351 0-89.5 33.72-89.5 75.167s40.149 75.167 89.5 75.167c20.744 0 41.724-6.147 58.573-18.389 15.342-11.147 23.889-33.088 45.94-31.156l262.992 22.949c45.418 3.962 70.694-53.799 37.183-84.514z"/><path d="m345.471 298.851h15.056v15h-15.056z" transform="matrix(.996 -.087 .087 .996 -25.3 31.853)"/><path d="m420.5 330.819h45v15h-45z"/><path d="m69.345 364.5c-4.291-1.571-8.121-3.578-11.384-5.965l-8.857 12.106c4.397 3.217 9.473 5.89 15.083 7.944z"/><path d="m31.072 340.165c.364 6.122 2.383 12.229 5.837 17.661l12.658-8.049c-2.091-3.287-3.309-6.919-3.522-10.504z"/></g></svg>