<svg id="Capa_1" enable-background="new 0 0 512 512" height="512" viewBox="0 0 512 512" width="512" xmlns="http://www.w3.org/2000/svg"><g><path d="m512 220.279c0-20.022-6.338-38.764-18.327-54.199-11.412-14.691-27.566-25.506-45.488-30.45-8.184-2.259-15.764-7.492-21.339-14.733-5.661-7.362-11.858-14.427-18.419-20.997-40.694-40.75-94.827-63.191-152.427-63.191-30.645 0-60.25 6.303-87.996 18.731-3.78 1.693-5.472 6.131-3.778 9.911 1.693 3.779 6.127 5.472 9.911 3.778 25.803-11.559 53.346-17.42 81.863-17.42 53.59 0 103.953 20.879 141.812 58.789 6.105 6.115 11.873 12.69 17.146 19.547 7.552 9.807 17.935 16.925 29.236 20.044 31.585 8.715 52.806 36.922 52.806 70.19 0 59.827-48.673 108.5-108.5 108.5-17.796 0-35.441-4.401-51.031-12.729-6.144-3.28-13.491-2.838-19.174 1.156-37.11 26.075-87.04 26.386-124.589.001-5.682-3.995-13.031-4.438-19.175-1.156-15.589 8.327-33.235 12.729-51.03 12.729-59.827 0-108.5-48.673-108.5-108.5 0-33.269 21.221-61.476 52.805-70.19 11.302-3.119 21.685-10.237 29.241-20.049 5.268-6.852 11.036-13.427 17.141-19.541 9.289-9.302 19.529-17.722 30.437-25.026 3.442-2.305 4.364-6.963 2.059-10.404s-6.962-4.364-10.405-2.059c-11.722 7.849-22.725 16.896-32.706 26.891-6.561 6.57-12.757 13.635-18.415 20.992-5.579 7.245-13.159 12.479-21.342 14.737-17.922 4.944-34.077 15.759-45.488 30.45-11.991 15.435-18.328 34.177-18.328 54.198 0 47.024 26.421 87.989 65.194 108.843l38.763 133.55c2.158 7.43 9.067 12.618 16.802 12.618h270.48c7.734 0 14.644-5.188 16.803-12.619l6.87-23.67c1.154-3.979-1.135-8.139-5.112-9.294-3.976-1.151-8.139 1.135-9.294 5.112l-6.869 23.669c-.309 1.061-1.294 1.802-2.397 1.802h-55.203l17.641-121.529c11.266 3.301 23.015 5.017 34.822 5.017 14.145 0 27.738-2.397 40.404-6.795l-18.688 64.376c-1.154 3.978 1.135 8.139 5.112 9.294.698.202 1.402.299 2.095.299 3.251 0 6.247-2.132 7.199-5.411l22.184-76.42c38.774-20.853 65.194-61.818 65.194-108.842zm-330.403 109.003c1.122-.602 2.459-.525 3.484.197 18.795 13.207 40.585 20.778 63.419 22.143v108.668h-57.38l-18.397-126.739c3.012-1.306 5.976-2.721 8.874-4.269zm-63.234 129.208-35.268-121.506c12.667 4.398 26.26 6.795 40.405 6.795 11.807 0 23.555-1.716 34.822-5.017l17.641 121.528h-55.203c-1.104.001-2.09-.74-2.397-1.8zm202.518 1.801h-57.381v-108.668c22.833-1.365 44.624-8.937 63.419-22.143 1.026-.722 2.361-.798 3.483-.198 2.898 1.548 5.863 2.964 8.875 4.271z"/><path d="m160.915 210.221c-20.351 0-37.673 15.199-40.293 35.354-.882 6.783 4.461 12.779 11.293 12.779h57.999c6.854 0 12.172-6.017 11.294-12.778-2.62-20.155-19.942-35.355-40.293-35.355zm-24.521 33.133c3.233-10.584 13.124-18.134 24.521-18.134s21.288 7.55 24.521 18.134z"/><path d="m351.085 210.221c-20.351 0-37.673 15.199-40.293 35.355-.879 6.77 4.448 12.778 11.294 12.778h57.998c6.854 0 12.172-6.017 11.294-12.778-2.62-20.155-19.942-35.355-40.293-35.355zm-24.521 33.133c3.233-10.584 13.124-18.134 24.521-18.134s21.287 7.55 24.521 18.134z"/><path d="m256 118.389c-20.351 0-37.673 15.198-40.293 35.354-.882 6.783 4.461 12.779 11.293 12.779h57.999c6.854 0 12.172-6.017 11.294-12.778-2.62-20.156-19.942-35.355-40.293-35.355zm-24.521 33.132c3.233-10.584 13.124-18.133 24.521-18.133 11.396 0 21.287 7.549 24.521 18.133z"/></g></svg>