<?xml version="1.0" encoding="UTF-8"?><svg id="Line" xmlns="http://www.w3.org/2000/svg" viewBox="0 0 64 64"><path d="M19.11865,57.49414c-4.13281,0-8.38184-1.3252-10.76416-3.85547-.32275-.34277-.62939-.69336-.91992-1.05273-.521-.64355-.42139-1.58789.22266-2.10938.64209-.52148,1.58789-.42188,2.10938.22266.24365.30078.50146.59473.77246.88281,3.19336,3.3916,11.82959,3.92578,15.3999.95215l28.80371-23.48145c1.53271-1.27637,2.55859-3.75293,2.73193-6.61426.18994-3.1377-.67676-6.13184-2.26172-7.81543-1.28906-1.36914-2.80127-2.49512-4.49561-3.34863-.73975-.37305-1.0376-1.27441-.66504-2.01465.37305-.74023,1.27734-1.0332,2.01465-.66504,2.00732,1.01074,3.80078,2.34766,5.33008,3.97168,2.16553,2.2998,3.31396,6.05762,3.07178,10.05273-.22559,3.72754-1.61719,6.91602-3.81836,8.74902l-28.80371,23.48145c-2.14209,1.7832-5.39746,2.64453-8.72803,2.64453Z" style="fill:#293a4c; stroke-width:0px;"/><path d="M19.59766,51.75977c-2.11328,0-3.65967-1.04492-4.39648-1.95117-.52246-.64258-.4248-1.58789.21777-2.11035.63818-.51758,1.57178-.42578,2.09668.20117.21045.23926,2.05518,2.12891,5.6709-.63281.6582-.50195,1.59912-.37695,2.10254.28223.50244.6582.37646,1.59961-.28223,2.10254-2.04004,1.55664-3.87402,2.1084-5.40918,2.1084Z" style="fill:#293a4c; stroke-width:0px;"/><path d="M44.93896,32.5293c-.44971,0-.89502-.20117-1.19043-.58594-.50488-.65723-.38135-1.59863.27539-2.10352l.88818-.68262c.65625-.50488,1.59766-.38184,2.10352.27539.50488.65723.38135,1.59863-.27539,2.10352l-.88818.68262c-.27246.20898-.59424.31055-.91309.31055Z" style="fill:#293a4c; stroke-width:0px;"/><path d="M49.93018,28.35449c-.41699,0-.83154-.17285-1.12842-.51074-.5459-.62305-.48389-1.57031.13867-2.11719,3.03711-2.66309,1.64355-5.68555,1.62891-5.71582-.35693-.74707-.04053-1.64258.70703-2,.74756-.35645,1.64355-.04102,2,.70703.83789,1.75391,1.42383,5.94824-2.35742,9.26465-.28516.24902-.6377.37207-.98877.37207Z" style="fill:#293a4c; stroke-width:0px;"/><path d="M7.21387,47.91406c-.65771,0-1.26465-.07324-1.79688-.17773-.54053-.10547-.97949-.49902-1.14355-1.02441-1.77832-5.69727-.46338-11.75977,3.51807-16.2168,7.3501-8.23047,15.93115-15.37598,25.50537-21.23828h0c5.63867-3.45215,12.88184-3.67871,18.90479-.58594.60693.31152.92725.99316.7793,1.65918-1.44775,6.5166-5.88477,7.8584-9.79932,9.04297-2.979.90137-5.55225,1.67969-7.05225,4.50195-3.22998,6.07715-7.69238,7.24023-11.27832,8.1748-3.47314.90527-5.98242,1.55957-7.40088,5.92969-2.6665,8.21582-7.04346,9.93457-10.23633,9.93457ZM6.88525,44.90625c3.39258.20215,5.95605-2.44238,7.71143-7.85254,1.92578-5.93262,5.94824-6.98145,9.49756-7.90625,3.48389-.9082,6.77441-1.76562,9.38574-6.68066,2.08594-3.92383,5.67041-5.00879,8.83301-5.96582,3.40967-1.03125,6.16357-1.86426,7.42529-5.67383-4.86035-2.06445-10.45752-1.7168-14.875.98828-9.32373,5.70996-17.6792,12.66699-24.83447,20.67773-3.06006,3.42676-4.20361,8.00586-3.14355,12.41309Z" style="fill:#293a4c; stroke-width:0px;"/><path d="M39.55762,15.16602c-.4585,0-.91113-.20898-1.20557-.60645-.49365-.66504-.35449-1.60449.31055-2.09766l1.19873-.88965c.66357-.49609,1.604-.35742,2.09863.31055.49365.66504.35449,1.60449-.31055,2.09766l-1.19873.88965c-.26855.2002-.58203.2959-.89307.2959Z" style="fill:#293a4c; stroke-width:0px;"/><path d="M28.25879,23.94238c-.4585,0-.91162-.20996-1.20605-.60645-.49316-.66602-.35352-1.60547.31152-2.09863l1.19873-.88867c.66406-.49414,1.604-.35352,2.09863.31152.49316.66602.35352,1.60547-.31201,2.09863l-1.19873.88867c-.26807.19922-.58154.29492-.89209.29492Z" style="fill:#293a4c; stroke-width:0px;"/><path d="M10.40039,39.97754c-.4585,0-.91162-.20996-1.20605-.60645-.49316-.66602-.35352-1.60547.31152-2.09863l1.19873-.88867c.66504-.49414,1.60498-.35449,2.09863.31152.49316.66602.35352,1.60547-.31201,2.09863l-1.19873.88867c-.26807.19922-.58154.29492-.89209.29492Z" style="fill:#293a4c; stroke-width:0px;"/><path d="M18.5498,29.59863c-.4585,0-.91162-.20996-1.20605-.60645-.49316-.66602-.35352-1.60547.31152-2.09863l1.19873-.88867c.66455-.49414,1.60449-.35352,2.09863.31152.49316.66602.35352,1.60547-.31201,2.09863l-1.19873.88867c-.26807.19922-.58154.29492-.89209.29492Z" style="fill:#293a4c; stroke-width:0px;"/></svg>