<svg id="Capa_1" enable-background="new 0 0 512 512" height="512" viewBox="0 0 512 512" width="512" xmlns="http://www.w3.org/2000/svg"><g><path d="m436.533 74.98c-48.352-48.351-112.64-74.98-181.02-74.98s-132.667 26.629-181.019 74.98c-98.676 98.677-98.676 263.362 0 362.039 48.352 48.352 112.64 74.98 181.02 74.98s132.668-26.629 181.02-74.98c48.352-48.352 74.98-112.64 74.98-181.02s-26.63-132.666-74.981-181.019zm-133.251 389.391c-8.919-9.475-14.006-16.354-17.823-21.934l-12.381 8.468c4.197 6.138 9.795 13.706 19.593 24.077l-21.232 21.232c-12.218-12.869-17.516-21.108-23.101-29.796-6.471-10.066-13.163-20.475-30.348-37.661-17.212-17.212-33.4-27.834-47.682-37.206-6.058-3.975-11.897-7.812-17.517-11.932 5.014-7.148 11.374-15.086 22.446-26.158 8.171-8.171 14.634-13.773 20.333-18.164 12.287 11.29 20.907 16.889 29.292 22.331 10.023 6.506 19.49 12.651 35.548 28.709s22.203 25.524 28.708 35.547c5.819 8.964 11.813 18.197 24.756 31.895zm-78.769-233.371c-3.756 4.406-13.201 15.674-18.163 20.636-16.059 16.059-25.527 22.205-35.55 28.711-10.233 6.643-20.814 13.511-37.989 30.687-20.816 20.816-34.002 46.945-54.161 68.17l-10.598-10.598c20.196-21.217 33.373-47.386 54.159-68.172 16.059-16.059 25.526-22.204 35.55-28.711 10.233-6.643 20.814-13.511 37.99-30.687 17.175-17.174 24.043-27.755 30.685-37.988 4.033-6.213 7.93-12.214 14.132-19.702v55.578c0 12.702 1.834 24.982 5.239 36.597-24.288 26.342-55.995 42.151-81.175 67.332-17.175 17.175-24.044 27.757-30.687 37.99-5.747 8.853-11.212 17.272-23.473 30.181l-21.213-21.212c20.196-21.217 33.373-47.386 54.159-68.172 16.059-16.059 25.527-22.205 35.55-28.711 10.233-6.643 20.814-13.511 37.99-30.687l7.747-9.086zm90.09 125.449c15.174 17.481 25.618 38.034 41.685 54.915l-31.803 31.803c-11.777-12.498-17.148-20.767-22.785-29.451-6.642-10.232-13.51-20.813-30.683-37.986-17.175-17.174-27.756-24.043-37.989-30.685-7.578-4.919-14.841-9.635-24.874-18.583 12.897-8.427 25.007-17.313 36.155-28.02 7.51 6.382 13.627 10.619 19.257 14.321 12.869 18.645 30.459 33.792 51.037 43.686zm62.835 54.978c-14.25-14.252-26.029-29.05-37.109-45.813 39.329 9.486 81.124-.547 109.498-30.012-20.297 49.475-59.048 90.113-108.849 112.286zm87.76-144.109c-3.934 48.588-44.729 86.924-94.313 86.924-63.587 0-115.318-51.731-115.318-115.318v-65.63c0-45.805 42.876-81.62 87.962-73.442 28.53 5.175 49.826 29.417 70.855 47.672 34.288 29.765 53.25 74.477 50.814 119.794zm-223.63-107.416c-15.023 15.427-21.47 25.357-27.715 34.979-6.506 10.023-12.651 19.49-28.71 35.548-16.06 16.06-25.527 22.205-35.55 28.711-10.233 6.643-20.814 13.511-37.989 30.686-20.816 20.816-34.002 46.945-54.161 68.17l-31.755-31.755c29.019-33.268 51.298-77.285 90.503-99.635 9.948-5.671 21.223-12.099 37.127-28.003 20.845-20.845 34.089-46.974 54.255-68.256 22.115-23.339 49.498-39.63 72.573-61.775l18.54 20.808c-29.896 11.268-52.236 38.073-57.118 70.522zm-221.151 149.184c-3.609-15.99-5.616-32.577-5.86-49.585 10.074 8.179 20.544 15.574 28.537 20.946-8.434 10.738-16.866 21.44-22.677 28.639zm27.692-99.814 10.569-10.625c14.31 13.706 23.807 19.915 32.98 25.87-3.495 2.689-7.156 5.885-11.103 9.888-.555-.362-19.2-12.472-32.446-25.133zm227.1-156.865c-16.446 16.446-35.399 28.837-53.144 43.64-19.578 16.333-36.769 35.026-50.645 56.402-6.506 10.023-12.651 19.49-28.709 35.548-11.257 11.257-23.698 19.624-37.382 27.546-12.744-8.481-24.953-16.9-36.071-27.532l31.364-31.529c8.903 7.664 23.661 20.324 28.051 23.326l10.574-10.629c-14.034-9.6-26.556-22.071-39.394-33.194l-37.707 37.907c32.462-76.602 108.129-127.892 193.367-127.892 8.289 0 16.516.489 24.662 1.441zm-237.68 167.501c14.281 13.672 23.767 19.872 32.931 25.821-6.146 7.527-12.074 15.245-18.075 22.888-9.866-6.596-24.039-16.623-36.081-27.275zm.514 139.901 72.494 72.493c12.504-12.504 24.242-25.342 33.954-40.167 5.709 4.157 11.545 7.991 17.589 11.956 14.347 9.414 29.182 19.148 45.305 35.271 10.552 10.552 16.747 18.181 21.549 24.965-33.899-4.292-66.229-16.792-94.287-36.576l-8.644 12.26c33.508 23.625 72.698 37.563 113.567 40.43 3.273 4.923 7.047 10.208 12.379 16.513-94.229-1.374-175.535-57.084-213.906-137.145zm257.1 133.915 21.002-21.002c92.928-25.934 158.761-108.585 164.017-204.339 3.345-42.08-7.936-86.25-28.562-122.802-18.336-32.494-44.728-60.188-76.321-80.09l-7.994 12.691c27.879 17.562 50.644 40.834 67.227 67.778-31.28-32.306-71.385-69.356-119.661-60.986l-33.295-37.368c15.673 1.936 31.031 5.617 45.89 11.034l5.137-14.093c-24.66-8.989-50.59-13.547-77.07-13.547-102.082 0-191.349 68.671-217.477 167.129l-20.668 20.777c17.895-115.339 117.869-203.906 238.145-203.906 132.888 0 241 108.112 241 241 0 119.391-87.273 218.766-201.37 237.724z"/><path d="m341.925 64.544c4.235 1.915 8.465 4 12.569 6.198l7.08-13.224c-4.398-2.355-8.931-4.59-13.47-6.642z"/><path d="m249.811 396.937c-17.118-17.118-26.945-23.36-36.449-29.397-6.577-4.177-12.789-8.123-21.654-15.768l-9.796 11.36c9.695 8.359 16.666 12.788 23.408 17.069 9.224 5.859 17.936 11.393 33.885 27.342 2.053 2.054 5.49 5.49 7.632 7.716l10.808-10.402c-2.243-2.329-5.743-5.829-7.834-7.92z"/><path d="m256.071 426.22c3.726 4.704 6.517 8.784 8.532 11.813l12.488-8.309c-2.176-3.27-5.194-7.682-9.261-12.817z"/><path d="m231.343 325.633c4.08 3.148 8.193 5.894 12.76 8.901l8.249-12.528c-4.31-2.838-8.177-5.418-11.845-8.249z"/><path d="m163.248 209.174 10.735 10.477c3.54-3.627 7.011-7.293 10.46-11.008l-10.993-10.205c-.62.668-7.39 7.855-10.202 10.736z"/><path d="m182.566 187.403 11.876 9.163c3.148-4.08 5.894-8.193 8.901-12.76l-12.528-8.249c-2.838 4.311-5.419 8.177-8.249 11.846z"/><path d="m375.013 195.865c-29.016 0-52.622 23.606-52.622 52.622s23.606 52.622 52.622 52.622 52.622-23.606 52.622-52.622-23.606-52.622-52.622-52.622zm0 90.244c-20.745 0-37.622-16.877-37.622-37.622s16.877-37.622 37.622-37.622 37.622 16.877 37.622 37.622-16.877 37.622-37.622 37.622z"/><path d="m277.843 147.41 13.477 6.586c1.944-3.978 4.345-7.751 7.136-11.213l-11.678-9.414c-3.494 4.334-6.5 9.058-8.935 14.041z"/><path d="m298.677 121.694 9.25 11.809c3.502-2.744 7.293-5.055 11.268-6.869l-6.229-13.646c-5.049 2.304-9.856 5.234-14.289 8.706z"/><path d="m353.387 240.5h15v15.5h-15z"/></g></svg>