<svg id="Capa_1" enable-background="new 0 0 512 512" height="512" viewBox="0 0 512 512" width="512" xmlns="http://www.w3.org/2000/svg"><g><path d="m398.988 231.519c-14.469-11.72-32.421-3.507-49.781 4.438-2.337 1.069-4.714 2.157-7.119 3.219l-4.8-15.924c-4.255-14.114-1.363-29.799 8.582-41.617 11.423-15.587 24.52-23.035 24.52-41.3 0-17.037-12.851-31.121-29.366-33.092-1.145-36.884-31.486-66.542-68.644-66.542h-6.86c-4.142 0-7.5 3.357-7.5 7.5s3.358 7.5 7.5 7.5h6.86c28.804 0 52.377 22.799 53.638 51.298h-189.008c4.881-13.8 18.046-23.723 33.591-23.723 4.142 0 7.5-3.357 7.5-7.5s-3.358-7.5-7.5-7.5c-6.603 0-13.009 1.264-18.954 3.662-7.451-8.345-11.367-19.224-10.605-29.929.516-7.242 3.41-17.289 13.894-25.529.639.873 1.336 1.877 1.963 2.777 8.226 11.83 25.344 36.444 72.933 36.444 4.142 0 7.5-3.357 7.5-7.5s-3.358-7.5-7.5-7.5c-39.75 0-52.813-18.785-60.619-30.007-2.245-3.229-4.019-5.779-6.187-7.667-4.125-3.592-9.176-4.013-13.512-1.125-13.983 9.324-22.305 23.189-23.433 39.042-.981 13.788 3.601 27.717 12.482 38.745-8.734 7.131-14.843 16.985-17.331 28.013-15.121 3.157-26.515 16.588-26.515 32.632 0 7.842 2.812 15.437 7.828 21.463 19.013 22.843 16.394 18.222 22.554 28.799 4.972 10.027 6.038 21.649 2.72 32.656l-11.045 36.643c-4.799 15.92-5.001 32.747-.584 48.663 1.108 3.991 5.246 6.33 9.232 5.221 3.991-1.107 6.329-5.241 5.222-9.232-3.657-13.178-3.487-27.123.492-40.323l11.045-36.642c3.326-11.033 3.357-22.532.362-33.246h13.36c3.728 0 6.992 2.352 8.315 5.992 9.825 27.03 44.701 34.937 65.15 14.319 2.13-2.146 5.112-3.378 8.182-3.378h82.832c.089 5.452.926 10.937 2.546 16.312l11.045 36.643c5.966 19.794 3.204 41.261-7.579 58.897-10.759 17.598-28.556 29.813-48.828 33.513-28.544 5.209-61.438 5.217-90.022 0-16.574-3.025-31.101-11.367-42.011-24.125-2.692-3.147-7.427-3.516-10.574-.825-3.148 2.692-3.518 7.427-.825 10.575 17.998 21.044 38.401 27.76 62.14 30.931v15.807h-2.879c-13.724 0-24.889 11.165-24.889 24.889s11.165 24.889 24.889 24.889h2.879v19.148h-8.403c-21.273 0-38.58 17.306-38.58 38.579v4.766c0 5.917 4.813 10.73 10.73 10.73h145.068c5.916 0 10.73-4.813 10.73-10.73v-4.766c0-21.273-17.307-38.579-38.58-38.579h-8.407v-19.148h2.882c13.724 0 24.89-11.165 24.89-24.889s-11.165-24.889-24.89-24.889h-2.882v-15.807c3.864-.516 7.676-1.117 11.427-1.801 21.889-3.995 41.382-16.219 54.545-33.954 4.894 1.935 9.699 4.133 14.387 6.278 11.126 5.093 22.493 10.298 33.034 10.297 5.912 0 11.564-1.637 16.765-5.849 4.292-3.477 18.296-17.958 18.296-58.322-.002-40.363-14.005-54.843-18.298-58.32zm-98.171 264.985v.496h-136.528v-.496c0-13.002 10.578-23.58 23.58-23.58h89.368c13.002.001 23.58 10.578 23.58 23.58zm-46.986-38.579h-42.559v-19.148h42.559zm27.771-44.037c0 5.453-4.436 9.889-9.89 9.889h-78.319c-5.453 0-9.889-4.436-9.889-9.889s4.436-9.889 9.889-9.889c1.64 0 82.417 0 78.319 0 5.454-.001 9.89 4.436 9.89 9.889zm-27.771-24.89h-42.559v-14.264c14.116 1.063 28.16 1.084 42.559 0zm-35.114-184.913c-4.632 4.669-10.804 7.241-17.378 7.241-10.267 0-19.52-6.479-23.025-16.123-3.45-9.49-12.456-15.867-22.412-15.867h-19.892c-3.923-6.418-6.499-8.651-21.988-27.196-2.765-3.31-4.306-7.492-4.306-11.805 0-10.111 8.225-18.337 18.336-18.337h209.002c10.111 0 18.337 8.225 18.337 18.337 0 10.707-7.451 14.798-20.998 31.642-5.878 7.309-10.194 15.5-12.336 24.293h-84.508c-7.042-.001-13.906 2.848-18.832 7.815zm170.831 132.42c-9.23 7.477-25.924-3.421-46.775-12.027 18.183-36.321 4.004-68.169 3.673-70.843 3.071-1.333 6.072-2.697 9.003-4.038 16.651-7.619 27.204-12.007 34.098-6.422 7.499 6.075 12.738 25.265 12.738 46.665-.001 21.401-5.239 40.591-12.737 46.665z"/><path d="m272.195 98.046c4.142 0 7.5-3.357 7.5-7.5s-3.358-7.5-7.5-7.5h-1c-4.142 0-7.5 3.357-7.5 7.5s3.358 7.5 7.5 7.5z"/><path d="m208.241 65.02c-4.142 0-7.5 3.357-7.5 7.5s3.358 7.5 7.5 7.5h1c4.142 0 7.5-3.357 7.5-7.5s-3.358-7.5-7.5-7.5z"/></g></svg>