<svg id="icons" xmlns="http://www.w3.org/2000/svg" viewBox="0 0 64 64"><defs><style>.cls-1{fill:none;stroke:#000;stroke-linecap:round;stroke-linejoin:round;stroke-width:2px;}</style></defs><title>11</title><g id="tea_2"><line class="cls-1" x1="15.78916" y1="27.50794" x2="14.99072" y2="17.06169"/><line class="cls-1" x1="49.01312" y1="17.06169" x2="48.21468" y2="27.50794"/><path class="cls-1" d="M17.45257,49.4983l.72052,9.47683A1.109,1.109,0,0,0,19.27885,60H44.7139a1.10894,1.10894,0,0,0,1.10575-1.02487l.72052-9.47683"/><rect class="cls-1" x="12.85218" y="10.52909" width="38.29564" height="6.52909" rx="1"/><path class="cls-1" d="M47.821,10.52909H16.179l3.01833-5.92361A1.10894,1.10894,0,0,1,20.18543,4H43.81457a1.10894,1.10894,0,0,1,.98807.60548Z"/><path class="cls-1" d="M14.074,27.5052H49.926a1.10894,1.10894,0,0,1,1.10375,1.21614l-1.92107,19.7805a1.10894,1.10894,0,0,1-1.10375,1.00175H15.99511a1.10894,1.10894,0,0,1-1.10375-1.00175l-1.92107-19.7805A1.10894,1.10894,0,0,1,14.074,27.5052Z"/><line class="cls-1" x1="23.08003" y1="17.06169" x2="23.08003" y2="33.44401"/><path class="cls-1" d="M23.01713,33.444h.1258a4.14443,4.14443,0,0,1,4.14443,4.14443v5.10528a1,1,0,0,1-1,1H19.87269a1,1,0,0,1-1-1V37.58844A4.14444,4.14444,0,0,1,23.01713,33.444Z"/></g></svg>