<svg id="Capa_1" enable-background="new 0 0 512 512" height="512" viewBox="0 0 512 512" width="512" xmlns="http://www.w3.org/2000/svg"><g><path d="m111.577 63.049-8.999-12.001c-4.032 3.023-8.025 6.206-11.869 9.459l9.69 11.449c3.62-3.063 7.381-6.06 11.178-8.907z"/><path d="m437.02 74.98c-48.353-48.351-112.64-74.98-181.02-74.98-49.707 0-97.91 14.263-139.398 41.246l8.179 12.574c39.047-25.396 84.422-38.82 131.219-38.82 132.888 0 241 108.112 241 241s-108.112 241-241 241-241-108.112-241-241c0-66.184 26.286-127.898 74.016-173.774l-10.394-10.815c-24.593 23.638-43.932 51.416-57.48 82.562-14.029 32.248-21.142 66.575-21.142 102.027 0 68.38 26.629 132.667 74.98 181.02 48.353 48.351 112.64 74.98 181.02 74.98s132.667-26.629 181.02-74.98c48.351-48.353 74.98-112.64 74.98-181.02s-26.629-132.667-74.98-181.02z"/><path d="m256 466c-53.652 0-104.719-20.226-143.793-56.951l-10.273 10.93c41.866 39.35 96.581 61.021 154.066 61.021 69.012 0 133.248-31.021 176.236-85.108l-11.743-9.333c-40.126 50.486-100.081 79.441-164.493 79.441z"/><path d="m428.136 136.446c2.853 3.98 5.394 8.156 7.995 12.302l12.709-7.968c-2.716-4.33-5.378-8.685-8.352-12.846z"/><path d="m462.991 168.724c-1.92-4.808-4.204-9.636-6.626-14.22l-13.355 6.828c.906 1.709 5.005 10.336 6.053 12.958z"/><path d="m398.652 99.905c-1.279-12.934-8.201-24.479-18.99-31.674-42.548-28.376-94.185-41.37-145.394-36.578-51.889 4.852-100.795 27.853-137.708 64.766s-59.914 85.818-64.766 137.708c-4.788 51.211 8.203 102.846 36.579 145.394 7.196 10.789 21.126 19.205 36 19.205 11.466-.001 22.45-4.513 30.654-12.717l46.216-46.216c.962.9 1.941 1.788 2.943 2.662 29.088 25.34 69.978 34.062 106.894 22.906 16.887-5.103 35.1-23.587 52.3-11.224 14.422 10.367 25.763 19.337 44.661 19.337 48.775 0 77.677-57.563 48.449-96.596-11.999-16.024-28.645-29.517-42.759-43.63l-10.606 10.606c25.216 25.216 73.342 61.271 38.565 99.637-10.681 11.783-26.948 17.222-42.584 14.11-13.089-2.605-19.488-11.384-30.001-17.907-25.73-15.965-51.313 11.022-77.016 14.72-56.212 8.089-108.636-35.579-111.341-92.199-2.704-56.613 44.86-105.042 101.607-102.69 39.402 1.634 63.357 26.918 89.184 52.746l10.606-10.606c-7.129-7.129-14.239-14.279-21.384-21.393l45.384-45.384c9.236-9.236 13.793-21.985 12.507-34.983zm-68.55 69.814-.345.345c-33.221-27.247-80.558-33.112-119.454-14.811-66.451 31.265-83.74 118.812-39.293 173.558l-23.401 23.401c-.532-7.052-2.793-14.071-6.862-20.439-34.667-54.25-26.735-126.716 18.858-172.311 45.594-45.595 118.062-53.524 172.311-18.858 6.368 4.069 13.387 6.33 20.439 6.862zm-209.642 156.677c-4.579 11.521-18.951 11.346-25.69 1.398-5.661-8.357-10.233-18.996-12.747-28.635-3.045-11.675-2.782-23.649-1.536-35.549 1.176-11.236 13.419-22.933 23.779-13.911-1.303 26.55 4.325 53.096 16.194 76.697zm-11.234-169.419c4.139-9.938 10.991-20.153 18.352-27.843 8.058-8.419 18.384-15.173 28.968-20.083 10.632-4.932 28.463 2.935 22.45 16.495-10.867 6.467-20.965 14.278-29.996 23.31-8.549 8.549-16.011 18.051-22.269 28.259-12.876 4.863-22.426-8.321-17.505-20.138zm154.831-76.938c11.916-1.247 23.847-1.458 35.549 1.536 9.62 2.461 20.313 7.105 28.636 12.748 10.115 6.857 10.001 21.648-1.902 25.893-23.397-11.723-49.677-17.318-75.979-16.119-9.596-10.353 2.428-22.879 13.696-24.058zm111.485 44.239c-9.239 9.241-23.342 10.892-34.646 4.212 10.656-9.66 13.797-26.44 4.185-39.156-8.611-11.391-29.302-19.166-42.346-22.441-14.693-3.689-35.917-5.214-50.793.126-15.776 5.663-22.879 24.009-17.544 38.649-13.86 2.11-27.333 6.12-40.028 11.855-2.228-14.777-16.289-27.57-32.304-25.885-13.756 1.448-30.367 13.341-40.207 22.184-11.435 10.275-21.663 24.726-27.367 39.199-7.169 18.192 5.153 37.537 23.896 39.646-6.073 13.052-10.316 26.949-12.527 41.266-11.33-4.03-25.07-1.125-33.135 8.341-7.69 9.025-7.738 21.971-8.16 33.273-.888 23.779 11.019 74.99 42.764 74.99 8.286 0 15.931-3.796 21.337-9.725 6.639 11.295 4.976 25.364-4.246 34.587-6.042 6.042-14.387 9.027-22.896 8.183-8.445-.835-15.979-5.35-20.672-12.386-55.143-82.682-44.076-193.782 26.314-264.172 40.415-40.415 94.247-61.273 148.418-61.273 40.178 0 80.545 11.477 115.755 34.958 7.036 4.692 11.55 12.227 12.385 20.671.842 8.511-2.141 16.856-8.183 22.898z"/><path d="m365.255 215.374h15v15h-15z" transform="matrix(.707 -.707 .707 .707 -48.418 328.856)"/><path d="m197.063 287.371c-2.095-3.959-3.794-8.155-5.051-12.47l-14.401 4.195c1.541 5.289 3.625 10.433 6.194 15.289z"/><path d="m174.843 246.45c-.625 5.45-.708 10.987-.245 16.459l14.946-1.265c-.379-4.483-.312-9.02.201-13.484z"/></g></svg>