<svg id="icons" xmlns="http://www.w3.org/2000/svg" viewBox="0 0 64 64"><defs><style>.cls-1{fill:none;stroke:#000;stroke-linecap:round;stroke-linejoin:round;stroke-width:2px;}</style></defs><title>46</title><g id="syrip"><path class="cls-1" d="M41.5532,19.09359V29.70552a5.512,5.512,0,0,0,1.61443,3.89756l2.1327,2.1327a5.512,5.512,0,0,1,1.61442,3.89757V57.79521A2.20479,2.20479,0,0,1,44.71,60H24.94609a2.20479,2.20479,0,0,1-2.20479-2.20479V39.63335a5.512,5.512,0,0,1,1.61442-3.89757l2.1327-2.1327a5.512,5.512,0,0,0,1.61442-3.89756V19.09359a2.20479,2.20479,0,0,1,2.20479-2.20479h9.04078A2.20479,2.20479,0,0,1,41.5532,19.09359Z"/><path class="cls-1" d="M28.10284,25.003l2.2244,1.53872a4.11112,4.11112,0,0,0,4.68807.08419h0a4.1314,4.1314,0,0,1,4.93506.2669l1.60282,1.26568"/><rect class="cls-1" x="32.76736" y="9.14704" width="4.40477" height="7.74176"/><rect class="cls-1" x="29.71236" y="4" width="10.17377" height="5.14704" rx="2.33448"/><path class="cls-1" d="M29.71236,6.57352H23.167c-3.108,0-3.884,1.23467-6.08172,3.43239"/><line class="cls-1" x1="22.7413" y1="55.99095" x2="46.91475" y2="55.99095"/></g></svg>