<svg id="icons" xmlns="http://www.w3.org/2000/svg" viewBox="0 0 64 64"><defs><style>.cls-1{fill:none;stroke:#000;stroke-linecap:round;stroke-linejoin:round;stroke-width:2px;}</style></defs><title>48</title><g id="press"><path class="cls-1" d="M4.04025,41.16452h20.8332V51.72026a3.47326,3.47326,0,0,1-3.36813,3.56961H7.40838a3.47326,3.47326,0,0,1-3.36813-3.56961Z"/><rect class="cls-1" x="11.27431" y="55.28987" width="6.36506" height="3.21418"/><rect class="cls-1" x="24.87345" y="46.15158" width="8.26131" height="4.15123"/><path class="cls-1" d="M33.13476,51.49269l20.79206,2.216a5.34128,5.34128,0,0,0,6.03293-5.4815h0a5.34128,5.34128,0,0,0-6.03293-5.4815l-20.79206,2.216Z"/><path class="cls-1" d="M5.44481,32.27347H23.40338a0,0,0,0,1,0,0v3.268a1,1,0,0,1-1,1H6.44481a1,1,0,0,1-1-1v-3.268A0,0,0,0,1,5.44481,32.27347Z"/><polyline class="cls-1" points="23.403 32.273 17.574 25.546 11.274 25.546 5.445 32.273"/><path class="cls-1" d="M17.57329,25.546l2.8098-11.97066C21.34682,9.46952,18.416,5.496,14.42381,5.496h0c-3.99214,0-6.923,3.97357-5.95927,8.07939L11.27431,25.546"/></g></svg>