<svg id="Capa_1" enable-background="new 0 0 510.009 510.009" height="512" viewBox="0 0 510.009 510.009" width="512" xmlns="http://www.w3.org/2000/svg"><g><path d="m187.415 263.789-11.429 9.715c3.155 3.712 6.781 7.322 11.411 11.36l9.859-11.305c-4.053-3.536-7.181-6.641-9.841-9.77z"/><path d="m172.697 240.414-13.805 5.868c1.929 4.538 4.392 9.205 7.53 14.265l12.748-7.904c-2.73-4.403-4.847-8.403-6.473-12.229z"/><path d="m299.505 194.51h14.999v15h-14.999z"/><path d="m360.505 194.51v-15.009c0-29.414-11.764-73.396-29.274-109.444-21.944-45.177-48.793-70.057-75.601-70.057s-53.657 24.88-75.601 70.057c-17.51 36.048-29.274 80.03-29.274 109.444v15.009h-30.75c0 60.332 28.905 115.227 88.775 135.161 13.056 58.643 1.399 114.485-36.775 162.208v18.13h165v-18.132c-38.023-47.524-49.881-102.791-37.368-161.21 30.837-9.213 57.546-29.232 73.278-57.499 13.547-24.342 17.09-51.216 17.09-78.658zm-42.767-117.9c9.363 19.275 17.102 41.385 22.012 61.82l-32.366-10.312c-.059-4.937-.316-9.686-.38-13.721-.384-24.36-15.297-46.124-38.862-52.453l10.242-17.349-18.079-29.197c19.181 3.109 39.853 25.019 57.433 61.212zm-25.733 65.391c0 9.847-12.975 9.549-15 0-2.549-12.019 1.188-21.881-8.657-32.422-7.559-10.562-6.343-21.474-6.343-33.708 29.683 6.089 32 29.639 30 66.13zm28.298 353.008h-131.6c34.693-44.013 48.554-102.267 37.495-157.206h56.26c-10.961 54.987 3.03 113.254 37.845 157.206zm-18.634-180.464c-46.252 16.199-102.472 6.831-136.198-30.09-18.707-20.48-28.803-47.401-30.269-74.945h149.302v-15h-118.75v-15.009c0-26.923 11.418-69.233 27.767-102.891 15.435-31.777 33.254-52.553 50.353-59.255l16.75 27.052-10.732 18.926c-2.92 3.387-2.888 9.346-2.888 16.178 0 10.223-.626 19.98 3.723 29.574 2.592 5.717 7.724 10.31 10.029 16.01 1.747 4.319 1.182 9.059 1.248 13.597.193 13.35 7.494 25.809 22.5 25.809 14.598 0 20.059-9.433 21.959-20.933l36.745 11.707c1.485 8.856 2.295 17.086 2.295 24.226v15.009h-16v15h45.331c-2.144 46.966-27.693 89.109-73.165 105.035z"/><path d="m254.505 464.01h15v15h-15z"/></g></svg>