<svg id="icons" xmlns="http://www.w3.org/2000/svg" viewBox="0 0 64 64"><defs><style>.cls-1{fill:none;stroke:#000;stroke-linecap:round;stroke-linejoin:round;stroke-width:2px;}</style></defs><title>39</title><g id="tea_mug"><path class="cls-1" d="M10.44384,21.18319h31.623a1,1,0,0,1,1,1V55a5,5,0,0,1-5,5h-23.623a5,5,0,0,1-5-5V22.18319A1,1,0,0,1,10.44384,21.18319Z"/><path class="cls-1" d="M49.81415,52.35252h-6.7473V47.7067h3.287c1.96421,0,3.55651-.4068,3.55651-2.371V35.8475c0-1.96421-1.5923-2.371-3.55651-2.371h-3.287V28.83068h6.7473a4.742,4.742,0,0,1,4.742,4.742V47.61051A4.742,4.742,0,0,1,49.81415,52.35252Z"/><path class="cls-1" d="M28.11193,4l-.94136,1.07589a5.0346,5.0346,0,0,0-1.15538,4.711,5.24784,5.24784,0,0,0,.22929.61614h0a5.24718,5.24718,0,0,1,.22929.61614,5.0346,5.0346,0,0,1-1.15538,4.711L24.377,16.806"/><path class="cls-1" d="M22.19866,5.4958l-.73461.83956a3.8185,3.8185,0,0,0-1.00578,2.98725,4.01953,4.01953,0,0,0,.3092,1.08038h0a4.01953,4.01953,0,0,1,.3092,1.08038,3.81849,3.81849,0,0,1-1.00578,2.98724l-.73462.83957"/><path class="cls-1" d="M33.17441,5.4958l-.73462.83956A3.81857,3.81857,0,0,0,31.434,9.32261a4.01955,4.01955,0,0,0,.30921,1.08038h0a4.01953,4.01953,0,0,1,.3092,1.08038,3.81856,3.81856,0,0,1-1.00578,2.98724l-.73462.83957"/><line class="cls-1" x1="26.33627" y1="21.18319" x2="26.33627" y2="28.22366"/><path class="cls-1" d="M25.4929,28.22366h1.68674a4.14443,4.14443,0,0,1,4.14443,4.14443v7.00663a1,1,0,0,1-1,1H22.34847a1,1,0,0,1-1-1V32.3681a4.14444,4.14444,0,0,1,4.14444-4.14444Z"/></g></svg>