<?xml version="1.0" encoding="UTF-8"?><svg id="Line" xmlns="http://www.w3.org/2000/svg" viewBox="0 0 64 64"><path d="M32,55.9917c-6.31348,0-12.62695-1.27686-19.58105-3.83008-2.43311-.89355-4.2998-2.83691-4.87207-5.07129L3.52734,26.39014c-.15771-.81299.37354-1.60059,1.18701-1.7583.81055-.15674,1.60059.37402,1.7583,1.18701l4,20.61377c.30615,1.18604,1.48389,2.36328,2.98047,2.9126,13.3457,4.90039,23.74609,4.90039,37.09375,0,1.4707-.54004,2.63379-1.68652,2.98242-2.93359l1.83887-12.13623c.12354-.81982.88965-1.38428,1.70752-1.2583.81934.12402,1.38232.88867,1.2583,1.70752l-1.85107,12.21826c-.00732.0498-.01758.09863-.02979.14746-.57227,2.23438-2.43896,4.17773-4.87207,5.07129-6.9541,2.55322-13.26758,3.83008-19.58105,3.83008Z" style="fill:#293a4c; stroke-width:0px;"/><path d="M32,56c-.82861,0-1.5-.67139-1.5-1.5v-18.62793c0-.82861.67139-1.5,1.5-1.5s1.5.67139,1.5,1.5v18.62793c0,.82861-.67139,1.5-1.5,1.5Z" style="fill:#293a4c; stroke-width:0px;"/><path d="M23.64551,55.23779c-.7832,0-1.44238-.60742-1.49512-1.40039l-.41504-6.23779c-.05518-.82666.57031-1.5415,1.39697-1.59619.82764-.05811,1.54102.5708,1.59619,1.39697l.41504,6.23779c.05518.82666-.57031,1.5415-1.39697,1.59619-.03369.00244-.06787.00342-.10107.00342Z" style="fill:#293a4c; stroke-width:0px;"/><path d="M23.03516,43.06494c-.7832,0-1.44238-.60742-1.49512-1.40039l-.50635-7.60791c-.05518-.82666.57031-1.5415,1.39697-1.59619.83301-.05762,1.54102.57031,1.59619,1.39697l.50635,7.60791c.05518.82666-.57031,1.5415-1.39697,1.59619-.03369.00244-.06787.00342-.10107.00342Z" style="fill:#293a4c; stroke-width:0px;"/><path d="M16.03467,53.31934c-.73291,0-1.37402-.5376-1.48242-1.28467l-2.88184-19.85938c-.11914-.81982.44922-1.58105,1.26904-1.69971.8125-.12402,1.58057.44873,1.69971,1.26904l2.88184,19.85938c.11914.81982-.44922,1.58105-1.26904,1.69971-.07275.01074-.14551.01562-.21729.01562Z" style="fill:#293a4c; stroke-width:0px;"/><path d="M40.70312,50c-.02686,0-.05371-.00049-.08057-.00195-.82715-.04395-1.4624-.75-1.41895-1.57715l.76807-14.54297c.04346-.82764.75098-1.46436,1.57715-1.41895.82715.04395,1.4624.75,1.41895,1.57715l-.76807,14.54297c-.04248.80029-.70459,1.4209-1.49658,1.4209Z" style="fill:#293a4c; stroke-width:0px;"/><path d="M47.96533,53.31934c-.07178,0-.14453-.00488-.21729-.01562-.81982-.11865-1.38818-.87988-1.26904-1.69971l2.88184-19.85938c.11865-.82031.88281-1.3916,1.69971-1.26904.81982.11865,1.38818.87988,1.26904,1.69971l-2.88184,19.85938c-.1084.74707-.74951,1.28467-1.48242,1.28467Z" style="fill:#293a4c; stroke-width:0px;"/><path d="M32,37.37988c-2.03467,0-4.06836-.36914-5.69043-1.10791-1.38867-.63184-3.39307-.93018-5.36914-.7998-4.01855.2666-8.65088-.94385-9.70703-3.77832-.13623-.36621-.97412-1.07031-2.72168-1.50684-2.67139-.66699-4.45898-2.00635-4.90381-3.6748-.32129-1.20361.06738-2.41113,1.09375-3.39941.19385-.18701.28125-.34912.28125-.42676s-.0874-.23975-.28125-.42725c-1.02637-.98779-1.41504-2.19531-1.09375-3.39893.44482-1.66846,2.23242-3.00781,4.90381-3.6748,1.74756-.43652,2.58545-1.14062,2.72217-1.50732,1.05518-2.83398,5.68359-4.04834,9.70654-3.77734,1.97461.12793,3.98096-.16797,5.36914-.80029,3.24414-1.47754,8.13721-1.47754,11.38135,0,1.38818.63184,3.39404.92773,5.36865.80029,4.01953-.27539,8.65088.94336,9.70703,3.77734.13672.36719.97412,1.0708,2.72168,1.50732,2.67139.66699,4.45898,2.00635,4.90381,3.6748.32129,1.20361-.06689,2.41064-1.09375,3.39893h0c-.19385.1875-.28125.34961-.28125.42725s.0874.23975.28125.42725c1.02637.98779,1.41504,2.19531,1.09375,3.39893-.44482,1.66846-2.23242,3.00781-4.90381,3.6748-1.74756.43652-2.58496,1.14014-2.72119,1.50684-1.05664,2.83398-5.68457,4.04736-9.70752,3.77832-1.97314-.1333-3.97998.16699-5.36865.7998-1.62207.73828-3.65674,1.10791-5.69092,1.10791ZM21.86865,32.44141c2.09326,0,4.11719.38672,5.68408,1.1001,2.41016,1.09766,6.48389,1.09766,8.89502,0,1.84668-.84131,4.3291-1.229,6.81104-1.0625,3.85791.25049,6.4082-1.05713,6.69727-1.83252.57422-1.54248,2.28076-2.73926,4.80566-3.36963,1.81201-.45312,2.63721-1.18408,2.73193-1.53857.03906-.14648-.20166-.39258-.27637-.46436-.9917-.95557-1.2002-1.93457-1.2002-2.58789s.2085-1.63232,1.2002-2.5874v-.00049c.07471-.07178.31543-.31787.27637-.46436-.09473-.35449-.91992-1.08545-2.73193-1.53857-2.5249-.63037-4.23145-1.82715-4.80615-3.37012-.28857-.77539-2.84473-2.08789-6.69678-1.83154-2.47852.16553-4.96436-.22217-6.81104-1.06299-2.41113-1.09766-6.48389-1.09766-8.89502,0-1.84619.84033-4.33008,1.22607-6.81152,1.06299-3.8501-.25146-6.40723,1.05615-6.69629,1.83154-.5752,1.54297-2.28223,2.73975-4.80664,3.37012-1.81201.45312-2.63721,1.18408-2.73193,1.53857-.03906.14648.20166.39258.27637.46436.9917.95557,1.2002,1.93457,1.2002,2.58789s-.2085,1.63232-1.2002,2.5874c-.07471.07227-.31543.31836-.27637.46484.09473.35449.91992,1.08545,2.73193,1.53857,2.52441.63037,4.23145,1.82715,4.80615,3.36963.28955.77588,2.8418,2.0874,6.69678,1.83252.37646-.02539.75342-.0376,1.12744-.0376Z" style="fill:#293a4c; stroke-width:0px;"/><path d="M32,30.53467c-8.78418,0-18.12012-2.81689-18.12012-8.03711s9.33594-8.03711,18.12012-8.03711,18.12012,2.81689,18.12012,8.03711-9.33594,8.03711-18.12012,8.03711ZM32,17.46045c-9.22998,0-15.12012,2.9834-15.12012,5.03711s5.89014,5.03711,15.12012,5.03711,15.12012-2.9834,15.12012-5.03711-5.89014-5.03711-15.12012-5.03711Z" style="fill:#293a4c; stroke-width:0px;"/></svg>