<?xml version="1.0" encoding="UTF-8"?><svg id="Line" xmlns="http://www.w3.org/2000/svg" viewBox="0 0 64 64"><path d="M25.20703,60.49902c-1.69824,0-3.45508-.29443-5.30469-1.21631-2.55469-1.28174-4.07715-2.55371-5.62109-4.69482-.2207-.30664-.55859-.70508-.92578-1.14062-.93066-1.10596-1.89258-2.24951-2.29102-3.23486-1.66016-4.06152-1.23535-8.81592,1.23047-13.74365.4209-.83984.90039-1.57471,1.46582-2.24512.53418-.63232,1.48047-.71436,2.11328-.18018.63379.53418.71387,1.48047.17969,2.11377-.41016.4873-.7627,1.02832-1.0752,1.6543-2.09766,4.18994-2.47949,7.98242-1.13477,11.27148.22168.54785,1.17578,1.68213,1.80762,2.43213.42285.50293.80859.96484,1.06348,1.31836,1.26172,1.74951,2.40527,2.7002,4.5293,3.76611,2.63965,1.31592,5.0918.92383,7.93555.46826,1.10547-.17725,2.25-.36035,3.46582-.45312,3.07031-.2373,5.35254-2.17236,7.39941-6.27441.37109-.73877.67676-1.51025.91113-2.29736.23535-.79395,1.07129-1.24658,1.86523-1.00977.79395.23584,1.24609,1.07129,1.00977,1.86523-.28418.95557-.65527,1.89258-1.10352,2.78516-1.59473,3.19531-4.35254,7.49707-9.85254,7.92236-1.09375.0835-2.1748.25635-3.2207.42432-1.45117.23242-2.92578.46875-4.44727.46875Z" style="fill:#293a4c; stroke-width:0px;"/><path d="M20.51172,37.50049c-3.5791,0-8.66602-.5459-11.50391-5.26758-.5625-.93848-1.20117-1.82617-1.81836-2.68457-1.81348-2.52246-3.68945-5.13135-3.68945-9.04834,0-2.84131.45508-4.77148,1.68066-7.12256.17578-.33594.38184-.81396.6084-1.33496.57715-1.3252,1.17285-2.69531,1.8623-3.4873,2.89258-3.30811,7.33887-5.05518,12.86035-5.05518,3.96191,0,6.7002,1.85205,9.61914,4.08984.40918.31641.83789.61816,1.27051.92236.93848.66064,1.9082,1.34326,2.75293,2.19434.58398.58789.58008,1.5376-.00781,2.12109-.58691.58398-1.53809.57959-2.12109-.00781-.6582-.66309-1.48047-1.2417-2.35059-1.85449-.46973-.33057-.93555-.65869-1.375-.99854-2.55957-1.9624-4.76172-3.4668-7.78809-3.4668-4.69629,0-8.2627,1.35498-10.59961,4.02734-.38379.44141-.97852,1.80811-1.37207,2.7124-.26074.59717-.5,1.14355-.7002,1.52588-1.00098,1.92236-1.33984,3.36963-1.33984,5.73438,0,2.9502,1.44824,4.96484,3.12598,7.29688.65234.90869,1.32812,1.84766,1.9541,2.89209,1.58398,2.63574,4.33887,3.81152,8.93164,3.81152,2.49902,0,4.94434-.66455,7.07129-1.92188.71582-.41992,1.63379-.18506,2.05469.52832.42188.71338.18555,1.63281-.52832,2.05469-2.58887,1.53027-5.56152,2.33887-8.59766,2.33887Z" style="fill:#293a4c; stroke-width:0px;"/><path d="M17.78906,17.49854c-2.1416,0-3.19043-1.38574-3.98047-2.96387-.4043-.80811-.76367-2.43701,1.37109-4.26562.89648-.76758,1.87305-1.26416,1.98145-1.31836,1.02148-.50977,3.28906-.83936,5.30469,1.17334,1.51172,1.51123,1.45215,2.94727,1.28223,3.66846-.34082,1.44385-1.63965,2.60889-3.65625,3.28076-.88574.29492-1.64551.42529-2.30273.42529ZM16.51855,13.24658c.61133,1.21924.82031,1.58154,2.62598.97998,1.21777-.40576,1.63379-.91211,1.68359-1.12305.04395-.18701-.14062-.51562-.4834-.85742-.90918-.9082-1.69043-.67041-1.86719-.59961-.8877.4541-1.81836,1.21777-1.95898,1.6001ZM17.83105,10.29248h.00977-.00977Z" style="fill:#293a4c; stroke-width:0px;"/><path d="M16.95508,30.12695c-1.42676,0-2.84863-.78467-4.02832-2.22998-2.55957-3.13525-1.02832-5.16699.80664-6.74121,2.57324-2.20801,6.17285.8667,6.5752,1.22461.83691.74561,1.9873,2.84521.34961,5.45654-.86914,1.38672-2.09863,2.19727-3.46094,2.28223-.08008.00488-.16113.00781-.24219.00781ZM15.91699,23.36865c-.10059,0-.17969.02051-.23047.06445-1.37695,1.18115-1.41016,1.37305-.43555,2.56641.60156.73584,1.25977,1.15381,1.75977,1.12549.47559-.02979.86426-.49609,1.10645-.88184.60742-.96875.33105-1.46631.16895-1.646-.80176-.69727-1.86035-1.22852-2.36914-1.22852Z" style="fill:#293a4c; stroke-width:0px;"/><path d="M23.47852,54.06396c-1.90234,0-2.98926-1.43701-3.80957-2.97607-1.5957-2.99561,2.19531-5.8335,2.63281-6.14697.91016-.65381,3.21094-1.31348,5.40137.84912,1.16504,1.15088,1.68848,2.52686,1.47363,3.87451-.2373,1.4917-1.33887,2.79883-3.10352,3.68164-1.00684.50391-1.86133.71777-2.59473.71777ZM24.02148,47.39941c-1.02441.75342-1.89746,1.91602-1.7041,2.27832.85352,1.60352,1.03516,1.67383,2.41406.98584.84961-.42529,1.4043-.9751,1.48242-1.47021.0752-.46973-.29492-.94922-.61914-1.26904-.81445-.80469-1.36035-.64453-1.57324-.5249ZM24.00684,47.40771h0ZM23.17578,46.15967h.00977-.00977Z" style="fill:#293a4c; stroke-width:0px;"/><circle cx="24.50196" cy="20.51234" r="1.51275" style="fill:#293a4c; stroke-width:0px;"/><circle cx="33.53291" cy="47.51258" r="1.51275" style="fill:#293a4c; stroke-width:0px;"/><circle cx="20.52347" cy="40.51252" r="1.51275" style="fill:#293a4c; stroke-width:0px;"/><circle cx="11.00436" cy="17.21153" r="1.51275" style="fill:#293a4c; stroke-width:0px;"/><path d="M41.18164,44.92432c-1.69824,0-3.4541-.29492-5.30371-1.21875-2.5498-1.27393-4.07324-2.54541-5.62207-4.69043-.22168-.30762-.56152-.7085-.92969-1.14746-.92871-1.104-1.88867-2.24561-2.28711-3.21924-1.66211-4.06494-1.23633-8.81982,1.23047-13.75098,1.77734-3.55127,4.78125-5.22705,7.96387-6.76611.45605-.22021.91406-.46729,1.375-.71631,1.63184-.87939,3.48145-1.87598,5.56836-1.91504,2.72461-.06055,5.46289.56885,7.91504,1.79443h.00098c4.06348,2.03076,7.09375,5.52148,8.53027,9.82959,1.4375,4.30811,1.11035,8.91748-.92188,12.97949-1.60156,3.19971-4.36523,7.50293-9.85547,7.92529-1.09082.0835-2.1709.25732-3.21484.42529-1.45117.2334-2.92676.47021-4.44922.47021ZM43.50488,14.49658c-.08984,0-.18066.00098-.27148.00244-1.36035.02588-2.74023.76953-4.20117,1.55713-.50098.27002-.99805.53711-1.49219.77637-2.90137,1.40234-5.22754,2.69141-6.58691,5.40723-2.09863,4.19385-2.48145,7.98682-1.1377,11.27295.21973.53809,1.1748,1.67334,1.80664,2.42432.42383.50488.81152.96875,1.06738,1.32275,1.26465,1.75244,2.40723,2.70215,4.5293,3.76221,2.64355,1.32031,5.0957.92676,7.93652.47021,1.10449-.17773,2.24609-.36133,3.45996-.45459,3.06543-.23584,5.34863-2.17139,7.40234-6.27686,1.67383-3.34424,1.94336-7.14014.75977-10.6875s-3.67871-6.42236-7.02637-8.09521c-1.96777-.9834-4.06836-1.48145-6.24609-1.48145Z" style="fill:#293a4c; stroke-width:0px;"/><path d="M41.35742,26.61914c-1.97852,0-3.22363-1.12012-4.33691-2.78174-.46191-.68945-.60449-1.48633-.41113-2.3042.50293-2.13135,3.29102-3.81006,3.84473-4.125h0c1.10156-.62646,3.62695-1.17871,6.12012.71973,1.89551,1.44287,2,2.9834,1.89453,3.77295-.21875,1.63086-1.63477,3.05273-3.98535,4.00293-1.22266.49414-2.24707.71533-3.12598.71533ZM41.91992,20.02588c-1.16992.67432-2.35254,1.76611-2.39355,2.2124.86816,1.24414,1.31445,1.90381,3.83203.88428,1.60547-.64893,2.09961-1.34375,2.13672-1.62061.03223-.23828-.25098-.61621-.73828-.9873-1.45703-1.11035-2.66406-.57568-2.83691-.48877Z" style="fill:#293a4c; stroke-width:0px;"/><path d="M49.02637,37.51074c-2.1709.00049-4.2334-2.01611-4.52344-2.31055-.78613-.79883-1.79492-2.96875.00586-5.46826.9541-1.32471,2.22949-2.05371,3.58984-2.05371h.01074c1.50977.00391,2.97168.89111,4.11621,2.49805,2.34668,3.29639.68848,5.22461-1.24316,6.67578-.63086.47363-1.29883.65869-1.95605.65869ZM46.6416,33.09619c.90332.9082,2.20215,1.6001,2.53906,1.35742,1.45117-1.09082,1.49609-1.28027.60156-2.5376-.55176-.77344-1.17969-1.23633-1.68066-1.23779h-.00293c-.47461,0-.89062.43896-1.15625.80762-.76855,1.06689-.31445,1.59619-.30078,1.61035Z" style="fill:#293a4c; stroke-width:0px;"/><circle cx="35.48671" cy="30.51221" r="1.51275" style="fill:#293a4c; stroke-width:0px;"/><circle cx="51.61396" cy="25.0357" r="1.51275" style="fill:#293a4c; stroke-width:0px;"/><path d="M41.32129,40.09131c-.03906,0-.07812-.00146-.11719-.00439-3.33984-.25684-4.70117-2.2041-4.97852-3.31396-.20117-.80371.28711-1.61816,1.09082-1.81934.78418-.19873,1.58008.26514,1.80371,1.03467.03906.09717.43848.96289,2.31445,1.10742.82617.06348,1.44434.78467,1.37988,1.61084-.06055.78662-.71777,1.38477-1.49316,1.38477Z" style="fill:#293a4c; stroke-width:0px;"/></svg>