<svg id="Capa_1" enable-background="new 0 0 512 512" height="512" viewBox="0 0 512 512" width="512" xmlns="http://www.w3.org/2000/svg"><g><path d="m494.87 308.178h-27.563v-6.169c0-5.436-2.635-10.576-7.049-13.753l-6.666-4.795 6.666-4.795c4.414-3.175 7.049-8.315 7.049-13.752v-6.418c0-8.137-6.619-14.756-14.756-14.756h-53.056c-8.858-1.723-40.88-46.45-54.209-61.616-3.331-3.79-6.518-7.725-9.834-11.453-2.754-3.095-7.493-3.372-10.589-.62-3.095 2.753-3.372 7.494-.62 10.589 2.159 2.427 4.289 4.893 6.4 7.377l-20.296 34.949-42.033-26.727 25.646-44.158c2.036 1.451 4.115 3.043 6.242 4.795 3.198 2.633 7.923 2.177 10.558-1.021 2.634-3.197 2.177-7.924-1.021-10.558-11.726-9.658-26.252-18.617-41.486-18.617h-69.343c-6.893 0-12.5 5.607-12.5 12.5v31.25c-28.645-28.515-74.626-45.097-109.166-33.076-21.192 7.374-33.347 23.068-32.512 41.981 1.013 22.946 21.124 43.858 48.905 50.854 20.208 5.093 34.356 13.235 44.523 25.625 10.274 12.521 16.538 29.715 19.084 52.362h-140.114c-9.445 0-17.13 7.685-17.13 17.131v11.449c0 5.655 2.791 10.941 7.468 14.143l40.285 27.533c6.601 4.504 14.301 6.885 22.267 6.885h60.54c4.142 0 7.5-3.357 7.5-7.5s-3.358-7.5-7.5-7.5h-60.54c-4.938 0-9.714-1.479-13.808-4.272l-40.276-27.527c-.586-.401-.936-1.06-.936-1.761v-11.449c0-1.175.956-2.131 2.13-2.131h477.74c1.175 0 2.13.956 2.13 2.131v11.449c0 .701-.35 1.359-.933 1.758l-40.275 27.527c-4.099 2.797-8.874 4.275-13.812 4.275h-276.42c-4.142 0-7.5 3.357-7.5 7.5s3.358 7.5 7.5 7.5h276.42c7.966 0 15.666-2.381 22.271-6.888l40.283-27.533c4.675-3.199 7.465-8.484 7.465-14.14v-11.449c.001-9.445-7.684-17.129-17.129-17.129zm-42.563-43.264c0 .622-.302 1.211-.807 1.574l-8.083 5.813c-7.613 5.481-7.615 16.84.002 22.319l8.079 5.812c.507.364.809.953.809 1.576v6.169h-33.869v-49.437h33.869zm-249.004 43.264 25.267-43.505 42.607 25.743-10.315 17.762zm-1.892-77.441v-59.262l46.697 29.691-24.843 42.774zm14.319 26.177-14.32 24.656v-33.309zm68.288 41.26 16.557 10.004h-22.367zm45.562 10.004-38.029-22.977 23.925-41.198 39.599 25.179-22.643 38.996zm38.163-30.941 35.694 22.696v8.245h-53.66zm31.666-18.497h4.028v23.417l-28.156-17.903 7.939-13.672c6.029 5.4 11.175 8.158 16.189 8.158zm-58.574-58.404c11.186 13.836 22.236 28.327 31.564 39.009l-9.786 16.853-39.598-25.178zm-38.027 35.612-24.097 41.494-42.606-25.742 24.67-42.478zm-34.554-94.266c3.906 0 8.153.973 12.714 2.905l-25.321 43.599-54.236-34.486v-12.018zm-81.843 51.82v51.032c-12.416-26.742-32.411-43.156-60.29-49.687-24.765-5.804-38.135-16.974-40.399-25.47-.435-1.63-1.756-6.589 4.974-12.874 5.965-5.563 14.836-8.553 24.811-6.897 27.321 4.536 54.978 21.413 70.904 43.896zm-89.109 22.143c-24.979-6.289-36.992-23.572-37.583-36.97-.406-9.207 4.243-17.129 13.002-22.665-2.509 5.483-3.06 11.353-1.493 17.23 4.299 16.129 23.541 29.665 51.472 36.21 38.665 9.06 58.86 40.523 63.222 98.728h-13.588c-5.397-52.193-28.74-80.867-75.032-92.533z"/></g></svg>