<svg id="Capa_1" enable-background="new 0 0 512 512" height="512" viewBox="0 0 512 512" width="512" xmlns="http://www.w3.org/2000/svg"><g><path d="m111.502 278.725c0 17.725 10.49 30.628 20.589 43.225 1.765 2.199 3.554 5.957 5.449 9.934 6.112 12.831 15.348 32.221 40.965 32.221 25.618 0 34.854-19.39 40.965-32.221 1.895-3.978 3.684-7.735 5.449-9.934 10.287-12.833 20.59-25.403 20.59-43.225 0-16.563-9.541-30.931-23.41-37.923 6.206-5.27 12.659-9.613 17.601-12.782 3.056-1.976 4.666-5.445 4.201-9.057-.463-3.598-2.889-6.537-6.298-7.658-10.575-3.528-22.439-4.762-35.292-3.679-3.507-12.027-10.159-21.906-19.347-28.69-2.646-1.954-6.258-1.955-8.906-.002-9.203 6.788-15.857 16.67-19.353 28.693-12.86-1.087-24.722.148-35.268 3.667-3.44 1.131-5.866 4.069-6.329 7.667-.465 3.611 1.144 7.081 4.223 9.071 4.927 3.16 11.376 7.501 17.58 12.769-13.869 6.994-23.409 21.361-23.409 37.924zm24.83-55.884c6.099-.753 12.656-.776 19.434-.043 5.884.625 11.381-3.201 12.787-8.908 1.365-5.557 4.177-12.891 9.954-18.954 5.772 6.063 8.588 13.395 9.953 18.926 1.383 5.724 6.879 9.569 12.795 8.935 6.77-.73 13.32-.708 19.422.046-5.185 3.801-10.722 8.323-15.785 13.479-2.282-.098-52.673-.004-52.774 0-5.064-5.158-10.603-9.682-15.786-13.481zm17.621 28.433h49.105c15.137 0 27.451 12.314 27.451 27.451 0 13.4-9.545 24.181-17.291 33.839-2.855 3.56-5.009 8.082-7.29 12.869-6.811 14.299-12.399 23.671-27.423 23.671s-20.612-9.373-27.423-23.671c-4.788-10.051-5.876-11.158-9.214-15.236-6.485-7.923-15.366-18.775-15.366-31.472 0-15.136 12.314-27.451 27.451-27.451z"/><path d="m178.505 322.156c4.142 0 7.5-3.358 7.5-7.5v-2.216c0-4.142-3.358-7.5-7.5-7.5s-7.5 3.358-7.5 7.5v2.216c0 4.142 3.358 7.5 7.5 7.5z"/><path d="m199.412 290.968c4.142 0 7.5-3.358 7.5-7.5v-2.215c0-4.142-3.358-7.5-7.5-7.5s-7.5 3.358-7.5 7.5v2.215c0 4.142 3.358 7.5 7.5 7.5z"/><path d="m157.599 290.968c4.142 0 7.5-3.358 7.5-7.5v-2.215c0-4.142-3.358-7.5-7.5-7.5s-7.5 3.358-7.5 7.5v2.215c0 4.142 3.358 7.5 7.5 7.5z"/><path d="m490.831 98.103c-12.707-10.612-30.255-16.457-49.414-16.457s-36.708 5.844-49.414 16.457c-13.849 11.566-21.169 27.68-21.169 46.6 0 22.368 10.464 46.287 27.31 62.424 7.038 6.742 11.074 16.119 11.074 25.727v165.302c0 17.755 14.444 32.199 32.199 32.199s32.2-14.444 32.2-32.199v-24.437c0-4.142-3.358-7.5-7.5-7.5s-7.5 3.358-7.5 7.5v24.437c0 9.484-7.716 17.199-17.2 17.199s-17.199-7.715-17.199-17.199v-165.303c0-13.677-5.722-27.002-15.698-36.559-13.781-13.202-22.686-33.453-22.686-51.592 0-23.92 17.187-48.056 55.583-48.056s55.583 24.136 55.583 48.056c0 18.14-8.905 38.391-22.686 51.592-9.976 9.556-15.698 22.881-15.698 36.559v105.866c0 4.142 3.358 7.5 7.5 7.5s7.5-3.358 7.5-7.5v-105.866c0-9.608 4.036-18.985 11.074-25.727 16.846-16.136 27.31-40.056 27.31-62.424 0-18.919-7.32-35.033-21.169-46.599z"/><path d="m349.511 96.618h-342.011c-4.142 0-7.5 3.358-7.5 7.5s3.358 7.5 7.5 7.5h18.52v13.382c0 12.408 9.754 22.579 21.998 23.252v35.457c0 4.142 3.358 7.5 7.5 7.5s7.5-3.358 7.5-7.5v-35.419h51.316l7.124 6.321c4.062 3.604 9.154 5.406 14.249 5.406 5.093 0 10.187-1.802 14.248-5.406l7.124-6.321h136.915v206.338c0 9.039-5.744 17.084-14.292 20.021l-7.182 2.467c-7.157 2.459-11.966 9.196-11.966 16.765v18.553c0 1.61-1.31 2.92-2.92 2.92h-158.257c-1.61 0-2.92-1.31-2.92-2.92v-18.553c0-7.568-4.809-14.306-11.967-16.765l-7.18-2.467c-8.548-2.937-14.292-10.983-14.292-20.021v-135.919c0-4.142-3.358-7.5-7.5-7.5s-7.5 3.358-7.5 7.5v135.918c0 15.443 9.813 29.19 24.418 34.208l7.18 2.467c1.101.378 1.841 1.414 1.841 2.578v18.553c0 9.881 8.039 17.92 17.92 17.92h158.256c9.881 0 17.92-8.039 17.92-17.92v-18.553c0-1.164.74-2.2 1.84-2.578l7.182-2.467c14.605-5.018 24.418-18.765 24.418-34.208v-206.375c12.243-.674 21.997-10.844 21.997-23.252v-13.382h18.521c4.142 0 7.5-3.358 7.5-7.5s-3.358-7.5-7.5-7.5zm-300.201 36.672c-4.571 0-8.29-3.719-8.29-8.29v-13.382h19.757c10.277 2.025 19.834 6.751 27.671 13.704l8.98 7.968c-11.704 0-37.959 0-48.118 0zm82.104 10.102s-34.958-30.973-35.962-31.773h80.527c-3.103 2.475-1.452 1.164-35.98 31.773-2.449 2.171-6.139 2.17-8.585 0zm184.576-18.392c0 4.571-3.719 8.29-8.29 8.29-19.438 0-121.945 0-133.716 0l8.98-7.968c7.837-6.953 17.394-11.679 27.671-13.704h105.355z"/></g></svg>