<svg id="Capa_1" enable-background="new 0 0 512 512" height="512" viewBox="0 0 512 512" width="512" xmlns="http://www.w3.org/2000/svg"><g><path d="m477.912 279.584c-6.083-.579-12.057.3-17.547 2.494-.539-1.045-1.173-2.053-1.904-3.011-2.483-3.255-5.809-5.599-9.562-6.843 8.672-13.791 19.017-24.785 30.851-32.763 5.214-3.511 8.152-9.376 7.859-15.688-.296-6.387-3.815-12.027-9.418-15.088-11.457-6.251-25.469-5.103-35.693 2.926-17.705 13.903-31.85 34.431-41.115 59.59h-58.441c-.219-.75-.433-1.5-.658-2.252 5.47-6.976 11.321-12.366 17.428-16.04 17.431-10.471 28.85-27.635 31.328-47.094 4.425-34.81-20.294-66.74-55.104-71.176-13.381-1.704-26.601.811-38.208 7.099-1.134-5.852-1.898-11.566-2.19-17.121-.374-6.952-6.132-12.397-13.109-12.397h-3.763c-7.319-16.992-21.192-29.944-38.027-36.295v-15.517c0-12.021-9.775-21.8-21.79-21.8h-3.98c-12.015 0-21.79 9.779-21.79 21.8v15.515c-16.835 6.351-30.708 19.303-38.028 36.295h-3.763c-6.978 0-12.736 5.445-13.11 12.405-1.193 22.611-10.107 47.825-20.634 74.518-13.01-10.574-21.339-25.419-29.416-39.863-10.997-19.663-22.367-39.995-45.279-46.094-4.064-1.089-8.4-.3-11.885 2.158-8.937 6.282-19.357 13.896-26.542 19.189-3.198 2.369-4.855 6.29-4.325 10.232.529 3.935 3.156 7.271 6.841 8.701 27.623 10.787 32.785 37.324 32.16 76.645-.066 4.142 3.238 7.552 7.38 7.618.041 0 .081.001.122.001 4.086 0 7.431-3.28 7.497-7.381.271-17.04-.238-36.717-6.072-53.455-5.544-15.907-15.077-27.231-29.05-34.438 6.285-4.601 13.739-10.003 20.381-14.676 16.547 4.607 25.419 20.472 35.681 38.821 9.075 16.227 19.278 34.407 36.74 47.002-.012.029-.023.057-.035.086-19.53 48.678-39.628 98.783-22.112 139.981-31.98-11.813-37.883-41.208-36.634-88.272.11-4.141-3.158-7.586-7.299-7.696-.067-.001-.135-.002-.203-.002-4.05 0-7.385 3.228-7.494 7.301-.622 23.434-.02 47.811 8.519 67.332 9.504 21.731 27.22 34.767 54.097 39.789 7.373 9.373 16.415 16.808 26.532 22.204-4.142 8.453-6.309 17.74-6.309 27.285v9.07c0 7.67 6.24 13.91 13.91 13.91h145.909c-.17 2.08-.258 4.177-.258 6.29v6.94c0 8.585 6.984 15.57 15.569 15.57h61.03c4.143 0 7.5-3.358 7.5-7.5s-3.357-7.5-7.5-7.5h-61.03c-.309 0-.569-.261-.569-.57v-6.94c0-7.227 1.249-14.217 3.698-20.864 15.793 4.756 35.111 7.24 56.883 7.24 21.771 0 41.088-2.484 56.881-7.239 2.449 6.648 3.698 13.638 3.698 20.863v6.94c0 .314-.256.57-.57.57h-23.99c-4.143 0-7.5 3.358-7.5 7.5s3.357 7.5 7.5 7.5h23.989c8.586 0 15.57-6.984 15.57-15.57v-6.94c0-9.047-1.565-17.805-4.648-26.136.432-.199.879-.39 1.302-.594 21.471-10.337 32.819-26.568 32.819-46.939 0-4.155-.489-8.295-1.435-12.368 15.619-6.72 26.261-11.47 32.41-14.464 10.975-5.355 18.568-16.724 19.817-29.676 1.983-20.676-13.227-39.123-33.912-41.118zm-26.15-56.176c5.502-4.32 13.056-4.932 19.242-1.557 1.39.759 1.597 2.083 1.622 2.617.028.618-.097 1.771-1.258 2.553-15.554 10.487-28.756 25.338-39.294 44.18h-14.591c8.249-20.16 19.973-36.559 34.279-47.793zm-75.602-19.486c-1.895 14.87-10.705 28.039-24.177 36.131-5.282 3.177-10.345 7.295-15.142 12.293-4.553-12.932-9.767-25.94-14.879-38.682-7.905-19.706-15.537-38.738-20.576-56.675 34.348-22.42 80.005 5.78 74.774 46.933zm-168.082-143.514c0-3.75 3.046-6.8 6.79-6.8h3.98c3.744 0 6.79 3.05 6.79 6.8v11.762c-2.884-.377-5.813-.582-8.78-.582s-5.896.204-8.78.582zm8.78 26.181c18.754 0 35.731 9.965 45.005 25.63h-90.009c9.275-15.665 26.251-25.63 45.004-25.63zm-103.988 276.859c-13.48-16.747-17.663-37.283-13.166-64.631 8.942-54.379 49.701-118.514 53.343-171.598h127.621c.62 9.044 2.328 18.433 4.765 28.026.062.354.158.704.273 1.049 9.66 37.274 29.916 77.021 41.578 114.907h-57.89c-6.287 0-12.081 2.867-15.895 7.865-3.804 4.985-5.038 11.311-3.384 17.355 3.595 13.132 5.842 26.703 6.678 40.335.493 8.016-.465 15.596-2.846 22.529-2.004 5.835-3.02 11.867-3.02 17.929 0 4.3.512 8.413 1.511 12.327h-83.901c-21.759 0-42.236-9.41-55.667-26.093zm170.564 66.144h-147.596v-7.98c0-7.511 1.769-14.809 5.142-21.407 8.73 2.841 18.011 4.337 27.558 4.337h90.818c5.52 7.854 13.7 14.464 24.392 19.611.423.204.869.394 1.3.593-.594 1.6-1.135 3.214-1.614 4.846zm138.273-18.955c-15.789 7.602-38.518 11.62-65.727 11.62s-49.938-4.018-65.727-11.62c-14.408-6.937-24.326-17.248-24.326-33.423 0-4.4.742-8.793 2.207-13.057 3.022-8.803 4.244-18.331 3.631-28.32-.899-14.658-3.315-29.253-7.182-43.377-.561-2.045.286-3.569.84-4.295.953-1.249 2.4-1.965 3.971-1.965h173.172c1.57 0 3.018.716 3.971 1.965.552.724 1.395 2.242.844 4.279l-.006.027c-3.865 14.121-6.281 28.712-7.18 43.365-1.25 20.369 5.838 29.777 5.838 41.377 0 14.61-7.957 25.543-24.326 33.424zm75.188-91.366c-.751 7.791-5.144 14.546-11.459 17.627-5.665 2.759-15.421 7.121-29.66 13.262-2.27-14.4 1.845-37.595 5.526-51.644 4.415-3.106 9.728-4.521 15.179-4 12.449 1.2 21.606 12.307 20.414 24.755z"/></g></svg>