<svg id="Capa_1" enable-background="new 0 0 510.827 510.827" height="512" viewBox="0 0 510.827 510.827" width="512" xmlns="http://www.w3.org/2000/svg"><g><path d="m258.599 164.918h15v15.026h-15z" transform="matrix(.998 -.06 .06 .998 -9.881 16.302)"/><path d="m69.671 219.316h15v14.999h-15z" transform="matrix(.06 -.998 .998 .06 -153.84 290.337)"/><path d="m71.458 189.369h15v14.999h-15z" transform="matrix(.06 -.998 .998 .06 -122.266 263.958)"/><path d="m60.995 75.097h15v15h-15z"/><path d="m90.995 75.097h15v15h-15z"/><path d="m229.402 346.756 14.764 2.649c.809-4.503 2.07-8.794 3.75-12.752l-13.807-5.861c-2.118 4.988-3.701 10.359-4.707 15.964z"/><path d="m263.275 315.082-10.004-11.177c-4.266 3.818-8.007 7.994-11.12 12.413l12.262 8.64c2.46-3.492 5.442-6.815 8.862-9.876z"/><path d="m405.214 352.931c-2.232-30.611-18.017-58.835-42.82-76.805 16.112-15.375 21.101-35.14 21.101-56.668-28.348 0-55.066 1.301-74.498 25.467v-19.994h-15v31.773c-5.172.37-10.239 1.122-15.176 2.224l-3.88-64.448-14.973.901 4.095 68.023c-5.209 2.016-10.215 4.44-14.981 7.233l-8.683-136.956c-32.518 7.604-65.173 8.642-97.956 1.463-32.014-7.011-65.777-5.673-97.607 1.813l-14.106 236.34 58.306 62.247 105.492-.487-.068-15-98.949.457-49.423-52.763 13.04-218.504c56.652-10.003 110.696 12.362 167.405 2.745l8.162 128.798c-22.726 19.093-37.199 47.707-37.199 79.641 0 25.508 9.236 48.896 24.533 67.008l-25.764 22.97h-113.573l-67.336-73.091 19.08-316.899h217.404l5.417 89.964 14.973-.901-6.265-104.063h-245.652l-20.121 334.183-.192 3.185 76.116 82.622h125.864l30.533-27.222c18.371 16.316 42.537 26.243 68.982 26.243 10.853 0 21.549-1.666 31.792-4.952l-4.582-14.283c-8.76 2.81-17.914 4.235-27.21 4.235-49.075 0-89-39.925-89-89 0-47.188 36.915-85.909 83.383-88.817-1.851 7.725-1.883 15.475-1.883 23.344 19.403 0 38.287.941 55.764-9.301 23.128 14.97 38.073 39.954 40.404 67.274h-87.335c0 59.287 41.597 111.5 104 111.5 62.406 0 103.999-52.213 103.999-111.5h-105.613zm-95.689-72.973c4.213-29.62 30.223-45.942 58.439-45.5-4.212 29.62-30.222 45.941-58.439 45.5zm71.773 116.61 18.03-18.03v40.136c-26.095-3.427-46.722-24.454-49.508-50.743h38.901l-18.031 18.03zm33.03-18.03 28.156 28.157c-7.947 6.331-17.602 10.593-28.156 11.979zm38.585 17.371-27.978-27.978h38.901c-1.103 10.404-4.999 19.984-10.923 27.978zm-46.085 53.521c-46.55 0-84.867-35.92-88.687-81.5h16.627c3.093 36.928 35.025 66.25 72.059 66.25 37.037 0 68.966-29.318 72.059-66.25h16.626c-3.818 45.58-42.135 81.5-88.684 81.5z"/></g></svg>