<?xml version="1.0" encoding="UTF-8"?><svg id="Line" xmlns="http://www.w3.org/2000/svg" viewBox="0 0 64 64"><path d="M32,54.5c-17.5791,0-28.5-7.08887-28.5-18.5,0-8.08301,3.89551-15.86523,10.41895-20.81738.66016-.49902,1.59961-.37207,2.10254.28809.5.66016.37109,1.60156-.28809,2.10254-5.69531,4.32227-9.2334,11.38281-9.2334,18.42676,0,11.42773,13.17285,15.5,25.5,15.5s25.5-4.07227,25.5-15.5c0-5.22656-1.96582-10.59961-5.39258-14.74219-.52734-.63867-.43848-1.58398.2002-2.1123.63672-.52539,1.58398-.4375,2.1123.2002,3.86426,4.67188,6.08008,10.74121,6.08008,16.6543,0,11.41113-10.9209,18.5-28.5,18.5Z" style="fill:#293a4c; stroke-width:0px;"/><path d="M40.20508,44.56348c-.59863,0-1.16406-.36035-1.39648-.95215-.30273-.77051.07715-1.6416.84863-1.94434,14.33496-5.62793,15.8457-14.93164,15.90332-15.3252.11816-.81543.86816-1.38574,1.69238-1.27344.81738.11426,1.38867.8623,1.2793,1.68066-.06152.46191-1.7002,11.39746-17.7793,17.71094-.17969.07031-.36523.10352-.54785.10352Z" style="fill:#293a4c; stroke-width:0px;"/><path d="M41.77344,38.74121c-.12891,0-.25977-.0166-.39062-.05176l-1.79492-.48242c-.7998-.21484-1.27441-1.03711-1.05859-1.83789.21484-.79883,1.03711-1.27441,1.83789-1.05859l1.79492.48242c.7998.21484,1.27441,1.03711,1.05859,1.83789-.17969.66895-.78516,1.11035-1.44727,1.11035Z" style="fill:#293a4c; stroke-width:0px;"/><path d="M44.30762,48.48633c-.36621,0-.73242-.13281-1.02148-.40137-.60645-.56445-.64062-1.51367-.07715-2.12012l1.2666-1.36133c.56641-.60645,1.51465-.63965,2.12012-.07715.60645.56445.64062,1.51367.07715,2.12012l-1.2666,1.36133c-.2959.31738-.69727.47852-1.09863.47852Z" style="fill:#293a4c; stroke-width:0px;"/><path d="M51.5293,44.33984c-.18164,0-.36523-.03223-.54395-.10254-.77246-.30078-1.1543-1.16992-.85352-1.94141l.6748-1.73242c.30078-.77344,1.17383-1.15625,1.94141-.85352.77246.30078,1.1543,1.16992.85352,1.94141l-.6748,1.73242c-.23047.59375-.79785.95605-1.39746.95605Z" style="fill:#293a4c; stroke-width:0px;"/><path d="M47.37012,34.95312c-.12891,0-.26074-.0166-.39062-.05176l-1.79492-.4834c-.80078-.21484-1.27441-1.03809-1.05859-1.83789.21387-.80078,1.04297-1.27539,1.83789-1.05859l1.79492.4834c.80078.21484,1.27441,1.03809,1.05859,1.83789-.17969.66992-.78613,1.11035-1.44727,1.11035Z" style="fill:#293a4c; stroke-width:0px;"/><path d="M51.56543,30.24219c-.12891,0-.26074-.0166-.39062-.05176l-1.79492-.4834c-.80078-.21484-1.27441-1.03809-1.05859-1.83789.21387-.80078,1.04004-1.27441,1.83789-1.05859l1.79492.4834c.80078.21484,1.27441,1.03809,1.05859,1.83789-.17969.66992-.78613,1.11035-1.44727,1.11035Z" style="fill:#293a4c; stroke-width:0px;"/><path d="M23.79492,44.56348c-.18262,0-.36816-.0332-.54785-.10352C7.16797,38.14648,5.5293,27.21094,5.46777,26.74902c-.11035-.82129.46582-1.57617,1.28711-1.68555.81641-.11816,1.57129.46289,1.68457,1.28027.06055.41016,1.58301,9.7002,15.90332,15.32324.77148.30273,1.15137,1.17383.84863,1.94434-.23242.5918-.79785.95215-1.39648.95215Z" style="fill:#293a4c; stroke-width:0px;"/><path d="M22.22656,38.74121c-.66211,0-1.26758-.44141-1.44727-1.11035-.21582-.80078.25879-1.62305,1.05859-1.83789l1.79492-.48242c.80469-.21582,1.62305.25879,1.83789,1.05859.21582.80078-.25879,1.62305-1.05859,1.83789l-1.79492.48242c-.13086.03516-.26172.05176-.39062.05176Z" style="fill:#293a4c; stroke-width:0px;"/><path d="M19.69238,48.48633c-.40137,0-.80273-.16113-1.09863-.47852l-1.2666-1.36133c-.56348-.60645-.5293-1.55566.07715-2.12012.60645-.5625,1.55469-.53027,2.12012.07715l1.2666,1.36133c.56348.60645.5293,1.55566-.07715,2.12012-.28906.26855-.65527.40137-1.02148.40137Z" style="fill:#293a4c; stroke-width:0px;"/><path d="M12.4707,44.33984c-.59961,0-1.16699-.3623-1.39746-.95605l-.6748-1.73242c-.30078-.77148.08105-1.64062.85352-1.94141.76953-.30273,1.6416.08008,1.94141.85352l.6748,1.73242c.30078.77148-.08105,1.64062-.85352,1.94141-.17871.07031-.3623.10254-.54395.10254Z" style="fill:#293a4c; stroke-width:0px;"/><path d="M16.62988,34.95312c-.66113,0-1.26758-.44043-1.44727-1.11035-.21582-.7998.25781-1.62305,1.05859-1.83789l1.79492-.4834c.79395-.21777,1.62305.25781,1.83789,1.05859.21582.7998-.25781,1.62305-1.05859,1.83789l-1.79492.4834c-.12988.03516-.26172.05176-.39062.05176Z" style="fill:#293a4c; stroke-width:0px;"/><path d="M12.43457,30.24219c-.66113,0-1.26758-.44043-1.44727-1.11035-.21582-.7998.25781-1.62305,1.05859-1.83789l1.79492-.4834c.79395-.2168,1.62305.25781,1.83789,1.05859.21582.7998-.25781,1.62305-1.05859,1.83789l-1.79492.4834c-.12988.03516-.26172.05176-.39062.05176Z" style="fill:#293a4c; stroke-width:0px;"/><path d="M32,38.5c-.61719,0-1.1709-.37793-1.39648-.95215-3.73535-9.52441-10.99902-16.51465-16.5498-19.88184-.4248-.25684-.69434-.70801-.7207-1.2041-.02539-.49609.19531-.97266.59082-1.27246,4.90332-3.72266,11.1543-5.68945,18.07617-5.68945s13.17285,1.9668,18.07617,5.68945c.39551.2998.61621.77637.59082,1.27246-.02637.49609-.2959.94727-.71973,1.2041-5.55273,3.36816-12.81543,10.35938-16.55078,19.88184-.22559.57422-.7793.95215-1.39648.95215ZM17.51758,16.35059c4.97266,3.48926,10.72754,9.33105,14.48242,16.94434,3.75488-7.6123,9.50977-13.4541,14.48242-16.94434-4.09473-2.55664-8.95605-3.85059-14.48242-3.85059s-10.3877,1.29395-14.48242,3.85059Z" style="fill:#293a4c; stroke-width:0px;"/><path d="M38.53125,18.33984c-.13086,0-.26367-.0166-.39551-.05273-3.83008-1.04492-8.44141-1.04492-12.27148,0-.79688.21973-1.62402-.25391-1.8418-1.05273s.25293-1.62402,1.05273-1.8418c4.34375-1.18359,9.50586-1.18359,13.84961,0,.7998.21777,1.27051,1.04297,1.05273,1.8418-.18164.66699-.78711,1.10547-1.44629,1.10547Z" style="fill:#293a4c; stroke-width:0px;"/><path d="M34.69727,23.55664c-.13086,0-.26367-.0166-.39551-.05273-1.43164-.39062-3.17188-.39062-4.60352,0-.79688.21777-1.62402-.25391-1.8418-1.05273-.21777-.7998.25391-1.62402,1.05273-1.8418,1.94727-.5293,4.23438-.5293,6.18164,0,.79883.21777,1.27051,1.04199,1.05273,1.8418-.18164.66699-.78613,1.10547-1.44629,1.10547Z" style="fill:#293a4c; stroke-width:0px;"/></svg>