<svg id="Capa_1" enable-background="new 0 0 512 512" height="512" viewBox="0 0 512 512" width="512" xmlns="http://www.w3.org/2000/svg"><g><path d="m496.712 341.66c3.343-5.114 5.294-11.216 5.294-17.768v-55.468c0-12.396-6.962-23.194-17.18-28.696 10.058-7.171 15.784-16.873 17.947-26.247 5.5-23.833-8.755-49.3-34.666-61.931-20.997-10.239-35.331-24.955-50.507-40.535-22.41-23.007-45.567-46.759-91.561-58.869-.202-3.543-.7-7.102-1.52-10.643-1.504-6.495-6.673-11.665-13.168-13.167-17.262-3.998-34.942-.533-49.155 9.266-15.303-18.195-38.853-25.806-61.553-20.556-6.506 1.51-11.674 6.687-13.161 13.173-1.692 7.3-2.047 14.677-1.154 21.836-40.705 10.646-63.355 30.432-81.454 48.334-2.945 2.912-2.971 7.661-.059 10.606 1.467 1.482 3.399 2.226 5.333 2.226 1.905 0 3.812-.722 5.273-2.168 16.663-16.481 37.477-34.689 74.568-44.45 7.618 19.704 25.137 34.798 46.938 38.716l-7.899 7.899c-2.929 2.93-2.929 7.678 0 10.607 2.93 2.929 7.678 2.928 10.606 0l8.343-8.343c21.435 5.716 44.444-.525 59.969-16.051 8.94-8.941 14.763-20.089 17.071-32.021 40.214 11.346 61.352 33.044 81.834 54.07 15.404 15.814 31.333 32.167 54.678 43.552 19.596 9.553 30.544 28.089 26.624 45.075-3.72 16.119-19.842 25.743-43.127 25.743h-36.17c-16.956 0-30.75 13.799-30.75 30.76v20.271c0 6.38-2.519 12.344-7.093 16.794-4.573 4.45-10.619 6.784-17.013 6.629-12.552-.343-22.764-11.142-22.764-24.073v-19.62c0-16.961-13.799-30.76-30.76-30.76h-17.25c-15.963 0-31.022 6.562-41.319 18.008-4.465 4.97-10.619 9.167-17.82 12.243v-37.648c0-15.943-12.971-28.914-28.914-28.914s-28.914 12.971-28.914 28.914v37.647c-7.199-3.077-13.355-7.275-17.828-12.246-10.294-11.441-25.35-18.004-41.306-18.004h-40.155c-23.285 0-39.408-9.624-43.127-25.743-3.92-16.986 7.028-35.522 26.625-45.075 17.773-8.669 30.86-20.116 40.276-29.121 2.994-2.862 3.1-7.61.237-10.604-2.864-2.995-7.612-3.1-10.604-.236-8.629 8.252-20.574 18.719-36.483 26.479-25.912 12.632-40.167 38.099-34.667 61.932 2.462 10.668 8.641 19.733 17.877 26.282-10.18 5.514-17.111 16.292-17.111 28.66v55.468c0 6.552 1.952 12.653 5.294 17.768-8.625 1.222-15.287 8.634-15.287 17.592v46.96c0 39.706 32.303 72.01 72.01 72.01h57.575v4.431c0 7.68 6.248 13.927 13.927 13.927h155.206c7.68 0 13.928-6.248 13.928-13.928v-4.43h61.754c4.142 0 7.5-3.357 7.5-7.5s-3.358-7.5-7.5-7.5h-63.854c-5.954-19.229-23.903-33.238-45.064-33.238h-38.601c-1.539 0-2.79-1.252-2.79-2.79v-70.731h270.119c1.539 0 2.79 1.252 2.79 2.79v46.96c0 31.436-25.575 57.01-57.01 57.01h-30.59c-4.142 0-7.5 3.357-7.5 7.5s3.358 7.5 7.5 7.5h30.59c39.706 0 72.01-32.304 72.01-72.01v-46.96c0-8.959-6.662-16.371-15.288-17.594zm-294.612-308.071c.218-.95.978-1.708 1.929-1.929 17.219-3.983 35.257 1.778 46.93 15.875-10.348 11.646-15.82 26.757-15.666 42.043-24.215-6.747-38.91-31.321-33.193-55.989zm95.243 55.237c-9.661 9.661-23.046 14.5-36.367 13.662l25.014-25.014c2.929-2.93 2.929-7.678 0-10.607-2.929-2.928-7.678-2.928-10.606 0l-25.014 25.015c-.839-13.321 4-26.706 13.661-36.366 11.56-11.56 27.984-16.256 43.939-12.564.955.222 1.715.981 1.937 1.938.996 4.303 1.361 8.638 1.167 12.905 0 .012-.002.024-.002.036-.537 11.538-5.297 22.563-13.729 30.995zm-272.349 179.599c0-9.688 7.882-17.57 17.571-17.57 2.796 0-15.559-.001 64.565-.002 11.709 0 22.701 4.752 30.154 13.037 7.138 7.933 17.287 14.295 28.979 18.254v59.319h-123.699c-9.688 0-17.57-7.882-17.57-17.57zm-9.994 137.788v-46.96c0-1.538 1.251-2.79 2.79-2.79h148.473v72.538c0 1.246-.857 2.353-2.084 2.691-15.734 4.34-27.795 16.484-32.473 31.53h-59.696c-31.436.001-57.01-25.573-57.01-57.009zm211.881 38.772h38.601c17.735 0 32.164 14.429 32.164 32.163v4.433h-153.062v-4.433c0-14.419 9.698-27.165 23.584-30.996 7.71-2.126 13.095-9.179 13.095-17.15v-200.547c0-7.672 6.242-13.914 13.914-13.914s13.914 6.242 13.914 13.914v198.739c0 9.81 7.981 17.791 17.79 17.791zm-2.79-162.842c11.7-3.958 21.848-10.322 28.975-18.254 7.454-8.284 18.448-13.036 30.164-13.036h17.25c8.69 0 15.76 7.069 15.76 15.76v19.62c0 20.979 16.757 38.505 37.354 39.067.365.01.727.015 1.09.015 10.074 0 19.553-3.842 26.793-10.887 7.501-7.298 11.633-17.081 11.633-27.545v-20.271c0-8.69 7.065-15.76 15.75-15.76 4.854 0 57.385.002 60.576.002 9.688 0 17.571 7.882 17.571 17.57v55.468c0 9.688-7.882 17.57-17.571 17.57h-245.345z"/></g></svg>