<svg id="Capa_1" enable-background="new 0 0 512 512" height="512" viewBox="0 0 512 512" width="512" xmlns="http://www.w3.org/2000/svg"><g><path d="m484.813 106.545c14.99 0 27.187-12.196 27.187-27.187s-12.196-27.188-27.187-27.188h-345.727c-4.143 0-7.5 3.357-7.5 7.5s3.357 7.5 7.5 7.5h92.624c-3.739 7.422-3.989 16.434.013 24.374h-157.34c-6.721 0-12.188-5.467-12.188-12.187s5.467-12.188 12.188-12.188h29.703c4.143 0 7.5-3.357 7.5-7.5s-3.357-7.5-7.5-7.5h-76.899c-14.991.002-27.187 12.198-27.187 27.19 0 14.99 12.196 27.187 27.187 27.187h39.696v29.073c-13.953 2.384-26.521 11.404-35.948 26.038-10.215 15.856-15.841 36.844-15.841 59.097 0 42.018 20.677 99.177 36.029 135.819-26.958 32.747-31.073 73.985-20.878 97.142 1.333 3.032 3.866 5.167 6.949 5.859 6.874 1.538 13.409-4.12 22.437-11.962 4.153-3.607 11.827-10.273 14.751-10.878 2.925.603 10.6 7.27 14.755 10.879 6.609 5.741 14.787 13.667 22.435 11.962 3.083-.69 5.617-2.824 6.955-5.858 5.5-12.502 6.64-29.67 3.128-47.103-2.597-12.894-8.877-31.703-24.008-50.049 15.352-36.643 36.025-93.797 36.025-135.812 0-22.253-5.626-43.24-15.841-59.097-9.427-14.634-21.995-23.653-35.947-26.038v-29.073h166.616v29.073c-13.952 2.384-26.521 11.404-35.948 26.038-10.215 15.856-15.841 36.844-15.841 59.097 0 42.019 20.678 99.179 36.03 135.822-26.955 32.745-31.074 73.981-20.883 97.146 1.335 3.029 3.869 5.163 6.952 5.854 6.892 1.536 13.41-4.123 22.435-11.962 4.155-3.609 11.831-10.277 14.756-10.879 2.925.602 10.601 7.27 14.756 10.879 6.609 5.741 14.787 13.667 22.435 11.962 3.083-.69 5.617-2.824 6.955-5.858 5.5-12.502 6.64-29.67 3.128-47.103-2.597-12.894-8.876-31.702-24.006-50.047 2.668-6.36 5.503-13.35 8.362-20.774 1.488-3.865-.438-8.205-4.305-9.693-3.868-1.488-8.205.439-9.693 4.304-6.643 17.253-13.179 32.175-17.631 41.939-18.681-40.963-44.666-107.663-44.272-152.675 12.516 8.913 27.98 13.847 44.272 13.847s31.757-4.935 44.272-13.847c.217 24.814-7.538 54.605-15.095 78.145-1.266 3.943.905 8.167 4.85 9.433 3.94 1.267 8.167-.905 9.434-4.849 10.503-32.721 15.828-60.188 15.828-81.643 0-22.253-5.626-43.24-15.841-59.097-9.427-14.634-21.996-23.653-35.948-26.038v-29.073h166.618v29.071c-13.954 2.384-26.522 11.405-35.949 26.04-10.214 15.857-15.839 36.846-15.839 59.1 0 42.086 20.676 99.213 36.027 135.823-26.951 32.744-31.07 73.979-20.879 97.143 1.335 3.03 3.869 5.163 6.952 5.853 7.712 1.729 15.923-6.305 22.434-11.961 4.154-3.609 11.83-10.277 14.756-10.88 2.924.604 10.598 7.271 14.751 10.878 9.026 7.842 15.555 13.513 22.438 11.962 3.081-.69 5.613-2.824 6.947-5.854 5.505-12.501 6.648-29.67 3.138-47.104-2.596-12.891-8.873-31.698-24.001-50.043 9.504-22.65 20.896-52.784 28.304-82.448 1.004-4.019-1.44-8.09-5.459-9.094-4.02-1-8.09 1.441-9.094 5.459-7.65 30.63-19.73 61.905-29.336 84.422-.011.025-.026.049-.037.074-2.525 5.925-5.096 11.753-7.65 17.349-2.493-5.462-5.065-11.295-7.652-17.353-.075-.177-.169-.342-.257-.511-15.863-37.012-36.739-94.883-36.364-134.802 12.516 8.912 27.979 13.846 44.27 13.846 16.293 0 31.759-4.936 44.276-13.85.055 5.831-.305 11.431-.957 17.224-.463 4.116 2.499 7.828 6.615 8.291 4.12.462 7.828-2.499 8.291-6.615.708-6.298 1.067-12.29 1.067-17.808 0-22.252-5.627-43.241-15.845-59.101-9.429-14.634-21.997-23.654-35.947-26.038v-29.071h39.693zm-378.246 336.093c-2.4-1.838-5.35-4.4-7.595-6.351-8.627-7.494-16.775-14.572-24.593-14.572-7.812 0-15.961 7.078-24.587 14.572-2.27 1.972-5.258 4.567-7.672 6.41-7.129-23.064 3.266-51.454 15.895-70.17 1.132 2.543 2.195 4.894 3.165 7.012 2.394 5.229 7.452 8.479 13.201 8.479 5.75 0 10.809-3.249 13.202-8.478.991-2.165 2.079-4.571 3.239-7.179 17.929 25.495 20.322 53.798 15.745 70.277zm-32.185-70.298c-18.679-40.961-44.666-107.662-44.272-152.674 12.516 8.912 27.981 13.847 44.272 13.847 16.292 0 31.755-4.935 44.271-13.847.395 44.989-25.567 111.657-44.271 152.674zm30.839-202.561c5.713 8.868 9.722 19.755 11.802 31.695-10.836 10.865-26.178 17.04-42.64 17.04-16.463 0-31.805-6.175-42.641-17.04 2.081-11.94 6.09-22.827 11.802-31.695 8.234-12.781 19.187-19.82 30.839-19.82s22.603 7.038 30.838 19.82zm163.981 209.761c.977-2.134 2.068-4.548 3.24-7.181 17.928 25.495 20.322 53.799 15.746 70.278-2.4-1.838-5.35-4.4-7.595-6.351-8.627-7.494-16.775-14.572-24.593-14.572s-15.966 7.078-24.593 14.572c-2.271 1.973-5.26 4.57-7.675 6.412-7.122-23.064 3.273-51.453 15.901-70.169 1.132 2.543 2.195 4.893 3.165 7.011 2.395 5.229 7.453 8.477 13.202 8.477s10.808-3.247 13.202-8.477zm17.636-209.761c5.713 8.868 9.722 19.755 11.803 31.694-10.836 10.865-26.177 17.04-42.641 17.04s-31.804-6.175-42.641-17.04c2.081-11.939 6.09-22.827 11.803-31.694 8.233-12.781 19.186-19.82 30.838-19.82s22.604 7.038 30.838 19.82zm182.962 272.858c-2.399-1.839-5.348-4.399-7.593-6.35-8.626-7.494-16.774-14.572-24.587-14.572-7.818 0-15.967 7.079-24.595 14.574-2.27 1.972-5.259 4.568-7.673 6.41-7.122-23.064 3.272-51.457 15.9-70.175.545 1.223 2.669 5.922 3.167 7.009 2.392 5.233 7.45 8.484 13.201 8.484 5.55 0 10.739-3.097 13.198-8.478.475-1.037 2.721-6.007 3.25-7.195 17.936 25.5 20.314 53.81 15.732 70.293zm-1.344-272.858c5.713 8.868 9.723 19.755 11.805 31.692-10.837 10.867-26.179 17.042-42.644 17.042-16.462 0-31.803-6.174-42.639-17.039 2.08-11.94 6.089-22.828 11.801-31.696 8.233-12.783 19.186-19.822 30.839-19.822 11.651 0 22.602 7.04 30.838 19.823zm28.544-90.42c0 6.72-5.467 12.187-12.187 12.187h-47.195c-6.721 0-12.188-5.467-12.188-12.187 0-6.721 5.467-12.188 12.187-12.188h47.196c6.72 0 12.187 5.467 12.187 12.188zm-253.187 0c0-6.72 5.467-12.188 12.187-12.188h157.327c-3.735 7.414-3.993 16.426.013 24.374h-157.34c-6.72 0-12.187-5.467-12.187-12.186zm-228.813 0c0-6.721 5.467-12.188 12.187-12.188h22.905c-3.735 7.414-3.993 16.426.013 24.374h-22.918c-6.72 0-12.187-5.467-12.187-12.186z"/><path d="m93.163 266.918-7.751-13.12c-2.329-3.941-6.453-6.294-11.031-6.293-4.577 0-8.7 2.354-11.028 6.294l-7.751 13.118c-2.107 3.566-.925 8.165 2.642 10.272 1.198.708 2.512 1.044 3.809 1.044 2.565 0 5.064-1.317 6.464-3.686l5.867-9.93 5.866 9.929c2.107 3.567 6.71 4.752 10.271 2.643 3.566-2.106 4.75-6.705 2.642-10.271z"/><path d="m84.531 191.736c4.143 0 7.5-3.357 7.5-7.5v-3.085c0-4.143-3.357-7.5-7.5-7.5s-7.5 3.357-7.5 7.5v3.085c0 4.142 3.358 7.5 7.5 7.5z"/><path d="m256 247.505c-4.578 0-8.702 2.353-11.03 6.294l-7.751 13.118c-2.107 3.566-.925 8.165 2.642 10.272 3.569 2.109 8.166.924 10.272-2.642l5.867-9.93 5.867 9.93c1.399 2.368 3.898 3.686 6.464 3.686 1.297 0 2.611-.336 3.809-1.044 3.566-2.107 4.749-6.706 2.642-10.272l-7.752-13.117c-2.328-3.942-6.452-6.295-11.03-6.295z"/><path d="m266.149 191.736c4.143 0 7.5-3.357 7.5-7.5v-3.085c0-4.143-3.357-7.5-7.5-7.5s-7.5 3.357-7.5 7.5v3.085c0 4.142 3.358 7.5 7.5 7.5z"/><path d="m437.618 247.505c-4.577 0-8.701 2.353-11.031 6.295l-7.75 13.118c-2.107 3.565-.924 8.165 2.643 10.271 3.566 2.109 8.165.925 10.271-2.643l5.866-9.929 5.867 9.93c1.399 2.368 3.898 3.686 6.464 3.686 1.297 0 2.611-.336 3.809-1.044 3.566-2.107 4.749-6.706 2.642-10.272l-7.751-13.117c-2.329-3.941-6.453-6.295-11.03-6.295z"/><path d="m447.767 191.736c4.143 0 7.5-3.357 7.5-7.5v-3.085c0-4.143-3.357-7.5-7.5-7.5s-7.5 3.357-7.5 7.5v3.085c0 4.142 3.357 7.5 7.5 7.5z"/></g></svg>