<svg id="icons" xmlns="http://www.w3.org/2000/svg" viewBox="0 0 64 64"><defs><style>.cls-1{fill:none;stroke:#000;stroke-linecap:round;stroke-linejoin:round;stroke-width:2px;}</style></defs><title>28</title><g id="lemonade"><path class="cls-1" d="M40.31014,60H23.68986a4.01966,4.01966,0,0,1-4.00846-3.71977l-2.88352-38.5416a2.00984,2.00984,0,0,1,2.00423-2.15979H45.19789a2.00984,2.00984,0,0,1,2.00423,2.15979L44.3186,56.28023A4.01966,4.01966,0,0,1,40.31014,60Z"/><path class="cls-1" d="M17.25657,23.86963l2.38112,1.06961a14.72883,14.72883,0,0,0,11.51416.14344h0A14.60527,14.60527,0,0,1,44.10048,25.98l2.37679,1.44708"/><path class="cls-1" d="M35.751,24.01889l4.4641-18.75268A1.64781,1.64781,0,0,1,41.81808,4h0a1.64781,1.64781,0,0,1,1.601,2.03764L39.00678,24.15921"/><rect class="cls-1" x="25.44034" y="48.30647" width="6.45541" height="6.45541" rx="1" transform="translate(23.05782 -7.16977) rotate(23.62776)"/><rect class="cls-1" x="33.74107" y="41.03393" width="6.45541" height="6.45541" rx="1" transform="translate(20.8389 -11.10631) rotate(23.62776)"/><rect class="cls-1" x="34.62097" y="29.52193" width="6.45541" height="6.45541" rx="1" transform="translate(16.29873 -12.42404) rotate(23.62776)"/><rect class="cls-1" x="22.92362" y="35.62303" width="6.45541" height="6.45541" rx="1" transform="translate(17.76341 -7.22436) rotate(23.62776)"/></g></svg>