<svg id="icons" xmlns="http://www.w3.org/2000/svg" viewBox="0 0 64 64"><defs><style>.cls-1{fill:none;stroke:#000;stroke-linecap:round;stroke-linejoin:round;stroke-width:2px;}</style></defs><title>20</title><g id="pie"><path class="cls-1" d="M55.12566,40.93478v2.62995a5.7532,5.7532,0,0,1-5.7548,5.7548H14.62911a5.7532,5.7532,0,0,1-5.75481-5.7548V40.929a3.4974,3.4974,0,0,0,2.12929-3.21692,3.49891,3.49891,0,1,0,6.99782,0,3.49894,3.49894,0,0,0,6.99787,0,3.49891,3.49891,0,1,0,6.99782,0,3.5018,3.5018,0,0,0,7.00359,0,3.49893,3.49893,0,0,0,6.99786,0,3.49892,3.49892,0,1,0,6.99783,0A3.50549,3.50549,0,0,0,55.12566,40.93478Z"/><path class="cls-1" d="M60,37.7121a3.50181,3.50181,0,1,1-7.00362,0,3.49892,3.49892,0,1,1-6.99783,0,3.49893,3.49893,0,0,1-6.99786,0,3.5018,3.5018,0,0,1-7.00359,0,3.49891,3.49891,0,1,1-6.99782,0,3.49894,3.49894,0,0,1-6.99787,0,3.49891,3.49891,0,1,1-6.99782,0A3.4974,3.4974,0,0,1,8.8743,40.929a3.41762,3.41762,0,0,1-1.3754.282,3.49893,3.49893,0,1,1,0-6.99786c8.58043-7.23379,16.86733-9.65654,24.10688-9.67382h.07482c14.51936,0,24.81471,9.67382,24.81471,9.67382A3.50232,3.50232,0,0,1,60,37.7121Z"/><path class="cls-1" d="M39.628,22.30648a7.63245,7.63245,0,0,1-6.83671,2.09476h-.00576c-.1784-.03453-.3568-.07482-.52943-.12087a7.76887,7.76887,0,0,1,.05177-4.1377v-.00573a7.62322,7.62322,0,0,1,9.28826-5.1966A7.61713,7.61713,0,0,1,39.628,22.30648Z"/><path class="cls-1" d="M32.78551,24.40124a5.139,5.139,0,0,1-1.10491.13811h-.07482a5.25719,5.25719,0,0,1-5.07574-6.618,5.26381,5.26381,0,0,1,5.0815,1.35813,6.132,6.132,0,0,1,.69631.85749v.00573a7.76887,7.76887,0,0,0-.05177,4.1377C32.42871,24.32642,32.60711,24.36671,32.78551,24.40124Z"/><line class="cls-1" x1="32.25869" y1="24.27778" x2="36.92816" y2="19.60831"/><line class="cls-1" x1="32.00082" y1="34.34935" x2="32.00082" y2="27.83623"/><line class="cls-1" x1="41.31415" y1="34.34935" x2="37.28576" y2="28.9872"/><line class="cls-1" x1="22.72005" y1="34.34935" x2="26.74843" y2="28.9872"/></g></svg>