<svg id="icons" xmlns="http://www.w3.org/2000/svg" viewBox="0 0 64 64"><defs><style>.cls-1{fill:none;stroke:#000;stroke-linecap:round;stroke-linejoin:round;stroke-width:2px;}</style></defs><title>38</title><g id="coffee_mug"><path class="cls-1" d="M10.44384,21.18319h31.623a1,1,0,0,1,1,1V55a5,5,0,0,1-5,5h-23.623a5,5,0,0,1-5-5V22.18319A1,1,0,0,1,10.44384,21.18319Z"/><path class="cls-1" d="M49.81415,52.35252h-6.7473V47.7067h3.287c1.96421,0,3.55651-.4068,3.55651-2.371V35.8475c0-1.96421-1.5923-2.371-3.55651-2.371h-3.287V28.83068h6.7473a4.742,4.742,0,0,1,4.742,4.742V47.61051A4.742,4.742,0,0,1,49.81415,52.35252Z"/><ellipse class="cls-1" cx="26.25534" cy="40.5916" rx="9.7047" ry="7.68289" transform="translate(-21.68534 34.36975) rotate(-49.70987)"/><path class="cls-1" d="M33.86506,34.778l-.68692,1.44175A7.71313,7.71313,0,0,1,26.263,40.618h0a7.71308,7.71308,0,0,0-6.81063,4.18717l-.81765,1.58989"/><path class="cls-1" d="M28.11193,4l-.94136,1.07589a5.0346,5.0346,0,0,0-1.15538,4.711,5.24784,5.24784,0,0,0,.22929.61614h0a5.24718,5.24718,0,0,1,.22929.61614,5.0346,5.0346,0,0,1-1.15538,4.711L24.377,16.806"/><path class="cls-1" d="M22.19866,5.4958l-.73461.83956a3.8185,3.8185,0,0,0-1.00578,2.98725,4.01953,4.01953,0,0,0,.3092,1.08038h0a4.01953,4.01953,0,0,1,.3092,1.08038,3.81849,3.81849,0,0,1-1.00578,2.98724l-.73462.83957"/><path class="cls-1" d="M33.17441,5.4958l-.73462.83956A3.81857,3.81857,0,0,0,31.434,9.32261a4.01955,4.01955,0,0,0,.30921,1.08038h0a4.01953,4.01953,0,0,1,.3092,1.08038,3.81856,3.81856,0,0,1-1.00578,2.98724l-.73462.83957"/></g></svg>