<svg id="icons" xmlns="http://www.w3.org/2000/svg" viewBox="0 0 64 64"><defs><style>.cls-1{fill:none;stroke:#000;stroke-linecap:round;stroke-linejoin:round;stroke-width:2px;}</style></defs><title>43</title><g id="donut"><circle class="cls-1" cx="32" cy="32" r="11.15755"/><circle class="cls-1" cx="32" cy="32" r="28"/><path class="cls-1" d="M19.41025,20.41037a3.11373,3.11373,0,1,0-4.40348-4.40349"/><path class="cls-1" d="M20.41171,48.91993a3.11373,3.11373,0,0,0-4.40348-4.40349"/><path class="cls-1" d="M43.74482,15.09489a3.11374,3.11374,0,1,0,4.40349,4.40349"/><path class="cls-1" d="M42.74336,43.75183a3.11373,3.11373,0,1,0,4.40349,4.40348"/><line class="cls-1" x1="33.31368" y1="13.89896" x2="29.85527" y2="10.44055"/><line class="cls-1" x1="53.35832" y1="30.27345" x2="49.89991" y2="33.73186"/><line class="cls-1" x1="31.45482" y1="56.42362" x2="27.92584" y2="52.89463"/><line class="cls-1" x1="13.18657" y1="30.13229" x2="9.55171" y2="33.76715"/><line class="cls-1" x1="25.40895" y1="18.89899" x2="28.86736" y2="15.44058"/><line class="cls-1" x1="14.36437" y1="35.27348" x2="17.82277" y2="38.73189"/><line class="cls-1" x1="32.26784" y1="51.42359" x2="35.79682" y2="47.8946"/><line class="cls-1" x1="49.53609" y1="39.13235" x2="53.17094" y2="42.7672"/></g></svg>