<svg id="Capa_1" enable-background="new 0 0 512 512" height="512" viewBox="0 0 512 512" width="512" xmlns="http://www.w3.org/2000/svg"><g><path d="m309.847 0h-269.074c-19.831 0-35.964 16.134-35.964 35.965v440.069c0 19.832 16.133 35.966 35.964 35.966h269.073c19.832 0 35.966-16.134 35.966-35.965v-65.635c0-4.142-3.357-7.5-7.5-7.5s-7.5 3.358-7.5 7.5v65.635c0 11.561-9.405 20.965-20.966 20.965h-269.073c-11.56 0-20.965-9.405-20.965-20.965v-440.07c.001-11.56 9.406-20.965 20.965-20.965h269.073c11.561 0 20.966 9.405 20.966 20.965v339.435c0 4.142 3.357 7.5 7.5 7.5s7.5-3.358 7.5-7.5v-339.435c0-19.831-16.133-35.965-35.965-35.965z"/><path d="m199.462 455.045h36.854c29.104 0 52.782-23.678 52.782-52.783v-31.314c0-29.104-23.678-52.782-52.782-52.782h-36.854c-29.104 0-52.782 23.678-52.782 52.782v31.314c0 29.105 23.677 52.783 52.782 52.783zm-37.782-84.097c0-20.833 16.949-37.782 37.782-37.782h36.854c20.833 0 37.782 16.949 37.782 37.782v31.314c0 20.833-16.949 37.783-37.782 37.783h-36.854c-20.833 0-37.782-16.949-37.782-37.783z"/><path d="m196.463 425.181h42.853c9.649 0 17.499-7.85 17.499-17.5v-42.151c0-9.649-7.85-17.5-17.499-17.5h-42.853c-9.649 0-17.499 7.85-17.499 17.5v42.151c0 9.65 7.849 17.5 17.499 17.5zm-2.499-59.651c0-1.378 1.121-2.5 2.499-2.5h42.853c1.378 0 2.499 1.121 2.499 2.5v13.576h-47.851zm0 28.575h47.851v13.576c0 1.378-1.121 2.5-2.499 2.5h-42.853c-1.378 0-2.499-1.121-2.499-2.5z"/><path d="m289.099 212.131c0-29.104-23.678-52.783-52.782-52.783h-36.854c-29.104 0-52.782 23.678-52.782 52.783v31.314c0 29.104 23.678 52.782 52.782 52.782h36.854c29.104 0 52.782-23.678 52.782-52.782zm-15 31.314c0 20.833-16.949 37.782-37.782 37.782h-36.854c-20.833 0-37.782-16.949-37.782-37.782v-31.314c0-20.833 16.949-37.783 37.782-37.783h36.854c20.833 0 37.782 16.949 37.782 37.783z"/><path d="m239.315 189.213h-42.853c-9.649 0-17.499 7.85-17.499 17.5v42.151c0 9.649 7.85 17.5 17.499 17.5h42.853c9.649 0 17.499-7.85 17.499-17.5v-42.151c0-9.65-7.849-17.5-17.499-17.5zm2.499 59.651c0 1.378-1.121 2.5-2.499 2.5h-42.853c-1.378 0-2.499-1.121-2.499-2.5v-13.576h47.851zm0-28.576h-47.851v-13.576c0-1.378 1.121-2.5 2.499-2.5h42.853c1.378 0 2.499 1.121 2.499 2.5z"/><path d="m125.119 178.094c0-10.336-8.409-18.746-18.745-18.746h-26.106c-10.337 0-18.746 8.409-18.746 18.746v8.463c0 4.142 3.357 7.5 7.5 7.5s7.5-3.358 7.5-7.5v-8.463c0-2.065 1.681-3.746 3.746-3.746h26.106c2.065 0 3.745 1.68 3.745 3.746v99.389c0 2.065-1.68 3.745-3.745 3.745h-26.106c-2.065 0-3.746-1.68-3.746-3.745v-55.926c0-4.142-3.357-7.5-7.5-7.5s-7.5 3.358-7.5 7.5v55.926c0 10.336 8.409 18.745 18.746 18.745h26.106c10.336 0 18.745-8.409 18.745-18.745z"/><path d="m106.374 318.166h-26.106c-10.337 0-18.746 8.409-18.746 18.745v99.389c0 10.336 8.409 18.746 18.746 18.746h26.106c10.336 0 18.745-8.409 18.745-18.746v-99.389c0-10.336-8.409-18.745-18.745-18.745zm3.745 118.134c0 2.065-1.68 3.746-3.745 3.746h-26.106c-2.065 0-3.746-1.68-3.746-3.746v-99.389c0-2.065 1.681-3.745 3.746-3.745h26.106c2.065 0 3.745 1.68 3.745 3.745z"/><path d="m188.418 140.062c22.633 0 53.299-12.145 73.707-22.112 5.855-2.859 9.639-8.923 9.639-15.449v-7.985c0-6.525-3.783-12.589-9.639-15.449-13.613-6.648-48.047-22.112-73.707-22.112h-56.15c-19.153 0-39.446 10.544-50.051 28.966-4.469 7.764-4.469 17.41 0 25.175 10.285 17.867 29.463 28.966 50.051 28.966zm67.125-47.517c.753.368 1.221 1.123 1.221 1.971v7.985c0 .848-.468 1.603-1.221 1.97-6.372 3.112-22.78 10.756-39.841 15.804-11.291-13.721-18.885-30.689-21.543-48.023 22.711 2.158 52.283 15.848 61.384 20.293zm-76.56-20.59c2.366 18.693 9.523 36.669 20.695 52.095-3.924.641-7.72 1.012-11.26 1.012h-33.104c-6.145-6.834-11.089-14.5-14.698-22.844-4.104-9.487-6.421-19.83-6.818-30.263zm-83.766 31.658c-1.812-3.148-1.812-7.061 0-10.209 5.314-9.231 13.834-16.01 23.673-19.273.638 11.736 3.333 23.347 7.959 34.042 2.569 5.939 5.724 11.575 9.396 16.889h-3.977c-15.239 0-29.435-8.219-37.051-21.449z"/><path d="m486.865 58.089c0-29.552-24.043-53.595-53.595-53.595s-53.595 24.042-53.595 53.595 24.043 53.595 53.595 53.595 53.595-24.043 53.595-53.595zm-53.594 38.595c-21.281 0-38.595-17.313-38.595-38.595s17.313-38.595 38.595-38.595 38.595 17.313 38.595 38.595-17.314 38.595-38.595 38.595z"/><path d="m494.691 150.642h-27c-6.893 0-12.5 5.607-12.5 12.5v336.358c0 6.893 5.607 12.5 12.5 12.5h27c6.893 0 12.5-5.607 12.5-12.5v-336.358c0-6.893-5.607-12.5-12.5-12.5zm-2.5 346.358h-22v-128.93h22zm0-143.93h-22v-19.904h22zm0-34.904h-22v-152.524h22z"/><path d="m419.176 150.642h-27c-6.893 0-12.5 5.607-12.5 12.5v336.358c0 6.893 5.607 12.5 12.5 12.5h27c6.893 0 12.5-5.607 12.5-12.5v-336.358c0-6.893-5.608-12.5-12.5-12.5zm-2.5 346.358h-22v-128.93h22zm0-143.93h-22v-19.904h22zm0-34.904h-22v-152.524h22z"/></g></svg>