<svg id="icons" xmlns="http://www.w3.org/2000/svg" viewBox="0 0 64 64"><defs><style>.cls-1{fill:none;stroke:#000;stroke-linecap:round;stroke-linejoin:round;stroke-width:2px;}</style></defs><title>44</title><g id="coffee_beans"><ellipse class="cls-1" cx="32.27738" cy="11.52097" rx="6.48071" ry="8.18616" transform="translate(0.20672 23.60545) rotate(-40.29013)"/><path class="cls-1" d="M25.8584,6.617l.57943,1.21615A6.50622,6.50622,0,0,0,32.271,11.54324h0a6.50618,6.50618,0,0,1,5.74493,3.532l.68971,1.34111"/><ellipse class="cls-1" cx="16.3253" cy="52.47903" rx="6.48071" ry="8.18616" transform="translate(-30.06331 23.00598) rotate(-40.29013)"/><path class="cls-1" d="M9.90631,47.57509l.57944,1.21615a6.50618,6.50618,0,0,0,5.83312,3.71006h0a6.50617,6.50617,0,0,1,5.74493,3.532l.68971,1.34111"/><ellipse class="cls-1" cx="29.99644" cy="36.09581" rx="8.18616" ry="6.48071" transform="translate(-16.93416 35.63483) rotate(-49.70987)"/><path class="cls-1" d="M36.41542,31.19187,35.836,32.408a6.5062,6.5062,0,0,1-5.83312,3.71006h0a6.50618,6.50618,0,0,0-5.74493,3.532l-.68971,1.34111"/><ellipse class="cls-1" cx="12.006" cy="23.9373" rx="8.18616" ry="6.48071" transform="translate(-14.01667 17.61598) rotate(-49.70987)"/><path class="cls-1" d="M18.425,19.03336l-.57943,1.21616a6.5062,6.5062,0,0,1-5.83312,3.71h0a6.50618,6.50618,0,0,0-5.74494,3.532l-.68971,1.34111"/><ellipse class="cls-1" cx="51.994" cy="26.55433" rx="8.18616" ry="6.48071" transform="translate(-1.88346 49.04272) rotate(-49.70987)"/><path class="cls-1" d="M58.413,21.65039l-.57943,1.21615a6.50619,6.50619,0,0,1-5.83312,3.71006h0a6.50618,6.50618,0,0,0-5.74494,3.532l-.68971,1.34111"/><ellipse class="cls-1" cx="45.56577" cy="52.38812" rx="8.18616" ry="6.48071" transform="translate(-23.86031 53.26756) rotate(-49.70987)"/><path class="cls-1" d="M51.98476,47.48418l-.57944,1.21615a6.5062,6.5062,0,0,1-5.83312,3.71006h0a6.50618,6.50618,0,0,0-5.74493,3.532l-.68971,1.34111"/></g></svg>