<svg id="icons" xmlns="http://www.w3.org/2000/svg" viewBox="0 0 64 64"><defs><style>.cls-1{fill:none;stroke:#000;stroke-linecap:round;stroke-linejoin:round;stroke-width:2px;}</style></defs><title>4</title><g id="coffee_machine_1"><path class="cls-1" d="M46.65915,4H7.70118A3.34081,3.34081,0,0,0,4.36037,7.34081V56.65919A3.34081,3.34081,0,0,0,7.70118,60h38.958a2.2272,2.2272,0,0,0,2.22721-2.22721V50.23944a2.22721,2.22721,0,0,0-2.22721-2.22721H22.85578V17.3578H46.65915a2.22721,2.22721,0,0,0,2.22721-2.22721V6.22721A2.2272,2.2272,0,0,0,46.65915,4Z"/><path class="cls-1" d="M32.71854,48.007c-2.99627-2.56987-4.916-7.70961-4.916-12.92439V33.17644c0-.64973.37783-1.17644.84392-1.17644H45.22776c.46609,0,.84392.52671.84392,1.17644v1.90615c0,5.21478-1.91528,10.35452-4.91155,12.92439Z"/><path class="cls-1" d="M46.07168,34.70552c2.82071.59966,5.13668,3.35439,4.31684,5.88756a5.33432,5.33432,0,0,1-6.21418,3.28436"/><path class="cls-1" d="M30.12285,17.3578v5.51793a2.2272,2.2272,0,0,0,2.2272,2.2272h8.10806a2.22721,2.22721,0,0,0,2.22721-2.2272V17.3578"/><polyline class="cls-1" points="34.705 25.103 34.705 28.072 38.63 28.072 38.63 25.103"/><line class="cls-1" x1="42.68532" y1="21.23037" x2="50.5557" y2="21.23037"/><path class="cls-1" d="M51.5557,19.06854h6.14265a1.94129,1.94129,0,0,1,1.94129,1.94129v.44108a1.94129,1.94129,0,0,1-1.94129,1.94129H51.5557a1,1,0,0,1-1-1V20.06854a1,1,0,0,1,1-1Z"/><line class="cls-1" x1="29.00924" y1="4" x2="29.00924" y2="10.46073"/><line class="cls-1" x1="35.55389" y1="4" x2="35.55389" y2="10.46073"/><line class="cls-1" x1="42.09854" y1="4" x2="42.09854" y2="10.46073"/><line class="cls-1" x1="4.36037" y1="38.54465" x2="10.8211" y2="38.54465"/><line class="cls-1" x1="4.36037" y1="32" x2="10.8211" y2="32"/><line class="cls-1" x1="4.36037" y1="25.45535" x2="10.8211" y2="25.45535"/></g></svg>