<svg id="icons" xmlns="http://www.w3.org/2000/svg" viewBox="0 0 64 64"><defs><style>.cls-1{fill:none;stroke:#000;stroke-linecap:round;stroke-linejoin:round;stroke-width:2px;}</style></defs><title>58</title><g id="filters"><path class="cls-1" d="M24.1047,60l-18.038-22.2v-.00083a33.94784,33.94784,0,0,1,25.9337-13.05616,33.94772,33.94772,0,0,1,25.93432,13.057L39.89666,60Z"/><path class="cls-1" d="M53.36533,32.96667,57.932,27.34444a30.74948,30.74948,0,0,0-4.47778-4.77778,34.08418,34.08418,0,0,0-21.45556-8.27778,32.48476,32.48476,0,0,0-14.4,3.6,35.20769,35.20769,0,0,0-7.05556,4.67778,30.74948,30.74948,0,0,0-4.47778,4.77778L10.632,32.96667"/><path class="cls-1" d="M10.54309,22.56666,6.06531,17.05555A32.8996,32.8996,0,0,1,17.59865,7.6a32.48476,32.48476,0,0,1,14.4-3.6A33.92734,33.92734,0,0,1,57.932,17.05555l-4.47778,5.51111"/></g></svg>