<svg id="icons" xmlns="http://www.w3.org/2000/svg" viewBox="0 0 64 64"><defs><style>.cls-1{fill:none;stroke:#000;stroke-linecap:round;stroke-linejoin:round;stroke-width:2px;}</style></defs><title>59</title><g id="cake"><path class="cls-1" d="M4,40.95665H60a0,0,0,0,1,0,0V41.466a5.00984,5.00984,0,0,1-5.00984,5.00984H9.00984A5.00984,5.00984,0,0,1,4,41.466v-.50939a0,0,0,0,1,0,0Z"/><path class="cls-1" d="M21.783,55.09127H42.217a3.42665,3.42665,0,0,1,3.42665,3.42665v.34842a0,0,0,0,1,0,0H18.35634a0,0,0,0,1,0,0v-.34842A3.42665,3.42665,0,0,1,21.783,55.09127Z"/><line class="cls-1" x1="32" y1="55.09127" x2="32" y2="46.47588"/><path class="cls-1" d="M8.40673,40.95666v-10.811a4.40671,4.40671,0,0,1,4.40671-4.40671H51.18656a4.40671,4.40671,0,0,1,4.40671,4.40671v10.811"/><path class="cls-1" d="M15.01684,25.73893V16.7058c0-2.03352,1.97295-3.682,4.40671-3.682h25.1529c2.43376,0,4.40671,1.6485,4.40671,3.682v9.03313"/><circle class="cls-1" cx="34.39347" cy="9.07872" r="3.94506"/><circle class="cls-1" cx="28.13567" cy="10.54959" r="2.47419"/><path class="cls-1" d="M8.40673,31.50935,11.01,33.25886a8.19021,8.19021,0,0,0,8.30335.4913l.5586-.28622a8.19021,8.19021,0,0,1,7.59486.06542l.51528.27534a8.19022,8.19022,0,0,0,7.96123-.13425h0a8.1902,8.1902,0,0,1,7.63013-.30165l1.19182.569a8.19019,8.19019,0,0,0,8.09727-.59328l2.73076-1.83521"/><path class="cls-1" d="M15.01684,17.75038l1.87388,1.7495a4.53479,4.53479,0,0,0,5.977.49131l.40209-.28623a4.46915,4.46915,0,0,1,5.467.06543l.37091.27534a4.49409,4.49409,0,0,0,5.73074-.13425h0a4.47946,4.47946,0,0,1,5.49241-.30164l.8579.569a4.53051,4.53051,0,0,0,5.82867-.59328l1.96568-1.83521"/></g></svg>