<svg id="Capa_1" enable-background="new 0 0 512 512" height="512" viewBox="0 0 512 512" width="512" xmlns="http://www.w3.org/2000/svg"><g><path d="m498.571 350.615h-34.419v-5.158c0-8.876-7.221-16.097-16.097-16.097h-3.618v-22.25c0-8.876-7.221-16.097-16.097-16.097h-41.987c4.185-9.902 6.306-21.494 6.306-34.642 0-38.394-25.165-61.974-45.385-80.921-25.796-24.172-38.324-38.07-18.295-65.675 4.815-6.636 2.241-11.608.91-13.438-6.057-8.326-23.909-4.684-37.819-.161-5.499 1.788-14.526 5.132-23.849 10.295-8.554-3.572-19.202-6.272-29.31-7.376-9.798-1.07-23.571-1.16-33.562 4.485-7.034 3.977-11.122 10.165-11.82 17.894-1.03 11.354 7.45 19.827 15.652 28.022 2.621 2.619 5.297 5.294 7.793 8.131-36.961 30.998-55.676 64.126-55.676 98.744 0 13.147 2.121 24.74 6.306 34.642h-25.444v-198.821c0-8.63-7.021-15.65-15.65-15.65h-87.41c-21.56 0-39.1 17.545-39.1 39.11v25.17c0 4.143 3.357 7.5 7.5 7.5s7.5-3.357 7.5-7.5v-25.17c0-13.295 10.811-24.11 24.1-24.11h87.41c.358 0 .65.292.65.65v198.821h-1.539c-8.876 0-16.097 7.221-16.097 16.097v22.25h-3.618c-8.876 0-16.097 7.221-16.097 16.097v5.158h-34.419c-7.404 0-13.428 6.024-13.428 13.429v21.397c0 7.404 6.023 13.429 13.428 13.429h34.42v37.021h-50.71c-13.289 0-24.1-10.811-24.1-24.1v-235.97c0-4.143-3.357-7.5-7.5-7.5s-7.5 3.357-7.5 7.5v235.97c0 21.56 17.54 39.1 39.1 39.1h51.837c2.926 8.813 11.241 15.189 21.024 15.189h330.042c12.214 0 22.15-9.937 22.15-22.15v-45.061h34.419c7.404 0 13.429-6.024 13.429-13.429v-21.397c-.001-7.404-6.025-13.428-13.43-13.428zm-278.787-211.73c-6.283-6.278-11.71-11.7-11.314-16.059 1.176-13.033 30.854-9.574 44.297-5.838-9.233 7.861-14.684 16.521-15.969 25.432-2.767 1.949-5.446 3.908-8.062 5.875-2.986-3.444-6.09-6.552-8.952-9.41zm-43.484 117.486c0-33.329 20.882-65.773 62.081-96.561.76 2.625 1.73 5.143 2.877 7.561 8.587 30.811 16.127 64.403-1.284 75.488-3.494 2.225-4.522 6.86-2.298 10.354 2.224 3.493 6.858 4.523 10.354 2.298 19.281-12.276 19.664-36.969 15.318-60.878 2.371 2.168 4.76 4.275 7.103 6.34 19.356 17.06 30.931 28.487 25.212 47.653-1.185 3.969 1.073 8.147 5.042 9.331 3.951 1.18 8.142-1.055 9.331-5.042 13.409-44.935-39.952-61.449-55.104-91.722-3.692-7.376-3.264-13.287-3.431-14.723 0-19.621 41.145-37.374 61.593-39.944-9.689 15.607-11.56 30.047-5.739 43.979 5.556 13.299 17.266 24.272 29.664 35.89 19.98 18.723 40.642 38.083 40.642 69.976 0 14.168-2.643 25.543-8.049 34.642h-185.264c-5.405-9.099-8.048-20.474-8.048-34.642zm-119.338 127.498v-18.255h32.848v18.255zm392.19 60.061c0 3.942-3.208 7.15-7.15 7.15h-330.042c-3.942 0-7.15-3.208-7.15-7.15v-98.474c0-.604.492-1.097 1.097-1.097h223.948c4.143 0 7.5-3.357 7.5-7.5s-3.357-7.5-7.5-7.5h-205.33v-22.25c0-.604.492-1.097 1.097-1.097h302.72c.604 0 1.097.492 1.097 1.097v22.25h-64.583c-4.143 0-7.5 3.357-7.5 7.5s3.357 7.5 7.5 7.5h83.201c.604 0 1.097.492 1.097 1.097v98.474zm47.848-60.061h-32.848v-18.255h32.848z"/><path d="m371.285 124.997c0 13.844-6.446 16.168-10.687 27.68-1.432 3.887.559 8.198 4.446 9.63 3.879 1.427 8.195-.55 9.63-4.446.981-2.665 2.332-4.865 3.896-7.413 3.438-5.6 7.715-12.568 7.715-25.45 0-23.394-13.213-25.061-13.213-43.052 0-12.846 5.512-15.656 9.819-25.522 1.658-3.796-.076-8.217-3.872-9.874-3.796-1.659-8.217.075-9.874 3.872-3.411 7.811-11.073 14.132-11.073 31.524 0 23.396 13.213 25.059 13.213 43.051z"/><path d="m411.108 124.997c0 13.833-6.45 16.178-10.687 27.68-1.432 3.887.56 8.198 4.446 9.63 3.895 1.432 8.201-.565 9.63-4.446.981-2.666 2.332-4.866 3.896-7.414 3.437-5.6 7.714-12.568 7.714-25.449 0-23.394-13.213-25.061-13.213-43.052 0-12.853 5.504-15.638 9.819-25.521 1.658-3.796-.075-8.217-3.871-9.875s-8.216.076-9.875 3.871c-3.411 7.812-11.073 14.131-11.073 31.525.002 23.396 13.214 25.059 13.214 43.051z"/><path d="m450.932 124.997c0 13.833-6.45 16.178-10.687 27.68-1.432 3.887.56 8.198 4.446 9.63 3.895 1.432 8.201-.565 9.63-4.446 3.19-8.667 11.61-14.538 11.61-32.863 0-23.394-13.213-25.061-13.213-43.052 0-12.853 5.504-15.638 9.819-25.521 1.658-3.796-.075-8.217-3.871-9.875-3.797-1.658-8.217.076-9.875 3.871-3.411 7.812-11.073 14.131-11.073 31.525.001 23.396 13.214 25.059 13.214 43.051z"/></g></svg>