<svg id="icons" xmlns="http://www.w3.org/2000/svg" viewBox="0 0 64 64"><defs><style>.cls-1{fill:none;stroke:#000;stroke-linecap:round;stroke-linejoin:round;stroke-width:2px;}</style></defs><title>61</title><g id="coffee_1"><rect class="cls-1" x="6" y="55.29223" width="48.59235" height="4.70778" rx="2.15619"/><path class="cls-1" d="M12.19186,24.01758V36.73051a16.7847,16.7847,0,0,0,3.077,9.68407L16.498,48.15484a16.89125,16.89125,0,0,0,13.79816,7.13739h0a16.89126,16.89126,0,0,0,13.79816-7.13739l1.22918-1.74026a16.7847,16.7847,0,0,0,3.077-9.68407V24.01758a1.09343,1.09343,0,0,0-1.09517-1.09168H13.287A1.09343,1.09343,0,0,0,12.19186,24.01758Z"/><line class="cls-1" x1="48.40049" y1="28.49653" x2="12.19186" y2="28.49653"/><path class="cls-1" d="M47.30532,22.9259h2.57729A8.10451,8.10451,0,0,1,58,31.01747v0a8.10452,8.10452,0,0,1-8.11739,8.09158H48.23"/><path class="cls-1" d="M14.72442,22.9259s.43928-6.91177,6.677-6.91177h6.23769"/><path class="cls-1" d="M23.24634,16.01413s-.04041-.03766-.10911-.10912a4.359,4.359,0,0,1,3.21342-7.33479h6.46087a2.38779,2.38779,0,0,0,2.29583-3.208q-.01306-.03048-.02706-.06055a.89174.89174,0,0,1,.82957-1.3003c3.27531.17819,7.732,1.37618,6.40043,6.77587a6.0044,6.0044,0,0,1-5.879,4.44867h-.00668s9.75188-1.23943,9.75188,7.7"/></g></svg>