<svg id="icons" xmlns="http://www.w3.org/2000/svg" viewBox="0 0 64 64"><defs><style>.cls-1{fill:none;stroke:#000;stroke-linecap:round;stroke-linejoin:round;stroke-width:2px;}</style></defs><title>36</title><g id="cezve_2"><path class="cls-1" d="M39.01417,52.742h0a7.258,7.258,0,0,0-.33633-2.18383l-8.03946-25.481h-14.708L7.891,50.55819A7.258,7.258,0,0,0,7.55463,52.742h0A7.258,7.258,0,0,0,14.8126,60H31.7562A7.258,7.258,0,0,0,39.01417,52.742Z"/><line class="cls-1" x1="7.55463" y1="52.74202" x2="39.01417" y2="52.74202"/><polyline class="cls-1" points="30.638 25.077 32.749 20.329 13.819 20.329 15.93 25.077"/><path class="cls-1" d="M32.24419,30.16681l20.59054-8.83007a2.58922,2.58922,0,0,1,3.387,1.3291h0A2.58922,2.58922,0,0,1,54.696,26.1653L33.29934,33.51109"/><ellipse class="cls-1" cx="23.28415" cy="38.90961" rx="6.71293" ry="5.3144" transform="translate(-21.4522 31.50906) rotate(-49.70987)"/><path class="cls-1" d="M28.54794,34.88821l-.47516.99729a5.3353,5.3353,0,0,1-4.78336,3.04237h0a5.33528,5.33528,0,0,0-4.711,2.89635L18.01278,42.924"/><path class="cls-1" d="M24.86116,4l-.80153.91607a4.28673,4.28673,0,0,0-.98375,4.01117,4.46871,4.46871,0,0,0,.19523.52461h0a4.467,4.467,0,0,1,.19524.52461,4.28676,4.28676,0,0,1-.98375,4.01117l-.80153.91607"/><path class="cls-1" d="M19.82628,5.2736l-.62549.71486a3.25128,3.25128,0,0,0-.85638,2.5435,3.42278,3.42278,0,0,0,.26327.91989h0a3.422,3.422,0,0,1,.26327.91989,3.25127,3.25127,0,0,1-.85637,2.5435l-.6255.71486"/><path class="cls-1" d="M29.17163,5.2736l-.62549.71486a3.25128,3.25128,0,0,0-.85638,2.5435,3.42278,3.42278,0,0,0,.26327.91989h0a3.42243,3.42243,0,0,1,.26328.91989,3.25132,3.25132,0,0,1-.85638,2.5435l-.6255.71486"/></g></svg>