<svg id="icons" xmlns="http://www.w3.org/2000/svg" viewBox="0 0 64 64"><defs><style>.cls-1{fill:none;stroke:#000;stroke-linecap:round;stroke-linejoin:round;stroke-width:2px;}</style></defs><title>56</title><g id="icecream_2"><path class="cls-1" d="M34.83393,48.57089v3.84634a2.52759,2.52759,0,0,0,2.52759,2.52759h5.275a2.52759,2.52759,0,0,1,2.52759,2.5276h0A2.52759,2.52759,0,0,1,42.6365,60H21.3635a2.52759,2.52759,0,0,1-2.52759-2.52759h0a2.52759,2.52759,0,0,1,2.52759-2.5276h5.275a2.52759,2.52759,0,0,0,2.52759-2.52759V48.57089"/><path class="cls-1" d="M11.44883,25.01039c0,13.0121,9.20107,23.5605,20.55117,23.5605s20.55117-10.5484,20.55117-23.5605Z"/><path class="cls-1" d="M13.14463,19.6581a10.0825,10.0825,0,0,0,1.53108,5.35229H31.87777a8.19054,8.19054,0,0,0,.55324-.99064A10.116,10.116,0,0,0,25.47036,9.77689a9.49979,9.49979,0,0,0-2.18718-.24446A10.1308,10.1308,0,0,0,13.14463,19.6581Z"/><path class="cls-1" d="M31.87777,25.01039H50.08335a10.14353,10.14353,0,0,0-9.36653-14.0112A10.13286,10.13286,0,0,0,32.431,15.29644a10.2165,10.2165,0,0,1,0,8.72331A8.19054,8.19054,0,0,1,31.87777,25.01039Z"/><path class="cls-1" d="M25.47036,9.77689A10.13893,10.13893,0,0,1,32.431,15.29644a10.12362,10.12362,0,0,1,12.02983-3.57675A10.13656,10.13656,0,0,0,27.94072,6.50883,9.98567,9.98567,0,0,0,25.47036,9.77689Z"/></g></svg>