<svg id="Capa_1" enable-background="new 0 0 512 512" height="512" viewBox="0 0 512 512" width="512" xmlns="http://www.w3.org/2000/svg"><g><path d="m81.592 208.561c4.648-5.219 8.729-12.004 11.819-19.705 4.606-11.494 9.944-34.922 13.613-52.564 1.131-5.484-1.175-10.992-5.876-14.031-4.698-3.038-10.663-2.88-15.194.397l-24.806 17.935v-20.428c14.397-3.399 25.147-16.346 25.147-31.766 0-9.154-7.456-25.748-22.161-49.321-2.273-3.644-6.192-5.819-10.483-5.819-4.291.001-8.21 2.176-10.482 5.819-14.703 23.573-22.159 40.167-22.159 49.321 0 15.418 10.746 28.366 25.139 31.765v21.665l-24.797-17.929c-4.537-3.28-10.504-3.434-15.202-.392-4.699 3.043-7 8.551-5.863 14.033 3.647 17.58 8.968 40.97 13.608 52.557 7.223 18.041 18.726 29.4 32.253 32.239v19.004l-24.796-17.929c-4.537-3.28-10.504-3.434-15.202-.392-4.699 3.043-7 8.551-5.863 14.033 3.647 17.58 8.968 40.97 13.608 52.557 7.223 18.041 18.726 29.4 32.253 32.239v19.005l-24.797-17.93c-4.537-3.279-10.504-3.432-15.202-.391-4.698 3.043-6.999 8.551-5.862 14.032 3.647 17.58 8.968 40.969 13.608 52.558 7.224 18.04 18.726 29.399 32.253 32.238v49.876c0 4.143 3.358 7.5 7.5 7.5s7.5-3.357 7.5-7.5v-50.146c15.494-3.703 26.507-18.825 32.263-33.216 4.615-11.518 9.949-34.936 13.613-52.564 1.131-5.483-1.175-10.991-5.875-14.03-4.697-3.037-10.663-2.882-15.196.397l-24.806 17.938v-18.037c8.291-1.981 15.498-6.868 20.454-13.522 4.644-5.218 8.722-11.998 11.809-19.692 4.615-11.518 9.949-34.936 13.613-52.564 1.131-5.484-1.175-10.992-5.876-14.031-4.696-3.037-10.662-2.881-15.193.397l-24.807 17.932v-18.033c8.287-1.978 15.489-6.859 20.445-13.505zm9.926-71.415c-2.915 13.748-5.66 25.247-8.064 33.838-1.932-2.812-4.354-5.328-7.222-7.402l-10.639-7.693zm-55.508-48.747c0-4.151 4.673-16.453 17.643-37.742 12.97 21.287 17.643 33.59 17.643 37.742 0 9.73-7.917 17.645-17.647 17.645-9.726 0-17.639-7.915-17.639-17.645zm-8.19 96.124c-3.121-7.794-7.367-24.094-12.029-46.134l51.653 37.348c4.061 2.938 6.378 7.568 6.196 12.388l-.011.262c-.198 3.977-1.543 7.66-3.699 10.741-.21.244-.401.497-.575.759-3.712 4.821-9.478 7.995-15.951 8.154-.153.004-.303.006-.454.006-14.167 0-22.281-16.41-25.13-23.524zm25.584 222.544c-14.49.356-22.705-16.327-25.584-23.517-3.121-7.795-7.368-24.095-12.03-46.134l51.653 37.348c4.061 2.938 6.378 7.568 6.196 12.39l-.011.26c-.529 10.637-9.373 19.387-20.224 19.653zm38.115-70.898c-2.913 13.746-5.658 25.246-8.064 33.842-4.556-6.631-9.205-8.42-17.862-15.096zm-38.115-28.615c-14.49.334-22.705-16.328-25.584-23.518-3.121-7.794-7.367-24.094-12.029-46.134l51.653 37.348c4.061 2.938 6.378 7.568 6.196 12.388l-.011.262c-.534 10.729-9.461 19.389-20.225 19.654zm38.115-70.898c-2.913 13.746-5.658 25.247-8.064 33.842-1.932-2.812-4.354-5.329-7.222-7.402l-10.644-7.696z"/><path d="m362.316 349.307c1.919 0 3.839-.732 5.303-2.196l4.964-4.964c2.929-2.93 2.929-7.678 0-10.608-2.929-2.928-7.678-2.928-10.607 0l-4.964 4.964c-2.929 2.93-2.929 7.678 0 10.608 1.465 1.463 3.384 2.196 5.304 2.196z"/><path d="m265.531 202.106c1.919 0 3.839-.732 5.303-2.196l4.964-4.964c2.929-2.93 2.929-7.678 0-10.608-2.929-2.928-7.678-2.928-10.607 0l-4.964 4.964c-2.929 2.93-2.929 7.678 0 10.608 1.465 1.464 3.384 2.196 5.304 2.196z"/><path d="m219.417 313.213-4.964 4.964c-2.929 2.93-2.929 7.678 0 10.608 1.464 1.464 3.384 2.196 5.303 2.196s3.839-.732 5.303-2.196l4.964-4.964c2.929-2.93 2.929-7.678 0-10.608-2.928-2.928-7.677-2.928-10.606 0z"/><path d="m326.233 193.189c1.919 0 3.839-.732 5.303-2.196 2.929-2.93 2.929-7.678 0-10.608l-4.964-4.964c-2.929-2.928-7.678-2.928-10.607 0-2.929 2.93-2.929 7.678 0 10.608l4.964 4.964c1.465 1.464 3.384 2.196 5.304 2.196z"/><path d="m297.045 367.731c-2.929 2.929-2.929 7.678 0 10.607l4.963 4.964c1.465 1.465 3.384 2.197 5.304 2.197 1.919 0 3.839-.732 5.303-2.196 2.929-2.929 2.929-7.678 0-10.607l-4.963-4.964c-2.929-2.93-7.678-2.929-10.607-.001z"/><path d="m411.163 293.271-4.964-4.963c-2.929-2.928-7.678-2.929-10.607.001-2.929 2.929-2.928 7.678.001 10.607l4.964 4.963c1.464 1.464 3.384 2.196 5.303 2.196s3.839-.732 5.304-2.197c2.928-2.93 2.928-7.679-.001-10.607z"/><path d="m366.556 249.512c-1.48-6.391-6.565-11.477-12.956-12.955-16.769-3.882-33.945-.546-47.778 8.925-14.94-17.674-37.894-24.99-59.897-19.892-6.402 1.477-11.49 6.567-12.96 12.955-4.748 20.501 1.29 41.621 16.156 56.5 8.663 8.653 19.734 14.434 31.675 16.665l-7.396 7.396c-2.929 2.93-2.929 7.678 0 10.608 1.464 1.464 3.384 2.196 5.303 2.196s3.839-.732 5.303-2.196l8.021-8.021c20.879 5.523 43.264-.583 58.369-15.687 14.866-14.866 20.907-35.986 16.16-56.494zm-118.975-7.593c.194-.845.868-1.518 1.723-1.715 16.745-3.878 34.107 1.8 45.28 15.209-9.951 11.267-15.238 25.831-15.159 40.583-7.394-2.108-14.194-6.061-19.697-11.559-11.181-11.189-15.723-27.08-12.147-42.518zm57.504 66.716 23.969-23.969c2.929-2.93 2.929-7.678 0-10.608-2.928-2.928-7.677-2.928-10.607 0l-23.969 23.969c-.667-12.728 4.004-25.473 13.234-34.703 11.182-11.182 27.074-15.722 42.505-12.154.851.197 1.527.874 1.724 1.725 3.571 15.433-.971 31.323-12.153 42.505-9.23 9.232-21.975 13.904-34.703 13.235z"/><path d="m503.196 102.544c-6.699-6.7-15.376-9.739-24.437-8.564-8.379 1.09-16.841 5.699-24.471 13.329-4.981 4.982-13.473 15.136-25.862 30.926-33.411-28.76-75.731-44.51-120.074-44.51-31.948 0-63.434 8.314-91.053 24.042-3.6 2.05-4.856 6.63-2.806 10.23s6.63 4.857 10.229 2.806c25.362-14.444 54.281-22.077 83.63-22.077 40.907 0 79.937 14.595 110.687 41.227-4.76 5.501-11.498 12.713-19.128 20.614-25.554-21.847-57.784-33.801-91.559-33.801-77.859 0-141.202 63.343-141.202 141.202s63.343 141.202 141.203 141.202c31.449 0 61.23-10.157 86.124-29.374 3.279-2.53 3.885-7.24 1.354-10.52-2.531-3.278-7.241-3.886-10.52-1.354-22.244 17.17-48.856 26.247-76.958 26.247-69.588 0-126.202-56.614-126.202-126.202s56.614-126.202 126.202-126.202c29.841 0 58.332 10.448 81.046 29.558-5.993 6.068-12.206 12.261-18.222 18.189l-4.975-5.545c-2.767-3.082-7.508-3.339-10.591-.573s-3.34 7.508-.574 10.591l43.98 49.019c2.767 3.083 7.508 3.34 10.591.573 3.083-2.766 3.34-7.508.574-10.591l-5.844-6.514c5.266-5.357 10.747-10.876 16.182-16.279 9.2 17.799 14.035 37.584 14.035 57.774 0 27.925-8.971 54.399-25.944 76.561-2.519 3.289-1.895 7.996 1.394 10.515 1.36 1.042 2.964 1.546 4.555 1.546 2.254 0 4.483-1.012 5.96-2.94 18.996-24.802 29.036-54.431 29.036-85.682 0-24.144-6.182-47.776-17.904-68.733 7.819-7.615 15.11-14.52 20.978-19.765 16.355 26.571 24.966 56.989 24.966 88.498 0 93.316-75.922 169.233-169.242 169.233-93.315 0-169.233-75.917-169.233-169.233 0-48.994 21.214-95.551 58.204-127.733 3.125-2.719 3.454-7.456.735-10.581-2.718-3.125-7.456-3.453-10.581-.735-40.265 35.033-63.358 85.714-63.358 139.05 0 101.587 82.646 184.233 184.233 184.233 101.592 0 184.243-82.647 184.243-184.233 0-35.012-9.763-68.795-28.301-98.152 17.636-13.766 28.821-23.06 34.135-28.366 17.56-17.561 16.894-36.777 4.765-48.906zm-15.369 38.295c-3.527 3.522-12.664 11.549-36.164 29.8-13.396 10.404-42.713 39.764-57.362 54.648l-13.097-14.598c68.779-67.741 65.143-74.223 83.691-92.772 8.438-8.439 19.292-13.171 27.693-4.766 8.409 8.406 3.648 19.278-4.761 27.688z"/></g></svg>