<svg id="icons" xmlns="http://www.w3.org/2000/svg" viewBox="0 0 64 64"><defs><style>.cls-1{fill:none;stroke:#000;stroke-linecap:round;stroke-linejoin:round;stroke-width:2px;}</style></defs><title>40</title><g id="beer"><g id="beer_botle_1" data-name="beer botle 1"><path class="cls-1" d="M36.71338,18.74963V9.11974H27.31012v9.6107A6.6519,6.6519,0,0,1,25.4045,23.303l-.01725.01816a10.05935,10.05935,0,0,0-2.74355,6.977V56.95688A2.96474,2.96474,0,0,0,25.52794,60H38.47209a2.96473,2.96473,0,0,0,2.88423-3.04312V30.29822a10.12189,10.12189,0,0,0-2.87359-7.121A6.29745,6.29745,0,0,1,36.71338,18.74963Z"/><path class="cls-1" d="M36.60782,46.55315c0,3.4143-2.0753,6.173-4.643,6.173A4.19058,4.19058,0,0,1,28.67016,50.92a7.2632,7.2632,0,0,1-1.36-4.36686V33.997c0-3.40191,2.087-6.17292,4.65468-6.17292s4.643,2.771,4.643,6.17292Z"/><path class="cls-1" d="M38.22451,5.20016V7.91958A1.17009,1.17009,0,0,1,37.087,9.11974H26.76822a1.17009,1.17009,0,0,1-1.1375-1.20016V5.20016A1.17009,1.17009,0,0,1,26.76822,4H37.087A1.17009,1.17009,0,0,1,38.22451,5.20016Z"/><line class="cls-1" x1="41.35635" y1="35.2712" x2="36.60783" y2="35.2712"/><line class="cls-1" x1="27.31012" y1="35.2712" x2="22.64368" y2="35.2712"/><line class="cls-1" x1="41.35635" y1="45.10583" x2="36.60783" y2="45.10583"/><line class="cls-1" x1="27.31012" y1="45.10583" x2="22.64368" y2="45.10583"/></g><g id="beer_botle_1-2" data-name="beer botle 1"><path class="cls-1" d="M53.8401,20.3124V11.69879H45.49677v8.58669A5.82334,5.82334,0,0,1,43.806,24.28334l-.01531.01611a8.92546,8.92546,0,0,0-2.4343,6.1906v23.6537a2.63055,2.63055,0,0,0,2.55913,2.7001H55.40056a2.63055,2.63055,0,0,0,2.55913-2.7001V30.49005a8.989,8.989,0,0,0-2.43576-6.20037A5.81085,5.81085,0,0,1,53.8401,20.3124Z"/><path class="cls-1" d="M53.74644,44.91273c0,3.02944-1.84137,5.47718-4.11966,5.47718a3.71823,3.71823,0,0,1-2.92328-1.60255,6.44457,6.44457,0,0,1-1.20673-3.87463V33.77192c0-3.01846,1.85179-5.47711,4.13-5.47711s4.11966,2.45865,4.11966,5.47711Z"/><path class="cls-1" d="M55.1809,8.221v2.41288a1.03821,1.03821,0,0,1-1.00929,1.06488H45.01595a1.0382,1.0382,0,0,1-1.00928-1.06488V8.221a1.0382,1.0382,0,0,1,1.00928-1.06488h9.15566A1.03821,1.03821,0,0,1,55.1809,8.221Z"/><line class="cls-1" x1="57.95971" y1="34.90247" x2="53.74645" y2="34.90247"/><line class="cls-1" x1="45.49677" y1="34.90247" x2="41.35632" y2="34.90247"/><line class="cls-1" x1="57.95971" y1="43.62855" x2="53.74645" y2="43.62855"/><line class="cls-1" x1="45.49677" y1="43.62855" x2="41.35632" y2="43.62855"/></g><g id="beer_botle_1-3" data-name="beer botle 1"><path class="cls-1" d="M18.52406,20.3124V11.69879H10.18073v8.58669a5.8233,5.8233,0,0,1-1.69082,3.99786l-.01531.01611a8.9255,8.9255,0,0,0-2.43429,6.1906v23.6537a2.63055,2.63055,0,0,0,2.55913,2.7001H20.08453a2.63055,2.63055,0,0,0,2.55913-2.7001V30.49005a8.989,8.989,0,0,0-2.43577-6.20037A5.81085,5.81085,0,0,1,18.52406,20.3124Z"/><path class="cls-1" d="M18.4304,44.91273c0,3.02944-1.84137,5.47718-4.11966,5.47718a3.71821,3.71821,0,0,1-2.92327-1.60255,6.44451,6.44451,0,0,1-1.20674-3.87463V33.77192c0-3.01846,1.85179-5.47711,4.13-5.47711s4.11966,2.45865,4.11966,5.47711Z"/><path class="cls-1" d="M19.86486,8.221v2.41288a1.0382,1.0382,0,0,1-1.00928,1.06488H9.69991a1.0382,1.0382,0,0,1-1.00928-1.06488V8.221A1.0382,1.0382,0,0,1,9.69991,7.15615h9.15567A1.0382,1.0382,0,0,1,19.86486,8.221Z"/><line class="cls-1" x1="22.64368" y1="34.90247" x2="18.43041" y2="34.90247"/><line class="cls-1" x1="10.18073" y1="34.90247" x2="6.04029" y2="34.90247"/><line class="cls-1" x1="22.64368" y1="43.62855" x2="18.43041" y2="43.62855"/><line class="cls-1" x1="10.18073" y1="43.62855" x2="6.04029" y2="43.62855"/></g></g></svg>