<?xml version="1.0" encoding="UTF-8"?><svg id="Line" xmlns="http://www.w3.org/2000/svg" viewBox="0 0 64 64"><path d="M5.17969,40.92578c-.57227,0-1.11914-.3291-1.36914-.88574-.20898-.46484-.31055-.9082-.31055-1.35449,0-.80469.29199-1.58203.82129-2.18848L30.90039,6.12109c1.23633-1.41406,3.2793-1.97461,5.07324-1.37695l19.50098,6.49902c.78516.26172,1.20996,1.11133.94824,1.89746-.26172.78516-1.1084,1.20996-1.89746.94824l-19.50098-6.49902c-.6582-.21973-1.41113-.0127-1.86621.50684L6.58008,38.47168c-.05176.05957-.08008.13477-.08008.21387v-.00098c.00098,0,.00781.03906.04688.12695.33984.75586.00195,1.64355-.75391,1.98242-.19922.08984-.4082.13184-.61328.13184Z" style="fill:#293a4c; stroke-width:0px;"/><ellipse cx="18.70158" cy="35.73308" rx="2.17451" ry="1.67707" transform="translate(-20.77333 27.46663) rotate(-50.54643)" style="fill:#293a4c; stroke-width:0px;"/><ellipse cx="24.64025" cy="28.5172" rx="2.17451" ry="1.67707" transform="translate(-13.03673 29.42158) rotate(-50.54643)" style="fill:#293a4c; stroke-width:0px;"/><ellipse cx="30.57892" cy="21.30133" rx="2.17451" ry="1.67707" transform="translate(-5.30014 31.37654) rotate(-50.54643)" style="fill:#293a4c; stroke-width:0px;"/><ellipse cx="36.51759" cy="14.08545" rx="2.17451" ry="1.67707" transform="translate(2.43645 33.33149) rotate(-50.54643)" style="fill:#293a4c; stroke-width:0px;"/><ellipse cx="29.41181" cy="40.87746" rx="2.17451" ry="1.67707" transform="translate(-20.94695 40.75006) rotate(-54.11959)" style="fill:#293a4c; stroke-width:0px;"/><ellipse cx="34.88922" cy="33.30549" rx="2.17451" ry="1.67707" transform="translate(-12.5447 42.05401) rotate(-54.11959)" style="fill:#293a4c; stroke-width:0px;"/><ellipse cx="40.36663" cy="25.73351" rx="2.17451" ry="1.67707" transform="translate(-4.14244 43.35797) rotate(-54.11959)" style="fill:#293a4c; stroke-width:0px;"/><ellipse cx="45.84404" cy="18.16154" rx="2.17451" ry="1.67707" transform="translate(4.25982 44.66192) rotate(-54.11959)" style="fill:#293a4c; stroke-width:0px;"/><path d="M38.1123,59.50195c-.36426,0-.73438-.05762-1.09668-.17578l-29.25488-10.08789c-.74316-.25488-1.86914-.6416-4.03809-9.4541-.18555-.75293.2334-1.52246.96582-1.77637.47461-.16309.97852-.07715,1.36133.19727,1.73242.84277,19.1748,7.08105,29.92676,10.87305.19727.06641.44043-.02246.5625-.22559l.01465-.02344c8.05859-12.87012,20.22266-32.38184,21.05566-33.94727.22168-.5498.76074-.9375,1.39062-.9375.82812,0,1.5.67188,1.5,1.5v11.14551c0,.2832-.08008.55957-.23047.7998l-19.16992,30.44043c-.64941,1.05859-1.79004,1.6709-2.9873,1.67188ZM9.01758,46.49805l28.95215,9.98438c.20703.06445.45312-.02832.58105-.23633l18.94922-30.08887v-5.29395c-2.77441,4.54785-8.11719,13.12988-18.39648,29.54688-.85352,1.40723-2.53613,2.02539-4.09961,1.50684-16.2168-5.71973-23.90625-8.49316-27.60449-9.95117.7373,2.5957,1.31641,4.0459,1.61816,4.53223ZM9.10645,46.62305s-.00098,0,0,0h0ZM8.73633,46.40137l.00391.00098c-.00098,0-.00195,0-.00391-.00098ZM6.54492,38.80566c0,.00098,0,.00195.00098.00293-.00098-.00098-.00098-.00195-.00098-.00293ZM6.54297,38.80273c0,.00098.00098.00098.00098.00195,0-.00098-.00098-.00098-.00098-.00195ZM6.54199,38.7998q0,.00098.00098.00195-.00098-.00098-.00098-.00195Z" style="fill:#293a4c; stroke-width:0px;"/></svg>