<svg xmlns="http://www.w3.org/2000/svg" viewBox="0 0 40.71 84.67"><defs><style>.cls-1,.cls-2,.cls-3{fill:none;}.cls-1,.cls-2,.cls-3,.cls-4{stroke:#000;stroke-miterlimit:10;}.cls-1,.cls-3{stroke-linecap:round;}.cls-1{stroke-width:2.57px;}.cls-2,.cls-3{stroke-width:2.46px;}.cls-4{stroke-width:0.99px;}</style></defs><g id="Layer_2" data-name="Layer 2"><g id="Layer_1-2" data-name="Layer 1"><path class="cls-1" d="M31.4,25.76l4.28-6.58a.81.81,0,0,1,1.12-.24l2.25,1.47a.8.8,0,0,1,.24,1.11L30.64,34.81"/><path d="M15.54,13l-1.72.6a1,1,0,0,1-.78,0,1,1,0,0,1-.52-.58,1,1,0,0,1,.62-1.3l1.72-.6A1,1,0,0,1,15.54,13Z"/><path d="M8.25,17.66l-1.77.46a1.09,1.09,0,0,1-.26,0,1,1,0,0,1-1-.75h0a1,1,0,0,1,.11-.77A1,1,0,0,1,6,16.15l1.77-.46a1,1,0,1,1,.51,2Z"/><path d="M27.34,19.09h0a1.05,1.05,0,0,1-.7.35h-.07a1,1,0,0,1-.67-.25L24.52,18a1,1,0,0,1-.11-1.43h0a1,1,0,0,1,1.43-.1l1.38,1.19A1,1,0,0,1,27.34,19.09Z"/><path d="M20.57,16.11h0a1,1,0,0,1-.91,1.11l-1.82.18h-.1a1,1,0,0,1-1-.92h0a1,1,0,0,1,.91-1.1l1.82-.18A1,1,0,0,1,20.57,16.11Z"/><path d="M12.76,17.45l-1,1.5a1,1,0,0,1-1.41.26h0A1,1,0,0,1,10,17.79l1-1.5A1,1,0,0,1,12.49,16h0A1,1,0,0,1,12.76,17.45Z"/><path d="M11.33,14.06a1,1,0,0,1-2,.4,1,1,0,0,1,.23-1.14,1,1,0,0,1,1.13-.22A1,1,0,0,1,11.33,14.06Z"/><path d="M24,14.41a1.26,1.26,0,1,1-.78-1.17A1.28,1.28,0,0,1,24,14.41Z"/><path d="M25,20.08a1.22,1.22,0,0,1-.76,1.13,1.22,1.22,0,0,1-1.59-1.59,1.22,1.22,0,0,1,1.13-.76A1.23,1.23,0,0,1,25,20.08Z"/><path d="M22.89,27a.37.37,0,0,1,.14.29V32a2.32,2.32,0,0,0,1.2,2,4.06,4.06,0,0,1,1.44-.26l.2,0a4.69,4.69,0,0,1,1.17-.2A2.3,2.3,0,0,0,27.68,32V23a.28.28,0,0,1,.28-.29.29.29,0,0,1,.28.29v3a2.32,2.32,0,0,0,.84,1.8,2.38,2.38,0,0,0,1.07.49,14.16,14.16,0,0,1-2.63,5.26,3.86,3.86,0,0,1,2,.66,16.21,16.21,0,0,0-1.7-21A16,16,0,0,0,16.34,8.4,18.07,18.07,0,0,0,5,13a1,1,0,0,0,1.32,1.56,24.63,24.63,0,0,1,5.27-3.39,14.3,14.3,0,0,1,19,13.51,13.41,13.41,0,0,1-.1,1.68.35.35,0,0,1-.3-.35V23.15a2.35,2.35,0,0,0-2-2.38A2.26,2.26,0,0,0,25.7,23V32A.35.35,0,1,1,25,32V27.25A2.36,2.36,0,0,0,23.25,25,7,7,0,0,0,9.36,24.1c-.17,0-.35-.16-.35-.35V21.42A2.41,2.41,0,0,0,6.93,19a2.33,2.33,0,0,0-2.57,2.31v5.27c0,.24-.43.24-.43,0v-2A2.2,2.2,0,0,0,2.16,22.4,11.64,11.64,0,0,1,3.5,18.25a1,1,0,0,0-1.73-.88c-.22.43-.44.87-.52,1.08A16.23,16.23,0,0,0,4.78,36.2,15.46,15.46,0,0,0,6.89,38a4.7,4.7,0,0,1,.43-2.16,14.24,14.24,0,0,1-5-8.08,2.19,2.19,0,0,0,4-1.18V21.28a.35.35,0,1,1,.69,0v2.47a2.32,2.32,0,0,0,1,1.91,2.38,2.38,0,0,0,1.44.41,7,7,0,0,0,13.4.87Zm-2-.37a5,5,0,1,1-1.08-5.43A5,5,0,0,1,20.9,26.59Z"/><path class="cls-2" d="M30.67,35.19l-.46,9.28H7.8l-.47-9.28a1.45,1.45,0,0,1,1.44-1.52H29.23A1.44,1.44,0,0,1,30.67,35.19Z"/><path class="cls-3" d="M29.38,60.88a29.18,29.18,0,0,0,.09,4.18l1.28,13.32a5.05,5.05,0,0,1-5.06,5.06H12.31a5.06,5.06,0,0,1-5.06-5.06L8.53,65.06a29.18,29.18,0,0,0,.09-4.18L7.8,44.47H30.21L29.63,55.9"/><path class="cls-4" d="M32.37,13.19a1.75,1.75,0,0,0,1-1.25,7.47,7.47,0,0,0,.22-1.81,7.63,7.63,0,0,0-.46-2.8l-.08-.18A.29.29,0,0,0,32.69,7a.31.31,0,0,0-.17.39,1.22,1.22,0,0,1,.07.17,7.1,7.1,0,0,1,.22,4.28,1.17,1.17,0,0,1-.81.88,8.26,8.26,0,0,1-3.58.13l-.93-.18a5.44,5.44,0,0,1-2.72-1.27A4.55,4.55,0,0,1,31,4.71a4,4,0,0,1,.55.62.3.3,0,0,0,.41.07A.3.3,0,0,0,32,5a4.63,4.63,0,0,0-.62-.7A5.11,5.11,0,0,0,27.7,2.91V2.85c0-.07,0-.14,0-.2a3.55,3.55,0,0,0-.81-2,.5.5,0,0,0-.51-.15,3.47,3.47,0,0,0-1.73,1.23,4.89,4.89,0,0,0-.33.51,4.37,4.37,0,0,0-.94-.48,3.43,3.43,0,0,0-2.12-.1.5.5,0,0,0-.35.4,3.43,3.43,0,0,0,.4,2.11,4.58,4.58,0,0,0,.51.76,4,4,0,0,0-.47.37,3.32,3.32,0,0,0-1.1,1.81.48.48,0,0,0,.18.49,3.46,3.46,0,0,0,2,.67h.27a5.14,5.14,0,0,0,1.2,3.08c.19.23.43.46.43.46a6.43,6.43,0,0,0,3,1.42c.33.08.66.14,1,.19a9.27,9.27,0,0,0,3.38,0A4.58,4.58,0,0,0,32.37,13.19Zm-7.9-9a3.72,3.72,0,0,1,0-.74,3,3,0,0,1,.61-1.34,2.88,2.88,0,0,1,1.35-1,2.86,2.86,0,0,1,.62,1.6c0,.08,0,.17,0,.26A5.23,5.23,0,0,0,24.47,4.18Zm-2.12.46a3.67,3.67,0,0,1-.53-.74,2.87,2.87,0,0,1-.34-1.68,2.86,2.86,0,0,1,1.68.11,3.47,3.47,0,0,1,.9.47,2.42,2.42,0,0,0-.14.56,4.22,4.22,0,0,0,0,1,4.3,4.3,0,0,0-1,.1A2.85,2.85,0,0,0,22.35,4.64Zm.39,3h-.27a2.89,2.89,0,0,1-1.64-.5,2.89,2.89,0,0,1,.9-1.43A3,3,0,0,1,23,5,3.71,3.71,0,0,1,23.75,5,5.1,5.1,0,0,0,22.74,7.67Z"/></g></g></svg>