<?xml version="1.0" encoding="UTF-8"?><svg id="Line" xmlns="http://www.w3.org/2000/svg" viewBox="0 0 64 64"><path d="M5.9502,60.5c-.7334,0-1.36426-.5332-1.48047-1.26562l-.95117-6c-.02832-.17676-.02441-.3584.01172-.53418l1.08105-5.29883-1.08984-6.36719c-.01465-.08301-.02148-.16797-.02148-.25293v-13.04395c0-.82812.67188-1.5,1.5-1.5s1.5.67188,1.5,1.5v12.91602l1.11621,6.51953c.03125.18262.02832.37109-.00879.55273l-1.08301,5.30762.69629,4.39648,30.59863-1.6377,5.03516-1.74316c.18359-.06348.37891-.08789.57422-.08105l9.49316.52539,4.57812-.73047v-12.18359l-1.27148-4.91504c-.04492-.17383-.05859-.35449-.04004-.5332l.69531-6.59082c.08789-.82422.82617-1.40918,1.64941-1.33496.82422.08691,1.42188.82617,1.33496,1.64941l-.66699,6.32129,1.25098,4.83691c.03223.12305.04785.24902.04785.37598v13.65332c0,.7373-.53516,1.36523-1.26367,1.48145l-6,.95801c-.10449.01758-.21094.02051-.31934.0166l-9.35938-.51855-4.95605,1.71582c-.13281.0459-.27148.07324-.41113.08105l-32.15918,1.72168c-.02734.00098-.05371.00195-.08105.00195Z" style="fill:#293a4c; stroke-width:0px;"/><path d="M12.29883,37.1543c-.16602,0-.33398-.02734-.49902-.08594-.78125-.27539-1.19141-1.13184-.91504-1.91309l.72461-2.05371c.27539-.78223,1.13281-1.19141,1.91309-.91504.78125.27539,1.19141,1.13184.91504,1.91309l-.72461,2.05371c-.2168.61621-.7959,1.00098-1.41406,1.00098Z" style="fill:#293a4c; stroke-width:0px;"/><path d="M32,42.0459c-.16602,0-.33398-.02734-.49902-.08594-.78125-.27539-1.19141-1.13184-.91504-1.91309l.72461-2.05371c.27539-.78125,1.13281-1.19141,1.91309-.91504.78125.27539,1.19141,1.13184.91504,1.91309l-.72461,2.05371c-.2168.61621-.7959,1.00098-1.41406,1.00098Z" style="fill:#293a4c; stroke-width:0px;"/><path d="M41.6377,46.93945c-.16602,0-.33398-.02734-.49902-.08594-.78125-.27539-1.19141-1.13184-.91504-1.91309l.72461-2.05371c.27441-.78125,1.13379-1.19238,1.91309-.91504.78125.27539,1.19141,1.13184.91504,1.91309l-.72461,2.05371c-.2168.61621-.7959,1.00098-1.41406,1.00098Z" style="fill:#293a4c; stroke-width:0px;"/><path d="M51.60059,48.30859c-.16602,0-.33398-.02734-.49902-.08594-.78125-.27539-1.19141-1.13184-.91504-1.91309l.72461-2.05371c.27539-.78223,1.13379-1.19238,1.91309-.91504.78125.27539,1.19141,1.13184.91504,1.91309l-.72461,2.05371c-.2168.61621-.7959,1.00098-1.41406,1.00098Z" style="fill:#293a4c; stroke-width:0px;"/><path d="M49.78809,36.44922c-.16602,0-.33398-.02734-.5-.08594-.78125-.27539-1.19043-1.13281-.91406-1.91406l.72559-2.05371c.27637-.78125,1.13086-1.19141,1.91406-.91406.78125.27539,1.19043,1.13281.91406,1.91406l-.72559,2.05371c-.21777.61523-.7959,1-1.41406,1Z" style="fill:#293a4c; stroke-width:0px;"/><path d="M39.35938,35.10059c-.16602,0-.33398-.02734-.49902-.08594-.78125-.27539-1.19141-1.13184-.91504-1.91309l.72461-2.05371c.27441-.78125,1.13281-1.19238,1.91309-.91504.78125.27539,1.19141,1.13184.91504,1.91309l-.72461,2.05371c-.2168.61621-.7959,1.00098-1.41406,1.00098Z" style="fill:#293a4c; stroke-width:0px;"/><path d="M22.97656,37.47656c-.16602,0-.33398-.02734-.49902-.08594-.78125-.27539-1.19141-1.13184-.91504-1.91309l.72461-2.05371c.27539-.78125,1.13379-1.19043,1.91309-.91504.78125.27539,1.19141,1.13184.91504,1.91309l-.72461,2.05371c-.2168.61621-.7959,1.00098-1.41406,1.00098Z" style="fill:#293a4c; stroke-width:0px;"/><path d="M17.00977,54.00684c-.16602,0-.33398-.02734-.49902-.08594-.78125-.27539-1.19141-1.13184-.91504-1.91309l.72461-2.05371c.27441-.78125,1.13379-1.19141,1.91309-.91504.78125.27539,1.19141,1.13184.91504,1.91309l-.72461,2.05371c-.2168.61621-.7959,1.00098-1.41406,1.00098Z" style="fill:#293a4c; stroke-width:0px;"/><path d="M12.66113,46.93945c-.16602,0-.33398-.02734-.49902-.08594-.78125-.27539-1.19141-1.13184-.91504-1.91309l.72461-2.05371c.27539-.78125,1.13477-1.19238,1.91309-.91504.78125.27539,1.19141,1.13184.91504,1.91309l-.72461,2.05371c-.2168.61621-.7959,1.00098-1.41406,1.00098Z" style="fill:#293a4c; stroke-width:0px;"/><path d="M24.79297,49.89941c-.16602,0-.33398-.02734-.49902-.08594-.78125-.27539-1.19141-1.13184-.91504-1.91309l.72461-2.05371c.27539-.78223,1.13477-1.19141,1.91309-.91504.78125.27539,1.19141,1.13184.91504,1.91309l-.72461,2.05371c-.2168.61621-.7959,1.00098-1.41406,1.00098Z" style="fill:#293a4c; stroke-width:0px;"/><path d="M33.92871,52.97949c-.16602,0-.33398-.02734-.49902-.08594-.78125-.27539-1.19141-1.13184-.91504-1.91309l.72461-2.05371c.27539-.78125,1.13477-1.19238,1.91309-.91504.78125.27539,1.19141,1.13184.91504,1.91309l-.72461,2.05371c-.2168.61621-.7959,1.00098-1.41406,1.00098Z" style="fill:#293a4c; stroke-width:0px;"/><path d="M4.99902,29.2373c-.64648,0-1.22559-.41602-1.42676-1.03906-.21191-.6582.05273-1.37695.64258-1.73926L41.21484,3.72168c.61621-.37891,1.41309-.2627,1.89746.27148l17,18.7793c.38477.4248.49316,1.03223.28027,1.56445s-.71094.89648-1.2832.93848l-54,3.95801c-.03711.00293-.07324.00391-.11035.00391ZM41.72363,6.93066L11.03223,25.79102l44.79395-3.2832-14.10254-15.57715Z" style="fill:#293a4c; stroke-width:0px;"/><path d="M29.88965,20.24316c-.50586,0-1-.25586-1.28223-.7207-.43066-.70801-.20605-1.63086.50195-2.06055l9.54102-5.80273c.70605-.43164,1.62988-.20703,2.06055.50195.43066.70801.20605,1.63086-.50195,2.06055l-9.54102,5.80273c-.24316.14844-.5127.21875-.77832.21875Z" style="fill:#293a4c; stroke-width:0px;"/></svg>