<svg id="Capa_1" enable-background="new 0 0 512 512" height="512" viewBox="0 0 512 512" width="512" xmlns="http://www.w3.org/2000/svg"><g><path d="m317.449 160.609c4.553-1.439 8.587-4.395 11.354-8.557l59.22-89.101c3.699-5.564 3.912-12.85.549-18.554-16.111-27.385-45.844-44.397-77.596-44.397-31.747 0-61.483 17.012-77.601 44.391-3.359 5.697-3.149 12.978.544 18.561l5.986 9.008h-66.962c-5.83 0-10.966 4.134-12.212 9.83l-5.644 25.827c-.884 4.047 1.679 8.044 5.726 8.929 4.042.887 8.043-1.679 8.928-5.726l5.214-23.86h111.042l17.9 81.899h-146.84l5.127-23.457c.884-4.047-1.679-8.044-5.726-8.929-4.048-.885-8.044 1.679-8.929 5.726l-24.834 113.629c-6.571 30.066 6.896 60.65 33.509 76.104 4.661 2.707 9.647 4.881 14.822 6.459.764.233 1.415.816 1.785 1.601 6.89 14.575 19.015 25.764 33.475 31.73v75.521h-3.225c-28.914 0-52.437 23.522-52.437 52.437v1.516c0 5.959 4.848 10.807 10.807 10.807h73.155c4.142 0 7.5-3.357 7.5-7.5s-3.358-7.5-7.5-7.5h-68.866c1.378-19.396 17.6-34.759 37.342-34.759h54.831c19.742 0 35.964 15.362 37.342 34.759h-25.647c-4.143 0-7.5 3.357-7.5 7.5s3.357 7.5 7.5 7.5h29.936c5.959 0 10.807-4.848 10.807-10.807v-1.516c0-28.914-23.522-52.437-52.437-52.437h-3.226v-75.52c14.461-5.965 26.587-17.154 33.476-31.729.371-.785 1.021-1.368 1.784-1.601 5.17-1.577 10.156-3.751 14.822-6.46 26.614-15.454 40.081-46.038 33.511-76.104zm-71.149-108.604c13.436-22.825 38.219-37.005 64.676-37.005 26.461 0 51.239 14.179 64.67 37.011.468.792.422 1.828-.116 2.638l-10.174 15.308c-8.207-22.094-29.562-37.937-54.379-37.937-24.428 0-46.125 15.536-54.397 37.928l-10.158-15.285c-.543-.821-.592-1.862-.122-2.658zm41.71 19.954h-16.044c6.908-14.874 22.073-24.939 39.01-24.939 22.685 0 41.473 17.85 42.886 40.229l-37.552 56.5c-.601.904-1.333 1.542-2.111 1.993l-13.977-63.95c-1.243-5.698-6.379-9.833-12.212-9.833zm-48.344 375.282h-18.38v-71.385c6.011.887 12.174.915 18.38 0zm57.551-128.282c-3.673 2.133-7.599 3.844-11.667 5.085-4.797 1.463-8.795 4.938-10.969 9.537-8.026 16.979-25.338 27.951-44.104 27.951s-36.078-10.972-44.104-27.952c-2.173-4.597-6.17-8.072-10.968-9.537-4.075-1.243-8-2.953-11.667-5.084-20.958-12.169-31.562-36.253-26.388-59.929l16.429-75.172h153.397l16.429 75.172c5.174 23.676-5.43 47.76-26.388 59.929z"/></g></svg>