<svg id="Capa_1" enable-background="new 0 0 512 512" height="512" viewBox="0 0 512 512" width="512" xmlns="http://www.w3.org/2000/svg"><g><path d="m512 256c0-16.211-6.169-31.006-16.28-42.168-.967-53.835-45.054-97.334-99.117-97.334h-203.173c-4.143 0-7.5 3.358-7.5 7.5s3.357 7.5 7.5 7.5h203.174c41.377 0 75.849 30.031 82.827 69.436-8.993-4.969-19.321-7.806-30.302-7.806h-58.317c-13.442-6.714-29.411-6.23-41.731.001h-104.044c-6.049-3.057-13.002-4.847-21.117-4.847-8.128 0-15.09 1.79-21.144 4.847h-103.864c-6.052-3.058-13.011-4.847-21.133-4.847-5.676 0-10.902 1.815-15.061 4.85-10.923.026-21.197 2.856-30.148 7.801 6.978-39.404 41.45-69.435 82.827-69.435h43.032c4.143 0 7.5-3.358 7.5-7.5s-3.357-7.5-7.5-7.5h-43.032c-54.062 0-98.149 43.498-99.117 97.333-10.111 11.162-16.28 25.958-16.28 42.169s6.169 31.008 16.281 42.169c.968 53.835 45.055 97.332 99.117 97.332h281.206c54.058 0 98.143-43.492 99.116-97.321 10.148-11.217 16.28-26.063 16.28-42.18zm-180.661-47.87c-17.379 21.889-21.706 49.314-33.345 66.46-.354.522-.688.985-.999 1.395-.311-.409-.645-.872-.999-1.394-4.422-6.514-8.289-16.026-12.384-26.096-5.485-13.491-11.648-28.637-20.894-40.365zm-146.25 0c-16.076 20.397-22.76 51.017-33.244 66.46-.354.521-.688.984-.997 1.392-.31-.408-.644-.871-.997-1.392-10.466-15.419-17.148-46.038-33.252-66.461h68.49zm-61.482 46.058c4.391 10.812 8.537 21.025 13.834 28.827 4.556 6.712 8.94 9.975 13.406 9.975 4.465 0 8.852-3.263 13.408-9.975 5.321-7.839 9.477-18.074 13.875-28.91 7.708-18.989 15.622-38.456 30.017-46.714.306-.146.602-.308.884-.493 4.333-2.304 9.238-3.616 14.888-3.616 5.715 0 10.668 1.35 15.039 3.713.198.123.402.238.613.342 14.448 8.231 22.401 27.758 30.146 46.806 4.401 10.824 8.559 21.048 13.869 28.871 4.556 6.712 8.941 9.975 13.408 9.975s8.853-3.263 13.41-9.975c17.765-26.166 23.214-79.733 59.667-79.733 11.924 0 21.73 5.907 29.979 18.059 4.79 7.055 8.616 15.521 11.727 22.873 1.614 3.815 6.015 5.596 9.83 3.984 3.814-1.614 5.599-6.016 3.984-9.83-3.396-8.023-7.611-17.322-13.131-25.453-1.145-1.686-2.339-3.269-3.563-4.788h40.23c26.397.002 47.873 21.478 47.873 47.874 0 19.679-11.986 36.882-29.37 44.16-.377-11.733-10.267-21.274-22.705-22.111-2.199-2.152-4.449-5.995-5.898-8.715-1.948-3.655-6.492-5.039-10.146-3.091-3.655 1.948-5.039 6.491-3.092 10.146 1.35 2.531 2.642 4.698 3.95 6.626 4.556 6.712 8.942 9.975 13.409 9.975 5.238 0 9.5 3.528 9.5 7.864 0 3.782-3.623 7.863-9.5 7.863-24.858 0-35.213-24.872-45.549-50.247-4.351-10.68-8.849-21.723-14.118-29.486-4.557-6.712-8.942-9.975-13.41-9.975s-8.854 3.263-13.409 9.975c-5.322 7.84-9.479 18.076-13.878 28.913-9.719 23.942-20.284 50.82-45.79 50.82-25.105 0-35.46-25.48-45.547-50.247-4.351-10.68-8.849-21.723-14.119-29.486-4.556-6.712-8.941-9.975-13.408-9.975-4.465 0-8.851 3.263-13.408 9.975-17.466 25.73-23.393 79.732-59.664 79.732-25.015 0-35.367-25.256-45.541-50.239-4.784-11.747-14.895-39.468-27.527-39.468-5.238 0-9.5-3.528-9.5-7.864 0-1.886.808-3.618 2.15-4.974.097-.089.195-.176.289-.268 1.703-1.644 4.257-2.621 7.061-2.621 25.547.001 36.141 27.051 45.827 50.906zm280.681 49.682h-68.463c9.238-11.72 15.385-26.852 20.857-40.331 4.093-10.081 7.959-19.603 12.391-26.131.354-.522.688-.985.998-1.394.311.409.645.873.999 1.395 10.437 15.375 17.278 46.201 33.218 66.461zm-146.154 0h-68.456c9.237-11.72 15.384-26.852 20.856-40.331 4.092-10.081 7.957-19.602 12.388-26.129.354-.521.688-.984.998-1.394.311.409.644.872.998 1.393 4.384 6.458 8.58 16.759 12.64 26.727 5.404 13.268 11.469 28.158 20.576 39.734zm-204.75-94.794c-1.248 12.899 9.159 23.969 22.616 24.874 5.646 5.517 12.23 22.365 15.414 30.185 5.404 13.269 11.469 28.161 20.576 39.737h-49.119c-26.396 0-47.871-21.475-47.871-47.872 0-23.149 16.517-42.51 38.384-46.924zm343.22 171.425h-281.207c-41.376 0-75.848-30.03-82.827-69.434 8.993 4.968 19.32 7.805 30.3 7.805h66.804c6.054 3.055 13.024 4.845 21.172 4.845 8.128 0 15.09-1.79 21.144-4.847h103.827c6.055 3.056 13.027 4.847 21.176 4.847 8.128 0 15.09-1.79 21.144-4.847h103.835c6.055 3.056 13.026 4.847 21.176 4.847 6.18 0 11.829-2.151 16.144-5.687 7.221-1.171 13.998-3.563 20.135-6.945-6.986 39.395-41.453 69.416-82.823 69.416z"/></g></svg>