<svg id="icons" xmlns="http://www.w3.org/2000/svg" viewBox="0 0 64 64"><defs><style>.cls-1{fill:none;stroke:#000;stroke-linecap:round;stroke-linejoin:round;stroke-width:2px;}</style></defs><title>37</title><g id="coffeepot"><path class="cls-1" d="M52.08585,48.30769h0a7.94286,7.94286,0,0,0-.36808-2.38993L42.91959,18.032h-16.096L18.02539,45.91775a7.94286,7.94286,0,0,0-.36808,2.38993h0a7.943,7.943,0,0,0,7.94294,7.94295H44.14291A7.94294,7.94294,0,0,0,52.08585,48.30769Z"/><line class="cls-1" x1="17.65731" y1="48.30768" x2="52.08585" y2="48.30768"/><ellipse class="cls-1" cx="34.8713" cy="33.16984" rx="7.34646" ry="5.81595" transform="translate(-12.9798 38.31941) rotate(-49.70987)"/><path class="cls-1" d="M40.63186,28.76892l-.52,1.0914a5.83881,5.83881,0,0,1-5.23479,3.3295h0a5.83881,5.83881,0,0,0-5.15565,3.16969l-.619,1.20355"/><path class="cls-1" d="M26.82357,18.032V16.65614a4.41866,4.41866,0,0,1,4.41865-4.41866h7.15921a4.41866,4.41866,0,0,1,4.41865,4.41866V18.032"/><path class="cls-1" d="M37.02392,12.23748V9.9017a2.15234,2.15234,0,1,0-4.30468,0V12.213"/><path class="cls-1" d="M20.12613,39.25948h0a3.094,3.094,0,0,1-3.01678-2.40724L13.25153,19.90483a6.13087,6.13087,0,0,0-5.978-4.77009H4V18.032h.00155A6.13087,6.13087,0,0,1,9.9697,22.75956l3.98266,16.93777a3.09305,3.09305,0,0,0,3.01094,2.38508h2.27217Z"/><path class="cls-1" d="M44.18974,22.05772l1.82744-.66673a5.15666,5.15666,0,0,1,6.69672,3.33l-.67065.36947a2.15389,2.15389,0,0,0-1.01131,2.5454l4.23592,13.18359a2.42394,2.42394,0,0,0,3.28276,1.4777h0a2.42394,2.42394,0,0,0,1.33521-2.95285L55.65756,26.0301A2.15388,2.15388,0,0,0,52.7139,24.721h0"/></g></svg>