<svg id="icons" xmlns="http://www.w3.org/2000/svg" viewBox="0 0 64 64"><defs><style>.cls-1{fill:none;stroke:#000;stroke-linecap:round;stroke-linejoin:round;stroke-width:2px;}</style></defs><title>42</title><g id="sandwich"><path class="cls-1" d="M45.09048,17.80236a5.4794,5.4794,0,0,0,5.44505-6.021A5.63988,5.63988,0,0,0,44.84461,6.8583H9.71789A5.63989,5.63989,0,0,0,4.027,11.78139a5.4794,5.4794,0,0,0,5.44506,6.021l.00353-.00276V46.94608a3,3,0,0,0,3,3H42.08641a3,3,0,0,0,3-3V17.7996"/><path class="cls-1" d="M50.42,11.1217h4.1l.01-.01a5.6837,5.6837,0,0,1,5.47,5.85,5.67468,5.67468,0,0,1-5.47,5.84h-.01v31.34a3,3,0,0,1-3,3H21.88a2.97,2.97,0,0,1-2.97-2.97h0"/><line class="cls-1" x1="13.84879" y1="11.23344" x2="15.89867" y2="13.56284"/><line class="cls-1" x1="25.96169" y1="14.30825" x2="28.15133" y2="16.49789"/><line class="cls-1" x1="37.79506" y1="12.81743" x2="39.75176" y2="10.86073"/><line class="cls-1" x1="55.42084" y1="18.01256" x2="53.46414" y2="16.05586"/><line class="cls-1" x1="34.72025" y1="22.41458" x2="33.22943" y2="24.55763"/><line class="cls-1" x1="19.25301" y1="22.3214" x2="17.29631" y2="24.6508"/><line class="cls-1" x1="24.56405" y1="30.24137" x2="27.28098" y2="32.29125"/><line class="cls-1" x1="17.38949" y1="38.3477" x2="19.43936" y2="40.49075"/><line class="cls-1" x1="32.29767" y1="42.6338" x2="33.97484" y2="40.86345"/><line class="cls-1" x1="36.30424" y1="33.12983" x2="38.77341" y2="31.26631"/><path class="cls-1" d="M45.09048,19.06624a4.75652,4.75652,0,0,1,4.75391,4.73955,4.70424,4.70424,0,0,1-1.80965,3.71983"/><path class="cls-1" d="M48.13528,36.84674h.01436a4.74993,4.74993,0,0,0-.1149-9.32112"/><path class="cls-1" d="M48.13528,36.84674h.01436a4.74409,4.74409,0,0,1-2.341,8.87588,3.93065,3.93065,0,0,1-.71811-.05745"/><path class="cls-1" d="M41.51427,49.94513a4.75809,4.75809,0,0,1-9.10569,1.36442v-.01436"/><path class="cls-1" d="M13.69454,49.94513a4.74059,4.74059,0,0,0,4.72519,4.25124c.158,0,.33033-.01437.48831-.02873A4.72978,4.72978,0,0,0,22.38371,52.042"/><path class="cls-1" d="M22.38371,52.042a5.30455,5.30455,0,0,0,10.02487-.73248v-.01436"/><line class="cls-1" x1="48.00248" y1="53.0491" x2="49.95918" y2="51.0924"/></g></svg>