<svg id="icons" xmlns="http://www.w3.org/2000/svg" viewBox="0 0 64 64"><defs><style>.cls-1{fill:none;stroke:#000;stroke-linecap:round;stroke-linejoin:round;stroke-width:2px;}</style></defs><title>32</title><g id="toaster"><path class="cls-1" d="M11,17.03925H45.27222a7,7,0,0,1,7,7V52.25849a2,2,0,0,1-2,2H6a2,2,0,0,1-2-2V24.03925A7,7,0,0,1,11,17.03925Z"/><line class="cls-1" x1="52.27222" y1="48.30232" x2="4" y2="48.30232"/><line class="cls-1" x1="46.88555" y1="35.31655" x2="38.67289" y2="35.31655"/><line class="cls-1" x1="46.88555" y1="40.80943" x2="38.67289" y2="40.80943"/><circle class="cls-1" cx="14.48092" cy="38.1206" r="4.47174"/><line class="cls-1" x1="14.48092" y1="38.1206" x2="11.33802" y2="34.97771"/><path class="cls-1" d="M11.44436,54.25849h6.653a0,0,0,0,1,0,0v2.52608a2,2,0,0,1-2,2h-2.653a2,2,0,0,1-2-2V54.25849A0,0,0,0,1,11.44436,54.25849Z"/><path class="cls-1" d="M38.17482,54.25849h6.653a0,0,0,0,1,0,0v2.52608a2,2,0,0,1-2,2h-2.653a2,2,0,0,1-2-2V54.25849A0,0,0,0,1,38.17482,54.25849Z"/><path class="cls-1" d="M40.37024,17.04127v-4.7431a3.53634,3.53634,0,0,0,3.5201-3.89231,3.64857,3.64857,0,0,0-3.67962-3.19043H17.463a3.64858,3.64858,0,0,0-3.67962,3.19043,3.54236,3.54236,0,0,0,3.5201,3.89231h.01064v4.7431"/><line class="cls-1" x1="20.14127" y1="8.04974" x2="21.46853" y2="9.55799"/><line class="cls-1" x1="27.98416" y1="10.04063" x2="29.40191" y2="11.45838"/><line class="cls-1" x1="35.64606" y1="9.07535" x2="36.91299" y2="7.80842"/><line class="cls-1" x1="33.65517" y1="15.28933" x2="32.68989" y2="16.67692"/><line class="cls-1" x1="23.6404" y1="15.229" x2="22.37348" y2="16.73725"/><path class="cls-1" d="M52.27222,26.18952h6.694a.99726.99726,0,0,1,.99786.92013c.18525,2.37723-.06971,8.53922-7.69183,8.53922"/></g></svg>