<svg id="icons" xmlns="http://www.w3.org/2000/svg" viewBox="0 0 64 64"><defs><style>.cls-1{fill:none;stroke:#000;stroke-linecap:round;stroke-linejoin:round;stroke-width:2px;}</style></defs><title>3</title><g id="cutlery"><path class="cls-1" d="M4,15.05941l9.75205,9.752a3.68971,3.68971,0,0,0,3.07388.97591l1.32142-.1472a3.67124,3.67124,0,0,1,3.0585.971L53.83669,59.242c1.19359,1.1936,3.37122.95117,4.86386-.54147h0c1.49264-1.49264,1.73507-3.67027.54147-4.86386L26.66639,21.26106a3.78673,3.78673,0,0,1-1.011-3.10893l.13192-1.3262A3.78666,3.78666,0,0,0,24.77642,13.717L15.05941,4"/><line class="cls-1" x1="7.55612" y1="11.50329" x2="17.74223" y2="21.6894"/><line class="cls-1" x1="11.50329" y1="7.55612" x2="21.6894" y2="17.74223"/><path class="cls-1" d="M26.67824,32.0874,5.14018,53.62547c-1.20516,1.20515-.984,3.39434.5086,4.887h.01105c1.49263,1.50368,3.67076,1.71376,4.87592.5086L32.07382,37.483"/><path class="cls-1" d="M32.08487,26.68077,38.166,20.59969a4.22854,4.22854,0,0,0,1.05037-3.14C39.09469,7.6083,48.40427,4.7889,54.51851,4.2029a4.93442,4.93442,0,0,1,5.09705,5.4398c-.586,6.11425-3.06265,15.42382-12.914,15.3022a4.22853,4.22853,0,0,0-3.14,1.05037l-6.08107,6.08107"/></g></svg>