<svg id="Capa_1" enable-background="new 0 0 512 512" height="512" viewBox="0 0 512 512" width="512" xmlns="http://www.w3.org/2000/svg"><g><path d="m437.02 74.98c-48.353-48.351-112.64-74.98-181.02-74.98-50.309 0-99.002 14.584-140.816 42.176-3.457 2.281-4.41 6.934-2.129 10.391 2.28 3.457 6.932 4.41 10.391 2.129 39.355-25.969 85.192-39.696 132.554-39.696 64.373 0 124.894 25.068 170.412 70.588 45.52 45.518 70.588 106.039 70.588 170.412s-25.068 124.894-70.588 170.412c-45.518 45.52-106.039 70.588-170.412 70.588s-124.894-25.068-170.412-70.588c-45.52-45.518-70.588-106.039-70.588-170.412 0-69.072 29.716-134.934 81.527-180.695 3.104-2.742 3.398-7.481.656-10.586s-7.482-3.399-10.586-.656c-55.034 48.607-86.597 118.566-86.597 191.937 0 68.38 26.629 132.667 74.98 181.02 48.353 48.351 112.64 74.98 181.02 74.98s132.667-26.629 181.02-74.98c48.351-48.353 74.98-112.64 74.98-181.02s-26.629-132.667-74.98-181.02z"/><path d="m196.37 431.741c2.943.998 5.953 1.49 8.938 1.49 5.667 0 11.236-1.774 16.049-5.225 7.3-5.232 11.658-13.713 11.658-22.685v-298.643c0-8.972-4.358-17.452-11.658-22.685-7.347-5.267-16.454-6.628-24.986-3.734-75.314 25.544-125.915 96.169-125.915 175.741s50.601 150.197 125.914 175.741zm4.818-337.277c1.34-.454 2.711-.678 4.071-.678 2.595 0 5.148.814 7.358 2.398 3.43 2.458 5.396 6.283 5.396 10.493v298.645c0 4.21-1.967 8.035-5.396 10.493-3.368 2.415-7.536 3.042-11.43 1.721-69.222-23.478-115.731-88.394-115.731-161.536s46.509-138.058 115.732-161.536z"/><path d="m127.381 252.903c1.465 1.464 3.385 2.196 5.304 2.196s3.839-.732 5.304-2.196l4.66-4.66c2.929-2.93 2.929-7.678 0-10.607-2.93-2.928-7.678-2.928-10.607 0l-4.66 4.66c-2.93 2.93-2.93 7.678-.001 10.607z"/><path d="m145.355 340.428c1.465 1.464 3.385 2.196 5.304 2.196s3.839-.732 5.304-2.196l4.66-4.66c2.929-2.93 2.929-7.678 0-10.607-2.93-2.928-7.678-2.928-10.607 0l-4.66 4.66c-2.929 2.929-2.929 7.677-.001 10.607z"/><path d="m169.965 181.765c1.919 0 3.839-.732 5.304-2.196l4.66-4.66c2.929-2.93 2.929-7.678 0-10.607-2.93-2.928-7.678-2.928-10.607 0l-4.66 4.66c-2.929 2.93-2.929 7.678 0 10.607 1.464 1.463 3.384 2.196 5.303 2.196z"/><path d="m173.759 270.478c-2.929 2.93-2.929 7.678 0 10.607 1.465 1.464 3.385 2.196 5.304 2.196s3.839-.732 5.304-2.196l4.66-4.66c2.929-2.93 2.929-7.678 0-10.607-2.93-2.928-7.678-2.928-10.607 0z"/><path d="m350.729 86.368c-4.224-4.165-10.141-5.689-15.829-4.072-38.542 10.953-67.142 38.345-76.505 73.272-6.893 25.726-2.828 53.261 11.426 77.794-.507 11.437.681 23.265 3.67 35.131 1.443 5.733 5.718 10.098 11.433 11.675 1.433.396 2.893.589 4.342.589 4.281 0 8.468-1.682 11.567-4.78l108.229-108.229c4.148-4.149 5.755-10.246 4.19-15.91-1.577-5.714-5.941-9.988-11.674-11.432-19.488-4.91-38.877-4.983-56.593-.612l10.054-37.545c1.528-5.668-.125-11.753-4.31-15.881zm-76.437 120.413c-4.994-15.643-5.541-31.902-1.408-47.329 7.983-29.782 32.7-53.231 66.114-62.728.167-.047.676-.19 1.198.322.257.254.527.686.358 1.312l-12.663 47.284c-10.841 4.815-20.728 11.499-29.195 19.966-11.495 11.497-19.714 25.603-24.404 41.173zm97.299-55.162c8.603 0 17.447 1.095 26.325 3.331.169.043.685.173.879.879.097.348.115.858-.339 1.312l-108.229 108.228c-.454.454-.964.436-1.311.34-.706-.194-.836-.71-.879-.88-8.486-33.685-.536-66.811 21.267-88.612 16.055-16.056 38.247-24.598 62.287-24.598z"/><path d="m272.154 356.222c0 19.315 15.715 35.03 35.031 35.03 19.315 0 35.03-15.715 35.03-35.03s-15.715-35.03-35.03-35.03c-19.316-.001-35.031 15.714-35.031 35.03zm55.062 0c0 11.045-8.985 20.03-20.03 20.03s-20.031-8.985-20.031-20.03 8.986-20.03 20.031-20.03 20.03 8.985 20.03 20.03z"/><path d="m378.819 267.105c-19.315 0-35.03 15.715-35.03 35.03s15.715 35.03 35.03 35.03 35.03-15.715 35.03-35.03-15.714-35.03-35.03-35.03zm0 55.061c-11.045 0-20.03-8.985-20.03-20.03s8.985-20.03 20.03-20.03 20.03 8.985 20.03 20.03-8.985 20.03-20.03 20.03z"/></g></svg>