<svg id="icons" xmlns="http://www.w3.org/2000/svg" viewBox="0 0 64 64"><defs><style>.cls-1{fill:none;stroke:#000;stroke-linecap:round;stroke-linejoin:round;stroke-width:2px;}</style></defs><title>70</title><g id="wi_fi"><rect class="cls-1" x="9.54934" y="56.14431" width="39.67082" height="3.8557" rx="1.92785"/><path class="cls-1" d="M49.22016,29.76789h0a30.55164,30.55164,0,0,1-8.50937,21.15517l-.63839.66517a14.81359,14.81359,0,0,1-10.68764,4.55607h0A14.81359,14.81359,0,0,1,18.6971,51.58824l-.6384-.66517A30.55168,30.55168,0,0,1,9.54934,29.7679H49.22016"/><path class="cls-1" d="M49.22016,29.76789a5.2305,5.2305,0,0,1,0,10.461H47.37341"/><polyline class="cls-1" points="14.081 19.443 16.578 25.597 18.641 19.443 20.704 25.597 22.659 19.443"/><line class="cls-1" x1="26.45965" y1="19.44315" x2="26.45965" y2="25.59709"/><line class="cls-1" x1="44.68891" y1="19.44315" x2="44.68891" y2="25.59709"/><line class="cls-1" x1="33.40236" y1="22.52012" x2="30.24307" y2="22.52012"/><polyline class="cls-1" points="41.16 19.443 37.23 19.443 37.23 25.597"/><line class="cls-1" x1="41.15992" y1="22.52012" x2="37.2299" y2="22.52012"/><path class="cls-1" d="M22.70792,11.79978c1.83988-1.68579,5.27693-2.81985,9.21332-2.81985,3.93666,0,7.37391,1.13421,9.2137,2.8202"/><path class="cls-1" d="M28.11224,15.27221a5.84635,5.84635,0,0,1,3.80911-1.16583,5.84614,5.84614,0,0,1,3.80927,1.166"/><path class="cls-1" d="M19.15413,6.81985C21.684,5.13406,26.40992,4,31.82246,4c5.4129,0,10.13912,1.13422,12.66884,2.8202"/></g></svg>