<svg id="Capa_1" enable-background="new 0 0 512.001 512.001" height="512" viewBox="0 0 512.001 512.001" width="512" xmlns="http://www.w3.org/2000/svg"><g><path d="m130.975 81.405c1.206 2.87 3.988 4.597 6.918 4.597.968 0 1.953-.189 2.902-.587 3.818-1.604 5.614-6.001 4.009-9.82-3.057-7.275-6.72-14.349-10.89-21.026-.113-.191-.023-.39.149-.358 11.5 2.013 27.416 6.624 39.989 17.148-1.62 11.191-1.794 22.697-.407 34.153.498 4.111 4.224 7.037 8.348 6.544 4.112-.498 7.042-4.235 6.544-8.348-2.921-24.122 1.862-48.459 13.468-68.529.066-.114.22-.38.658-.38.439 0 .593.267.659.381 11.606 20.069 16.389 44.406 13.468 68.528-.498 4.112 2.432 7.85 6.544 8.348.306.037.61.055.911.055 3.74 0 6.976-2.793 7.437-6.599 1.409-11.634 1.214-23.321-.478-34.676 12.489-10.168 28.095-14.653 39.351-16.624.134-.025.304.116.15.358-14.567 23.178-22.85 51.921-22.435 79.813 0 2.096.361 4.119 1.018 6.013-3.071.912-6.111 1.91-9.115 3.002-35.654 12.964-65.234 38.41-85.543 73.586-15.38 26.638-23.234 54.596-23.345 83.096-.016 4.142 3.329 7.513 7.471 7.529h.03c4.128 0 7.483-3.339 7.5-7.471.101-25.854 7.279-51.308 21.335-75.654 36.906-63.922 103.81-89.814 178.973-69.264 7.669 2.096 15.811-1.272 19.807-8.191 13.112-21.928 20.445-49.412 19.489-75.743 8.303 7.022 18.751 18.039 23.971 32.15-6.563 8.363-12.104 17.652-16.358 27.629-1.625 3.81.147 8.216 3.957 9.841 3.811 1.625 8.216-.146 9.841-3.957 8.961-21.014 24.294-38.58 43.174-49.463.16-.091.438-.042.447.258.016 21.792-7.53 43.854-21.249 62.122-2.487 3.312-1.819 8.014 1.493 10.501 1.35 1.014 2.931 1.503 4.498 1.503 2.278 0 4.529-1.035 6.003-2.997 6.615-8.808 11.955-18.408 15.936-28.44 14.58-2.287 29.023 1.203 39.061 4.81-22.774 12.135-42.963 31.658-55.764 54.597-4.008 6.941-2.836 15.695 2.849 21.287 7.939 7.81 15.124 16.177 21.354 24.869 1.465 2.043 3.767 3.131 6.103 3.131 1.513 0 3.04-.456 4.363-1.404 3.367-2.413 4.14-7.099 1.727-10.465-6.729-9.389-14.477-18.414-23.027-26.825-.812-.799-.968-2.071-.377-3.093 11.165-20.048 29.292-38.076 50.229-49.073 5.25-2.793 8.257-8.204 7.846-14.121-.408-5.875-4.103-10.783-9.644-12.807-10.136-3.703-24.436-7.372-39.728-6.496 2.19-8.921 3.335-18.029 3.328-27.108-.003-5.525-2.863-10.474-7.648-13.237s-10.501-2.765-15.29-.006c-7.977 4.598-15.391 10.231-22.094 16.701-6.872-13.951-17.357-24.7-25.787-31.757-4.524-3.787-10.621-4.534-15.913-1.949-5.33 2.603-8.513 7.912-8.307 13.855.929 23.232-5.382 47.928-17.472 68.189-.588 1.019-1.764 1.522-2.86 1.222-29.575-8.087-58.954-9.413-86.272-4.038-.62-.589-1.007-1.429-1.007-2.33-.381-24.334 6.732-50.628 20.158-71.868 3.243-5.193 3.138-11.564-.273-16.628-3.387-5.026-9.203-7.5-15.186-6.451-11.353 1.988-26.591 6.247-40.224 15.337-2.716-9.516-6.541-18.639-11.437-27.104-2.85-4.928-7.951-7.871-13.644-7.871s-10.794 2.943-13.644 7.871c-4.964 8.584-8.833 17.841-11.556 27.502-13.757-9.348-29.244-13.71-40.813-15.736-5.979-1.049-11.799 1.425-15.186 6.452-3.412 5.063-3.516 11.435-.273 16.627 3.742 5.996 7.033 12.352 9.78 18.889z"/><path d="m485.462 254.73c-3.773 1.708-5.447 6.152-3.738 9.926 20.071 44.326 17.223 92.818-8.021 136.542-23.194 40.173-58.347 65.576-101.659 73.461-41.26 7.513-87.304-1.815-129.647-26.261-48.553-28.032-81.314-68.841-92.249-114.912-.957-4.03-5-6.523-9.029-5.565-4.03.957-6.522 4.999-5.565 9.029 5.907 24.888 17.649 48.422 34.899 69.95 17.098 21.339 38.78 39.671 64.444 54.488 6.488 3.746 13.063 7.158 19.698 10.234-16.578 3.702-33.964 5.581-51.931 5.581-110.494 0-187.664-68.375-187.664-166.276 0-78.414 47.793-137.772 127.847-158.784 7.95-2.086 13.502-9.314 13.502-17.576.078-6.254-.394-15.171-1.528-22.947-.596-4.099-4.399-6.937-8.501-6.342-4.099.596-6.938 4.402-6.342 8.501.806 5.445 1.458 13.782 1.372 20.788 0 1.449-.95 2.71-2.31 3.067-40.805 10.71-75.259 31.718-99.637 60.751-25.778 30.7-39.403 69.616-39.403 112.542 0 53.823 20.682 99.822 59.81 133.026 36.666 31.115 87.399 48.25 142.854 48.25 26.35 0 51.581-3.812 75.038-11.309 21.932 7.465 44.173 11.295 65.804 11.295 10.589 0 21.036-.917 31.224-2.771 47.781-8.699 86.497-36.611 111.962-80.719 27.728-48.026 30.816-101.379 8.695-150.23-1.706-3.774-6.151-5.448-9.925-3.739z"/><path d="m296.343 317.64c-2.242-4.41-6.517-7.358-11.436-7.885-11.814-1.267-23.714-1.187-35.495.186v-7.069c0-2.468-.518-4.868-1.468-7.071 12.729-1.463 25.616-1.518 38.475-.139l10.315 1.105c11.046 1.188 21.77-4.266 27.323-13.886.974-1.718 2.128-4.146 3.204-8.261l8.446-39.303c.265.272 13.147-7.299 13.97-7.759 5.527-3.19 8.96-9.137 8.96-15.519v-12.975c0-6.382-3.433-12.328-8.96-15.519l-11.236-6.487c-5.197-3.001-11.578-3.178-16.917-.535-9.909-8.332-22.649-12.425-35.781-11.331-44.122 3.687-81.072 27.63-104.043 67.418-12.569 21.77-19.008 44.461-19.137 67.442-.033 5.882 2.942 11.211 7.958 14.254 2.635 1.599 5.57 2.402 8.514 2.402 2.626 0 5.26-.64 7.695-1.925 1.441-.761 2.902-1.497 4.37-2.221v3.284c0 3.939 1.311 7.709 3.611 10.77-.457.235-.918.465-1.371.705-.017.009-.033.018-.05.026-7.075 3.753-12.389 10.318-14.583 18.021-2.202 7.728-1.19 15.78 2.848 22.673 3.536 6.035 7.582 11.981 12.027 17.672 4.649 5.953 10.584 10.537 17.366 13.462-.291 5.533 2.752 12.933 8.959 16.528l11.236 6.487c2.764 1.596 5.862 2.393 8.96 2.393s6.196-.798 8.959-2.393l11.237-6.487c5.526-3.191 8.959-9.137 8.959-15.519v-12.975c0-2.427-.499-4.789-1.418-6.963l28.131-48.724c2.475-4.281 2.613-9.472.372-13.882zm-88.784.735c-.9-.52-1.459-1.488-1.459-2.527v-12.976c0-1.04.559-2.008 1.459-2.528l11.237-6.488c.45-.26.955-.39 1.459-.39.505 0 1.01.13 1.46.39l11.237 6.488c.9.52 1.459 1.488 1.459 2.527v12.976c0 1.04-.559 2.008-1.459 2.528l-11.237 6.488c-.901.52-2.02.519-2.919 0zm57.745-134.404 7.35 6.854c.761.709 1.088 1.779.854 2.792l-2.919 12.643c-.14.607-.486 1.127-.943 1.526l-3.286-1.897c-5.526-3.191-12.392-3.191-17.919 0l-.708.409-3.877-3.615c-.76-.709-1.087-1.778-.854-2.792l1.871-8.107c6.499-3.24 13.321-5.858 20.431-7.813zm-20.6 59.427c-.9-.52-1.459-1.489-1.459-2.528v-12.975c0-1.04.56-2.008 1.459-2.528l11.237-6.487c.45-.26.955-.39 1.459-.39.505 0 1.01.13 1.46.39l11.236 6.487c.901.52 1.46 1.489 1.46 2.528v12.975c0 1.04-.559 2.008-1.459 2.528l-11.237 6.488c-.901.52-2.02.519-2.919 0zm-7.292 38.722v-5.769c0-4.379 2.356-8.46 6.148-10.649l4.888-2.822c2.763 1.593 5.857 2.389 8.954 2.389 1.707 0 3.412-.251 5.063-.736l2.024 1.169c3.792 2.189 6.148 6.27 6.148 10.649v3.336c-11.142-.171-22.252.64-33.225 2.433zm92.069-92.461c.504 0 1.009.13 1.459.39l11.237 6.487c.9.52 1.46 1.489 1.46 2.528v12.975c0 1.04-.56 2.008-1.46 2.528l-11.236 6.487c-.9.521-2.019.52-2.919 0l-11.237-6.488c-.9-.52-1.46-1.489-1.46-2.528v-12.975c0-1.04.56-2.008 1.46-2.528l11.237-6.487c.45-.259.954-.389 1.459-.389zm-42.489-9.518c7.257-.605 14.339 1.061 20.398 4.671-4.404 3.361-7.065 8.637-7.065 14.253v12.975c0 6.381 3.433 12.328 8.96 15.519-.133-.081 11.047 6.386 11.342 6.544l-8.03 37.367c-.204.806-.512 2.138-1.529 3.912-2.577 4.491-7.589 7.029-12.734 6.472-5.218-.543-7.537-.84-12.696-1.338v-4.163c0-7.52-3.139-14.634-8.453-19.724 4.751-2.525 9.368-8.903 9.373-15.758v-12.975c0-4.351-1.599-8.498-4.366-11.71 1.417-1.931 2.46-4.15 3.014-6.551l2.919-12.643c1.369-5.927-.398-12.167-4.609-16.508 1.152-.13 2.311-.246 3.476-.343zm-84.926 61.438v6.358c0 2.895-1.557 5.592-4.065 7.04l-5.505 3.179c-2.117 1.223-4.619 1.529-6.931.921 2.98-7.598 7.381-16.627 12.748-24.882 2.333 1.713 3.753 4.454 3.753 7.384zm-22.342 59.942c-.483.254-.962.242-1.423-.038-.339-.206-.743-.606-.739-1.345.05-8.972 1.203-17.914 3.436-26.78 2.252.669 4.58 1.017 6.911 1.017 4.179 0 8.358-1.076 12.086-3.228l5.505-3.179c7.133-4.118 11.565-11.793 11.565-20.03v-6.358c0-7.735-3.747-14.986-9.913-19.501 6.267-7.616 13.25-14.286 20.856-19.939.304 3.318 2.32 8.749 6.396 12.241-3.862 3.368-6.161 8.295-6.161 13.515v12.975c0 5.042 2.15 9.806 5.775 13.161-7.21 5.075-11.608 13.415-11.608 22.321v2.255c-3.796-.457-7.71.293-11.115 2.259l-11.236 6.487c-3.207 1.852-5.703 4.635-7.238 7.889-4.431 1.924-8.828 4.023-13.097 6.278zm25.68 74.962c-4.037-5.169-7.707-10.56-10.906-16.022-1.949-3.328-2.434-7.228-1.365-10.981 1.1-3.86 3.66-7.018 7.209-8.893.014-.007.027-.014.041-.021 2.767-1.46 5.606-2.84 8.472-4.122l2.44 1.409c2.764 1.596 5.862 2.394 8.96 2.393 3.098 0 6.197-.798 8.959-2.393l8.228-4.75 1.555 6.735c1.53 6.628 6.522 11.981 13.027 13.971l11.696 3.576-7.051 12.213-7.607-4.392c-5.526-3.191-12.393-3.191-17.919 0l-11.237 6.488c-4.104 2.37-7.05 6.26-8.296 10.719-2.313-1.646-4.407-3.626-6.206-5.93zm48.856 23.704c0 1.04-.559 2.008-1.459 2.528l-11.237 6.487c-.901.519-2.02.519-2.919 0l-11.237-6.487c-.9-.52-1.459-1.489-1.459-2.528v-12.975c0-1.04.56-2.008 1.459-2.528l11.237-6.488c.45-.26.955-.39 1.459-.39.505 0 1.01.13 1.46.39l11.237 6.488c.9.52 1.459 1.489 1.459 2.528zm17.159-56.135-15.008-4.588c-1.397-.427-2.469-1.576-2.797-3l-2.679-11.602c10.524-1.243 21.156-1.346 31.715-.263z"/><path d="m380.654 398.203c.369-.113.733-.239 1.092-.374 2.371 10.469 3.791 21.174 4.198 31.972.22 5.834 3.404 10.992 8.517 13.797 2.501 1.373 5.228 2.057 7.953 2.057 2.881 0 5.762-.765 8.372-2.291 19.837-11.603 36.269-28.524 48.838-50.294 14.088-24.401 20.377-50.315 18.816-75.937-.788-15.54-5.607-34.005-13.238-49.541-6.733-13.82-19.299-23.436-34.476-26.382-15.379-2.984-30.865 1.314-42.485 11.796l-1.904 1.717-1.925-1.111c-5.526-3.19-12.393-3.19-17.919 0l-11.237 6.487c-5.527 3.19-8.96 9.137-8.96 15.519v12.975c0 .915.078 1.82.216 2.711-.738.964-1.424 1.969-2.033 3.024-5.554 9.62-4.912 21.633 1.636 30.606 4.386 6.049 8.666 11.625 13.219 18.811l-8.134 2.487c-1.964.6-3.778 1.531-5.387 2.719-.945-1.442-2.83-4.257-5.032-7.283-2.916-3.996-7.599-6.222-12.547-5.96-4.94.264-9.366 2.98-11.839 7.264l-28.417 49.218c-7.484 12.962-8.049 28.75-1.513 42.232 6.491 13.388 19.129 22.655 33.809 24.789.366.053.729.079 1.088.079 3.665 0 6.87-2.689 7.413-6.422.596-4.099-2.244-7.905-6.343-8.5-6.489-.943-12.235-3.862-16.664-8.302h5.386c6.381 0 12.328-3.433 15.519-8.959l6.487-11.237c3.191-5.526 3.191-12.393 0-17.919l-6.487-11.237c-2.789-4.83-7.682-8.06-13.132-8.797l15.514-26.87.042.058c3.134 4.296 6.036 8.808 8.682 13.43l-1.719 7.447c-1.436 6.218.572 12.784 5.239 17.136 2.56 2.313 8.494 8.076 10.661 9.841 2.792 10.43 4.427 21.163 4.834 31.952.182 4.81-2.015 9.387-5.875 12.245-3.329 2.465-4.03 7.161-1.565 10.49 1.471 1.987 3.737 3.038 6.034 3.038 1.551 0 3.115-.479 4.457-1.473 7.845-5.808 12.309-15.104 11.94-24.866-.359-9.526-1.581-19.014-3.63-28.322.032-.009.064-.016.095-.025zm-69.503-5.448c1.04 0 2.008.559 2.528 1.459l6.487 11.237c.52.9.52 2.019 0 2.919l-6.487 11.237c-.52.9-1.489 1.459-2.528 1.459h-13.563c-1.596-7.22-.461-14.726 3.378-21.375l4.005-6.937h6.18zm127.52-23.902c.84-.611 1.951-.728 2.903-.305l11.223 4.997c-1.828 4.045-3.874 8.058-6.164 12.025-2.555 4.425-5.291 8.611-8.188 12.577l-8.387-3.734c-.95-.423-1.607-1.328-1.716-2.362l-.459-4.37c3.161-3.296 5.012-7.734 5.012-12.412v-2.219zm-20.776 6.416c0 1.04-.559 2.008-1.46 2.528l-11.237 6.488c-.899.519-2.018.52-2.918 0l-11.238-6.488c-.9-.52-1.459-1.488-1.459-2.527v-12.975c0-1.04.559-2.008 1.46-2.528l11.237-6.488c.45-.26.954-.39 1.459-.39.504 0 1.009.13 1.459.39l11.237 6.488h.001c.9.52 1.459 1.488 1.459 2.528zm-14.683 55.147c-.638.374-1.187.224-1.535.033-.473-.26-.724-.667-.744-1.213-.392-10.376-1.635-20.677-3.7-30.793 2.088.812 4.296 1.225 6.506 1.225 3.098 0 6.197-.798 8.959-2.393l1.291-.745c1.42 5.099 5.052 9.397 9.969 11.586l4.554 2.028c-7.572 8.056-16.019 14.844-25.3 20.272zm58.481-126.313c.862 4.586 1.433 9.198 1.716 13.822-.076.69-.339 1.558-1.133 2.156l-10.362 7.809c-.832.625-1.942.761-2.898.356l-11.943-5.07c-.957-.406-1.63-1.299-1.757-2.332l-1.581-12.878c-.127-1.032.31-2.062 1.141-2.688l10.362-7.809c.514-.387 1.134-.586 1.759-.586.386 0 .773.076 1.139.231l11.944 5.07c.909.386 1.373 1.203 1.613 1.919zm-100.399-28.486c0-1.04.56-2.008 1.46-2.528l11.237-6.487c.45-.26.954-.39 1.459-.39.504 0 1.009.13 1.459.39l11.237 6.487c.9.52 1.46 1.489 1.46 2.528v12.975c0 1.04-.56 2.008-1.46 2.528l-11.237 6.487c-.899.52-2.018.52-2.918 0l-11.237-6.487c-.9-.52-1.46-1.489-1.46-2.528zm-5.044 29.069 10.24 5.912c2.764 1.596 5.861 2.393 8.96 2.393 3.098 0 6.197-.798 8.959-2.393l11.237-6.487c5.527-3.191 8.96-9.137 8.96-15.519v-12.975c0-4.723-1.885-9.205-5.103-12.51 7.935-6.533 18.178-9.148 28.362-7.172 10.507 2.04 19.2 8.683 23.85 18.226 1.613 3.311 3.059 6.653 4.344 10.021l-2.063-.876c-5.877-2.495-12.69-1.657-17.786 2.184l-10.362 7.809c-5.097 3.84-7.78 10.161-7.002 16.495l1.581 12.878c.778 6.334 4.91 11.817 10.784 14.311l11.944 5.07c2.241.951 4.618 1.417 6.985 1.417 3.838 0 7.648-1.227 10.8-3.602l1.83-1.379c-.867 7.044-2.401 14.069-4.599 21.029l-10.497-4.674c-5.198-2.314-11.188-1.988-16.085.768-1.477-3.662-4.14-6.808-7.655-8.838l-11.236-6.488c-5.526-3.191-12.393-3.191-17.919 0l-11.236 6.487c-.44.254-.861.531-1.274.819l-1.204-1.123c-1.34-1.25-2.85-2.26-4.461-3.032-4.313-7.94-12.372-19.32-18.374-27.347-2.43-3.329-3.109-7.556-1.98-11.404zm-5.578 70.669 2.918-12.643c.234-1.013.997-1.831 1.991-2.135l12.408-3.794c.995-.304 2.084-.052 2.844.657l3.8 3.543c-.032.434-.052.871-.052 1.31v12.975c0 2.973.753 5.847 2.108 8.397-.284.259-11.826 3.626-12.831 3.987-.993.304-2.084.052-2.844-.656l-9.49-8.85c-.758-.709-1.086-1.778-.852-2.791z"/></g></svg>