<svg id="icons" xmlns="http://www.w3.org/2000/svg" viewBox="0 0 64 64"><defs><style>.cls-1{fill:none;stroke:#000;stroke-linecap:round;stroke-linejoin:round;stroke-width:2px;}</style></defs><title>2</title><g id="milk_1"><path class="cls-1" d="M38.5219,8.396v.78624a23.17157,23.17157,0,0,0,3.33236,11.97193h0a23.17156,23.17156,0,0,1,3.33235,11.97193V54.33849A5.66152,5.66152,0,0,1,39.52511,60H24.47489a5.66152,5.66152,0,0,1-5.66151-5.66151V33.12615a23.17156,23.17156,0,0,1,3.33235-11.97193h0A23.17157,23.17157,0,0,0,25.4781,9.18228V8.396"/><rect class="cls-1" x="22.1614" y="4" width="19.6772" height="4.39604" rx="1.94119"/><line class="cls-1" x1="19.00843" y1="30.12613" x2="44.99156" y2="30.12613"/><line class="cls-1" x1="18.81338" y1="50.94156" x2="45.18662" y2="50.94156"/><polyline class="cls-1" points="22.656 42.804 22.656 37.64 25.484 42.804 27.943 37.64 27.943 42.804"/><line class="cls-1" x1="30.64761" y1="37.64021" x2="30.64761" y2="42.80387"/><polyline class="cls-1" points="33.475 37.64 33.475 42.804 36.057 42.804"/><line class="cls-1" x1="38.639" y1="37.64021" x2="38.639" y2="42.80387"/><polyline class="cls-1" points="41.344 37.64 38.639 40.222 41.344 42.804"/></g></svg>