<svg id="icons" xmlns="http://www.w3.org/2000/svg" viewBox="0 0 64 64"><defs><style>.cls-1{fill:none;stroke:#000;stroke-linecap:round;stroke-linejoin:round;stroke-width:2px;}</style></defs><title>53</title><g id="muffin"><line class="cls-1" x1="32.01776" y1="34.95654" x2="32.01776" y2="57.95167"/><line class="cls-1" x1="39.76504" y1="34.95654" x2="37.43062" y2="57.95063"/><line class="cls-1" x1="47.52386" y1="34.95654" x2="42.88599" y2="57.95063"/><line class="cls-1" x1="26.03972" y1="57.95063" x2="23.25979" y2="34.95654"/><line class="cls-1" x1="20.13965" y1="57.95063" x2="15.50178" y2="34.95654"/><path class="cls-1" d="M9.71281,34.95654H54.28725L48.09693,56.58a1.99,1.99,0,0,1-1.89239,1.37171H16.82783A2.00239,2.00239,0,0,1,14.92549,56.58Z"/><path class="cls-1" d="M9.71715,34.95447a5.70947,5.70947,0,0,1-.7209-11.37422"/><path class="cls-1" d="M55.00375,23.58025a5.70947,5.70947,0,0,1-.7209,11.37422"/><path class="cls-1" d="M8.99625,23.58025a23.85765,23.85765,0,0,1,46.0075,0"/><path class="cls-1" d="M18.37518,28.57146a2.19642,2.19642,0,0,1,4.39283,0"/><path class="cls-1" d="M22.17169,18.90954a2.19641,2.19641,0,1,1,4.39282,0"/><path class="cls-1" d="M38.27857,18.90954a2.19642,2.19642,0,0,1,4.39283,0"/><path class="cls-1" d="M42.03765,28.57146a2.19641,2.19641,0,0,1,4.39282,0"/><path class="cls-1" d="M29.82135,13.08972a2.19641,2.19641,0,1,1,4.39282,0"/><path class="cls-1" d="M29.82135,24.67845a2.19641,2.19641,0,0,1,4.39282,0"/></g></svg>