<svg id="Capa_1" enable-background="new 0 0 512 512" height="512" viewBox="0 0 512 512" width="512" xmlns="http://www.w3.org/2000/svg"><g><path d="m463.567 345.238h-8.491c-4.688-25.24-26.789-44.116-53.149-44.116-8.905-.744-15.928 2.225-20.336-4.239-1.825-2.676-2.29-5.969-1.03-9.051l.051-.12c1.43-3.437 3.575-6.95 6.554-10.731 6.514-8.248.389-20.455-10.259-20.096-26.472.958-51.283 5.336-72.514 12.721v-143.897c0-4.059-1.563-7.921-4.331-10.829-2.943-13.378-12.519-24.608-25.323-29.651.995-4.18 1.33-8.478.998-12.809-1.523-20.076-17.797-36.437-37.853-38.057-5.979-.484-12.001.324-17.562 2.338-8.214-22.077-29.099-36.701-52.9-36.701-23.796 0-44.679 14.619-52.901 36.702-5.562-2.015-11.576-2.821-17.562-2.338-20.065 1.621-36.337 17.983-37.849 38.051-.332 4.338.004 8.638.997 12.813-12.829 5.047-22.464 16.391-25.367 29.866-2.169 2.752-3.359 6.115-3.359 9.688v81.198c0 4.142 3.357 7.5 7.5 7.5s7.5-3.358 7.5-7.5v-81.198c0-.076 0-.308.222-.52.152-.147.341-.219.549-.207 47.68 2.823 91.963 7.536 137.742 22.978-12.149 6.96-23.859 14.693-34.863 23.094-38.431 29.339-61.374 61.213-61.374 85.263 0 11.271 5.322 45.947 54.621 124.325 28.974 46.064 60.821 87.044 85.562 110.443-11.254 4.501-23.313 6.843-35.714 6.843h-50.476c-53.083 0-96.269-43.186-96.269-96.269v-159.754c0-4.142-3.357-7.5-7.5-7.5s-7.5 3.358-7.5 7.5v159.753c0 61.354 49.915 111.269 111.268 111.269h50.476c22.652 0 45.026-6.765 64.468-20.585 4.198-2.993 7.94-6.033 11.806-9.672 9.069 4.453 19.078 6.794 29.281 6.794h87.812c13.541 0 26.572-4.05 37.686-11.713 3.409-2.351 4.268-7.021 1.917-10.432s-7.023-4.269-10.433-1.917c-8.598 5.928-18.685 9.062-29.17 9.062h-87.812c-6.38 0-12.659-1.18-18.534-3.445 13.919-17.46 22.442-38.934 23.99-61.791h133.789v13.801c0 6.359-1.145 12.562-3.401 18.438-1.485 3.867.444 8.205 4.312 9.69.885.34 1.794.501 2.688.501 3.015 0 5.857-1.831 7.003-4.812 2.919-7.599 4.399-15.612 4.399-23.817v-13.801h10.642c9.402 0 17.052-7.649 17.052-17.052v-28.958c-.001-9.403-7.65-17.053-17.053-17.053zm-91.422-73.123c-7.519 11.098-10.562 22.048-2.945 33.218 4.606 6.755 12.239 10.789 20.419 10.789h12.31c18.077 0 33.384 12.28 37.793 29.116h-135.328v-59.671c19.457-7.464 42.672-12.079 67.751-13.452zm-304.968-173.49c6.352-2.004 9.933-8.813 7.98-15.191-.982-3.188-1.35-6.509-1.091-9.882.963-12.785 11.323-23.204 24.099-24.236 4.543-.366 8.899.366 12.973 2.188 3.249 1.442 6.955 1.431 10.169-.028 3.139-1.425 5.521-4.123 6.534-7.387 5.438-17.4 21.345-29.089 39.581-29.089 18.235 0 34.142 11.689 39.583 29.094 1.026 3.277 3.415 5.97 6.553 7.389 3.21 1.45 6.907 1.458 10.16.015 4.066-1.814 8.425-2.547 12.96-2.182 12.771 1.032 23.133 11.453 24.104 24.247.258 3.362-.109 6.683-1.087 9.857-1.979 6.38 1.603 13.202 7.954 15.199 6.409 2.043 11.705 6.482 14.938 12.162-9.234 1.615-18.585 3.796-27.957 6.5l-20.892-36.198c-4.041-6.979-13.014-9.383-20.01-5.355l-20.054 11.582c-3.395 1.956-5.822 5.117-6.836 8.9-.349 1.302-.503 2.623-.492 3.934-13.971.822-25.855 10.168-30.273 23.015-3.598-.868-7.24-1.695-10.926-2.485v-25.825c0-8.078-6.571-14.649-14.648-14.649h-23.17c-8.079 0-14.651 6.572-14.651 14.649v17.508c-12.688-1.375-25.849-2.388-39.515-3.047 3.278-4.976 8.197-8.833 14.014-10.685zm154.864 30.128c-1.781-11.031-8.865-20.305-18.546-25.12l-2.024-3.505 19.457-11.238 19.065 33.033c-6.007 2.076-11.999 4.356-17.952 6.83zm-91.895-11.035c-7.318-1.32-14.803-2.5-22.47-3.536v-18.983h22.47zm40.526 9.239c2.878-6.98 9.761-11.879 17.679-11.879 10.864 0 19.687 9.122 19.102 20.157-1.571.745-3.138 1.503-4.699 2.274-10.291-3.921-20.971-7.438-32.082-10.552zm72.509 356.019c-23.978-21.378-57.631-64.228-87.206-111.248-32.271-51.307-52.318-95.885-52.318-116.339 0-38.586 88.312-114.986 184.856-130.399.239-.039.45.02.629.173.252.215.252.464.252.546 0 18.771.052 263.969 0 275.014 0 .026-.004.051-.004.077 0 .014.002.028.002.042-.039 33.837-17.76 64.807-46.211 82.134zm222.438-91.727c0 1.132-.92 2.052-2.052 2.052h-159.173v-33.063h159.174c1.132 0 2.052.921 2.052 2.053v28.958z"/></g></svg>