<svg id="icons" xmlns="http://www.w3.org/2000/svg" viewBox="0 0 64 64"><defs><style>.cls-1{fill:none;stroke:#000;stroke-linecap:round;stroke-linejoin:round;stroke-width:2px;}</style></defs><title>64</title><g id="tea_bag"><path class="cls-1" d="M52.53936,20.38256,60,29.84321V57.51532a2,2,0,0,1-2,2H30.92866a2,2,0,0,1-2-2V29.84321l7.46064-9.46065a2,2,0,0,1,1.41422-.58579H51.12514A2,2,0,0,1,52.53936,20.38256Z"/><line class="cls-1" x1="60" y1="29.84321" x2="28.92866" y2="29.84321"/><line class="cls-1" x1="60" y1="52.48838" x2="28.92866" y2="52.48838"/><path class="cls-1" d="M51.86748,19.94025l-2.41292,4.02153a2,2,0,0,1-1.715.971h-6.55a2,2,0,0,1-1.715-.971L37.06133,19.9397"/><path class="cls-1" d="M44.46433,19.79677l.00024-3.54885A11.76324,11.76324,0,0,0,32.70132,4.48468h0A11.76325,11.76325,0,0,0,20.93805,16.24792V47.10681a6.15973,6.15973,0,0,1-6.15973,6.15974h0a6.15973,6.15973,0,0,1-6.15973-6.15974V29.7851"/><path class="cls-1" d="M5,18.5366h7.23713a1,1,0,0,1,1,1v5.98132a4.27022,4.27022,0,0,1-4.27022,4.27022H8.14443A4.14443,4.14443,0,0,1,4,25.6437V19.5366A1,1,0,0,1,5,18.5366Z"/></g></svg>