<svg id="Capa_1" enable-background="new 0 0 508.187 508.187" height="512" viewBox="0 0 508.187 508.187" width="512" xmlns="http://www.w3.org/2000/svg"><g><path d="m343.784 30.86c-9.073-9.073-17.623-18.485-29.369-24.184-17.689-8.582-38.814-8.949-56.722-.758l-78.851 36.067c-22.364-7.452-47.578-1.532-64.247 15.136l-57.3 57.3c-27.176 27.177-23.08 73.725 8.371 95.754 17.278 12.101 34.555 24.203 51.833 36.304 17.964 12.582 36.038 28.58 55.926 38.146-9.52 33.221-14.16 83.292-54.828 91.953-33.068 7.043-56.814-20.906-76.64-42.813-10.327-11.41-21.573-21.349-25.263-36.96-2.841-12.016-.92-23.678 3.959-34.834 7.04-16.097 14.626-31.976 21.935-47.953l-13.641-6.239c-7.52 16.441-15.375 32.766-22.573 49.35-7.194 16.576-8.07 34.941-1.526 51.905 5.188 13.449 14.85 22.865 24.781 32.796 8.259 64.262 38.769 121.07 84.544 166.356l35.673-22.067c-6.261-25.256-13.065-51.631-13.942-77.709l-14.992.505c.701 20.818 8.644 56.637 11.801 70.166l-16.334 10.104c-35.037-36.179-58.433-80.385-68.509-129.111 17.447 17.447 36.613 33.647 62.788 32.569 22.376-.921 43.389-13.554 54.701-32.883 6.563-11.215 9.229-24.746 12.779-37.133 3.168-11.056 6.337-22.112 9.505-33.167 37.855 7.969 60.839-20.626 84.539-44.326 15.484-15.484 21.37-37.323 16.962-57.657l55.804-15.991c18.798-5.387 33.494-18.524 41.473-35.034 33.924-1.629 66.881 3.768 99.106 14.127l22.242-36.09c0-.001-51.078-66.711-163.985-83.629zm-2.969 126.205-56.607 16.221c-3.253-6.659-7.854-12.623-12.064-18.695l-12.326 8.548s33.873 35.639 1.756 71.388c-8.83 8.83-17.484 17.882-26.511 26.511-16.911 16.166-42.17 19.934-61.909 6.109l-98.883-69.258c-23.941-16.769-27.043-52.188-6.369-72.861l57.3-57.3c23.617-23.621 57.729-14.65 75.563 10.145 10.242 14.239 20.436 28.514 30.654 42.771l12.191-8.738c-6.828-9.526-13.655-19.053-20.483-28.579-8.172-11.402-15.805-24.258-27.302-32.615l68.108-31.153c41.631-19.045 73.317 24.978 98.545 51.209 26.614 27.672 16.518 75.356-21.663 86.297zm138.077-24.311c-28.351-8.462-57.647-12.314-87.277-11.51 3.808-17.976-.203-37.102-10.846-52.064-5.243-7.37-12.191-13.525-18.565-19.9 47.915 10.258 91.259 33.292 126.566 67.444z"/><path d="m244.281 130.122h15v16.536h-15z" transform="matrix(.822 -.57 .57 .822 -33.982 168.143)"/><path d="m79.906 168.424h15v14.633h-15z" transform="matrix(.564 -.826 .826 .564 -107.004 148.735)"/><path d="m105.389 185.992h15v14.332h-15z" transform="matrix(.564 -.826 .826 .564 -110.28 177.365)"/><path d="m36.295 291.498h15v15.105h-15z" transform="matrix(.707 -.707 .707 .707 -198.626 118.547)"/></g></svg>