<svg id="icons" xmlns="http://www.w3.org/2000/svg" viewBox="0 0 64 64"><defs><style>.cls-1{fill:none;stroke:#000;stroke-linecap:round;stroke-linejoin:round;stroke-width:2px;}</style></defs><title>30</title><g id="milk_2"><path class="cls-1" d="M56.24127,38.50764l-4.7515-1.224a10.40542,10.40542,0,0,0-7.18536.731h0A10.31956,10.31956,0,0,1,33.822,37.20984l-1.30351-.94333"/><path class="cls-1" d="M56.61636,29.77815l-1.115,25.94822a4.11536,4.11536,0,0,1-3.951,4.27131H37.31631a4.12393,4.12393,0,0,1-3.96165-4.27131L32.23972,29.77815Z"/><path class="cls-1" d="M37.3132,60h-13.357V17.19751l8.284-9.12019,7.30885,8.35593a2.22986,2.22986,0,0,1,.55146,1.46809V29.774"/><path class="cls-1" d="M23.95436,59.99768H9.61352a2.22988,2.22988,0,0,1-2.22988-2.22987V17.2004l7.86407-9.12794h16.992V5.11494A1.11494,1.11494,0,0,0,31.12478,4H16.36265a1.11494,1.11494,0,0,0-1.11494,1.11494V8.07246"/><line class="cls-1" x1="23.95436" y1="17.2004" x2="7.38364" y2="17.2004"/><line class="cls-1" x1="23.95436" y1="29.77815" x2="7.38364" y2="29.77815"/><line class="cls-1" x1="23.95436" y1="47.1176" x2="7.38364" y2="47.1176"/></g></svg>