<?xml version="1.0" encoding="UTF-8"?><svg id="Line" xmlns="http://www.w3.org/2000/svg" viewBox="0 0 64 64"><path d="M16.72656,34.5c-.38379,0-.76758-.14648-1.06055-.43945-.58594-.58545-.58594-1.53564,0-2.12109l2-2c.58594-.58594,1.53516-.58594,2.12109,0,.58594.58545.58594,1.53564,0,2.12109l-2,2c-.29297.29297-.67676.43945-1.06055.43945Z" style="fill:#293a4c; stroke-width:0px;"/><path d="M35.80908,57.5H11.98145c-1.22607,0-2.37207-.48438-3.22656-1.36328-.85449-.87939-1.30615-2.03857-1.27148-3.26416l.87402-30.82422c-2.78613-.68994-4.85742-3.21143-4.85742-6.20801,0-3.59131,2.51416-6.73535,5.97754-7.47656,7.48193-1.60156,15.08496-2.1748,22.59033-1.70166.82666.05225,1.45508.76465,1.40283,1.59131-.05176.82715-.75977,1.45801-1.59131,1.40283-7.23584-.4541-14.56055.09619-21.77393,1.64111-2.08936.44678-3.60547,2.35742-3.60547,4.54297,0,1.87207,1.52344,3.39502,3.39551,3.39502.40527,0,.79297.16406,1.07568.45459.28223.29053.43506.68311.42383,1.08789l-.9126,32.17969c-.01172.40869.13867.79492.42383,1.08789.28467.29346.6665.45459,1.0752.45459h23.82764c.82861,0,1.5.67139,1.5,1.5s-.67139,1.5-1.5,1.5Z" style="fill:#293a4c; stroke-width:0px;"/><path d="M22.72656,28.5c-.38379,0-.76758-.14648-1.06055-.43945-.58594-.58545-.58594-1.53564,0-2.12109l9-9c.58594-.58594,1.53516-.58594,2.12109,0,.58594.58545.58594,1.53564,0,2.12109l-9,9c-.29297.29297-.67676.43945-1.06055.43945Z" style="fill:#293a4c; stroke-width:0px;"/><path d="M19.44775,42.5c-.38379,0-.76758-.14648-1.06055-.43945-.58594-.58545-.58594-1.53564,0-2.12109l15-15c.58594-.58594,1.53516-.58594,2.12109,0,.58594.58545.58594,1.53564,0,2.12109l-15,15c-.29297.29297-.67676.43945-1.06055.43945Z" style="fill:#293a4c; stroke-width:0px;"/><path d="M22.16895,50.5c-.38379,0-.76758-.14648-1.06055-.43945-.58594-.58545-.58594-1.53516,0-2.12109l8.55762-8.55811c.58594-.58594,1.53516-.58594,2.12109,0,.58594.58545.58594,1.53516,0,2.12109l-8.55762,8.55811c-.29297.29297-.67676.43945-1.06055.43945Z" style="fill:#293a4c; stroke-width:0px;"/><path d="M35.16895,37.5c-.38379,0-.76758-.14648-1.06055-.43945-.58594-.58545-.58594-1.53564,0-2.12109l2-2c.58594-.58594,1.53516-.58594,2.12109,0,.58594.58545.58594,1.53564,0,2.12109l-2,2c-.29297.29297-.67676.43945-1.06055.43945Z" style="fill:#293a4c; stroke-width:0px;"/><path d="M51.91357,57.5h-10.10449c-.82861,0-1.5-.67139-1.5-1.5s.67139-1.5,1.5-1.5c.40869,0,.79102-.16162,1.07568-.45459.28516-.29297.43555-.67969.42383-1.08789l-.9126-32.17969c-.01123-.40479.1416-.79736.42383-1.08789.28271-.29053.67041-.45459,1.07568-.45459,1.92969,0,3.5-1.57031,3.5-3.5,0-2.12012-1.47412-3.97559-3.50488-4.41113-3.96484-.85059-8.00635-1.40967-12.01123-1.66162-.79004-.0498-1.40576-.70508-1.40576-1.49707s.61572-1.44727,1.40576-1.49707c7.55225-.47656,15.20557.10449,22.74609,1.72217,3.40381.73096,5.87451,3.81982,5.87451,7.34473,0,3.05469-2.11768,5.62354-4.96191,6.31641l.87402,30.8208c.03467,1.22559-.41699,2.38477-1.27148,3.26416-.85498.87891-2.00098,1.36328-3.22705,1.36328ZM46.05518,54.5h5.8584c.40869,0,.79102-.16162,1.07568-.45459.28516-.29297.43555-.6792.42383-1.08789l-.9126-32.17969c-.01123-.40479.1416-.79736.42383-1.08789.28271-.29053.67041-.45459,1.07568-.45459,1.92969,0,3.5-1.57031,3.5-3.5,0-2.12012-1.47363-3.97559-3.50439-4.41113-1.97266-.42334-3.95361-.77344-5.93799-1.04883,1.44775,1.38574,2.33789,3.34424,2.33789,5.45996,0,3.05469-2.11768,5.62354-4.96191,6.31641l.87402,30.8208c.01562.56348-.0708,1.11279-.25244,1.62744Z" style="fill:#293a4c; stroke-width:0px;"/></svg>