<?xml version="1.0" encoding="UTF-8"?><svg id="Line" xmlns="http://www.w3.org/2000/svg" viewBox="0 0 64 64"><path d="M30.51465,39.58301c-10.89062.00049-18.99707-4.36865-21.35449-11.6167-2.19727-6.75586,1.44531-14.29443,9.50684-19.67383,8.11035-5.40479,20.69141-7.06348,27.70898-.48291,3.39844,3.18701,4.0459,7.48242,1.73242,11.49023-4.2168,7.30664-15.36719,10.19824-22.73438,8.22461-3.92969-1.05273-6.18359-3.38721-6.18359-6.4043,0-3.47607,2.25879-6.27246,6.35938-7.87451,4.32715-1.69043,10.74707-1.8667,12.8623.42773,1.24023,1.3418,1.08496,2.60352.88281,3.23633-.89453,2.79443-6.05762,4.07324-7.61914,4.39844-.80664.16699-1.60449-.35107-1.77344-1.16162-.16992-.81055.35059-1.60498,1.16113-1.7749,2.75684-.57812,5.19434-1.77295,5.37402-2.37695,0,.00098-.00098.00146-.00098.00146-.0127,0-.06934-.11572-.22852-.28809-.6875-.74756-5.37207-1.30518-9.56641.33203-2.03027.79346-4.45117,2.31836-4.45117,5.08008,0,2.12793,2.48145,3.11035,3.95996,3.50635,5.57227,1.49512,15.63867-.37939,19.36035-6.82666,2.17969-3.77588.19141-6.50879-1.1875-7.80176-4.65723-4.36621-14.9043-5.26562-23.99121.79004-6.89453,4.60059-10.08301,10.82764-8.31934,16.25049,2.01367,6.19092,9.90137,9.91699,20.07715,9.5127.82422-.02832,1.52539.61035,1.55957,1.43799.0332.82764-.61035,1.52588-1.43848,1.55908-.57227.02344-1.13867.03467-1.69629.03467Z" style="fill:#293a4c; stroke-width:0px;"/><path d="M29.87109,51.45996c-.0166,0-.03418-.00049-.05078-.00098-12.00781-.40039-26.32031-4.55127-26.32031-22.04883,0-7.21924,4.74902-12.86914,9.19434-15.74902.69336-.44971,1.62305-.25244,2.07422.44287.4502.69531.25195,1.62402-.44336,2.07471-3.7832,2.45117-7.8252,7.21436-7.8252,13.23145,0,18.26904,17.62793,18.85742,23.41992,19.05078.82812.02734,1.47656.72119,1.44922,1.54883-.02734.81104-.69238,1.4502-1.49805,1.4502Z" style="fill:#293a4c; stroke-width:0px;"/><path d="M58.58105,24.50049c-.69629,0-1.32031-.48828-1.4668-1.19727-1.52441-7.3833-7.35938-10.98242-11.98633-12.70117-.77637-.28857-1.17188-1.15234-.88379-1.92871.28809-.77734,1.15332-1.17188,1.92871-.88379,5.33691,1.98291,12.07715,6.17871,13.87891,14.90723.16797.81104-.35449,1.60498-1.16504,1.77246-.10254.021-.20508.03125-.30566.03125Z" style="fill:#293a4c; stroke-width:0px;"/><path d="M41.1123,60.51221c-3.5957,0-6.98242-1.06445-9.4248-3.50732-6.17285-6.17285-3.54785-18.37256,2.8291-24.74854,5.88672-5.88867,13.74512-5.34619,20.50586,1.41406,6.75977,6.76025,7.30176,14.61768,1.41406,20.50586h0c-3.85254,3.85303-9.83301,6.33594-15.32422,6.33594ZM43.58789,31.16846c-2.21289,0-4.59375.85303-6.9502,3.20898-6.46289,6.46289-6.83203,16.50244-2.8291,20.50635,4.00391,4.00342,14.04395,3.63184,20.50684-2.82861,6.7002-6.70117,1.24316-13.60596-1.41406-16.26367-1.72363-1.72314-5.23242-4.62305-9.31348-4.62305ZM55.37598,53.11572h.00977-.00977Z" style="fill:#293a4c; stroke-width:0px;"/><path d="M58.0791,50.83057c-.19531,0-.39355-.03857-.58496-.11963-1.69824-.72119-4.32715-2.4668-4.92871-6.46387-1.9873.86035-4.98633,1.646-7.73438.3252-.30664-.14697-.55371-.39453-.70215-.70068-1.32812-2.75781-.54492-5.7583.31445-7.74658-3.98145-.60107-5.72266-3.22363-6.44336-4.91748-.3252-.7627.03027-1.64355.79297-1.96777.76367-.3252,1.64453.03174,1.9668.79297.97656,2.2959,2.99512,3.36816,6.04492,3.19971.57031-.03125,1.11426.26465,1.39453.76562.2793.50098.24902,1.11768-.07812,1.58887-.02441.03467-2.43164,3.58252-1.49023,6.48096,2.8916.92871,6.43652-1.47559,6.47559-1.50146.4707-.32422,1.08887-.35303,1.58691-.07324.49902.28027.79688.81934.76465,1.39111-.17188,3.04736.90723,5.08789,3.20801,6.06494.7627.32422,1.11816,1.20459.79492,1.96729-.24316.5708-.79785.91406-1.38184.91406Z" style="fill:#293a4c; stroke-width:0px;"/><path d="M53.96094,36.22803c-.16992,0-.34375-.0293-.5127-.09131-.77539-.2832-1.17773-1.1377-.89746-1.91455.0625-.17432,1.58789-4.29443,5.73438-6.5415.72852-.39502,1.6377-.12451,2.03418.60449.39453.72803.12402,1.63867-.60449,2.0332-3.11621,1.68848-4.33203,4.89502-4.34375,4.92725-.22461.60547-.79883.98242-1.41016.98242Z" style="fill:#293a4c; stroke-width:0px;"/><path d="M36.28418,44.00928c-.38379,0-.76758-.14648-1.06055-.43945-.58594-.58545-.58594-1.53564,0-2.12109l1.41406-1.41406c.58594-.58594,1.53516-.58594,2.12109,0,.58594.58545.58594,1.53564,0,2.12109l-1.41406,1.41406c-.29297.29297-.67676.43945-1.06055.43945Z" style="fill:#293a4c; stroke-width:0px;"/><path d="M46.18359,53.90869c-.38379,0-.76758-.14648-1.06055-.43945-.58594-.58545-.58594-1.53564,0-2.12109l1.41406-1.41406c.58594-.58594,1.53516-.58594,2.12109,0,.58594.58545.58594,1.53564,0,2.12109l-1.41406,1.41406c-.29297.29297-.67676.43945-1.06055.43945Z" style="fill:#293a4c; stroke-width:0px;"/><path d="M37.69824,52.49463c-.38379,0-.76758-.14648-1.06055-.43896-.58594-.58594-.58594-1.53564,0-2.12158l1.41406-1.41455c.58594-.58594,1.53516-.58545,2.12109-.00049.58594.58594.58594,1.53564,0,2.12158l-1.41406,1.41455c-.29297.29297-.67676.43945-1.06055.43945Z" style="fill:#293a4c; stroke-width:0px;"/></svg>