<?xml version="1.0" encoding="UTF-8"?><svg id="Line" xmlns="http://www.w3.org/2000/svg" viewBox="0 0 64 64"><path d="M16.99951,28.03857c-.81104,0-1.47803-.64648-1.49902-1.46143-.021-.82812.63281-1.5166,1.46094-1.53809l42.00049-1.07715c.0127-.00049.02539-.00049.03906-.00049.81055,0,1.47754.64648,1.49805,1.46143.02148.82812-.63281,1.5166-1.46094,1.53809l-41.99951,1.07715c-.01318.00049-.02637.00049-.03906.00049Z" style="fill:#293a4c; stroke-width:0px;"/><path d="M17,37.5c-.82861,0-1.5-.67139-1.5-1.5v-9.46143c0-.59473.35156-1.1333.89551-1.37305l19.89062-8.75537c.75977-.33301,1.64453.01172,1.97754.76855.33398.7583-.01074,1.64355-.76855,1.97754l-18.99512,8.36084v8.48291c0,.82861-.67139,1.5-1.5,1.5Z" style="fill:#293a4c; stroke-width:0px;"/><path d="M59,50.5h-9.98047c-.82812,0-1.5-.67139-1.5-1.5s.67188-1.5,1.5-1.5h8.48047v-21.26807l-13.38184-9.56104c-.67383-.48193-.83008-1.41846-.34863-2.09277s1.41797-.82861,2.09277-.34863l14.00977,10.00977c.39453.28174.62793.73633.62793,1.2207v23.54004c0,.82861-.67188,1.5-1.5,1.5Z" style="fill:#293a4c; stroke-width:0px;"/><path d="M16.99902,34.5c-.81055,0-1.47754-.64648-1.49854-1.46143-.02148-.82812.63281-1.5166,1.46094-1.53809l42.00049-1.07764c.0127-.00049.02539-.00049.03906-.00049.81055,0,1.47754.64648,1.49805,1.46143.02148.82812-.63281,1.5166-1.46094,1.53809l-41.99951,1.07764c-.01318.00049-.02637.00049-.03955.00049Z" style="fill:#293a4c; stroke-width:0px;"/><path d="M49.99902,43.73096c-.81055,0-1.47754-.64648-1.49805-1.46143-.02148-.82812.63281-1.5166,1.46094-1.53809l9-.23096c.0127-.00049.02539-.00049.03906-.00049.81055,0,1.47754.64648,1.49805,1.46143.02148.82812-.63281,1.5166-1.46094,1.53809l-9,.23096c-.0127.00049-.02539.00049-.03906.00049Z" style="fill:#293a4c; stroke-width:0px;"/><path d="M40.69238,21.57715c-3.20215,0-5.80762-2.60547-5.80762-5.80811,0-3.20215,2.60547-5.80762,5.80762-5.80762s5.80762,2.60547,5.80762,5.80762c0,3.20264-2.60547,5.80811-5.80762,5.80811ZM40.69238,12.96143c-1.54785,0-2.80762,1.25928-2.80762,2.80762s1.25977,2.80811,2.80762,2.80811,2.80762-1.25977,2.80762-2.80811-1.25977-2.80762-2.80762-2.80762Z" style="fill:#293a4c; stroke-width:0px;"/><path d="M40.69141,12.96191c-.67188,0-1.28418-.45508-1.4541-1.13672-.47363-1.89355-.24414-6.0376,4.01465-8.16699.74219-.36865,1.64258-.06982,2.0127.6709.37012.74121.07031,1.64209-.6709,2.0127-3.19434,1.59717-2.47852,4.62744-2.44629,4.75586.20117.80371-.28711,1.61816-1.09082,1.81885-.12207.03076-.24512.04541-.36523.04541Z" style="fill:#293a4c; stroke-width:0px;"/><path d="M27.5,60.5c-16.14941,0-24-2.78027-24-8.5,0-7.47803,13.12939-13.5,24-13.5s24,6.02197,24,13.5c0,5.71973-7.85059,8.5-24,8.5ZM27.5,41.5c-11.98242,0-21,6.36963-21,10.5,0,3.44385,7.85059,5.5,21,5.5s21-2.05615,21-5.5c0-4.13037-9.01758-10.5-21-10.5Z" style="fill:#293a4c; stroke-width:0px;"/><path d="M27.5,47.5c-.82861,0-1.5-.67139-1.5-1.5v-6c0-.82861.67139-1.5,1.5-1.5s1.5.67139,1.5,1.5v6c0,.82861-.67139,1.5-1.5,1.5Z" style="fill:#293a4c; stroke-width:0px;"/><path d="M16.5,49.50049c-.61963,0-1.19922-.38672-1.41553-1.00439l-1.91016-5.4502c-.27393-.78174.1377-1.6377.91943-1.91162.78125-.27393,1.6377.1377,1.91162.91943l1.91016,5.4502c.27393.78174-.1377,1.6377-.91943,1.91162-.16406.05762-.33154.08496-.49609.08496Z" style="fill:#293a4c; stroke-width:0px;"/><path d="M38.5,49.50049c-.16504,0-.33203-.02734-.49609-.08496-.78223-.27393-1.19336-1.12988-.91992-1.91162l1.91016-5.4502c.27539-.78223,1.13379-1.19287,1.91211-.91943.78223.27393,1.19336,1.12988.91992,1.91162l-1.91016,5.4502c-.2168.61768-.79688,1.00439-1.41602,1.00439Z" style="fill:#293a4c; stroke-width:0px;"/></svg>