<svg id="icons" xmlns="http://www.w3.org/2000/svg" viewBox="0 0 64 64"><defs><style>.cls-1{fill:none;stroke:#000;stroke-linecap:round;stroke-linejoin:round;stroke-width:2px;}</style></defs><title>34</title><g id="pancake"><path class="cls-1" d="M4,47.71824H60v.73228a5,5,0,0,1-5,5H9a5,5,0,0,1-5-5Z"/><line class="cls-1" x1="42.00453" y1="25.92303" x2="28.57339" y2="25.92303"/><path class="cls-1" d="M55.99346,23.193a2.93005,2.93005,0,0,1-.70279,1.92859,2.28783,2.28783,0,0,1-1.71785.80141H47.82761v.814A3.10031,3.10031,0,0,1,44.9162,30.0055a2.7419,2.7419,0,0,1-2.0527-.95176,3.46632,3.46632,0,0,1-.859-2.31673v-.814H28.57332v.814a3.10772,3.10772,0,0,1-2.91141,3.26849,2.7419,2.7419,0,0,1-2.0527-.95176,3.46632,3.46632,0,0,1-.859-2.31673v3.70684A3.45807,3.45807,0,0,1,19.50409,34.088,3.05239,3.05239,0,0,1,17.206,33.02358a3.85614,3.85614,0,0,1-.95935-2.57973V25.923H10.46808a2.60469,2.60469,0,0,1-2.38715-2.73,2.882,2.882,0,0,1,.71383-1.92852,2.2877,2.2877,0,0,1,1.718-.80149H53.57282A2.59132,2.59132,0,0,1,55.99346,23.193Z"/><path class="cls-1" d="M47.82767,25.923h5.745A2.59279,2.59279,0,0,1,55.96,28.64052a2.858,2.858,0,0,1-.714,1.92854,2.33167,2.33167,0,0,1-1.71794.80147H22.6387"/><path class="cls-1" d="M16.24665,31.37053h-5.844a2.58461,2.58461,0,0,1-2.35522-2.73,2.8955,2.8955,0,0,1,.69336-1.916,2.2447,2.2447,0,0,1,1.69488-.80147h5.701"/><path class="cls-1" d="M22.6387,31.37053H53.52809A2.5851,2.5851,0,0,1,55.91535,34.088a2.85805,2.85805,0,0,1-.71394,1.92854,2.26989,2.26989,0,0,1-1.71794.80147H10.43465a2.58474,2.58474,0,0,1-2.43188-2.73,2.88165,2.88165,0,0,1,.714-1.92854,2.283,2.283,0,0,1,1.71793-.789h5.92354"/><rect class="cls-1" x="7.96068" y="36.81793" width="47.9123" height="5.45016" rx="2.10437"/><rect class="cls-1" x="7.91909" y="42.26809" width="47.9123" height="5.45016" rx="2.10437"/><circle class="cls-1" cx="33.55823" cy="16.88203" r="3.58095"/><circle class="cls-1" cx="27.87798" cy="18.21714" r="2.24584"/></g></svg>