<svg id="icons" xmlns="http://www.w3.org/2000/svg" viewBox="0 0 64 64"><defs><style>.cls-1{fill:none;stroke:#000;stroke-linecap:round;stroke-linejoin:round;stroke-width:2px;}</style></defs><title>54</title><g id="french_press_2"><rect class="cls-1" x="16.57157" y="55.50814" width="32.43643" height="4.49187" rx="2.24593" transform="translate(65.57957 115.50815) rotate(180)"/><rect class="cls-1" x="22.87673" y="46.49117" width="19.91617" height="4.49187" rx="2.24593" transform="translate(65.66962 97.47421) rotate(180)"/><rect class="cls-1" x="16.57157" y="14.467" width="32.43643" height="4.49187" rx="2.24593" transform="translate(65.57957 33.42587) rotate(-180)"/><path class="cls-1" d="M19.93326,9.97513H45.64632a0,0,0,0,1,0,0V11.467a3,3,0,0,1-3,3H22.93326a3,3,0,0,1-3-3V9.97513A0,0,0,0,1,19.93326,9.97513Z" transform="translate(65.57957 24.44213) rotate(180)"/><rect class="cls-1" x="18.36695" y="18.95887" width="28.72599" height="36.54928" transform="translate(65.45988 74.46701) rotate(180)"/><circle class="cls-1" cx="32.72994" cy="6.98756" r="2.98757"/><line class="cls-1" x1="32.72994" y1="18.95887" x2="32.72994" y2="46.49117"/><path class="cls-1" d="M47.09293,26.23165h0a6.83828,6.83828,0,0,1,6.83828,6.83828v8.32715a6.83828,6.83828,0,0,1-6.83828,6.83828h0"/><path class="cls-1" d="M18.367,18.95887H10.06878a5.4421,5.4421,0,0,0,3.9385,5.23027L18.367,25.44246"/></g></svg>