<svg id="Capa_1" enable-background="new 0 0 512 512" height="512" viewBox="0 0 512 512" width="512" xmlns="http://www.w3.org/2000/svg"><g><path d="m437.02 74.98c-48.353-48.351-112.64-74.98-181.02-74.98-50.309 0-99.002 14.584-140.816 42.176-3.457 2.281-4.411 6.934-2.129 10.391 2.281 3.457 6.934 4.41 10.391 2.129 39.355-25.969 85.191-39.696 132.554-39.696 64.374 0 124.894 25.068 170.413 70.588 45.519 45.518 70.587 106.039 70.587 170.412s-25.068 124.894-70.587 170.412c-45.519 45.52-106.039 70.588-170.413 70.588s-124.894-25.068-170.413-70.588c-45.519-45.518-70.587-106.039-70.587-170.412 0-69.072 29.715-134.934 81.527-180.695 3.104-2.742 3.398-7.481.656-10.586-2.741-3.104-7.481-3.398-10.586-.656-55.034 48.607-86.597 118.565-86.597 191.937 0 68.38 26.629 132.667 74.98 181.02 48.353 48.351 112.64 74.98 181.02 74.98s132.667-26.629 181.02-74.98c48.351-48.353 74.98-112.64 74.98-181.02s-26.629-132.667-74.98-181.02z"/><path d="m84.198 276.97c-6.636-.694-13.202 2.512-16.735 8.161-11.456 18.299-12.65 40.792-3.195 60.165 9.505 19.499 28.131 32.365 49.438 34.528 3.71 9.678 9.869 18.412 18.148 25.342 11.337 9.493 25.588 14.429 39.952 14.428 7.152 0 14.327-1.246 21.188-3.741l9.059 7.584c3.17 2.653 7.9 2.246 10.565-.937 2.659-3.176 2.24-7.906-.936-10.565l-9.043-7.572c3.764-21.64-4.298-44.1-21.282-58.32-11.958-10.012-26.841-15.006-41.926-14.467-.813-6.938-2.779-13.758-5.858-20.072-9.443-19.381-27.901-32.291-49.375-34.534zm87.529 80.575c10.475 8.77 16.476 21.675 16.817 35.018l-27.124-22.709c-3.174-2.656-7.906-2.238-10.565.937-2.659 3.176-2.24 7.906.936 10.565l27.124 22.709c-13.195 2.011-26.955-1.629-37.431-10.4-12.709-10.64-18.617-26.764-16.392-42.658.136-.972.826-1.796 1.759-2.101 15.513-5.068 32.298-1.892 44.876 8.639zm-49.535-22.897c-6.338 2.07-11.031 7.675-11.956 14.278-.714 5.098-.791 10.174-.28 15.139-13.916-3.025-25.796-12.196-32.206-25.345-7.17-14.692-6.263-31.75 2.428-45.633.519-.83 1.491-1.297 2.462-1.199 16.289 1.702 30.288 11.491 37.448 26.188 2.468 5.061 3.983 10.367 4.539 15.835-.813.232-1.625.473-2.435.737z"/><path d="m409.846 285.845c-1.525 3.851.36 8.209 4.211 9.734 3.85 1.525 8.209-.36 9.735-4.211 4.633-11.696 6.982-24.059 6.982-36.744v-58.952c0-57.135-46.482-103.617-103.617-103.617h-89.593c-55.042 0-99.822 44.779-99.822 99.821v58.778c0 26.761 21.771 48.532 48.532 48.532h3.987c3.246 31.009 29.542 55.259 61.396 55.259h79.294c27.412 0 53.912-11.453 72.705-31.423 2.838-3.016 2.694-7.763-.322-10.602-3.016-2.84-7.763-2.694-10.602.322-16.205 17.219-38.146 26.702-61.781 26.702h-79.294c-25.769 0-46.733-20.965-46.733-46.733v-92.361c0-20.974 17.063-38.036 38.036-38.036h75.625c23.119 0 41.928 18.809 41.928 41.928v39.237c0 22.443-18.26 40.703-40.705 40.703h-33.621c-14.337 0-26-11.663-26-26v-14.605c0-14.337 11.664-26 26-26h26.564c4.142 0 7.5-3.357 7.5-7.5s-3.358-7.5-7.5-7.5h-26.564c-22.608 0-41 18.393-41 41v14.605c0 22.607 18.393 41 41 41h33.621c30.715 0 55.704-24.988 55.705-55.703v-39.237c0-31.39-25.538-56.928-56.928-56.928h-75.625c-29.244 0-53.036 23.792-53.036 53.036v83.836h-3.65c-18.49 0-33.532-15.042-33.532-33.532v-58.778c0-46.771 38.051-84.821 84.822-84.821h89.593c48.864 0 88.617 39.754 88.617 88.617v58.952c0 10.786-1.994 21.29-5.928 31.221z"/></g></svg>