<svg id="icons" xmlns="http://www.w3.org/2000/svg" viewBox="0 0 64 64"><defs><style>.cls-1{fill:none;stroke:#000;stroke-linecap:round;stroke-linejoin:round;stroke-width:2px;}</style></defs><title>66</title><g id="coffee_6"><line class="cls-1" x1="6.02235" y1="35.87287" x2="5.47256" y2="28.75896"/><line class="cls-1" x1="28.89977" y1="28.75896" x2="28.34998" y2="35.87287"/><path class="cls-1" d="M7.16775,50.84834l.47881,6.22832A1,1,0,0,0,8.64362,58H25.72108a1,1,0,0,0,.99706-.92335l.47881-6.22832"/><path class="cls-1" d="M29.24589,28.759H5.12451A1.12166,1.12166,0,0,1,4,27.64479V25.422a1.118,1.118,0,0,1,1.12416-1.11178H29.24553A1.118,1.118,0,0,1,30.36969,25.422v2.22276A1.1215,1.1215,0,0,1,29.24589,28.759Z"/><path class="cls-1" d="M28.07888,24.31025H6.29081l2.01156-3.90433a1,1,0,0,1,.889-.542h15.987a1,1,0,0,1,.889.542Z"/><path class="cls-1" d="M5.103,35.871H29.52834a.76279.76279,0,0,1,.75913.83733L28.98716,49.94967a1,1,0,0,1-.99521.90227H6.37774a1,1,0,0,1-.99521-.90227L4.1078,36.96873A1,1,0,0,1,5.103,35.871Z"/><ellipse class="cls-1" cx="41.89007" cy="39.02659" rx="9.22666" ry="7.31577" transform="translate(-15.11179 44.37833) rotate(-48.33688)"/><path class="cls-1" d="M49.17073,33.52558l-.65722,1.36423a7.38586,7.38586,0,0,1-6.61616,4.16176h0a7.38916,7.38916,0,0,0-6.51613,3.962l-.78229,1.5044"/><path class="cls-1" d="M27.07344,52.35188H60v3.42428a2.24262,2.24262,0,0,1-2.24831,2.22357H25.938"/><polyline class="cls-1" points="30.335 25.147 60 25.147 60 52.352 27.073 52.352"/><line class="cls-1" x1="26.00549" y1="11.49391" x2="24.64373" y2="19.86392"/><line class="cls-1" x1="57.78422" y1="11.49663" x2="59.99825" y2="25.14978"/><path class="cls-1" d="M28.00639,6H55.78422a2,2,0,0,1,2,2v3.49392a0,0,0,0,1,0,0H26.00639a0,0,0,0,1,0,0V8A2,2,0,0,1,28.00639,6Z"/></g></svg>