<svg id="Capa_1" enable-background="new 0 0 510.376 510.376" height="512" viewBox="0 0 510.376 510.376" width="512" xmlns="http://www.w3.org/2000/svg"><g><path d="m510.376 82.854h-510.376v315h15.042v29.667h89.667v-29.667h225.167v-15h-314.876v-285h480.376v285h-120.501v15h30.176v29.667h89.667v-29.667h15.658zm-420.668 329.667h-59.666v-14.667h59.667v14.667zm390.01 0h-59.667v-14.667h59.667z"/><path d="m344.875 382.854h15v15h-15z"/><path d="m480.042 112.428-450.062.28v255.422l450.062-.28zm-435.062 15.27 284.728-.176v15.001h-14.657v194.999h14.657v15.422l-284.728.176zm285.071 194.823v-164.999h14.667v164.999zm134.991 30.338-120.334.075v-15.413h15.01v-194.999h-15.01v-15.01l120.334-.074z"/><path d="m449.708 142.522h-74.824v60.333h74.824zm-15 45.332h-44.824v-30.333h44.824z"/><path d="m374.884 217.188h15v15h-15z"/><path d="m404.884 217.188h15v15h-15z"/><path d="m434.884 217.188h15v15h-15z"/><path d="m374.884 247.522h15v15h-15z"/><path d="m404.884 247.522h15v15h-15z"/><path d="m434.884 247.522h15v15h-15z"/><path d="m449.884 292.522h-75v44.999h75zm-60 15h15v14.999h-15zm45 14.999h-15v-14.999h15z"/><path d="m60.063 142.354h15v15h-15z"/><path d="m90.063 142.354h15v15h-15z"/><path d="m120.063 142.354h15v15h-15z"/></g></svg>