<svg id="Capa_1" enable-background="new 0 0 512 512" height="512" viewBox="0 0 512 512" width="512" xmlns="http://www.w3.org/2000/svg"><g><path d="m407.034 288.557c10.389-2.756 18.07-12.238 18.07-23.482 0-13.396-10.898-24.293-24.294-24.293h-8.237l4.493-7.78c6.6-11.425 2.669-26.093-8.763-32.695-11.453-6.617-26.077-2.695-32.696 8.765l-18.306 31.711h-21.672c4.608-19.58 2.258-42.71-7.93-59.862-11.216-18.877-42.29-65.181-55.125-84.207-2.56-3.802-3.912-8.229-3.912-12.802v-23.469h.83c6.893 0 12.5-5.607 12.5-12.5v-35.443c0-6.893-5.607-12.5-12.5-12.5h-94.175c-6.893 0-12.5 5.607-12.5 12.5v35.443c0 6.893 5.607 12.5 12.5 12.5h.835v23.467c0 4.576-1.354 9-3.92 12.8-4.174 6.195-10.47 15.563-17.426 25.973-2.302 3.443-1.376 8.101 2.068 10.402s8.102 1.376 10.402-2.068c6.944-10.39 13.229-19.742 17.391-25.919 4.242-6.281 6.484-13.608 6.484-21.188v-23.467h62.51v23.467c0 7.569 2.237 14.893 6.473 21.185 9.961 14.766 43.342 64.424 54.669 83.485 2.907 4.894 5.062 10.542 6.418 16.719h-197.64c1.356-6.176 3.511-11.824 6.417-16.716 3.506-5.896 9.496-15.346 17.806-28.085 2.263-3.47 1.284-8.117-2.185-10.38-3.469-2.261-8.116-1.284-10.38 2.185-8.54 13.096-14.473 22.455-18.136 28.617-5.25 8.839-8.561 19.437-9.73 30.989-.012.103-.021.207-.028.312-.236 2.408-.385 4.854-.433 7.336-.245 12.819 2.294 25.2 7.547 36.797 8.833 19.509 13.312 40.858 13.312 63.456 0 22.593-4.479 43.938-13.313 63.448-5.252 11.606-7.791 23.99-7.546 36.806.414 21.657 9.044 42.2 24.3 57.843 11.508 11.8 27.013 18.212 43.128 18.212 4.188 0 8.419-.434 12.63-1.317 18.071-3.788 39.873-4.267 58.132-2.067v.826c0 10.168 8.271 18.44 18.439 18.44h163.12c10.168 0 18.44-8.272 18.44-18.44v-24.71c0-4.143-3.357-7.5-7.5-7.5s-7.5 3.357-7.5 7.5v24.71c0 1.897-1.543 3.44-3.44 3.44h-163.12c-1.896 0-3.439-1.543-3.439-3.44v-59.246c9.137-8.533 22.474-15.391 41.349-21.276 7.484 16.668 24.228 28.312 43.652 28.312 27.043 0 48.961-22.576 47.781-49.912 15.548-4.401 27.642-9.266 37.218-15.048v57.46c0 4.143 3.357 7.5 7.5 7.5s7.5-3.357 7.5-7.5v-103.931c0-8.982-2.595-17.697-7.503-25.204zm-249.217-273.557h89.175v30.443c2.11-.002-36.86-.002-89.175 0zm252.287 250.074c0 5.125-4.169 9.294-9.294 9.294h-151.414c-5.124 0-9.293-4.169-9.293-9.294 0-5.124 4.169-9.293 9.293-9.293h151.414c5.125 0 9.294 4.169 9.294 9.293zm-41.508-48.503c2.509-4.341 8-5.707 12.204-3.277 4.27 2.467 5.739 7.941 3.276 12.205l-8.826 15.282h-20.63zm-266.682 3.728h200.977c.088 7.006-.846 13.87-2.764 20.482h-50.731c-13.396 0-24.293 10.897-24.293 24.293 0 11.244 7.679 20.725 18.067 23.482l-10.564 16.159c-4.909 7.506-7.504 16.222-7.504 25.205v56.1h-115.485c8.726-20.525 13.154-42.777 13.154-66.21 0-24.746-4.929-48.178-14.648-69.645-4.263-9.411-6.344-19.458-6.209-29.866zm61.976 259.821c-15.139 3.177-31.207-1.683-41.939-12.687-12.582-12.902-19.699-29.827-20.04-47.657-.123-6.408.61-12.679 2.16-18.757h121.031v76.618c-19.617-2.168-42.208-1.5-61.212 2.483zm161.213-53.77c-18.104 0-32.834-14.729-32.834-32.833s14.729-32.834 32.834-32.834 32.834 14.729 32.834 32.834-14.73 32.833-32.834 32.833zm44.773-49.652c-6.822-18.102-24.314-31.016-44.773-31.016-28.3 0-50.54 24.565-47.567 52.867-15.404 4.768-27.693 10.246-37.434 16.748v-85.377c0-6.06 1.749-11.937 5.058-16.995l15.401-23.557h129.083l15.401 23.557c3.309 5.06 5.058 10.937 5.058 16.995v28.164c-8.928 7.389-21.654 13.281-40.227 18.614z"/></g></svg>