<?xml version="1.0" encoding="UTF-8"?><svg id="Line" xmlns="http://www.w3.org/2000/svg" viewBox="0 0 64 64"><path d="M16.91602,47.08447c-.28027,0-.55664-.02197-.82617-.07031-1.07129-.19092-4.33008-.77295-8.28906-15.86963-.92676-3.53174.35059-7.27686,3.17773-9.31885,3.47754-2.51123,5.53516-2.78125,5.75879-2.80371.81543-.08643,1.55957.51709,1.64258,1.34131.08203.81445-.50293,1.54248-1.31152,1.64014-.08398.01367-1.61523.2915-4.33398,2.25439-1.83008,1.32129-2.64648,3.7832-2.03125,6.12549,2.84863,10.86279,5.23438,13.55664,5.91406,13.67773,1.47363.26074,4.22266-1.37793,5.32129-2.21436.6582-.50293,1.59961-.375,2.10156.28564.50195.65918.37402,1.60059-.28516,2.10205-.41309.31445-3.84082,2.8501-6.83887,2.8501Z" style="fill:#293a4c; stroke-width:0px;"/><path d="M10.13867,50.50586c-.69238,0-1.2998-.12158-1.81836-.29834-2.54199-.8667-4.25391-3.56445-4.69531-7.40088-.80762-7.02979,4.29297-12.80225,4.51074-13.04443.55176-.6167,1.50098-.66895,2.11816-.11426.61621.55273.66797,1.49951.11621,2.11621h0c-.04395.0498-4.41602,5.03125-3.76465,10.69971.29883,2.6001,1.30176,4.43311,2.68262,4.90381,1.52148.51953,3.70508-.52832,5.99023-2.87598.5791-.59326,1.52832-.60645,2.12109-.0293.59375.57764.60645,1.52734.0293,2.12109-2.96191,3.04395-5.42871,3.92188-7.29004,3.92236Z" style="fill:#293a4c; stroke-width:0px;"/><path d="M47.08398,47.08447c-2.99805.00049-6.42578-2.53564-6.83887-2.8501-.65918-.50146-.78613-1.44092-.28613-2.1001.50098-.65869,1.44043-.7876,2.10156-.28857,1.4043,1.06445,3.99512,2.44775,5.32227,2.21533.67969-.12109,3.06543-2.81494,5.91406-13.67725.61523-2.34277-.20117-4.80469-2.03125-6.12646-.67188-.48486-.82324-1.42236-.33789-2.09424s1.42285-.82178,2.09375-.3374c2.82715,2.04199,4.10449,5.78711,3.17773,9.31934-3.95898,15.09619-7.21777,15.67822-8.28906,15.86914-.26953.04834-.54688.07031-.82617.07031Z" style="fill:#293a4c; stroke-width:0px;"/><path d="M53.86133,50.50586c-1.86133,0-4.32812-.87842-7.29004-3.92236-.57715-.59375-.56445-1.54346.0293-2.12109.59277-.57715,1.54492-.56396,2.12109.0293,2.28418,2.34766,4.46875,3.39502,5.99023,2.87598,1.38086-.4707,2.38379-2.30371,2.68262-4.90381.65527-5.70264-3.71875-10.64844-3.7627-10.69775-.55371-.61621-.50195-1.56445.11426-2.11816.61621-.5542,1.56641-.50146,2.11816.11426.21777.24219,5.31836,6.01465,4.51074,13.04443-.44141,3.83643-2.15332,6.53418-4.69531,7.40088-.51855.17676-1.12695.29785-1.81836.29834Z" style="fill:#293a4c; stroke-width:0px;"/><path d="M41.15332,44.54053h-18.30664c-2.39453,0-4.40625-1.77734-4.78223-4.22607l-2.66113-19.58643c-.39062-2.58447,1.22168-5.07129,3.67578-5.66504,8.57422-2.0752,17.26758-2.0752,25.8418,0,2.45801.59473,4.07129,3.08936,3.67383,5.67871l-2.65527,19.54688c-.37988,2.47461-2.3916,4.25195-4.78613,4.25195ZM32,16.50781c-4.08105,0-8.16309.49023-12.21582,1.47119-.95605.23145-1.57715,1.24512-1.41406,2.30762.00195.0083.00293.01709.00391.02539l2.65918,19.57227c.14648.94873.91016,1.65625,1.81348,1.65625h18.30664c.90332,0,1.66699-.70752,1.81738-1.68213l2.65527-19.54639c.16699-1.08789-.4541-2.10156-1.41016-2.33301-4.05273-.98096-8.13477-1.47119-12.21582-1.47119Z" style="fill:#293a4c; stroke-width:0px;"/><path d="M38.41602,23.72754c-.11426,0-.23047-.01318-.34668-.04102-4.02734-.95215-8.11133-.95215-12.13867,0-.80762.19385-1.61523-.30762-1.80566-1.11426-.19043-.80615.30859-1.61426,1.11426-1.80469,4.48633-1.06152,9.03516-1.06152,13.52148,0,.80566.19043,1.30469.99854,1.11426,1.80469-.16309.68994-.7793,1.15527-1.45898,1.15527Z" style="fill:#293a4c; stroke-width:0px;"/></svg>