<svg id="Capa_1" enable-background="new 0 0 512 512" height="512" viewBox="0 0 512 512" width="512" xmlns="http://www.w3.org/2000/svg"><g><path d="m185.754 298.771c2.929 2.929 7.678 2.929 10.606 0 2.929-2.929 2.929-7.678 0-10.606l-3.156-3.156c-2.929-2.929-7.678-2.929-10.606 0-2.929 2.929-2.929 7.678 0 10.606z"/><path d="m248.584 298.772c2.928 2.928 7.677 2.929 10.607-.001 2.928-2.929 2.928-7.678-.001-10.606l-3.157-3.156c-2.929-2.929-7.678-2.929-10.606.001-2.929 2.929-2.928 7.678.001 10.606z"/><path d="m311.413 298.772c2.929 2.928 7.679 2.929 10.606-.001 2.929-2.929 2.929-7.678-.001-10.606l-3.156-3.156c-2.93-2.929-7.679-2.929-10.606.001-2.929 2.929-2.929 7.678.001 10.606z"/><path d="m374.242 298.772c1.465 1.464 3.384 2.196 5.303 2.196s3.84-.732 5.304-2.197c2.929-2.929 2.929-7.678-.001-10.606l-3.156-3.156c-2.93-2.929-7.679-2.929-10.606.001-2.929 2.929-2.929 7.678.001 10.606z"/><path d="m182.597 435.51 3.156 3.156c1.464 1.465 3.384 2.197 5.304 2.197 1.919 0 3.838-.732 5.303-2.196 2.929-2.929 2.93-7.677.001-10.606l-3.156-3.156c-2.929-2.929-7.678-2.93-10.606-.001-2.93 2.929-2.93 7.677-.002 10.606z"/><path d="m248.583 438.667c1.464 1.464 3.384 2.197 5.303 2.197s3.838-.732 5.303-2.197c2.929-2.929 2.929-7.678 0-10.606l-3.156-3.156c-2.929-2.929-7.678-2.929-10.606 0-2.929 2.929-2.929 7.678 0 10.606z"/><path d="m311.412 438.667c1.465 1.464 3.385 2.197 5.304 2.197s3.839-.732 5.304-2.197c2.929-2.929 2.929-7.678 0-10.606l-3.156-3.156c-2.93-2.929-7.678-2.929-10.607 0s-2.929 7.678 0 10.606z"/><path d="m374.241 438.667c1.465 1.464 3.385 2.197 5.304 2.197s3.839-.732 5.304-2.197c2.929-2.929 2.929-7.678 0-10.606l-3.156-3.156c-2.93-2.929-7.678-2.929-10.607 0s-2.929 7.678 0 10.606z"/><path d="m511.826 245.307c-13.541-61.797-45.817-103.766-95.934-124.738-7.514-3.144-16.135-3.006-23.656.378l-176.947 79.624c.576-4.171.871-8.375.871-12.565 0-21.789-7.713-46.482-37.923-59.516 15.403-28.88 38.077-49.483 64.662-61.609 4.469-2.036 6.647-7.07 5.15-11.667-.058-.191-.124-.38-.197-.567-8.529-21.738-33.149-32.488-54.877-23.964-11.351 4.446-20.129 13.449-24.3 24.845-15.003-3.869-31.441-.967-44.401 8.54-12.308-9.036-28.695-12.606-44.429-8.54-4.182-11.402-12.965-20.405-24.304-24.842-10.528-4.133-22.033-3.915-32.397.612-10.309 4.503-18.262 12.734-22.411 23.189-.029.068-.056.137-.083.206-1.837 4.729.348 10.084 4.969 12.188 27.136 12.377 49.547 33.264 64.666 61.61-30.211 13.034-37.923 37.727-37.923 59.516 0 6.496.699 13.042 2.077 19.456l10.46 48.7c.756 3.519 3.866 5.926 7.325 5.926.522 0 1.052-.055 1.583-.169 4.05-.87 6.627-4.858 5.757-8.908l-10.46-48.7c-1.156-5.38-1.742-10.866-1.742-16.305 0-19.227 6.926-32.87 21.175-41.71 15.588-9.671 37.425-11.999 55.725-11.999 24.143 0 42.892 4.037 55.725 11.999 7.656 4.75 13.178 10.901 16.668 18.546h-29.626c-4.142 0-7.5 3.358-7.5 7.5s3.358 7.5 7.5 7.5h33.657c.305 2.606.476 5.316.476 8.165 0 5.45-.589 10.931-1.757 16.322-.268 1.264-.537 2.513-.804 3.753l-71.095 31.992c-2.654 1.194-4.422 3.904-4.422 6.839v201.332c-12.903-.541-23.938-9.86-26.477-22.595-.007-.036-18.598-86.657-18.598-86.657h16.548c4.142 0 7.5-3.358 7.5-7.5s-3.358-7.5-7.5-7.5h-19.769l-7.815-36.41c-.87-4.05-4.86-6.629-8.907-5.759-4.05.87-6.628 4.857-5.759 8.907l29.599 137.906c3.955 19.7 21.158 34.087 41.176 34.634v8.223c0 7.041 5.728 12.769 12.769 12.769h363.379c7.041 0 12.77-5.728 12.77-12.769v-72.499c0-4.142-3.357-7.5-7.5-7.5s-7.5 3.358-7.5 7.5v70.268h-52.637v-69.525c0-11.265-9.164-20.429-20.429-20.429h-285.851v-34.941h285.852c11.265 0 20.429-9.164 20.429-20.429v-69.526h52.636v109.582c0 4.142 3.357 7.5 7.5 7.5s7.499-3.358 7.499-7.5v-117.113c-.002-.46-.074-1.128-.173-1.576zm-494.949-189.665c2.896-4.67 7.13-8.353 12.271-10.598 6.689-2.923 14.116-3.062 20.92-.392 7.649 2.993 13.495 9.205 16.037 17.032 2.216 6.857 9.439 10.658 16.466 8.649 10.332-2.983 21.652-1.386 30.832 4.471-9.578 12.694-13.305 29.454-9.108 45.459-7.203.74-13.719 1.889-19.61 3.387-15.891-30.871-39.468-53.797-67.808-68.008zm102.8 63.708c-5.061-14.412-.752-30.187 9.871-40.213 2.932-2.913 6.644-5.263 10.403-6.942 8.211-3.669 17.445-4.33 26.011-1.858 7.009 2.012 14.236-1.788 16.455-8.65 2.533-7.828 8.375-14.037 16.033-17.037 6.8-2.668 14.23-2.528 20.923.395 5.141 2.246 9.375 5.927 12.272 10.598-28.576 14.325-52.041 37.377-67.808 68.008-14.047-3.571-29.5-4.603-44.16-4.301zm278.715 15.276c3.748-1.686 8.017-1.766 11.711-.22 22.642 9.475 41.41 23.791 55.782 42.55 12.935 16.882 22.697 37.866 29.098 62.457h-329.457zm25.543 259.683c2.993 0 5.429 2.436 5.429 5.429v69.525h-291.281v-74.954zm5.428-70.37c0 2.993-2.436 5.429-5.429 5.429h-285.851v-74.955h291.281v69.526z"/><path d="m125.073 217.25c4.142 0 7.5-3.358 7.5-7.5s-3.358-7.5-7.5-7.5h-35.47c-4.142 0-7.5 3.358-7.5 7.5s3.358 7.5 7.5 7.5z"/></g></svg>