<svg id="icons" xmlns="http://www.w3.org/2000/svg" viewBox="0 0 64 64"><defs><style>.cls-1{fill:none;stroke:#000;stroke-linecap:round;stroke-linejoin:round;stroke-width:2px;}</style></defs><title>19</title><g id="blender"><path class="cls-1" d="M44.46289,60H19.02346a2.10748,2.10748,0,0,1-2.07709-2.46406L19.384,43.33679a2.10748,2.10748,0,0,1,2.07709-1.7509H42.02526a2.10749,2.10749,0,0,1,2.07709,1.7509L46.54,57.53594A2.10747,2.10747,0,0,1,44.46289,60Z"/><line class="cls-1" x1="21.4611" y1="41.58589" x2="18.27708" y2="15.02949"/><line class="cls-1" x1="42.04254" y1="41.58589" x2="45.22656" y2="15.02949"/><path class="cls-1" d="M18.27708,10.29624H45.22656a0,0,0,0,1,0,0v1.73326a3,3,0,0,1-3,3H21.27708a3,3,0,0,1-3-3V10.29624A0,0,0,0,1,18.27708,10.29624Z" transform="translate(63.50364 25.32573) rotate(180)"/><ellipse class="cls-1" cx="31.6891" cy="7.14812" rx="3.13123" ry="3.14812"/><path class="cls-1" d="M45.22656,15.02949h4.2019a3.16122,3.16122,0,0,1,3.16122,3.16122v8.49866a3.16124,3.16124,0,0,1-1.31287,2.56455L42.78752,35.3724"/><path class="cls-1" d="M18.27708,15.02949H11.41032a4.50337,4.50337,0,0,0,3.25912,4.32806L18.9399,20.5578"/><path class="cls-1" d="M19.481,25.07111,22.8834,27.3657a7.76005,7.76005,0,0,0,8.66588.15173h0a7.79326,7.79326,0,0,1,9.12245.481l2.74639,2.11435"/><circle class="cls-1" cx="31.74318" cy="51.20571" r="4.74595"/><line class="cls-1" x1="31.74318" y1="51.20571" x2="28.40756" y2="47.87009"/></g></svg>