<svg id="Capa_1" enable-background="new 0 0 512 512" height="512" viewBox="0 0 512 512" width="512" xmlns="http://www.w3.org/2000/svg"><g><path d="m437.02 74.98c-48.353-48.351-112.64-74.98-181.02-74.98-50.309 0-99.002 14.584-140.816 42.176-3.457 2.281-4.41 6.934-2.129 10.391 2.28 3.457 6.932 4.411 10.391 2.129 39.355-25.969 85.192-39.696 132.554-39.696 64.373 0 124.894 25.068 170.412 70.588 45.52 45.518 70.588 106.039 70.588 170.412s-25.068 124.894-70.588 170.412c-45.518 45.52-106.039 70.588-170.412 70.588s-124.894-25.068-170.412-70.588c-45.52-45.518-70.588-106.039-70.588-170.412 0-69.072 29.716-134.934 81.527-180.695 3.104-2.742 3.398-7.481.656-10.586s-7.482-3.399-10.586-.656c-55.034 48.607-86.597 118.566-86.597 191.937 0 68.38 26.629 132.667 74.98 181.02 48.353 48.351 112.64 74.98 181.02 74.98s132.667-26.629 181.02-74.98c48.351-48.353 74.98-112.64 74.98-181.02s-26.629-132.667-74.98-181.02z"/><path d="m305.936 427.893c14.273-6.516 27.636-15.022 39.804-25.267 10.671 1.626 16.816-3.148 23.917-9.656 3.054-2.799 3.261-7.543.462-10.597-2.8-3.055-7.544-3.26-10.597-.462-3.812 3.497-6.792 6.808-11.837 5.857-15.062-2.831-30.722-14.892-45.281-34.872-1.791-2.461-2.182-5.773-1.023-8.641 4.991-12.323 8.885-25.321 11.66-38.785 8.094 7.764 18.026 15.285 29.043 21.813 9.321 5.522 29.612 16.146 48.467 16.682-2.689 4.469-5.582 8.819-8.665 13.012-2.453 3.338-1.736 8.032 1.601 10.485 3.332 2.449 8.026 1.744 10.485-1.601 6.056-8.239 11.439-17.03 16.044-26.154 21.705-12.46 31.527-55.48 31.527-83.714 0-28.229-9.821-71.24-31.522-83.702-11.097-21.959-26.201-41.242-44.945-57.323-5.415-4.651-12.426-6.667-19.353-5.61-12.164-10.238-25.522-18.74-39.792-25.254-9.095-4.148-19.421-3.617-27.617 1.422l-.241.145c-7.798 4.607-12.964 12.438-14.174 21.481-1.233 9.219 1.774 18.328 8.251 24.992 6.08 6.258 11.705 13.042 16.783 20.208-3.7 6.361-4.276 14.045-1.456 21.021 6.04 14.913 10.359 30.909 12.902 47.572-2.792 3.918-5.006 7.782-6.53 11.493-3.165 7.706-3.165 39.41 0 47.114 1.524 3.712 3.738 7.576 6.531 11.495-2.543 16.665-6.863 32.662-12.905 47.58-2.818 6.97-2.242 14.652 1.458 21.015-5.078 7.167-10.703 13.951-16.782 20.208-22.955 23.623 3.859 61.693 33.785 48.043zm120.608-171.898c0 28.993-10.949 65.735-25.603 71.512-10.762 4.243-30.384-.789-51.211-13.129-20.03-11.868-36.896-28.131-41.989-40.483-1.694-4.907-1.692-30.965-.016-35.757 5.075-12.356 21.955-28.64 42.003-40.518 20.828-12.339 40.453-17.369 51.213-13.127 14.654 5.775 25.603 42.513 25.603 71.502zm-35.99-87.955c-25.777.733-58.432 20.183-77.513 38.487-2.775-13.463-6.668-26.459-11.658-38.778-1.16-2.872-.77-6.185 1.019-8.642 14.562-19.984 30.222-32.045 45.281-34.876 2.691-.501 5.467.268 7.624 2.121 14.029 12.036 25.834 26.02 35.247 41.688zm-111.785-58.896c.596-4.456 3.124-8.304 6.91-10.541.166-.098.332-.196.489-.294 3.937-2.42 8.999-2.627 13.537-.557 10.254 4.681 19.999 10.49 29.11 17.311-10.416 5.251-20.653 13.633-30.361 24.884-4.796-6.423-9.995-12.541-15.546-18.254-3.25-3.345-4.76-7.92-4.139-12.549zm4.14 281.163c5.55-5.712 10.749-11.83 15.544-18.253 9.708 11.251 19.945 19.632 30.362 24.884-9.111 6.82-18.856 12.63-29.108 17.31-15.093 6.876-28.209-12.198-16.798-23.941z"/><path d="m179.035 284.049c-28.527 0-51.736 23.209-51.736 51.736s23.209 51.736 51.736 51.736 51.736-23.209 51.736-51.736-23.209-51.736-51.736-51.736zm0 88.472c-20.257 0-36.736-16.479-36.736-36.736s16.479-36.736 36.736-36.736 36.736 16.479 36.736 36.736-16.479 36.736-36.736 36.736z"/><path d="m128.796 241.326c1.452 6.216 6.404 11.158 12.612 12.591 4.415 1.022 8.859 1.522 13.259 1.522 15.184 0 29.831-5.961 40.877-17.006 8.142-8.143 13.632-18.504 15.857-29.694l6.567 6.567c2.931 2.929 7.678 2.928 10.607 0 2.929-2.93 2.929-7.678 0-10.607l-7.496-7.496c5.147-19.75-.521-41.175-15.084-55.738-14.248-14.249-34.488-20.041-54.142-15.488-6.218 1.438-11.166 6.387-12.607 12.606-3.695 15.965-.569 32.316 8.371 45.529-1.144.979-2.264 1.987-3.331 3.053-14.242 14.244-20.034 34.483-15.49 54.161zm15.99-2.023c-.68-.157-1.223-.702-1.379-1.37-3.556-15.397 1.382-31.781 14.15-42.589 10.644 9.298 24.307 14.295 38.18 14.333-6.34 21.328-28.232 34.885-50.951 29.626zm9.073-97.334c.157-.68.697-1.221 1.377-1.378 3.276-.759 6.573-1.13 9.837-1.13 11.262 0 22.126 4.421 30.315 12.611 8.522 8.521 12.919 20.215 12.526 31.966l-22.247-22.247c-2.93-2.928-7.678-2.928-10.607 0-2.929 2.93-2.929 7.678 0 10.607l22.244 22.244c-28.299.944-49.866-24.932-43.445-52.673z"/></g></svg>