<svg id="Capa_1" enable-background="new 0 0 512 512" height="512" viewBox="0 0 512 512" width="512" xmlns="http://www.w3.org/2000/svg"><g><path d="m308.561 209.835h-.135c.121-2.155.194-4.31.194-6.457 0-60.094-26.474-123.483-69.09-165.431-25.25-24.854-52.699-38.338-77.357-37.939-36.308.566-77.367 30.19-107.154 77.313-2.213 3.501-1.169 8.134 2.333 10.347 3.502 2.215 8.134 1.169 10.347-2.333 26.702-42.243 63.877-69.849 94.709-70.329 20.576-.358 44.236 11.618 66.6 33.631 31.235 30.745 64.612 87.542 64.612 154.741 0 2.146-.071 4.303-.21 6.457h-260.621c-.14-2.155-.211-4.312-.211-6.457 0-29.289 6.618-59.738 19.14-88.058 1.675-3.788-.038-8.217-3.827-9.892-3.787-1.676-8.218.038-9.892 3.827-13.359 30.214-20.421 62.762-20.421 94.123 0 2.146.073 4.301.195 6.457h-1.67c-7.553 0-13.698 6.145-13.698 13.698v71.341c0 63.699 51.823 115.521 115.521 115.521h7.109v34.325h-14.768c-25.183 0-45.67 20.487-45.67 45.67v7.217c0 7.937 6.457 14.393 14.393 14.393h166.682c7.937 0 14.393-6.457 14.393-14.393v-7.217c0-25.183-20.487-45.67-45.67-45.67h-14.767v-34.325h7.107c63.699 0 115.522-51.823 115.522-115.521v-71.342c.001-7.552-6.144-13.697-13.696-13.697zm-63.495 280.555v6.61h-165.468v-6.61c0-16.912 13.758-30.67 30.67-30.67h104.128c16.911.001 30.67 13.759 30.67 30.67zm-60.437-45.669h-44.593v-34.325h44.593zm122.629-149.847c0 55.428-45.094 100.521-100.522 100.521-9.619 0-79.281 0-88.809 0-55.428 0-100.521-45.094-100.521-100.521v-70.039h289.853v70.039z"/><path d="m472.977 216.744c21.56-22.344 36.618-58.454 36.618-87.813 0-45.93-37.367-83.297-83.297-83.297s-83.297 37.367-83.297 83.297c0 29.359 15.059 65.469 36.619 87.813 7.864 8.15 12.316 19.128 12.535 30.913.929 49.985.793 112.356-2.371 137.501-4.624 36.744-6.969 61.346-6.969 73.123 0 32.633 17.068 53.719 43.482 53.719 26.415 0 43.483-21.086 43.483-53.719 0-7.015-.786-18.074-2.402-33.809-.424-4.12-4.096-7.112-8.228-6.694-4.12.423-7.117 4.107-6.694 8.228 1.542 15.009 2.324 25.869 2.324 32.276 0 24.245-10.648 38.719-28.483 38.719s-28.482-14.475-28.482-38.719c0-11.153 2.306-35.125 6.852-71.25 4.107-32.64 2.941-115.144 2.486-139.653-.29-15.585-6.234-30.164-16.739-41.05-18.781-19.463-32.413-52.014-32.413-77.397 0-37.659 30.638-68.297 68.297-68.297s68.297 30.638 68.297 68.297c0 25.383-13.632 57.934-32.412 77.397-10.506 10.886-16.45 25.464-16.739 41.05-.455 24.51-1.621 107.019 2.485 139.653l.579 4.627c.51 4.111 4.261 7.027 8.366 6.519 4.111-.51 7.029-4.256 6.519-8.367l-.581-4.652c-3.163-25.14-3.299-87.513-2.37-137.501.217-11.786 4.669-22.764 12.535-30.914z"/></g></svg>