<svg id="Capa_1" enable-background="new 0 0 512 512" height="512" viewBox="0 0 512 512" width="512" xmlns="http://www.w3.org/2000/svg"><g><path d="m401.847 161.755c-.689-2.155-2.314-3.884-4.423-4.705l-62.77-24.434c-8.491-3.305-17.936-2.689-25.914 1.684-4.76 2.609-35.36 19.373-40.119 21.98l7.824-42.709c15.232 3.186 27.882 4.788 38.132 4.787 15.315 0 25.284-3.569 30.533-10.741 3.442-4.704 4.433-10.645 3.008-17.112 11.598-1.203 24.4-5.192 27.093-16.626 1.562-6.627-1.259-13.714-7.109-19.026 7.544-11.421 12.522-26.113 5.395-47.477-1.173-3.515-4.022-6.149-7.624-7.049-3.607-.898-7.37.09-10.06 2.644 0 0-85.606 81.282-85.812 81.51-2.724 3.016-4.685 6.794-5.508 11.126-.011.056-.027.109-.037.165l-20.693 112.965h-74.433l-6.145-17.538c9.966-6.176 16.621-17.209 16.621-29.772 0-20.808-18.212-37.28-39.227-34.74l-8.59-24.515c-1.37-3.909-5.648-5.967-9.559-4.598-3.909 1.37-5.967 5.649-4.598 9.559l8.592 24.518c-9.97 6.176-16.628 17.211-16.628 29.775 0 20.814 18.218 37.284 39.234 34.74l4.404 12.569h-21.567c-3.641 0-7.048 1.434-9.595 4.037-2.547 2.604-3.906 6.042-3.826 9.682.562 25.607 4.451 49.941 8.571 72.423.746 4.075 4.658 6.774 8.729 6.025 4.074-.746 6.771-4.654 6.025-8.728-1.945-10.615-3.836-21.643-5.33-32.989h168.886c-2.349 17.824-5.773 35.67-9.321 54.121-7.297 37.949-13.672 76.782-13.687 120.058-.002 6.039-5.227 11.653-12.061 11.653h-98.74c-6.497 0-11.704-5.058-12.051-11.291.982-37.886-4.63-72.594-11.199-107.356-.769-4.07-4.688-6.742-8.762-5.977-4.07.769-6.746 4.691-5.977 8.762 10.793 57.113 16.342 104.965 3.983 161.798-1.124 5.169.132 10.492 3.445 14.603 3.3 4.095 8.21 6.443 13.47 6.443h66.011c4.142 0 7.5-3.357 7.5-7.5s-3.358-7.5-7.5-7.5h-66.008c-1.514 0-2.575-1.403-2.258-2.859 2.825-12.993 4.73-25.516 5.906-37.681 4.046 2.317 8.642 3.557 13.443 3.557h98.74c4.802 0 9.398-1.24 13.446-3.558 1.171 12.167 3.081 24.705 5.903 37.682.316 1.457-.746 2.859-2.258 2.859h-31.91c-4.142 0-7.5 3.357-7.5 7.5s3.358 7.5 7.5 7.5h31.91c5.26 0 10.17-2.349 13.47-6.443 3.314-4.111 4.57-9.435 3.446-14.603-14.405-66.244-3.792-121.439 6.472-174.816 6.119-31.82 11.898-61.875 12.595-93.683.08-3.64-1.279-7.078-3.826-9.682s-5.955-4.037-9.595-4.037h-50.9l6.127-33.446 31.21-17.099c.961 18.302 11.417 28.74 22.451 32.595 11.514 4.023 24.108 1.415 32.099-5.664 7.259 4.696 14.035 5.289 18.883 4.776 17.69-1.887 29.863-19.718 31.193-21.744 1.238-1.891 1.559-4.242.87-6.398zm-277.05-.329c0-11.03 8.974-20.004 20.005-20.004 11.03 0 20.004 8.974 20.004 20.004s-8.974 20.005-20.004 20.005c-11.031 0-20.005-8.975-20.005-20.005zm116.217 62.31-3.746 20.449h-55.517l-7.165-20.449zm-107.531 0h25.208l7.165 20.449h-31.106c-.626-6.73-1.076-13.551-1.267-20.449zm174.814 0c-.19 6.859-.638 13.664-1.271 20.449h-54.508l3.746-20.449zm52.761-205.067c2.918 14.015-1.498 23.383-9.455 33.333-1.429 1.786-1.964 4.128-1.453 6.357.51 2.23 2.011 4.105 4.075 5.093 4.806 2.298 6.684 5.718 6.385 6.986-.452 1.917-6.746 5.787-23.267 5.511-5.674-.201-9.62 6.171-6.582 11.313 2.301 3.895 4.099 8.96 2.244 11.494-1.248 1.705-9.546 9.345-53.856.055.061-.211.164-1.671 1.331-3.4.328-.485.69-.948 1.124-1.358zm7.097 156.317c-4.445.456-8.725-1.402-13.087-5.698-1.687-1.661-4.061-2.43-6.4-2.069-2.34.359-4.374 1.803-5.485 3.894-2.989 5.624-11.89 8.15-19.438 5.513-9.494-3.316-13.818-12.997-12.116-26.805 2.384-.886 8.619-6.715 17.584-3.225l52.974 20.621c-3.848 3.677-8.875 7.233-14.032 7.769z"/></g></svg>