<?xml version="1.0" encoding="UTF-8"?><svg id="Line" xmlns="http://www.w3.org/2000/svg" viewBox="0 0 64 64"><path d="M32,55.5c-17.8457,0-28.5-8.78516-28.5-23.5,0-5.16309,1.31689-10.16016,3.52295-13.36719.47021-.68213,1.40332-.85498,2.08594-.38574.68262.46973.85547,1.40332.38574,2.08594-1.84717,2.68506-2.99463,7.15576-2.99463,11.66699,0,6.16357,2.48486,20.5,25.5,20.5,17.39697,0,25.5-6.83154,25.5-21.5,0-.82861.67139-1.5,1.5-1.5s1.5.67139,1.5,1.5c0,16.25684-9.58887,24.5-28.5,24.5Z" style="fill:#293a4c; stroke-width:0px;"/><path d="M25.68945,49.30908c-.01709,0-.03418-.00049-.05127-.00098-5.79199-.19482-10.30371-3.62109-10.49316-3.7666-.65625-.50537-.77832-1.44727-.27295-2.104.50537-.65527,1.44482-.77686,2.10156-.2749h0c.03906.03027,3.96191,2.98535,8.76514,3.14746.82812.02783,1.47656.72168,1.44873,1.54932-.02734.81104-.69287,1.44971-1.49805,1.44971Z" style="fill:#293a4c; stroke-width:0px;"/><path d="M40.49316,44.49951c-.1333,0-.2666-.00684-.40039-.02002-2.01465-.20117-3.59277-2.01172-3.59277-4.12207v-.11377c0-.74756-.29541-1.44531-.83154-1.96582-.55664-.54102-1.30518-.83154-2.08691-.80127-.52344.01562-1.05029.02344-1.58154.02344-11.71875,0-20.33154-3.48096-24.90674-10.06592-1.8501-2.6626-1.84717-6.23779.00684-8.89697,4.57959-6.56641,13.18994-10.03711,24.8999-10.03711,11.52783,0,20.06836,3.37305,24.69873,9.75439h.00049c2.06104,2.84131,2.04443,6.6709-.04102,9.5293-2.43994,3.34326-5.99854,5.87402-10.57715,7.521-.9458.34033-1.58105,1.27393-1.58105,2.32373v2.87158c0,1.12793-.47998,2.20947-1.31641,2.96631-.7373.66699-1.7002,1.0332-2.69043,1.0332ZM33.67529,34.4751c1.53857,0,2.98242.58203,4.08252,1.6499,1.12354,1.09033,1.74219,2.55273,1.74219,4.11865v.11377c0,.57764.3999,1.08789.89111,1.13672.39502.03906.65674-.14111.7793-.25244.2124-.19189.32959-.45557.32959-.7417v-2.87158c0-2.31104,1.43262-4.37891,3.56543-5.14648,4.00439-1.44092,7.08936-3.61621,9.16895-6.4668,1.31641-1.80371,1.33105-4.21436.03613-5.99902-3.98438-5.4917-11.89404-8.51611-22.27051-8.51611-10.5332,0-18.50244,3.1084-22.43896,8.75293-1.13965,1.63477-1.1416,3.83252-.00391,5.46924,3.93262,5.66064,11.90283,8.77783,22.44287,8.77783.50098,0,.99854-.00781,1.49219-.02246.06104-.00146.12207-.00244.18311-.00244Z" style="fill:#293a4c; stroke-width:0px;"/><path d="M32,25.5c-1.22803,0-12-.12646-12-4.5s10.77197-4.5,12-4.5,12,.12646,12,4.5-10.77197,4.5-12,4.5ZM23.25684,21c1.00977.62354,4.0376,1.5,8.74316,1.5s7.7334-.87646,8.74316-1.5c-1.00977-.62354-4.0376-1.5-8.74316-1.5s-7.7334.87646-8.74316,1.5ZM41.06738,21.26904h.00977-.00977Z" style="fill:#293a4c; stroke-width:0px;"/><path d="M16.00098,28.50049c-.55029,0-1.07959-.3042-1.34277-.82959-.37012-.74121-.06982-1.64209.6709-2.0127l2-1c.73975-.36914,1.6416-.06982,2.0127.6709.37012.74121.06982,1.64209-.6709,2.0127l-2,1c-.21533.10742-.44434.15869-.66992.15869Z" style="fill:#293a4c; stroke-width:0px;"/><path d="M40.00098,30.50049c-.55029,0-1.07959-.3042-1.34277-.82959-.37012-.74121-.06982-1.64209.6709-2.0127l2-1c.74023-.36865,1.6416-.06982,2.0127.6709.37012.74121.06982,1.64209-.6709,2.0127l-2,1c-.21533.10742-.44434.15869-.66992.15869Z" style="fill:#293a4c; stroke-width:0px;"/><path d="M26.8833,15.91895c-.7793,0-1.4375-.60205-1.49463-1.3916-.06006-.82617.56152-1.54443,1.3877-1.60449l2.23047-.16162c.83496-.04883,1.54492.56201,1.60449,1.3877.06006.82617-.56152,1.54443-1.3877,1.60449l-2.23047.16162c-.03662.00244-.07373.00391-.10986.00391Z" style="fill:#293a4c; stroke-width:0px;"/><path d="M29.81934,32.34131c-.15723,0-.31689-.0249-.47412-.07764l-2.12158-.70703c-.78613-.26172-1.21094-1.11133-.94873-1.89697.2627-.78613,1.11328-1.21191,1.89697-.94873l2.12158.70703c.78613.26172,1.21094,1.11133.94873,1.89697-.20947.62891-.79443,1.02637-1.42285,1.02637Z" style="fill:#293a4c; stroke-width:0px;"/><path d="M50.12109,25.20752c-.15723,0-.31689-.0249-.47412-.07764l-2.12109-.70703c-.78613-.26172-1.21094-1.11133-.94873-1.89697.2627-.78613,1.11377-1.20996,1.89697-.94873l2.12109.70703c.78613.26172,1.21094,1.11133.94873,1.89697-.20947.62891-.79443,1.02637-1.42285,1.02637Z" style="fill:#293a4c; stroke-width:0px;"/><path d="M17.12109,21.20752c-.15723,0-.31689-.0249-.47412-.07764l-2.12109-.70703c-.78613-.26172-1.21094-1.11133-.94873-1.89697.26172-.78613,1.11182-1.21143,1.89697-.94873l2.12109.70703c.78613.26172,1.21094,1.11133.94873,1.89697-.20947.62891-.79443,1.02637-1.42285,1.02637Z" style="fill:#293a4c; stroke-width:0px;"/><path d="M44.77588,17.88037c-.15723,0-.31689-.0249-.47412-.07764l-2.12158-.70703c-.78613-.26172-1.21094-1.11133-.94873-1.89697.26172-.78613,1.11328-1.20996,1.89697-.94873l2.12158.70703c.78613.26172,1.21094,1.11133.94873,1.89697-.20947.62891-.79443,1.02637-1.42285,1.02637Z" style="fill:#293a4c; stroke-width:0px;"/></svg>