<svg xmlns="http://www.w3.org/2000/svg" viewBox="0 0 76.02 84.62"><defs><style>.cls-1,.cls-2,.cls-3{fill:none;stroke:#000;stroke-width:2.33px;}.cls-1,.cls-2{stroke-linecap:round;}.cls-1{stroke-linejoin:round;}.cls-2,.cls-3{stroke-miterlimit:10;}</style></defs><g id="Layer_2" data-name="Layer 2"><g id="Layer_1-2" data-name="Layer 1"><path class="cls-1" d="M41.13,56.4a1.38,1.38,0,0,1-1.77.78l-8-3.1a1.37,1.37,0,0,1-.78-1.77l3.1-8a1.36,1.36,0,0,1,1.76-.78l8,3.1a1.37,1.37,0,0,1,.78,1.77l-1,2.57"/><rect class="cls-1" x="30.83" y="65.06" width="11.3" height="11.3" rx="1.37" transform="translate(64.61 -3.72) rotate(47.99)"/><path class="cls-1" d="M19.53,47.21V15.65a2.59,2.59,0,0,0-1.41-2.3L5.09,6.7A2.93,2.93,0,0,1,6.43,1.17a2.89,2.89,0,0,1,1.33.32L23,9.26c1.94.94,2.2,2,2.22,3.18v62a.48.48,0,0,1-.48.48H20a.47.47,0,0,1-.48-.48V59.63"/><line class="cls-2" x1="4.02" y1="38.07" x2="40.94" y2="38.07"/><rect class="cls-1" x="12.09" y="48.11" width="11.3" height="11.3" rx="1.37" transform="translate(67.31 26.42) rotate(79.38)"/><circle class="cls-3" cx="57.73" cy="22.15" r="11.83"/><path class="cls-1" d="M57.73,5a17.1,17.1,0,1,1-8.22,2.1"/><line class="cls-2" x1="54.65" y1="11.31" x2="57.73" y2="22.15"/><line class="cls-2" x1="57.73" y1="22.15" x2="66.43" y2="15.16"/><line class="cls-2" x1="57.73" y1="22.15" x2="66.57" y2="28.59"/><polygon class="cls-1" points="48.15 83.46 12.16 83.46 1.17 22.15 58 22.15 48.15 83.46"/></g></g></svg>