<svg id="Capa_1" enable-background="new 0 0 508.408 508.408" height="512" viewBox="0 0 508.408 508.408" width="512" xmlns="http://www.w3.org/2000/svg"><g><path d="m470.537 163.413c-3.187-37.917-34.97-71.82-73.66-71.978-1.089-17.485-17.571-30.651-34.842-27.904-9.657-25.218-46.692-25.241-56.354 0-11.03-1.754-22.385 2.778-29.136 12.101l-22.999-22.564-23.095 22.68c-6.738-9.405-18.145-13.983-29.223-12.217-9.655-25.221-46.69-25.239-56.354 0-17.271-2.745-33.765 10.428-34.843 27.924-38.136.557-69.393 33.997-72.827 71.383h-37.204v40.428l253.938 260.534 34.011-34.82-10.73-10.481-23.269 23.823-238.95-245.157v-19.398l2.115.007 236.868 242.016 236.115-241.343 3.31.006v18.708l-184.452 188.843 10.73 10.481 188.722-193.215v-39.792zm-15.054-.026h-93.888l-18.754-22.712c9.642-20.665 30.664-34.248 53.729-34.248 30.545 0 55.76 27.237 58.913 56.96zm-137.374-78.328c.566-10.822.799-25.988 15.748-25.89 14.857.097 15.177 14.951 15.749 25.89 10.938-5.575 31.758-12.772 32.318 7.847-21.207 4.308-39.728 17.782-50.296 36.768l-44.142-43.307c3.729-8.973 20.729-11.973 30.623-1.308zm-64.557-10.972 96.082 98.269c1.429 1.401 2.248 3.353 2.248 5.354v44.547c0 10.21-15.834 10.21-15.834 0v-29.583c0-28.937-45-29.017-45 0 0 5.962-6.822 9.33-11.609 6.105-4.418-2.975-3-7.524-3.391-11.992-1.097-12.536-8.583-23.59-22.5-23.59h-86.659zm-96.249 10.973c.566-10.822.799-25.989 15.749-25.89 14.856.098 15.176 14.951 15.748 25.89 9.892-5.041 23.598-12.574 30.696 1.448l-43.614 42.831c-10.731-19.043-29.487-32.481-50.899-36.588 5.565-18.023 21.267-14.69 32.32-7.691zm-46.176 21.367c22.938 0 43.848 13.434 53.563 33.903l-19.198 22.856-93.213-.3c3.382-29.481 28.475-56.459 58.848-56.459zm142.854 291.916-215.81-220.502h215.376c8.266 0 6.938 8.309 7.5 13.742.812 7.842 2.43 14.268 9.22 19.243 14.525 10.642 35.78-.046 35.78-18.153 0-9.672 15-9.672 15 0v29.583c0 29.473 45.834 29.555 45.834 0v-44.021l102.266.176z"/><path d="m291.26 399.935h14.495v15h-14.495z" transform="matrix(.699 -.715 .715 .699 -201.539 336.277)"/><path d="m88.548 192.715h15v15h-15z"/><path d="m118.548 192.715h15v15h-15z"/><path d="m224.057 118.46h15v15h-15z" transform="matrix(.714 -.701 .701 .714 -21.911 198.339)"/><path d="m245.461 97.44h15v15h-15z" transform="matrix(.714 -.701 .701 .714 -1.052 207.307)"/><path d="m389.07 121.678h15v15h-15z"/><path d="m362.554 132.661h15v15h-15z" transform="matrix(.707 -.707 .707 .707 9.278 302.72)"/><path d="m415.588 132.661h15v15h-15z" transform="matrix(.707 -.707 .707 .707 24.82 340.239)"/><path d="m101.626 120.677h15v15h-15z"/><path d="m128.143 131.66h15v15h-15z" transform="matrix(.707 -.707 .707 .707 -58.673 136.682)"/><path d="m75.109 131.66h15v15h-15z" transform="matrix(.707 -.707 .707 .707 -74.205 99.173)"/></g></svg>