<svg id="Capa_1" enable-background="new 0 0 512 512" height="512" viewBox="0 0 512 512" width="512" xmlns="http://www.w3.org/2000/svg"><g><path d="m454.6 127.648c-2.502-.813-4.184-3.1-4.184-5.69v-53.769c7.239-.802 12.889-6.951 12.889-14.4v-39.294c0-7.993-6.502-14.495-14.494-14.495h-87.416c-7.992 0-14.495 6.502-14.495 14.495v39.294c0 7.448 5.65 13.597 12.888 14.4v53.767c0 2.593-1.68 4.88-4.181 5.692-8.365 2.718-16.171 6.804-23.2 12.145-3.299 2.506-3.94 7.211-1.435 10.509 2.51 3.303 7.216 3.937 10.509 1.434 5.688-4.321 11.999-7.625 18.76-9.822 8.701-2.826 14.547-10.847 14.547-19.958v-53.673h60.629v53.674c0 9.108 5.846 17.128 14.548 19.956 26.246 8.527 43.88 32.803 43.88 60.408v40.453l-39.523-50.911c-5.484-7.065-13.759-11.118-22.703-11.118h-53.029c-8.944 0-17.22 4.052-22.704 11.117l-39.522 50.911v-40.453c0-9.172 1.914-18.025 5.688-26.313 1.717-3.77.053-8.217-3.717-9.934-3.771-1.719-8.219-.052-9.934 3.717-4.67 10.254-7.037 21.198-7.037 32.53v89.392c-1.938.942-3.834 2-5.667 3.198-7.629-10.772-18.904-18.032-31.917-20.51-20.295-3.872-41.053 5.085-52.199 22.358-4.831-2.744-10.061-4.665-15.576-5.718-3.691-.701-7.452-.994-11.179-.877-4.14.132-7.389 3.596-7.256 7.736.133 4.141 3.614 7.375 7.736 7.256 6.951-.218 13.886 1.575 19.875 5.241 6.328 3.876 14.563 1.867 18.37-4.485 7.683-12.837 22.717-19.581 37.42-16.776 9.541 1.817 17.757 7.283 23.123 15.375 4.165 6.316 12.653 7.945 18.855 3.6 7.88-5.504 17.56-7.639 27.163-5.813 13.54 2.581 24.523 12.874 27.978 26.205 1.779 6.943 8.695 11.196 15.729 9.682 4.665-1.002 9.44-1.054 14.188-.155 15.57 2.964 27.476 16.047 28.951 31.819.603 6.432 5.623 11.512 11.974 12.083 20.578 1.748 35.117 21.027 32.281 40.705-1.46 10.169-6.985 18.898-15.204 24.483-12.029-29.869-31.18-56.717-56.006-77.974-36.432-31.192-82.944-48.371-130.97-48.371-46.209 0-91.375 16.054-127.175 45.205-24.727 20.134-44.26 45.877-57.062 74.688-5.516-7.575-7.951-17.065-6.471-26.485 1.794-11.437 9.047-21.353 19.428-26.538 5.099-2.572 7.987-8.092 7.183-13.761-.565-3.889-.474-7.846.27-11.756 3.796-19.902 23.465-32.769 43.284-28.17 6.282 1.46 12.733-1.745 15.328-7.603 1.486-3.333 3.458-6.397 5.862-9.11 2.747-3.1 2.461-7.84-.639-10.587-3.102-2.748-7.841-2.46-10.587.639-3.134 3.537-5.75 7.49-7.797 11.782-27.655-5.675-54.21 12.217-59.952 39.165-36.385 26.007-63.348 63.658-76.105 106.441-3.218 11.276-1.003 23.125 6.077 32.508 7.102 9.411 17.936 14.808 29.726 14.808h397.952c5.809 0 11.296-2.542 15.055-6.974 2.286-2.694 3.768-5.906 4.363-9.293h27.158c13.186 0 23.913-10.728 23.913-23.914v-269.497c0-34.124-21.8-64.133-54.244-74.674zm-92.7-112.648h86.405v38.283c-9.845 0-86.405 0-86.405 0zm69.85 352.141c-2.616-21.794-19.278-39.724-40.948-43.849-6.215-1.177-12.469-1.202-18.615-.076-5.334-18.183-20.586-32.094-39.27-35.654-5.554-1.057-11.129-1.18-16.556-.425v-19.901l51.372-66.175c2.583-3.328 6.641-5.315 10.854-5.315h53.029c4.275 0 8.231 1.937 10.854 5.315l51.373 66.175v50.192l-43.318 55.797c-5.974-3.325-12.402-5.338-18.775-6.084zm-409.098 121.016c-4.22-5.592-5.542-12.647-3.652-19.272 7.569-25.386 20.577-48.845 37.84-68.761-1.562 3.728-2.697 7.66-3.336 11.732-2.581 16.428 3.159 32.997 15.106 44.464-2.629 7.574-4.816 15.315-6.515 23.186-3.938 18.243-27.876 23.982-39.443 8.651zm419.319 7.167c-.531.626-1.707 1.676-3.616 1.676h-368.108c3.169-4.266 5.43-9.324 6.51-14.328 8.863-41.064 31.795-78.375 64.569-105.062 33.133-26.979 74.935-41.836 117.704-41.836 44.45 0 87.498 15.898 121.214 44.765 33.352 28.556 55.643 68.002 62.765 111.073.3 1.811-.522 3.103-1.038 3.712zm42.96-14.591h-28.708c-1.363-6.49-3.055-12.889-5.046-19.182 13.341-7.738 22.657-21.294 24.88-36.779 2.295-15.927-3.093-31.42-13.645-42.397l31.432-40.487v129.932c0 4.914-3.998 8.913-8.913 8.913z"/><path d="m172.711 406.942c-4.142 0-7.5 3.358-7.5 7.5v3.216c0 4.142 3.358 7.5 7.5 7.5s7.5-3.358 7.5-7.5v-3.216c0-4.142-3.358-7.5-7.5-7.5z"/><path d="m256.493 385.701c-4.142 0-7.5 3.358-7.5 7.5v3.216c0 4.142 3.358 7.5 7.5 7.5s7.5-3.358 7.5-7.5v-3.216c0-4.142-3.358-7.5-7.5-7.5z"/><path d="m340.275 406.942c-4.143 0-7.5 3.358-7.5 7.5v3.216c0 4.142 3.357 7.5 7.5 7.5s7.5-3.358 7.5-7.5v-3.216c0-4.142-3.358-7.5-7.5-7.5z"/><path d="m214.602 449.089c-4.142 0-7.5 3.358-7.5 7.5v3.216c0 4.142 3.358 7.5 7.5 7.5s7.5-3.358 7.5-7.5v-3.216c0-4.142-3.358-7.5-7.5-7.5z"/><path d="m298.384 449.089c-4.143 0-7.5 3.358-7.5 7.5v3.216c0 4.142 3.357 7.5 7.5 7.5s7.5-3.358 7.5-7.5v-3.216c0-4.142-3.357-7.5-7.5-7.5z"/></g></svg>