<?xml version="1.0" encoding="UTF-8"?><svg id="Line" xmlns="http://www.w3.org/2000/svg" viewBox="0 0 64 64"><path d="M8,53.5c-.82861,0-1.5-.67139-1.5-1.5v-27.9458c0-3.03271,2.46729-5.5,5.5-5.5h40c3.03271,0,5.5,2.46729,5.5,5.5v21.94482c0,.82861-.67139,1.5-1.5,1.5s-1.5-.67139-1.5-1.5v-21.94482c0-1.37842-1.12158-2.5-2.5-2.5H12c-1.37842,0-2.5,1.12158-2.5,2.5v27.9458c0,.82861-.67139,1.5-1.5,1.5Z" style="fill:#293a4c; stroke-width:0px;"/><path d="M47.99658,35.49414c-1.60352,0-3.20605-.36523-4.66797-1.0957-2.0918-1.04639-4.57959-1.04492-6.6626-.00342-.0083.00439-.0166.0083-.0249.01221-2.9082,1.44678-6.37549,1.44775-9.28662.00391-.01123-.00488-.02246-.01025-.0332-.01562-2.0835-1.04248-4.57129-1.0415-6.65479,0-2.9248,1.4624-6.41699,1.46191-9.34082-.00049l-3.99707-1.99951c-.74072-.37061-1.04053-1.27148-.66992-2.0127.37061-.74072,1.27197-1.04053,2.0127-.66992l3.99658,1.99951c2.0835,1.04199,4.57324,1.04199,6.65674,0,2.91309-1.45703,6.39062-1.46387,9.30957-.01465.01074.00537.02197.01025.03271.01562,2.0835,1.04199,4.57129,1.04199,6.65479,0,.00781-.00439.01611-.0083.02441-.01221,2.91846-1.45068,6.39941-1.44824,9.31494.00928,2.09131,1.04541,4.57861,1.04492,6.66113.00439l4.00732-2.00244c.74023-.36963,1.64111-.07031,2.01221.67139.37012.74072.06982,1.6416-.67139,2.01221l-4.00684,2.00244c-1.46094.73047-3.06445,1.0957-4.66699,1.0957Z" style="fill:#293a4c; stroke-width:0px;"/><path d="M56,43.5h0l-48-.00049c-.82861,0-1.5-.67139-1.5-1.5s.67188-1.5,1.5-1.5h0l48,.00049c.82861,0,1.5.67139,1.5,1.5s-.67188,1.5-1.5,1.5Z" style="fill:#293a4c; stroke-width:0px;"/><path d="M32,21.5542c-3.32373,0-6.02734-2.70361-6.02734-6.02686,0-3.32373,2.70361-6.02734,6.02734-6.02734s6.02734,2.70361,6.02734,6.02734c0,3.32324-2.70361,6.02686-6.02734,6.02686ZM32,12.5c-1.66943,0-3.02734,1.35791-3.02734,3.02734,0,1.66895,1.35791,3.02686,3.02734,3.02686s3.02734-1.35791,3.02734-3.02686c0-1.66943-1.35791-3.02734-3.02734-3.02734Z" style="fill:#293a4c; stroke-width:0px;"/><path d="M32,12.49707h-.00586c-.82617-.00342-1.49414-.6709-1.49414-1.49707,0-2.59424,1.35889-7.5,6.5-7.5.82861,0,1.5.67139,1.5,1.5s-.67139,1.5-1.5,1.5c-3.36719,0-3.49658,4.04443-3.5,4.50586-.00635.82422-.67676,1.49121-1.5,1.49121Z" style="fill:#293a4c; stroke-width:0px;"/><path d="M14,27.5542c-.38379,0-.76758-.14648-1.06055-.43945-.58594-.58545-.58594-1.53564,0-2.12109l1-1c.58594-.58594,1.53516-.58594,2.12109,0,.58594.58545.58594,1.53564,0,2.12109l-1,1c-.29297.29297-.67676.43945-1.06055.43945Z" style="fill:#293a4c; stroke-width:0px;"/><path d="M31,29.5542c-.38379,0-.76758-.14648-1.06055-.43945-.58594-.58545-.58594-1.53564,0-2.12109l1-1c.58594-.58594,1.53516-.58594,2.12109,0,.58594.58545.58594,1.53564,0,2.12109l-1,1c-.29297.29297-.67676.43945-1.06055.43945Z" style="fill:#293a4c; stroke-width:0px;"/><path d="M47,29.5542c-.38379,0-.76758-.14648-1.06055-.43945-.58594-.58545-.58594-1.53564,0-2.12109l1-1c.58594-.58594,1.53516-.58594,2.12109,0,.58594.58545.58594,1.53564,0,2.12109l-1,1c-.29297.29297-.67676.43945-1.06055.43945Z" style="fill:#293a4c; stroke-width:0px;"/><path d="M23,28.5542c-.38379,0-.76758-.14648-1.06055-.43945l-1-1c-.58594-.58545-.58594-1.53564,0-2.12109.58594-.58594,1.53516-.58594,2.12109,0l1,1c.58594.58545.58594,1.53564,0,2.12109-.29297.29297-.67676.43945-1.06055.43945Z" style="fill:#293a4c; stroke-width:0px;"/><path d="M38.75488,26.5542c-.38379,0-.76758-.14648-1.06055-.43945l-1-1c-.58594-.58545-.58594-1.53564,0-2.12109.58594-.58594,1.53516-.58594,2.12109,0l1,1c.58594.58545.58594,1.53564,0,2.12109-.29297.29297-.67676.43945-1.06055.43945Z" style="fill:#293a4c; stroke-width:0px;"/><path d="M52,60.5H12c-4.68701,0-8.5-3.81299-8.5-8.5,0-.82861.67139-1.5,1.5-1.5h54c.82861,0,1.5.67139,1.5,1.5,0,4.68701-3.81299,8.5-8.5,8.5ZM6.70801,53.5c.6543,2.30615,2.77881,4,5.29199,4h40c2.51318,0,4.6377-1.69385,5.29199-4H6.70801Z" style="fill:#293a4c; stroke-width:0px;"/></svg>