<svg id="Capa_1" enable-background="new 0 0 512 512" height="512" viewBox="0 0 512 512" width="512" xmlns="http://www.w3.org/2000/svg"><g><path d="m505.894 251.201c7.743-26.136 2.629-54.729-13.733-76.568-1.747-2.333-2.777-5.308-2.978-8.608-1.667-27.227-16.253-52.334-39.096-67.26-2.466-1.611-4.382-3.894-5.54-6.602-10.725-25.068-32.913-43.813-59.449-50.181-3.213-.771-5.965-2.303-7.96-4.429-18.908-20.161-46.368-29.945-73.423-26.757-2.989.355-5.959-.166-8.59-1.498-24.493-12.394-53.742-12.4-78.249.001-2.631 1.332-5.601 1.852-8.589 1.497-3.35-.394-6.756-.593-10.124-.593-23.019 0-46.341 9.267-63.302 27.352-1.993 2.127-4.746 3.658-7.959 4.429-11.686 2.805-22.496 7.942-32.129 15.269-3.296 2.508-3.935 7.213-1.429 10.51 2.508 3.296 7.212 3.935 10.51 1.429 7.966-6.06 16.898-10.307 26.548-12.622 6.071-1.458 11.396-4.485 15.399-8.754 13.805-14.721 33.02-22.613 52.36-22.613 2.785 0 5.602.165 8.374.491 5.926.692 11.841-.345 17.111-3.011 20.232-10.239 44.46-10.244 64.705-.002 5.268 2.667 11.188 3.709 17.115 3.012 2.762-.325 5.578-.49 8.371-.49 19.312 0 38.533 7.869 52.36 22.613 4.005 4.269 9.33 7.296 15.399 8.753 21.898 5.254 40.294 20.772 49.159 41.496 2.327 5.438 6.173 10.023 11.125 13.258 18.858 12.321 30.954 33.122 32.329 55.619.381 6.231 2.436 12.001 5.947 16.687 6.754 9.016 11.184 19.286 13.166 30.524 4.937 28.011-6.977 33.475-1.812 50.908 6.397 21.586 2.159 45.275-11.356 63.315-3.508 4.683-5.564 10.453-5.946 16.685-1.37 22.444-13.422 43.265-32.326 55.618-4.953 3.236-8.8 7.821-11.127 13.26-4.432 10.362-11.113 19.335-19.856 26.67-8.628 7.241-18.487 12.229-29.302 14.825-6.07 1.456-11.395 4.482-15.4 8.752-7.708 8.218-17.053 14.365-27.776 18.268-7.922 2.884-16.193 4.345-24.585 4.345-2.786 0-5.602-.165-8.373-.491-5.925-.69-11.841.346-17.111 3.011-20.233 10.239-44.463 10.244-64.707.001-5.267-2.667-11.184-3.702-17.11-3.012-22.513 2.649-45.197-5.556-60.735-22.123-4.006-4.27-9.331-7.296-15.399-8.752-21.901-5.257-40.293-20.771-49.16-41.496-2.327-5.438-6.173-10.023-11.125-13.258-18.854-12.318-30.956-33.122-32.329-55.619-.381-6.231-2.436-12.001-5.946-16.686-13.5-18.022-17.758-41.707-11.355-63.315 1.756-5.926 1.756-12.192 0-18.118-6.397-21.586-2.159-45.275 11.356-63.315 3.508-4.683 5.564-10.452 5.946-16.685.678-11.103 3.878-21.68 9.511-31.437 5.706-9.882 13.382-18.017 22.815-24.181 4.953-3.236 8.8-7.821 11.127-13.26.665-1.555 1.391-3.097 2.157-4.585 1.896-3.681.448-8.205-3.234-10.101-3.681-1.894-8.205-.448-10.101 3.234-.928 1.802-1.807 3.67-2.612 5.552-1.158 2.708-3.074 4.991-5.541 6.602-11.422 7.462-20.709 17.3-27.601 29.239-6.805 11.786-10.672 24.579-11.493 38.02-.202 3.3-1.232 6.275-2.979 8.607-16.345 21.821-21.483 50.407-13.733 76.57.931 3.138.931 6.457 0 9.596-7.744 26.14-2.626 54.728 13.733 76.568 1.747 2.333 2.777 5.308 2.978 8.607 1.663 27.22 16.253 52.335 39.096 67.261 2.466 1.611 4.382 3.894 5.54 6.602 10.727 25.071 32.913 43.811 59.451 50.181 3.212.77 5.964 2.302 7.958 4.428 16.998 18.124 40.34 27.352 63.301 27.352 3.369 0 6.775-.199 10.124-.594 2.992-.352 5.96.167 8.587 1.498 24.497 12.395 53.743 12.402 78.252 0 2.631-1.331 5.601-1.849 8.588-1.498 3.349.395 6.754.594 10.123.594 22.97 0 46.308-9.233 63.302-27.352 1.994-2.127 4.746-3.658 7.96-4.428 26.514-6.365 48.715-25.09 59.449-50.182 1.158-2.708 3.074-4.991 5.541-6.602 22.828-14.914 37.43-40.021 39.094-67.259.202-3.3 1.232-6.275 2.979-8.607 16.345-21.821 21.483-50.407 13.733-76.57-.929-3.137-.929-6.455.001-9.595z"/><path d="m420.671 130.015c-6.061-2.662-10.437-7.876-12.006-14.307-4.632-18.998-21.111-33.125-41.014-34.416-6.508-.422-12.555-3.913-16.175-9.338-10.951-16.415-31.322-23.859-50.312-18.312-6.354 1.858-13.057.675-18.393-3.243-15.794-11.599-37.497-11.781-53.541 0-5.257 3.859-12.135 5.073-18.392 3.243-18.707-5.463-39.205 1.663-50.312 18.312-3.62 5.425-9.666 8.916-16.175 9.338-19.51 1.264-36.29 15.042-41.014 34.415-1.569 6.431-5.945 11.646-12.004 14.308-17.982 7.894-28.948 26.619-26.773 46.369.716 6.482-1.673 13.042-6.387 17.55-14.107 13.485-18.146 34.813-9.297 52.726 2.889 5.848 2.889 12.83 0 18.678-8.66 17.533-5.12 38.946 9.297 52.727 4.715 4.508 7.103 11.068 6.387 17.551-2.135 19.396 8.475 38.334 26.771 46.368 6.061 2.662 10.437 7.876 12.006 14.307 4.632 18.996 21.115 33.127 41.014 34.416 6.508.422 12.555 3.913 16.175 9.338 10.951 16.415 31.319 23.859 50.312 18.312 6.262-1.829 13.137-.616 18.393 3.243 15.794 11.599 37.497 11.781 53.541 0 5.257-3.859 12.133-5.074 18.392-3.243 18.98 5.542 39.353-1.886 50.312-18.312 3.62-5.425 9.666-8.916 16.175-9.338 9.663-.626 18.701-4.256 26.138-10.496 3.174-2.662 3.588-7.392.925-10.565-2.662-3.174-7.394-3.589-10.565-.925-4.974 4.173-11.015 6.6-17.469 7.018-11.138.723-21.486 6.697-27.682 15.982-7.355 11.024-21.017 15.924-33.628 12.239-10.714-3.129-22.481-1.056-31.477 5.551-10.526 7.729-25.05 7.884-35.786 0-8.998-6.607-20.764-8.68-31.478-5.551-12.51 3.656-26.221-1.136-33.628-12.239-6.196-9.286-16.544-15.26-27.682-15.982-6.454-.418-12.494-2.846-17.468-7.018-4.974-4.175-8.414-9.702-9.946-15.985-2.645-10.842-10.327-19.996-20.546-24.485-12.04-5.287-19.343-17.829-17.893-30.991 1.224-11.093-2.863-22.322-10.932-30.035-4.676-4.47-7.743-10.212-8.871-16.605-1.127-6.393-.208-12.838 2.657-18.638 4.943-10.007 4.943-21.956 0-31.964-2.866-5.799-3.784-12.243-2.657-18.637 1.128-6.393 4.195-12.135 8.871-16.605 8.069-7.713 12.156-18.942 10.932-30.034-.708-6.43.633-12.801 3.879-18.423 3.247-5.623 8.093-9.97 14.016-12.57 10.218-4.489 17.899-13.643 20.545-24.486 1.533-6.284 4.971-11.811 9.945-15.984s11.015-6.6 17.469-7.018c11.138-.723 21.486-6.697 27.682-15.982 3.589-5.381 8.71-9.398 14.811-11.618s12.61-2.434 18.817-.62c10.713 3.128 22.481 1.056 31.477-5.551 5.214-3.828 11.402-5.851 17.893-5.851 6.492 0 12.68 2.023 17.893 5.851 8.997 6.607 20.763 8.679 31.478 5.551 6.208-1.814 12.716-1.6 18.815.62 6.101 2.221 11.224 6.238 14.813 11.618 6.196 9.286 16.544 15.26 27.682 15.982 13.035.844 24.256 10.06 27.413 23.004 2.645 10.842 10.327 19.996 20.547 24.485 5.921 2.599 10.767 6.947 14.014 12.569 3.246 5.624 4.587 11.994 3.878 18.424-1.223 11.094 2.865 22.323 10.933 30.034 4.676 4.47 7.743 10.212 8.871 16.605 1.127 6.393.209 12.837-2.657 18.638-4.943 10.007-4.943 21.956 0 31.962 2.865 5.8 3.784 12.245 2.657 18.638-1.128 6.393-4.195 12.136-8.871 16.605-8.068 7.712-12.156 18.941-10.933 30.036.709 6.428-.632 12.799-3.878 18.422-3.246 5.622-8.092 9.969-14.016 12.571-5.508 2.419-10.361 6.211-14.035 10.964-2.533 3.277-1.931 7.987 1.347 10.52 3.276 2.533 7.987 1.932 10.52-1.347 2.146-2.776 4.982-4.991 8.201-6.405 8.867-3.894 16.119-10.397 20.973-18.805s6.858-17.939 5.798-27.564c-.726-6.58 1.603-12.977 6.388-17.551 14.137-13.516 18.13-34.844 9.297-52.728-2.889-5.846-2.889-12.828 0-18.676 8.661-17.535 5.118-38.946-9.297-52.728-4.785-4.573-7.114-10.97-6.388-17.549 2.139-19.436-8.512-38.352-26.772-46.37z"/><path d="m203.057 182.568c14.716-12.328 18.422-33.358 8.81-50.006-9.612-16.647-29.676-23.954-47.712-17.373-7.156 2.61-10.221 11.027-6.425 17.6l26.873 46.544c3.818 6.613 12.645 8.1 18.454 3.235zm-4.18-42.506c5.399 9.352 4.028 20.929-3.054 28.708l-23.337-40.418c10.276-2.245 20.992 2.356 26.391 11.71z"/><path d="m165.934 265.133c-3.318-18.908-19.679-32.632-38.901-32.632-19.223 0-35.584 13.724-38.901 32.631-1.317 7.489 4.422 14.366 12.029 14.366h53.745c7.587.001 13.346-6.856 12.028-14.365zm-62.237-.634c3.194-10.022 12.536-16.999 23.336-16.999s20.141 6.977 23.336 16.999z"/><path d="m179.975 405.945c5.83 4.884 14.651 3.351 18.455-3.235l26.871-46.542c3.805-6.584.722-14.994-6.424-17.602-18.032-6.581-38.099.726-47.711 17.374-9.612 16.647-5.907 37.677 8.809 50.005zm4.181-42.506c4.491-7.779 12.658-12.271 21.192-12.271 1.726 0 3.469.184 5.197.561l-23.336 40.418c-7.081-7.778-8.452-19.356-3.053-28.708z"/><path d="m334.303 399.214c4.512 0 9.089-.778 13.542-2.403 7.156-2.61 10.221-11.027 6.425-17.6l-26.873-46.544c-3.797-6.576-12.613-8.126-18.454-3.235-14.716 12.328-18.422 33.358-8.81 50.006 7.239 12.537 20.405 19.776 34.17 19.776zm-18.127-55.984 23.336 40.418c-10.271 2.244-20.99-2.355-26.39-11.709-5.399-9.353-4.028-20.93 3.054-28.709z"/><path d="m423.868 246.868c1.316-7.493-4.424-14.366-12.029-14.366h-53.745c-7.588 0-13.347 6.857-12.029 14.365 3.318 18.908 19.678 32.632 38.901 32.632 19.224 0 35.585-13.724 38.902-32.631zm-62.237.632h46.671c-3.194 10.022-12.536 16.999-23.336 16.999s-20.14-6.977-23.335-16.999z"/><path d="m340.834 156.061c9.612-16.647 5.907-37.677-8.809-50.006-5.831-4.883-14.651-3.351-18.455 3.235l-26.871 46.542c-3.805 6.584-.722 14.994 6.424 17.602 18.042 6.584 38.106-.737 47.711-17.373zm-16.043-36.208c7.082 7.778 8.453 19.356 3.054 28.708-5.399 9.353-16.116 13.952-26.389 11.71z"/><path d="m263.5 128.315v-8.007c0-4.142-3.357-7.5-7.5-7.5-4.142 0-7.5 3.357-7.5 7.5v8.007c0 4.142 3.357 7.5 7.5 7.5 4.142 0 7.5-3.358 7.5-7.5z"/><path d="m141.672 198.652c1.182.683 2.471 1.006 3.743 1.006 2.592 0 5.113-1.345 6.502-3.751 2.071-3.588.842-8.174-2.745-10.245l-6.935-4.004c-3.59-2.074-8.174-.843-10.245 2.745s-.842 8.174 2.745 10.245z"/><path d="m141.672 313.348-6.935 4.004c-3.587 2.07-4.816 6.657-2.745 10.245 2.072 3.59 6.658 4.814 10.245 2.745l6.935-4.004c3.587-2.07 4.816-6.657 2.745-10.245s-6.658-4.814-10.245-2.745z"/><path d="m248.5 383.685v8.007c0 4.142 3.357 7.5 7.5 7.5 4.142 0 7.5-3.357 7.5-7.5v-8.007c0-4.142-3.357-7.5-7.5-7.5-4.142 0-7.5 3.357-7.5 7.5z"/><path d="m370.328 313.348c-3.59-2.073-8.175-.843-10.245 2.745-2.071 3.588-.842 8.174 2.745 10.245l6.935 4.004c3.563 2.058 8.162.864 10.245-2.745 2.071-3.588.842-8.174-2.745-10.245z"/><path d="m366.585 199.658c1.272 0 2.561-.324 3.743-1.006l6.935-4.004c3.587-2.07 4.816-6.657 2.745-10.245-2.07-3.587-6.656-4.815-10.245-2.745l-6.935 4.004c-3.587 2.07-4.816 6.657-2.745 10.245 1.389 2.406 3.911 3.751 6.502 3.751z"/><path d="m290.998 256c0-19.298-15.7-34.998-34.998-34.998s-34.998 15.7-34.998 34.998 15.7 34.998 34.998 34.998 34.998-15.7 34.998-34.998zm-34.998 19.999c-11.028 0-19.999-8.971-19.999-19.999s8.971-19.999 19.999-19.999 19.999 8.971 19.999 19.999-8.971 19.999-19.999 19.999z"/></g></svg>