<svg id="icons" xmlns="http://www.w3.org/2000/svg" viewBox="0 0 64 64"><defs><style>.cls-1{fill:none;stroke:#000;stroke-linecap:round;stroke-linejoin:round;stroke-width:2px;}</style></defs><title>69</title><g id="waiter"><path class="cls-1" d="M12.66279,60V41.4797a7.85336,7.85336,0,0,1,7.85336-7.85336h22.9677a7.85336,7.85336,0,0,1,7.85336,7.85336V60"/><line class="cls-1" x1="19.39428" y1="44.05072" x2="19.39428" y2="60.00001"/><line class="cls-1" x1="44.60572" y1="44.05072" x2="44.60572" y2="60.00001"/><line class="cls-1" x1="12.66279" y1="47.99401" x2="19.39428" y2="47.99401"/><line class="cls-1" x1="44.60572" y1="47.99401" x2="51.33721" y2="47.99401"/><path class="cls-1" d="M19.39428,52.02536h.11161a4.48763,4.48763,0,0,0,4.48763-4.48763V33.62634"/><path class="cls-1" d="M44.60572,52.02536h-.11161a4.48763,4.48763,0,0,1-4.48763-4.48763V33.62634"/><line class="cls-1" x1="23.99352" y1="44.05072" x2="40.00648" y2="44.05072"/><line class="cls-1" x1="26.23735" y1="33.62634" x2="28.14503" y2="26.54072"/><line class="cls-1" x1="37.76265" y1="33.62634" x2="35.77085" y2="26.343"/><ellipse class="cls-1" cx="31.16041" cy="54.88795" rx="5.56419" ry="4.40498" transform="translate(-30.85715 43.16273) rotate(-49.70987)"/><path class="cls-1" d="M35.52344,51.55471l-.39385.82663a4.42232,4.42232,0,0,1-3.96481,2.52175h0A4.42228,4.42228,0,0,0,27.2599,57.3038l-.4688.91156"/><path class="cls-1" d="M22.599,15.15008s6.04379-1.30192,6.93336-4.90673c0,0,2.83162,5.6684,11.88439,4.79465"/><path class="cls-1" d="M41.27512,16.287c-.93933,5.55459-4.09478,11.10752-9.27452,11.28287-5.46228.18491-8.36031-5.625-9.27439-11.28287C21.73233,10.13542,25.7693,4,32.00066,4S42.3141,10.14289,41.27512,16.287Z"/></g></svg>