<svg id="icons" xmlns="http://www.w3.org/2000/svg" viewBox="0 0 64 64"><defs><style>.cls-1{fill:none;stroke:#000;stroke-linecap:round;stroke-linejoin:round;stroke-width:2px;}</style></defs><title>63</title><g id="icecream_1"><path class="cls-1" d="M46.81279,25.806H17.292L31.05411,59.33068a1.07914,1.07914,0,0,0,1.9966,0Z"/><path class="cls-1" d="M14.08086,23.71584a2.0863,2.0863,0,0,0,2.08273,2.09354H47.83641a2.09356,2.09356,0,0,0,0-4.18707H16.16359a2.08172,2.08172,0,0,0-2.08273,2.09353Z"/><path class="cls-1" d="M16.41184,17.13311a8.45664,8.45664,0,0,0,1.28418,4.4892h14.4281a6.86851,6.86851,0,0,0,.464-.8309A8.4847,8.4847,0,0,0,26.75,8.84532a7.96832,7.96832,0,0,0-1.83449-.205A8.49714,8.49714,0,0,0,16.41184,17.13311Z"/><path class="cls-1" d="M32.12412,21.62231h15.2698A8.50779,8.50779,0,0,0,39.53781,9.87052a8.49884,8.49884,0,0,0-6.94966,3.60429,8.569,8.569,0,0,1,0,7.3166A6.86851,6.86851,0,0,1,32.12412,21.62231Z"/><path class="cls-1" d="M26.75,8.84532a8.504,8.504,0,0,1,5.83819,4.62949,8.49113,8.49113,0,0,1,10.08994-3A8.502,8.502,0,0,0,28.822,6.10426,8.37521,8.37521,0,0,0,26.75,8.84532Z"/><line class="cls-1" x1="46.81279" y1="25.80599" x2="25.74191" y2="46.39005"/><line class="cls-1" x1="38.93186" y1="45.00409" x2="28.94576" y2="54.19468"/><line class="cls-1" x1="36.92131" y1="25.80599" x2="22.88768" y2="39.43709"/><line class="cls-1" x1="25.47276" y1="25.80599" x2="20.08734" y2="32.6154"/><line class="cls-1" x1="27.46204" y1="25.80599" x2="41.22219" y2="39.42481"/><line class="cls-1" x1="44.15917" y1="32.27026" x2="37.85006" y2="25.80599"/><line class="cls-1" x1="17.29203" y1="25.80599" x2="38.38441" y2="46.33768"/><line class="cls-1" x1="24.48811" y1="43.33576" x2="35.11073" y2="54.31245"/></g></svg>