<svg id="icons" xmlns="http://www.w3.org/2000/svg" viewBox="0 0 64 64"><defs><style>.cls-1{fill:none;stroke:#000;stroke-linecap:round;stroke-linejoin:round;stroke-width:2px;}</style></defs><title>29</title><g id="jelly"><rect class="cls-1" x="19.81771" y="50.17509" width="24.36457" height="3.25519" rx="1.62759"/><rect class="cls-1" x="4.04025" y="36.06929" width="55.91951" height="3.25519" rx="1.62759"/><path class="cls-1" d="M23.68189,39.32447a5.43161,5.43161,0,0,1,0,10.85062"/><path class="cls-1" d="M40.31811,39.32447a5.43161,5.43161,0,0,0,0,10.85062"/><path class="cls-1" d="M31.41643,10.56972h1.16713a5.14952,5.14952,0,0,1,5.14952,5.14952v20.35a0,0,0,0,1,0,0H26.26691a0,0,0,0,1,0,0v-20.35A5.14952,5.14952,0,0,1,31.41643,10.56972Z"/><path class="cls-1" d="M48.93975,36.07l-4.5-20.82a5.7515,5.7515,0,0,0-6.81-4.39,5.26569,5.26569,0,0,0-1.9.8"/><path class="cls-1" d="M42.92486,12.45942a5.73049,5.73049,0,0,1,9.70819,2.79444L57.13087,36.073"/><path class="cls-1" d="M15.39975,36.07l4.5-20.82a5.7736,5.7736,0,0,1,6.82-4.39,5.3726,5.3726,0,0,1,1.71.68"/><path class="cls-1" d="M7.20945,36.073l4.49783-20.81915a5.73048,5.73048,0,0,1,9.70818-2.79444"/></g></svg>