<svg id="icons" xmlns="http://www.w3.org/2000/svg" viewBox="0 0 64 64"><defs><style>.cls-1{fill:none;stroke:#000;stroke-linecap:round;stroke-linejoin:round;stroke-width:2px;}</style></defs><title>31</title><g id="coffee_3"><line class="cls-1" x1="15.78916" y1="27.50794" x2="14.99072" y2="17.06169"/><line class="cls-1" x1="49.01312" y1="17.06169" x2="48.21468" y2="27.50794"/><path class="cls-1" d="M17.45257,49.4983l.72052,9.47683A1.109,1.109,0,0,0,19.27885,60H44.7139a1.10894,1.10894,0,0,0,1.10575-1.02487l.72052-9.47683"/><rect class="cls-1" x="12.85218" y="10.52909" width="38.29564" height="6.52909" rx="1"/><path class="cls-1" d="M47.821,10.52909H16.179l3.01833-5.92361A1.10894,1.10894,0,0,1,20.18543,4H43.81457a1.10894,1.10894,0,0,1,.98807.60548Z"/><path class="cls-1" d="M14.074,27.5052H49.926a1.10894,1.10894,0,0,1,1.10375,1.21614l-1.92107,19.7805a1.10894,1.10894,0,0,1-1.10375,1.00175H15.99511a1.10894,1.10894,0,0,1-1.10375-1.00175l-1.92107-19.7805A1.10894,1.10894,0,0,1,14.074,27.5052Z"/><ellipse class="cls-1" cx="32" cy="38.50439" rx="7.11434" ry="5.63218" transform="translate(-18.06344 38.01416) rotate(-49.70987)"/><path class="cls-1" d="M37.57854,34.24253,37.075,35.29945a5.65434,5.65434,0,0,1-5.06939,3.2243h0a5.65431,5.65431,0,0,0-4.99275,3.06954l-.5994,1.16551"/></g></svg>