<svg id="Capa_1" enable-background="new 0 0 512 512" height="512" viewBox="0 0 512 512" width="512" xmlns="http://www.w3.org/2000/svg"><g><path d="m437.02 74.98c-48.353-48.351-112.64-74.98-181.02-74.98-50.309 0-99.002 14.584-140.816 42.176-3.457 2.281-4.411 6.934-2.129 10.391 2.281 3.457 6.934 4.41 10.391 2.129 39.355-25.969 85.191-39.696 132.554-39.696 64.374 0 124.894 25.068 170.413 70.588 45.519 45.518 70.587 106.039 70.587 170.412s-25.068 124.894-70.587 170.412c-45.519 45.52-106.039 70.588-170.413 70.588s-124.894-25.068-170.413-70.588c-45.519-45.518-70.587-106.039-70.587-170.412 0-69.072 29.715-134.934 81.527-180.695 3.104-2.742 3.398-7.481.656-10.586-2.741-3.105-7.481-3.398-10.586-.656-55.034 48.607-86.597 118.565-86.597 191.937 0 68.38 26.629 132.667 74.98 181.02 48.353 48.351 112.64 74.98 181.02 74.98s132.667-26.629 181.02-74.98c48.351-48.353 74.98-112.64 74.98-181.02s-26.629-132.667-74.98-181.02z"/><path d="m356.714 228.67h-17.734c-3.673 0-7.173 1.578-9.602 4.331-2.442 2.767-3.579 6.459-3.121 10.124 2.119 17.044 9.403 18.169 9.403 35.675 0 9.339-1.982 13.73-4.278 18.816-2.626 5.818-5.603 12.412-5.603 24.964 0 22.201 9.004 24.689 9.817 40.826.255 5.873 5.066 10.474 10.953 10.474h58.64c7.395 0 13.227-6.357 12.558-13.768-1.678-18.226-9.608-19.629-9.608-37.532 0-17.627 7.632-19.069 9.512-36.63h18.228c3.525 0 6.914-1.495 9.294-4.101 4.041-4.422 3.266-9.767 3.254-9.667-1.678-18.23-9.608-19.626-9.608-37.532 0-19.3 9.88-20.248 9.88-43.78 0-20.906-7.921-24.417-9.535-37.632-.863-7.125-6.961-12.498-14.185-12.498-16.914 0-37.263 0-53.62 0-8.79 0-15.556 7.884-14.118 16.593 2.537 15.214 9.098 16.848 9.098 33.537.001 17.833-8.024 19.426-9.625 37.8zm-15.934 93.91c0-19.301 9.88-20.247 9.88-43.78 0-19.464-7.057-24.28-9.141-35.13h15.54c2.086 14.726 8.517 17.916 9.217 31.787.109 2.68 1.214 5.136 2.957 6.997-1.008 15.454-9.773 18.26-9.773 40.126 0 20.118 7.458 24.375 9.356 36.3h-18.545c-1.979-17.445-9.491-18.659-9.491-36.3zm61.708 36.3h-18.546c-1.978-17.437-9.483-18.688-9.483-36.3 0-17.62 7.64-19.073 9.522-36.63h18.554c-1.845 12.353-9.396 16.307-9.396 36.63.001 20.157 7.461 24.387 9.349 36.3zm31.212-168.01c0 19.255-9.88 20.361-9.88 43.78 0 20.151 7.459 24.388 9.348 36.3h-18.547c-1.978-17.435-9.483-18.687-9.483-36.297 0-19.3 9.89-20.254 9.89-43.786 0-19.475-7.026-24.176-9.147-35.127h18.482c2.218 16.41 9.337 17.914 9.337 35.13zm-61.505-35.13h18.493c2.234 16.566 9.341 17.847 9.341 35.127 0 19.302-9.89 20.295-9.89 43.786 0 20.116 7.458 24.373 9.356 36.297h-18.543c-1.979-17.445-9.491-18.659-9.491-36.3 0-19.3 9.88-20.248 9.88-43.78-.001-19.488-7.057-24.286-9.146-35.13z"/><path d="m286.038 140.007c-20.874-4.438-49.494-6.504-90.069-6.504s-69.195 2.066-90.069 6.504c-10.537 2.24-42.602 9.057-42.602 33.42 0 12.747 8.804 22.44 26.169 28.818v157.062c0 10.582 8.609 19.19 19.191 19.19h174.622c10.582 0 19.191-8.608 19.191-19.19v-30.849c0-4.143-3.358-7.5-7.5-7.5s-7.5 3.357-7.5 7.5v30.849c0 2.311-1.88 4.19-4.191 4.19h-174.621c-2.311 0-4.191-1.88-4.191-4.19v-157.87c0-5.836-3.71-11.083-9.233-13.056-16.936-6.05-16.936-12.752-16.936-14.954 0-11.37 20.415-24.924 117.671-24.924s117.671 13.554 117.671 24.924c0 2.202 0 8.904-16.937 14.954-5.522 1.974-9.232 7.22-9.232 13.056v92.021c0 4.143 3.358 7.5 7.5 7.5s7.5-3.357 7.5-7.5v-91.213c17.366-6.378 26.169-16.07 26.169-28.818-.001-24.364-32.066-31.18-42.603-33.42z"/><path d="m199.959 234.734c-15.896 0-28.829 12.933-28.829 28.828 0 15.896 12.933 28.829 28.829 28.829s28.829-12.933 28.829-28.829c.001-15.895-12.932-28.828-28.829-28.828zm0 42.658c-7.625 0-13.829-6.204-13.829-13.829s6.204-13.828 13.829-13.828 13.829 6.203 13.829 13.828-6.203 13.829-13.829 13.829z"/><path d="m262.634 231.021c-2.619-41.178-52.872-59.995-81.95-30.732-8.761 8.814-18.088 10.953-24.249 13.004-26.014 8.652-41.858 35.502-36.856 62.454 4.66 25.11 25.68 43.69 51.116 45.184 16.038.94 18.887 7.562 36.741 7.562.121 0 .243 0 .364-.001 35.148-.224 61.712-33.484 53.42-68.156-2.948-12.344 2.313-15.181 1.414-29.315zm-70.205 79.578c-6.6-2.655-13.616-4.218-20.854-4.643-18.533-1.088-33.849-14.636-37.247-32.945-3.751-20.214 8.602-40.513 28.902-46.111 10.955-3.021 20.67-8.565 28.095-16.037 23.484-23.634 63.971-1.16 55.326 31.669-3.698 14.035 1.219 20.679 1.079 31.212-.368 28.054-29.162 47.379-55.301 36.855z"/></g></svg>