<svg id="Capa_1" enable-background="new 0 0 508.939 508.939" height="512" viewBox="0 0 508.939 508.939" width="512" xmlns="http://www.w3.org/2000/svg"><g><path d="m484.865 190.677c-24.222-21.815-53.074-36.695-80.144-54.564-31.675-20.909-48.228-56.66-67.413-88.205-23.271-36.89-65.947-59.911-108.423-39.394-39.331 18.998-55.035 68.697-33.933 106.874l-194.952 194.952 36.924 36.924 10.607-10.606-26.318-26.318 192.829-192.829s-33.958-48.685 5.824-84.769c24.807-22.501 63.661-22.206 87.747 1.881 29.944 29.942 41.059 74.009 73.243 102.252 28.599 25.096 65.179 39.234 93.705 64.71 25.004 27.522 26.757 66.267-2.324 91.695-24.266 21.218-56.637 18.669-81.717.886l-192.74 192.741-119.011-119.011-10.607 10.606 129.618 129.618 194.683-194.683c34.011 19.657 77.02 9.79 100.837-20.809 24.851-31.927 18.642-73.457-8.435-101.951z"/><path d="m50.347 350.217h14.999v14.726h-14.999z" transform="matrix(.707 -.707 .707 .707 -235.914 145.65)"/><path d="m362.641 277.252h15.053v15h-15.053z" transform="matrix(.707 -.707 .707 .707 -92.928 345.171)"/><path d="m346.48 251.989c4.133-38.724-20.798-75.88-58.247-86.592-32.411-9.27-62.161 2.935-85.093 25.869l22.576 22.576c-5.583-.78-11.294-.989-17.059-.544l1.158 14.955c56.494-4.368 92.101 62.892 56.905 107.089l-20.874-20.874c21.446-32.64-18.589-72.581-51.176-51.176l-20.871-20.871c6.515-5.181 13.973-9.114 21.907-11.519l-4.352-14.354c-15.702 4.759-27.696 14.197-39.07 25.572l21.778 21.778c-27.166-3.104-52.274 8.718-72.104 28.55l41.845 41.845c10-10 24.1-17.552 36.348-5.304 12.206 12.206 4.689 26.356-5.304 36.348l41.845 41.845c10.919-10.92 20.087-22.325 24.999-37.255l-14.248-4.688c-2.464 7.487-6.167 14.335-11.044 20.438l-20.874-20.874c21.521-32.624-18.6-72.686-51.187-51.187l-20.871-20.872c45.021-35.941 113.004 1.83 106.914 58.835l14.916 1.593c.655-6.137.566-12.24-.177-18.214l21.898 21.898c20.113-20.111 32.035-45.394 28.322-73.387l22.532 22.533c10.919-10.919 20.088-22.326 24.998-37.257l-14.249-4.687c-2.462 7.485-6.164 14.333-11.042 20.437l-20.874-20.874c21.523-32.626-18.601-72.682-51.188-51.187l-20.868-20.869c44.931-35.781 113.017 1.66 106.912 58.833zm-112.368 51.051c-6.796-11.388-16.305-21.136-27.803-28.111 7.8-3.798 16.391-4.046 24.169 3.733 7.853 7.852 7.53 16.524 3.634 24.378zm45.703-76.5c9.65 8.035 9.293 17.634 4.804 26.25-7.04-11.689-16.94-21.396-28.558-28.282 7.399-4.005 15.606-4.752 23.754 2.032z"/><path d="m271.381 31.798-2.484 14.793c4.131.693 7.954 2.025 11.364 3.959l7.398-13.049c-4.939-2.799-10.416-4.718-16.278-5.703z"/><path d="m254.296 31.752c-5.769.926-11.446 2.987-16.421 5.959l7.693 12.877c3.357-2.006 7.197-3.398 11.104-4.025z"/><path d="m198.473 467.054 161.263-161.264-10.607-10.606-150.656 150.657-135.173-135.172 223.334-223.334 135.172 135.172-41.207 41.207 10.607 10.606 51.813-51.813-156.385-156.385-244.547 244.547z"/></g></svg>