<svg id="Capa_1" enable-background="new 0 0 512 512" height="512" viewBox="0 0 512 512" width="512" xmlns="http://www.w3.org/2000/svg"><g><path d="m475.063 59.998c-37.477-20.564-75.53-36.04-113.105-45.998-4.004-1.058-8.11 1.326-9.171 5.329-1.061 4.004 1.325 8.11 5.329 9.172 36.4 9.646 73.318 24.668 109.729 44.647 12.894 7.078 17.582 23.338 10.431 36.293-9.192 11.412-36.269 19.741-67.584 29.367-49.025 15.071-109.571 33.698-154.738 76.88-45.452-43.302-107.315-62.331-154.636-76.876-31.323-9.627-58.406-17.957-67.595-29.373-7.136-12.933-2.487-29.2 10.431-36.291 46.597-25.564 93.806-42.904 140.317-51.538 46.408-8.615 93.468-8.808 139.874-.574 4.074.723 7.971-1.996 8.696-6.075.724-4.078-1.996-7.972-6.075-8.695-48.187-8.549-97.05-8.348-145.233.596-48.081 8.925-96.797 26.803-144.794 53.137-20.53 11.268-27.611 37.194-15.957 57.398l124.531 215.685c-9.414 1.462-14.707 12.04-9.79 20.556l38.344 66.414c2.071 3.588 6.661 4.818 10.246 2.745 3.587-2.071 4.817-6.658 2.745-10.246l-37.322-64.642c11.446 0 191.268-.051 203.817 0 .015 0 .031.003.046.003s.03-.003.045-.003h8.62l-85.356 147.84c-.445.771-1.274 1.25-2.165 1.25h-37.487c-.891 0-1.72-.479-2.165-1.25l-30.534-52.888c-2.071-3.588-6.661-4.817-10.246-2.745-3.587 2.071-4.817 6.658-2.745 10.246l30.534 52.888c3.116 5.397 8.923 8.751 15.156 8.751h37.487c6.233 0 12.04-3.353 15.156-8.751l86.378-149.612c4.914-8.512-.372-19.087-9.782-20.554l124.524-215.689c11.633-20.163 4.608-46.109-15.956-57.397zm-312.328 272.91-113.068-195.831c13.05 5.56 29.178 10.521 47.245 16.074 101.558 31.215 185.365 68.221 202.707 179.757zm186.542 0h-34.476c-6.7-45.799-24.616-80.14-48.379-106.471 42.638-40.677 101.232-58.704 148.679-73.289 18.064-5.553 34.189-10.513 47.237-16.073z"/><path d="m256.001 43.961c-23.023 0-51.403 5.744-62.011 21.867-11.134 16.924 2.342 45.978 8.652 57.684 13.16 24.41 34.763 49.04 53.36 49.04s40.2-24.63 53.36-49.04c6.31-11.706 19.786-40.76 8.652-57.684-10.609-16.123-38.99-21.867-62.013-21.867zm40.155 72.432c-13.705 25.422-31.515 41.158-40.155 41.158s-26.45-15.736-40.155-41.158c-11.563-21.449-13.015-36.711-9.325-42.32 5.854-8.897 26.201-15.111 49.479-15.111s43.626 6.214 49.479 15.111c3.692 5.61 2.24 20.871-9.323 42.32z"/><path d="m232.611 77.809c-4.143 0-7.5 3.358-7.5 7.5v2.444c0 4.142 3.358 7.5 7.5 7.5s7.5-3.358 7.5-7.5v-2.444c0-4.142-3.357-7.5-7.5-7.5z"/><path d="m276.602 86.231c-4.143 0-7.5 3.358-7.5 7.5v2.444c0 4.142 3.358 7.5 7.5 7.5s7.5-3.358 7.5-7.5v-2.444c0-4.142-3.357-7.5-7.5-7.5z"/><path d="m256.001 113.276c-4.143 0-7.5 3.358-7.5 7.5v2.444c0 4.142 3.358 7.5 7.5 7.5s7.5-3.358 7.5-7.5v-2.444c.001-4.142-3.357-7.5-7.5-7.5z"/><path d="m390.232 101.232c13.028 0 23.626-10.599 23.626-23.626s-10.598-23.626-23.626-23.626-23.626 10.599-23.626 23.626c-.001 13.027 10.598 23.626 23.626 23.626zm0-32.251c4.756 0 8.626 3.869 8.626 8.625s-3.869 8.626-8.626 8.626-8.626-3.869-8.626-8.626c0-4.756 3.87-8.625 8.626-8.625z"/><path d="m132.343 87.794c-13.028 0-23.626 10.599-23.626 23.626s10.598 23.626 23.626 23.626 23.626-10.599 23.626-23.626c.001-13.027-10.597-23.626-23.626-23.626zm0 32.251c-4.756 0-8.626-3.869-8.626-8.625s3.869-8.626 8.626-8.626c4.756 0 8.626 3.869 8.626 8.626 0 4.756-3.869 8.625-8.626 8.625z"/><path d="m356.279 119.002v8.438c0 4.142 3.358 7.5 7.5 7.5s7.5-3.358 7.5-7.5v-8.438c0-4.142-3.358-7.5-7.5-7.5s-7.5 3.357-7.5 7.5z"/><path d="m155.97 58.962c0-4.142-3.358-7.5-7.5-7.5s-7.5 3.358-7.5 7.5v8.438c0 4.142 3.358 7.5 7.5 7.5s7.5-3.358 7.5-7.5z"/><path d="m327.166 50.524v8.438c0 4.142 3.358 7.5 7.5 7.5s7.5-3.358 7.5-7.5v-8.438c0-4.142-3.358-7.5-7.5-7.5s-7.5 3.357-7.5 7.5z"/><path d="m174.355 141.406v8.438c0 4.142 3.358 7.5 7.5 7.5s7.5-3.358 7.5-7.5v-8.438c0-4.142-3.358-7.5-7.5-7.5s-7.5 3.358-7.5 7.5z"/></g></svg>