<svg id="icons" xmlns="http://www.w3.org/2000/svg" viewBox="0 0 64 64"><defs><style>.cls-1{fill:none;stroke:#000;stroke-linecap:round;stroke-linejoin:round;stroke-width:2px;}</style></defs><title>24</title><g id="bagels"><path class="cls-1" d="M33.30178,57.99981l-20.89084,0a6.52565,6.52565,0,0,1-3.3282-.85249,10.34329,10.34329,0,0,1-4.9151-7.775c-.05812-.541-.09685-1.09194-.12595-1.62314v-.02954C3.48954,37.69531,8.4206,29.42205,18.88342,26.4118a15.77242,15.77242,0,0,1,1.73416-.40337,18.97112,18.97112,0,0,1,11.53815,1.42644,19.54913,19.54913,0,0,1,10.10438,10.8999c.20347.52135.37784,1.0624.53282,1.61329a15.812,15.812,0,0,1-5.12866,16.51338A6.87409,6.87409,0,0,1,33.30178,57.99981Z"/><path class="cls-1" d="M49.90664,38.33477H42.26011a19.54913,19.54913,0,0,0-10.10438-10.8999,18.97112,18.97112,0,0,0-11.53815-1.42644c.18407-9.08978,5.12483-16.458,14.87076-19.26171A19.36291,19.36291,0,0,1,59.39785,20.283a15.81205,15.81205,0,0,1-5.12859,16.51329A6.87421,6.87421,0,0,1,49.90664,38.33477Z"/><path class="cls-1" d="M16.33929,58A13.30179,13.30179,0,0,1,17.642,39.4359a10.25873,10.25873,0,0,1,14.6254,1.05825,8.51316,8.51316,0,0,1-.83373,11.881,6.56558,6.56558,0,0,1-9.36025-.67729A5.44841,5.44841,0,0,1,22.607,44.094a4.202,4.202,0,0,1,5.99056.43346"/><path class="cls-1" d="M31.83,27.28823a11.51,11.51,0,0,1,3.89-9.10854,8.9568,8.9568,0,0,1,12.76.92406,7.428,7.428,0,0,1-.73,10.36769,5.73314,5.73314,0,0,1-8.17-.589,4.77058,4.77058,0,0,1,.47-6.641,3.66751,3.66751,0,0,1,5.23.38587"/></g></svg>