<svg id="Capa_1" enable-background="new 0 0 512 512" height="512" viewBox="0 0 512 512" width="512" xmlns="http://www.w3.org/2000/svg"><g><path d="m512 273.299c0-9.536-3.713-18.502-10.452-25.24l-5.493-5.498c3.655-3.554 5.937-8.513 5.937-14.001v-10.522c0-59.082-48.066-107.148-107.148-107.148h-277.687c-24.212 0-47.944 8.306-66.824 23.387-3.236 2.586-3.764 7.305-1.179 10.541 2.584 3.236 7.304 3.763 10.541 1.18 16.467-13.154 36.336-20.107 57.461-20.107h9.417l29.854 51.71c6.411 11.104 20.593 14.885 31.667 8.49 7.161-4.12 11.609-11.826 11.609-20.11 0-4.066-1.075-8.074-3.105-11.581l-16.463-28.509h45.879l29.855 51.71c4.289 7.429 12.101 11.587 20.125 11.586 3.931 0 7.914-.998 11.558-3.099 7.156-4.127 11.603-11.832 11.603-20.107 0-4.057-1.078-8.063-3.114-11.579l-16.457-28.511h45.873l29.858 51.717c4.296 7.423 12.111 11.577 20.132 11.577 3.928 0 7.904-.996 11.541-3.094 11.035-6.349 14.933-20.588 8.504-31.691l-16.462-28.509h15.814c50.811 0 92.148 41.338 92.148 92.148v10.522c0 2.507-2.04 4.547-4.548 4.547-17.28 0-424.728 0-452.887 0-2.507 0-4.546-2.04-4.546-4.547v-10.523c0-16.719 4.521-33.09 13.074-47.342 2.132-3.552.98-8.159-2.571-10.29-3.553-2.134-8.159-.98-10.29 2.571-9.952 16.583-15.212 35.623-15.212 55.061v10.523c0 5.488 2.281 10.447 5.936 14.001l-5.491 5.495c-6.744 6.74-10.457 15.706-10.457 25.242 0 9.365 3.588 18.174 10.1 24.872 1.043 27.198 12.191 52.613 31.609 71.871 20.202 20.035 46.997 31.069 75.449 31.069h204.102c4.143 0 7.5-3.357 7.5-7.5s-3.357-7.5-7.5-7.5h-204.101c-24.469 0-47.513-9.489-64.887-26.72-14.285-14.167-23.355-32.21-26.245-51.77 8.048 2.262 16.825 1.727 24.705-1.936.84-.389 1.861-.246 2.545.361 10.582 9.365 24.188 14.523 38.311 14.523.042 0 .084-.003.127-.003l67.088 40.549c3.501 2.121 7.426 3.181 11.348 3.181 3.921 0 7.838-1.06 11.328-3.177l67.762-40.959c3.964.465 7.851.554 12.082.165l67.483 40.791c3.502 2.121 7.426 3.181 11.348 3.181 3.921 0 7.838-1.06 11.327-3.177l67.159-40.591c15.162.464 29.335-4.97 40.088-14.486.68-.604 1.7-.747 2.532-.361 7.886 3.667 16.665 4.203 24.712 1.941-2.89 19.556-11.959 37.598-26.244 51.766-17.375 17.232-40.419 26.723-64.887 26.723h-38.581c-4.143 0-7.5 3.357-7.5 7.5s3.357 7.5 7.5 7.5h38.581c28.451 0 55.246-11.035 75.449-31.073 19.419-19.259 30.566-44.673 31.609-71.867 6.514-6.699 10.101-15.508 10.101-24.873zm-328.386-111.392c.724 1.25 1.091 2.62 1.091 4.072 0 2.934-1.567 5.658-4.1 7.115-3.915 2.261-8.925.921-11.185-2.995l-25.525-44.21h18.92zm99.441 0c2.31 3.99.828 8.981-2.995 11.186-3.918 2.258-8.942.916-11.199-2.993l-25.525-44.21h18.93zm99.451.002c2.273 3.924.868 8.954-3.006 11.184-3.913 2.257-8.939.911-11.199-2.993l-25.524-44.21h18.93zm72.618 86.198c-9.985 12.183-25.124 19.599-41.22 19.599s-31.235-7.416-41.22-19.599zm-157.904 0c-9.985 12.183-25.124 19.599-41.22 19.599s-31.234-7.416-41.22-19.599zm-157.904 0c-9.986 12.183-25.124 19.599-41.22 19.599s-31.234-7.416-41.22-19.599zm34.392 100.183c-2.195 1.333-4.928 1.333-7.139-.008l-53.026-32.05c6.094-2.502 11.768-6.038 16.753-10.535 1.367-1.236 3.428-1.237 4.802.005 10.638 9.588 24.382 14.868 38.702 14.868 14.325 0 28.067-5.281 38.697-14.873 1.368-1.235 3.43-1.235 4.802.005 3.831 3.453 8.071 6.338 12.59 8.628zm170.001 0c-2.196 1.333-4.931 1.331-7.139-.008l-55.396-33.485c4.874-2.36 9.435-5.407 13.533-9.101 1.365-1.234 3.427-1.235 4.798.003 10.628 9.59 24.37 14.871 38.695 14.871 14.319 0 28.063-5.28 38.706-14.873 1.367-1.236 3.43-1.237 4.803.005 4.708 4.244 10.027 7.639 15.733 10.111zm123.866-56.214c-6.263-2.903-13.644-1.827-18.794 2.738-16.301 14.426-40.84 14.337-57.023-.25-7.099-6.412-17.806-6.41-24.898-.005-16.319 14.71-41.074 14.65-57.302.006-7.101-6.413-17.806-6.412-24.898-.006-16.323 14.712-41.07 14.646-57.312.005-7.099-6.411-17.805-6.41-24.901-.002-16.255 14.668-41.01 14.685-57.3.002-7.099-6.411-17.805-6.41-24.901-.002-16.115 14.541-40.682 14.717-57.021.256-5.154-4.57-12.534-5.646-18.808-2.738-13.663 6.353-29.417-3.624-29.417-18.781 0-5.529 2.152-10.728 6.063-14.639l10.545-10.554h7.14c12.023 21.165 34.816 34.599 59.347 34.599s47.324-13.434 59.347-34.599h39.21c12.023 21.165 34.816 34.599 59.347 34.599s47.324-13.434 59.347-34.599h39.211c12.022 21.165 34.815 34.599 59.347 34.599s47.324-13.434 59.347-34.599h7.141l10.548 10.557c3.908 3.908 6.061 9.106 6.061 14.636-.001 15.045-15.637 25.184-29.426 18.777z"/></g></svg>