<svg id="Capa_1" enable-background="new 0 0 512 512" height="512" viewBox="0 0 512 512" width="512" xmlns="http://www.w3.org/2000/svg"><g><path d="m62.808 437.817-14.554-3.634c-1.255 5.027-2.606 10.029-3.814 15.067l14.586 3.498c1.198-4.992 2.538-9.949 3.782-14.931z"/><path d="m90.354 200.358-14.527-3.735c-1.285 4.999-2.459 10.052-3.403 15.128l14.747 2.742c.881-4.742 1.982-9.464 3.183-14.135z"/><path d="m69.041 242.521 14.979.788c.258-4.907.61-9.772 1.06-14.665l-14.937-1.374c-.468 5.089-.83 10.149-1.102 15.251z"/><path d="m69.238 273.222 14.986-.642c-.212-4.938-.375-9.853-.457-14.793l-14.998.246c.085 5.071.254 10.122.469 15.189z"/><path d="m141.453 62.749c1.209 5.039 2.56 10.041 3.815 15.068l14.553-3.635c-1.244-4.981-2.584-9.937-3.781-14.93z"/><path d="m325.799 437.818-14.553-3.635c-1.256 5.027-2.607 10.029-3.815 15.068l14.586 3.498c1.198-4.993 2.538-9.95 3.782-14.931z"/><path d="m351.162 212.492c.882-4.741 1.983-9.465 3.184-14.135l-14.527-3.735c-1.285 4.999-2.459 10.053-3.403 15.128z"/><path d="m408.258 77.817 14.554-3.634c-1.244-4.981-2.584-9.939-3.782-14.932l-14.586 3.499c1.209 5.038 2.56 10.04 3.814 15.067z"/><path d="m512 210.977c-31.951 0-56.183 4.188-71.876 8.238-7.794 2.011-15.373 3.966-24.817 5.411 2.593-19.984 9.601-39.028 12.231-59.015 3.278-24.913 3.077-51.18-1.349-75.932l-14.766 2.641c4.323 24.171 4.452 50.071.827 74.354-3.006 20.132-9.985 39.349-12.251 59.643-5.863.421-12.442.659-20 .659-30.046 0-60.633-7.894-60.887-7.959 4.111-25.308 12.127-48.714 13.141-74.605 1.019-26.022-1.504-51.118-7.999-76.284-3.645-14.122-7.104-27.529-7.679-52.624h52.015c.392 17.668 2.719 34.901 7.038 52.022 3.509 13.911 6.822 27.635 8.023 41.981 1.631 19.469 1.421 39.544-1.662 58.866-2.413 15.123-6.353 30.131-9.377 45.148l14.705-.04c3.103-15.413 7.777-30.477 9.977-46.069 2.801-19.859 2.977-40.368 1.197-60.326-1.253-14.046-4.32-27.596-7.805-41.223-4.248-16.609-6.701-33.191-7.094-50.358h15.005c.251 11.194 1.067 21.23 2.496 30.458l14.823-2.295c-1.314-8.486-2.072-17.769-2.316-28.164h29.986c.715 32.259 12.283 61.773 15.031 93.575 2.774 32.106-1.127 62.741-9.441 93.641l16.577-2.852c8.665-33.34 11.344-68.258 6.65-102.486-4.513-32.912-13.898-63.098-13.898-96.878h-157.013c0 31.951 4.188 55.678 8.238 71.372 6.167 23.896 8.535 47.685 7.52 72.396-1.013 24.684-8.681 47.096-12.756 71.227-12.029-2.548-26.553-4.522-48.489-4.522-18.045 0-29.305.675-43.41 3.516l-2.595 15.841c13.09-2.637 28.995-4.356 46.005-4.356 30.046 0 44.656 3.771 60.123 7.762 15.693 4.05 31.92 8.238 63.871 8.238s48.179-4.188 63.872-8.238c14.122-3.645 27.53-7.104 52.624-7.679v52.015c-42.33.939-81.363 16.837-124.064 15.822-39.666-.943-76.486-15.905-116.426-15.905-28.662 0-44.67 3.37-58.991 6.987-.93-7.97-1.501-17.308-1.501-28.984 0-30.046 3.771-44.656 7.762-60.124 8.425-32.645 10.782-66.729 5.887-100.196-4.726-32.308-13.649-61.978-13.649-95.171h-157.013c0 32.891 8.102 62.376 13.356 94.336 5.319 32.356 3.043 65.658-5.119 97.282-1.678 6.502-3.379 13.1-4.796 20.866-10.229-1.366-29.166-2.012-41.942-2.012v157.013c20.547 0 41.989 1.723 54.414 4.42.366 15.783-.211 31.703-2.995 47.271l14.766 2.641c2.263-12.651 3.316-26.101 3.316-42.326 0-31.953-4.188-48.181-8.238-63.875-3.992-15.468-7.762-30.078-7.762-60.126 0-30.046 3.771-44.656 7.762-60.124 8.004-31.015 10.381-63.014 6.592-94.907-3.447-29.017-13.594-55.902-14.271-85.46h52.015c.65 29.293 10.143 55.721 14.014 84.364 4.176 30.903 1.907 62.158-5.86 92.255-8.425 32.646-10.782 66.73-5.887 100.198 4.37 29.874 13.649 56.983 13.649 87.674 0 39.892-15.035 76.762-15.916 116.5h-52.015c.249-10.897 1.063-20.35 2.509-29.299l-14.808-2.393c-2.5 15.47-2.784 31.06-2.784 46.692h157.013c0-47.607 17.036-91.799 15.906-139.477 34.81-7.235 71.799-4.746 106.048 4.079.169 14.569-.489 29.218-3.058 43.583l14.766 2.641c2.515-14.065 3.332-28.378 3.316-42.65 17.092 3.535 34.568 4.511 51.99 4.287-.446 38.462-15.039 74.116-15.891 112.537h-52.015c.249-10.898 1.063-20.352 2.508-29.299l-14.808-2.393c-2.5 15.47-2.783 31.06-2.783 46.692h157.012c0-48.427 17.379-93.361 15.841-141.926 8.114-.977 25.653-1.58 37.655-1.58zm-472.174 16.868c-.824 7.921-1.326 17.093-1.326 28.15 0 9.04.336 16.819.908 23.686-7.419-.893-15.267-1.419-23.904-1.607v-52.014c8.904.203 16.834.791 24.322 1.785zm13.771 129.079c-9.864-1.937-21.76-3.487-38.092-3.852v-29.987c6.455.151 13.238.471 18.138.878l-3.636-15.134c-4.995-.415-9.436-.655-14.502-.765v-14.987c9.451.217 17.856.862 25.76 1.975 1.533 9.534 3.519 17.241 5.474 24.817 2.808 10.882 5.504 21.347 6.858 37.055zm135.154 83.197c-3.72 14.416-7.557 29.283-8.157 56.374h-29.996c.909-39.694 15.915-76.535 15.915-116.5 0-30.46-8.497-57.277-13.356-86.84-5.319-32.357-3.043-65.659 5.118-97.284 8.901-34.492 11.217-70.983 4.922-106.191l-14.766 2.641c5.918 33.092 3.684 67.392-4.681 99.803-8.425 32.646-10.782 66.73-5.887 100.198 4.37 29.874 13.649 56.983 13.649 87.674 0 39.892-15.035 76.762-15.916 116.5h-14.996c.909-39.694 15.915-76.535 15.915-116.5 0-30.46-8.497-57.277-13.356-86.84-5.319-32.357-3.043-65.659 5.118-97.284 8.004-31.015 10.381-63.014 6.592-94.907-3.447-29.017-13.592-55.902-14.269-85.46h15.005c.251 11.194 1.067 21.23 2.496 30.458l14.823-2.295c-1.314-8.486-2.072-17.769-2.316-28.164h29.986c.649 29.294 10.146 55.721 14.016 84.364 4.176 30.903 1.907 62.158-5.86 92.255-4.05 15.693-8.238 31.92-8.238 63.872s4.188 48.18 8.238 63.874c3.992 15.468 7.762 30.078 7.762 60.126.001 30.048-3.769 44.659-7.761 60.126zm254.834 56.374h-29.996c.796-34.735 12.933-67.425 15.109-102.064l-14.971 1.731c-2.141 34.092-14.379 66.002-15.14 100.333h-14.997c.883-38.546 15.524-74.379 15.897-113.103 20.689-1.356 39.774-7.184 59.911-11.371-1.731 54.979-14.932 84.736-15.813 124.474zm-3.461-135.267c-41.299 10.658-81.404 8.769-122.819.199-35.496-7.345-70.71-11.61-106.655-4.559-1.434-17.715-4.44-29.374-7.374-40.747-1.369-5.305-2.712-10.509-3.886-16.27 14.262-3.639 28.846-6.86 56.616-6.86 39.844 0 76.673 14.989 116.359 15.906 21.452.496 42.665-1.095 63.546-6.128 20.218-4.873 39.642-9.214 60.586-9.694v15.005c-11.194.251-21.23 1.067-30.459 2.496l2.295 14.823c8.487-1.314 17.77-2.072 28.164-2.316v29.986c-27.092.602-41.958 4.439-56.373 8.159z"/><path d="m300.25 244.9-2.742 14.747c4.742.883 9.464 1.983 14.134 3.184l3.736-14.527c-5-1.286-10.053-2.461-15.128-3.404z"/><path d="m269.479 241.517-.788 14.979c4.907.258 9.772.61 14.665 1.06l1.374-14.937c-5.088-.467-10.149-.829-15.251-1.102z"/><path d="m253.966 241.247c-5.07.083-10.121.253-15.188.468l.642 14.986c4.938-.212 9.852-.375 14.792-.457z"/><path d="m380 323.99c-25.227 0-47.901-5.265-72.24-10.756-29.022-6.547-60.352-7.202-89.714-2.656l2.295 14.823c33.136-5.13 66.137-2.122 98.411 6.026 33.587 8.48 69.374 10.361 103.568 4.246l-2.641-14.766c-11.757 2.104-24.366 3.083-39.679 3.083z"/><path d="m434.183 317.744 3.635 14.553c4.981-1.244 9.938-2.583 14.931-3.781l-3.499-14.586c-5.038 1.209-10.04 2.559-15.067 3.814z"/></g></svg>