<svg id="icons" xmlns="http://www.w3.org/2000/svg" viewBox="0 0 64 64"><defs><style>.cls-1{fill:none;stroke:#000;stroke-linecap:round;stroke-linejoin:round;stroke-width:2px;}</style></defs><title>57</title><g id="cream"><path class="cls-1" d="M16.14544,23.0806s.44287-6.96827,6.73155-6.96827h6.28868"/><path class="cls-1" d="M24.737,16.11233s-.04075-.038-.11-.11A4.39465,4.39465,0,0,1,27.8667,8.60757h6.51369A2.4073,2.4073,0,0,0,36.695,5.3734q-.01317-.03074-.02729-.061a.899.899,0,0,1,.83636-1.31093c3.30208.17964,7.79521,1.38743,6.45275,6.83126a6.05348,6.05348,0,0,1-5.9271,4.485H38.023s9.8316-1.24956,9.8316,7.76289"/><path class="cls-1" d="M13.10747,23.0806,25.50655,35.47967a15.1695,15.1695,0,0,1,4.443,10.72643h0a15.16945,15.16945,0,0,1-6.46564,12.424L21.52853,60H42.47147l-1.95541-1.3699a15.16945,15.16945,0,0,1-6.46564-12.424h0a15.1695,15.1695,0,0,1,4.443-10.72643L50.89253,23.0806Z"/><line class="cls-1" x1="19.12905" y1="29.10218" x2="44.87095" y2="29.10218"/></g></svg>