<svg id="Capa_1" enable-background="new 0 0 510.584 510.584" height="512" viewBox="0 0 510.584 510.584" width="512" xmlns="http://www.w3.org/2000/svg"><g><path d="m120.315 194.337h15v15h-15z"/><path d="m120.315 224.337h15v15h-15z"/><path d="m330.5 404.837h15v15h-15z"/><path d="m438.003 302.493 56.595-62.223c36.149-39.738 6.87-105.434-46.624-105.434h-57.325v-15.6h-75.166v15h60.166v99.488c0 24.319-7.935 46.886-21.389 66.933-12.262 18.27-21.664 36.559-23.263 58.989h-210.925c-2.229-31.122-21.049-50.149-33.669-76.618-8.993-18.863-11.087-38.675-11.087-59.207 0-29.861 0-59.723 0-89.584h127.889c-.142 1.516-.223 3.049-.223 4.601v25.666h-112.667c0 45.733-4.609 92.37 22.534 132.315 20.277 29.842 53.924 47.658 90.003 47.658h44.978c35.815 0 69.322-17.612 89.631-47.113 0 0 23.187-30.527 23.187-74.208v-58.652h-45.14v15h30.14v43.652c0 23.462-7.031 46.078-20.335 65.402 0 0-29.313 40.279-77.483 40.919h-44.978c-31.106 0-60.114-15.36-77.597-41.089-22.599-33.257-19.94-70.799-19.94-108.885h97.667v18.903l-37 22.013v79.751h90v-79.809l-38-22.013v-18.845h52.527v-15h-52.527v-25.666c0-1.561.115-3.095.32-4.601h67.361c.205 1.506.32 3.04.32 4.601v55.833h-15.666v59.333h45.332v-59.333h-14.666v-55.833c0-51.699-73.13-66.984-93.897-19.601h-146.771v98.556c0 19.333.398 38.172 6.579 56.832 10.059 30.369 35.342 51.901 38.12 85.022l-105.014.001v20.495l50.078 39.695h265.422v-15h-260.198l-38.087-30.19h419.363v.249l-40.178 29.941h-35.9v15h40.875l50.203-37.413v-22.777h-105.53c.432-5.194 1.313-10.31 2.635-15.303 34.023-1.501 66.316-16.559 89.32-41.851zm-197.021-17.322h-60v-30.729h44.5v-15h-44.5v-10.493l29.55-17.581 30.449 17.639v56.164zm59.666-46.168h-15.332v-29.333h15.332zm-48.666-134.166c11.452 0 21.592 5.697 27.756 14.4h-55.512c6.164-8.703 16.304-14.4 27.756-14.4zm138.666 74.666h58.146c14.106 0 22.078 17.217 12.72 27.956l-55.564 63.765c-8.13 9.331-18.251 16.683-29.483 21.601 9.303-18.239 14.181-38.372 14.181-59.1zm-26.336 133.005c20.471-4.537 39.136-15.579 52.947-31.43l55.564-63.765c17.66-20.265 2.668-52.81-24.028-52.81h-58.146v-14.667h57.325c40.732 0 63.133 49.991 35.528 80.34l-56.595 62.224c-18.882 20.759-44.849 33.712-72.542 36.503 3.135-8.066 9.947-16.395 9.947-16.395z"/></g></svg>