<svg id="Capa_1" enable-background="new 0 0 512 512" height="512" viewBox="0 0 512 512" width="512" xmlns="http://www.w3.org/2000/svg"><g><path d="m458.64 247.851c-3.603 0-7.147.366-10.618 1.067.31-4.347.598-8.798.862-13.366.559-9.684-7.16-17.862-16.861-17.862h-117.576l12.321-84.078h6.462c5.146 0 9.932-2.549 12.804-6.818 2.872-4.27 3.428-9.664 1.488-14.431l-10.22-25.102c-4.426-10.87-14.869-17.894-26.605-17.894h-12.206v-24.817c0-11.89-9.673-21.563-21.564-21.563h-152.923c-4.142 0-7.5 3.358-7.5 7.5s3.358 7.5 7.5 7.5h152.923c3.619 0 6.564 2.944 6.564 6.563v24.817h-218.318v-24.817c0-3.619 2.944-6.563 6.564-6.563h17.267c4.142 0 7.5-3.358 7.5-7.5s-3.358-7.5-7.5-7.5h-17.267c-11.89 0-21.564 9.673-21.564 21.563v24.817h-12.206c-11.736 0-22.179 7.024-26.605 17.894l-10.22 25.103c-1.94 4.766-1.384 10.161 1.488 14.431s7.658 6.818 12.804 6.818h6.471l49.151 335.361c1.678 11.425 11.652 20.04 23.2 20.04h250.433c3.775 0 7.427-1.536 9.999-4.193 8.157-8.364 15.62-17.93 22.239-28.464h3.147c5.463 0 10.509-2.739 13.497-7.327 3.26-5.004 6.417-10.284 9.384-15.695 1.992-3.632.662-8.191-2.97-10.182-3.632-1.992-8.191-.661-10.182 2.97-2.786 5.079-5.746 10.032-8.8 14.72-.209.322-.556.514-.928.514h-165.55c-.372 0-.718-.192-.928-.514-19.317-29.657-45.819-83.293-52.907-206.153-.062-1.088.794-1.998 1.886-1.998h269.447c1.09 0 1.948.908 1.886 1.998-2.448 42.422-8.163 105.142-29.447 159.796-1.503 3.86.407 8.208 4.267 9.711 3.861 1.502 8.207-.408 9.711-4.267 2.254-5.787 4.693-12.462 7.188-20.258 3.827-1.165 7.757-2.276 11.858-3.435 37.402-10.573 74.514-22.774 74.514-75.035 0-29.418-23.937-53.351-53.36-53.351zm-443.564-129.429c-.128-.191-.074-.324-.042-.403l10.219-25.102c2.115-5.194 7.105-8.55 12.713-8.55h272.73c5.608 0 10.598 3.356 12.713 8.55l10.219 25.102c.033.08.087.212-.042.403-.128.19-.271.19-.357.19h-317.796c-.086 0-.229 0-.357-.19zm296.532 15.191-7.037 48.016h-260.469l-7.037-48.016zm32.665 340.4h-93.951c-5.192-5.36-10.081-11.271-14.622-17.657h123.195c-4.537 6.38-9.424 12.291-14.622 17.657zm-129.748-17.657h3.145c3.923 6.245 8.141 12.149 12.624 17.657h-136.038c-4.23 0-7.745-3.036-8.359-7.217l-14.692-100.244h93.887c8.911 32.019 20.75 59.162 35.936 82.475 2.988 4.59 8.034 7.329 13.497 7.329zm-68.81-220.803c2.25 38.995 6.413 78.024 15.503 115.999h-92.212l-22.705-154.923h256.073l-3.087 21.062h-136.711c-9.699 0-17.42 8.176-16.861 17.862zm284.914 127.035c6.253-23.41 12.306-54.793 16.131-97.861 24.717-8.049 50.24 10.441 50.24 36.475 0 41.55-27.322 50.305-66.371 61.386z"/></g></svg>