<svg id="Capa_1" enable-background="new 0 0 511 511" height="512" viewBox="0 0 511 511" width="512" xmlns="http://www.w3.org/2000/svg"><g><path d="m142.987 203.438h15v15h-15z"/><path d="m142.987 382.77h15v15h-15z"/><path d="m353.013 293.104h15.001v15h-15.001z"/><path d="m397.513 428.604v-75.667h30v-104.666h-30v-89.666h-25.957c7.371-12.807 1.234-24.799-3.952-36.715-5.845-13.433-11.691-26.865-17.536-40.298-3.754-8.626-6.919-20.928-15.756-25.631-18.691-9.947-26.754 10.182-32.392 23.404-24.443-8.279-44.507 24.105-58.676 39.294-4.233-3-9.189-4.884-14.38-5.426 13.271-14.664 11.638-33.042 11.638-51.272 0-5.881 1.491-14.81-2.234-19.904-6.148-8.406-14.623-3.883-20.395 1.533-5.177 4.858-22.038 21.455-46.485 25.948-20.435 6.446-20.9 25.807-20.9 43.538-22.742.199-37.394 25.859-25.851 45.529h-41.149v104.666h30v74.666h-30v90.667h-83.488v44.991h390.5v-15h-375.5v-14.991h481v14.991h-60.5v15h75.5v-44.991zm-45.803-180.333c3.709-10.457-.943-21.818 4.897-31.851 5.526-9.494 15.278-13.352 25.905-13.352v45.204h-30.802zm30.803-60.204c-22.124 0-41.958 14.549-44.252 37.478-.61 6.099 2.612 21.947-7.167 22.694-11.274.861-7.793-17.206-8.128-23.482-.382-7.162-4.256-13.832-10.28-17.727-14.682-9.494-34.686 1.454-34.686 18.908v59.666c0 9.651-15 9.717-15 0v-74.037c0-14.842-14.862-25.887-29.064-21.503-13.177 4.068-15.936 15.862-15.936 28.003 0 9.651-15 9.717-15 0v-44.462h179.513zm-73.222 60.204h-16.291c0-7.26-.188-14.544 0-21.801.153-5.903 6.256-10.422 11.691-6.75 4.061 2.744 3.309 7.743 3.309 11.978 0 5.463-.564 11.344 1.291 16.573zm16.142-179.53c5.094-.16 31.81 64.169 33.682 71.231 4.568 17.234-23.506 17.36-23.506 17.36 8.892-23.128-19.67-67.314-21.138-69.158 1.701-3.988 5.449-19.413 10.962-19.433zm-41.299 28.074c17.223-18.464 35.161 33.077 37.913 43.871 4.052 15.889-9.093 17.419-20.615 17.496-13.178.087-57.356 2.496-64.149.424-10.264-3.131-2.054-9.363 2.586-14.337 14.755-15.819 29.51-31.637 44.265-47.454zm-148.647 46.522c0-17.061 18.393-15.268 30.014-15.268v-15h-.013c0-4.811-.53-9.954 0-14.738 1.464-13.207 9.951-14.037 21.088-15.703 17.052-2.551 27.402-13.931 38.926-25.455 0 12.491 2.575 28.565-3.52 39.986-8.752 16.401-25.478 15.909-41.48 15.909v15h25.32c7.815 0 19.727-2.045 26.997 1.768-7.465 8.002-18.387 16.403-15.604 28.768-14.264 0-28.528 0-42.792 0-12.619.001-38.936 4.415-38.936-15.267zm-36.999 104.934v-29.833h29.499v-15h-29.499v-29.833h89.512v29.833h-15.014v15h15.024c.239 14.689 14.997 25.472 29.055 21.133 6.488-2.003 11.803-6.874 14.323-13.189 2.37-5.938-.817-15.423 3.843-20.083 4.591-4.591 12.769-1.299 12.769 5.268v74.037c0 2.629.458 5.153 1.29 7.5h-120.802v-29.833h104.512v-15zm187.012 104.666v-15h-157.012v-29.833h209.526v-15h-46.304c.833-2.347 1.29-4.871 1.29-7.5v-22.333h119.513v29.833h-29.499v15h29.499v29.833c-37.338 0-74.675 0-112.013 0v15h82.013v29.833h-209.527v15h209.527v29.833h-284.025v-29.833h29.499v-15h-29.499v-29.833z"/><path d="m405.5 458.595h15v15h-15z"/><path d="m281.921 116.207h14.719v15h-14.719z" transform="matrix(.682 -.731 .731 .682 1.5 250.864)"/></g></svg>