<svg id="Capa_1" enable-background="new 0 0 512 512" height="512" viewBox="0 0 512 512" width="512" xmlns="http://www.w3.org/2000/svg"><g><path d="m79.139 243.224c0 5.224.942 10.33 2.81 15.201.049.126-.012.316-.096.378-10.804 8.096-17 20.465-17 33.936 0 20.88 14.906 38.443 35.452 41.818 3.381 20.553 20.941 35.452 41.818 35.452 11.967 0 23.426-5.09 31.433-13.96 3.203-3.542 8.52-4.635 13.225-2.723 17.471 7.108 37.924 10.865 59.148 10.865 10.668 0 21.219-.958 31.343-2.846.072-.015.281.02.527.177 1.1.696 2.252 1.337 3.427 1.954-2.152 7.197-2.178 14.867.018 22.234 1.535 5.149 4.052 9.831 7.48 13.915 9.965 11.878 26.051 16.77 41.017 12.308 10.01-2.984 19.897-6.749 29.388-11.189 3.752-1.755 5.37-6.22 3.614-9.972-1.755-3.752-6.218-5.37-9.972-3.614-8.822 4.128-18.013 7.627-27.315 10.4-9.178 2.737-19.084-.237-25.242-7.576-2.104-2.505-3.649-5.384-4.595-8.557-3.797-12.739 3.497-26.07 16.133-29.836 39.932-11.905 73.535-40.101 92.192-77.359 2.868-5.729 7.796-9.997 13.875-12.019 20.093-6.683 38.612 14.335 29.016 33.499-14.797 29.548-37.052 55.24-64.36 74.299-3.397 2.371-4.229 7.046-1.858 10.443 2.37 3.396 7.046 4.229 10.442 1.858 29.352-20.484 53.276-48.108 69.188-79.883 9.624-19.219 1.818-42.687-17.401-52.314-3.412-1.709-6.995-2.888-10.65-3.541.629-11.107.404-22.28-.707-33.315-2.15-21.388-21.295-37.037-42.688-34.889-17.02 1.712-30.396 14.193-34.069 29.995-6.177-1.001-12.276-1.087-18.114-.405-2.762-21.757-21.388-38.635-43.88-38.635-2.384 0-4.768.192-7.111.573-4.643-18.766-21.572-32.149-41.129-32.149-3.788 0-7.481.503-11.054 1.469-7.295-15.2-22.838-25.721-40.794-25.721-19.423 0-36.588 12.681-42.771 30.55-2.091-.297-4.224-.46-6.395-.46-24.934 0-45.22 20.286-45.22 45.22 0 6.021 1.193 11.766 3.338 17.025-13.563 7.236-22.463 21.561-22.463 37.394zm311.165-49.934c6.378-.642 12.622 1.237 17.58 5.289 4.957 4.052 8.041 9.796 8.683 16.176 1.069 10.635 1.26 21.409.592 32.109-11.605 2.533-21.285 9.983-26.625 20.648-10.958 21.882-27.641 40.291-47.892 53.43 20.328-29.435 29.803-65.539 26.199-101.391-1.318-13.092 8.255-24.933 21.463-26.261zm-197.654-64.8c16.664 0 30.22 13.557 30.22 30.22 0 17.906-15.716 32.352-34.17 29.942-.056-17.42-10.016-32.542-24.53-40.042 4.215-11.784 15.603-20.12 28.48-20.12zm-49.166 30.09c16.663 0 30.22 13.557 30.22 30.22s-13.557 30.22-30.22 30.22-30.22-13.557-30.22-30.22 13.557-30.22 30.22-30.22zm-47.538 94.45c-1.199-3.126-1.807-6.426-1.807-9.806 0-10.571 6.14-20.093 15.393-24.604 8.294 9.431 20.435 15.4 33.952 15.4 19.799 0 36.656-12.796 42.763-30.549 27.459 3.902 51.623-17.502 51.623-44.76 0-1.718-.105-3.41-.293-5.079 2.238-.583 4.549-.888 6.921-.888 13.153 0 24.464 9.362 26.899 22.274.638 3.351 2.627 6.343 5.458 8.211 5.817 3.84 9.689 1.091 15.884 1.091 16.119 0 29.233 13.116 29.233 29.273 0 3.052 1.354 5.911 3.714 7.842 2.368 1.939 5.449 2.702 8.492 2.092 6.41-1.322 13.315-1.368 19.95-.037 3.004 36.547-8.985 73.19-33.109 100.893-2.771 3.185-4.966 6.716-6.559 10.531-2.306.827-4.636 1.596-6.993 2.299-7.712 2.299-14.368 6.82-19.284 12.981-.811-.426-1.605-.868-2.357-1.344-3.413-2.164-7.414-2.965-11.287-2.253-9.235 1.722-18.862 2.595-28.61 2.595-19.304 0-37.802-3.375-53.5-9.761-10.529-4.275-22.583-1.641-30.002 6.562-5.173 5.731-12.574 9.018-20.304 9.018-13.525 0-24.895-9.672-27.033-22.983-1-6.301-5.913-11.224-12.24-12.252-13.325-2.14-22.997-13.509-22.997-27.035 0-8.702 4.008-16.695 10.994-21.93 5.47-4.1 7.563-11.42 5.099-17.781z"/><path d="m169.275 279.734c3.474 2.256 8.12 1.267 10.375-2.208 1.012-1.56 2.724-2.491 4.579-2.491 2.038 0 3.892 1.124 4.838 2.934 1.922 3.677 6.457 5.088 10.121 3.172 3.67-1.918 5.091-6.45 3.172-10.121-3.542-6.775-10.489-10.985-18.131-10.985-6.956 0-13.371 3.485-17.161 9.324-2.255 3.474-1.267 8.12 2.207 10.375z"/><path d="m252.846 303.659c-1.405 3.897.616 8.194 4.513 9.599 3.896 1.404 8.194-.616 9.599-4.512.631-1.75 2.086-3.046 3.891-3.469 1.99-.465 4.047.209 5.379 1.755 2.705 3.138 7.44 3.488 10.578.783 3.137-2.705 3.487-7.44.783-10.578-4.993-5.79-12.715-8.308-20.157-6.566-6.774 1.585-12.226 6.441-14.586 12.988z"/><path d="m245.337 235.615c1.319-1.312 3.187-1.862 5-1.471 1.993.43 3.568 1.919 4.111 3.888.918 3.325 3.936 5.506 7.226 5.506.66 0 1.332-.088 2-.272 3.992-1.102 6.336-5.232 5.233-9.226-2.034-7.37-7.939-12.949-15.409-14.559-6.796-1.465-13.804.59-18.74 5.499-2.937 2.921-2.95 7.669-.028 10.606 2.922 2.938 7.671 2.951 10.607.029z"/><path d="m437.02 74.981c-48.352-48.352-112.639-74.98-181.019-74.98-54.676 0-106.842 16.996-150.857 49.149-3.345 2.443-4.075 7.136-1.632 10.48 2.444 3.345 7.136 4.074 10.48 1.632 41.429-30.264 90.535-46.261 142.009-46.261 64.373 0 124.894 25.068 170.412 70.587s70.587 106.038 70.587 170.412-25.068 124.894-70.587 170.412-106.039 70.587-170.412 70.587c-64.374 0-124.895-25.068-170.414-70.587s-70.587-106.038-70.587-170.412c0-65.411 25.765-126.62 72.548-172.351 2.962-2.896 3.016-7.644.121-10.606s-7.644-3.016-10.606-.121c-24.129 23.586-43.091 51.196-56.359 82.062-13.738 31.958-20.704 65.945-20.704 101.016 0 68.38 26.629 132.667 74.981 181.019s112.64 74.98 181.02 74.98 132.667-26.628 181.019-74.98c48.351-48.352 74.98-112.639 74.98-181.019s-26.629-132.667-74.98-181.019z"/></g></svg>