<svg id="Capa_1" enable-background="new 0 0 512 512" height="512" viewBox="0 0 512 512" width="512" xmlns="http://www.w3.org/2000/svg"><g><path d="m442.132 109.263c-13.612 0-24.687 11.074-24.687 24.687s11.075 24.687 24.687 24.687 24.687-11.074 24.687-24.687-11.075-24.687-24.687-24.687zm0 34.373c-5.341 0-9.687-4.346-9.687-9.687s4.346-9.687 9.687-9.687 9.687 4.346 9.687 9.687-4.346 9.687-9.687 9.687z"/><path d="m485.16 79.906v-59.196c0-11.42-9.29-20.71-20.71-20.71h-304.54c-11.419 0-20.71 9.29-20.71 20.71v372.943h-89.403c-15.493 0-28.098 12.604-28.098 28.098s12.605 28.099 28.098 28.099h89.403v41.44c0 11.42 9.291 20.71 20.71 20.71h304.54c11.419 0 20.71-9.29 20.71-20.71v-56.55c0-4.143-3.358-7.5-7.5-7.5s-7.5 3.357-7.5 7.5v56.55c0 3.148-2.562 5.71-5.71 5.71h-304.54c-3.148 0-5.71-2.562-5.71-5.71v-41.44h47.245c7.675 0 15.167 3.227 20.555 8.852 13.684 14.284 33.977 23.158 52.958 23.158 33.144 0 60.108-26.965 60.108-60.108s-26.964-60.108-60.108-60.108c-18.982 0-39.274 8.874-52.958 23.159-5.389 5.625-12.881 8.852-20.556 8.852h-47.244v-372.945c0-3.148 2.562-5.71 5.71-5.71h304.54c3.148 0 5.71 2.562 5.71 5.71v59.002h-56.58c-5.841 0-11.257 3.159-14.134 8.244l-21.496 37.998c-2.79 4.932-2.79 11.059 0 15.99l21.496 37.999c2.876 5.084 8.292 8.243 14.134 8.243h56.58v211.554c0 4.143 3.358 7.5 7.5 7.5s7.5-3.357 7.5-7.5v-211.748c7.092-1.103 12.543-7.234 12.543-14.63v-78.826c.001-7.396-5.45-13.527-12.543-14.63zm-252.327 315.273c10.786-11.261 27.321-18.536 42.126-18.536 24.873 0 45.108 20.235 45.108 45.108s-20.235 45.108-45.108 45.108c-14.805 0-31.34-7.275-42.126-18.535-8.203-8.563-19.643-13.475-31.387-13.475h-151.649c-7.222 0-13.098-5.876-13.098-13.099 0-7.222 5.876-13.098 13.098-13.098h151.647c11.744.001 23.184-4.91 31.389-13.473zm179.669-222.621-21.496-37.998c-.213-.377-.213-.844 0-1.221l21.496-37.997c.22-.389.633-.63 1.078-.63h69.123v78.475h-69.123c-.445 0-.858-.242-1.078-.629z"/><path d="m312.179 187.245c-4.142 0-7.5 3.357-7.5 7.5v23.241c-40.933 3.797-73.09 38.322-73.09 80.229v11.539h-11.764c-4.142 0-7.5 3.357-7.5 7.5s3.358 7.5 7.5 7.5h184.708c4.142 0 7.5-3.357 7.5-7.5s-3.358-7.5-7.5-7.5h-11.763v-11.539c0-41.907-32.158-76.433-73.09-80.229v-23.241c-.001-4.142-3.359-7.5-7.501-7.5zm65.591 110.971v11.539h-131.181v-11.539c0-36.167 29.424-65.591 65.59-65.591s65.591 29.424 65.591 65.591z"/><path d="m20.396 233.102v111.789c0 11.102 9.032 20.134 20.134 20.134h42.34c11.102 0 20.134-9.032 20.134-20.134v-111.789c0-7.593-6.056-13.782-13.59-14.029v-22.93c7.556-.368 13.59-6.631 13.59-14.277v-167.834c-.001-7.737-6.295-14.032-14.032-14.032h-6.18c-37.769 0-68.496 30.727-68.496 68.495v20.426c0 4.143 3.358 7.5 7.5 7.5s7.5-3.357 7.5-7.5v-20.426c0-29.497 23.998-53.495 53.496-53.495h5.212v166.178c-7.556.368-13.59 6.631-13.59 14.277v23.594h-25.428v-23.594c0-7.882-6.413-14.295-14.295-14.295h-5.395v-57.239c0-4.143-3.358-7.5-7.5-7.5s-7.5 3.357-7.5 7.5v57.944c0 7.882 6.413 14.295 14.295 14.295h5.395v22.912c-7.534.248-13.59 6.437-13.59 14.03zm67.607 111.789c0 2.831-2.303 5.134-5.134 5.134h-42.339c-2.831 0-5.134-2.303-5.134-5.134v-110.842h52.607z"/></g></svg>