<svg id="icons" xmlns="http://www.w3.org/2000/svg" viewBox="0 0 64 64"><defs><style>.cls-1{fill:none;stroke:#000;stroke-linecap:round;stroke-linejoin:round;stroke-width:2px;}</style></defs><title>10</title><g id="kettle"><path class="cls-1" d="M25.658,31.09155a18.0163,18.0163,0,0,1,12.97919-5.276,19.17378,19.17378,0,0,1,13.01661,5.276"/><path class="cls-1" d="M41.13078,25.99856V23.64919a2.4928,2.4928,0,0,0-4.94227,0V25.974"/><path class="cls-1" d="M59.94706,57.77781v-11.948a16.66639,16.66639,0,0,0-5.952-12.766l-2.34986-1.97221H25.63773l-2.34986,1.97221a16.66639,16.66639,0,0,0-5.95205,12.766v11.948A2.22218,2.22218,0,0,0,19.558,60H57.72487A2.22219,2.22219,0,0,0,59.94706,57.77781Z"/><path class="cls-1" d="M17.33582,42.20846h0A6.21949,6.21949,0,0,1,11.45,37.99875l-1.13927-3.33643H4.05294l1.92691,3.158a9.47,9.47,0,0,1,1.386,4.93258h0A9.47,9.47,0,0,0,13.484,51.60984l3.85182,1.45771"/><path class="cls-1" d="M25.63773,31.09155H24.043a3.33328,3.33328,0,0,1-3.33328-3.33328V10.93992A3.33328,3.33328,0,0,1,24.043,7.60664h1.59478"/><path class="cls-1" d="M51.6538,31.09155h1.59478a3.33328,3.33328,0,0,0,3.33328-3.33328V10.93992a3.33328,3.33328,0,0,0-3.33328-3.33328H51.6538"/><rect class="cls-1" x="25.65161" y="4" width="26.01607" height="7.21327" rx="3.24602"/><line class="cls-1" x1="17.33582" y1="54.95748" x2="59.94706" y2="54.95748"/></g></svg>