<svg id="Capa_1" enable-background="new 0 0 512 512" height="512" viewBox="0 0 512 512" width="512" xmlns="http://www.w3.org/2000/svg"><g><path d="m336.273 352.091c.318.041.636.061.949.061 3.723 0 6.952-2.771 7.431-6.562 3.84-30.404 5.787-60.546 5.787-89.59 0-29.067-1.951-59.209-5.801-89.592-.52-4.11-4.28-7.028-8.383-6.498-4.109.521-7.019 4.273-6.498 8.383 3.771 29.76 5.682 59.269 5.682 87.708 0 28.418-1.907 57.928-5.668 87.711-.519 4.109 2.392 7.861 6.501 8.379z"/><path d="m174.699 352.091c.318.041.636.061.949.061 3.723 0 6.952-2.771 7.431-6.562 3.85-30.469 5.801-60.612 5.801-89.59s-1.951-59.121-5.801-89.59c-.519-4.109-4.272-7.028-8.381-6.5-4.109.519-7.02 4.271-6.5 8.381 3.77 29.847 5.682 59.357 5.682 87.709s-1.912 57.863-5.682 87.711c-.519 4.11 2.391 7.862 6.501 8.38z"/><path d="m493.904 377.582c-4.08-.739-7.978 1.968-8.716 6.044-.542 2.99-1.107 6.007-1.696 9.047-1.598 8.246-8.844 14.232-17.231 14.232h-110.603c-5.201 0-10.096-2.288-13.429-6.278-3.36-4.024-4.75-9.301-3.814-14.479l.058-.329c.73-4.075-1.98-7.972-6.055-8.705-4.07-.723-7.973 1.975-8.709 6.049-.567 3.145-1.158 6.314-1.777 9.511-1.598 8.246-8.845 14.232-17.231 14.232h-110.602c-5.202 0-10.097-2.289-13.43-6.279-3.36-4.023-4.751-9.3-3.817-14.453l.067-.392c.705-4.071-2.016-7.946-6.085-8.665-4.066-.718-7.952 1.988-8.686 6.055-.566 3.141-1.156 6.306-1.776 9.503-1.598 8.246-8.844 14.232-17.231 14.232h-110.603c-5.201 0-10.096-2.288-13.429-6.278-3.36-4.024-4.75-9.301-3.813-14.479 7.979-44.08 12.024-87.868 12.024-130.15 0-24.22-1.368-49.364-4.066-74.732-.438-4.118-4.124-7.099-8.251-6.665-4.119.438-7.104 4.133-6.665 8.251 2.643 24.844 3.982 49.453 3.982 73.146 0 41.389-3.965 84.278-11.784 127.475-1.731 9.565.842 19.32 7.061 26.766 6.191 7.412 15.282 11.663 24.942 11.663h18.695c-2.028 9.392-4.19 18.655-6.456 27.634-2.485 9.793 4.93 19.293 15.02 19.293h26.12c7.073 0 13.243-4.783 15.003-11.627 2.975-11.533 5.737-23.384 8.26-35.3h33.961c10.182 0 19.456-4.752 25.48-12.32.176.221.354.439.535.657 6.191 7.412 15.282 11.663 24.943 11.663h18.69c-2.002 9.277-4.167 18.542-6.464 27.648-2.459 9.782 4.931 19.279 15.034 19.279h26.12c7.072 0 13.242-4.783 15.001-11.626 2.972-11.515 5.734-23.367 8.262-35.301h33.96c10.181 0 19.455-4.752 25.48-12.321.176.222.354.44.535.658 6.191 7.412 15.282 11.663 24.942 11.663h18.692c-2.003 9.285-4.168 18.549-6.464 27.647-2.461 9.78 4.928 19.28 15.033 19.28h26.111c7.079 0 13.253-4.783 15.013-11.627 2.975-11.533 5.737-23.384 8.26-35.3h33.959c15.557 0 28.996-11.094 31.957-26.379.601-3.102 1.178-6.177 1.73-9.228.735-4.075-1.971-7.977-6.047-8.715zm-407.51 75.882c-.058.223-.244.367-.477.367h-26.12c-.072 0-.24 0-.392-.193-.146-.188-.107-.341-.086-.422 2.563-10.157 4.985-20.669 7.243-31.312h27.288c-2.298 10.654-4.792 21.234-7.456 31.56zm161.561 0c-.056.216-.251.367-.476.367h-26.12c-.073 0-.245 0-.396-.193s-.109-.357-.093-.422c2.6-10.304 5.022-20.81 7.246-31.312h27.296c-2.302 10.669-4.797 21.249-7.457 31.56zm161.561 0c-.057.22-.252.367-.486.367h-26.111c-.073 0-.245 0-.396-.193-.15-.192-.108-.356-.092-.422 2.597-10.294 5.02-20.8 7.245-31.312h27.296c-2.298 10.654-4.792 21.234-7.456 31.56z"/><path d="m498.208 116.469c-2.964-15.281-16.403-26.373-31.956-26.373h-33.949c-2.523-11.916-5.285-23.766-8.259-35.294-1.761-6.85-7.935-11.633-15.014-11.633h-26.111c-4.812 0-9.268 2.177-12.226 5.971s-3.981 8.646-2.807 13.315c2.295 9.094 4.46 18.357 6.463 27.642h-18.699c-9.66 0-18.752 4.252-24.943 11.665-.182.217-.36.437-.535.657-6.024-7.569-15.3-12.322-25.481-12.322h-33.95c-2.528-11.934-5.29-23.785-8.26-35.294-1.761-6.85-7.931-11.633-15.003-11.633h-26.12c-4.811 0-9.267 2.176-12.226 5.971-2.957 3.793-3.981 8.644-2.808 13.315 2.297 9.102 4.462 18.365 6.463 27.642h-18.697c-9.661 0-18.752 4.252-24.943 11.665-.182.218-.36.437-.535.657-6.024-7.569-15.3-12.322-25.481-12.322h-33.951c-2.523-11.916-5.285-23.766-8.259-35.294-1.761-6.85-7.931-11.633-15.004-11.633h-26.12c-4.814 0-9.272 2.181-12.23 5.982-2.955 3.798-3.973 8.649-2.793 13.303 2.268 8.984 4.431 18.249 6.459 27.642h-18.703c-9.66 0-18.752 4.252-24.943 11.665-6.219 7.446-8.792 17.203-7.06 26.769 1.142 6.3 2.215 12.686 3.19 18.982.633 4.092 4.457 6.898 8.56 6.263 4.094-.634 6.898-4.467 6.263-8.56-.995-6.421-2.089-12.934-3.253-19.359-.938-5.178.452-10.456 3.813-14.481 3.333-3.99 8.228-6.279 13.43-6.279h110.601c8.385 0 15.631 5.984 17.231 14.23.62 3.199 1.782 9.527 1.782 9.527.743 4.072 4.648 6.778 8.719 6.031 4.073-.74 6.776-4.64 6.039-8.713-.006-.037-.013-.073-.02-.11l-.034-.205c-.938-5.178.451-10.456 3.812-14.481 3.333-3.99 8.228-6.279 13.43-6.279h110.602c8.385 0 15.631 5.984 17.231 14.23.62 3.199 1.211 6.368 1.778 9.512.734 4.066 4.608 6.733 8.68 6.014 4.068-.719 6.782-4.633 6.078-8.704l-.051-.291c-.938-5.178.452-10.456 3.813-14.481 3.333-3.99 8.228-6.279 13.43-6.279h110.601c8.385 0 15.631 5.984 17.23 14.229 11.172 57.607 13.518 106.12 13.518 136.672 0 30.172-2.148 61.52-6.385 93.172-.55 4.105 2.333 7.879 6.439 8.429.338.045.673.067 1.005.067 3.699 0 6.92-2.738 7.424-6.506 4.325-32.309 6.517-64.327 6.517-95.162 0-45.395-4.641-92.34-13.792-139.531zm-438.891-57.693c-.019-.073-.057-.226.089-.414.151-.193.319-.193.392-.193h26.12c.232 0 .419.145.478.373 2.663 10.321 5.157 20.901 7.456 31.554h-27.29c-2.257-10.643-4.68-21.156-7.245-31.32zm161.554.015c-.018-.071-.059-.235.092-.429s.322-.193.396-.193h26.12c.225 0 .42.151.478.374 2.659 10.305 5.154 20.884 7.455 31.553h-27.296c-2.224-10.502-4.645-21.007-7.245-31.305zm161.562-.002c-.018-.07-.06-.234.091-.427.15-.193.322-.193.396-.193h26.111c.234 0 .43.147.487.373 2.663 10.321 5.157 20.901 7.456 31.554h-27.296c-2.226-10.512-4.649-21.017-7.245-31.307z"/></g></svg>