<svg id="Capa_1" enable-background="new 0 0 512 512" height="512" viewBox="0 0 512 512" width="512" xmlns="http://www.w3.org/2000/svg"><g><path d="m476.762 281.675c-2.012-20.32-18.888-36.684-39.254-38.063-1.962-.133-3.91-.115-5.838.017-12.356-13.47-26.115-25.358-40.962-35.511 10.156-11.898 17.501-25.21 21.856-39.691 1.193-3.967-1.056-8.149-5.022-9.342-3.965-1.193-8.15 1.056-9.342 5.022-3.942 13.107-10.753 25.144-20.273 35.86-36.374-21.61-78.25-33.39-121.386-33.39-56.598 0-111.024 20.263-153.702 56.435-11.968-15.577-15.447-38.203-8.273-57.419 12.976-34.757 50.631-39.737 86.671-31.401 45.009 10.43 151.357 29.06 185.156-2.408 12.367-11.517 18.969-28.53 17.232-44.4-.141-1.285-.334-2.553-.579-3.805 10.699 12.188 17.68 29.886 18.83 48.734.252 4.135 3.811 7.294 7.943 7.029 4.134-.252 7.281-3.808 7.029-7.943-1.698-27.829-14.533-53.833-33.499-67.866-49.73-36.753-130.659-5.064-189.297 14.278-19.618-19.568-28.833-40.219-27.409-61.525.382-5.814-2.49-11.25-7.494-14.187-4.99-2.929-11.116-2.786-15.99.372-31.979 20.738-53.169 46.742-61.28 75.202-6.531 22.917-4.502 47.179 5.666 68.836-2.812 4.233-5.172 8.854-7.033 13.838-9.077 24.31-4.41 53.099 11.157 72.732-3.549 3.417-6.99 6.966-10.339 10.618-23.748-2.195-43.89 15.744-46.093 37.976-.603 6.079.081 12.081 2.031 17.839l30.427 89.859c1.329 3.923 5.588 6.029 9.509 4.698 3.924-1.328 6.027-5.586 4.698-9.509l-30.427-89.858c-1.261-3.723-1.702-7.609-1.312-11.549 2.41-24.322 33.894-33.804 49.094-13.795 1.894 2.494 4.782 3.926 7.919 3.927 3.102 0 6.076-1.474 7.954-3.941 5.236-6.882 13.19-10.83 21.82-10.83 8.631 0 16.584 3.948 21.821 10.832 1.904 2.501 4.798 3.936 7.94 3.936s6.037-1.435 7.941-3.937c5.236-6.883 13.19-10.831 21.82-10.831 8.631 0 16.585 3.948 21.821 10.832 1.904 2.501 4.798 3.936 7.941 3.936s6.037-1.435 7.941-3.938c5.236-6.883 13.189-10.831 21.82-10.831s16.584 3.948 21.821 10.832c1.904 2.501 4.798 3.936 7.94 3.936 3.143 0 6.037-1.435 7.941-3.937 5.236-6.883 13.19-10.831 21.82-10.831 8.631 0 16.585 3.948 21.821 10.832 1.903 2.501 4.798 3.936 7.941 3.936s6.037-1.435 7.941-3.938c5.236-6.883 13.189-10.831 21.82-10.831 8.63 0 16.584 3.947 21.819 10.828 1.878 2.47 4.852 3.943 7.955 3.943 3.137 0 6.023-1.431 7.918-3.926 15.134-19.923 46.677-10.618 49.095 13.795.39 3.941-.051 7.827-1.311 11.548l-62.203 183.686c-3.761 11.134-14.19 18.614-25.943 18.614h-232.74c-11.753 0-22.183-7.48-25.952-18.611l-20.548-60.68c-1.328-3.922-5.585-6.028-9.509-4.698-3.923 1.328-6.026 5.586-4.698 9.509l20.547 60.678c5.832 17.228 21.972 28.802 40.16 28.802h232.74c18.188 0 34.326-11.574 40.159-28.801l62.203-183.686c1.949-5.757 2.632-11.758 2.03-17.838zm-124.376-216.626c21.986 13.522 20.574 40.121 3.784 55.759-10.278 9.569-33.772 14.041-65.557 13.454-23.946-8.805-57.104-23.548-83.657-44.938 42.491-14.258 103.046-36.259 145.43-24.275zm-201.068-49.99c.11-.072.131-.085.239-.022.125.073.127.125.119.258-3.531 52.829 45.535 91.466 92.619 115.259-18.621-2.457-38.702-6.115-59.675-10.975-30.11-6.966-62.878-6.216-86.118 14.35-13.039-34.503-5.343-81.158 52.816-118.87zm253.497 240.651c-7.888-7.814-18.45-12.197-29.767-12.197-11.316 0-21.876 4.381-29.762 12.192-7.886-7.811-18.447-12.192-29.762-12.192-11.316 0-21.876 4.381-29.762 12.192-7.887-7.811-18.446-12.192-29.762-12.192s-21.876 4.381-29.762 12.192c-7.886-7.81-18.447-12.192-29.762-12.192s-21.876 4.381-29.762 12.192c-7.887-7.811-18.446-12.192-29.762-12.192-11.317 0-21.88 4.382-29.767 12.197-2.92-2.88-6.222-5.282-9.782-7.184 41.785-42.675 99.165-66.949 159.137-66.949 59.796 0 117.024 24.133 158.76 66.575-3.83 1.955-7.373 4.489-10.485 7.558z"/><path d="m369.011 462.373c3.384 0 6.455-2.306 7.284-5.74 10.569-43.739 33.289-137.643 33.289-137.643.974-4.026-1.5-8.079-5.526-9.053-4.026-.977-8.08 1.5-9.053 5.526 0 0-22.721 93.906-33.29 137.647-.973 4.026 1.502 8.079 5.528 9.052.593.142 1.185.211 1.768.211z"/><path d="m323.814 462.372c3.666 0 6.872-2.691 7.413-6.425 4.695-32.403 19.974-137.643 19.974-137.643.595-4.099-2.246-7.904-6.345-8.5-4.099-.595-7.904 2.246-8.5 6.345 0 0-15.278 105.242-19.974 137.646-.594 4.1 2.248 7.904 6.347 8.498.365.053.728.079 1.085.079z"/><path d="m278.611 462.371c3.976 0 7.291-3.124 7.485-7.138 0 0 5.095-105.428 6.658-137.644.201-4.137-2.99-7.654-7.128-7.855-4.134-.201-7.654 2.99-7.855 7.128-1.563 32.216-6.658 137.646-6.658 137.646-.2 4.137 2.992 7.653 7.129 7.854.124.006.247.009.369.009z"/><path d="m233.389 462.371c.122 0 .245-.003.368-.009 4.137-.2 7.329-3.716 7.129-7.854 0 0-5.112-105.783-6.658-137.646-.201-4.138-3.709-7.324-7.855-7.128-4.137.201-7.328 3.717-7.127 7.855 1.546 31.862 6.658 137.644 6.658 137.644.194 4.015 3.509 7.138 7.485 7.138z"/><path d="m180.773 455.947c.541 3.734 3.747 6.425 7.413 6.425.358 0 .72-.026 1.085-.079 4.099-.594 6.941-4.398 6.347-8.498-4.769-32.916-19.974-137.646-19.974-137.646-.595-4.1-4.403-6.939-8.5-6.345-4.099.595-6.94 4.4-6.345 8.5-.001 0 15.205 104.728 19.974 137.643z"/><path d="m135.705 456.633c.83 3.435 3.9 5.74 7.284 5.74.583 0 1.176-.069 1.768-.212 4.026-.973 6.502-5.025 5.528-9.052-10.542-43.627-33.291-137.647-33.291-137.647-.974-4.026-5.026-6.503-9.053-5.526-4.026.974-6.5 5.027-5.526 9.053 0 .001 22.748 94.019 33.29 137.644z"/></g></svg>