<svg id="Capa_1" enable-background="new 0 0 512 512" height="512" viewBox="0 0 512 512" width="512" xmlns="http://www.w3.org/2000/svg"><g><path d="m425.166 70.07c-45.187-45.185-105.265-70.07-169.166-70.07-60.281 0-117.866 22.49-162.145 63.327-3.045 2.808-3.237 7.553-.429 10.598s7.553 3.236 10.598.429c41.501-38.275 95.474-59.354 151.976-59.354 59.895 0 116.206 23.325 158.56 65.677 42.355 42.354 65.681 98.666 65.681 158.563 0 31.799-6.52 62.524-19.38 91.32-10.001 22.396-23.418 42.73-39.983 60.656v-34.368c0-7.266-5.693-13.213-12.85-13.654v-20.91c7.178-.551 12.85-6.568 12.85-13.884v-67.81c0-4.142-3.358-7.5-7.5-7.5s-7.5 3.358-7.5 7.5v66.776c-7.178.551-12.85 6.568-12.85 13.884v21.901h-23.228v-21.901c0-7.678-6.247-13.925-13.925-13.925h-4.692v-124.125c0-27.667 22.509-50.176 50.176-50.176h4.52v72.566c0 4.142 3.358 7.5 7.5 7.5s7.5-3.358 7.5-7.5v-73.89c0-7.541-6.135-13.676-13.676-13.676h-5.844c-35.938 0-65.176 29.238-65.176 65.176v125.2c0 7.678 6.247 13.925 13.925 13.925h4.693v20.869c-7.157.441-12.85 6.387-12.85 13.654v89.546c-27.226 11.327-56.113 17.076-85.951 17.076-59.894 0-116.205-23.324-158.56-65.676s-65.68-98.661-65.68-158.554c0-51.542 17.007-100.001 49.182-140.139 2.591-3.232 2.071-7.952-1.161-10.543s-7.953-2.071-10.543 1.161c-33.841 42.217-52.478 95.318-52.478 149.521 0 63.9 24.886 123.976 70.075 169.161 45.186 45.185 105.264 70.069 169.165 70.069 29.734 0 58.59-5.357 85.949-15.916v30c0 10.723 8.724 19.446 19.446 19.446h40.036c10.723 0 19.446-8.724 19.446-19.446v-80c22.812-21.693 40.873-47.198 53.68-75.877 13.724-30.733 20.683-63.516 20.683-97.437 0-63.904-24.886-123.983-70.074-169.17zm-19.289 422.484c0 2.452-1.995 4.446-4.446 4.446h-40.036c-2.452 0-4.446-1.995-4.446-4.446v-134.402h48.928z"/><path d="m152.069 290.663c-22.047 15.423-34.189 35.818-34.189 57.431s12.142 42.008 34.189 57.431c20.529 14.361 47.688 22.597 74.51 22.597 44.128 0 80.028-35.9 80.028-80.028 0-44.127-35.9-80.028-80.028-80.028-26.823-.001-53.98 8.236-74.51 22.597zm139.538 57.43c0 35.857-29.171 65.028-65.028 65.028-23.819 0-47.844-7.249-65.912-19.889-17.919-12.535-27.787-28.565-27.787-45.14 0-16.574 9.868-32.604 27.787-45.139 18.068-12.64 42.093-19.889 65.912-19.889 35.857.001 65.028 29.173 65.028 65.029z"/><path d="m185.959 348.093c0 22.398 18.222 40.621 40.62 40.621s40.62-18.222 40.62-40.621c0-22.398-18.222-40.62-40.62-40.62s-40.62 18.222-40.62 40.62zm66.24 0c0 14.127-11.493 25.621-25.62 25.621s-25.62-11.493-25.62-25.621c0-14.127 11.493-25.62 25.62-25.62s25.62 11.493 25.62 25.62z"/><path d="m210.304 62.336c-26.498-4.686-49.503 1.152-64.785 16.435-15.282 15.282-21.119 38.29-16.435 64.785 4.362 24.671 17.741 49.699 36.708 68.666 15.602 15.602 36.095 23.402 56.588 23.402s40.987-7.801 56.588-23.402c15.116-15.115 23.44-35.212 23.44-56.588s-8.324-41.473-23.44-56.588c-18.966-18.968-43.993-32.348-68.664-36.71zm58.058 139.279c-25.352 25.351-66.606 25.357-91.964 0-16.843-16.843-28.705-38.957-32.543-60.67-3.807-21.534.55-39.847 12.27-51.567 27.031-27.031 81.217-10.746 112.237 20.273 12.282 12.282 19.046 28.612 19.046 45.982s-6.763 33.7-19.046 45.982z"/><path d="m193.658 126.91c-7.672 7.672-11.897 17.873-11.897 28.723s4.225 21.051 11.897 28.723c7.919 7.919 18.321 11.878 28.723 11.878s20.804-3.959 28.723-11.878c7.672-7.672 11.897-17.873 11.897-28.723s-4.225-21.05-11.897-28.723c-15.839-15.838-41.608-15.838-57.446 0zm46.839 46.839c-9.989 9.989-26.243 9.989-36.232 0s-9.989-26.244 0-36.233c4.995-4.995 11.556-7.492 18.116-7.492s13.122 2.497 18.116 7.492c9.989 9.989 9.989 26.244 0 36.233z"/><path d="m101.05 196.417s-.124-.012-.157-.015c-.802-.072-1.485-.105-2.147-.105-12.283 0-22.276 9.993-22.276 22.276 0 1.175.092 2.341.274 3.491-5.076 4.189-8.108 10.477-8.108 17.172s3.033 12.984 8.108 17.172c-.183 1.15-.274 2.316-.274 3.49 0 12.283 9.993 22.276 22.276 22.276.657 0 1.359-.034 2.227-.112 14.792-1.361 30.615-15.915 40.309-37.076 1.674-3.654 1.674-7.847 0-11.5-9.695-21.162-25.517-35.715-40.232-37.069zm-1.453 70.708c-.014.001-.045.004-.075.007-.262.023-.521.042-.776.042-4.012 0-7.276-3.264-7.276-7.276 0-.812.135-1.611.399-2.371 1.588-4.556-.313-9.588-4.524-11.966-2.288-1.292-3.709-3.715-3.709-6.326s1.421-5.035 3.711-6.327c4.207-2.376 6.109-7.407 4.523-11.964-.266-.761-.4-1.559-.4-2.372 0-4.012 3.264-7.276 7.276-7.276.255 0 .514.019.775.042.03.003.062.006.077.007 7.731.712 19.716 10.512 27.817 27.89-8.102 17.378-20.087 27.179-27.818 27.89z"/></g></svg>