<svg id="icons" xmlns="http://www.w3.org/2000/svg" viewBox="0 0 64 64"><defs><style>.cls-1{fill:none;stroke:#000;stroke-linecap:round;stroke-linejoin:round;stroke-width:2px;}</style></defs><title>50</title><g id="table"><path class="cls-1" d="M4.04029,47.95468V23.66031h.057a6.72451,6.72451,0,0,1,6.7245,6.72451V44.126h7.53661a3.36225,3.36225,0,0,1,3.36225,3.36225V50.302L6.26644,50.19613A2.2415,2.2415,0,0,1,4.04029,47.95468Z"/><path class="cls-1" d="M18.3584,57.93118H7.40255A1.12075,1.12075,0,0,1,6.2818,56.81043v-6.6142l13.19735.0904v6.5238A1.12075,1.12075,0,0,1,18.3584,57.93118Z"/><path class="cls-1" d="M59.95971,47.95468V23.66031h-.057a6.72451,6.72451,0,0,0-6.7245,6.72451V44.126H45.64159a3.36225,3.36225,0,0,0-3.36225,3.36225V50.302l15.45422-.10585A2.2415,2.2415,0,0,0,59.95971,47.95468Z"/><path class="cls-1" d="M45.6416,57.93118H56.59745a1.12075,1.12075,0,0,0,1.12075-1.12075v-6.6142l-13.19735.0904v6.5238A1.12075,1.12075,0,0,0,45.6416,57.93118Z"/><rect class="cls-1" x="25.11661" y="54.06371" width="14.33498" height="3.86747" rx="1.93374"/><line class="cls-1" x1="32.2841" y1="39.98547" x2="32.2841" y2="54.06371"/><rect class="cls-1" x="18.52044" y="35.58192" width="27.52732" height="4.40356" rx="2.20178"/><polyline class="cls-1" points="32.284 6.069 32.284 11.702 46.048 20.696 18.52 20.696 32.284 11.702"/></g></svg>