<svg id="Capa_1" enable-background="new 0 0 512 512" height="512" viewBox="0 0 512 512" width="512" xmlns="http://www.w3.org/2000/svg"><g><path d="m208.287 210.692c0 26.309 21.404 47.713 47.713 47.713s47.713-21.404 47.713-47.713-21.404-47.713-47.713-47.713-47.713 21.404-47.713 47.713zm47.713-32.713c18.038 0 32.713 14.675 32.713 32.713s-14.675 32.713-32.713 32.713-32.713-14.675-32.713-32.713 14.675-32.713 32.713-32.713z"/><path d="m447.086 310.872c-1.659-.451-3.323-.88-4.985-1.32 16.112-30.312 24.59-64.281 24.59-98.862-.001-116.175-94.516-210.69-210.691-210.69-33.214 0-64.999 7.508-94.472 22.316-28.104 14.12-53.141 34.778-72.406 59.742-2.53 3.279-1.924 7.989 1.355 10.52 3.277 2.53 7.988 1.924 10.52-1.355 37.382-48.441 93.879-76.223 155.003-76.223 107.904 0 195.69 87.786 195.69 195.69 0 33.355-8.496 66.088-24.595 95.038-19.531-4.75-39.154-8.714-58.566-11.821-5.805-.929-11.664 1.133-15.682 5.519-24.822 27.089-60.122 42.625-96.848 42.625s-72.025-15.536-96.847-42.625c-4.018-4.385-9.878-6.449-15.682-5.52-19.412 3.107-39.035 7.071-58.567 11.821-16.097-28.95-24.593-61.682-24.593-95.037 0-31.734 7.762-63.233 22.445-91.093 1.932-3.665.526-8.201-3.138-10.132-3.665-1.933-8.2-.527-10.132 3.138-15.816 30.007-24.175 63.925-24.175 98.087 0 34.581 8.478 68.551 24.59 98.862-1.662.44-3.327.869-4.986 1.32-8.445 2.296-13.936 10.563-12.771 19.23l22.42 166.73c1.162 8.647 8.619 15.168 17.342 15.168h328.189c8.724 0 16.181-6.521 17.345-15.168l8.842-65.761c.552-4.105-2.329-7.881-6.435-8.433-4.101-.546-7.88 2.329-8.433 6.434l-8.841 65.76c-.167 1.236-1.232 2.168-2.479 2.168h-328.188c-1.246 0-2.312-.932-2.478-2.167l-22.418-166.729c-.167-1.241.624-2.427 1.839-2.757 25.565-6.948 51.47-12.542 76.996-16.628.805-.135 1.648.185 2.25.841 27.655 30.181 66.986 47.491 107.906 47.491s80.251-17.31 107.907-47.492c.602-.657 1.44-.969 2.25-.841 25.525 4.086 51.43 9.68 76.995 16.628 1.216.331 2.006 1.516 1.84 2.757l-8.895 66.136c-.552 4.105 2.329 7.88 6.434 8.433 4.111.551 7.881-2.328 8.433-6.434l8.895-66.136c1.163-8.667-4.327-16.935-12.773-19.23z"/><path d="m190.812 125.396c4.379-4.379 6.791-10.201 6.791-16.393s-2.412-12.014-6.79-16.393l-11.093-11.092c-9.06-9.059-23.724-9.061-32.785 0-9.061 9.063-9.061 23.724 0 32.785l11.093 11.093c9.058 9.058 23.723 9.062 32.784 0zm-33.27-33.271c3.197-3.198 8.375-3.198 11.572 0l11.093 11.093c1.545 1.545 2.396 3.6 2.396 5.786s-.852 4.24-2.397 5.786c-3.197 3.198-8.373 3.198-11.57 0l-11.094-11.093c-3.186-3.187-3.21-8.362 0-11.572z"/><path d="m243.771 76.218 11.094 11.093c9.059 9.058 23.723 9.061 32.784 0s9.062-23.724.001-32.786l-11.093-11.093c-9.06-9.059-23.723-9.062-32.784 0-9.041 9.039-9.041 23.747-.002 32.786zm10.607-22.178c3.197-3.198 8.374-3.198 11.571 0l11.094 11.093c3.198 3.199 3.198 8.373-.001 11.572-3.197 3.198-8.374 3.198-11.571 0l-11.093-11.093c-3.19-3.191-3.19-8.382 0-11.572z"/><path d="m326.316 151.098 11.093 11.093c9.059 9.059 23.723 9.062 32.786 0 9.038-9.039 9.038-23.746 0-32.785l-11.094-11.093c-9.039-9.038-23.747-9.037-32.784 0-9.061 9.06-9.062 23.723-.001 32.785zm10.607-22.179c1.595-1.595 3.691-2.393 5.786-2.393 2.096 0 4.191.798 5.786 2.393l11.093 11.093c3.19 3.19 3.19 8.382.001 11.572-3.197 3.197-8.374 3.2-11.572 0l-11.094-11.093c-3.185-3.186-3.209-8.361 0-11.572z"/><path d="m342.667 228.966c-9.038 9.039-9.039 23.746 0 32.785l11.094 11.093c9.059 9.058 23.724 9.062 32.784 0 9.06-9.06 9.063-23.724.001-32.785l-11.093-11.093c-9.061-9.06-23.724-9.06-32.786 0zm33.272 21.7c3.198 3.199 3.198 8.372-.001 11.571-3.197 3.198-8.374 3.198-11.571 0l-11.093-11.093c-3.19-3.19-3.19-8.381 0-11.572 3.196-3.197 8.374-3.198 11.571 0z"/><path d="m238.935 267.893c-6.192 0-12.014 2.411-16.393 6.79-9.038 9.039-9.038 23.746 0 32.785l11.093 11.093c9.06 9.059 23.723 9.062 32.786 0 9.038-9.039 9.038-23.746 0-32.785l-11.094-11.093c-4.379-4.379-10.2-6.79-16.392-6.79zm16.879 40.06c-3.197 3.197-8.374 3.2-11.572 0l-11.093-11.093c-3.19-3.19-3.19-8.381 0-11.572 1.545-1.545 3.6-2.396 5.785-2.396s4.241.851 5.786 2.396l11.093 11.093c3.191 3.191 3.191 8.382.001 11.572z"/><path d="m118.507 190.999c-9.038 9.039-9.039 23.746 0 32.785l11.092 11.092c9.06 9.059 23.723 9.062 32.786 0 9.038-9.039 9.038-23.746 0-32.785l-11.093-11.093c-9.058-9.058-23.723-9.06-32.785.001zm33.271 21.699c3.19 3.19 3.19 8.381.001 11.571-3.197 3.197-8.373 3.199-11.573 0l-11.092-11.092c-3.19-3.19-3.19-8.381-.001-11.572 3.197-3.197 8.374-3.2 11.572 0z"/></g></svg>