<?xml version="1.0" encoding="UTF-8"?><svg id="Line" xmlns="http://www.w3.org/2000/svg" viewBox="0 0 64 64"><path d="M32,58.9873c-6.06055,0-12.12207-1.10547-18.13965-3.31445-4.49121-1.64844-7.84766-5.62598-8.75977-10.37793-.73047-3.80176-1.60059-9.28027-1.60059-13.79492,0-6.67773,1.24805-9.74316,3.15137-13.65625.3623-.74512,1.25879-1.05762,2.00488-.69238.74512.3623,1.05469,1.25977.69238,2.00488-1.76562,3.63086-2.84863,6.16992-2.84863,12.34375,0,4.2793.84082,9.55566,1.5459,13.22852.71582,3.72559,3.33984,6.83984,6.84766,8.12793,11.35156,4.16797,22.86133,4.16797,34.21289,0,3.50781-1.28809,6.13184-4.40234,6.84766-8.12793.70508-3.67285,1.5459-8.94922,1.5459-13.22852,0-1.83105-.09668-3.39746-.2959-4.78711-.11816-.82031.45117-1.58008,1.27148-1.69727.81543-.125,1.58008.4502,1.69727,1.27148.2207,1.53223.32715,3.2373.32715,5.21289,0,4.51465-.87012,9.99316-1.60059,13.79492-.91211,4.75195-4.26855,8.72949-8.75977,10.37793-6.01758,2.20898-12.0791,3.31445-18.13965,3.31445Z" style="fill:#293a4c; stroke-width:0px;"/><path d="M48,49.56836c-.62891,0-1.21484-.39746-1.42383-1.02734-.26074-.78613.16504-1.63477.95117-1.89648.52637-.1748,1.05273-.36035,1.58008-.55273.77441-.28516,1.63867.11328,1.92383.89258.28516.77734-.11426,1.63867-.89258,1.92383-.55469.2041-1.11035.39941-1.66602.58398-.15625.05176-.31641.07617-.47266.07617Z" style="fill:#293a4c; stroke-width:0px;"/><path d="M31.99121,52.23535c-.34082,0-.68164-.00391-1.02246-.01074-.82812-.01758-1.48535-.70312-1.46875-1.53125.01758-.82812.70703-1.48926,1.53125-1.46875,3.86328.08301,7.77051-.32715,11.63379-1.21191.80957-.1875,1.6123.31934,1.79688,1.12695.18555.80762-.31934,1.6123-1.12695,1.79688-3.76172.8623-7.57324,1.29883-11.34375,1.29883Z" style="fill:#293a4c; stroke-width:0px;"/><path d="M19.00098,38.61426c-.12988,0-.26172-.0166-.39258-.05176-1.58008-.42773-3.17773-.9375-4.74902-1.51465-.77734-.28613-1.17578-1.14844-.89062-1.92578.28613-.77734,1.14648-1.17676,1.92578-.89062,1.48926.54785,3.00195,1.03027,4.49707,1.43457.7998.2168,1.27246,1.04004,1.05664,1.83984-.18164.66895-.78613,1.1084-1.44727,1.1084Z" style="fill:#293a4c; stroke-width:0px;"/><path d="M41.00293,40c-.08008,0-.16113-.00195-.24219-.00586-2.38965-.125-4.26074-2.17383-4.26074-4.66406v-.92383c0-.42285-.16895-.81543-.47656-1.10449-.2959-.27832-.67871-.41406-1.07812-.39258-.95996.06055-1.95215.09082-2.94531.09082-14.29883,0-25.5-6.14941-25.5-14s11.20117-14,25.5-14,25.5,6.14941,25.5,14c0,4.73535-4.00781,8.9502-10.99707,11.56348-.59961.22363-1.00293.79102-1.00293,1.41016v3.52637c0,1.22852-.51074,2.41797-1.40234,3.26367-.84473.80273-1.93652,1.23633-3.09473,1.23633ZM35.04102,29.90625c1.13184,0,2.20117.42383,3.03711,1.20996.90332.84961,1.42188,2.04883,1.42188,3.29004v.92383c0,.87891.63574,1.62695,1.41699,1.66797.40918.02637.8125-.12402,1.11523-.41016.30176-.28613.46777-.67285.46777-1.08789v-3.52637c0-1.86426,1.18652-3.56055,2.95215-4.2207,5.66504-2.11816,9.04785-5.39062,9.04785-8.75293,0-5.96289-10.30371-11-22.5-11s-22.5,5.03711-22.5,11,10.30371,11,22.5,11c.93066,0,1.85938-.02832,2.75977-.08496.09375-.00586.1875-.00879.28125-.00879Z" style="fill:#293a4c; stroke-width:0px;"/><path d="M32.01465,28.51367c-.03418,0-.06738-.00098-.10156-.00293-12.45996-.82812-18.17578-5.48047-18.3125-9.72363-.04492-1.37988.5752-2.77246,1.79102-4.02832,3.10254-3.20312,9.61816-5.27246,16.60156-5.27246h.00684c10.66309.00195,18.40137,3.19727,18.40137,7.59766,0,4.56543-7.99316,7.29297-15.72168,7.29297-3.96387,0-7.13086-.46289-9.41309-1.375-3.24219-1.29688-3.72559-3.16211-3.72559-4.15918,0-3.12988,4.30078-5.31641,10.45898-5.31641,2.46484,0,8.34375.26855,9.69336,2.75195.38672.71094.35645,1.53711-.0791,2.20898-1.24121,1.91406-5.49121,2.00391-8.8291,1.74609-.82617-.06348-1.44336-.78516-1.37891-1.61133.06348-.82617.77539-1.46191,1.61133-1.37891,2.23047.17383,3.7627.08691,4.74414-.06738-1.10059-.32617-2.9375-.64941-5.76172-.64941-5.16602,0-7.45898,1.67871-7.45898,2.31641,0,.16504.33789.77246,1.83984,1.37402,1.32422.5293,3.83887,1.16016,8.29883,1.16016,7.37988,0,12.72168-2.56445,12.72168-4.29297,0-1.55957-5.43652-4.5957-15.40137-4.59766h-.00684c-7.02539,0-12.41309,2.25977-14.44629,4.35938-.44531.45898-.9707,1.15137-.94824,1.84473.07324,2.24512,4.34863,6.08398,15.51367,6.82617.82617.05566,1.45215.76953,1.39746,1.59668-.05273.79297-.71289,1.40039-1.49512,1.40039Z" style="fill:#293a4c; stroke-width:0px;"/></svg>