<svg id="icons" xmlns="http://www.w3.org/2000/svg" viewBox="0 0 64 64"><defs><style>.cls-1{fill:none;stroke:#000;stroke-linecap:round;stroke-linejoin:round;stroke-width:2px;}</style></defs><title>47</title><g id="jar_mug"><rect class="cls-1" x="12.32507" y="24.47462" width="28.00236" height="35.52538" rx="3"/><path class="cls-1" d="M46.02556,52.14767H40.334V49.22882h2.77265a3,3,0,0,0,3-3V38.22528a3,3,0,0,0-3-3H40.334V32.30643h5.69152a4,4,0,0,1,4,4V48.14767A4,4,0,0,1,46.02556,52.14767Z"/><rect class="cls-1" x="14.76654" y="19.56098" width="22.68014" height="4.91364"/><path class="cls-1" d="M14.76993,19.55762a12.11007,12.11007,0,0,1,11.334-7.34574,1.73288,1.73288,0,0,1,.23524.01069"/><path class="cls-1" d="M30.1992,12.8855a11.79049,11.79049,0,0,1,7.24951,6.67212"/><path class="cls-1" d="M32.327,5.88189a1.781,1.781,0,0,1-.08556.56673l-2.04224,6.43684a12.13869,12.13869,0,0,0-3.86-.66293L28.6595,5.28311a1.88279,1.88279,0,0,1,3.66752.59878Z"/><rect class="cls-1" x="19.77136" y="47.83937" width="6.27604" height="6.27604" rx="1" transform="translate(22.35191 -4.90842) rotate(23.62776)"/><rect class="cls-1" x="27.84145" y="40.7689" width="6.27604" height="6.27604" rx="1" transform="translate(20.19464 -8.73558) rotate(23.62776)"/><rect class="cls-1" x="28.6969" y="29.57677" width="6.27604" height="6.27604" rx="1" transform="translate(15.78063 -10.01669) rotate(23.62776)"/><rect class="cls-1" x="17.32458" y="35.50835" width="6.27604" height="6.27604" rx="1" transform="translate(17.2046 -4.96149) rotate(23.62776)"/></g></svg>