<svg id="icons" xmlns="http://www.w3.org/2000/svg" viewBox="0 0 64 64"><defs><style>.cls-1{fill:none;stroke:#000;stroke-linecap:round;stroke-linejoin:round;stroke-width:2px;}</style></defs><title>55</title><g id="coffee_menu"><path class="cls-1" d="M9.57653,15.15308H51.42347a3,3,0,0,1,3,3V57a3,3,0,0,1-3,3H9.57653a0,0,0,0,1,0,0V15.15308A0,0,0,0,1,9.57653,15.15308Z"/><path class="cls-1" d="M9.57653,15.15308l35.52371-10.999a3.3925,3.3925,0,0,1,4.39591,3.24072v7.75825Z"/><path class="cls-1" d="M25.621,50.54168a16.18021,16.18021,0,0,1-7.20428-13.58692V34.95089a1.23674,1.23674,0,0,1,1.23674-1.23674H43.95283a1.23675,1.23675,0,0,1,1.23675,1.23674v2.00387a16.17448,16.17448,0,0,1-7.19772,13.58692Z"/><path class="cls-1" d="M45.18958,35.64011a5.45245,5.45245,0,1,1-2.78049,10.5435"/><path class="cls-1" d="M32.419,22.83663l-.491.56119a2.62613,2.62613,0,0,0-.60266,2.45729,2.73585,2.73585,0,0,0,.11961.32139h0a2.73742,2.73742,0,0,1,.1196.32138,2.6261,2.6261,0,0,1-.60266,2.45729l-.491.5612"/><path class="cls-1" d="M27.07292,23.61685l-.38319.43793A1.99184,1.99184,0,0,0,26.1651,25.613a2.09688,2.09688,0,0,0,.16129.56354h0a2.09676,2.09676,0,0,1,.16128.56354,1.9918,1.9918,0,0,1-.52462,1.55818l-.38319.43792"/><path class="cls-1" d="M37.32136,23.61685l-.38319.43793a1.9918,1.9918,0,0,0-.52462,1.55818,2.09686,2.09686,0,0,0,.16128.56354h0a2.09639,2.09639,0,0,1,.16128.56354,1.9918,1.9918,0,0,1-.52462,1.55818l-.38319.43792"/></g></svg>