<?xml version="1.0" encoding="UTF-8"?><svg id="Line" xmlns="http://www.w3.org/2000/svg" viewBox="0 0 64 64"><path d="M4.99854,42c-.2998,0-.60205-.08984-.86572-.27637-.67578-.47852-.83594-1.41504-.35693-2.09082l6.06543-8.56348c.0791-.11133.17236-.21094.27832-.29688l3.49023-2.83496,1.55957-5.27246c.06006-.20215.16162-.38867.29834-.54883l8.43701-9.87012,2.90234-5.26465c.0332-.06152.0708-.11914.1123-.1748l2.02393-2.70508c.34863-.46582.93555-.68945,1.50635-.57031l5.85303,1.2168c.14062.0293.27734.0791.4043.14746l3.04492,1.63477,10.44043.85059c.0752.00586.15137.01855.22461.03613l3.82227.90918c.80664.19141,1.30469,1,1.1123,1.80566-.19141.80566-.99902,1.30957-1.80566,1.1123l-3.71094-.88281-10.63867-.86621c-.20508-.0166-.40527-.07617-.58789-.17383l-3.12988-1.67969-4.70459-.97852-1.39014,1.85742-2.92578,5.30762c-.04883.08984-.10693.17383-.17334.25098l-8.3291,9.74316-1.60059,5.41211c-.08594.29004-.25781.54785-.49268.73828l-3.69141,2.99902-5.94678,8.39551c-.29248.41211-.75537.63281-1.22559.63281Z" style="fill:#293a4c; stroke-width:0px;"/><path d="M28.68652,22.73828c-.78809,0-1.44922-.61523-1.49609-1.41211-.00049-.00586-.09082-1.27148-.74805-3.53613-.58838-2.02539-2.27539-3.54785-2.29248-3.5625-.6167-.5498-.67432-1.49707-.12646-2.11621.54834-.61816,1.4917-.67969,2.11182-.13281.0957.08398,2.35156,2.09277,3.18799,4.97559.7627,2.62891.8584,4.13281.8623,4.19629.04834.82715-.58252,1.53711-1.40967,1.58496-.02979.00195-.05957.00293-.08936.00293Z" style="fill:#293a4c; stroke-width:0px;"/><path d="M41.01074,13.39648c-.61426,0-1.18945-.37891-1.41016-.99023-.88672-2.44922-1.2793-3.20508-1.39062-3.39551-.35645-.3916-.49414-.95898-.31152-1.49512.26758-.78418,1.11914-1.20215,1.9043-.93555.60547.20703,1.00488.34375,2.61816,4.80664.28223.77832-.12109,1.63867-.90039,1.91992-.16797.06152-.34082.08984-.50977.08984ZM38.83398,9.41992h.00977-.00977ZM38.83008,9.41797l.00098.00098-.00098-.00098ZM38.82812,9.41797h.00098-.00098ZM38.8252,9.41699h.00098-.00098ZM38.82324,9.41602h.00098-.00098ZM38.82031,9.41504h.00098-.00098ZM38.81738,9.41406q.00098,0,.00195.00098c0-.00098-.00098-.00098-.00195-.00098ZM38.72559,9.37793c.0293.0127.05957.02441.0918.03613-.03125-.01074-.06152-.02344-.0918-.03613ZM38.72363,9.37695c.00098.00098.00195.00098.00195.00098,0,0-.00098,0-.00195-.00098ZM38.72168,9.37695h.00098-.00098Z" style="fill:#293a4c; stroke-width:0px;"/><path d="M38.83496,32.9668c-.31738,0-.6377-.10059-.90918-.30762-.6582-.50293-.78516-1.44434-.28223-2.10254.14941-.19531,3.71191-4.80664,8.66797-6.5459.78613-.27441,1.6377.13672,1.91211.91797.27441.78223-.13672,1.6377-.91797,1.91211-4.11914,1.44629-7.24609,5.49609-7.27734,5.53613-.2959.38672-.74219.58984-1.19336.58984Z" style="fill:#293a4c; stroke-width:0px;"/><path d="M18.29736,38.3623c-.79004,0-1.45166-.61816-1.49609-1.41699-.21143-3.80176-3.00098-7.13379-3.02881-7.16699-.53564-.63184-.45801-1.57812.17432-2.11426.63184-.53418,1.57861-.45703,2.11377.1748.1416.16699,3.46924,4.14453,3.73584,8.94043.0459.82715-.5874,1.53516-1.41455,1.58105-.02832.00098-.05615.00195-.08447.00195Z" style="fill:#293a4c; stroke-width:0px;"/><path d="M36.54199,44.0791c-.42188,0-.8418-.17676-1.1377-.52246-.54004-.62695-.46973-1.57227.15723-2.11328.11914-.10156,2.94336-2.5127,5.94238-3.14941.80957-.16797,1.60645.3457,1.7793,1.15625.17188.81055-.34668,1.60742-1.15625,1.7793-2.23828.47461-4.58496,2.46777-4.6084,2.48828-.2832.24219-.63086.36133-.97656.36133Z" style="fill:#293a4c; stroke-width:0px;"/><path d="M27.52441,29.71875c-2.38721,0-4.19824-.98242-4.31641-1.04785-.72412-.40234-.98486-1.31543-.58252-2.04004.40039-.72168,1.30859-.98535,2.0332-.58594.14502.07715,3.08105,1.61328,5.78174-.22754.68555-.46777,1.61816-.29102,2.08447.39453.4668.68359.29053,1.61719-.39404,2.08398-1.58252,1.0791-3.19531,1.42285-4.60645,1.42285Z" style="fill:#293a4c; stroke-width:0px;"/><path d="M47.85449,20.24121c-.25391,0-.51074-.06348-.74609-.19922-1.66406-.95508-2.26855-2.16211-2.48242-3.00684-.44238-1.74707.40625-3.19141.50391-3.35059.43652-.70508,1.36133-.91992,2.06543-.4873.69824.43262.91895,1.34473.49805,2.04688-.32715.57715-.43359,1.42578.90918,2.19629.71777.41211.96582,1.3291.55371,2.04785-.27734.48242-.78223.75293-1.30176.75293Z" style="fill:#293a4c; stroke-width:0px;"/><path d="M28.95801,41.65137c-2.10938,0-3.88232-1.09766-4.35449-2.86816-.30322-1.13672.00586-2.375.84814-3.39648.73535-.89258,1.82373-1.56641,3.06445-1.89746,2.78564-.74609,5.43408.41699,6.02881,2.64258h0c.59375,2.22559-1.125,4.55176-3.91211,5.29492-.56982.15234-1.1333.22461-1.6748.22461ZM30.17041,36.26855c-.27148,0-.56885.03613-.88184.11914-.63135.16895-1.18604.49902-1.52197.90625-.21533.26172-.31445.5293-.26465.71582.11426.42578,1.11182.84863,2.35791.51855,1.24561-.33203,1.8999-1.19727,1.78662-1.62305-.08594-.31934-.66699-.63672-1.47607-.63672Z" style="fill:#293a4c; stroke-width:0px;"/><path d="M37.02832,21.83984c-.24414,0-.49316-.02051-.74609-.0625-1.1416-.18945-2.26953-.79395-3.17676-1.70215-.90771-.90723-1.51221-2.03613-1.70166-3.17676-.2168-1.30664.13623-2.5332.96875-3.36523.83057-.83105,2.05615-1.18555,3.36377-.96777,1.14062.18945,2.26953.79297,3.17676,1.70117,2.04004,2.03906,2.3623,4.91309.73438,6.54199h-.00098c-.6709.67188-1.59863,1.03125-2.61816,1.03125ZM34.98047,15.50293c-.16992,0-.36621.03125-.48633.15234-.19824.19727-.15723.5918-.13086.75195.08691.52051.40137,1.08496.86328,1.54688s1.02637.77734,1.54688.86328c.15918.02832.55566.06836.75098-.12988h.00098c.19727-.19727.15625-.5918.12988-.75293-.08594-.52051-.40137-1.08398-.86328-1.54688-.46191-.46191-1.02539-.77637-1.54688-.8623-.06152-.01074-.1582-.02246-.26465-.02246Z" style="fill:#293a4c; stroke-width:0px;"/><path d="M46.45215,60.5c-.13867,0-.27832-.01855-.41797-.05957l-8.8584-2.56934c-.09375-.02734-.18555-.06348-.27246-.10938l-4.00049-2.07422-8.66504-.99609c-.2002-.02344-.39404-.08594-.56934-.18555l-4.61523-2.62109-3.66162-.35742c-.0918-.00879-.18311-.02637-.27197-.05273l-7.08496-2.05469c-.41748-.12109-.76172-.41699-.94385-.81152l-3.45264-7.47949c-.24609-.5332-.15869-1.16113.22461-1.60742.3833-.44434.99121-.62402,1.55518-.46191l6.95117,2.01562,3.84082.375c.20898.02051.41162.08496.59473.18848l4.62646,2.62793,8.63623.99121c.18164.02051.35791.07422.52002.15918l4.11377,2.13477,7.40527,2.14746,2.92676-7.41211,1.76562-7.46191c.02539-.10547.06152-.20898.10938-.30664l5.57422-11.54199.0752-4.3418c.00879-.50098.26758-.96582.69043-1.23633l2.15918-1.38477,2.19727-5.56445c.26465-.66992.9707-1.05273,1.67578-.92285.70801.13477,1.21973.75293,1.21973,1.47363v14.18555c0,.51074-.26074.9873-.69043,1.2627l-.81348.52148-.06641,3.86816c-.00391.21777-.05469.43164-.14941.62695l-5.64746,11.69141-1.75195,7.40625c-.0166.06934-.03809.13867-.06445.20508l-3.46875,8.7832c-.23145.58496-.79395.94922-1.39551.94922ZM38.15332,55.03125l7.40527,2.14746,2.92773-7.41211,1.76465-7.46094c.02539-.10547.06152-.20898.10938-.30664l5.5752-11.54199.07422-4.3418c.00879-.50195.26758-.9668.69043-1.2373l.7998-.5127v-6.13184c-.02148.01465-.04297.0293-.06543.04395l-1.8916,1.21289-.06641,3.86816c-.00391.2168-.05469.43066-.14941.62598l-5.64648,11.69141-1.75293,7.40723c-.0166.06934-.03809.13867-.06445.20508l-3.46777,8.7832c-.28418.71875-1.0625,1.11133-1.81348.88965l-8.8584-2.56934c-.09473-.02734-.18555-.06348-.27344-.10938l-3.99951-2.0752-8.66504-.99512c-.20068-.02344-.39453-.08594-.56982-.18555l-4.61523-2.62109-3.66162-.35742c-.0918-.00879-.18311-.02637-.27197-.05273l-3.92725-1.13867,1.78809,3.87305,6.29395,1.8252,3.84082.375c.20898.02051.41162.08496.59473.18848l4.62695,2.62793,8.63525.99219c.18164.02051.35742.07422.51953.15918l4.11426,2.13379ZM56.625,17.01465h.00977-.00977Z" style="fill:#293a4c; stroke-width:0px;"/></svg>