<svg id="Capa_1" enable-background="new 0 0 512 512" height="512" viewBox="0 0 512 512" width="512" xmlns="http://www.w3.org/2000/svg"><g><path d="m445.831 128.551c-36.486 0-66.169 29.683-66.169 66.169 0 20.941 9.795 43.332 25.56 58.435 6.442 6.171 10.137 14.754 10.137 23.547v133.735c0 16.802 13.669 30.471 30.471 30.471s30.471-13.669 30.471-30.471v-15.375c0-4.142-3.358-7.5-7.5-7.5s-7.5 3.358-7.5 7.5v15.375c0 8.531-6.94 15.471-15.471 15.471s-15.471-6.94-15.471-15.471v-133.735c0-12.862-5.38-25.393-14.761-34.379-12.718-12.184-20.937-30.869-20.937-47.603 0-28.214 22.954-51.169 51.169-51.169s51.17 22.955 51.17 51.169c0 16.734-8.218 35.419-20.936 47.603-9.381 8.986-14.761 21.517-14.761 34.379v83.359c0 4.142 3.358 7.5 7.5 7.5s7.5-3.358 7.5-7.5v-83.359c0-8.793 3.695-17.376 10.138-23.547 15.765-15.103 25.559-37.494 25.559-58.435 0-36.486-29.683-66.169-66.169-66.169z"/><path d="m376.778 370.062h-37.594v-185.952c0-20.094-16.348-36.442-36.442-36.442h-13.223c4.281-10.053 5.761-21.242 4.058-32.138-.288-1.842-1.252-3.511-2.704-4.682-17.027-13.725-39.627-16.769-59.366-8.496-5.864-13.336-16.615-24.299-30.567-30.298-2.993-1.283-6.425-1.282-9.427.003-13.944 5.996-24.691 16.959-30.553 30.297-19.741-8.277-42.343-5.232-59.373 8.494-1.452 1.17-2.416 2.839-2.704 4.682-1.702 10.896-.222 22.084 4.059 32.138h-13.217c-20.094 0-36.442 16.348-36.442 36.442v67.725c0 4.142 3.358 7.5 7.5 7.5s7.5-3.358 7.5-7.5v-10.904c8.325-.947 13.557-3.396 18.279-5.619 5.242-2.468 9.769-4.599 19.377-4.599 9.609 0 14.136 2.131 19.379 4.599 6.004 2.826 12.809 6.029 25.78 6.029 24.177 0 25.233-10.628 45.147-10.628 9.609 0 14.136 2.131 19.378 4.599 6.002 2.826 12.804 6.028 25.768 6.028 24.177 0 25.233-10.628 45.147-10.628 9.609 0 14.136 2.131 19.378 4.599 4.72 2.222 9.949 4.671 18.267 5.618v78.974h-255.9v-33.069c0-4.142-3.358-7.5-7.5-7.5s-7.5 3.358-7.5 7.5v83.227h-37.592c-5.213 0-10.069 2.577-12.992 6.894-2.922 4.317-3.51 9.783-1.574 14.623l10.649 26.608c5.524 13.802 18.699 22.721 33.566 22.721h301.789c14.867 0 28.042-8.919 33.566-22.721l10.649-26.608c1.937-4.839 1.349-10.306-1.573-14.623-2.923-4.315-7.78-6.893-12.993-6.893zm-97.667-249.306c.816 9.394-1.466 18.909-6.43 26.911h-40.369c2.738-6.85 4.155-14.191 4.155-21.72 0-3.069-.244-6.096-.707-9.064 14.159-6.563 30.539-5.135 43.351 3.873zm-82.88-34.379c23.445 10.924 32.038 39.462 19.44 61.29h-38.87c-12.611-21.851-3.977-50.387 19.43-61.29zm-82.879 34.379c12.814-9.011 29.2-10.438 43.36-3.869-.462 2.967-.706 5.993-.706 9.061 0 7.529 1.417 14.87 4.155 21.72h-40.379c-4.963-8.003-7.246-17.518-6.43-26.912zm198.954 100.985c-6.002-2.826-12.804-6.028-25.768-6.028-24.177 0-25.233 10.628-45.147 10.628-19.654 0-21.129-10.628-45.147-10.628-24.177 0-25.233 10.628-45.147 10.628-9.617 0-14.147-2.132-19.391-4.601-6.002-2.825-12.805-6.027-25.767-6.027s-19.764 3.202-25.766 6.027c-3.654 1.72-6.967 3.275-11.89 4.06v-41.69c0-11.823 9.619-21.442 21.442-21.442h213.017c11.823 0 21.442 9.619 21.442 21.442v41.69c-4.918-.786-8.227-2.34-11.878-4.059zm-244.023 113.164h255.9v35.157h-255.9zm309.134 51.101-10.649 26.608c-3.232 8.076-10.941 13.294-19.64 13.294h-301.788c-8.699 0-16.408-5.218-19.64-13.294l-10.649-26.608c-.041-.102-.135-.339.069-.642.205-.302.46-.302.57-.302h361.087c.109 0 .365 0 .57.303.205.302.11.539.07.641z"/></g></svg>