<svg id="icons" xmlns="http://www.w3.org/2000/svg" viewBox="0 0 64 64"><defs><style>.cls-1{fill:#01d28e;}.cls-2{fill:none;stroke:#000;stroke-linecap:round;stroke-linejoin:round;stroke-width:2px;}</style></defs><title>25</title><g id="check"><g id="_13" data-name="13"><line class="cls-1" x1="52.17348" y1="47.11858" x2="46.09285" y2="47.12249"/><polyline class="cls-2" points="47.578 9.22 47.581 4.002 50.734 4 50.731 9.218"/><polygon class="cls-2" points="46.114 9.221 52.195 9.217 52.173 47.119 49.126 60 46.093 47.122 46.114 9.221"/><line class="cls-2" x1="52.17348" y1="47.11858" x2="46.09285" y2="47.12249"/><path class="cls-2" d="M52.19289,12.55583l.40153-.00026c1.42025-.00091,3.66028,1.2296,3.65942,2.74928l-.00322,5.74767"/></g><rect class="cls-2" x="7.74616" y="4" width="31.78106" height="56" rx="2"/><line class="cls-2" x1="7.74616" y1="12.53973" x2="39.52722" y2="12.53973"/><line class="cls-2" x1="12.21085" y1="18.24408" x2="34.54476" y2="18.24408"/><line class="cls-2" x1="12.21085" y1="23.94843" x2="34.54476" y2="23.94843"/><line class="cls-2" x1="12.21085" y1="29.65278" x2="34.54476" y2="29.65278"/><line class="cls-2" x1="12.21085" y1="35.35713" x2="34.54476" y2="35.35713"/><line class="cls-2" x1="12.21085" y1="41.06147" x2="34.54476" y2="41.06147"/><line class="cls-2" x1="12.21085" y1="46.76582" x2="34.54476" y2="46.76582"/><line class="cls-2" x1="12.21085" y1="52.47017" x2="34.54476" y2="52.47017"/></g></svg>