<?xml version="1.0" encoding="UTF-8"?><svg id="Line" xmlns="http://www.w3.org/2000/svg" viewBox="0 0 64 64"><path d="M10.99316,56.50195c-.3667,0-.73682-.03027-1.1084-.0918-2.6582-.45605-4.82666-2.62061-5.28271-5.26514-.32471-1.8335.14404-3.68701,1.28955-5.14893-.89844-1.13965-1.3916-2.54395-1.3916-3.99561,0-1.45898.4917-2.86182,1.39355-4-.90137-1.13672-1.39355-2.54004-1.39355-3.99951s.4917-2.8623,1.39355-4c-.90186-1.1377-1.39355-2.54102-1.39355-4s.4917-2.86182,1.39355-4c-.90137-1.13672-1.39355-2.54004-1.39355-3.99951,0-1.44971.4917-2.85156,1.39355-3.99707-1.15234-1.48096-1.61426-3.3252-1.29053-5.1543.45508-2.6377,2.62402-4.80225,5.27295-5.25684,2.09473-.34766,4.1499.29639,5.62256,1.73047,1.19727-1.16406,2.80469-1.82227,4.50146-1.82227,1.68799,0,3.29443.65771,4.5,1.82422,1.20801-1.16748,2.81299-1.82422,4.5-1.82422,1.69531,0,3.30176.65723,4.50098,1.82275,1.47461-1.43457,3.5293-2.07764,5.61426-1.73242,2.6582.45654,4.82715,2.62061,5.2832,5.26514.32422,1.83252-.14453,3.68604-1.29004,5.14893.89844,1.14062,1.3916,2.54443,1.3916,3.99561,0,1.45898-.49219,2.86182-1.39355,3.99951.90234,1.13916,1.39355,2.5415,1.39355,4s-.49121,2.86133-1.39258,3.99951c.6582.82861,1.10156,1.80762,1.28906,2.85596.14551.81543-.39648,1.59473-1.21191,1.74072-.81836.14697-1.5957-.39648-1.74121-1.2124-.11523-.64209-.41016-1.23535-.85449-1.71582-.87695-.95215-.87695-2.38525-.00098-3.33447.58789-.63965.91211-1.46875.91211-2.3335s-.32422-1.69385-.91406-2.33496c-.87402-.94775-.87402-2.38086.00098-3.33105.58887-.63965.91309-1.46875.91309-2.3335,0-.85791-.32617-1.68896-.91895-2.34082-.87305-.97266-.85645-2.40576.03125-3.34131.71777-.80078,1.02344-1.85791.83008-2.94678-.24414-1.4209-1.40625-2.57861-2.82617-2.82227-1.24414-.21094-2.46289.23389-3.25977,1.17871-.46582.5542-1.14648.87305-1.86426.87305h-.00098c-.70605-.00049-1.37305-.31201-1.82959-.85547-.66162-.79248-1.63086-1.24512-2.66162-1.24512-1.02441,0-1.99512.45459-2.66309,1.24707-.9082,1.08496-2.7627,1.08887-3.67676-.00391-.66504-.78857-1.63574-1.24316-2.66016-1.24316-1.03076,0-2,.45264-2.65869,1.2417-.92871,1.10303-2.771,1.08691-3.69922-.01562-.79541-.94385-2.01562-1.38477-3.26709-1.17578-1.41113.24219-2.57275,1.3999-2.81689,2.81445-.19336,1.0957.11133,2.15234.85742,2.98242.8584.90625.87549,2.33838.0127,3.30273-.60156.66113-.92822,1.49219-.92822,2.3501,0,.86475.32422,1.69385.91357,2.3335.87305.95117.87305,2.38232.00049,3.33105-.58936.64111-.91406,1.47021-.91406,2.33496s.32471,1.69385.91406,2.33447c.87256.94922.87256,2.38037.00098,3.33008-.59082.64111-.91504,1.47021-.91504,2.33545,0,.86475.32422,1.69385.91357,2.3335.87305.95117.87305,2.38232.00049,3.33105-.58936.64111-.91406,1.47021-.91406,2.33496,0,.85791.32666,1.68896.91943,2.34033.87109.97363.85449,2.40527-.02979,3.34033-.72021.80176-1.02539,1.8584-.83252,2.94775.24512,1.4209,1.40674,2.5791,2.82666,2.82275,1.2417.20703,2.46289-.23535,3.25977-1.17871.53369-.6333,1.48047-.71338,2.11377-.1792.6333.53467.71338,1.48096.1792,2.11377-1.24658,1.47705-3.03906,2.29443-4.94336,2.29443ZM6.18457,45.64746c-.00488.00537-.00977.01025-.01465.01611l.01465-.01611ZM42.7959,30.36523c-.00098.00049-.00098.00098-.00098.00098,0,0,0-.00049.00098-.00098ZM42.79297,21.63428c.00098,0,.00098.00049.00098.00098,0-.00049,0-.00098-.00098-.00098ZM6.19238,14.3623c.00586.00732.01221.01416.01855.02051-.00635-.00684-.0127-.01367-.01855-.02051ZM42.83105,14.33691c-.00488.00586-.00977.01123-.01465.01709.00488-.00537.00977-.01123.01465-.01709ZM24.04248,5.81592c-.00098.00098-.00146.00195-.00244.00293.00098-.00098.00146-.00195.00244-.00293ZM24.95459,5.8125l.00244.00244-.00244-.00244Z" style="fill:#293a4c; stroke-width:0px;"/><circle cx="14.01329" cy="15.50134" r="1.51273" style="fill:#293a4c; stroke-width:0px;"/><circle cx="21.01329" cy="15.50134" r="1.51273" style="fill:#293a4c; stroke-width:0px;"/><circle cx="28.01329" cy="15.50134" r="1.51273" style="fill:#293a4c; stroke-width:0px;"/><circle cx="34.98671" cy="15.50134" r="1.51273" style="fill:#293a4c; stroke-width:0px;"/><circle cx="14.01329" cy="25.4522" r="1.51273" style="fill:#293a4c; stroke-width:0px;"/><circle cx="21.01329" cy="25.4522" r="1.51273" style="fill:#293a4c; stroke-width:0px;"/><circle cx="28.01329" cy="25.4522" r="1.51273" style="fill:#293a4c; stroke-width:0px;"/><circle cx="34.98671" cy="25.4522" r="1.51273" style="fill:#293a4c; stroke-width:0px;"/><circle cx="14.01329" cy="34.52517" r="1.51273" style="fill:#293a4c; stroke-width:0px;"/><circle cx="14.01329" cy="44.50045" r="1.51273" style="fill:#293a4c; stroke-width:0px;"/><path d="M44,60.5c-1.68945,0-3.2959-.65869-4.5-1.82666-1.20312,1.16797-2.80957,1.82666-4.5,1.82666-1.68945,0-3.2959-.6582-4.49951-1.82617-1.48193,1.44092-3.53564,2.08252-5.62305,1.73096-2.64844-.44922-4.81934-2.61377-5.27832-5.26367-.32031-1.84668.1499-3.69434,1.29346-5.14062-.90039-1.14014-1.39209-2.54199-1.39258-3.99756.00049-1.45654.49219-2.85889,1.39258-3.99854-1.14307-1.4458-1.61377-3.29395-1.29346-5.1416.45898-2.64941,2.62988-4.81348,5.27832-5.2627,2.08643-.35303,4.14111.29053,5.62256,1.73096,1.20459-1.16797,2.81055-1.82617,4.5-1.82617,1.69043,0,3.2959.6582,4.5,1.82617,1.20312-1.16748,2.80957-1.82617,4.5-1.82617,1.68945,0,3.2959.65869,4.5,1.82617,1.48145-1.44092,3.53809-2.08203,5.62207-1.73096,2.64941.44922,4.82031,2.61377,5.2793,5.26318.31934,1.84619-.15039,3.69434-1.29395,5.14111.90039,1.13965,1.3916,2.5415,1.39258,3.99707v.00195c-.00098,1.45557-.49219,2.85791-1.39258,3.99707,1.14355,1.4458,1.61328,3.29443,1.29297,5.14111-.45801,2.64941-2.62891,4.81396-5.27832,5.26318-2.08301.35156-4.14062-.29004-5.62207-1.73096-1.2041,1.16748-2.81055,1.82617-4.5,1.82617ZM39.5,55.39502c.71191,0,1.38184.31201,1.83887.85596.66602.79395,1.63574,1.24902,2.66113,1.24902s1.99414-.45459,2.65918-1.24707c.4541-.54004,1.11816-.85059,1.82227-.85205h.00684c.71777,0,1.39746.31592,1.86523.86768.80469.94775,2.02441,1.38818,3.2666,1.17822,1.41797-.24023,2.5791-1.39893,2.82422-2.81738.19043-1.09766-.11328-2.1499-.85645-2.96338-.86816-.95166-.86816-2.38281-.00098-3.33008.58789-.64209.91211-1.47119.91309-2.3335-.00098-.8623-.3252-1.69141-.91309-2.33398-.86719-.94727-.86719-2.37891.00098-3.3291.74316-.81396,1.04688-1.86621.85742-2.96387-.24609-1.41895-1.40723-2.57715-2.8252-2.81738-1.24219-.21191-2.46094.22949-3.2666,1.17822-.46777.55176-1.14746.86768-1.86523.86768h-.00684c-.70508-.00195-1.36914-.3125-1.82227-.85205-.66504-.79248-1.63379-1.24707-2.65918-1.24707s-1.99512.45459-2.66016,1.24756c-.91406,1.08984-2.76562,1.08936-3.67969.00049-.66504-.79346-1.63477-1.24805-2.66016-1.24805s-1.99512.45459-2.66016,1.24707c-.45166.53906-1.11523.84961-1.81982.85205h-.00781c-.71729,0-1.39697-.31592-1.86523-.86719-.80566-.94873-2.02734-1.39062-3.26758-1.17871-1.41699.24023-2.57861,1.39844-2.82422,2.81738-.19043,1.09766.11377,2.15039.85693,2.96338.86816.95068.86865,2.38232.00098,3.33008-.58838.64258-.9126,1.47168-.91309,2.33398.00049.86133.32471,1.69043.91357,2.3335.8667.94678.8667,2.37793-.00049,3.32861-.74414.81396-1.04834,1.86621-.85791,2.96387.24561,1.41895,1.40723,2.57764,2.82422,2.81787,1.24023.21094,2.4624-.23047,3.26709-1.17822.46875-.55176,1.14844-.86768,1.86572-.86768h.00781c.7041.00195,1.36768.3125,1.81982.85156.66504.79297,1.63477,1.24756,2.66016,1.24756s1.99512-.45508,2.66016-1.24805c.45801-.54492,1.12793-.85693,1.83984-.85693Z" style="fill:#293a4c; stroke-width:0px;"/><path d="M58,47.50439c-.82812,0-1.5-.67139-1.5-1.5s.67188-1.50195,1.5-1.50195,1.5.66943,1.5,1.49805v.00391c0,.82861-.67188,1.5-1.5,1.5Z" style="fill:#293a4c; stroke-width:0px;"/><circle cx="29.01329" cy="41.02693" r="1.51273" style="fill:#293a4c; stroke-width:0px;"/><circle cx="36.01329" cy="41.02693" r="1.51273" style="fill:#293a4c; stroke-width:0px;"/><circle cx="43.01329" cy="41.02693" r="1.51273" style="fill:#293a4c; stroke-width:0px;"/><circle cx="49.98671" cy="41.02693" r="1.51273" style="fill:#293a4c; stroke-width:0px;"/><circle cx="29.01329" cy="50.97778" r="1.51273" style="fill:#293a4c; stroke-width:0px;"/><circle cx="36.01329" cy="50.97778" r="1.51273" style="fill:#293a4c; stroke-width:0px;"/><circle cx="43.01329" cy="50.97778" r="1.51273" style="fill:#293a4c; stroke-width:0px;"/><circle cx="49.98671" cy="50.97778" r="1.51273" style="fill:#293a4c; stroke-width:0px;"/></svg>