<svg id="Capa_1" enable-background="new 0 0 509.806 509.806" height="512" viewBox="0 0 509.806 509.806" width="512" xmlns="http://www.w3.org/2000/svg"><g><path d="m195.019 127.445c-49.626 0-90 40.374-90 90s40.374 90 90 90 90-40.374 90-90-40.374-90-90-90zm0 165c-41.355 0-75-33.645-75-75s33.645-75 75-75 75 33.645 75 75-33.645 75-75 75z"/><path d="m136.499 208.827 14.912 1.624c.436-4.003 1.823-8.236 3.658-11.841l-13.514-6.511c.001 0-4.274 9.176-5.056 16.728z"/><path d="m151.041 177.878 11.101 10.089c2.694-3.211 6.182-6.09 9.804-8.178l-8.069-12.651c-4.846 2.913-9.009 6.622-12.836 10.74z"/><path d="m429.567 119.125c-51.827-.001-95.735-19.568-138.374-46.951-41.056-26.367-80.978-49.097-131.434-50.9-51.082-1.825-100.235 21.194-130.491 62.652-33.036 45.267-33.861 101.819-23.139 154.877 14.192 70.233 53.195 134.35 109.148 179.138 35.202 29.228 68.482 57.881 114.993 67.193 68.627 13.74 140.659-13.7 182.555-69.804 19.142-25.635 31.368-57.361 45.169-86.03 14.439-29.996 29.092-59.9 43.322-89.995 25.545-54.028-8.913-120.179-71.749-120.18zm59.871 110.269c-15.957 33.149-31.914 66.297-47.871 99.446-21.101 43.835-39.2 87.82-81.435 116.272-36.33 24.474-81.821 33.536-124.825 25.484-34.784-6.513-62.442-24.336-89.114-46.481-23.902-19.845-47.812-39.237-67.37-63.642-27.115-33.835-46.436-73.676-56.226-115.912-8.552-36.898-12.693-79.281-.083-115.754 12.434-35.963 40.007-65.809 74.833-81.122 40.533-17.821 88.092-13.734 128.192 3.323 24.692 10.503 47.02 27.026 69.518 41.475 39.376 25.288 82.579 40.361 129.632 41.593 22.959.601 43.421 7.515 57.813 26.417 14.932 19.612 17.64 46.662 6.936 68.901z"/><path d="m456.129 163.561-9.822 11.337c3.229 2.798 6.183 6.087 8.778 9.775l12.268-8.632c-3.297-4.685-7.073-8.884-11.224-12.48z"/><path d="m136.62 380.53h15v15h-15z" transform="matrix(.639 -.769 .769 .639 -246.483 251.036)"/><path d="m110.54 369.126c3.757 3.5 7.541 6.887 11.457 10.206l9.699-11.442c-3.023-2.562-10.258-9.111-10.935-9.741z"/><path d="m72.686 79.373 9.82 11.338c3.606-3.123 7.316-6.067 11.225-8.809l-8.687-12.229c.001 0-8.635 6.476-12.358 9.7z"/><path d="m118.714 68.889-5.609-13.912c-4.868 1.963-9.623 4.019-14.297 6.401l6.838 13.351s9.736-4.498 13.068-5.84z"/><path d="m145.997 62.429-1.963-14.871c-5.217.687-10.344 1.539-15.47 2.71l3.373 14.616z"/></g></svg>