<?xml version="1.0" encoding="UTF-8"?><svg id="Line" xmlns="http://www.w3.org/2000/svg" viewBox="0 0 64 64"><path d="M50,28.93848c-.62598,0-1.20898-.39355-1.4209-1.01953-.26562-.78418.15527-1.63574.94043-1.90137,4.99707-1.69043,7.98047-4.01172,7.98047-6.21094,0-4.43848-11.02441-13.30664-25.5-13.30664S6.5,15.36816,6.5,19.80664c0,2.19922,2.9834,4.52051,7.98047,6.21094.78516.26562,1.20605,1.11719.94043,1.90137-.26562.78516-1.11621,1.20312-1.90137.94043-6.46094-2.18555-10.01953-5.40039-10.01953-9.05273,0-3.4043,3.30566-7.54492,8.62695-10.80469,5.79004-3.54785,12.84766-5.50195,19.87305-5.50195s14.08301,1.9541,19.87305,5.50195c5.32129,3.25977,8.62695,7.40039,8.62695,10.80469,0,3.65234-3.55859,6.86719-10.01953,9.05273-.15918.05371-.32129.0791-.48047.0791Z" style="fill:#293a4c; stroke-width:0px;"/><path d="M23.00195,60.5c-.07812,0-.15625-.00586-.23633-.01855-9.80176-1.54785-15.89062-5.32324-15.89062-9.85352v-25.85449c0-.82812.67188-1.5,1.5-1.5s1.5.67188,1.5,1.5v25.85449c0,2.37598,4.58887,5.50586,13.35938,6.89062.81836.12891,1.37695.89746,1.24707,1.71582-.11621.73828-.75391,1.26562-1.47949,1.26562Z" style="fill:#293a4c; stroke-width:0px;"/><path d="M47.27051,59.03613c-.63281,0-1.2207-.40234-1.42676-1.03711-.25586-.78809.17578-1.63379.96387-1.88965,4.51367-1.46582,7.31738-3.56543,7.31738-5.48145v-25.85449c0-.82812.67188-1.5,1.5-1.5s1.5.67188,1.5,1.5v25.85449c0,3.4082-3.33496,6.36914-9.3916,8.33496-.15332.0498-.30957.07324-.46289.07324Z" style="fill:#293a4c; stroke-width:0px;"/><path d="M15.9541,17.10352c-.40039,0-.79883-.15918-1.09375-.47266-.56543-.60352-.53906-1.54688.06152-2.11426.16211-.15332,4.03125-3.74609,10.37891-4.17871.81641-.06055,1.54297.56738,1.59863,1.39355.05664.82715-.56738,1.54297-1.39355,1.59863-5.2334.35742-8.49512,3.34082-8.52734,3.37012-.29004.26953-.65723.40332-1.02441.40332Z" style="fill:#293a4c; stroke-width:0px;"/><path d="M41,60.5c-.35938,0-.71484-.12891-.99512-.37695l-8.00488-7.0918-8.00488,7.0918c-.44336.39258-1.07324.48633-1.61035.24512-.53906-.24219-.88477-.77832-.88477-1.36816V24.36328c0-.42969.18359-.83789.50488-1.12305l9-7.97363c.56836-.50195,1.42188-.50195,1.99023,0l9,7.97363c.32129.28516.50488.69336.50488,1.12305v34.63672c0,.58984-.3457,1.12598-.88477,1.36816-.19727.08887-.40625.13184-.61523.13184ZM32,49.52734c.35547,0,.71094.12598.99512.37695l6.50488,5.7627v-30.62891l-7.5-6.64453-7.5,6.64453v30.62891l6.50488-5.7627c.28418-.25098.63965-.37695.99512-.37695Z" style="fill:#293a4c; stroke-width:0px;"/><path d="M32,47.20703c-.82812,0-1.5-.67188-1.5-1.5v-21.70703c0-.82812.67188-1.5,1.5-1.5s1.5.67188,1.5,1.5v21.70703c0,.82812-.67188,1.5-1.5,1.5Z" style="fill:#293a4c; stroke-width:0px;"/><circle cx="26.91605" cy="46.02138" r="1.51273" style="fill:#293a4c; stroke-width:0px;"/><circle cx="27.57601" cy="37.05047" r="1.51273" style="fill:#293a4c; stroke-width:0px;"/><circle cx="26.91605" cy="29.85573" r="1.51273" style="fill:#293a4c; stroke-width:0px;"/><circle cx="37.29303" cy="27.4383" r="1.51273" style="fill:#293a4c; stroke-width:0px;"/><circle cx="36.1727" cy="32.67803" r="1.51273" style="fill:#293a4c; stroke-width:0px;"/><circle cx="36.84035" cy="48.58404" r="1.51273" style="fill:#293a4c; stroke-width:0px;"/></svg>