<svg id="Capa_1" enable-background="new 0 0 511.001 511.001" height="512" viewBox="0 0 511.001 511.001" width="512" xmlns="http://www.w3.org/2000/svg"><g><path d="m480.335 293.295v-30.351h-15v-15.351h30.229v-44.733h-134.98v29.733h-29.916v45.351h15.2c-.118.819-.2 1.649-.2 2.5v12.851h-30.104v-120.58h-299.98v120.581h-15.584v44.991h390.501v-15h-375.501v-14.991h481.001v14.991h-60.5v15h75.5v-44.991h-30.666zm-104.751-75.435h104.979v14.733h-67.603c-12.384 0-22.459 10.075-22.459 22.458v.434c0 4.113-3.346 7.458-7.458 7.458-4.113 0-7.459-3.346-7.459-7.458zm-29.916 29.734h14.916v15.351h-14.916zm15 30.35h22.375c12.384 0 22.458-10.075 22.458-22.458v-.434c0-3.439 2.343-6.334 5.515-7.193l39.319-.223v15.308h-29.834v15h44.834v15.351h-104.667zm-330.084-90.229h269.979v105.581h-45.063v-90.518h-15v90.518h-209.916z"/><path d="m405.501 323.286h15v15h-15z"/><path d="m45.501 202.777h15v15h-15z"/><path d="m45.501 233.005h15v15h-15z"/></g></svg>