<svg id="Capa_1" enable-background="new 0 0 512 512" height="512" viewBox="0 0 512 512" width="512" xmlns="http://www.w3.org/2000/svg"><g><path d="m356.536 263.037c-10.432 0-20.566 1.297-30.257 3.726-7.36-20.405-14.31-42.55-13.448-59.514.217-4.195 4.372-16.2 10.584-30.581 9.028-20.882-6.335-44.246-29.044-44.246h-56.96v-26.93c0-.206.082-.406.223-.547l65.441-65.431c5.128-5.15 5.122-13.515-.011-18.646l-16.999-16.997c-2.496-2.497-5.809-3.871-9.333-3.871h-.015c-3.524.004-6.835 1.383-9.311 3.869l-72.376 72.376c-5.185 5.199-8.04 12.098-8.04 19.427v36.75h-28.369c-4.143 0-7.5 3.357-7.5 7.5s3.357 7.5 7.5 7.5h28.369v67.501h-95.615c.161-2.879.188-5.696.047-8.438-.32-6.373-4.286-18.406-11.785-35.77-4.772-11.035 3.346-23.293 15.275-23.293h28.71c4.143 0 7.5-3.357 7.5-7.5s-3.357-7.5-7.5-7.5h-28.71c-22.702 0-38.08 23.35-29.045 44.243 7.548 17.476 10.414 27.392 10.574 30.579 1.226 24.001-12.55 57.45-21.07 80.077-11.99 31.844-24.389 64.771-24.389 93.409 0 28.06 13.343 57.822 36.606 81.658 23.645 24.227 53.745 38.121 82.583 38.121h88.93c15.116 0 30.868-3.875 45.835-11.219 20.265 14.299 44.968 22.71 71.6 22.71 32.889 0 63.906-12.707 87.337-35.78 2.951-2.906 2.987-7.654.081-10.606-2.907-2.952-7.655-2.987-10.606-.081-20.607 20.291-47.886 31.467-76.812 31.467-60.368 0-109.481-49.113-109.481-109.481s49.113-109.481 109.481-109.481 109.481 49.113 109.481 109.481c0 18.026-4.471 35.891-12.93 51.661-1.958 3.65-.586 8.196 3.064 10.154 3.649 1.959 8.196.586 10.154-3.064 9.624-17.943 14.711-38.26 14.711-58.751.002-68.64-55.84-124.482-124.48-124.482zm-62.165-115.615c11.971 0 20.011 12.332 15.275 23.296-11.686 27.05-12.344 33.827-11.741 44.205h-60.494v-67.501zm-92.38-51.75c0-3.329 1.3-6.467 3.654-8.826l71.09-71.091 14.443 14.442-64.152 64.143c-2.934 2.935-4.615 7-4.615 11.152v26.93h-20.42zm0 51.75h20.42v67.501h-20.42zm30.064 240.097c0 35.987 15.356 68.45 39.852 91.198-10.916 4.46-22.087 6.793-32.805 6.793h-88.93c-24.821 0-51.009-12.246-71.849-33.598-20.251-20.749-32.341-47.358-32.341-71.182 0-25.908 11.909-57.536 23.427-88.123 8.359-22.198 16.387-43.533 20.043-62.685h210.396c2.589 13.568 7.259 27.864 12.116 41.371-46.687 17.966-79.909 63.285-79.909 116.226z"/><path d="m356.536 332.726c-4.143 0-7.5 3.357-7.5 7.5v9.734c0 4.143 3.357 7.5 7.5 7.5s7.5-3.357 7.5-7.5v-9.734c0-4.143-3.357-7.5-7.5-7.5z"/><path d="m328.398 348.773c-2.93-2.928-7.678-2.928-10.607 0-2.929 2.93-2.929 7.678 0 10.607l6.884 6.884c1.465 1.464 3.385 2.196 5.304 2.196s3.839-.732 5.304-2.196c2.929-2.93 2.929-7.678 0-10.607z"/><path d="m326.478 387.519c0-4.143-3.357-7.5-7.5-7.5h-9.734c-4.143 0-7.5 3.357-7.5 7.5s3.357 7.5 7.5 7.5h9.734c4.142 0 7.5-3.358 7.5-7.5z"/><path d="m324.675 408.772-6.884 6.884c-2.929 2.93-2.929 7.678 0 10.607 1.465 1.464 3.385 2.196 5.304 2.196s3.839-.732 5.304-2.196l6.884-6.884c2.929-2.93 2.929-7.678 0-10.607-2.93-2.927-7.679-2.927-10.608 0z"/><path d="m356.536 417.577c-4.143 0-7.5 3.357-7.5 7.5v9.734c0 4.143 3.357 7.5 7.5 7.5s7.5-3.357 7.5-7.5v-9.734c0-4.142-3.357-7.5-7.5-7.5z"/><path d="m388.397 408.772c-2.93-2.928-7.678-2.928-10.607 0-2.929 2.93-2.929 7.678 0 10.607l6.884 6.884c1.465 1.464 3.385 2.196 5.304 2.196s3.839-.732 5.304-2.196c2.929-2.93 2.929-7.678 0-10.607z"/><path d="m403.829 380.019h-9.734c-4.143 0-7.5 3.357-7.5 7.5s3.357 7.5 7.5 7.5h9.734c4.143 0 7.5-3.357 7.5-7.5s-3.357-7.5-7.5-7.5z"/><path d="m430.927 414.743c18.91-13.218 18.91-41.236-.001-54.449-1.958-1.369-2.954-3.773-2.537-6.127 4.026-22.718-15.786-42.529-38.501-38.501-2.357.415-4.758-.579-6.127-2.537-13.214-18.912-41.232-18.911-54.449 0-1.369 1.958-3.771 2.953-6.127 2.537-22.71-4.035-42.528 15.785-38.5 38.501.417 2.354-.579 4.758-2.538 6.127-18.912 13.214-18.911 41.232 0 54.449 1.959 1.369 2.954 3.772 2.537 6.126-4.025 22.716 15.784 42.532 38.501 38.501 2.355-.413 4.758.58 6.127 2.539 13.218 18.91 41.236 18.91 54.449-.001 1.369-1.959 3.775-2.951 6.126-2.538 22.715 4.031 42.528-15.782 38.502-38.502-.417-2.351.579-4.756 2.538-6.125zm-8.593-12.295c-6.727 4.7-10.147 12.958-8.715 21.038 1.038 5.861-.849 11.867-5.049 16.066-4.199 4.201-10.205 6.086-16.065 5.048-8.076-1.433-16.339 1.988-21.039 8.716-7.252 10.376-22.608 10.375-29.859 0-3.989-5.71-10.543-9.038-17.375-9.038-1.217 0-2.443.105-3.665.322-12.453 2.216-23.322-8.643-21.113-21.112 1.434-8.08-1.987-16.339-8.714-21.04-4.879-3.409-7.791-8.991-7.791-14.93s2.912-11.521 7.79-14.93c6.727-4.7 10.148-12.959 8.716-21.04-2.21-12.464 8.644-23.32 21.113-21.113 8.074 1.431 16.339-1.988 21.039-8.714 3.409-4.879 8.991-7.791 14.93-7.791s11.521 2.912 14.93 7.79c4.699 6.727 12.958 10.149 21.039 8.715 5.859-1.036 11.866.848 16.065 5.049 4.2 4.199 6.087 10.205 5.049 16.065-1.433 8.08 1.988 16.339 8.715 21.039 4.878 3.409 7.79 8.99 7.79 14.93-.001 5.939-2.913 11.521-7.791 14.93z"/><path d="m383.094 368.461c1.919 0 3.839-.732 5.304-2.196l6.884-6.884c2.929-2.93 2.929-7.678 0-10.607-2.93-2.928-7.678-2.928-10.607 0l-6.884 6.884c-2.929 2.93-2.929 7.678 0 10.607 1.464 1.464 3.384 2.196 5.303 2.196z"/></g></svg>