<svg id="Capa_1" enable-background="new 0 0 512 512" height="512" viewBox="0 0 512 512" width="512" xmlns="http://www.w3.org/2000/svg"><g><path d="m512 210.175c0-.033 0-.079-.001-.123-.045-92.223-75.112-167.239-167.361-167.239-31.521 0-62.06 8.792-88.645 25.46-25.719-16.122-56.103-25.459-88.631-25.459-92.284-.001-167.362 75.078-167.362 167.361 0 .379.001.758.012 1.138.114 34.837 5.818 67.724 16.956 97.753 1.121 3.023 3.986 4.894 7.033 4.894.866 0 1.747-.151 2.607-.47 3.884-1.44 5.864-5.757 4.424-9.641-10.532-28.397-15.922-59.581-16.02-92.685 0-.075-.001-.151-.004-.227-.009-.255-.007-.509-.007-.763 0-84.013 68.349-152.361 152.361-152.361 84.013 0 152.362 68.349 152.362 152.361s-68.35 152.361-152.362 152.361c-17.562 0-31.85-14.288-31.85-31.85s14.288-31.85 31.85-31.85c13.744 0 26.768-3.144 38.39-8.75.07-.033.142-.058.211-.094.046-.023.086-.053.131-.077 29.199-15.067 49.928-44.736 49.928-79.745 0-48.889-39.773-88.662-88.662-88.662-48.887 0-88.66 39.772-88.66 88.66 0 48.443 14.465 90.564 41.85 122.044.81 25.127 21.49 45.323 46.811 45.323 5.5 0 10.936-.275 16.301-.796 22.274 8.991 47.236 13.75 72.338 13.75 25.572 0 49.898-4.631 72.347-13.744 5.391.524 10.827.794 16.293.794 25.326 0 46.008-20.202 46.812-45.335 15.218-17.487 26.471-38.173 33.446-61.551 1.184-3.969-1.074-8.146-5.044-9.331-3.967-1.181-8.146 1.074-9.331 5.044-5.105 17.114-12.708 32.618-22.651 46.28-7.081-16.901-23.79-28.807-43.232-28.807-8.611 0-16.974-1.468-24.955-4.358 9.652-21.13 15.039-44.601 15.039-69.307 0-24.708-5.387-48.18-15.04-69.31 7.968-2.887 16.33-4.353 24.954-4.353 40.617 0 73.662 33.045 73.662 73.663 0 7.817-.402 15.552-1.196 22.987-.439 4.119 2.543 7.814 6.662 8.254.271.028.539.043.805.043 3.785 0 7.038-2.856 7.449-6.705.85-7.962 1.28-16.232 1.28-24.579 0-48.889-39.773-88.663-88.662-88.663-11.031 0-21.711 1.989-31.845 5.914-11.031-19.312-25.8-36.221-43.31-49.748 22.861-13.023 48.625-19.865 75.155-19.865 83.996 0 152.346 68.32 152.361 152.296 0 76.683-28.176 138.512-74.103 181.06-43.887 40.639-103.158 63.02-166.896 63.02s-123.01-22.381-166.896-63.019c-17.644-16.346-32.454-35.346-44.02-56.471-1.989-3.632-6.546-4.967-10.18-2.977-3.633 1.988-4.966 6.547-2.977 10.18 12.344 22.546 28.151 42.824 46.984 60.272 46.668 43.215 109.56 67.014 177.088 67.014s130.42-23.799 177.089-67.015c49.493-45.848 78.912-111.925 78.912-191.996zm-270.978-.003c0 26.526-14.097 49.816-35.187 62.789-8.99-19.744-13.555-40.827-13.555-62.791 0-21.955 4.567-43.034 13.56-62.781 21.087 12.973 35.182 36.26 35.182 62.783zm-73.662-73.662c8.764 0 17.173 1.546 24.976 4.367-9.859 21.64-15.056 45.424-15.056 69.293 0 23.876 5.195 47.664 15.051 69.302-7.801 2.82-16.208 4.365-24.969 4.365-19.442 0-36.152 11.906-43.232 28.808-19.955-27.489-30.43-62.585-30.43-102.475 0-40.616 33.044-73.66 73.66-73.66zm88.64 238.98c-14.065 0-28.064-1.619-41.481-4.729 14.771-4.345 28.698-10.676 41.474-18.684.091.057.183.112.275.168 12.957 8.09 26.847 14.309 41.329 18.556-13.339 3.109-27.245 4.689-41.597 4.689zm88.64-76.65c17.562 0 31.851 14.288 31.851 31.851 0 17.562-14.288 31.85-31.851 31.85-25.437 0-51.411-6.402-75.138-19.883 17.503-13.525 32.264-30.43 43.292-49.735 10.15 3.926 20.831 5.917 31.846 5.917z"/><path d="m238.44 429.729c1.919 0 3.839-.732 5.303-2.196 2.929-2.93 2.929-7.678 0-10.607l-3.816-3.816c-2.929-2.928-7.678-2.928-10.606 0-2.929 2.93-2.929 7.678 0 10.607l3.816 3.816c1.464 1.464 3.384 2.196 5.303 2.196z"/><path d="m437.738 283.68c-2.929 2.93-2.929 7.678 0 10.607l3.816 3.816c1.465 1.464 3.385 2.196 5.304 2.196s3.839-.732 5.304-2.196c2.929-2.93 2.929-7.678 0-10.607l-3.816-3.816c-2.93-2.928-7.678-2.928-10.608 0z"/><path d="m262.908 153.679c1.919 0 3.839-.732 5.304-2.196 2.929-2.93 2.929-7.678 0-10.607l-3.816-3.816c-2.93-2.928-7.678-2.928-10.607 0-2.929 2.93-2.929 7.678 0 10.607l3.816 3.816c1.464 1.463 3.384 2.196 5.303 2.196z"/><path d="m65.805 138.133c1.464 1.464 3.384 2.196 5.303 2.196s3.839-.732 5.303-2.196c2.929-2.93 2.929-7.678 0-10.607l-3.816-3.816c-2.929-2.928-7.678-2.928-10.606 0-2.929 2.93-2.929 7.678 0 10.607z"/><path d="m436.688 123.709c-2.93-2.928-7.678-2.928-10.607 0-2.929 2.93-2.929 7.678 0 10.607l3.816 3.816c1.465 1.464 3.385 2.196 5.304 2.196s3.839-.732 5.304-2.196c2.929-2.93 2.929-7.678 0-10.607z"/><path d="m241.151 282.181-3.816 3.815c-2.929 2.929-2.93 7.677-.001 10.606 1.465 1.465 3.384 2.197 5.304 2.197 1.919 0 3.838-.732 5.303-2.196l3.816-3.815c2.929-2.929 2.93-7.677.001-10.606s-7.677-2.93-10.607-.001z"/><path d="m317.544 80.119-3.816 3.816c-2.929 2.93-2.929 7.678 0 10.607 1.465 1.464 3.385 2.196 5.304 2.196s3.839-.732 5.304-2.196l3.816-3.816c2.929-2.93 2.929-7.678 0-10.607-2.93-2.928-7.678-2.928-10.608 0z"/><path d="m336.874 409.575 3.815-3.816c2.929-2.93 2.928-7.678-.001-10.606-2.931-2.932-7.68-2.929-10.606.001l-3.815 3.816c-2.929 2.93-2.929 7.678.001 10.606 1.465 1.465 3.384 2.196 5.303 2.196s3.839-.732 5.303-2.197z"/><path d="m459.633 219.341c1.919 0 3.839-.732 5.304-2.196l3.816-3.816c2.929-2.93 2.929-7.678 0-10.607-2.93-2.928-7.678-2.928-10.607 0l-3.816 3.816c-2.929 2.93-2.929 7.678 0 10.607 1.464 1.463 3.384 2.196 5.303 2.196z"/><path d="m55.987 309.098c1.465 1.465 3.384 2.197 5.304 2.197 1.919 0 3.838-.732 5.303-2.196l3.816-3.815c2.929-2.929 2.93-7.677.001-10.606s-7.677-2.93-10.607-.001l-3.816 3.815c-2.928 2.928-2.929 7.676-.001 10.606z"/><path d="m169.794 86.542 3.816-3.816c2.929-2.929 2.928-7.678-.001-10.606s-7.678-2.929-10.606.001l-3.816 3.816c-2.929 2.929-2.928 7.678.001 10.606 1.464 1.464 3.383 2.196 5.303 2.196s3.839-.732 5.303-2.197z"/></g></svg>