<svg id="icons" xmlns="http://www.w3.org/2000/svg" viewBox="0 0 64 64"><defs><style>.cls-1{fill:none;stroke:#000;stroke-linecap:round;stroke-linejoin:round;stroke-width:2px;}</style></defs><title>15</title><g id="coffee_machine_2"><path class="cls-1" d="M24.12008,54.41c-3.46283-2.37553-5.68153-7.12661-5.68153-11.947v-1.762a1.036,1.036,0,0,1,.97534-1.08747H38.57713a1.036,1.036,0,0,1,.97533,1.08747v1.762c0,4.82043-2.21351,9.57151-5.67634,11.947Z"/><path class="cls-1" d="M39.55245,42.11436c3.25993.55431,4.88966,3.09456,3.94216,5.43617-.8801,2.175-2.89019,3.54395-6.13493,3.04217"/><path class="cls-1" d="M21.1202,20.31583v7.28369a2.77528,2.77528,0,0,0,2.574,2.93992h9.37058a2.77528,2.77528,0,0,0,2.574-2.93992V20.31583"/><polyline class="cls-1" points="26.415 30.539 26.415 34.459 30.952 34.459 30.952 30.539"/><line class="cls-1" x1="35.6388" y1="27.692" x2="46.94754" y2="27.692"/><path class="cls-1" d="M46.94754,25.36928H57.94845A2.05155,2.05155,0,0,1,60,27.42083v.54233a2.05155,2.05155,0,0,1-2.05155,2.05155H46.94754a0,0,0,0,1,0,0V25.36928a0,0,0,0,1,0,0Z"/><path class="cls-1" d="M4,54.41H54.37908a0,0,0,0,1,0,0v0a5.59,5.59,0,0,1-5.59,5.59H9.59A5.59,5.59,0,0,1,4,54.41v0A0,0,0,0,1,4,54.41Z"/><rect class="cls-1" x="4" y="4" width="50.37908" height="16.31583" rx="5"/><line class="cls-1" x1="7.46716" y1="20.31583" x2="7.46716" y2="54.40996"/><line class="cls-1" x1="50.91248" y1="54.41512" x2="50.91248" y2="30.01678"/><line class="cls-1" x1="50.91248" y1="25.37487" x2="50.91248" y2="20.31405"/><ellipse class="cls-1" cx="29.18954" cy="12.15792" rx="4.50719" ry="4.41539"/><line class="cls-1" x1="29.18954" y1="12.15792" x2="26.02173" y2="9.05462"/><line class="cls-1" x1="19.27007" y1="12.15792" x2="9.77859" y2="12.15792"/><line class="cls-1" x1="48.60049" y1="12.15792" x2="39.10901" y2="12.15792"/></g></svg>