<?xml version="1.0" encoding="UTF-8"?><svg id="Line" xmlns="http://www.w3.org/2000/svg" viewBox="0 0 64 64"><path d="M51,57H13c-6.12598,0-9.5-3.01855-9.5-8.5,0-1.09766.34277-2.81006,1.08545-4.09033-.87109-1.375-1.05518-2.75098-1.08545-4.88965,0-3.05371,2.46729-5.521,5.5-5.521.82861,0,1.5.67139,1.5,1.5s-.67139,1.5-1.5,1.5c-1.37842,0-2.5,1.12158-2.5,2.5.03174,2.22998.22754,2.93408,1.10303,3.94336.26465.30566.39502.70508.36133,1.10791s-.22852.77539-.54053,1.03223c-.38623.31885-.92383,1.84814-.92383,2.91748,0,2.56055.73877,5.5,6.5,5.5h38c5.76123,0,6.5-2.93945,6.5-5.5,0-1.06934-.5376-2.59863-.92383-2.91748-.31201-.25684-.50684-.62939-.54053-1.03223s.09668-.80225.36133-1.10791c.87549-1.00928,1.07129-1.71338,1.10303-3.96436.01172-.82129.68115-1.479,1.49951-1.479h.02148c.82861.01172,1.49072.69287,1.479,1.521-.03027,2.13867-.21436,3.51465-1.08545,4.88965.74268,1.28027,1.08545,2.99268,1.08545,4.09033,0,5.48145-3.37402,8.5-9.5,8.5Z" style="fill:#293a4c; stroke-width:0px;"/><path d="M53,28c-.82861,0-1.5-.67139-1.5-1.5s.67139-1.5,1.5-1.5c2.48145,0,4.5-2.01855,4.5-4.5v-4c0-4.13574-3.36426-7.5-7.5-7.5H14c-4.13574,0-7.5,3.36426-7.5,7.5v4c0,.38184.04785.76074.14209,1.12695.20654.80225-.27637,1.62012-1.07861,1.82666-.80273.20654-1.62012-.27637-1.82666-1.07861-.15723-.60986-.23682-1.24072-.23682-1.875v-4c0-5.78955,4.71045-10.5,10.5-10.5h36c5.78955,0,10.5,4.71045,10.5,10.5v4c0,4.13574-3.36426,7.5-7.5,7.5Z" style="fill:#293a4c; stroke-width:0px;"/><path d="M30,47H12c-.82861,0-1.5-.67139-1.5-1.5s.67139-1.5,1.5-1.5h18c.82861,0,1.5.67139,1.5,1.5s-.67139,1.5-1.5,1.5Z" style="fill:#293a4c; stroke-width:0px;"/><path d="M52,47h-2c-.82861,0-1.5-.67139-1.5-1.5s.67139-1.5,1.5-1.5h2c.82861,0,1.5.67139,1.5,1.5s-.67139,1.5-1.5,1.5Z" style="fill:#293a4c; stroke-width:0px;"/><path d="M18.62109,16.48926h-3.38232c-.82861,0-1.5-.67139-1.5-1.5s.67139-1.5,1.5-1.5h3.38232c.82861,0,1.5.67139,1.5,1.5s-.67139,1.5-1.5,1.5Z" style="fill:#293a4c; stroke-width:0px;"/><path d="M36.74512,16.48926h-11.24805c-.82861,0-1.5-.67139-1.5-1.5s.67139-1.5,1.5-1.5h11.24805c.82861,0,1.5.67139,1.5,1.5s-.67139,1.5-1.5,1.5Z" style="fill:#293a4c; stroke-width:0px;"/><path d="M42.00488,45c-.08105,0-.1626-.00195-.24463-.00635-2.38867-.125-4.26025-2.17383-4.26025-4.66357v-1.83008c0-.82715-.67285-1.5-1.5-1.5H9.5c-3.30859,0-6-2.69141-6-6s2.69141-6,6-6h45c3.30859,0,6,2.69141,6,6s-2.69141,6-6,6h-6.5c-.82715,0-1.5.67285-1.5,1.5v2c0,1.229-.51123,2.41895-1.40283,3.26465-.84473.80176-1.93506,1.23535-3.09229,1.23535ZM9.5,28c-1.6543,0-3,1.3457-3,3s1.3457,3,3,3h26.5c2.48145,0,4.5,2.01855,4.5,4.5v1.83008c0,.87842.63574,1.62646,1.41748,1.66748.40869.02051.81348-.12354,1.11475-.40918.30176-.28613.46777-.67285.46777-1.08838v-2c0-2.48145,2.01855-4.5,4.5-4.5h6.5c1.6543,0,3-1.3457,3-3s-1.3457-3-3-3H9.5Z" style="fill:#293a4c; stroke-width:0px;"/></svg>