<svg id="Capa_1" enable-background="new 0 0 512 512" height="512" viewBox="0 0 512 512" width="512" xmlns="http://www.w3.org/2000/svg"><g><path d="m385.613 196.651c-6.833-14.305-20.49-26.914-39.921-36.751.594-7.644-.769-15.499-3.901-22.329-.876-1.916-1.893-3.774-3.021-5.579v-119.142c0-7.085-5.765-12.85-12.85-12.85h-24.59c-7.08 0-12.84 5.765-12.84 12.85v90.203c-8.169-1.034-17.265-1.181-27.965-.488-4.133.268-7.268 3.835-7 7.969.268 4.133 3.812 7.267 7.969 7 13.01-.843 26.314-.637 38.579 3.349 10.729 3.486 19.52 9.703 24.95 17.484.017.025.033.051.05.075 1.194 1.72 2.23 3.514 3.081 5.374 2.272 4.955 3.14 10.74 2.445 16.293-.642 5.127 2.011 10.078 6.605 12.322 13.779 6.719 24.377 15.03 30.89 24.046h-224.225c5.729-7.951 13.941-14.413 22.431-19.47 13.519-8.034 30.79-14.266 50.032-17.858 4.072-.76 6.756-4.677 5.996-8.749s-4.678-6.754-8.749-5.996c-18.608 3.474-35.341 9.117-49.304 16.497-7.318-9.036-11.691-20.261-12.151-31.555-.509-12.506 3.727-25.251 11.684-35.378 2.937 7.473 8.78 14.679 15.775 19.295 13.527 8.917 30.65 8.919 47.139 7.594 4.129-.332 7.207-3.948 6.875-8.077-.332-4.128-3.957-7.199-8.077-6.875-13.815 1.11-27.942 1.254-37.678-5.164-4.874-3.216-9.129-8.749-10.591-13.769-1.359-4.664-5.169-8.212-9.944-9.259-4.836-1.06-9.851.594-13.085 4.316-11.556 13.287-17.783 30.755-17.084 47.927.564 13.837 5.661 27.566 14.238 38.812-5.295 3.732-9.997 7.772-14.027 12.086-.151.162-.29.331-.424.503-4.45 4.844-7.997 9.968-10.558 15.298-7.785 1.102-13.798 7.791-13.798 15.875v60.32c0 5.531 1.859 10.99 5.236 15.371l18.862 24.476c1.839 2.387 3.014 5.227 3.399 8.215l9.139 71.035c.528 4.108 4.283 7.01 8.396 6.481 4.108-.528 7.01-4.287 6.481-8.396l-9.139-71.036c-.724-5.622-2.935-10.966-6.395-15.456l-18.862-24.477c-1.365-1.771-2.117-3.979-2.117-6.215v-3.009h48.596c5.464 0 9.91 4.446 9.91 9.911v66.997c0 14.506 11.755 26.855 26.375 26.855 14.496 0 26.346-11.731 26.346-26.36v-53.652c0-5.468 4.449-9.917 9.917-9.917s9.917 4.449 9.917 9.917v16.195c0 14.519 11.16 26.289 25.406 26.795 14.924.55 27.314-11.387 27.314-26.343v-10.875c0-16.279 13.244-29.522 29.522-29.522h43.563v3.009c0 2.236-.752 4.443-2.117 6.215l-18.862 24.477c-3.459 4.489-5.67 9.834-6.394 15.456l-22.094 171.728c-.46 3.577-3.527 6.274-7.133 6.274h-143.668c-3.606 0-6.672-2.697-7.133-6.274l-8.47-65.835c-.528-4.108-4.29-7.012-8.396-6.481-4.108.528-7.01 4.287-6.481 8.396l8.47 65.835c1.42 11.037 10.882 19.36 22.01 19.36h143.665c11.128 0 20.59-8.323 22.01-19.36l22.094-171.728c.385-2.988 1.56-5.829 3.399-8.215l18.862-24.477c3.376-4.381 5.236-9.84 5.236-15.371v-60.32c0-8.091-6.024-14.785-13.82-15.878zm-80.905-90.034c-.403-.131-.812-.251-1.218-.376v-91.241h20.28v101.212c-5.587-4.03-12.012-7.304-19.062-9.595zm36.162 148.224c-24.55 0-44.522 19.973-44.522 44.522v10.875c0 6.426-5.309 11.577-11.781 11.353-6.032-.214-10.939-5.51-10.939-11.805v-16.195c0-13.739-11.177-24.917-24.917-24.917s-24.917 11.178-24.917 24.917v53.652c0 6.379-5.254 11.564-11.755 11.354-6.046-.202-10.965-5.517-10.965-11.848v-66.997c0-13.736-11.175-24.911-24.91-24.911h-48.596v-42.311c0-.581.472-1.053 1.053-1.053h254.76c.581 0 1.053.472 1.053 1.053v42.311z"/></g></svg>