<svg id="Capa_1" enable-background="new 0 0 509.963 509.963" height="512" viewBox="0 0 509.963 509.963" width="512" xmlns="http://www.w3.org/2000/svg"><g><path d="m454.369 43.951 10.98-10.22c-3.764-4.043-7.877-7.809-12.225-11.191l-9.211 11.84c3.719 2.892 7.237 6.112 10.456 9.571z"/><path d="m475.819 46.973-12.471 8.335c10.718 16.036 16.383 35.365 16.383 55.9 0 39.659-24.445 73.026-59.778 89.221v294.534h-330.457v-294.745c-34.739-16.51-58.997-48.95-59.262-88.348-.299-44.534 32.075-84.379 75.287-94.399 24.48-5.676 48.705.268 72.595 5.648 24.982 5.627 51.116 13.864 76.894 13.672 25.493-.19 51.464-8.311 76.21-13.783 33.113-7.322 67.229-13.869 99.055 2.638l6.906-13.315c-55.027-28.542-111.739 1.276-167.608 8.464-54.913 7.067-106.892-28.971-162.014-19.056-52.463 9.436-92.682 56.751-92.324 110.232.274 40.587 23.398 78.633 59.262 97.611v300.381h360.456v-300.114c36.468-19.078 59.778-57.278 59.778-98.641 0-23.512-6.54-45.724-18.912-64.235z"/><path d="m382.451 30.338c-37.259 1.959-72.345 14.284-108.958 20.264-48.819 7.974-94.94-19.367-143.309-20.231-45.177-.806-84.675 35.047-84.564 81.036.088 36.089 24.388 67.77 58.605 77.557v184.499h15v-196.502c-14.906-3.044-28.291-8.196-39.256-19.186-12.21-12.238-19.307-29.101-19.349-46.403-.057-23.434 12.984-45.334 33.2-57.035 19.18-11.102 41.492-10.32 62.515-5.736 21.371 4.661 42.683 9.615 64.022 14.421 17.822 4.015 35.827 5.373 53.974 2.633 9.754-1.473 19.409-3.971 29.033-6.099 22.982-5.081 46.061-11.631 69.582-13.538 18.605-1.508 37.894 2.174 53.001 13.763 15.993 12.269 23.397 31.641 23.397 51.427 0 35.51-26.777 60.216-60.119 65.891v286.865h-270v-45.501h-15v60.501h299.999v-289.601c35.188-9.281 60.119-41.2 60.119-78.155 0-21.418-7.2-42.66-22.774-57.764-15.774-15.297-37.521-22.166-59.118-23.106z"/><path d="m104.225 388.463h15v15h-15z"/><path d="m162.529 208.963h75v15h-75z" transform="matrix(.707 -.707 .707 .707 -94.476 204.856)"/><path d="m153.977 230.412h135v15h-135z" transform="matrix(.707 -.707 .707 .707 -103.361 226.306)"/><path d="m268.594 315.029h75v15h-75z" transform="matrix(.707 -.707 .707 .707 -138.409 310.906)"/><path d="m217.853 294.288h135v15h-135z" transform="matrix(.707 -.707 .707 .707 -129.819 290.168)"/><path d="m156.174 278.141h120.001v15h-120.001z" transform="matrix(.707 -.707 .707 .707 -138.663 236.52)"/><path d="m267.011 219.805h15v15h-15z" transform="matrix(.707 -.707 .707 .707 -80.325 260.701)"/><path d="m286.027 193.289h30v15h-30z" transform="matrix(.707 -.707 .707 .707 -53.807 271.684)"/><path d="m190.803 331.411h30.001v15h-30.001z" transform="matrix(.707 -.707 .707 .707 -179.372 244.808)"/><path d="m224.82 304.895h15v15h-15z" transform="matrix(.707 -.707 .707 .707 -152.854 255.791)"/><path d="m230.656 246.558h120v15h-120z" transform="matrix(.707 -.707 .707 .707 -94.515 279.939)"/><path d="m80.66 86.263 13.14 7.233c1.985-3.607 4.594-6.894 7.752-9.768l-10.098-11.092c-4.379 3.987-8.012 8.572-10.794 13.627z"/><path d="m111.938 76.992c3.842-1.612 7.935-2.585 12.162-2.892l-1.088-14.961c-5.854.426-11.531 1.779-16.877 4.021z"/></g></svg>