<svg id="Capa_1" enable-background="new 0 0 512 512" height="512" viewBox="0 0 512 512" width="512" xmlns="http://www.w3.org/2000/svg"><g><path d="m486.799 276.98h-22.115c4.155-10.67 6.326-22.108 6.326-33.65v-13.24c0-7.333-5.971-13.3-13.31-13.3h-2.391c2.519-16.221-1.376-33.967-11.123-49.177-10.584-16.516-26.241-26.988-42.961-28.733-3.692-.384-8.384 1.214-10.413 6.858-.787 2.189-1.049 4.604-1.353 7.4-.987 9.102-2.216 20.429-21.046 24.928-22.157 5.304-47.856 5.704-64.898 13.151-8.642 3.776-14.447 9.181-17.402 16.119-7.295-3.651-7.902-2.997-63.035-20.435.6-.435 2.224-1.644 2.445-1.812 10.406-7.874 20.32-17.669 26.462-29.064 6.878-12.764 6.44-22.632 3.98-27.194-2.128-3.96-5.824-5.679-23.224-6.072-11.469-.262-25.164.304-38.575 1.589-44.066 4.219-106.376 17.245-107.316 61.715-10.991 5.402-22.635 11.913-33.1 19.385-3.371 2.407-4.152 7.091-1.745 10.462s7.091 4.151 10.462 1.745c26.937-19.235 72.14-36.995 93.237-41.154 3.644 20.722-17.969 47.613-32.89 62.486-2.934 2.924-2.941 7.673-.017 10.607 2.914 2.924 7.663 2.951 10.606.017 1.99-1.984 3.888-3.959 5.725-5.93h69.759c19.935 0 36.566 14.375 40.098 33.3h-206.533c-5.242-6.848-7.902-14.164-7.902-21.791 0-4.841 1.691-9.952 5.027-15.192 2.224-3.494 1.194-8.13-2.3-10.354-3.493-2.225-8.13-1.196-10.354 2.299-4.893 7.686-7.373 15.507-7.373 23.247 0 7.6 1.76 14.891 5.236 21.801-13.705.223-24.786 11.433-24.786 25.19 0 13.896 11.305 25.201 25.201 25.201h8.312l27.23 47.374c5.158 8.975 14.794 14.55 25.146 14.55h263.837c4.143 0 7.5-3.358 7.5-7.5s-3.357-7.5-7.5-7.5h-263.837c-4.998 0-9.65-2.692-12.142-7.025l-22.933-39.899h410.373l-22.933 39.898c-2.491 4.333-7.144 7.025-12.142 7.025h-41.386c-4.143 0-7.5 3.358-7.5 7.5s3.357 7.5 7.5 7.5h41.386c10.352 0 19.987-5.575 25.146-14.55l27.23-47.374h8.312c13.896 0 25.201-11.305 25.201-25.201s-11.306-25.2-25.202-25.2zm-30.789-33.65c0 11.676-2.645 23.219-7.669 33.65h-135.153c5.519-14.561 4.894-30.774-2.479-45.19h145.301zm-146.489-38.368c8.435-3.686 20.73-5.443 33.748-7.304 34.954-4.998 57.293-7.787 61.104-42.903.004-.041.009-.082.013-.124 10.408 2.595 20.118 10.068 27.171 21.075 8.126 12.679 11.202 27.956 8.513 41.083h-140.517c-.169-.162-.334-.329-.505-.489.827-5.114 4.037-8.526 10.473-11.338zm-100.631 23.718h-57.152c7.244-9.704 13.564-20.595 16.961-32.173.003-.011.005-.022.008-.033 2.998-10.313 4.341-25.962-2.861-33.023-3.208-3.142-7.445-3.201-18.89-.264-10.794 2.769-26.909 8.143-44.023 15.489.12-.453.247-.905.387-1.354 10.506-33.707 105.948-42.774 139.084-39.075-2.69 21.06-31.954 40.59-51.185 50.494-3.683 1.896-5.131 6.419-3.234 10.102 1.895 3.679 6.419 5.132 10.102 3.233 2.936-1.512 5.768-3.047 8.499-4.604 0 0 55.148 17.188 66.592 20.759 24.737 7.711 36.075 36.133 23.502 58.75h-32.507c-3.678-27.233-27.059-48.301-55.283-48.301zm277.909 83.701h-461.598c-5.625 0-10.201-4.576-10.201-10.201s4.576-10.201 10.201-10.201h461.598c5.625 0 10.201 4.576 10.201 10.201s-4.576 10.201-10.201 10.201z"/></g></svg>