<svg id="icons" xmlns="http://www.w3.org/2000/svg" viewBox="0 0 64 64"><defs><style>.cls-1{fill:none;stroke:#000;stroke-linecap:round;stroke-linejoin:round;stroke-width:2px;}</style></defs><title>49</title><g id="candy"><rect class="cls-1" x="21.81408" y="11.01934" width="20.52672" height="13.95817" rx="3" transform="matrix(0.86603, -0.5, 0.5, 0.86603, -4.70165, 18.45005)"/><path class="cls-1" d="M22.0079,21.08418l-7.22773-.25177a.82106.82106,0,0,0-.73965,1.2311l5.34311,9.25454a.82106.82106,0,0,0,1.436-.025l3.39582-6.38528"/><path class="cls-1" d="M39.78456,10.82083l3.39582-6.38529a.82107.82107,0,0,1,1.436-.025l5.34311,9.25454a.82106.82106,0,0,1-.73965,1.2311l-7.22773-.25177"/><line class="cls-1" x1="23.18911" y1="23.1301" x2="21.05591" y2="24.3617"/><line class="cls-1" x1="43.02153" y1="11.50101" x2="40.88833" y2="12.73262"/><line class="cls-1" x1="35.34303" y1="8.05428" x2="25.44705" y2="27.04097"/><line class="cls-1" x1="38.70783" y1="8.95588" x2="28.81185" y2="27.94256"/><path class="cls-1" d="M24.7509,52.95625l-3.51967,6.60821a.82107.82107,0,0,1-1.436.025l-5.34311-9.25454a.82106.82106,0,0,1,.73965-1.2311l7.48267.25591"/><path class="cls-1" d="M41.48224,43.30291l7.48086.25055a.82107.82107,0,0,0,.73965-1.23111l-5.34311-9.25454a.82107.82107,0,0,0-1.436.025l-3.52339,6.604"/><line class="cls-1" x1="23.44584" y1="51.13326" x2="21.31264" y2="52.36486"/><line class="cls-1" x1="42.76479" y1="40.15829" x2="40.6316" y2="41.38989"/><line class="cls-1" x1="41.71601" y1="48.48808" x2="22.28621" y2="47.64955"/><line class="cls-1" x1="41.87958" y1="45.09143" x2="22.42114" y2="44.25166"/><circle class="cls-1" cx="32.07744" cy="46.32864" r="9.87749"/></g></svg>