<svg id="icons" xmlns="http://www.w3.org/2000/svg" viewBox="0 0 64 64"><defs><style>.cls-1{fill:none;stroke:#000;stroke-linecap:round;stroke-linejoin:round;stroke-width:2px;}</style></defs><title>60</title><g id="delivery"><path class="cls-1" d="M5.863,50.85888a10.63014,10.63014,0,0,1,21.26028,0Z"/><path class="cls-1" d="M24.16438,50.85888a7.67123,7.67123,0,0,1-15.34246,0"/><circle class="cls-1" cx="52.21918" cy="50.85888" r="7.78082"/><line class="cls-1" x1="44.44201" y1="50.85169" x2="27.12331" y2="50.85169"/><path class="cls-1" d="M50.85361,22.10372H46.764a3.06849,3.06849,0,0,0-3.06849,3.06849h0A3.06848,3.06848,0,0,0,46.764,28.2407h4.08959"/><line class="cls-1" x1="43.69553" y1="25.17221" x2="38.09434" y2="21.27395"/><line class="cls-1" x1="46.76402" y1="28.2407" x2="52.21918" y2="43.07806"/><path class="cls-1" d="M16.49315,40.22874S17.69863,33.39139,4,33.39139H27.3729a3.40585,3.40585,0,0,1,3.36737,2.8954l1.264,8.33877h7.793V33.39139h8.86047"/><path class="cls-1" d="M18.45148,5.3603l-.625.57292a2.31425,2.31425,0,0,0-.76707,2.50863,2.472,2.472,0,0,0,.15223.32809h0a2.47265,2.47265,0,0,1,.15224.32809,2.31429,2.31429,0,0,1-.76708,2.50864l-.625.57291"/><path class="cls-1" d="M14.52558,6.15682l-.48773.44708a1.79948,1.79948,0,0,0-.66775,1.59073,1.82934,1.82934,0,0,0,.20528.57531h0a1.82937,1.82937,0,0,1,.20529.57531,1.79948,1.79948,0,0,1-.66775,1.59073l-.48773.44708"/><path class="cls-1" d="M21.81253,6.15682l-.48773.44708a1.79948,1.79948,0,0,0-.66775,1.59073,1.82937,1.82937,0,0,0,.20529.57531h0a1.82934,1.82934,0,0,1,.20528.57531,1.79948,1.79948,0,0,1-.66775,1.59073l-.48772.44708"/><path class="cls-1" d="M13.6952,29.42324C11.19249,27.27669,9.589,22.98358,9.589,18.6278V17.03563c0-.5427.3156-.98264.70491-.98264h13.85c.38931,0,.70491.43994.70491.98264V18.6278c0,4.35578-1.59979,8.64889-4.1025,10.79544Z"/><path class="cls-1" d="M24.84876,18.31285c2.35608.50088,4.29056,2.80184,3.60576,4.91773A4.45563,4.45563,0,0,1,23.264,25.97394"/></g></svg>