<svg id="icons" xmlns="http://www.w3.org/2000/svg" viewBox="0 0 64 64"><defs><style>.cls-1{fill:none;stroke:#000;stroke-linecap:round;stroke-linejoin:round;stroke-width:2px;}</style></defs><title>12</title><g id="milkshake"><path class="cls-1" d="M13.80159,31.94384,8.70047,19.59375H43.60288l1.61524,31.77244A8.21663,8.21663,0,0,1,37.01209,60H20.73989a8.21663,8.21663,0,0,1-8.19916-8.75217Z"/><path class="cls-1" d="M43.78055,23.08861h7.408a4.10832,4.10832,0,0,1,3.93349,5.294L51.695,39.75137a7.1895,7.1895,0,0,1-3.60983,4.32594l-3.15554,1.61392"/><path class="cls-1" d="M14.00746,19.59375s.36194-5.69486,5.5014-5.69486h5.13947"/><path class="cls-1" d="M21.029,13.89889s-.03329-.031-.0899-.08991a3.59155,3.59155,0,0,1,2.64766-6.0434h5.32335A1.96738,1.96738,0,0,0,30.8017,5.12243l-.02229-.04989a.73474.73474,0,0,1,.68352-1.07137c2.69864.14682,6.37068,1.13389,5.27355,5.58289a4.94724,4.94724,0,0,1-4.844,3.66542H31.887S39.922,12.22827,39.922,19.59375"/></g></svg>