<?xml version="1.0" encoding="UTF-8"?><svg id="Line" xmlns="http://www.w3.org/2000/svg" viewBox="0 0 64 64"><path d="M29.4043,31.50684c-1.37793,0-2.81641-.18359-4.25879-.56836-2.3623-.625-4.45312-1.74023-5.98438-3.17969-2.21875.43848-4.68652.34082-7.05078-.28516-3.61816-.96094-6.55957-3.06641-7.86914-5.63281-.85449-1.6748-.97559-3.41797-.35059-5.04102,1.27539-3.32422,5.49316-5.34082,10.48828-5.03027,1.10645.06934,2.19531.24609,3.23438.52637,2.36328.625,4.45117,1.74023,5.97559,3.17871,2.21484-.4375,4.6875-.34082,7.05664.28516,3.59766.95508,6.53223,3.0459,7.85059,5.5957.86133,1.66309.99707,3.39746.39355,5.0166-.00488.01367-.00977.02637-.01465.04004-.00586.01367-.01172.02734-.0166.04102-1.22949,3.1582-5.02344,5.05273-9.4541,5.05371ZM19.64355,24.60742c.42188,0,.83203.17871,1.12109.50293,1.17285,1.32031,3.00293,2.36035,5.15137,2.92871,4.48242,1.19434,9.12891-.0332,10.15039-2.68359.00488-.01465.01074-.0293.01758-.04395.29785-.81152.21289-1.67871-.25195-2.57812-.92285-1.7832-3.2041-3.34375-5.95508-4.07324-2.17285-.57617-4.42773-.60938-6.35254-.09277-.01855.00488-.03711.00977-.05664.01465-1.84668.50488-3.19043,1.48047-3.69043,2.67969l-.09082.20117c-.36328.74414-1.26172,1.05078-2.00586.69141-.74414-.36328-1.05371-1.26074-.69141-2.00586l.05469-.12207c.56738-1.36426,1.67773-2.52539,3.20312-3.36816-.97461-.62598-2.13379-1.12695-3.40723-1.46387-.85156-.22949-1.74121-.37402-2.64941-.43066-3.61914-.22266-6.70801,1.05078-7.5,3.1123-.31543.81934-.24023,1.69434.22266,2.60156.91504,1.79297,3.20117,3.3623,5.96582,4.0957,2.17871.5791,4.44238.60938,6.37305.08594.12891-.03516.26074-.05176.3916-.05176Z" style="fill:#293a4c; stroke-width:0px;"/><path d="M38.40723,27.37793c-.33496,0-.6748-.01074-1.01758-.03223-.82715-.05273-1.4541-.76465-1.40234-1.5918.05273-.82715.74805-1.4502,1.5918-1.40234,3.61914.22363,6.70703-1.05078,7.49805-3.1123.31543-.81836.24121-1.69043-.21973-2.5957-.91211-1.79102-3.19629-3.36328-5.96191-4.10254-2.18652-.57715-4.45801-.60742-6.3877-.08398-1.90625.51465-3.27637,1.52539-3.75977,2.77148-.2998.77344-1.17285,1.1543-1.94043.85645-.77246-.29883-1.15625-1.16797-.85645-1.94043.83105-2.14551,2.93555-3.81641,5.77246-4.58398,2.42969-.65625,5.25-.62793,7.94238.08105,3.62109.96777,6.55957,3.07617,7.86523,5.6416.85059,1.67188.9707,3.41211.3457,5.03223-1.18652,3.0957-4.9248,5.0625-9.46973,5.0625Z" style="fill:#293a4c; stroke-width:0px;"/><path d="M14.2832,14.7666c-.24902,0-.50195-.06152-.73438-.19238-.66504-.37402-.93457-1.17871-.65625-1.86816.00293-.00781.00586-.0166.00977-.02441h0c1.59961-4.15332,7.62891-6.12988,13.71973-4.50488,2.71582.71875,5.06738,2.08203,6.61816,3.83984.54785.62109.48828,1.56836-.13281,2.11719-.62207.54688-1.56836.48828-2.11719-.13281-1.16211-1.31641-2.9873-2.35547-5.13867-2.9248-4.48438-1.2002-9.12988.0332-10.15039,2.68359-.00098.00488-.00293.00879-.00488.01367-.0293.0791-.06641.16113-.10449.22852-.27539.48926-.78516.76465-1.30859.76465Z" style="fill:#293a4c; stroke-width:0px;"/><path d="M47.63867,23.2627c-.33496,0-.6748-.01074-1.01758-.03223-.82715-.05273-1.4541-.76465-1.40234-1.5918.05273-.82617.75195-1.45508,1.5918-1.40234,3.61719.22852,6.70703-1.0498,7.49902-3.1123.31445-.81836.24023-1.69043-.2207-2.59668-.91211-1.79102-3.19727-3.36328-5.96191-4.10156-2.18555-.57715-4.45605-.60938-6.3877-.08496-1.90625.51465-3.27637,1.52539-3.75977,2.77246-.2998.77344-1.17285,1.1543-1.94043.85645-.77246-.29883-1.15625-1.16797-.85645-1.94043.83203-2.14648,2.93555-3.81738,5.77344-4.58496,2.43164-.6582,5.25293-.62988,7.94141.08203,3.62012.9668,6.55859,3.0752,7.86426,5.63965.85156,1.67285.97266,3.41309.34766,5.03418-1.1875,3.0957-4.92578,5.0625-9.4707,5.0625Z" style="fill:#293a4c; stroke-width:0px;"/><path d="M23.51465,10.65137c-.24902,0-.50195-.06152-.73438-.19238-.66895-.37598-.9375-1.18848-.65137-1.87891.00391-.01172.00879-.02246.0127-.0332,1.6123-4.14062,7.63379-6.10645,13.71289-4.48535,2.71582.71875,5.06641,2.08203,6.61719,3.83789.54883.62109.49023,1.56934-.13086,2.11719-.62109.5498-1.57031.48926-2.11719-.13086-1.16309-1.31641-2.98828-2.35547-5.13965-2.9248-4.4834-1.19727-9.12988.03223-10.15039,2.68359-.00586.0166-.0127.0332-.01953.04883-.02734.06836-.05859.13574-.09082.19336-.27539.48926-.78516.76465-1.30859.76465Z" style="fill:#293a4c; stroke-width:0px;"/><path d="M54.20898,28.44531c-.04785,0-.0957-.00195-.14453-.00684-.82422-.07812-1.42969-.81055-1.35059-1.63574l.7627-8.00488c.0791-.8252.80566-1.43359,1.63574-1.35059.82422.07812,1.42969.81055,1.35059,1.63574l-.7627,8.00488c-.07422.77637-.72754,1.35742-1.49121,1.35742Z" style="fill:#293a4c; stroke-width:0px;"/><path d="M26.99023,54.78027c-1.03125,0-2.05566-.16309-3.04297-.4834l-14.02832-4.5293c-1.39648-.40039-3.57715-1.02637-3.76465-3.75488l-1.84082-24.3291c-.0625-.82617.55664-1.54688,1.38281-1.60938.83008-.06738,1.54688.55664,1.60938,1.38281l1.84082,24.33984c.03223.46875.04395.64062,1.64746,1.10156l14.07715,4.54395c1.95898.63672,4.1123.34863,5.83203-.74707l3.48926-2.22852c.69531-.44727,1.625-.24316,2.07129.45605.44629.69824.24219,1.62598-.45605,2.07129l-3.49023,2.22949c-1.59766,1.01855-3.43945,1.55664-5.32715,1.55664Z" style="fill:#293a4c; stroke-width:0px;"/><path d="M27.29199,53.0127c-.01953,0-.03906,0-.05859-.00098-.82812-.03223-1.47363-.72949-1.44141-1.55664l.83301-21.5127c.03223-.82812.75098-1.48438,1.55664-1.44141.82812.03223,1.47363.72949,1.44141,1.55664l-.83301,21.5127c-.03125.80859-.69629,1.44238-1.49805,1.44238Z" style="fill:#293a4c; stroke-width:0px;"/><circle cx="15.86884" cy="33.1579" r="1.51273" style="fill:#293a4c; stroke-width:0px;"/><circle cx="12.51329" cy="37.62054" r="1.51273" style="fill:#293a4c; stroke-width:0px;"/><circle cx="48.66098" cy="26.95657" r="1.51273" style="fill:#293a4c; stroke-width:0px;"/><circle cx="21.37863" cy="44.49665" r="1.51273" style="fill:#293a4c; stroke-width:0px;"/><path d="M55.24805,60.5h-17.47266c-1.7959,0-3.29199-1.34668-3.48145-3.13281l-1.74023-16.49023c-.44238-4.19043,1.84863-8.2002,5.57227-9.75,5.31836-2.21582,10.90625-2.16211,16.61133.1543,3.80664,1.54492,6.1543,5.58008,5.70898,9.81152l-1.71777,16.27441c-.18945,1.78613-1.68555,3.13281-3.48047,3.13281ZM46.10059,32.49121c-2.30957,0-4.57227.46875-6.82227,1.40527-2.50684,1.04395-4.04492,3.78516-3.74023,6.66602l1.74023,16.49023c.02637.25488.24023.44727.49707.44727h17.47266c.25586,0,.46973-.19238.49609-.44727l1.71777-16.27441c.30762-2.90918-1.27734-5.67188-3.85352-6.71777-2.57715-1.0459-5.06836-1.56934-7.50781-1.56934Z" style="fill:#293a4c; stroke-width:0px;"/><path d="M58.83984,43.5h-24.64941c-.82812,0-1.5-.67188-1.5-1.5s.67188-1.5,1.5-1.5h24.64941c.82812,0,1.5.67188,1.5,1.5s-.67188,1.5-1.5,1.5Z" style="fill:#293a4c; stroke-width:0px;"/><circle cx="41.12816" cy="48.5874" r="1.51273" style="fill:#293a4c; stroke-width:0px;"/><circle cx="51.87184" cy="48.86257" r="1.51273" style="fill:#293a4c; stroke-width:0px;"/><circle cx="46.18413" cy="53.74175" r="1.51273" style="fill:#293a4c; stroke-width:0px;"/><path d="M40.38477,38.68457c-.2793,0-.5625-.07812-.81445-.24023-.69531-.4502-.89355-1.37891-.44434-2.0752.68848-1.06348,2.74512-2.7334,6.07617-2.23828.81934.12109,1.38574.88379,1.26367,1.70312-.12012.81934-.88965,1.3916-1.70312,1.26367-2.24023-.32324-3.10938.88867-3.11719.90234-.28711.44336-.76953.68457-1.26074.68457Z" style="fill:#293a4c; stroke-width:0px;"/></svg>