<svg id="icons" xmlns="http://www.w3.org/2000/svg" viewBox="0 0 64 64"><defs><style>.cls-1{fill:none;stroke:#000;stroke-linecap:round;stroke-linejoin:round;stroke-width:2px;}</style></defs><title>8</title><g id="mug"><path class="cls-1" d="M40.92583,6.21822V35.30011a5.54538,5.54538,0,0,1-.2492,1.64369l-3.0509,9.8307a5.5455,5.5455,0,0,0-.2492,1.6437v9.36358A2.21822,2.21822,0,0,1,35.15831,60H17.85539a2.21822,2.21822,0,0,1-2.21822-2.21822V48.4182a5.54581,5.54581,0,0,0-.24919-1.6437l-3.05091-9.8307a5.54538,5.54538,0,0,1-.2492-1.64369V6.21822A2.21823,2.21823,0,0,1,14.3061,4H38.70761A2.21822,2.21822,0,0,1,40.92583,6.21822Z"/><line class="cls-1" x1="37.37653" y1="55.72172" x2="15.63717" y2="55.72172"/><path class="cls-1" d="M12.08787,10.57082H45.25746a6.65467,6.65467,0,0,1,6.65467,6.65467V36.18023a2.27252,2.27252,0,0,1-2.27252,2.27252h0a2.27252,2.27252,0,0,1-2.27252-2.27252V19.48168a4.43644,4.43644,0,0,0-4.43644-4.43644H12.08787"/></g></svg>