<?xml version="1.0" encoding="UTF-8"?><svg id="Line" xmlns="http://www.w3.org/2000/svg" viewBox="0 0 64 64"><path d="M38.87354,60.49902c-.55518,0-1.12354-.0625-1.7002-.18945l-27.69482-6.11914c-2.5083-.55762-4.47998-2.30176-5.41064-4.78613-1.12305-2.99805-.54785-6.58594,1.50146-9.36523L28.22266,9.8584c.04932-.06543.104-.12695.16309-.18359,5.38525-5.15039,11.57129-7.13574,17.88965-5.73828.80859.17871,1.31982.97949,1.14111,1.78809-.1792.80859-.97803,1.31445-1.78857,1.1416-5.33545-1.18262-10.41016.46582-15.08105,4.89258L7.97607,41.83008c-1.4458,1.96094-1.87012,4.46387-1.09912,6.52148.57666,1.53906,1.73096,2.57227,3.25049,2.91016l27.69385,6.11816c3.44531.76562,5.13135-2.28516,5.69629-3.63086l13.65088-33.60059c.22021-.54199.33154-1.1123.33154-1.69629,0-.66895-.14111-1.31152-.41943-1.91211-1.23096-2.65137-2.96875-4.93262-5.02393-6.5957-.64404-.52148-.74365-1.46582-.22266-2.10938.52051-.64453,1.46582-.74316,2.10938-.22266,2.40967,1.94922,4.43555,4.59961,5.8584,7.66504.46338.99902.69824,2.06641.69824,3.1748,0,.97266-.18555,1.92383-.55225,2.8252l-13.65723,33.61621c-1.5,3.5752-4.25049,5.60547-7.41699,5.60547Z" style="fill:#293a4c; stroke-width:0px;"/><path d="M41.73682,48.41211c-.20361,0-.41064-.04102-.60889-.12988-.75684-.33691-1.09717-1.22363-.76025-1.98047l3.21924-7.23145c.3374-.75586,1.22363-1.09766,1.97998-.75977.75684.33691,1.09717,1.22363.76025,1.98047l-3.21924,7.23145c-.24854.55859-.79639.88965-1.37109.88965Z" style="fill:#293a4c; stroke-width:0px;"/><path d="M39.23779,54.02637c-.20361,0-.41113-.04102-.60938-.12988-.75684-.33691-1.09717-1.22363-.75977-1.98047l.41064-.92188c.33643-.75684,1.22266-1.09863,1.98047-.75977.75684.33691,1.09717,1.22363.75977,1.98047l-.41064.92188c-.24854.55859-.79688.88965-1.37109.88965Z" style="fill:#293a4c; stroke-width:0px;"/><path d="M14.75635,48.10742c-.15234,0-.30713-.02246-.45996-.07227l-3.75586-1.20801c-.78857-.25391-1.22217-1.09863-.96826-1.88672.25342-.78906,1.09863-1.22559,1.88721-.96875l3.75586,1.20801c.78857.25391,1.22217,1.09863.96826,1.88672-.2041.63672-.79346,1.04102-1.42725,1.04102Z" style="fill:#293a4c; stroke-width:0px;"/><circle cx="15.32926" cy="37.68566" r="1.51273" style="fill:#293a4c; stroke-width:0px;"/><circle cx="31.0676" cy="44.49102" r="1.51273" style="fill:#293a4c; stroke-width:0px;"/><circle cx="51.15829" cy="18.0951" r="1.51273" style="fill:#293a4c; stroke-width:0px;"/><circle cx="51.15829" cy="23.40647" r="1.51273" style="fill:#293a4c; stroke-width:0px;"/><circle cx="36.38249" cy="42" r="1.51273" style="fill:#293a4c; stroke-width:0px;"/><path d="M22.97656,42.91113c-.0498,0-.10059-.00293-.15137-.00781-.65332-.06543-1.1875-.54883-1.31885-1.19238-.08984-.44043-2.12549-10.88379,4.15527-20.3457,3.87549-5.83691,8.40137-8.85352,12.39453-11.51465,2.66406-1.77539,4.96484-3.30957,6.75049-5.41895.39209-.46191,1.02393-.64062,1.6001-.45996.57764.18457.9873.69727,1.03955,1.30078.04248.49707,1.01318,12.24805-1.7085,20.54102-1.75391,5.34277-8.36084,8.65918-14.18945,11.58496-3.12012,1.56641-6.65625,3.3418-7.19189,4.60059-.2373.55664-.78369.91211-1.37988.91211ZM44.61475,8.81934c-1.50928,1.27051-3.17188,2.37891-4.89453,3.52734-3.94189,2.62695-8.01758,5.34375-11.55957,10.67871-3.65137,5.5-4.12061,11.51562-4.00488,15.03809,1.56104-1.09473,3.66406-2.15039,6.04639-3.3457,5.04395-2.53223,11.3208-5.68262,12.68506-9.83984,1.69531-5.16504,1.82764-12.04688,1.72754-16.05859Z" style="fill:#293a4c; stroke-width:0px;"/><path d="M28.36768,32.84473c-.07227,0-.14502-.00586-.21875-.0166-.81836-.12012-1.38574-.87793-1.26709-1.69727.02197-.15137.56201-3.75195,2.6582-6.56152.49561-.66504,1.43506-.80078,2.09912-.30566s.80078,1.43457.30518,2.09863c-1.63135,2.1875-2.08936,5.1709-2.09375,5.20117-.11084.74414-.75146,1.28125-1.48291,1.28125Z" style="fill:#293a4c; stroke-width:0px;"/><path d="M34.87061,30.35938c-.4502,0-.89551-.20215-1.19092-.58691-.50439-.65625-.38086-1.59863.27637-2.10254.52832-.40625,1.00879-.75977,1.44727-1.08301,1.43896-1.05859,2.30762-1.69824,2.91016-2.73828,1.21338-2.09473,1.37793-5.07227,1.33887-6.04297-.0332-.82812.61084-1.52637,1.43896-1.55957.82617-.04492,1.52539.61133,1.55908,1.43848.00684.17871.15332,4.39941-1.74121,7.66797-.91602,1.58105-2.09521,2.44922-3.72705,3.65039-.42383.3125-.88818.6543-1.39893,1.0459-.27246.20898-.59375.31055-.9126.31055Z" style="fill:#293a4c; stroke-width:0px;"/><path d="M34.38574,22.01367c-.29688,0-.59668-.08789-.8584-.27051-.67871-.47461-.84424-1.41016-.36914-2.08887l1.26758-1.8125c.47412-.67871,1.41016-.84375,2.08887-.37012.67871.47461.84424,1.41016.36914,2.08887l-1.26758,1.8125c-.2915.41699-.75732.64062-1.23047.64062Z" style="fill:#293a4c; stroke-width:0px;"/></svg>