<svg id="icons" xmlns="http://www.w3.org/2000/svg" viewBox="0 0 64 64"><defs><style>.cls-1{fill:none;stroke:#000;stroke-linecap:round;stroke-linejoin:round;stroke-width:2px;}</style></defs><title>14</title><g id="cezve_1"><path class="cls-1" d="M17.60367,38.866,11.62254,56.01188A3,3,0,0,0,14.45514,60H42.62347a3,3,0,0,0,2.8326-3.98812L39.47493,38.866Z"/><polyline class="cls-1" points="17.604 34.688 14.821 20.376 10.231 13.554 46.847 13.554 39.475 34.688 17.604 34.688"/><line class="cls-1" x1="24.30948" y1="38.86597" x2="21.54039" y2="60"/><line class="cls-1" x1="32.02445" y1="38.86597" x2="34.79354" y2="60"/><line class="cls-1" x1="24.30948" y1="34.68831" x2="21.54039" y2="13.55429"/><line class="cls-1" x1="32.02445" y1="34.68831" x2="34.79354" y2="13.55429"/><line class="cls-1" x1="19.81363" y1="34.68831" x2="19.81363" y2="38.86597"/><line class="cls-1" x1="37.27803" y1="34.68831" x2="37.27803" y2="38.86597"/><path class="cls-1" d="M17.21834,13.55429a14.77553,14.77553,0,0,1,11.30793-5.247,15.70331,15.70331,0,0,1,11.34052,5.247"/><path class="cls-1" d="M30.69877,8.48936v-2.181a2.2602,2.2602,0,0,0-1.9534-2.2993,2.15591,2.15591,0,0,0-2.35248,2.14387v2.312"/><path class="cls-1" d="M46.84727,13.55429h2.92139a4,4,0,0,1,4,4V28.36353a4,4,0,0,1-4,4H46.77623a2.1658,2.1658,0,0,1-2.1658-2.16579h0a2.1658,2.1658,0,0,1,2.1658-2.16579h.41332a2,2,0,0,0,2-2V20.62619a2,2,0,0,0-2-2H45.081"/></g></svg>