<svg id="icons" xmlns="http://www.w3.org/2000/svg" viewBox="0 0 64 64"><defs><style>.cls-1{fill:none;stroke:#000;stroke-linecap:round;stroke-linejoin:round;stroke-width:2px;}</style></defs><title>5</title><g id="coffee_grinder"><rect class="cls-1" x="10.86372" y="56.05693" width="39.17626" height="3.94307" rx="1.97153"/><rect class="cls-1" x="10.85933" y="30.46877" width="39.18432" height="3.94124" rx="1.97062"/><line class="cls-1" x1="14.28098" y1="34.40793" x2="14.28098" y2="56.05693"/><line class="cls-1" x1="46.62273" y1="34.40793" x2="46.62273" y2="56.05693"/><ellipse class="cls-1" cx="30.45185" cy="45.23243" rx="6.81515" ry="5.39532" transform="translate(-23.74248 39.21056) rotate(-49.70987)"/><path class="cls-1" d="M35.79579,41.1498l-.48239,1.01247a5.41652,5.41652,0,0,1-4.8562,3.0887h0a5.41654,5.41654,0,0,0-4.78278,2.94045l-.5742,1.1165"/><path class="cls-1" d="M45.33925,18.01866a14.9,14.9,0,0,1-6.69779,12.45011H22.26151a14.88268,14.88268,0,0,1-6.70912-12.45011Z"/><rect class="cls-1" x="28.38976" y="12.36887" width="4.11206" height="5.64978"/><path class="cls-1" d="M34.417,12.373a3.969,3.969,0,0,0-7.93792,0Z"/><polyline class="cls-1" points="32.507 15.199 50.04 15.199 50.04 10.201"/><circle class="cls-1" cx="50.03999" cy="7.10069" r="3.10069"/></g></svg>